<svg xmlns="http://www.w3.org/2000/svg" width="248.705" height="35.45" viewBox="0 0 248.705 35.45">
  <g id="그룹_821" data-name="그룹 821" transform="translate(-63.977 -74.583)">
    <path id="패스_1450" data-name="패스 1450" d="M73.547,109.667a10.859,10.859,0,0,1-5.42-1.209A7.707,7.707,0,0,1,64.99,105.3a9.026,9.026,0,0,1-1.013-4.223,13,13,0,0,1,.488-3.443q.488-1.782,1.147-3.637.684-1.953,1.221-3.943a15.168,15.168,0,0,0,.537-3.967A9.4,9.4,0,0,0,66,81.1a5.093,5.093,0,0,1-.855-2.49q0-2.369,3.907-3.3a35.076,35.076,0,0,1,7.91-.708q2.3,0,4.175.073,1.269.049,2.05.049a1.877,1.877,0,0,1,1.307.476,2.989,2.989,0,0,1,.793,1.209,4.293,4.293,0,0,1,.269,1.489,3.386,3.386,0,0,1-.44,1.733,1.409,1.409,0,0,1-1.294.757,2.041,2.041,0,0,1-.61-.1,12.213,12.213,0,0,0-2.771-.561q-1.428-.122-3.528-.122a2.968,2.968,0,0,0-1.6.39,2.627,2.627,0,0,0-.928.94A2.194,2.194,0,0,0,74.084,82a1.528,1.528,0,0,0,.476,1.16,1.892,1.892,0,0,0,1.355.452,6.983,6.983,0,0,0,1.66-.2q.806-.193,1.514-.439a5.425,5.425,0,0,1,1.758-.391,1.41,1.41,0,0,1,1.269.891,3.952,3.952,0,0,1,.464,1.844,2.868,2.868,0,0,1-.317,1.342,1.054,1.054,0,0,1-1,.611,7.335,7.335,0,0,1-1.319-.147,9.958,9.958,0,0,0-2.441-.268,7.093,7.093,0,0,0-2.136.232.929.929,0,0,0-.672.964,4.808,4.808,0,0,0,.855,2.222,9.531,9.531,0,0,0,1.465,1.965q.879.915,1.88,1.819,1.22,1.1,2.368,2.356a11.29,11.29,0,0,1,1.892,2.856,8.873,8.873,0,0,1,.744,3.772,5,5,0,0,1-1.489,3.748,9.16,9.16,0,0,1-3.857,2.16A17.35,17.35,0,0,1,73.547,109.667Z" fill="#242424"/>
    <path id="패스_1451" data-name="패스 1451" d="M95.178,109.667a10.58,10.58,0,0,1-5.066-1.087,7.445,7.445,0,0,1-3.015-2.82,7.2,7.2,0,0,1-1-3.662,7.666,7.666,0,0,1,.195-1.709A53.581,53.581,0,0,1,88.073,94.6q.855-2.392,1.526-4.761a16.894,16.894,0,0,0,.672-4.614,10.846,10.846,0,0,0-.342-2.7,9.074,9.074,0,0,0-1.148-2.6,4.32,4.32,0,0,1-.805-2.222,2.168,2.168,0,0,1,.781-1.721,4.8,4.8,0,0,1,2.014-.976,10.806,10.806,0,0,1,2.6-.305,9.712,9.712,0,0,1,3.955.805,21.264,21.264,0,0,1,5.884-.928,13.142,13.142,0,0,1,5.981,1.258A9.959,9.959,0,0,1,113,79a6.789,6.789,0,0,1,1.318,3.907,5.4,5.4,0,0,1-.695,2.649,5.97,5.97,0,0,1-2.161,2.16,28.712,28.712,0,0,0-2.454,1.648q-.794.623-.793,1.038c0,.212.154.407.464.586a7.386,7.386,0,0,0,1.367.561,11.869,11.869,0,0,1,5.81,5.176,14.552,14.552,0,0,1,2.393,7.666,4.49,4.49,0,0,1-1,3.04,5.613,5.613,0,0,1-2.6,1.672,13.144,13.144,0,0,1-9.338-.781,3.918,3.918,0,0,1-2-3.418l.024-3.784a29.008,29.008,0,0,0-.317-4.419,6.68,6.68,0,0,0-1.624-3.357,3.211,3.211,0,0,0-2.063-1.233.859.859,0,0,0-.647.268,1.207,1.207,0,0,0-.256.855q0,1.392,1.758,4.3a10.282,10.282,0,0,1,1.709,5.371,6.577,6.577,0,0,1-.94,3.54,6.742,6.742,0,0,1-2.466,2.368A6.658,6.658,0,0,1,95.178,109.667Zm3.686-25.293a8.968,8.968,0,0,0,1.782-.22,8.084,8.084,0,0,0,3.309-1.392,2.314,2.314,0,0,0,1.013-1.66,1.6,1.6,0,0,0-.781-1.331,3.637,3.637,0,0,0-2.125-.549,7.29,7.29,0,0,0-1.269.122,6,6,0,0,0-2.93,1.514,3.073,3.073,0,0,0-1.123,2.1,1.248,1.248,0,0,0,.5,1.013A2.6,2.6,0,0,0,98.864,84.374Z" fill="#242424"/>
    <path id="패스_1452" data-name="패스 1452" d="M130.944,109.862a11.312,11.312,0,0,1-4.15-.781,7.992,7.992,0,0,1-3.284-2.308,5.7,5.7,0,0,1-1.281-3.8A13.889,13.889,0,0,1,123,98.656a30.231,30.231,0,0,1,1.965-4.492,10.7,10.7,0,0,0,1.416-4.761q0-4.419-7.056-4.419a3.058,3.058,0,0,1-2.014-.72,4.757,4.757,0,0,1-1.343-1.856,6.1,6.1,0,0,1-.476-2.38,5.713,5.713,0,0,1,.6-2.539,4.8,4.8,0,0,1,1.892-2,6.507,6.507,0,0,1,3.394-.781,4.552,4.552,0,0,1,2.454.659,7.448,7.448,0,0,1,1.892,1.7,14.173,14.173,0,0,1,1.477,2.27q.646,1.233,1.208,2.429.587,1.271,1.123,2.246.415.757.733.757.341,0,.769-.793t.964-1.868q.61-1.2,1.331-2.478a16.4,16.4,0,0,1,1.635-2.393,8.375,8.375,0,0,1,2.063-1.818,4.829,4.829,0,0,1,2.588-.708,6.507,6.507,0,0,1,3.394.781,4.8,4.8,0,0,1,1.892,2,5.713,5.713,0,0,1,.6,2.539,6.1,6.1,0,0,1-.476,2.38,4.8,4.8,0,0,1-1.331,1.856,3.043,3.043,0,0,1-2.026.72,10.033,10.033,0,0,0-4.028.683,4.688,4.688,0,0,0-2.246,1.9,5.494,5.494,0,0,0-.708,2.807,6.761,6.761,0,0,0,.659,2.832q.658,1.441,1.514,2.93.9,1.587,1.635,3.223a8.043,8.043,0,0,1,.733,3.32,6.582,6.582,0,0,1-1.209,4.1,7.056,7.056,0,0,1-3.113,2.331A10.749,10.749,0,0,1,130.944,109.862Z" fill="#242424"/>
    <path id="패스_1453" data-name="패스 1453" d="M170.91,110.033a20.479,20.479,0,0,1-6.372-.977,11.179,11.179,0,0,1-4.858-2.978,7.636,7.636,0,0,1-1.953-5.42A11.416,11.416,0,0,1,158.361,97q.635-1.88,1.465-3.833.9-2.052,1.611-4.175a13.365,13.365,0,0,0,.709-4.248,9.051,9.051,0,0,0-1.075-4.346,3.97,3.97,0,0,1-.488-1.733,2.658,2.658,0,0,1,1.27-2.271,9.045,9.045,0,0,1,3.32-1.306,21.389,21.389,0,0,1,4.37-.427,25.666,25.666,0,0,1,5.408.549,12.3,12.3,0,0,1,4.138,1.587,3.129,3.129,0,0,1,1.636,2.527q0,2.05-3.3,3.833-.587.318-.891.513t-.306.366q0,.366,1.465.879a15.217,15.217,0,0,1,7.154,5.2,14.349,14.349,0,0,1,2.71,8.594,8.3,8.3,0,0,1-1.465,4.846,12.3,12.3,0,0,1-3.882,3.552,19.944,19.944,0,0,1-5.371,2.185A24.212,24.212,0,0,1,170.91,110.033ZM170.153,83.4a2.323,2.323,0,0,0,.977-.269,11.581,11.581,0,0,0,2.832-1.892,2.375,2.375,0,0,0,.854-1.452q0-.952-1.684-1.026a6.135,6.135,0,0,0-1.734.293,3.168,3.168,0,0,0-1.721,1.294,3.243,3.243,0,0,0-.573,1.734,1.638,1.638,0,0,0,.256.94A.891.891,0,0,0,170.153,83.4Zm4.761,8.252a3.982,3.982,0,0,0,1.819-.305.888.888,0,0,0,.549-.769,2.148,2.148,0,0,0-.976-1.49,9.252,9.252,0,0,0-2.417-1.391,7.479,7.479,0,0,0-2.832-.586,2.018,2.018,0,0,0-1.416.415,1.328,1.328,0,0,0-.44,1,2.567,2.567,0,0,0,.757,1.684Q171.227,91.649,174.914,91.649Z" fill="#242424"/>
    <path id="패스_1454" data-name="패스 1454" d="M214.782,109.667a10.132,10.132,0,0,1-2.978-.464,9.271,9.271,0,0,1-2.783-1.392,7.189,7.189,0,0,1-2.051-2.319,6.522,6.522,0,0,1-.782-3.247,11.915,11.915,0,0,1,1.465-5.2,9.8,9.8,0,0,0,1.2-4.126,4.058,4.058,0,0,0-.476-2.063,3.213,3.213,0,0,0-1.233-1.232,3.254,3.254,0,0,0-1.587-.415,3.036,3.036,0,0,0-2.649,1.55,3.735,3.735,0,0,0-.452,1.916,9.374,9.374,0,0,0,1.343,4.37,11.945,11.945,0,0,1,1.587,5.347,6.233,6.233,0,0,1-.806,3.223,7.19,7.19,0,0,1-2.1,2.27,9.434,9.434,0,0,1-2.832,1.343,10.832,10.832,0,0,1-2.979.44,8.7,8.7,0,0,1-5.408-1.673,5.128,5.128,0,0,1-2.209-4.26,9.313,9.313,0,0,1,.525-2.991,24.678,24.678,0,0,1,1.355-3.2q.83-1.648,1.757-3.333,1.026-1.806,1.929-3.625a27.8,27.8,0,0,0,1.5-3.626,11.241,11.241,0,0,0,.6-3.54A7.95,7.95,0,0,0,196.4,81.2a4.65,4.65,0,0,1-.195-1.27,3.666,3.666,0,0,1,1.367-2.917,8.9,8.9,0,0,1,3.516-1.734,17.992,17.992,0,0,1,9.009,0,8.906,8.906,0,0,1,3.515,1.734,3.667,3.667,0,0,1,1.368,2.917,4.653,4.653,0,0,1-.2,1.27,7.7,7.7,0,0,0-.317,2.2,10.822,10.822,0,0,0,.622,3.54,27.163,27.163,0,0,0,1.563,3.626q.939,1.818,1.965,3.625.977,1.71,1.831,3.345a24.349,24.349,0,0,1,1.4,3.2,9.05,9.05,0,0,1,.549,3,5.128,5.128,0,0,1-2.209,4.26A8.7,8.7,0,0,1,214.782,109.667Zm-9.009-23.316A2.439,2.439,0,0,0,207.08,86a1.234,1.234,0,0,0,.573-1.135,2.759,2.759,0,0,0-.219-.977q-.879-1.928-1.831-1.928-1.052,0-1.954,2.294a1.719,1.719,0,0,0-.1.538,1.275,1.275,0,0,0,.708,1.147A2.936,2.936,0,0,0,205.773,86.351Z" fill="#242424"/>
    <path id="패스_1455" data-name="패스 1455" d="M235.412,109.74a11.4,11.4,0,0,1-5.591-1.294,11.2,11.2,0,0,1-3.869-3.516,15.863,15.863,0,0,1-2.259-5.041,23.277,23.277,0,0,1-.732-5.872,26.975,26.975,0,0,1,.915-6.958,22.994,22.994,0,0,1,2.649-6.238,14.8,14.8,0,0,1,4.212-4.492,9.727,9.727,0,0,1,5.627-1.7,10.278,10.278,0,0,1,6.3,2.014,6.53,6.53,0,0,1,2.832,5.188,3.476,3.476,0,0,1-.745,2.247,4.934,4.934,0,0,1-1.867,1.428,5.42,5.42,0,0,1-2.222.5,3.659,3.659,0,0,1-1.782-.439,2.466,2.466,0,0,1-1.148-1.367l-.146-.708a16.2,16.2,0,0,0-.33-1.648,5.812,5.812,0,0,0-.683-1.673,1.406,1.406,0,0,0-1.258-.732q-1.05,0-1.7,1.611a9.748,9.748,0,0,0-.647,3.662,10.9,10.9,0,0,0,.439,3.1,5.594,5.594,0,0,0,1.38,2.429,3.481,3.481,0,0,0,2.453.989,6.265,6.265,0,0,0,3.662-1.05,4.518,4.518,0,0,1,2.466-.9A3.388,3.388,0,0,1,246,90.55a8.793,8.793,0,0,1,1.721,3.308,16,16,0,0,1,.635,4.432,10.517,10.517,0,0,1-1.111,4.919,10.868,10.868,0,0,1-2.967,3.589,13.316,13.316,0,0,1-4.162,2.2A15.2,15.2,0,0,1,235.412,109.74Z" fill="#242424"/>
    <path id="패스_1456" data-name="패스 1456" d="M263.952,109.667a13.62,13.62,0,0,1-5.09-.989,13.258,13.258,0,0,1-4.468-2.967,14.331,14.331,0,0,1-3.174-4.956,18.766,18.766,0,0,1-1.184-6.958,27.119,27.119,0,0,1,1.172-8.4,17.941,17.941,0,0,1,3.137-5.957,13.168,13.168,0,0,1,4.431-3.552,11.612,11.612,0,0,1,5.078-1.184,11.74,11.74,0,0,1,5.164,1.208,13.584,13.584,0,0,1,4.492,3.577,17.748,17.748,0,0,1,3.162,5.908,26.2,26.2,0,0,1,1.172,8.227,19.413,19.413,0,0,1-1.2,7.154,14.308,14.308,0,0,1-3.2,5.005,12.939,12.939,0,0,1-4.48,2.929A13.882,13.882,0,0,1,263.952,109.667Zm.122-17.481a2.233,2.233,0,0,0,1.514-.635,4.669,4.669,0,0,0,1.172-1.88,8.875,8.875,0,0,0,.464-3.076,17.547,17.547,0,0,0-.476-4.443,7.16,7.16,0,0,0-1.221-2.686,2.064,2.064,0,0,0-1.55-.9,1.939,1.939,0,0,0-1.453.83,6.368,6.368,0,0,0-1.123,2.5,17.375,17.375,0,0,0-.427,4.211,9.094,9.094,0,0,0,.9,4.565A2.585,2.585,0,0,0,264.074,92.186Z" fill="#242424"/>
    <path id="패스_1457" data-name="패스 1457" d="M304.089,109.667a7.021,7.021,0,0,1-3.54-.965,7.64,7.64,0,0,1-2.735-2.661,7.246,7.246,0,0,1-1.049-3.894,10.537,10.537,0,0,1,1.342-4.81,7.656,7.656,0,0,0,.953-3.54,7.253,7.253,0,0,0-.721-3.2,9.991,9.991,0,0,0-1.818-2.624,9.249,9.249,0,0,0-2.332-1.783,4.9,4.9,0,0,0-2.234-.647,2.051,2.051,0,0,0-1.514.586,2.62,2.62,0,0,0-.586,1.905q0,3.148,3.76,9.5a10.421,10.421,0,0,1,1.612,5.224,6.739,6.739,0,0,1-.965,3.614,6.872,6.872,0,0,1-5.871,3.3A10.512,10.512,0,0,1,283.4,108.6a7.235,7.235,0,0,1-2.966-2.758,7.1,7.1,0,0,1-.977-3.6q0-2.1,2.1-7.618.951-2.49,1.684-4.907a16.257,16.257,0,0,0,.733-4.736,10.11,10.11,0,0,0-.33-2.576,9.478,9.478,0,0,0-1.074-2.49,4.334,4.334,0,0,1-.745-2.161,2.176,2.176,0,0,1,.794-1.745,5.026,5.026,0,0,1,2.038-.989,10.567,10.567,0,0,1,2.613-.317,11.138,11.138,0,0,1,2.526.28,6.188,6.188,0,0,1,2.356,1.16A17.279,17.279,0,0,1,295.2,79.71q1.026,1.465,2.271,2.93,1.758,1.929,2.392,1.929.439,0,.44-.659a7.775,7.775,0,0,0-.464-2.43,8,8,0,0,0-.83-1.892,3.514,3.514,0,0,1-.83-2,1.978,1.978,0,0,1,.8-1.6,5.347,5.347,0,0,1,2.051-.964,10.565,10.565,0,0,1,2.612-.317,10.687,10.687,0,0,1,2.674.329,5.178,5.178,0,0,1,2.1,1.026,2.272,2.272,0,0,1,.818,1.818,4.352,4.352,0,0,1-.659,2.076,9.28,9.28,0,0,0-1.2,4.541,15.4,15.4,0,0,0,.866,4.968q.867,2.552,1.966,5.163,2.464,5.713,2.465,7.959a6.839,6.839,0,0,1-.928,3.455,6.768,6.768,0,0,1-2.843,2.625A10.363,10.363,0,0,1,304.089,109.667Z" fill="#242424"/>
  </g>
</svg>
