<svg xmlns="http://www.w3.org/2000/svg" width="297.119" height="35.425" viewBox="0 0 297.119 35.425">
  <g id="그룹_825" data-name="그룹 825" transform="translate(-52.276 -240.766)">
    <path id="패스_1485" data-name="패스 1485" d="M62.676,275.874a13.538,13.538,0,0,1-5.188-.977,8.709,8.709,0,0,1-3.8-2.893,7.812,7.812,0,0,1-1.416-4.773,13.136,13.136,0,0,1,.488-3.455q.488-1.794,1.148-3.65.683-1.951,1.233-3.942a14.864,14.864,0,0,0,.549-3.968,9.356,9.356,0,0,0-1.367-4.956,6.021,6.021,0,0,1-1-2.881q0-1.635,2.16-2.612a13.145,13.145,0,0,1,5.408-.976,22.063,22.063,0,0,1,5.042.622,20.464,20.464,0,0,1,5.163,2,17.037,17.037,0,0,1,7.788,9.058,20.791,20.791,0,0,1,1.221,7.458,14.372,14.372,0,0,1-1.587,6.861,15.71,15.71,0,0,1-4.15,5,18.411,18.411,0,0,1-5.64,3.052A19.062,19.062,0,0,1,62.676,275.874Zm2.149-19.947a2.424,2.424,0,0,0,1.831-.769,4.851,4.851,0,0,0,1.1-1.977,8.556,8.556,0,0,0,.367-2.5,8.841,8.841,0,0,0-.415-2.71,5.268,5.268,0,0,0-1.233-2.124,2.749,2.749,0,0,0-2.039-.83,1.435,1.435,0,0,0-.915.318,2.106,2.106,0,0,0-.623,1.147,9.809,9.809,0,0,0-.22,2.368q0,4.908,1.05,6.4A1.322,1.322,0,0,0,64.825,255.927Z" fill="#242424"/>
    <path id="패스_1486" data-name="패스 1486" d="M96.294,275.825a13.624,13.624,0,0,1-5.09-.989,13.289,13.289,0,0,1-4.468-2.966,14.363,14.363,0,0,1-3.173-4.956,18.752,18.752,0,0,1-1.185-6.958,27.125,27.125,0,0,1,1.172-8.4,17.952,17.952,0,0,1,3.138-5.957,13.168,13.168,0,0,1,4.431-3.552,11.606,11.606,0,0,1,5.078-1.184,11.749,11.749,0,0,1,5.163,1.208,13.6,13.6,0,0,1,4.493,3.577,17.746,17.746,0,0,1,3.161,5.908,26.21,26.21,0,0,1,1.172,8.228,19.429,19.429,0,0,1-1.2,7.153,14.318,14.318,0,0,1-3.2,5.005,12.965,12.965,0,0,1-4.48,2.93A13.911,13.911,0,0,1,96.294,275.825Zm.123-17.481a2.23,2.23,0,0,0,1.513-.635A4.658,4.658,0,0,0,99.1,255.83a8.88,8.88,0,0,0,.464-3.077,17.553,17.553,0,0,0-.476-4.443,7.147,7.147,0,0,0-1.221-2.685,2.061,2.061,0,0,0-1.55-.9,1.939,1.939,0,0,0-1.453.83,6.368,6.368,0,0,0-1.123,2.5,17.376,17.376,0,0,0-.427,4.211,9.111,9.111,0,0,0,.9,4.566A2.587,2.587,0,0,0,96.417,258.344Z" fill="#242424"/>
    <path id="패스_1487" data-name="패스 1487" d="M134.356,275.825a7.2,7.2,0,0,1-4.15-1.343,10.065,10.065,0,0,1-1.282-1.025c-.237-.245-.427-.367-.574-.367a1.129,1.129,0,0,0-.622.379q-.4.378-1.307,1.062a6.5,6.5,0,0,1-3.906,1.294,15.265,15.265,0,0,1-5.92-.989,7.474,7.474,0,0,1-3.467-2.722,7.1,7.1,0,0,1-1.135-3.98,15.973,15.973,0,0,1,.647-4.492q.646-2.221,1.477-4.394.78-2.052,1.379-4.078a14.075,14.075,0,0,0,.6-4,10.2,10.2,0,0,0-.329-2.564,9.366,9.366,0,0,0-1.1-2.527,4.342,4.342,0,0,1-.769-2.16,2.18,2.18,0,0,1,.793-1.746,5.045,5.045,0,0,1,2.051-.989,11.025,11.025,0,0,1,5.3.012,5.489,5.489,0,0,1,2.1.989,2.048,2.048,0,0,1,.818,1.66,3.522,3.522,0,0,1-.733,1.9,6.411,6.411,0,0,0-.867,2.111,11.863,11.863,0,0,0-.305,2.747,13.435,13.435,0,0,0,.659,4.4,7.969,7.969,0,0,0,1.685,2.966,2.992,2.992,0,0,0,2.148,1.062,2.374,2.374,0,0,0,1.612-.684,4.869,4.869,0,0,0,1.233-2.087,11.332,11.332,0,0,0,.476-3.577,22.5,22.5,0,0,0-.305-3.955,6.915,6.915,0,0,0-1.282-2.978,3.516,3.516,0,0,1-.83-2,1.976,1.976,0,0,1,.805-1.6,5.341,5.341,0,0,1,2.063-.965,10.612,10.612,0,0,1,2.6-.317,10.732,10.732,0,0,1,2.673.329,5.178,5.178,0,0,1,2.1,1.026,2.275,2.275,0,0,1,.818,1.819,4.457,4.457,0,0,1-.659,2.075,9.191,9.191,0,0,0-1.2,4.541,11.886,11.886,0,0,0,.488,3.113q.487,1.77,1.209,3.674t1.477,3.76q.879,2.124,1.513,3.857a8.51,8.51,0,0,1,.635,2.661,9.007,9.007,0,0,1-.94,4.175,6.791,6.791,0,0,1-2.844,2.881A9.935,9.935,0,0,1,134.356,275.825Z" fill="#242424"/>
    <path id="패스_1488" data-name="패스 1488" d="M158.062,276.191a20.479,20.479,0,0,1-6.372-.977,11.173,11.173,0,0,1-4.858-2.978,7.637,7.637,0,0,1-1.954-5.42,11.418,11.418,0,0,1,.635-3.662q.635-1.879,1.465-3.833.9-2.051,1.611-4.175a13.364,13.364,0,0,0,.708-4.248,9.05,9.05,0,0,0-1.074-4.346,3.957,3.957,0,0,1-.488-1.733A2.659,2.659,0,0,1,149,242.548a9.057,9.057,0,0,1,3.321-1.306,21.451,21.451,0,0,1,4.37-.427,25.673,25.673,0,0,1,5.408.549,12.3,12.3,0,0,1,4.138,1.587,3.126,3.126,0,0,1,1.635,2.527q0,2.051-3.3,3.833-.586.318-.892.513t-.3.366q0,.366,1.465.879a15.209,15.209,0,0,1,7.153,5.2,14.337,14.337,0,0,1,2.71,8.594,8.3,8.3,0,0,1-1.464,4.846,12.3,12.3,0,0,1-3.882,3.552,19.925,19.925,0,0,1-5.371,2.185A24.219,24.219,0,0,1,158.062,276.191Zm-.757-26.636a2.334,2.334,0,0,0,.977-.268,11.609,11.609,0,0,0,2.832-1.892,2.377,2.377,0,0,0,.854-1.453q0-.952-1.684-1.025a6.131,6.131,0,0,0-1.734.292,3.165,3.165,0,0,0-1.721,1.294,3.247,3.247,0,0,0-.574,1.734,1.638,1.638,0,0,0,.257.94A.891.891,0,0,0,157.3,249.555Zm4.761,8.252a3.969,3.969,0,0,0,1.819-.3.888.888,0,0,0,.549-.769,2.148,2.148,0,0,0-.976-1.489,9.3,9.3,0,0,0-2.417-1.392,7.48,7.48,0,0,0-2.833-.586,2.02,2.02,0,0,0-1.416.415,1.332,1.332,0,0,0-.439,1,2.571,2.571,0,0,0,.757,1.685Q158.379,257.807,162.066,257.807Z" fill="#242424"/>
    <path id="패스_1489" data-name="패스 1489" d="M189.922,275.825a22.784,22.784,0,0,1-6.836-.965,12.056,12.056,0,0,1-4.9-2.734,5.624,5.624,0,0,1-1.818-4.163,6.023,6.023,0,0,1,.17-1.416,52.669,52.669,0,0,1,1.783-5.81q.854-2.393,1.526-4.749a16.765,16.765,0,0,0,.671-4.6,10.805,10.805,0,0,0-.342-2.7,9.07,9.07,0,0,0-1.147-2.6,4.323,4.323,0,0,1-.806-2.221,2.13,2.13,0,0,1,.781-1.709,5.017,5.017,0,0,1,2.027-.977,10.46,10.46,0,0,1,2.588-.317,11.019,11.019,0,0,1,2.7.329,5.5,5.5,0,0,1,2.137,1,2.1,2.1,0,0,1,.83,1.7,3.557,3.557,0,0,1-.733,1.892,7.989,7.989,0,0,0-1.1,2.564,12.645,12.645,0,0,0-.367,3.064,13.691,13.691,0,0,0,.513,3.759,7.976,7.976,0,0,0,1.465,2.955,2.843,2.843,0,0,0,2.246,1.147q1.806,0,3.784-2.441a4.036,4.036,0,0,1,2.954-1.709,3.174,3.174,0,0,1,2.136.9,6.487,6.487,0,0,1,1.661,2.734,14.037,14.037,0,0,1,.647,4.615q0,6.786-3.955,9.863A13.558,13.558,0,0,1,189.922,275.825Z" fill="#242424"/>
    <path id="패스_1490" data-name="패스 1490" d="M217.461,275.727a21.285,21.285,0,0,1-4.846-.549,16.587,16.587,0,0,1-4.211-1.563,9.075,9.075,0,0,1-2.954-2.466,5.228,5.228,0,0,1-1.1-3.234,15.364,15.364,0,0,1,.525-3.956q.525-1.977,1.2-3.955t1.184-3.918a15,15,0,0,0,.513-3.845,9.4,9.4,0,0,0-1.367-4.981,5.9,5.9,0,0,1-1-2.856q0-2.246,3.027-3.052a28.754,28.754,0,0,1,6.714-.586q2.222,0,4.468.049,2.124.073,3.955.073a1.91,1.91,0,0,1,1.331.476,2.909,2.909,0,0,1,.781,1.2,4.368,4.368,0,0,1,.256,1.477,3.42,3.42,0,0,1-.439,1.77,1.456,1.456,0,0,1-1.343.744,10.292,10.292,0,0,1-1.685-.244,26.752,26.752,0,0,0-4.565-.537,4.632,4.632,0,0,0-2,.366,2.593,2.593,0,0,0-1.1.9,1.952,1.952,0,0,0-.342,1.049,1.612,1.612,0,0,0,.513,1.172,1.848,1.848,0,0,0,1.367.513,7.045,7.045,0,0,0,1.746-.208q.817-.207,1.5-.451a4.586,4.586,0,0,1,1.563-.366,1.49,1.49,0,0,1,1.343.878,3.772,3.772,0,0,1,.488,1.856,2.592,2.592,0,0,1-.354,1.367,1.181,1.181,0,0,1-1.086.586,6.622,6.622,0,0,1-1.062-.11q-.648-.109-1.539-.207a19.724,19.724,0,0,0-2.111-.1,1.707,1.707,0,0,0-1.416.61,2.041,2.041,0,0,0-.489,1.294,2.247,2.247,0,0,0,.367,1.184,2.822,2.822,0,0,0,1.123,1,4.016,4.016,0,0,0,1.9.4h1.294a12.443,12.443,0,0,0,4.639-.683,8.48,8.48,0,0,1,3.54-.928,3.2,3.2,0,0,1,2.014.671,4.372,4.372,0,0,1,1.343,2.283,16.126,16.126,0,0,1,.476,4.394,12.347,12.347,0,0,1-1.221,5.713,10.909,10.909,0,0,1-3.247,3.858,13.989,13.989,0,0,1-4.553,2.2A18.967,18.967,0,0,1,217.461,275.727Z" fill="#242424"/>
    <path id="패스_1491" data-name="패스 1491" d="M270.074,275.825a6.954,6.954,0,0,1-3.528-.965,7.653,7.653,0,0,1-2.722-2.661,7.246,7.246,0,0,1-1.05-3.894,9.923,9.923,0,0,1,1.343-4.809q.512-.9,1.025-2.051a13.9,13.9,0,0,0,1.172-5.567,2.3,2.3,0,0,0-.647-1.684,4.031,4.031,0,0,0-1.648-.989,6.738,6.738,0,0,0-2.124-.33,7.7,7.7,0,0,0-2.2.318,4.539,4.539,0,0,0-1.77.94,1.97,1.97,0,0,0-.7,1.526,11.931,11.931,0,0,0,.4,3.112,17.658,17.658,0,0,0,.976,2.759,22.769,22.769,0,0,0,1.111,2.161,10.709,10.709,0,0,1,1.611,5.225,6.676,6.676,0,0,1-.964,3.6,6.981,6.981,0,0,1-2.515,2.429,6.689,6.689,0,0,1-3.356.879,10.524,10.524,0,0,1-4.993-1.062A7.23,7.23,0,0,1,246.539,272a7.1,7.1,0,0,1-.977-3.6q0-2.172,2.124-7.642.927-2.49,1.66-4.907a16.215,16.215,0,0,0,.733-4.712,9.275,9.275,0,0,0-1.392-5.029,4.488,4.488,0,0,1-.781-2.2,2.18,2.18,0,0,1,.793-1.746,5.045,5.045,0,0,1,2.051-.989,11.025,11.025,0,0,1,5.3.012,5.484,5.484,0,0,1,2.1.989,2.048,2.048,0,0,1,.818,1.66,3.52,3.52,0,0,1-.732,1.9,2.722,2.722,0,0,0-.562,1.464,1.6,1.6,0,0,0,.611,1.27,4,4,0,0,0,1.562.769,7.572,7.572,0,0,0,1.978.256,6.413,6.413,0,0,0,2.661-.537,1.712,1.712,0,0,0,1.2-1.587,2.9,2.9,0,0,0-.683-1.635,3.516,3.516,0,0,1-.83-2,1.976,1.976,0,0,1,.805-1.6,5.334,5.334,0,0,1,2.063-.965,10.61,10.61,0,0,1,2.6-.317,10.877,10.877,0,0,1,2.686.329,5.283,5.283,0,0,1,2.112,1.014,2.239,2.239,0,0,1,.818,1.806,4.386,4.386,0,0,1-.684,2.1,9.4,9.4,0,0,0-1.172,4.516,15.4,15.4,0,0,0,.867,4.969q.866,2.552,1.965,5.163,2.466,5.763,2.466,7.984a6.793,6.793,0,0,1-.928,3.442,6.88,6.88,0,0,1-2.844,2.625A10.315,10.315,0,0,1,270.074,275.825Z" fill="#242424"/>
    <path id="패스_1492" data-name="패스 1492" d="M305.987,275.825a10.132,10.132,0,0,1-2.978-.464,9.259,9.259,0,0,1-2.783-1.392,7.181,7.181,0,0,1-2.052-2.319,6.521,6.521,0,0,1-.781-3.247,11.894,11.894,0,0,1,1.465-5.2,9.815,9.815,0,0,0,1.2-4.126,4.045,4.045,0,0,0-.476-2.063,3.2,3.2,0,0,0-1.233-1.233,3.251,3.251,0,0,0-1.587-.415,3.04,3.04,0,0,0-2.649,1.55,3.736,3.736,0,0,0-.451,1.917A9.39,9.39,0,0,0,295,263.2a11.942,11.942,0,0,1,1.587,5.346,6.231,6.231,0,0,1-.8,3.223,7.182,7.182,0,0,1-2.1,2.27,9.435,9.435,0,0,1-2.832,1.343,10.82,10.82,0,0,1-2.978.44,8.693,8.693,0,0,1-5.408-1.673,5.127,5.127,0,0,1-2.21-4.26,9.313,9.313,0,0,1,.525-2.991,24.958,24.958,0,0,1,1.355-3.2q.83-1.648,1.758-3.332,1.026-1.806,1.929-3.626a27.837,27.837,0,0,0,1.5-3.625,11.217,11.217,0,0,0,.6-3.54,7.987,7.987,0,0,0-.317-2.222,4.65,4.65,0,0,1-.2-1.27,3.664,3.664,0,0,1,1.367-2.917,8.89,8.89,0,0,1,3.516-1.733,17.961,17.961,0,0,1,9.009,0,8.9,8.9,0,0,1,3.515,1.733,3.668,3.668,0,0,1,1.368,2.917,4.693,4.693,0,0,1-.2,1.27,7.666,7.666,0,0,0-.318,2.2,10.85,10.85,0,0,0,.623,3.54,27.419,27.419,0,0,0,1.562,3.626q.94,1.819,1.965,3.625.977,1.71,1.832,3.345a24.826,24.826,0,0,1,1.4,3.2,9.074,9.074,0,0,1,.548,3,5.127,5.127,0,0,1-2.208,4.26A8.7,8.7,0,0,1,305.987,275.825Zm-9.009-23.316a2.429,2.429,0,0,0,1.306-.354,1.232,1.232,0,0,0,.574-1.135,2.745,2.745,0,0,0-.22-.977q-.879-1.928-1.831-1.928-1.05,0-1.953,2.295a1.711,1.711,0,0,0-.1.537,1.275,1.275,0,0,0,.708,1.147A2.942,2.942,0,0,0,296.978,252.509Z" fill="#242424"/>
    <path id="패스_1493" data-name="패스 1493" d="M340.459,275.825a6.713,6.713,0,0,1-3.345-.879,6.952,6.952,0,0,1-2.527-2.429,6.676,6.676,0,0,1-.964-3.6,10.709,10.709,0,0,1,1.611-5.225,21.091,21.091,0,0,0,1.99-5.09,23.787,23.787,0,0,0,.867-6.263q0-1.269-.513-1.391c-.18,0-.427.22-.745.659a7.077,7.077,0,0,0-.854,1.685,6.088,6.088,0,0,0-.378,2.124,5.276,5.276,0,0,0,.366,1.9,3.077,3.077,0,0,1,.268,1.2,2.058,2.058,0,0,1-.586,1.5,3.677,3.677,0,0,1-1.513.9,6.37,6.37,0,0,1-3.895,0,3.672,3.672,0,0,1-1.525-.9,2.058,2.058,0,0,1-.586-1.5,3.076,3.076,0,0,1,.268-1.2,5.063,5.063,0,0,0,.367-1.88,6.093,6.093,0,0,0-.391-2.161,7.031,7.031,0,0,0-.879-1.7q-.489-.66-.732-.66-.465,0-.464,1.661v.854a18.738,18.738,0,0,0,.891,5.725,21.369,21.369,0,0,0,1.941,4.529,10.709,10.709,0,0,1,1.611,5.225,6.676,6.676,0,0,1-.964,3.6,6.982,6.982,0,0,1-2.515,2.429,6.7,6.7,0,0,1-3.357.879,10.527,10.527,0,0,1-4.993-1.062A7.243,7.243,0,0,1,315.947,272a7.108,7.108,0,0,1-.976-3.6,8.063,8.063,0,0,1,.219-1.856,58.389,58.389,0,0,1,1.9-5.859q.951-2.466,1.672-4.871a16.258,16.258,0,0,0,.72-4.675,10.067,10.067,0,0,0-.33-2.576,9.612,9.612,0,0,0-1.074-2.5,4.379,4.379,0,0,1-.744-2.148,2.183,2.183,0,0,1,.793-1.746,5.043,5.043,0,0,1,2.039-.989,10.56,10.56,0,0,1,2.612-.317,9.526,9.526,0,0,1,2.894.488,5.383,5.383,0,0,1,2.575,1.782l.488.635q1.221,1.637,1.978,2.466a2.055,2.055,0,0,0,1.416.83,2.372,2.372,0,0,0,1.587-.964q.879-.965,2.392-2.967a5.371,5.371,0,0,1,2.588-1.782,9.568,9.568,0,0,1,2.881-.488,10.565,10.565,0,0,1,2.612.317,5.043,5.043,0,0,1,2.039.989,2.18,2.18,0,0,1,.793,1.746,4.379,4.379,0,0,1-.744,2.148,9.545,9.545,0,0,0-1.074,2.515,10.1,10.1,0,0,0-.33,2.563,16.227,16.227,0,0,0,.721,4.675q.719,2.406,1.672,4.871a58.884,58.884,0,0,1,1.9,5.859,7.751,7.751,0,0,1,.22,1.831,7.134,7.134,0,0,1-3.931,6.385A10.509,10.509,0,0,1,340.459,275.825Z" fill="#242424"/>
  </g>
</svg>
