<svg xmlns="http://www.w3.org/2000/svg" width="342.304" height="32.591" viewBox="0 0 342.304 32.591">
  <g id="그룹_822" data-name="그룹 822" transform="translate(-349.187 -74.079)">
    <path id="패스_1458" data-name="패스 1458" d="M358.755,106.378a12.436,12.436,0,0,1-4.773-.9,8,8,0,0,1-3.492-2.661,7.183,7.183,0,0,1-1.3-4.391,12.068,12.068,0,0,1,.449-3.178q.45-1.651,1.056-3.358.629-1.8,1.134-3.628a13.659,13.659,0,0,0,.506-3.65,8.605,8.605,0,0,0-1.258-4.559,5.539,5.539,0,0,1-.921-2.651q0-1.5,1.988-2.4a12.088,12.088,0,0,1,4.975-.9,20.278,20.278,0,0,1,4.638.572,18.8,18.8,0,0,1,4.75,1.842,15.672,15.672,0,0,1,7.165,8.333,19.13,19.13,0,0,1,1.123,6.862,13.218,13.218,0,0,1-1.459,6.311,14.465,14.465,0,0,1-3.819,4.6,16.954,16.954,0,0,1-5.188,2.808A17.575,17.575,0,0,1,358.755,106.378Zm1.977-18.351a2.23,2.23,0,0,0,1.685-.707,4.459,4.459,0,0,0,1.01-1.82,7.877,7.877,0,0,0,.337-2.3,8.1,8.1,0,0,0-.382-2.493,4.835,4.835,0,0,0-1.134-1.954,2.527,2.527,0,0,0-1.875-.764,1.329,1.329,0,0,0-.843.292,1.943,1.943,0,0,0-.572,1.056,8.978,8.978,0,0,0-.2,2.179q0,4.514.966,5.884A1.216,1.216,0,0,0,360.732,88.027Z" fill="#242424"/>
    <path id="패스_1459" data-name="패스 1459" d="M389.684,106.333a12.52,12.52,0,0,1-4.683-.91,12.2,12.2,0,0,1-4.11-2.729,13.187,13.187,0,0,1-2.92-4.559,17.25,17.25,0,0,1-1.09-6.4,24.963,24.963,0,0,1,1.078-7.726,16.513,16.513,0,0,1,2.887-5.481,12.138,12.138,0,0,1,4.076-3.268,10.683,10.683,0,0,1,4.672-1.089,10.811,10.811,0,0,1,4.751,1.112,12.514,12.514,0,0,1,4.133,3.29,16.342,16.342,0,0,1,2.908,5.436,24.093,24.093,0,0,1,1.078,7.569,17.88,17.88,0,0,1-1.1,6.581,13.172,13.172,0,0,1-2.943,4.605,11.912,11.912,0,0,1-4.121,2.695A12.779,12.779,0,0,1,389.684,106.333Zm.112-16.082a2.054,2.054,0,0,0,1.393-.584,4.3,4.3,0,0,0,1.078-1.729,8.18,8.18,0,0,0,.427-2.831,16.129,16.129,0,0,0-.438-4.087,6.578,6.578,0,0,0-1.123-2.471,1.9,1.9,0,0,0-1.426-.831,1.786,1.786,0,0,0-1.337.763,5.856,5.856,0,0,0-1.033,2.3,15.993,15.993,0,0,0-.393,3.874,8.377,8.377,0,0,0,.831,4.2A2.378,2.378,0,0,0,389.8,90.251Z" fill="#242424"/>
    <path id="패스_1460" data-name="패스 1460" d="M424.7,106.333a6.631,6.631,0,0,1-3.819-1.235,9.228,9.228,0,0,1-1.179-.944c-.217-.224-.393-.337-.528-.337a1.041,1.041,0,0,0-.572.349q-.372.348-1.2.977a5.981,5.981,0,0,1-3.594,1.19,14.033,14.033,0,0,1-5.447-.91,6.876,6.876,0,0,1-3.189-2.5,6.532,6.532,0,0,1-1.045-3.661,14.708,14.708,0,0,1,.6-4.133q.594-2.043,1.359-4.043.719-1.887,1.269-3.751a13,13,0,0,0,.55-3.684,9.357,9.357,0,0,0-.3-2.358,8.609,8.609,0,0,0-1.011-2.325,4,4,0,0,1-.708-1.987,2.007,2.007,0,0,1,.73-1.606,4.633,4.633,0,0,1,1.887-.91,10.131,10.131,0,0,1,4.874.011,5.044,5.044,0,0,1,1.932.91,1.882,1.882,0,0,1,.752,1.527,3.232,3.232,0,0,1-.674,1.752,5.891,5.891,0,0,0-.8,1.943,10.893,10.893,0,0,0-.281,2.527,12.327,12.327,0,0,0,.607,4.043,7.327,7.327,0,0,0,1.55,2.729,2.752,2.752,0,0,0,1.976.977,2.188,2.188,0,0,0,1.483-.629,4.483,4.483,0,0,0,1.134-1.92,10.415,10.415,0,0,0,.438-3.291,20.68,20.68,0,0,0-.281-3.639,6.371,6.371,0,0,0-1.179-2.74,3.239,3.239,0,0,1-.764-1.842,1.819,1.819,0,0,1,.741-1.471,4.926,4.926,0,0,1,1.9-.887,10.041,10.041,0,0,1,4.852.011,4.753,4.753,0,0,1,1.931.944,2.088,2.088,0,0,1,.752,1.673,4.1,4.1,0,0,1-.6,1.909,8.46,8.46,0,0,0-1.1,4.178,10.979,10.979,0,0,0,.45,2.864q.448,1.627,1.112,3.38t1.358,3.459q.809,1.955,1.393,3.549a7.8,7.8,0,0,1,.584,2.448,8.3,8.3,0,0,1-.864,3.841,6.248,6.248,0,0,1-2.617,2.65A9.138,9.138,0,0,1,424.7,106.333Z" fill="#242424"/>
    <path id="패스_1461" data-name="패스 1461" d="M446.51,106.67a18.835,18.835,0,0,1-5.862-.9,10.285,10.285,0,0,1-4.47-2.74,7.026,7.026,0,0,1-1.8-4.986,10.509,10.509,0,0,1,.584-3.369q.584-1.729,1.347-3.527.832-1.886,1.483-3.84a12.307,12.307,0,0,0,.652-3.909,8.335,8.335,0,0,0-.988-4,3.623,3.623,0,0,1-.449-1.594,2.442,2.442,0,0,1,1.168-2.089,8.312,8.312,0,0,1,3.054-1.2,19.692,19.692,0,0,1,4.02-.393,23.606,23.606,0,0,1,4.976.5,11.318,11.318,0,0,1,3.807,1.46,2.875,2.875,0,0,1,1.5,2.325q0,1.887-3.031,3.526-.54.292-.821.472c-.187.12-.281.233-.281.337q0,.337,1.348.809a14,14,0,0,1,6.582,4.784,13.2,13.2,0,0,1,2.492,7.906,7.629,7.629,0,0,1-1.348,4.459,11.309,11.309,0,0,1-3.57,3.268,18.393,18.393,0,0,1-4.941,2.01A22.3,22.3,0,0,1,446.51,106.67Zm-.7-24.5a2.152,2.152,0,0,0,.9-.247,10.664,10.664,0,0,0,2.6-1.741,2.183,2.183,0,0,0,.786-1.336q0-.876-1.549-.944a5.633,5.633,0,0,0-1.6.27,2.918,2.918,0,0,0-1.583,1.19,2.981,2.981,0,0,0-.528,1.6,1.508,1.508,0,0,0,.236.865A.819.819,0,0,0,445.814,82.165Zm4.379,7.592a3.644,3.644,0,0,0,1.674-.281.818.818,0,0,0,.506-.707,1.985,1.985,0,0,0-.9-1.371,8.546,8.546,0,0,0-2.225-1.28,6.887,6.887,0,0,0-2.605-.539,1.858,1.858,0,0,0-1.3.382,1.22,1.22,0,0,0-.4.921,2.366,2.366,0,0,0,.7,1.55Q446.8,89.757,450.193,89.757Z" fill="#242424"/>
    <path id="패스_1462" data-name="패스 1462" d="M475.822,106.333a20.945,20.945,0,0,1-6.289-.887,11.1,11.1,0,0,1-4.5-2.516,5.175,5.175,0,0,1-1.674-3.829,5.477,5.477,0,0,1,.159-1.3,48.469,48.469,0,0,1,1.638-5.346q.787-2.2,1.4-4.369a15.387,15.387,0,0,0,.617-4.233,9.918,9.918,0,0,0-.315-2.482,8.3,8.3,0,0,0-1.054-2.392,3.983,3.983,0,0,1-.743-2.044,1.967,1.967,0,0,1,.719-1.573,4.633,4.633,0,0,1,1.865-.9,9.634,9.634,0,0,1,2.381-.292,10.115,10.115,0,0,1,2.482.3,5.051,5.051,0,0,1,1.966.921,1.93,1.93,0,0,1,.763,1.561,3.264,3.264,0,0,1-.674,1.741,7.326,7.326,0,0,0-1.011,2.358,11.654,11.654,0,0,0-.336,2.819,12.624,12.624,0,0,0,.47,3.459,7.35,7.35,0,0,0,1.348,2.718A2.617,2.617,0,0,0,477.1,91.1q1.662,0,3.482-2.246a3.717,3.717,0,0,1,2.717-1.572,2.924,2.924,0,0,1,1.966.831,5.983,5.983,0,0,1,1.527,2.516,12.924,12.924,0,0,1,.6,4.245q0,6.245-3.639,9.074A12.461,12.461,0,0,1,475.822,106.333Z" fill="#242424"/>
    <path id="패스_1463" data-name="패스 1463" d="M501.158,106.243a19.578,19.578,0,0,1-4.459-.5,15.293,15.293,0,0,1-3.875-1.438,8.367,8.367,0,0,1-2.717-2.268,4.821,4.821,0,0,1-1.011-2.976,14.13,14.13,0,0,1,.483-3.639q.481-1.819,1.1-3.639t1.09-3.605a13.816,13.816,0,0,0,.47-3.537,8.638,8.638,0,0,0-1.258-4.582,5.436,5.436,0,0,1-.92-2.628q0-2.067,2.786-2.808a26.478,26.478,0,0,1,6.175-.539q2.046,0,4.112.045,1.953.067,3.638.067a1.751,1.751,0,0,1,1.224.438,2.675,2.675,0,0,1,.719,1.1,4.031,4.031,0,0,1,.235,1.359,3.148,3.148,0,0,1-.4,1.628,1.339,1.339,0,0,1-1.235.685,9.448,9.448,0,0,1-1.55-.224,24.645,24.645,0,0,0-4.2-.494,4.249,4.249,0,0,0-1.841.337,2.378,2.378,0,0,0-1.012.831,1.8,1.8,0,0,0-.314.965,1.488,1.488,0,0,0,.472,1.079,1.7,1.7,0,0,0,1.258.471,6.472,6.472,0,0,0,1.605-.191q.753-.19,1.381-.415a4.21,4.21,0,0,1,1.438-.337,1.372,1.372,0,0,1,1.236.808,3.471,3.471,0,0,1,.449,1.707,2.384,2.384,0,0,1-.326,1.258,1.087,1.087,0,0,1-1,.539,5.985,5.985,0,0,1-.976-.1c-.4-.067-.87-.131-1.415-.191a18.387,18.387,0,0,0-1.943-.09,1.57,1.57,0,0,0-1.3.562,1.876,1.876,0,0,0-.449,1.19,2.081,2.081,0,0,0,.336,1.09,2.614,2.614,0,0,0,1.033.921,3.709,3.709,0,0,0,1.752.37h1.192a11.431,11.431,0,0,0,4.267-.629A7.822,7.822,0,0,1,510.658,88a2.942,2.942,0,0,1,1.854.618,4.011,4.011,0,0,1,1.235,2.1,14.818,14.818,0,0,1,.439,4.043,11.345,11.345,0,0,1-1.124,5.255,10.031,10.031,0,0,1-2.988,3.549,12.838,12.838,0,0,1-4.188,2.022A17.455,17.455,0,0,1,501.158,106.243Z" fill="#242424"/>
    <path id="패스_1464" data-name="패스 1464" d="M538.4,106.4a10.482,10.482,0,0,1-5.144-1.19,10.305,10.305,0,0,1-3.56-3.234,14.592,14.592,0,0,1-2.077-4.639,21.4,21.4,0,0,1-.674-5.4,24.833,24.833,0,0,1,.842-6.4,21.086,21.086,0,0,1,2.438-5.739,13.59,13.59,0,0,1,3.874-4.132,8.941,8.941,0,0,1,5.176-1.561,9.445,9.445,0,0,1,5.795,1.853,6.005,6.005,0,0,1,2.606,4.773,3.2,3.2,0,0,1-.685,2.066,4.541,4.541,0,0,1-1.718,1.314,4.994,4.994,0,0,1-2.044.46,3.359,3.359,0,0,1-1.639-.4,2.265,2.265,0,0,1-1.057-1.258l-.135-.651a14.768,14.768,0,0,0-.3-1.516,5.382,5.382,0,0,0-.629-1.539,1.294,1.294,0,0,0-1.156-.674q-.968,0-1.562,1.483a8.974,8.974,0,0,0-.6,3.369,10.005,10.005,0,0,0,.405,2.852,5.136,5.136,0,0,0,1.268,2.235,3.205,3.205,0,0,0,2.257.91,5.762,5.762,0,0,0,3.369-.966,4.159,4.159,0,0,1,2.27-.831,3.119,3.119,0,0,1,2.414,1.168,8.092,8.092,0,0,1,1.584,3.044,14.771,14.771,0,0,1,.584,4.076,9.675,9.675,0,0,1-1.023,4.526,9.985,9.985,0,0,1-2.729,3.3,12.252,12.252,0,0,1-3.829,2.021A13.989,13.989,0,0,1,538.4,106.4Z" fill="#242424"/>
    <path id="패스_1465" data-name="패스 1465" d="M574.516,106.333a6.391,6.391,0,0,1-3.246-.887,7.044,7.044,0,0,1-2.5-2.448,6.661,6.661,0,0,1-.967-3.583,9.137,9.137,0,0,1,1.236-4.425q.473-.83.944-1.886a12.8,12.8,0,0,0,1.078-5.122,2.123,2.123,0,0,0-.6-1.549,3.7,3.7,0,0,0-1.516-.91,6.218,6.218,0,0,0-1.955-.3,7.087,7.087,0,0,0-2.021.292,4.2,4.2,0,0,0-1.628.864,1.813,1.813,0,0,0-.64,1.4,11,11,0,0,0,.37,2.864,16.128,16.128,0,0,0,.9,2.538,20.482,20.482,0,0,0,1.022,1.988,9.854,9.854,0,0,1,1.483,4.807,6.149,6.149,0,0,1-.888,3.313,6.413,6.413,0,0,1-2.314,2.234,6.157,6.157,0,0,1-3.087.809,9.688,9.688,0,0,1-4.594-.977,6.646,6.646,0,0,1-2.729-2.538,6.538,6.538,0,0,1-.9-3.313q0-2,1.953-7.03.853-2.292,1.527-4.515a14.879,14.879,0,0,0,.674-4.335A8.539,8.539,0,0,0,554.84,79a4.109,4.109,0,0,1-.719-2.021,2,2,0,0,1,.73-1.606,4.622,4.622,0,0,1,1.886-.91,10.131,10.131,0,0,1,4.874.011,5.045,5.045,0,0,1,1.932.91,1.88,1.88,0,0,1,.752,1.527,3.24,3.24,0,0,1-.674,1.752,2.511,2.511,0,0,0-.516,1.348,1.468,1.468,0,0,0,.561,1.168,3.7,3.7,0,0,0,1.438.707,6.934,6.934,0,0,0,1.82.236,5.9,5.9,0,0,0,2.447-.494,1.576,1.576,0,0,0,1.1-1.46,2.677,2.677,0,0,0-.629-1.5,3.232,3.232,0,0,1-.764-1.842,1.818,1.818,0,0,1,.74-1.471,4.924,4.924,0,0,1,1.9-.887,9.764,9.764,0,0,1,2.392-.292,9.985,9.985,0,0,1,2.471.3,4.854,4.854,0,0,1,1.942.932,2.063,2.063,0,0,1,.753,1.662A4.037,4.037,0,0,1,578.648,79a8.651,8.651,0,0,0-1.078,4.155,14.178,14.178,0,0,0,.8,4.571q.8,2.348,1.809,4.751,2.266,5.3,2.267,7.344a6.244,6.244,0,0,1-.853,3.167,6.324,6.324,0,0,1-2.616,2.415A9.491,9.491,0,0,1,574.516,106.333Z" fill="#242424"/>
    <path id="패스_1466" data-name="패스 1466" d="M596.3,106.243a19.566,19.566,0,0,1-4.459-.5,15.264,15.264,0,0,1-3.875-1.438,8.357,8.357,0,0,1-2.717-2.268,4.816,4.816,0,0,1-1.012-2.976,14.089,14.089,0,0,1,.484-3.639q.481-1.819,1.1-3.639t1.09-3.605a13.775,13.775,0,0,0,.471-3.537,8.639,8.639,0,0,0-1.258-4.582,5.436,5.436,0,0,1-.92-2.628q0-2.067,2.785-2.808a26.488,26.488,0,0,1,6.176-.539q2.044,0,4.111.045,1.954.067,3.639.067a1.748,1.748,0,0,1,1.223.438,2.653,2.653,0,0,1,.718,1.1,3.984,3.984,0,0,1,.237,1.359,3.139,3.139,0,0,1-.405,1.628,1.336,1.336,0,0,1-1.234.685,9.47,9.47,0,0,1-1.551-.224,24.625,24.625,0,0,0-4.2-.494,4.251,4.251,0,0,0-1.842.337,2.369,2.369,0,0,0-1.011.831,1.8,1.8,0,0,0-.315.965,1.485,1.485,0,0,0,.473,1.079,1.7,1.7,0,0,0,1.258.471,6.477,6.477,0,0,0,1.6-.191q.753-.19,1.381-.415a4.211,4.211,0,0,1,1.437-.337,1.372,1.372,0,0,1,1.237.808,3.471,3.471,0,0,1,.449,1.707,2.383,2.383,0,0,1-.326,1.258,1.087,1.087,0,0,1-1,.539,6.007,6.007,0,0,1-.977-.1c-.4-.067-.869-.131-1.416-.191a18.319,18.319,0,0,0-1.941-.09,1.569,1.569,0,0,0-1.3.562,1.87,1.87,0,0,0-.449,1.19,2.072,2.072,0,0,0,.336,1.09,2.6,2.6,0,0,0,1.033.921,3.709,3.709,0,0,0,1.752.37h1.191a11.437,11.437,0,0,0,4.268-.629A7.826,7.826,0,0,1,605.8,88a2.936,2.936,0,0,1,1.853.618,4,4,0,0,1,1.235,2.1,14.777,14.777,0,0,1,.439,4.043,11.357,11.357,0,0,1-1.123,5.255,10.02,10.02,0,0,1-2.988,3.549,12.838,12.838,0,0,1-4.19,2.022A17.441,17.441,0,0,1,596.3,106.243Z" fill="#242424"/>
    <path id="패스_1467" data-name="패스 1467" d="M623.009,106.243a19.55,19.55,0,0,1-4.458-.5,15.249,15.249,0,0,1-3.875-1.438,8.361,8.361,0,0,1-2.718-2.268,4.815,4.815,0,0,1-1.011-2.976,14.13,14.13,0,0,1,.483-3.639q.483-1.819,1.1-3.639t1.089-3.605a13.777,13.777,0,0,0,.472-3.537,8.639,8.639,0,0,0-1.258-4.582,5.429,5.429,0,0,1-.921-2.628q0-2.067,2.785-2.808a26.492,26.492,0,0,1,6.177-.539q2.043,0,4.11.045,1.955.067,3.639.067a1.753,1.753,0,0,1,1.224.438,2.653,2.653,0,0,1,.718,1.1,3.984,3.984,0,0,1,.237,1.359,3.139,3.139,0,0,1-.4,1.628,1.337,1.337,0,0,1-1.235.685,9.463,9.463,0,0,1-1.55-.224,24.633,24.633,0,0,0-4.2-.494,4.254,4.254,0,0,0-1.842.337,2.378,2.378,0,0,0-1.01.831,1.793,1.793,0,0,0-.315.965,1.484,1.484,0,0,0,.472,1.079,1.7,1.7,0,0,0,1.258.471,6.479,6.479,0,0,0,1.606-.191q.752-.19,1.381-.415a4.205,4.205,0,0,1,1.437-.337,1.37,1.37,0,0,1,1.236.808,3.46,3.46,0,0,1,.449,1.707,2.383,2.383,0,0,1-.325,1.258,1.088,1.088,0,0,1-1,.539,6,6,0,0,1-.977-.1q-.6-.1-1.416-.191a18.34,18.34,0,0,0-1.942-.09,1.571,1.571,0,0,0-1.3.562,1.876,1.876,0,0,0-.449,1.19,2.073,2.073,0,0,0,.337,1.09,2.6,2.6,0,0,0,1.033.921,3.7,3.7,0,0,0,1.752.37h1.19a11.433,11.433,0,0,0,4.268-.629A7.826,7.826,0,0,1,632.51,88a2.939,2.939,0,0,1,1.853.618,4,4,0,0,1,1.235,2.1,14.785,14.785,0,0,1,.438,4.043,11.345,11.345,0,0,1-1.123,5.255,10.018,10.018,0,0,1-2.987,3.549,12.849,12.849,0,0,1-4.19,2.022A17.442,17.442,0,0,1,623.009,106.243Z" fill="#242424"/>
    <path id="패스_1468" data-name="패스 1468" d="M650.32,106.67a17.782,17.782,0,0,1-4.694-.618,12.386,12.386,0,0,1-4.054-1.909,9.477,9.477,0,0,1-2.842-3.279,10,10,0,0,1-1.055-4.751,10.394,10.394,0,0,1,.55-3.414,6.9,6.9,0,0,1,1.505-2.583,2.921,2.921,0,0,1,2.145-.988,3.54,3.54,0,0,1,2.066.786,8.2,8.2,0,0,0,4.74,1.774,3.312,3.312,0,0,0,1.741-.4,1.148,1.148,0,0,0,.662-.966q0-.651-1.09-1.381a10.418,10.418,0,0,0-3.6-1.224,16.01,16.01,0,0,1-3.4-1,8.794,8.794,0,0,1-3.065-2.066,4.964,4.964,0,0,1-1.348-3.4,4.867,4.867,0,0,1,1.044-3.1,8.129,8.129,0,0,1,2.785-2.2,15.489,15.489,0,0,1,3.909-1.314,22.234,22.234,0,0,1,4.414-.438,20.585,20.585,0,0,1,5.558.719,9.945,9.945,0,0,1,4.133,2.156,4.83,4.83,0,0,1,1.606,3.594,3.011,3.011,0,0,1-.561,1.853,3.632,3.632,0,0,1-1.415,1.146,4.147,4.147,0,0,1-1.752.393,3.282,3.282,0,0,1-1.673-.449,2.427,2.427,0,0,1-1.09-1.348,4.509,4.509,0,0,0-1.7-2.4,4.144,4.144,0,0,0-2.258-.7,4.47,4.47,0,0,0-2.459.7,1.914,1.914,0,0,0-1.09,1.527,1.478,1.478,0,0,0,.8,1.168,6.741,6.741,0,0,0,2.685.808,19.58,19.58,0,0,1,7.446,2.37A11.219,11.219,0,0,1,663.2,90a11.389,11.389,0,0,1,1.36,5.458,9.346,9.346,0,0,1-1.247,4.863,11.009,11.009,0,0,1-3.3,3.5,15.624,15.624,0,0,1-4.582,2.122A18.6,18.6,0,0,1,650.32,106.67Z" fill="#242424"/>
    <path id="패스_1469" data-name="패스 1469" d="M678.464,106.243a19.557,19.557,0,0,1-4.458-.5,15.278,15.278,0,0,1-3.875-1.438,8.36,8.36,0,0,1-2.718-2.268,4.815,4.815,0,0,1-1.011-2.976,14.13,14.13,0,0,1,.483-3.639q.483-1.819,1.1-3.639t1.089-3.605a13.777,13.777,0,0,0,.472-3.537,8.639,8.639,0,0,0-1.258-4.582,5.429,5.429,0,0,1-.921-2.628q0-2.067,2.785-2.808a26.492,26.492,0,0,1,6.177-.539q2.043,0,4.11.045,1.954.067,3.639.067a1.753,1.753,0,0,1,1.224.438,2.653,2.653,0,0,1,.718,1.1,3.984,3.984,0,0,1,.237,1.359,3.148,3.148,0,0,1-.4,1.628,1.339,1.339,0,0,1-1.236.685,9.463,9.463,0,0,1-1.55-.224,24.633,24.633,0,0,0-4.2-.494,4.254,4.254,0,0,0-1.842.337,2.378,2.378,0,0,0-1.01.831,1.793,1.793,0,0,0-.315.965,1.484,1.484,0,0,0,.472,1.079,1.7,1.7,0,0,0,1.258.471,6.479,6.479,0,0,0,1.606-.191q.752-.19,1.381-.415a4.205,4.205,0,0,1,1.437-.337,1.37,1.37,0,0,1,1.236.808,3.46,3.46,0,0,1,.449,1.707,2.383,2.383,0,0,1-.325,1.258,1.088,1.088,0,0,1-1,.539,6,6,0,0,1-.977-.1q-.6-.1-1.416-.191a18.34,18.34,0,0,0-1.942-.09,1.572,1.572,0,0,0-1.3.562,1.875,1.875,0,0,0-.449,1.19,2.073,2.073,0,0,0,.337,1.09,2.6,2.6,0,0,0,1.033.921,3.7,3.7,0,0,0,1.752.37h1.19a11.433,11.433,0,0,0,4.268-.629A7.826,7.826,0,0,1,687.965,88a2.939,2.939,0,0,1,1.853.618,4,4,0,0,1,1.235,2.1,14.782,14.782,0,0,1,.438,4.043,11.344,11.344,0,0,1-1.123,5.255,10.017,10.017,0,0,1-2.987,3.549,12.848,12.848,0,0,1-4.19,2.022A17.437,17.437,0,0,1,678.464,106.243Z" fill="#242424"/>
  </g>
</svg>
