<svg xmlns="http://www.w3.org/2000/svg" width="238.452" height="35.889" viewBox="0 0 238.452 35.889">
  <g id="그룹_823" data-name="그룹 823" transform="translate(-69.836 -150.404)">
    <path id="패스_1470" data-name="패스 1470" d="M95.568,185.829a10.1,10.1,0,0,1-2.978-.464,9.3,9.3,0,0,1-2.783-1.391,7.193,7.193,0,0,1-2.051-2.32,6.516,6.516,0,0,1-.781-3.247,11.908,11.908,0,0,1,1.464-5.2,9.8,9.8,0,0,0,1.2-4.126,4.056,4.056,0,0,0-.476-2.063,3.215,3.215,0,0,0-1.233-1.233,3.265,3.265,0,0,0-1.587-.415,3.045,3.045,0,0,0-2.649,1.55,3.736,3.736,0,0,0-.452,1.917,9.393,9.393,0,0,0,1.343,4.37,11.945,11.945,0,0,1,1.587,5.347,6.23,6.23,0,0,1-.806,3.222,7.182,7.182,0,0,1-2.1,2.271,9.458,9.458,0,0,1-2.832,1.343,10.83,10.83,0,0,1-2.979.439,8.7,8.7,0,0,1-5.408-1.672,5.129,5.129,0,0,1-2.209-4.261,9.307,9.307,0,0,1,.525-2.99,24.617,24.617,0,0,1,1.355-3.2q.829-1.648,1.758-3.333,1.024-1.806,1.928-3.625a27.86,27.86,0,0,0,1.5-3.626,11.241,11.241,0,0,0,.6-3.54,7.992,7.992,0,0,0-.317-2.222,4.609,4.609,0,0,1-.2-1.269,3.669,3.669,0,0,1,1.367-2.918,8.91,8.91,0,0,1,3.516-1.733,17.961,17.961,0,0,1,9.009,0,8.9,8.9,0,0,1,3.515,1.733,3.667,3.667,0,0,1,1.368,2.918,4.647,4.647,0,0,1-.2,1.269,7.708,7.708,0,0,0-.317,2.2,10.8,10.8,0,0,0,.623,3.54,27.145,27.145,0,0,0,1.562,3.625q.941,1.819,1.965,3.626.977,1.709,1.831,3.344a24.359,24.359,0,0,1,1.4,3.2,9.051,9.051,0,0,1,.55,3,5.13,5.13,0,0,1-2.21,4.261A8.7,8.7,0,0,1,95.568,185.829ZM86.56,162.514a2.438,2.438,0,0,0,1.306-.354,1.235,1.235,0,0,0,.573-1.136,2.754,2.754,0,0,0-.219-.976q-.879-1.929-1.831-1.929-1.051,0-1.953,2.295a1.688,1.688,0,0,0-.1.537,1.278,1.278,0,0,0,.708,1.148A2.949,2.949,0,0,0,86.56,162.514Z" fill="#242424"/>
    <path id="패스_1471" data-name="패스 1471" d="M115.612,186.293a14.13,14.13,0,0,1-4.858-.842,9.431,9.431,0,0,1-3.845-2.527,7.079,7.079,0,0,1-1.77-4.2q-.147-2.393-.147-4.981v-1.977q0-2.418-.146-5.1-.392-6.42-3.76-9.57a4.457,4.457,0,0,1-1.782-3.052,2.482,2.482,0,0,1,.952-1.941,6.542,6.542,0,0,1,2.417-1.257,10.306,10.306,0,0,1,2.978-.44,7.991,7.991,0,0,1,2.332.33,4.1,4.1,0,0,1,1.77,1.025,2.456,2.456,0,0,1,.684,1.795,4.823,4.823,0,0,1-.147,1.123,6.25,6.25,0,0,0-.195,1.611,16.453,16.453,0,0,0,2.051,7.3,36.025,36.025,0,0,0,1.953,3.625q.78,1.209,1.464,1.209.66,0,1.441-1.16a34.3,34.3,0,0,0,1.953-3.479,22.925,22.925,0,0,0,1.55-3.869,12.817,12.817,0,0,0,.574-3.626,6.25,6.25,0,0,0-.195-1.611,4.823,4.823,0,0,1-.147-1.123,2.43,2.43,0,0,1,.659-1.758,3.966,3.966,0,0,1,1.734-1.013,7.774,7.774,0,0,1,2.295-.33,10.262,10.262,0,0,1,3.015.452A6.709,6.709,0,0,1,130.9,152.2a2.555,2.555,0,0,1,.976,1.989,2.982,2.982,0,0,1-.427,1.429,6.787,6.787,0,0,1-1.355,1.623,10.718,10.718,0,0,0-2.954,4.614,26.8,26.8,0,0,0-1.2,6.934q-.245,4.127-.244,9.937a6.257,6.257,0,0,1-.866,3.308,7.43,7.43,0,0,1-2.3,2.368,10.863,10.863,0,0,1-3.235,1.416A14.432,14.432,0,0,1,115.612,186.293Z" fill="#242424"/>
    <path id="패스_1472" data-name="패스 1472" d="M143.737,185.829a13.6,13.6,0,0,1-5.09-.989,13.279,13.279,0,0,1-4.468-2.966,14.346,14.346,0,0,1-3.174-4.956,18.77,18.77,0,0,1-1.184-6.958,27.115,27.115,0,0,1,1.172-8.4,17.956,17.956,0,0,1,3.137-5.958,13.186,13.186,0,0,1,4.432-3.552,11.606,11.606,0,0,1,5.078-1.184,11.737,11.737,0,0,1,5.163,1.209,13.58,13.58,0,0,1,4.492,3.576,17.735,17.735,0,0,1,3.162,5.909,26.2,26.2,0,0,1,1.172,8.227,19.429,19.429,0,0,1-1.2,7.153,14.306,14.306,0,0,1-3.2,5.005,12.941,12.941,0,0,1-4.48,2.93A13.881,13.881,0,0,1,143.737,185.829Zm.122-17.48a2.237,2.237,0,0,0,1.514-.635,4.669,4.669,0,0,0,1.172-1.88,8.874,8.874,0,0,0,.464-3.076,17.561,17.561,0,0,0-.476-4.444,7.148,7.148,0,0,0-1.221-2.685,2.064,2.064,0,0,0-1.55-.9,1.936,1.936,0,0,0-1.453.83,6.356,6.356,0,0,0-1.123,2.5,17.379,17.379,0,0,0-.427,4.212,9.11,9.11,0,0,0,.9,4.565A2.588,2.588,0,0,0,143.859,168.349Z" fill="#242424"/>
    <path id="패스_1473" data-name="패스 1473" d="M197.131,185.829a6.713,6.713,0,0,1-3.345-.879,6.943,6.943,0,0,1-2.527-2.429,6.674,6.674,0,0,1-.964-3.6,10.709,10.709,0,0,1,1.611-5.225,21.033,21.033,0,0,0,1.99-5.09,23.779,23.779,0,0,0,.867-6.262q0-1.269-.513-1.392-.269,0-.745.659a7.061,7.061,0,0,0-.854,1.685,6.074,6.074,0,0,0-.379,2.124,5.274,5.274,0,0,0,.367,1.9,3.1,3.1,0,0,1,.268,1.2,2.055,2.055,0,0,1-.586,1.5,3.677,3.677,0,0,1-1.513.9,6.367,6.367,0,0,1-3.894,0,3.669,3.669,0,0,1-1.526-.9,2.055,2.055,0,0,1-.586-1.5,3.085,3.085,0,0,1,.268-1.2,5.084,5.084,0,0,0,.367-1.88,6.092,6.092,0,0,0-.391-2.16,7.021,7.021,0,0,0-.879-1.7q-.489-.66-.732-.659-.465,0-.464,1.66v.854a18.745,18.745,0,0,0,.891,5.726A21.382,21.382,0,0,0,185.8,173.7a10.709,10.709,0,0,1,1.611,5.225,6.682,6.682,0,0,1-.964,3.6,6.981,6.981,0,0,1-2.515,2.429,6.7,6.7,0,0,1-3.357.879,10.527,10.527,0,0,1-4.993-1.062,7.236,7.236,0,0,1-2.966-2.759,7.1,7.1,0,0,1-.976-3.6,8.048,8.048,0,0,1,.219-1.855,58.489,58.489,0,0,1,1.9-5.86q.951-2.465,1.672-4.87a16.265,16.265,0,0,0,.72-4.676,10.146,10.146,0,0,0-.329-2.575,9.675,9.675,0,0,0-1.075-2.5,4.379,4.379,0,0,1-.744-2.148,2.18,2.18,0,0,1,.793-1.746,5.029,5.029,0,0,1,2.039-.988,10.512,10.512,0,0,1,2.612-.318,9.516,9.516,0,0,1,2.893.488,5.376,5.376,0,0,1,2.576,1.783l.488.634q1.221,1.637,1.978,2.466a2.055,2.055,0,0,0,1.416.83,2.372,2.372,0,0,0,1.587-.964q.879-.964,2.392-2.966a5.371,5.371,0,0,1,2.588-1.783,9.558,9.558,0,0,1,2.881-.488,10.518,10.518,0,0,1,2.612.318,5.036,5.036,0,0,1,2.039.988,2.18,2.18,0,0,1,.793,1.746,4.379,4.379,0,0,1-.744,2.148,9.6,9.6,0,0,0-1.075,2.515,10.2,10.2,0,0,0-.329,2.563,16.265,16.265,0,0,0,.72,4.676q.72,2.4,1.672,4.87a58.489,58.489,0,0,1,1.9,5.86,7.746,7.746,0,0,1,.219,1.831,7.13,7.13,0,0,1-3.93,6.384A10.511,10.511,0,0,1,197.131,185.829Z" fill="#242424"/>
    <path id="패스_1474" data-name="패스 1474" d="M230.48,185.829a7.2,7.2,0,0,1-4.15-1.343,9.972,9.972,0,0,1-1.282-1.025q-.354-.366-.573-.366a1.127,1.127,0,0,0-.623.378q-.4.379-1.306,1.062a6.5,6.5,0,0,1-3.906,1.294,15.248,15.248,0,0,1-5.921-.989,7.479,7.479,0,0,1-3.467-2.722,7.1,7.1,0,0,1-1.135-3.979,16.01,16.01,0,0,1,.647-4.493q.646-2.22,1.477-4.394.781-2.051,1.38-4.077a14.122,14.122,0,0,0,.6-4,10.162,10.162,0,0,0-.33-2.564,9.375,9.375,0,0,0-1.1-2.526,4.348,4.348,0,0,1-.77-2.161,2.181,2.181,0,0,1,.794-1.746,5.025,5.025,0,0,1,2.051-.988,10.992,10.992,0,0,1,5.3.012,5.455,5.455,0,0,1,2.1.989,2.046,2.046,0,0,1,.818,1.66,3.52,3.52,0,0,1-.732,1.9,6.375,6.375,0,0,0-.867,2.112,11.8,11.8,0,0,0-.3,2.746,13.4,13.4,0,0,0,.659,4.4,7.956,7.956,0,0,0,1.685,2.966,2.99,2.99,0,0,0,2.148,1.062,2.372,2.372,0,0,0,1.611-.683,4.859,4.859,0,0,0,1.233-2.088,11.3,11.3,0,0,0,.476-3.576,22.515,22.515,0,0,0-.3-3.956,6.92,6.92,0,0,0-1.282-2.978,3.523,3.523,0,0,1-.83-2,1.978,1.978,0,0,1,.806-1.6,5.333,5.333,0,0,1,2.063-.964,10.562,10.562,0,0,1,2.6-.318,10.673,10.673,0,0,1,2.673.33,5.163,5.163,0,0,1,2.1,1.025,2.274,2.274,0,0,1,.818,1.819,4.466,4.466,0,0,1-.659,2.075,9.2,9.2,0,0,0-1.2,4.541,11.886,11.886,0,0,0,.489,3.113q.487,1.77,1.208,3.674t1.477,3.76q.879,2.124,1.514,3.858a8.5,8.5,0,0,1,.635,2.661,9.015,9.015,0,0,1-.94,4.174,6.783,6.783,0,0,1-2.845,2.881A9.93,9.93,0,0,1,230.48,185.829Z" fill="#242424"/>
    <path id="패스_1475" data-name="패스 1475" d="M266.32,185.829a6.71,6.71,0,0,1-3.344-.879,6.936,6.936,0,0,1-2.527-2.429,6.674,6.674,0,0,1-.965-3.6A10.7,10.7,0,0,1,261.1,173.7a21.077,21.077,0,0,0,1.989-5.09,23.779,23.779,0,0,0,.867-6.262q0-1.269-.513-1.392-.268,0-.744.659a7.025,7.025,0,0,0-.855,1.685,6.1,6.1,0,0,0-.378,2.124,5.273,5.273,0,0,0,.366,1.9,3.087,3.087,0,0,1,.269,1.2,2.059,2.059,0,0,1-.586,1.5,3.687,3.687,0,0,1-1.514.9,6.367,6.367,0,0,1-3.894,0,3.676,3.676,0,0,1-1.526-.9,2.059,2.059,0,0,1-.586-1.5,3.087,3.087,0,0,1,.269-1.2,5.082,5.082,0,0,0,.366-1.88,6.07,6.07,0,0,0-.391-2.16,6.951,6.951,0,0,0-.879-1.7q-.487-.66-.732-.659-.465,0-.464,1.66v.854a18.745,18.745,0,0,0,.891,5.726,21.383,21.383,0,0,0,1.941,4.528,10.711,10.711,0,0,1,1.612,5.225,6.674,6.674,0,0,1-.965,3.6,6.978,6.978,0,0,1-2.514,2.429,6.7,6.7,0,0,1-3.357.879,10.524,10.524,0,0,1-4.993-1.062,7.224,7.224,0,0,1-2.966-2.759,7.1,7.1,0,0,1-.977-3.6,8,8,0,0,1,.22-1.855,58.227,58.227,0,0,1,1.9-5.86q.953-2.465,1.672-4.87a16.268,16.268,0,0,0,.721-4.676,10.1,10.1,0,0,0-.33-2.575,9.671,9.671,0,0,0-1.074-2.5,4.372,4.372,0,0,1-.745-2.148,2.178,2.178,0,0,1,.794-1.746,5.018,5.018,0,0,1,2.038-.988,10.52,10.52,0,0,1,2.613-.318,9.521,9.521,0,0,1,2.893.488,5.374,5.374,0,0,1,2.575,1.783l.489.634q1.219,1.637,1.977,2.466a2.057,2.057,0,0,0,1.416.83,2.37,2.37,0,0,0,1.587-.964q.879-.964,2.393-2.966a5.364,5.364,0,0,1,2.587-1.783,9.568,9.568,0,0,1,2.881-.488,10.526,10.526,0,0,1,2.613.318,5.025,5.025,0,0,1,2.038.988,2.181,2.181,0,0,1,.794,1.746,4.382,4.382,0,0,1-.745,2.148,9.593,9.593,0,0,0-1.074,2.515,10.154,10.154,0,0,0-.33,2.563,16.265,16.265,0,0,0,.72,4.676q.72,2.4,1.673,4.87a58.732,58.732,0,0,1,1.9,5.86,7.7,7.7,0,0,1,.22,1.831,7.134,7.134,0,0,1-3.931,6.384A10.509,10.509,0,0,1,266.32,185.829Z" fill="#242424"/>
    <path id="패스_1476" data-name="패스 1476" d="M299.67,185.829a7.19,7.19,0,0,1-4.15-1.343,9.972,9.972,0,0,1-1.282-1.025c-.237-.244-.427-.366-.574-.366a1.126,1.126,0,0,0-.622.378q-.4.379-1.307,1.062a6.5,6.5,0,0,1-3.906,1.294,15.246,15.246,0,0,1-5.92-.989,7.474,7.474,0,0,1-3.467-2.722,7.1,7.1,0,0,1-1.135-3.979,15.974,15.974,0,0,1,.647-4.493q.646-2.22,1.477-4.394.78-2.051,1.379-4.077a14.121,14.121,0,0,0,.6-4,10.206,10.206,0,0,0-.329-2.564,9.347,9.347,0,0,0-1.1-2.526,4.345,4.345,0,0,1-.769-2.161,2.18,2.18,0,0,1,.793-1.746,5.031,5.031,0,0,1,2.051-.988,10.992,10.992,0,0,1,5.3.012,5.46,5.46,0,0,1,2.1.989,2.046,2.046,0,0,1,.818,1.66,3.522,3.522,0,0,1-.733,1.9,6.418,6.418,0,0,0-.867,2.112,11.854,11.854,0,0,0-.3,2.746,13.431,13.431,0,0,0,.659,4.4,7.969,7.969,0,0,0,1.685,2.966,2.992,2.992,0,0,0,2.148,1.062,2.373,2.373,0,0,0,1.612-.683,4.879,4.879,0,0,0,1.233-2.088,11.325,11.325,0,0,0,.476-3.576,22.514,22.514,0,0,0-.3-3.956,6.92,6.92,0,0,0-1.282-2.978,3.516,3.516,0,0,1-.83-2,1.977,1.977,0,0,1,.8-1.6,5.333,5.333,0,0,1,2.063-.964,10.562,10.562,0,0,1,2.6-.318,10.687,10.687,0,0,1,2.674.33,5.164,5.164,0,0,1,2.1,1.025,2.274,2.274,0,0,1,.818,1.819,4.454,4.454,0,0,1-.659,2.075,9.194,9.194,0,0,0-1.2,4.541,11.88,11.88,0,0,0,.488,3.113q.487,1.77,1.209,3.674t1.477,3.76q.879,2.124,1.513,3.858a8.5,8.5,0,0,1,.635,2.661,9,9,0,0,1-.94,4.174,6.786,6.786,0,0,1-2.844,2.881A9.935,9.935,0,0,1,299.67,185.829Z" fill="#242424"/>
  </g>
</svg>
