<svg xmlns="http://www.w3.org/2000/svg" width="230.297" height="35.424" viewBox="0 0 230.297 35.424">
  <g id="그룹_824" data-name="그룹 824" transform="translate(-421.824 -150.771)">
    <path id="패스_1477" data-name="패스 1477" d="M434.934,185.731a21.272,21.272,0,0,1-4.846-.549,16.632,16.632,0,0,1-4.212-1.562,9.087,9.087,0,0,1-2.954-2.466,5.23,5.23,0,0,1-1.1-3.235,15.356,15.356,0,0,1,.525-3.955q.523-1.977,1.2-3.955t1.184-3.919a15.038,15.038,0,0,0,.512-3.845,9.394,9.394,0,0,0-1.367-4.98,5.909,5.909,0,0,1-1-2.857q0-2.246,3.027-3.052a28.821,28.821,0,0,1,6.714-.585q2.223,0,4.468.048,2.124.073,3.955.074a1.9,1.9,0,0,1,1.331.476,2.88,2.88,0,0,1,.781,1.2,4.372,4.372,0,0,1,.256,1.477,3.418,3.418,0,0,1-.439,1.77,1.453,1.453,0,0,1-1.343.745,10.292,10.292,0,0,1-1.685-.244,26.762,26.762,0,0,0-4.565-.538,4.619,4.619,0,0,0-2,.367,2.591,2.591,0,0,0-1.1.9,1.959,1.959,0,0,0-.341,1.05,1.617,1.617,0,0,0,.512,1.172,1.852,1.852,0,0,0,1.368.512,7.1,7.1,0,0,0,1.746-.207q.817-.207,1.5-.452a4.577,4.577,0,0,1,1.562-.366,1.49,1.49,0,0,1,1.343.879,3.769,3.769,0,0,1,.488,1.855,2.6,2.6,0,0,1-.353,1.367,1.184,1.184,0,0,1-1.087.586,6.6,6.6,0,0,1-1.062-.109q-.646-.111-1.538-.208a19.761,19.761,0,0,0-2.112-.1,1.707,1.707,0,0,0-1.416.611,2.042,2.042,0,0,0-.488,1.294,2.26,2.26,0,0,0,.366,1.184,2.83,2.83,0,0,0,1.123,1,4.031,4.031,0,0,0,1.9.4h1.294a12.44,12.44,0,0,0,4.639-.684,8.494,8.494,0,0,1,3.54-.928,3.2,3.2,0,0,1,2.014.672,4.352,4.352,0,0,1,1.343,2.282,16.1,16.1,0,0,1,.476,4.4,12.337,12.337,0,0,1-1.221,5.713,10.885,10.885,0,0,1-3.247,3.857,13.959,13.959,0,0,1-4.553,2.2A18.92,18.92,0,0,1,434.934,185.731Z" fill="#242424"/>
    <path id="패스_1478" data-name="패스 1478" d="M463.3,185.854a9.855,9.855,0,0,1-6.275-2.112,13.788,13.788,0,0,1-4.186-5.823,22.649,22.649,0,0,1-1.5-8.545,23.379,23.379,0,0,1,.989-6.726,21.311,21.311,0,0,1,2.819-5.981,14.706,14.706,0,0,1,4.419-4.273,10.792,10.792,0,0,1,5.787-1.6,10.961,10.961,0,0,1,6.677,2.038,6.6,6.6,0,0,1,2.893,5.262,3.262,3.262,0,0,1-.781,2.185,5.11,5.11,0,0,1-1.954,1.4,6,6,0,0,1-2.319.488,4.022,4.022,0,0,1-1.891-.44,2.425,2.425,0,0,1-1.185-1.367c-.032-.13-.073-.349-.122-.659q-.121-.732-.366-1.672a5.84,5.84,0,0,0-.72-1.685,1.5,1.5,0,0,0-1.331-.745,1.625,1.625,0,0,0-1.355.9,7.156,7.156,0,0,0-.879,2.368,15.274,15.274,0,0,0-.3,3.125,19.153,19.153,0,0,0,.586,5.115,5.634,5.634,0,0,0,1.453,2.673,2.883,2.883,0,0,0,1.94.781,2.958,2.958,0,0,0,2.064-.818,2.386,2.386,0,0,0,.89-1.77q0-.414-.83-.415a4.989,4.989,0,0,0-.976.147,5.5,5.5,0,0,1-1.2.171,1.216,1.216,0,0,1-1.134-.708,3.255,3.255,0,0,1-.379-1.563,3.462,3.462,0,0,1,.4-1.672,1.421,1.421,0,0,1,1.233-.794,7.328,7.328,0,0,1,1.318.171,13.359,13.359,0,0,0,2.734.269,7.115,7.115,0,0,0,1.112-.086,6.6,6.6,0,0,1,.988-.085q3.271,0,4.858,4.15a24.963,24.963,0,0,1,1.319,8.741,24.483,24.483,0,0,1-1.27,8.789c-.114.212-.443.386-.988.525a7.316,7.316,0,0,1-1.795.207,6.318,6.318,0,0,1-2.075-.329q-.953-.33-.952-1.111c.016-.423.032-.733.048-.928s.025-.5.025-.928a3.707,3.707,0,0,0-.122-1.111c-.081-.235-.179-.354-.293-.354q-.366,0-.952,1.319a5.366,5.366,0,0,1-2.539,2.6A8.559,8.559,0,0,1,463.3,185.854Z" fill="#242424"/>
    <path id="패스_1479" data-name="패스 1479" d="M492.111,185.854a9.854,9.854,0,0,1-6.274-2.112,13.79,13.79,0,0,1-4.187-5.823,22.649,22.649,0,0,1-1.5-8.545,23.381,23.381,0,0,1,.99-6.726,21.283,21.283,0,0,1,2.819-5.981,14.7,14.7,0,0,1,4.419-4.273,10.788,10.788,0,0,1,5.786-1.6,10.964,10.964,0,0,1,6.678,2.038,6.593,6.593,0,0,1,2.892,5.262,3.256,3.256,0,0,1-.781,2.185,5.107,5.107,0,0,1-1.953,1.4,6.006,6.006,0,0,1-2.319.488,4.029,4.029,0,0,1-1.892-.44,2.427,2.427,0,0,1-1.184-1.367c-.033-.13-.074-.349-.123-.659q-.122-.732-.366-1.672a5.84,5.84,0,0,0-.719-1.685,1.5,1.5,0,0,0-1.332-.745,1.625,1.625,0,0,0-1.354.9,7.111,7.111,0,0,0-.879,2.368,15.275,15.275,0,0,0-.306,3.125,19.194,19.194,0,0,0,.586,5.115,5.643,5.643,0,0,0,1.453,2.673,2.885,2.885,0,0,0,1.941.781,2.956,2.956,0,0,0,2.063-.818,2.387,2.387,0,0,0,.891-1.77q0-.414-.83-.415a5.006,5.006,0,0,0-.977.147,5.488,5.488,0,0,1-1.2.171,1.216,1.216,0,0,1-1.135-.708,3.255,3.255,0,0,1-.379-1.563,3.452,3.452,0,0,1,.4-1.672,1.418,1.418,0,0,1,1.232-.794,7.337,7.337,0,0,1,1.319.171,13.359,13.359,0,0,0,2.734.269,7.093,7.093,0,0,0,1.111-.086,6.615,6.615,0,0,1,.988-.085q3.271,0,4.859,4.15a24.964,24.964,0,0,1,1.318,8.741,24.507,24.507,0,0,1-1.269,8.789c-.115.212-.444.386-.989.525a7.3,7.3,0,0,1-1.794.207,6.324,6.324,0,0,1-2.076-.329q-.951-.33-.952-1.111c.017-.423.032-.733.049-.928s.024-.5.024-.928a3.707,3.707,0,0,0-.122-1.111c-.081-.235-.178-.354-.293-.354q-.366,0-.952,1.319a5.366,5.366,0,0,1-2.539,2.6A8.553,8.553,0,0,1,492.111,185.854Z" fill="#242424"/>
    <path id="패스_1480" data-name="패스 1480" d="M535.471,186.2a19.364,19.364,0,0,1-5.1-.671,13.483,13.483,0,0,1-4.406-2.075,10.291,10.291,0,0,1-3.089-3.565,10.866,10.866,0,0,1-1.147-5.163,11.292,11.292,0,0,1,.6-3.711,7.485,7.485,0,0,1,1.636-2.808,3.172,3.172,0,0,1,2.331-1.074,3.854,3.854,0,0,1,2.246.854,8.9,8.9,0,0,0,5.151,1.929,3.6,3.6,0,0,0,1.893-.439,1.249,1.249,0,0,0,.72-1.05q0-.708-1.184-1.5a11.355,11.355,0,0,0-3.919-1.33,17.28,17.28,0,0,1-3.7-1.087,9.548,9.548,0,0,1-3.333-2.246,5.4,5.4,0,0,1-1.465-3.7,5.287,5.287,0,0,1,1.136-3.37,8.837,8.837,0,0,1,3.027-2.392,16.787,16.787,0,0,1,4.248-1.428,24.11,24.11,0,0,1,4.8-.476,22.374,22.374,0,0,1,6.043.781,10.808,10.808,0,0,1,4.492,2.344,5.245,5.245,0,0,1,1.745,3.906,3.27,3.27,0,0,1-.61,2.014,3.961,3.961,0,0,1-1.538,1.245,4.5,4.5,0,0,1-1.9.427,3.56,3.56,0,0,1-1.819-.488,2.628,2.628,0,0,1-1.184-1.465,4.91,4.91,0,0,0-1.843-2.612,4.5,4.5,0,0,0-2.454-.757,4.86,4.86,0,0,0-2.673.757,2.08,2.08,0,0,0-1.185,1.66,1.608,1.608,0,0,0,.868,1.27,7.333,7.333,0,0,0,2.917.879,21.268,21.268,0,0,1,8.093,2.575,12.22,12.22,0,0,1,4.615,4.651,12.386,12.386,0,0,1,1.476,5.933,10.156,10.156,0,0,1-1.354,5.285,11.969,11.969,0,0,1-3.589,3.809,16.971,16.971,0,0,1-4.981,2.307A20.2,20.2,0,0,1,535.471,186.2Z" fill="#242424"/>
    <path id="패스_1481" data-name="패스 1481" d="M566.281,185.829a22.78,22.78,0,0,1-6.836-.964,12.046,12.046,0,0,1-4.894-2.735,5.62,5.62,0,0,1-1.82-4.162,6.015,6.015,0,0,1,.171-1.416,52.845,52.845,0,0,1,1.783-5.811q.854-2.393,1.526-4.748a16.774,16.774,0,0,0,.671-4.6,10.792,10.792,0,0,0-.342-2.7,9.046,9.046,0,0,0-1.147-2.6,4.314,4.314,0,0,1-.806-2.222,2.134,2.134,0,0,1,.781-1.709,5.01,5.01,0,0,1,2.027-.976,10.41,10.41,0,0,1,2.587-.318,10.981,10.981,0,0,1,2.7.33,5.465,5.465,0,0,1,2.135,1,2.089,2.089,0,0,1,.83,1.7,3.558,3.558,0,0,1-.732,1.892,8.007,8.007,0,0,0-1.1,2.563,12.693,12.693,0,0,0-.366,3.064,13.7,13.7,0,0,0,.513,3.76,7.979,7.979,0,0,0,1.465,2.954,2.845,2.845,0,0,0,2.246,1.147q1.806,0,3.784-2.441a4.04,4.04,0,0,1,2.954-1.709,3.178,3.178,0,0,1,2.137.9,6.5,6.5,0,0,1,1.66,2.735,14.029,14.029,0,0,1,.646,4.614q0,6.787-3.955,9.863A13.547,13.547,0,0,1,566.281,185.829Z" fill="#242424"/>
    <path id="패스_1482" data-name="패스 1482" d="M589.6,185.829a10.592,10.592,0,0,1-5.066-1.086,7.445,7.445,0,0,1-3.015-2.82,7.213,7.213,0,0,1-1-3.662,7.659,7.659,0,0,1,.2-1.709,57.12,57.12,0,0,1,1.758-5.786q.879-2.418,1.538-4.773a17.058,17.058,0,0,0,.659-4.6,10.792,10.792,0,0,0-.342-2.7,8.847,8.847,0,0,0-1.159-2.6,4.3,4.3,0,0,1-.818-2.246,2.13,2.13,0,0,1,.781-1.709,4.889,4.889,0,0,1,2.015-.965,10.8,10.8,0,0,1,2.6-.305,10.973,10.973,0,0,1,2.7.33,5.471,5.471,0,0,1,2.136,1,2.066,2.066,0,0,1,.83,1.672,3.478,3.478,0,0,1-.708,1.88,8.222,8.222,0,0,0-1.159,2.954,19.131,19.131,0,0,0-.379,3.931,25.09,25.09,0,0,0,.977,6.885,12.2,12.2,0,0,0,2.856,5.346,6.055,6.055,0,0,1,2.173,4.37,5.277,5.277,0,0,1-1.147,3.3,8.569,8.569,0,0,1-2.893,2.393A7.609,7.609,0,0,1,589.6,185.829Z" fill="#242424"/>
    <path id="패스_1483" data-name="패스 1483" d="M609.885,185.9a11.394,11.394,0,0,1-5.591-1.294,11.182,11.182,0,0,1-3.869-3.515,15.845,15.845,0,0,1-2.259-5.042,23.273,23.273,0,0,1-.732-5.871,26.935,26.935,0,0,1,.916-6.958A22.964,22.964,0,0,1,601,156.984a14.8,14.8,0,0,1,4.212-4.492,9.722,9.722,0,0,1,5.627-1.7,10.273,10.273,0,0,1,6.3,2.014A6.531,6.531,0,0,1,619.968,158a3.476,3.476,0,0,1-.744,2.246,4.921,4.921,0,0,1-1.869,1.428,5.421,5.421,0,0,1-2.221.5,3.657,3.657,0,0,1-1.782-.44,2.459,2.459,0,0,1-1.148-1.367l-.146-.708a16.793,16.793,0,0,0-.329-1.648,5.863,5.863,0,0,0-.684-1.672,1.409,1.409,0,0,0-1.258-.733q-1.05,0-1.7,1.612a9.748,9.748,0,0,0-.648,3.662,10.9,10.9,0,0,0,.44,3.1,5.6,5.6,0,0,0,1.38,2.429,3.48,3.48,0,0,0,2.453.988,6.265,6.265,0,0,0,3.662-1.049,4.52,4.52,0,0,1,2.466-.9,3.389,3.389,0,0,1,2.625,1.27,8.785,8.785,0,0,1,1.72,3.308,15.912,15.912,0,0,1,.635,4.431,10.518,10.518,0,0,1-1.11,4.92,10.864,10.864,0,0,1-2.967,3.588,13.319,13.319,0,0,1-4.162,2.2A15.23,15.23,0,0,1,609.885,185.9Z" fill="#242424"/>
    <path id="패스_1484" data-name="패스 1484" d="M637.961,185.731a21.286,21.286,0,0,1-4.846-.549,16.646,16.646,0,0,1-4.212-1.562,9.1,9.1,0,0,1-2.954-2.466,5.236,5.236,0,0,1-1.1-3.235,15.315,15.315,0,0,1,.525-3.955q.525-1.977,1.2-3.955t1.184-3.919a14.994,14.994,0,0,0,.513-3.845,9.4,9.4,0,0,0-1.368-4.98,5.909,5.909,0,0,1-1-2.857q0-2.246,3.028-3.052a28.815,28.815,0,0,1,6.714-.585q2.221,0,4.467.048,2.124.073,3.955.074a1.906,1.906,0,0,1,1.332.476,2.9,2.9,0,0,1,.781,1.2,4.372,4.372,0,0,1,.256,1.477,3.418,3.418,0,0,1-.44,1.77,1.453,1.453,0,0,1-1.343.745,10.284,10.284,0,0,1-1.684-.244,26.772,26.772,0,0,0-4.566-.538,4.619,4.619,0,0,0-2,.367,2.587,2.587,0,0,0-1.1.9,1.953,1.953,0,0,0-.342,1.05,1.614,1.614,0,0,0,.513,1.172,1.85,1.85,0,0,0,1.367.512,7.1,7.1,0,0,0,1.746-.207q.818-.207,1.5-.452a4.582,4.582,0,0,1,1.562-.366,1.489,1.489,0,0,1,1.343.879,3.77,3.77,0,0,1,.489,1.855,2.6,2.6,0,0,1-.354,1.367,1.183,1.183,0,0,1-1.087.586,6.593,6.593,0,0,1-1.061-.109q-.648-.111-1.539-.208a19.734,19.734,0,0,0-2.112-.1,1.707,1.707,0,0,0-1.416.611,2.042,2.042,0,0,0-.488,1.294,2.259,2.259,0,0,0,.366,1.184,2.829,2.829,0,0,0,1.123,1,4.034,4.034,0,0,0,1.9.4h1.294a12.44,12.44,0,0,0,4.639-.684,8.495,8.495,0,0,1,3.54-.928,3.2,3.2,0,0,1,2.015.672,4.364,4.364,0,0,1,1.343,2.282,16.14,16.14,0,0,1,.475,4.4,12.338,12.338,0,0,1-1.221,5.713,10.885,10.885,0,0,1-3.247,3.857,13.955,13.955,0,0,1-4.552,2.2A18.932,18.932,0,0,1,637.961,185.731Z" fill="#242424"/>
  </g>
</svg>
