<svg xmlns="http://www.w3.org/2000/svg" width="221.288" height="35.254" viewBox="0 0 221.288 35.254">
  <g id="그룹_826" data-name="그룹 826" transform="translate(-403.825 -240.766)">
    <path id="패스_1494" data-name="패스 1494" d="M416.935,275.727a21.279,21.279,0,0,1-4.846-.549,16.6,16.6,0,0,1-4.212-1.563,9.085,9.085,0,0,1-2.954-2.466,5.233,5.233,0,0,1-1.1-3.234,15.364,15.364,0,0,1,.525-3.956q.523-1.977,1.2-3.955t1.184-3.918a15,15,0,0,0,.513-3.845,9.392,9.392,0,0,0-1.368-4.981,5.9,5.9,0,0,1-1-2.856q0-2.246,3.027-3.052a28.748,28.748,0,0,1,6.714-.586q2.221,0,4.467.049,2.125.073,3.955.073a1.908,1.908,0,0,1,1.331.476,2.9,2.9,0,0,1,.781,1.2,4.368,4.368,0,0,1,.256,1.477,3.42,3.42,0,0,1-.439,1.77,1.454,1.454,0,0,1-1.343.744,10.269,10.269,0,0,1-1.684-.244,26.753,26.753,0,0,0-4.565-.537,4.629,4.629,0,0,0-2,.366,2.587,2.587,0,0,0-1.1.9,1.952,1.952,0,0,0-.342,1.049,1.612,1.612,0,0,0,.513,1.172,1.846,1.846,0,0,0,1.367.513,7.057,7.057,0,0,0,1.746-.208q.817-.207,1.5-.451a4.581,4.581,0,0,1,1.563-.366,1.487,1.487,0,0,1,1.342.878,3.772,3.772,0,0,1,.488,1.856,2.6,2.6,0,0,1-.353,1.367,1.184,1.184,0,0,1-1.087.586,6.622,6.622,0,0,1-1.062-.11q-.646-.109-1.538-.207a19.73,19.73,0,0,0-2.112-.1,1.709,1.709,0,0,0-1.416.61,2.045,2.045,0,0,0-.488,1.294,2.254,2.254,0,0,0,.366,1.184,2.822,2.822,0,0,0,1.123,1,4.021,4.021,0,0,0,1.9.4h1.293a12.443,12.443,0,0,0,4.639-.683,8.48,8.48,0,0,1,3.54-.928,3.2,3.2,0,0,1,2.014.671,4.359,4.359,0,0,1,1.343,2.283,16.086,16.086,0,0,1,.476,4.394,12.347,12.347,0,0,1-1.221,5.713,10.888,10.888,0,0,1-3.247,3.858,13.98,13.98,0,0,1-4.553,2.2A18.96,18.96,0,0,1,416.935,275.727Z" fill="#242424"/>
    <path id="패스_1495" data-name="패스 1495" d="M445.3,275.849a9.849,9.849,0,0,1-6.275-2.112,13.779,13.779,0,0,1-4.186-5.822,22.653,22.653,0,0,1-1.5-8.545,23.369,23.369,0,0,1,.989-6.726,21.3,21.3,0,0,1,2.819-5.982,14.715,14.715,0,0,1,4.419-4.272,10.791,10.791,0,0,1,5.786-1.6,10.956,10.956,0,0,1,6.678,2.038,6.593,6.593,0,0,1,2.893,5.261,3.258,3.258,0,0,1-.781,2.185,5.09,5.09,0,0,1-1.954,1.4,5.984,5.984,0,0,1-2.319.488,4.028,4.028,0,0,1-1.892-.439,2.43,2.43,0,0,1-1.184-1.367q-.048-.195-.122-.659-.121-.733-.366-1.673a5.835,5.835,0,0,0-.72-1.684,1.5,1.5,0,0,0-1.331-.745,1.624,1.624,0,0,0-1.355.9,7.171,7.171,0,0,0-.879,2.369,15.26,15.26,0,0,0-.3,3.125,19.138,19.138,0,0,0,.586,5.114,5.638,5.638,0,0,0,1.453,2.674,2.883,2.883,0,0,0,1.94.781,2.962,2.962,0,0,0,2.064-.818,2.387,2.387,0,0,0,.89-1.77q0-.414-.83-.415a5.047,5.047,0,0,0-.976.146,5.443,5.443,0,0,1-1.2.171,1.214,1.214,0,0,1-1.134-.708,3.249,3.249,0,0,1-.379-1.562,3.463,3.463,0,0,1,.4-1.672,1.419,1.419,0,0,1,1.233-.794,7.238,7.238,0,0,1,1.318.171,13.43,13.43,0,0,0,2.734.268,7.238,7.238,0,0,0,1.112-.085,6.473,6.473,0,0,1,.988-.085q3.271,0,4.858,4.15a24.957,24.957,0,0,1,1.319,8.74,24.479,24.479,0,0,1-1.27,8.789q-.171.318-.988.525a7.267,7.267,0,0,1-1.8.208,6.292,6.292,0,0,1-2.075-.33q-.953-.33-.952-1.111.024-.635.048-.927t.025-.928a3.7,3.7,0,0,0-.122-1.111q-.121-.354-.293-.354-.366,0-.952,1.318a5.362,5.362,0,0,1-2.539,2.6A8.546,8.546,0,0,1,445.3,275.849Z" fill="#242424"/>
    <path id="패스_1496" data-name="패스 1496" d="M474.112,275.849a9.848,9.848,0,0,1-6.274-2.112,13.78,13.78,0,0,1-4.187-5.822,22.652,22.652,0,0,1-1.5-8.545,23.336,23.336,0,0,1,.99-6.726,21.276,21.276,0,0,1,2.819-5.982,14.7,14.7,0,0,1,4.419-4.272,10.788,10.788,0,0,1,5.786-1.6,10.958,10.958,0,0,1,6.678,2.038,6.594,6.594,0,0,1,2.892,5.261,3.253,3.253,0,0,1-.781,2.185,5.086,5.086,0,0,1-1.953,1.4,5.988,5.988,0,0,1-2.319.488,4.026,4.026,0,0,1-1.892-.439,2.43,2.43,0,0,1-1.184-1.367q-.049-.195-.123-.659-.121-.733-.366-1.673a5.833,5.833,0,0,0-.719-1.684,1.5,1.5,0,0,0-1.332-.745,1.624,1.624,0,0,0-1.354.9,7.126,7.126,0,0,0-.879,2.369,15.261,15.261,0,0,0-.306,3.125,19.181,19.181,0,0,0,.586,5.114,5.647,5.647,0,0,0,1.453,2.674,2.885,2.885,0,0,0,1.941.781,2.96,2.96,0,0,0,2.063-.818,2.389,2.389,0,0,0,.891-1.77q0-.414-.83-.415a5.065,5.065,0,0,0-.977.146,5.428,5.428,0,0,1-1.2.171,1.214,1.214,0,0,1-1.135-.708,3.248,3.248,0,0,1-.379-1.562,3.452,3.452,0,0,1,.4-1.672,1.416,1.416,0,0,1,1.232-.794,7.227,7.227,0,0,1,1.318.171,13.447,13.447,0,0,0,2.735.268,7.216,7.216,0,0,0,1.111-.085,6.473,6.473,0,0,1,.988-.085q3.271,0,4.859,4.15a24.958,24.958,0,0,1,1.318,8.74,24.5,24.5,0,0,1-1.269,8.789q-.172.318-.989.525a7.255,7.255,0,0,1-1.795.208,6.3,6.3,0,0,1-2.075-.33q-.951-.33-.952-1.111c.017-.423.032-.732.049-.927s.024-.505.024-.928a3.7,3.7,0,0,0-.122-1.111c-.081-.236-.178-.354-.293-.354q-.366,0-.952,1.318a5.358,5.358,0,0,1-2.539,2.6A8.54,8.54,0,0,1,474.112,275.849Z" fill="#242424"/>
    <path id="패스_1497" data-name="패스 1497" d="M528.971,275.825a6.714,6.714,0,0,1-3.345-.879,6.942,6.942,0,0,1-2.526-2.429,6.668,6.668,0,0,1-.965-3.6,10.709,10.709,0,0,1,1.611-5.225,21.048,21.048,0,0,0,1.99-5.09,23.83,23.83,0,0,0,.867-6.263q0-1.269-.513-1.391-.269,0-.744.659a7,7,0,0,0-.855,1.685,6.065,6.065,0,0,0-.379,2.124,5.257,5.257,0,0,0,.367,1.9,3.1,3.1,0,0,1,.268,1.2,2.058,2.058,0,0,1-.586,1.5,3.674,3.674,0,0,1-1.514.9,6.364,6.364,0,0,1-3.893,0,3.669,3.669,0,0,1-1.526-.9,2.057,2.057,0,0,1-.586-1.5,3.077,3.077,0,0,1,.268-1.2,5.082,5.082,0,0,0,.366-1.88,6.092,6.092,0,0,0-.39-2.161,7.033,7.033,0,0,0-.879-1.7q-.488-.66-.733-.66-.463,0-.463,1.661v.854a18.707,18.707,0,0,0,.891,5.725,21.319,21.319,0,0,0,1.941,4.529,10.709,10.709,0,0,1,1.611,5.225,6.676,6.676,0,0,1-.964,3.6,6.989,6.989,0,0,1-2.515,2.429,6.7,6.7,0,0,1-3.357.879,10.52,10.52,0,0,1-4.992-1.062A7.239,7.239,0,0,1,504.459,272a7.109,7.109,0,0,1-.977-3.6,8.065,8.065,0,0,1,.22-1.856,58.381,58.381,0,0,1,1.9-5.859q.953-2.466,1.673-4.871a16.258,16.258,0,0,0,.72-4.675,10.109,10.109,0,0,0-.329-2.576,9.679,9.679,0,0,0-1.074-2.5,4.372,4.372,0,0,1-.745-2.148,2.178,2.178,0,0,1,.794-1.746,5.032,5.032,0,0,1,2.038-.989,10.565,10.565,0,0,1,2.612-.317,9.515,9.515,0,0,1,2.893.488,5.385,5.385,0,0,1,2.576,1.782l.488.635q1.219,1.637,1.977,2.466a2.059,2.059,0,0,0,1.417.83,2.37,2.37,0,0,0,1.586-.964q.879-.965,2.393-2.967a5.371,5.371,0,0,1,2.588-1.782,9.557,9.557,0,0,1,2.881-.488,10.565,10.565,0,0,1,2.612.317,5.043,5.043,0,0,1,2.039.989,2.183,2.183,0,0,1,.793,1.746,4.38,4.38,0,0,1-.744,2.148,9.547,9.547,0,0,0-1.074,2.515,10.149,10.149,0,0,0-.33,2.563,16.259,16.259,0,0,0,.72,4.675q.72,2.406,1.672,4.871a58.382,58.382,0,0,1,1.905,5.859,7.752,7.752,0,0,1,.219,1.831,7.131,7.131,0,0,1-3.93,6.385A10.511,10.511,0,0,1,528.971,275.825Z" fill="#242424"/>
    <path id="패스_1498" data-name="패스 1498" d="M565.323,275.825a10.137,10.137,0,0,1-2.978-.464,9.282,9.282,0,0,1-2.783-1.392,7.179,7.179,0,0,1-2.051-2.319,6.522,6.522,0,0,1-.782-3.247,11.908,11.908,0,0,1,1.465-5.2,9.8,9.8,0,0,0,1.2-4.126,4.055,4.055,0,0,0-.476-2.063,3.2,3.2,0,0,0-1.233-1.233,3.254,3.254,0,0,0-1.587-.415,3.036,3.036,0,0,0-2.649,1.55,3.736,3.736,0,0,0-.452,1.917,9.381,9.381,0,0,0,1.343,4.37,11.941,11.941,0,0,1,1.587,5.346,6.231,6.231,0,0,1-.806,3.223,7.179,7.179,0,0,1-2.1,2.27,9.435,9.435,0,0,1-2.832,1.343,10.832,10.832,0,0,1-2.979.44,8.69,8.69,0,0,1-5.407-1.673,5.124,5.124,0,0,1-2.21-4.26,9.312,9.312,0,0,1,.525-2.991,24.81,24.81,0,0,1,1.355-3.2q.829-1.648,1.758-3.332,1.024-1.806,1.928-3.626a27.7,27.7,0,0,0,1.5-3.625,11.218,11.218,0,0,0,.6-3.54,7.952,7.952,0,0,0-.318-2.222,4.688,4.688,0,0,1-.2-1.27,3.667,3.667,0,0,1,1.367-2.917,8.889,8.889,0,0,1,3.516-1.733,17.961,17.961,0,0,1,9.009,0,8.892,8.892,0,0,1,3.515,1.733,3.668,3.668,0,0,1,1.368,2.917,4.653,4.653,0,0,1-.2,1.27,7.7,7.7,0,0,0-.317,2.2,10.823,10.823,0,0,0,.623,3.54,27.159,27.159,0,0,0,1.562,3.626q.939,1.819,1.965,3.625.978,1.71,1.831,3.345a24.55,24.55,0,0,1,1.405,3.2,9.049,9.049,0,0,1,.548,3,5.126,5.126,0,0,1-2.209,4.26A8.7,8.7,0,0,1,565.323,275.825Zm-9.009-23.316a2.43,2.43,0,0,0,1.307-.354,1.233,1.233,0,0,0,.573-1.135,2.764,2.764,0,0,0-.219-.977q-.879-1.928-1.831-1.928-1.051,0-1.954,2.295a1.708,1.708,0,0,0-.1.537,1.275,1.275,0,0,0,.708,1.147A2.936,2.936,0,0,0,556.314,252.509Z" fill="#242424"/>
    <path id="패스_1499" data-name="패스 1499" d="M583.854,276.02a11.317,11.317,0,0,1-4.151-.781,7.99,7.99,0,0,1-3.283-2.307,5.7,5.7,0,0,1-1.282-3.8,13.889,13.889,0,0,1,.769-4.321,30.339,30.339,0,0,1,1.965-4.492,10.7,10.7,0,0,0,1.416-4.761q0-4.419-7.056-4.419a3.055,3.055,0,0,1-2.013-.72,4.748,4.748,0,0,1-1.343-1.856,6.1,6.1,0,0,1-.477-2.38,5.714,5.714,0,0,1,.6-2.539,4.788,4.788,0,0,1,1.892-2,6.512,6.512,0,0,1,3.393-.781,4.552,4.552,0,0,1,2.454.659,7.448,7.448,0,0,1,1.892,1.7,14.087,14.087,0,0,1,1.477,2.27q.646,1.234,1.208,2.429.586,1.271,1.123,2.247.415.756.733.756.34,0,.769-.793t.964-1.868q.612-1.2,1.331-2.478a16.338,16.338,0,0,1,1.636-2.392,8.342,8.342,0,0,1,2.063-1.819,4.827,4.827,0,0,1,2.588-.708,6.513,6.513,0,0,1,3.393.781,4.809,4.809,0,0,1,1.893,2,5.711,5.711,0,0,1,.6,2.539,6.1,6.1,0,0,1-.475,2.38,4.824,4.824,0,0,1-1.331,1.856,3.045,3.045,0,0,1-2.027.72,10.014,10.014,0,0,0-4.028.684,4.7,4.7,0,0,0-2.246,1.9,5.5,5.5,0,0,0-.708,2.808,6.78,6.78,0,0,0,.659,2.832q.659,1.44,1.514,2.929.9,1.587,1.635,3.223a8.043,8.043,0,0,1,.733,3.32,6.582,6.582,0,0,1-1.208,4.1,7.067,7.067,0,0,1-3.113,2.331A10.757,10.757,0,0,1,583.854,276.02Z" fill="#242424"/>
    <path id="패스_1500" data-name="패스 1500" d="M611.222,275.825a13.616,13.616,0,0,1-5.09-.989,13.269,13.269,0,0,1-4.468-2.966,14.35,14.35,0,0,1-3.174-4.956,18.753,18.753,0,0,1-1.184-6.958,27.094,27.094,0,0,1,1.172-8.4,17.95,17.95,0,0,1,3.137-5.957,13.168,13.168,0,0,1,4.431-3.552,11.609,11.609,0,0,1,5.078-1.184,11.757,11.757,0,0,1,5.164,1.208,13.594,13.594,0,0,1,4.492,3.577,17.746,17.746,0,0,1,3.161,5.908,26.179,26.179,0,0,1,1.172,8.228,19.408,19.408,0,0,1-1.2,7.153,14.3,14.3,0,0,1-3.2,5.005,12.956,12.956,0,0,1-4.48,2.93A13.906,13.906,0,0,1,611.222,275.825Zm.122-17.481a2.228,2.228,0,0,0,1.513-.635,4.647,4.647,0,0,0,1.172-1.879,8.857,8.857,0,0,0,.464-3.077,17.557,17.557,0,0,0-.475-4.443,7.147,7.147,0,0,0-1.221-2.685,2.064,2.064,0,0,0-1.551-.9,1.938,1.938,0,0,0-1.452.83,6.354,6.354,0,0,0-1.123,2.5,17.368,17.368,0,0,0-.428,4.211,9.112,9.112,0,0,0,.9,4.566A2.588,2.588,0,0,0,611.344,258.344Z" fill="#242424"/>
  </g>
</svg>
