<svg xmlns="http://www.w3.org/2000/svg" width="211.303" height="45.774" viewBox="0 0 211.303 45.774">
  <g id="그룹_836" data-name="그룹 836" transform="translate(-1262.595 -117.647)">
    <path id="패스_1554" data-name="패스 1554" d="M1262.595,118.263h38.422v9.444h-13.444v35.1h-11.5v-35.1h-13.474Z" fill="#070808"/>
    <path id="패스_1555" data-name="패스 1555" d="M1343.7,152.885a19.088,19.088,0,0,1-7.721,7.86,24.031,24.031,0,0,1-22.041,0,19.1,19.1,0,0,1-7.706-7.875,28.58,28.58,0,0,1,0-24.733,19.034,19.034,0,0,1,7.706-7.828,24.143,24.143,0,0,1,22.041,0,19.008,19.008,0,0,1,7.721,7.828,28.6,28.6,0,0,1,0,24.748Zm-10.305-19.272a8.893,8.893,0,0,0-3.23-4.292,10.008,10.008,0,0,0-10.413,0,8.93,8.93,0,0,0-3.215,4.292,22.481,22.481,0,0,0,0,13.843,8.378,8.378,0,0,0,8.414,5.752,9.023,9.023,0,0,0,5.214-1.461,8.885,8.885,0,0,0,3.23-4.291,22.5,22.5,0,0,0,0-13.843Z" fill="#070808"/>
    <path id="패스_1556" data-name="패스 1556" d="M1347.9,162.806l14.8-44.543h15.9l14.8,44.543h-12.643l-9.906-32.577h-.369l-9.936,32.577Zm34.883-17.6v8.829h-24.455V145.21Z" fill="#070808"/>
    <path id="패스_1557" data-name="패스 1557" d="M1419.326,129.429a4.274,4.274,0,0,0-2.045-1.615,9.11,9.11,0,0,0-3.369-.538,8.982,8.982,0,0,0-3.091.461,4.1,4.1,0,0,0-1.877,1.277,3.206,3.206,0,0,0,.785,4.568,14.6,14.6,0,0,0,4.707,1.784l3.722.738q7.106,1.539,10.444,4.938a12.061,12.061,0,0,1,3.4,8.659,12.326,12.326,0,0,1-2.168,7.367,13.607,13.607,0,0,1-6.184,4.646,25.828,25.828,0,0,1-9.643,1.615,26.5,26.5,0,0,1-10.09-1.754,13.875,13.875,0,0,1-6.583-5.306,16.577,16.577,0,0,1-2.4-8.906h11.2a6.858,6.858,0,0,0,1.077,3.461,5.858,5.858,0,0,0,2.645,2.154,10.144,10.144,0,0,0,4,.722,9.507,9.507,0,0,0,3.352-.523,4.836,4.836,0,0,0,2.108-1.415,3.183,3.183,0,0,0,.722-2.061,2.855,2.855,0,0,0-.677-1.907,5.724,5.724,0,0,0-2.183-1.431,22.99,22.99,0,0,0-3.969-1.153l-4.491-1.015q-6.121-1.293-9.367-4.353a10.655,10.655,0,0,1-3.245-8.136,12.287,12.287,0,0,1,2.276-7.337,14.9,14.9,0,0,1,6.321-4.953,22.877,22.877,0,0,1,9.244-1.769,22.241,22.241,0,0,1,9.213,1.769,13.943,13.943,0,0,1,6.076,5.03,13.419,13.419,0,0,1,2.153,7.567h-11.228A5.43,5.43,0,0,0,1419.326,129.429Z" fill="#070808"/>
    <path id="패스_1558" data-name="패스 1558" d="M1435.476,118.263H1473.9v9.444h-13.443v35.1h-11.5v-35.1h-13.474Z" fill="#070808"/>
  </g>
</svg>
