<svg xmlns="http://www.w3.org/2000/svg" width="297.119" height="35.425" viewBox="0 0 297.119 35.425">
  <g id="그룹_831" data-name="그룹 831" transform="translate(-52.276 -501.753)">
    <path id="패스_1536" data-name="패스 1536" d="M62.677,536.86a13.538,13.538,0,0,1-5.188-.976,8.713,8.713,0,0,1-3.8-2.893,7.812,7.812,0,0,1-1.416-4.773,13.12,13.12,0,0,1,.489-3.454q.488-1.8,1.147-3.651.684-1.951,1.233-3.942a14.865,14.865,0,0,0,.549-3.968,9.353,9.353,0,0,0-1.367-4.956,6.036,6.036,0,0,1-1-2.881q0-1.635,2.161-2.612a13.155,13.155,0,0,1,5.408-.977,22.057,22.057,0,0,1,5.041.623,20.417,20.417,0,0,1,5.164,2,17.027,17.027,0,0,1,7.788,9.058,20.814,20.814,0,0,1,1.22,7.458,14.365,14.365,0,0,1-1.587,6.86,15.693,15.693,0,0,1-4.15,5.005,18.412,18.412,0,0,1-5.64,3.052A19.056,19.056,0,0,1,62.677,536.86Zm2.148-19.946a2.424,2.424,0,0,0,1.831-.768,4.845,4.845,0,0,0,1.1-1.978,8.59,8.59,0,0,0,.366-2.5,8.846,8.846,0,0,0-.415-2.71,5.268,5.268,0,0,0-1.233-2.124,2.747,2.747,0,0,0-2.038-.83,1.445,1.445,0,0,0-.916.317,2.119,2.119,0,0,0-.623,1.148,9.818,9.818,0,0,0-.219,2.368q0,4.906,1.05,6.4A1.321,1.321,0,0,0,64.825,516.914Z" fill="#ffb71c"/>
    <path id="패스_1537" data-name="패스 1537" d="M96.295,536.812a13.616,13.616,0,0,1-5.09-.989,13.258,13.258,0,0,1-4.468-2.967,14.322,14.322,0,0,1-3.174-4.956,18.746,18.746,0,0,1-1.184-6.958,27.119,27.119,0,0,1,1.172-8.4,17.922,17.922,0,0,1,3.137-5.957,13.18,13.18,0,0,1,4.431-3.552,11.612,11.612,0,0,1,5.078-1.184,11.744,11.744,0,0,1,5.164,1.209,13.591,13.591,0,0,1,4.492,3.576,17.776,17.776,0,0,1,3.162,5.908,26.2,26.2,0,0,1,1.172,8.227,19.413,19.413,0,0,1-1.2,7.154,14.336,14.336,0,0,1-3.2,5.005,12.939,12.939,0,0,1-4.48,2.929A13.886,13.886,0,0,1,96.295,536.812Zm.122-17.481a2.234,2.234,0,0,0,1.514-.635,4.679,4.679,0,0,0,1.172-1.88,8.876,8.876,0,0,0,.463-3.076,17.507,17.507,0,0,0-.476-4.443,7.145,7.145,0,0,0-1.22-2.686,2.069,2.069,0,0,0-1.551-.9,1.938,1.938,0,0,0-1.452.83,6.354,6.354,0,0,0-1.123,2.5,17.32,17.32,0,0,0-.428,4.211,9.093,9.093,0,0,0,.9,4.565A2.585,2.585,0,0,0,96.417,519.331Z" fill="#ffb71c"/>
    <path id="패스_1538" data-name="패스 1538" d="M134.356,536.812a7.2,7.2,0,0,1-4.15-1.343,9.96,9.96,0,0,1-1.282-1.026q-.354-.366-.573-.366a1.13,1.13,0,0,0-.623.379q-.4.378-1.306,1.062a6.5,6.5,0,0,1-3.906,1.294,15.267,15.267,0,0,1-5.921-.989,7.479,7.479,0,0,1-3.467-2.722,7.107,7.107,0,0,1-1.135-3.98,15.962,15.962,0,0,1,.647-4.492q.646-2.222,1.477-4.4.782-2.051,1.38-4.077a14.111,14.111,0,0,0,.6-4,10.154,10.154,0,0,0-.33-2.563,9.38,9.38,0,0,0-1.1-2.527,4.342,4.342,0,0,1-.77-2.161,2.179,2.179,0,0,1,.794-1.745,5.038,5.038,0,0,1,2.051-.989,11.009,11.009,0,0,1,5.3.013,5.454,5.454,0,0,1,2.1.988,2.046,2.046,0,0,1,.818,1.66,3.514,3.514,0,0,1-.732,1.9,6.381,6.381,0,0,0-.867,2.113,11.794,11.794,0,0,0-.305,2.746,13.4,13.4,0,0,0,.659,4.394,7.965,7.965,0,0,0,1.684,2.967,2.994,2.994,0,0,0,2.149,1.062,2.374,2.374,0,0,0,1.611-.684,4.849,4.849,0,0,0,1.233-2.087,11.3,11.3,0,0,0,.476-3.577,22.493,22.493,0,0,0-.305-3.955,6.929,6.929,0,0,0-1.282-2.979,3.521,3.521,0,0,1-.83-2,1.976,1.976,0,0,1,.806-1.6,5.334,5.334,0,0,1,2.063-.965,10.907,10.907,0,0,1,5.273.013,5.163,5.163,0,0,1,2.1,1.025,2.274,2.274,0,0,1,.818,1.818,4.469,4.469,0,0,1-.659,2.076,9.192,9.192,0,0,0-1.2,4.541,11.893,11.893,0,0,0,.489,3.113q.487,1.77,1.208,3.674t1.477,3.76q.879,2.124,1.514,3.857a8.51,8.51,0,0,1,.635,2.661,9.02,9.02,0,0,1-.94,4.175,6.783,6.783,0,0,1-2.845,2.881A9.931,9.931,0,0,1,134.356,536.812Z" fill="#ffb71c"/>
    <path id="패스_1539" data-name="패스 1539" d="M158.062,537.178a20.449,20.449,0,0,1-6.372-.977,11.169,11.169,0,0,1-4.858-2.978,7.641,7.641,0,0,1-1.953-5.42,11.4,11.4,0,0,1,.635-3.662q.634-1.879,1.465-3.833.9-2.052,1.611-4.175a13.363,13.363,0,0,0,.708-4.248,9.061,9.061,0,0,0-1.074-4.346,3.956,3.956,0,0,1-.489-1.733,2.658,2.658,0,0,1,1.27-2.271,9.062,9.062,0,0,1,3.32-1.306,21.388,21.388,0,0,1,4.37-.427,25.592,25.592,0,0,1,5.408.55,12.287,12.287,0,0,1,4.138,1.586,3.128,3.128,0,0,1,1.636,2.527q0,2.051-3.3,3.833-.586.318-.891.513c-.2.13-.305.252-.305.366q0,.366,1.465.879a15.219,15.219,0,0,1,7.153,5.2,14.342,14.342,0,0,1,2.71,8.594,8.291,8.291,0,0,1-1.465,4.846,12.291,12.291,0,0,1-3.882,3.552,19.915,19.915,0,0,1-5.371,2.186A24.212,24.212,0,0,1,158.062,537.178Zm-.756-26.636a2.319,2.319,0,0,0,.976-.269,11.563,11.563,0,0,0,2.832-1.891,2.377,2.377,0,0,0,.855-1.453q0-.952-1.685-1.026a6.129,6.129,0,0,0-1.733.293,3.169,3.169,0,0,0-1.721,1.294,3.247,3.247,0,0,0-.574,1.734,1.636,1.636,0,0,0,.256.94A.892.892,0,0,0,157.306,510.542Zm4.76,8.252a3.979,3.979,0,0,0,1.819-.3.889.889,0,0,0,.55-.769,2.152,2.152,0,0,0-.977-1.49,9.236,9.236,0,0,0-2.417-1.391,7.471,7.471,0,0,0-2.832-.586,2.02,2.02,0,0,0-1.416.415,1.327,1.327,0,0,0-.439,1,2.569,2.569,0,0,0,.756,1.685Q158.381,518.794,162.066,518.794Z" fill="#ffb71c"/>
    <path id="패스_1540" data-name="패스 1540" d="M189.923,536.812a22.813,22.813,0,0,1-6.836-.964,12.055,12.055,0,0,1-4.9-2.735,5.619,5.619,0,0,1-1.819-4.163,6.024,6.024,0,0,1,.171-1.416,52.88,52.88,0,0,1,1.782-5.81q.855-2.392,1.526-4.748a16.777,16.777,0,0,0,.671-4.6,10.837,10.837,0,0,0-.341-2.7,9.067,9.067,0,0,0-1.148-2.6,4.32,4.32,0,0,1-.8-2.221,2.13,2.13,0,0,1,.781-1.709,5.006,5.006,0,0,1,2.026-.977,10.466,10.466,0,0,1,2.588-.317,10.973,10.973,0,0,1,2.7.33,5.477,5.477,0,0,1,2.136,1,2.09,2.09,0,0,1,.83,1.7,3.56,3.56,0,0,1-.732,1.893,7.962,7.962,0,0,0-1.1,2.563,12.686,12.686,0,0,0-.366,3.063,13.692,13.692,0,0,0,.513,3.76,7.963,7.963,0,0,0,1.464,2.954,2.843,2.843,0,0,0,2.246,1.148q1.808,0,3.785-2.442a4.041,4.041,0,0,1,2.954-1.709,3.179,3.179,0,0,1,2.136.9,6.49,6.49,0,0,1,1.66,2.734,14.035,14.035,0,0,1,.647,4.614q0,6.789-3.955,9.864A13.553,13.553,0,0,1,189.923,536.812Z" fill="#ffb71c"/>
    <path id="패스_1541" data-name="패스 1541" d="M217.462,536.714a21.277,21.277,0,0,1-4.846-.549A16.631,16.631,0,0,1,208.4,534.6a9.111,9.111,0,0,1-2.954-2.466,5.239,5.239,0,0,1-1.1-3.236,15.361,15.361,0,0,1,.524-3.955q.525-1.977,1.2-3.955t1.184-3.918a15,15,0,0,0,.513-3.845,9.4,9.4,0,0,0-1.368-4.981,5.906,5.906,0,0,1-1-2.856q0-2.245,3.028-3.052a28.743,28.743,0,0,1,6.714-.586q2.221,0,4.467.049,2.124.074,3.955.073a1.9,1.9,0,0,1,1.331.477,2.883,2.883,0,0,1,.781,1.2,4.372,4.372,0,0,1,.257,1.476,3.422,3.422,0,0,1-.44,1.771,1.456,1.456,0,0,1-1.343.744,10.283,10.283,0,0,1-1.684-.244,26.852,26.852,0,0,0-4.566-.537,4.635,4.635,0,0,0-2,.366,2.6,2.6,0,0,0-1.1.9,1.955,1.955,0,0,0-.342,1.05,1.612,1.612,0,0,0,.513,1.172,1.845,1.845,0,0,0,1.367.513,7.091,7.091,0,0,0,1.745-.207q.817-.209,1.5-.452a4.564,4.564,0,0,1,1.562-.367,1.489,1.489,0,0,1,1.343.879,3.772,3.772,0,0,1,.488,1.856,2.592,2.592,0,0,1-.354,1.367,1.181,1.181,0,0,1-1.086.586,6.51,6.51,0,0,1-1.062-.11q-.648-.109-1.538-.208a20.014,20.014,0,0,0-2.112-.1,1.707,1.707,0,0,0-1.416.61,2.038,2.038,0,0,0-.488,1.294,2.26,2.26,0,0,0,.366,1.185,2.837,2.837,0,0,0,1.123,1,4.032,4.032,0,0,0,1.9.4h1.294a12.44,12.44,0,0,0,4.639-.684,8.491,8.491,0,0,1,3.54-.927,3.194,3.194,0,0,1,2.014.672,4.351,4.351,0,0,1,1.343,2.282,16.127,16.127,0,0,1,.476,4.394,12.332,12.332,0,0,1-1.221,5.713,10.9,10.9,0,0,1-3.247,3.858,13.98,13.98,0,0,1-4.553,2.2A18.919,18.919,0,0,1,217.462,536.714Z" fill="#ffb71c"/>
    <path id="패스_1542" data-name="패스 1542" d="M270.074,536.812a6.966,6.966,0,0,1-3.528-.964,7.686,7.686,0,0,1-2.722-2.661,7.249,7.249,0,0,1-1.05-3.9,9.938,9.938,0,0,1,1.343-4.81q.513-.9,1.026-2.05a13.9,13.9,0,0,0,1.171-5.567,2.3,2.3,0,0,0-.647-1.684,4.02,4.02,0,0,0-1.647-.989,6.776,6.776,0,0,0-2.124-.33,7.734,7.734,0,0,0-2.2.318,4.547,4.547,0,0,0-1.77.94,1.97,1.97,0,0,0-.7,1.526,11.987,11.987,0,0,0,.4,3.113,17.654,17.654,0,0,0,.977,2.759,22.512,22.512,0,0,0,1.111,2.16,10.709,10.709,0,0,1,1.611,5.224,6.684,6.684,0,0,1-.964,3.6,6.989,6.989,0,0,1-2.515,2.429,6.7,6.7,0,0,1-3.357.879,10.527,10.527,0,0,1-4.993-1.062,7.243,7.243,0,0,1-2.966-2.759,7.109,7.109,0,0,1-.977-3.6q0-2.174,2.125-7.642.927-2.49,1.66-4.907a16.218,16.218,0,0,0,.732-4.712,9.275,9.275,0,0,0-1.392-5.029,4.5,4.5,0,0,1-.781-2.2,2.176,2.176,0,0,1,.794-1.745,5.04,5.04,0,0,1,2.05-.989,11.009,11.009,0,0,1,5.3.013,5.452,5.452,0,0,1,2.1.988,2.046,2.046,0,0,1,.818,1.66,3.509,3.509,0,0,1-.733,1.9,2.73,2.73,0,0,0-.561,1.465,1.594,1.594,0,0,0,.61,1.27,4.016,4.016,0,0,0,1.563.769,7.565,7.565,0,0,0,1.977.256,6.422,6.422,0,0,0,2.661-.537,1.712,1.712,0,0,0,1.2-1.587,2.9,2.9,0,0,0-.684-1.636,3.514,3.514,0,0,1-.83-2,1.976,1.976,0,0,1,.806-1.6,5.327,5.327,0,0,1,2.063-.965,10.6,10.6,0,0,1,2.6-.317,10.821,10.821,0,0,1,2.685.33,5.268,5.268,0,0,1,2.112,1.012A2.241,2.241,0,0,1,275.25,505a4.372,4.372,0,0,1-.684,2.1,9.4,9.4,0,0,0-1.171,4.516,15.4,15.4,0,0,0,.866,4.969q.867,2.551,1.966,5.163,2.465,5.763,2.465,7.983a6.793,6.793,0,0,1-.927,3.443,6.883,6.883,0,0,1-2.845,2.625A10.3,10.3,0,0,1,270.074,536.812Z" fill="#ffb71c"/>
    <path id="패스_1543" data-name="패스 1543" d="M305.988,536.812a10.135,10.135,0,0,1-2.979-.464,9.283,9.283,0,0,1-2.783-1.392,7.177,7.177,0,0,1-2.051-2.319,6.522,6.522,0,0,1-.781-3.247,11.911,11.911,0,0,1,1.464-5.2,9.788,9.788,0,0,0,1.2-4.126,4.052,4.052,0,0,0-.475-2.062,3.216,3.216,0,0,0-1.233-1.233,3.254,3.254,0,0,0-1.587-.415,3.039,3.039,0,0,0-2.649,1.55,3.734,3.734,0,0,0-.452,1.916,9.375,9.375,0,0,0,1.343,4.37,11.952,11.952,0,0,1,1.587,5.347,6.233,6.233,0,0,1-.806,3.223,7.168,7.168,0,0,1-2.1,2.27,9.435,9.435,0,0,1-2.832,1.343,10.833,10.833,0,0,1-2.979.44,8.7,8.7,0,0,1-5.408-1.672,5.131,5.131,0,0,1-2.209-4.261,9.3,9.3,0,0,1,.525-2.99,24.626,24.626,0,0,1,1.355-3.2q.829-1.647,1.758-3.333,1.024-1.806,1.928-3.625a27.743,27.743,0,0,0,1.5-3.626,11.237,11.237,0,0,0,.6-3.54,7.986,7.986,0,0,0-.317-2.221,4.609,4.609,0,0,1-.2-1.27,3.667,3.667,0,0,1,1.367-2.917,8.911,8.911,0,0,1,3.516-1.733,17.962,17.962,0,0,1,9.009,0,8.917,8.917,0,0,1,3.516,1.733,3.67,3.67,0,0,1,1.367,2.917,4.683,4.683,0,0,1-.2,1.27,7.673,7.673,0,0,0-.319,2.2,10.85,10.85,0,0,0,.623,3.54,27.3,27.3,0,0,0,1.563,3.626q.94,1.82,1.965,3.625.975,1.71,1.832,3.345a24.819,24.819,0,0,1,1.4,3.2,9.076,9.076,0,0,1,.549,3,5.131,5.131,0,0,1-2.209,4.261A8.707,8.707,0,0,1,305.988,536.812ZM296.979,513.5a2.437,2.437,0,0,0,1.306-.353,1.236,1.236,0,0,0,.573-1.136,2.759,2.759,0,0,0-.219-.977q-.879-1.928-1.831-1.928-1.052,0-1.954,2.294a1.719,1.719,0,0,0-.1.538,1.275,1.275,0,0,0,.708,1.147A2.94,2.94,0,0,0,296.979,513.5Z" fill="#ffb71c"/>
    <path id="패스_1544" data-name="패스 1544" d="M340.459,536.812a6.71,6.71,0,0,1-3.344-.879,6.962,6.962,0,0,1-2.528-2.429,6.683,6.683,0,0,1-.963-3.6,10.709,10.709,0,0,1,1.611-5.224,21.05,21.05,0,0,0,1.989-5.09,23.787,23.787,0,0,0,.867-6.263q0-1.269-.512-1.391c-.18,0-.427.219-.746.659a7.088,7.088,0,0,0-.853,1.684,6.074,6.074,0,0,0-.379,2.124,5.278,5.278,0,0,0,.366,1.905,3.079,3.079,0,0,1,.269,1.2,2.059,2.059,0,0,1-.586,1.5,3.7,3.7,0,0,1-1.514.9,6.367,6.367,0,0,1-3.894,0,3.693,3.693,0,0,1-1.526-.9,2.063,2.063,0,0,1-.586-1.5,3.061,3.061,0,0,1,.269-1.2,5.082,5.082,0,0,0,.366-1.88,6.109,6.109,0,0,0-.39-2.16,7.047,7.047,0,0,0-.879-1.7q-.49-.658-.733-.659-.463,0-.464,1.66v.855a18.709,18.709,0,0,0,.892,5.725,21.394,21.394,0,0,0,1.94,4.529,10.7,10.7,0,0,1,1.612,5.224,6.684,6.684,0,0,1-.964,3.6,6.992,6.992,0,0,1-2.516,2.429,6.689,6.689,0,0,1-3.356.879,10.527,10.527,0,0,1-4.993-1.062,7.231,7.231,0,0,1-2.966-2.759,7.1,7.1,0,0,1-.977-3.6,8,8,0,0,1,.22-1.856,58.124,58.124,0,0,1,1.9-5.859q.953-2.466,1.672-4.87a16.239,16.239,0,0,0,.721-4.676,10.1,10.1,0,0,0-.33-2.575,9.573,9.573,0,0,0-1.075-2.5,4.379,4.379,0,0,1-.744-2.149,2.181,2.181,0,0,1,.793-1.745,5.049,5.049,0,0,1,2.039-.989,10.568,10.568,0,0,1,2.613-.317,9.516,9.516,0,0,1,2.893.488,5.379,5.379,0,0,1,2.575,1.782l.489.635q1.219,1.636,1.977,2.466a2.061,2.061,0,0,0,1.416.83,2.374,2.374,0,0,0,1.587-.964q.879-.965,2.393-2.967a5.367,5.367,0,0,1,2.588-1.782,9.558,9.558,0,0,1,2.881-.488,10.565,10.565,0,0,1,2.612.317,5.043,5.043,0,0,1,2.039.989,2.181,2.181,0,0,1,.793,1.745,4.379,4.379,0,0,1-.744,2.149,9.572,9.572,0,0,0-1.075,2.514,10.161,10.161,0,0,0-.33,2.564,16.272,16.272,0,0,0,.721,4.676q.72,2.4,1.672,4.87a58.631,58.631,0,0,1,1.9,5.859,7.7,7.7,0,0,1,.22,1.831,7.134,7.134,0,0,1-3.931,6.385A10.509,10.509,0,0,1,340.459,536.812Z" fill="#ffb71c"/>
  </g>
</svg>
