<svg xmlns="http://www.w3.org/2000/svg" width="238.452" height="35.888" viewBox="0 0 238.452 35.888">
  <g id="그룹_829" data-name="그룹 829" transform="translate(-69.836 -411.392)">
    <path id="패스_1521" data-name="패스 1521" d="M95.568,446.816a10.136,10.136,0,0,1-2.978-.463,9.33,9.33,0,0,1-2.783-1.392,7.189,7.189,0,0,1-2.051-2.319,6.522,6.522,0,0,1-.781-3.247,11.908,11.908,0,0,1,1.464-5.2,9.8,9.8,0,0,0,1.2-4.126,4.058,4.058,0,0,0-.476-2.063,3.215,3.215,0,0,0-1.233-1.233,3.265,3.265,0,0,0-1.587-.415,3.045,3.045,0,0,0-2.649,1.55,3.738,3.738,0,0,0-.452,1.917,9.386,9.386,0,0,0,1.343,4.37,11.945,11.945,0,0,1,1.587,5.347,6.233,6.233,0,0,1-.806,3.223,7.19,7.19,0,0,1-2.1,2.27,9.435,9.435,0,0,1-2.832,1.343,10.83,10.83,0,0,1-2.979.439,8.7,8.7,0,0,1-5.408-1.672,5.128,5.128,0,0,1-2.209-4.26,9.313,9.313,0,0,1,.525-2.991,24.628,24.628,0,0,1,1.355-3.2q.829-1.647,1.758-3.332,1.024-1.806,1.928-3.626a27.848,27.848,0,0,0,1.5-3.625,11.241,11.241,0,0,0,.6-3.54,7.98,7.98,0,0,0-.317-2.221,4.616,4.616,0,0,1-.2-1.27,3.669,3.669,0,0,1,1.367-2.918,8.924,8.924,0,0,1,3.516-1.733,17.962,17.962,0,0,1,9.009,0,8.919,8.919,0,0,1,3.515,1.733,3.667,3.667,0,0,1,1.368,2.918,4.654,4.654,0,0,1-.2,1.27,7.691,7.691,0,0,0-.317,2.2,10.8,10.8,0,0,0,.623,3.54,27.145,27.145,0,0,0,1.562,3.625q.941,1.819,1.965,3.626.977,1.71,1.831,3.345a24.289,24.289,0,0,1,1.4,3.2,9.052,9.052,0,0,1,.55,3,5.129,5.129,0,0,1-2.21,4.26A8.7,8.7,0,0,1,95.568,446.816ZM86.56,423.5a2.43,2.43,0,0,0,1.306-.355,1.232,1.232,0,0,0,.573-1.134,2.754,2.754,0,0,0-.219-.977q-.879-1.929-1.831-1.929-1.051,0-1.953,2.3a1.688,1.688,0,0,0-.1.537,1.276,1.276,0,0,0,.708,1.148A2.949,2.949,0,0,0,86.56,423.5Z" fill="#ffb71c"/>
    <path id="패스_1522" data-name="패스 1522" d="M115.612,447.28a14.13,14.13,0,0,1-4.858-.842,9.431,9.431,0,0,1-3.845-2.527,7.077,7.077,0,0,1-1.77-4.2q-.147-2.393-.147-4.981v-1.977q0-2.416-.146-5.1-.392-6.42-3.76-9.57a4.455,4.455,0,0,1-1.782-3.052,2.483,2.483,0,0,1,.952-1.941,6.542,6.542,0,0,1,2.417-1.257,10.305,10.305,0,0,1,2.978-.439,7.991,7.991,0,0,1,2.332.329,4.085,4.085,0,0,1,1.77,1.025,2.458,2.458,0,0,1,.684,1.795,4.823,4.823,0,0,1-.147,1.123,6.25,6.25,0,0,0-.195,1.611,16.454,16.454,0,0,0,2.051,7.3A35.917,35.917,0,0,0,114.1,428.2q.78,1.209,1.464,1.209.66,0,1.441-1.16a34.375,34.375,0,0,0,1.953-3.478,23.01,23.01,0,0,0,1.55-3.871,12.811,12.811,0,0,0,.574-3.625,6.25,6.25,0,0,0-.195-1.611,4.823,4.823,0,0,1-.147-1.123,2.43,2.43,0,0,1,.659-1.758,3.967,3.967,0,0,1,1.734-1.013,7.774,7.774,0,0,1,2.295-.33,10.262,10.262,0,0,1,3.015.452,6.709,6.709,0,0,1,2.454,1.294,2.555,2.555,0,0,1,.976,1.99,2.982,2.982,0,0,1-.427,1.428,6.809,6.809,0,0,1-1.355,1.624,10.707,10.707,0,0,0-2.954,4.614,26.771,26.771,0,0,0-1.2,6.933q-.245,4.127-.244,9.937a6.259,6.259,0,0,1-.866,3.308,7.42,7.42,0,0,1-2.3,2.368A10.887,10.887,0,0,1,119.3,446.8,14.432,14.432,0,0,1,115.612,447.28Z" fill="#ffb71c"/>
    <path id="패스_1523" data-name="패스 1523" d="M143.737,446.816a13.624,13.624,0,0,1-5.09-.989,13.264,13.264,0,0,1-4.468-2.966,14.346,14.346,0,0,1-3.174-4.956,18.766,18.766,0,0,1-1.184-6.958,27.114,27.114,0,0,1,1.172-8.4,17.941,17.941,0,0,1,3.137-5.957,13.178,13.178,0,0,1,4.432-3.553,11.606,11.606,0,0,1,5.078-1.184,11.749,11.749,0,0,1,5.163,1.208,13.587,13.587,0,0,1,4.492,3.578,17.72,17.72,0,0,1,3.162,5.908,26.2,26.2,0,0,1,1.172,8.227,19.438,19.438,0,0,1-1.2,7.154,14.324,14.324,0,0,1-3.2,5.005,12.953,12.953,0,0,1-4.48,2.929A13.881,13.881,0,0,1,143.737,446.816Zm.122-17.48a2.237,2.237,0,0,0,1.514-.635,4.668,4.668,0,0,0,1.172-1.88,8.874,8.874,0,0,0,.464-3.076,17.547,17.547,0,0,0-.476-4.443,7.153,7.153,0,0,0-1.221-2.686,2.064,2.064,0,0,0-1.55-.9,1.936,1.936,0,0,0-1.453.83,6.369,6.369,0,0,0-1.123,2.5,17.378,17.378,0,0,0-.427,4.212,9.11,9.11,0,0,0,.9,4.565A2.588,2.588,0,0,0,143.859,429.336Z" fill="#ffb71c"/>
    <path id="패스_1524" data-name="패스 1524" d="M197.131,446.816a6.723,6.723,0,0,1-3.345-.878,6.946,6.946,0,0,1-2.527-2.43,6.674,6.674,0,0,1-.964-3.6,10.706,10.706,0,0,1,1.611-5.224,21.059,21.059,0,0,0,1.99-5.091,23.779,23.779,0,0,0,.867-6.262q0-1.27-.513-1.392-.269,0-.745.66a7.052,7.052,0,0,0-.854,1.684,6.074,6.074,0,0,0-.379,2.124,5.28,5.28,0,0,0,.367,1.9,3.091,3.091,0,0,1,.268,1.2,2.057,2.057,0,0,1-.586,1.5,3.677,3.677,0,0,1-1.513.9,6.347,6.347,0,0,1-3.894,0,3.669,3.669,0,0,1-1.526-.9,2.057,2.057,0,0,1-.586-1.5,3.073,3.073,0,0,1,.268-1.2,5.091,5.091,0,0,0,.367-1.88,6.094,6.094,0,0,0-.391-2.161,7.041,7.041,0,0,0-.879-1.7q-.489-.658-.732-.659-.465,0-.464,1.66v.855a18.732,18.732,0,0,0,.891,5.724,21.381,21.381,0,0,0,1.941,4.53,10.706,10.706,0,0,1,1.611,5.224,6.682,6.682,0,0,1-.964,3.6,6.984,6.984,0,0,1-2.515,2.43,6.7,6.7,0,0,1-3.357.878,10.527,10.527,0,0,1-4.993-1.062,7.236,7.236,0,0,1-2.966-2.759,7.1,7.1,0,0,1-.976-3.6,8.05,8.05,0,0,1,.219-1.856,58.389,58.389,0,0,1,1.9-5.859q.951-2.466,1.672-4.871a16.264,16.264,0,0,0,.72-4.675,10.148,10.148,0,0,0-.329-2.576,9.668,9.668,0,0,0-1.075-2.5,4.379,4.379,0,0,1-.744-2.149,2.18,2.18,0,0,1,.793-1.746,5.042,5.042,0,0,1,2.039-.988,10.512,10.512,0,0,1,2.612-.318,9.519,9.519,0,0,1,2.893.489,5.374,5.374,0,0,1,2.576,1.782l.488.635q1.221,1.637,1.978,2.466a2.059,2.059,0,0,0,1.416.83,2.374,2.374,0,0,0,1.587-.965q.879-.965,2.392-2.966a5.369,5.369,0,0,1,2.588-1.782,9.561,9.561,0,0,1,2.881-.489,10.518,10.518,0,0,1,2.612.318,5.048,5.048,0,0,1,2.039.988,2.18,2.18,0,0,1,.793,1.746,4.379,4.379,0,0,1-.744,2.149,9.591,9.591,0,0,0-1.075,2.514,10.2,10.2,0,0,0-.329,2.564,16.264,16.264,0,0,0,.72,4.675q.72,2.4,1.672,4.871a58.389,58.389,0,0,1,1.9,5.859,7.752,7.752,0,0,1,.219,1.831,7.13,7.13,0,0,1-3.93,6.384A10.511,10.511,0,0,1,197.131,446.816Z" fill="#ffb71c"/>
    <path id="패스_1525" data-name="패스 1525" d="M230.48,446.816a7.2,7.2,0,0,1-4.15-1.342,10.047,10.047,0,0,1-1.282-1.026q-.354-.366-.573-.366a1.127,1.127,0,0,0-.623.378q-.4.38-1.306,1.062a6.5,6.5,0,0,1-3.906,1.294,15.267,15.267,0,0,1-5.921-.989,7.479,7.479,0,0,1-3.467-2.722,7.1,7.1,0,0,1-1.135-3.979,16,16,0,0,1,.647-4.492q.646-2.223,1.477-4.395.781-2.051,1.38-4.077a14.111,14.111,0,0,0,.6-4,10.149,10.149,0,0,0-.33-2.563,9.386,9.386,0,0,0-1.1-2.528,4.342,4.342,0,0,1-.77-2.16,2.181,2.181,0,0,1,.794-1.746,5.037,5.037,0,0,1,2.051-.988,10.992,10.992,0,0,1,5.3.012,5.455,5.455,0,0,1,2.1.989,2.046,2.046,0,0,1,.818,1.66,3.517,3.517,0,0,1-.732,1.9,6.375,6.375,0,0,0-.867,2.112,11.8,11.8,0,0,0-.3,2.747,13.4,13.4,0,0,0,.659,4.394,7.948,7.948,0,0,0,1.685,2.966,2.992,2.992,0,0,0,2.148,1.063,2.374,2.374,0,0,0,1.611-.684,4.853,4.853,0,0,0,1.233-2.088,11.3,11.3,0,0,0,.476-3.576,22.5,22.5,0,0,0-.3-3.955,6.924,6.924,0,0,0-1.282-2.979,3.523,3.523,0,0,1-.83-2,1.978,1.978,0,0,1,.806-1.6,5.347,5.347,0,0,1,2.063-.964,10.562,10.562,0,0,1,2.6-.318,10.673,10.673,0,0,1,2.673.33,5.163,5.163,0,0,1,2.1,1.025,2.275,2.275,0,0,1,.818,1.819,4.466,4.466,0,0,1-.659,2.075,9.2,9.2,0,0,0-1.2,4.542,11.885,11.885,0,0,0,.489,3.112q.487,1.77,1.208,3.675t1.477,3.759q.879,2.124,1.514,3.858a8.5,8.5,0,0,1,.635,2.661,9.022,9.022,0,0,1-.94,4.175,6.8,6.8,0,0,1-2.845,2.881A9.93,9.93,0,0,1,230.48,446.816Z" fill="#ffb71c"/>
    <path id="패스_1526" data-name="패스 1526" d="M266.32,446.816a6.719,6.719,0,0,1-3.344-.878,6.938,6.938,0,0,1-2.527-2.43,6.674,6.674,0,0,1-.965-3.6,10.7,10.7,0,0,1,1.612-5.224,21.1,21.1,0,0,0,1.989-5.091,23.779,23.779,0,0,0,.867-6.262q0-1.27-.513-1.392-.268,0-.744.66a7.016,7.016,0,0,0-.855,1.684,6.1,6.1,0,0,0-.378,2.124,5.278,5.278,0,0,0,.366,1.9,3.075,3.075,0,0,1,.269,1.2,2.061,2.061,0,0,1-.586,1.5,3.687,3.687,0,0,1-1.514.9,6.347,6.347,0,0,1-3.894,0,3.675,3.675,0,0,1-1.526-.9,2.061,2.061,0,0,1-.586-1.5,3.075,3.075,0,0,1,.269-1.2,5.09,5.09,0,0,0,.366-1.88,6.072,6.072,0,0,0-.391-2.161,6.969,6.969,0,0,0-.879-1.7q-.487-.658-.732-.659-.465,0-.464,1.66v.855a18.732,18.732,0,0,0,.891,5.724,21.382,21.382,0,0,0,1.941,4.53,10.708,10.708,0,0,1,1.612,5.224,6.674,6.674,0,0,1-.965,3.6,6.981,6.981,0,0,1-2.514,2.43,6.7,6.7,0,0,1-3.357.878,10.524,10.524,0,0,1-4.993-1.062,7.224,7.224,0,0,1-2.966-2.759,7.1,7.1,0,0,1-.977-3.6,8,8,0,0,1,.22-1.856,58.128,58.128,0,0,1,1.9-5.859q.953-2.466,1.672-4.871a16.266,16.266,0,0,0,.721-4.675,10.1,10.1,0,0,0-.33-2.576,9.665,9.665,0,0,0-1.074-2.5,4.372,4.372,0,0,1-.745-2.149,2.178,2.178,0,0,1,.794-1.746,5.031,5.031,0,0,1,2.038-.988,10.52,10.52,0,0,1,2.613-.318,9.524,9.524,0,0,1,2.893.489,5.372,5.372,0,0,1,2.575,1.782l.489.635q1.219,1.637,1.977,2.466a2.061,2.061,0,0,0,1.416.83,2.372,2.372,0,0,0,1.587-.965q.879-.965,2.393-2.966a5.362,5.362,0,0,1,2.587-1.782,9.571,9.571,0,0,1,2.881-.489,10.526,10.526,0,0,1,2.613.318,5.037,5.037,0,0,1,2.038.988,2.181,2.181,0,0,1,.794,1.746,4.382,4.382,0,0,1-.745,2.149,9.587,9.587,0,0,0-1.074,2.514,10.156,10.156,0,0,0-.33,2.564,16.264,16.264,0,0,0,.72,4.675q.72,2.4,1.673,4.871a58.632,58.632,0,0,1,1.9,5.859,7.7,7.7,0,0,1,.22,1.831,7.134,7.134,0,0,1-3.931,6.384A10.509,10.509,0,0,1,266.32,446.816Z" fill="#ffb71c"/>
    <path id="패스_1527" data-name="패스 1527" d="M299.67,446.816a7.2,7.2,0,0,1-4.15-1.342,10.048,10.048,0,0,1-1.282-1.026c-.237-.244-.427-.366-.574-.366a1.126,1.126,0,0,0-.622.378q-.4.38-1.307,1.062a6.5,6.5,0,0,1-3.906,1.294,15.265,15.265,0,0,1-5.92-.989,7.474,7.474,0,0,1-3.467-2.722,7.1,7.1,0,0,1-1.135-3.979,15.962,15.962,0,0,1,.647-4.492q.646-2.223,1.477-4.395.78-2.051,1.379-4.077a14.111,14.111,0,0,0,.6-4,10.193,10.193,0,0,0-.329-2.563,9.359,9.359,0,0,0-1.1-2.528,4.339,4.339,0,0,1-.769-2.16,2.18,2.18,0,0,1,.793-1.746,5.044,5.044,0,0,1,2.051-.988,10.992,10.992,0,0,1,5.3.012,5.459,5.459,0,0,1,2.1.989,2.046,2.046,0,0,1,.818,1.66,3.519,3.519,0,0,1-.733,1.9,6.418,6.418,0,0,0-.867,2.112,11.857,11.857,0,0,0-.3,2.747,13.425,13.425,0,0,0,.659,4.394,7.961,7.961,0,0,0,1.685,2.966,2.994,2.994,0,0,0,2.148,1.063,2.374,2.374,0,0,0,1.612-.684,4.873,4.873,0,0,0,1.233-2.088,11.325,11.325,0,0,0,.476-3.576,22.493,22.493,0,0,0-.3-3.955,6.924,6.924,0,0,0-1.282-2.979,3.516,3.516,0,0,1-.83-2,1.977,1.977,0,0,1,.8-1.6,5.348,5.348,0,0,1,2.063-.964,10.562,10.562,0,0,1,2.6-.318,10.687,10.687,0,0,1,2.674.33,5.164,5.164,0,0,1,2.1,1.025,2.275,2.275,0,0,1,.818,1.819,4.454,4.454,0,0,1-.659,2.075,9.2,9.2,0,0,0-1.2,4.542,11.879,11.879,0,0,0,.488,3.112q.487,1.77,1.209,3.675t1.477,3.759q.879,2.124,1.513,3.858a8.5,8.5,0,0,1,.635,2.661,9.01,9.01,0,0,1-.94,4.175,6.8,6.8,0,0,1-2.844,2.881A9.936,9.936,0,0,1,299.67,446.816Z" fill="#ffb71c"/>
  </g>
</svg>
