<svg xmlns="http://www.w3.org/2000/svg" width="342.304" height="32.591" viewBox="0 0 342.304 32.591">
  <g id="그룹_828" data-name="그룹 828" transform="translate(-349.187 -335.066)">
    <path id="패스_1509" data-name="패스 1509" d="M358.755,367.365a12.473,12.473,0,0,1-4.773-.9,8.016,8.016,0,0,1-3.492-2.662,7.183,7.183,0,0,1-1.3-4.391,12.081,12.081,0,0,1,.449-3.179q.45-1.65,1.056-3.357.629-1.8,1.134-3.628a13.657,13.657,0,0,0,.506-3.649,8.607,8.607,0,0,0-1.258-4.56,5.539,5.539,0,0,1-.921-2.65q0-1.5,1.988-2.4a12.1,12.1,0,0,1,4.975-.9,20.277,20.277,0,0,1,4.638.572,18.8,18.8,0,0,1,4.75,1.842,15.672,15.672,0,0,1,7.165,8.333,19.13,19.13,0,0,1,1.123,6.862,13.225,13.225,0,0,1-1.459,6.312,14.472,14.472,0,0,1-3.819,4.6,16.955,16.955,0,0,1-5.188,2.808A17.547,17.547,0,0,1,358.755,367.365Zm1.977-18.35a2.235,2.235,0,0,0,1.685-.708,4.459,4.459,0,0,0,1.01-1.82,7.875,7.875,0,0,0,.337-2.3,8.1,8.1,0,0,0-.382-2.494,4.829,4.829,0,0,0-1.134-1.954,2.526,2.526,0,0,0-1.875-.763,1.323,1.323,0,0,0-.843.292,1.935,1.935,0,0,0-.572,1.055,8.984,8.984,0,0,0-.2,2.179q0,4.515.966,5.885A1.218,1.218,0,0,0,360.732,349.015Z" fill="#ffb71c"/>
    <path id="패스_1510" data-name="패스 1510" d="M389.684,367.32a12.52,12.52,0,0,1-4.683-.91,12.2,12.2,0,0,1-4.11-2.728,13.192,13.192,0,0,1-2.92-4.56,17.248,17.248,0,0,1-1.09-6.4,24.966,24.966,0,0,1,1.078-7.727,16.5,16.5,0,0,1,2.887-5.48,12.142,12.142,0,0,1,4.076-3.269,10.636,10.636,0,0,1,9.423.023,12.5,12.5,0,0,1,4.133,3.291,16.327,16.327,0,0,1,2.908,5.435,24.093,24.093,0,0,1,1.078,7.569,17.889,17.889,0,0,1-1.1,6.582,13.177,13.177,0,0,1-2.943,4.6,11.912,11.912,0,0,1-4.121,2.7A12.779,12.779,0,0,1,389.684,367.32Zm.112-16.082a2.054,2.054,0,0,0,1.393-.584,4.3,4.3,0,0,0,1.078-1.729,8.174,8.174,0,0,0,.427-2.83,16.132,16.132,0,0,0-.438-4.088,6.578,6.578,0,0,0-1.123-2.471,1.9,1.9,0,0,0-1.426-.831,1.784,1.784,0,0,0-1.337.764,5.844,5.844,0,0,0-1.033,2.3,16,16,0,0,0-.393,3.875,8.38,8.38,0,0,0,.831,4.2A2.379,2.379,0,0,0,389.8,351.238Z" fill="#ffb71c"/>
    <path id="패스_1511" data-name="패스 1511" d="M424.7,367.32a6.631,6.631,0,0,1-3.819-1.235,9.242,9.242,0,0,1-1.179-.943q-.326-.338-.528-.337a1.04,1.04,0,0,0-.572.347q-.372.35-1.2.978a5.981,5.981,0,0,1-3.594,1.19,14.033,14.033,0,0,1-5.447-.91,6.87,6.87,0,0,1-3.189-2.5,6.532,6.532,0,0,1-1.045-3.661,14.713,14.713,0,0,1,.6-4.133q.594-2.043,1.359-4.043.719-1.885,1.269-3.751a12.991,12.991,0,0,0,.55-3.683,9.359,9.359,0,0,0-.3-2.359,8.609,8.609,0,0,0-1.011-2.325,3.992,3.992,0,0,1-.708-1.987,2.01,2.01,0,0,1,.73-1.607,4.646,4.646,0,0,1,1.887-.909,10.131,10.131,0,0,1,4.874.011,5.044,5.044,0,0,1,1.932.91,1.882,1.882,0,0,1,.752,1.527,3.232,3.232,0,0,1-.674,1.752,5.89,5.89,0,0,0-.8,1.943,10.9,10.9,0,0,0-.281,2.527,12.322,12.322,0,0,0,.607,4.043,7.327,7.327,0,0,0,1.55,2.729,2.752,2.752,0,0,0,1.976.977,2.188,2.188,0,0,0,1.483-.629,4.481,4.481,0,0,0,1.134-1.921,10.4,10.4,0,0,0,.438-3.29,20.668,20.668,0,0,0-.281-3.638,6.369,6.369,0,0,0-1.179-2.741,3.236,3.236,0,0,1-.764-1.841,1.821,1.821,0,0,1,.741-1.472,4.912,4.912,0,0,1,1.9-.887,10.041,10.041,0,0,1,4.852.011,4.764,4.764,0,0,1,1.931.943,2.094,2.094,0,0,1,.753,1.674,4.106,4.106,0,0,1-.606,1.909,8.459,8.459,0,0,0-1.1,4.178,10.93,10.93,0,0,0,.45,2.863q.447,1.629,1.111,3.381t1.359,3.459q.808,1.955,1.393,3.549a7.831,7.831,0,0,1,.584,2.448,8.3,8.3,0,0,1-.865,3.841,6.243,6.243,0,0,1-2.617,2.65A9.138,9.138,0,0,1,424.7,367.32Z" fill="#ffb71c"/>
    <path id="패스_1512" data-name="패스 1512" d="M446.511,367.657a18.87,18.87,0,0,1-5.863-.9,10.3,10.3,0,0,1-4.469-2.74,7.029,7.029,0,0,1-1.8-4.987,10.481,10.481,0,0,1,.584-3.369q.582-1.729,1.347-3.526.831-1.887,1.483-3.841a12.332,12.332,0,0,0,.651-3.908,8.329,8.329,0,0,0-.988-4,3.644,3.644,0,0,1-.449-1.6,2.442,2.442,0,0,1,1.168-2.089,8.337,8.337,0,0,1,3.054-1.2,19.7,19.7,0,0,1,4.021-.393,23.589,23.589,0,0,1,4.975.505,11.309,11.309,0,0,1,3.807,1.46,2.878,2.878,0,0,1,1.505,2.325q0,1.887-3.032,3.527-.54.291-.821.471c-.187.121-.28.233-.28.337q0,.338,1.348.809a14,14,0,0,1,6.581,4.784,13.2,13.2,0,0,1,2.493,7.906,7.625,7.625,0,0,1-1.348,4.458,11.3,11.3,0,0,1-3.571,3.269,18.314,18.314,0,0,1-4.941,2.01A22.249,22.249,0,0,1,446.511,367.657Zm-.7-24.505a2.148,2.148,0,0,0,.9-.247,10.643,10.643,0,0,0,2.6-1.741,2.181,2.181,0,0,0,.786-1.336q0-.876-1.549-.943a5.653,5.653,0,0,0-1.6.269,2.914,2.914,0,0,0-1.584,1.191,2.982,2.982,0,0,0-.527,1.594,1.508,1.508,0,0,0,.235.865A.819.819,0,0,0,445.814,343.152Zm4.38,7.592a3.656,3.656,0,0,0,1.673-.281.818.818,0,0,0,.506-.707,1.978,1.978,0,0,0-.9-1.37,8.557,8.557,0,0,0-2.224-1.281,6.891,6.891,0,0,0-2.605-.539,1.851,1.851,0,0,0-1.3.382,1.222,1.222,0,0,0-.4.921,2.365,2.365,0,0,0,.7,1.55Q446.8,350.745,450.194,350.744Z" fill="#ffb71c"/>
    <path id="패스_1513" data-name="패스 1513" d="M475.822,367.32a20.978,20.978,0,0,1-6.289-.887,11.088,11.088,0,0,1-4.5-2.516,5.172,5.172,0,0,1-1.673-3.829,5.476,5.476,0,0,1,.158-1.3,48.325,48.325,0,0,1,1.639-5.346q.786-2.2,1.4-4.369a15.389,15.389,0,0,0,.618-4.233,9.977,9.977,0,0,0-.315-2.483,8.332,8.332,0,0,0-1.055-2.391,3.978,3.978,0,0,1-.742-2.044,1.961,1.961,0,0,1,.719-1.572,4.61,4.61,0,0,1,1.864-.9,9.634,9.634,0,0,1,2.381-.292,10.108,10.108,0,0,1,2.482.3,5.065,5.065,0,0,1,1.966.921,1.929,1.929,0,0,1,.763,1.561,3.261,3.261,0,0,1-.674,1.741,7.345,7.345,0,0,0-1.01,2.358,11.656,11.656,0,0,0-.337,2.819,12.62,12.62,0,0,0,.471,3.459,7.342,7.342,0,0,0,1.348,2.718,2.617,2.617,0,0,0,2.067,1.056q1.66,0,3.481-2.246a3.715,3.715,0,0,1,2.718-1.573,2.926,2.926,0,0,1,1.965.831,5.972,5.972,0,0,1,1.527,2.516,12.922,12.922,0,0,1,.6,4.245q0,6.245-3.639,9.074A12.472,12.472,0,0,1,475.822,367.32Z" fill="#ffb71c"/>
    <path id="패스_1514" data-name="패스 1514" d="M501.158,367.23a19.578,19.578,0,0,1-4.459-.505,15.27,15.27,0,0,1-3.874-1.438,8.361,8.361,0,0,1-2.718-2.268,4.82,4.82,0,0,1-1.01-2.976,14.129,14.129,0,0,1,.482-3.639q.483-1.819,1.1-3.638t1.09-3.606a13.818,13.818,0,0,0,.471-3.537,8.648,8.648,0,0,0-1.258-4.582,5.429,5.429,0,0,1-.921-2.628q0-2.067,2.786-2.808a26.481,26.481,0,0,1,6.176-.539q2.045,0,4.111.045,1.953.068,3.638.068a1.75,1.75,0,0,1,1.224.437,2.658,2.658,0,0,1,.719,1.1,4.032,4.032,0,0,1,.236,1.359,3.149,3.149,0,0,1-.4,1.628,1.34,1.34,0,0,1-1.236.686,9.58,9.58,0,0,1-1.549-.225,24.665,24.665,0,0,0-4.2-.494,4.252,4.252,0,0,0-1.841.337,2.376,2.376,0,0,0-1.011.831,1.791,1.791,0,0,0-.314.966,1.486,1.486,0,0,0,.471,1.078,1.7,1.7,0,0,0,1.258.471,6.472,6.472,0,0,0,1.605-.191q.753-.19,1.382-.415a4.206,4.206,0,0,1,1.438-.337,1.372,1.372,0,0,1,1.235.809,3.468,3.468,0,0,1,.449,1.707,2.389,2.389,0,0,1-.326,1.258,1.087,1.087,0,0,1-1,.539,6.119,6.119,0,0,1-.977-.1q-.6-.1-1.415-.19a18.122,18.122,0,0,0-1.943-.09,1.57,1.57,0,0,0-1.3.561,1.879,1.879,0,0,0-.449,1.191,2.082,2.082,0,0,0,.337,1.089,2.615,2.615,0,0,0,1.033.921,3.7,3.7,0,0,0,1.752.371h1.191a11.451,11.451,0,0,0,4.267-.629,7.8,7.8,0,0,1,3.257-.854,2.947,2.947,0,0,1,1.853.617,4.019,4.019,0,0,1,1.235,2.1,14.818,14.818,0,0,1,.439,4.043,11.347,11.347,0,0,1-1.124,5.256,10.038,10.038,0,0,1-2.987,3.549,12.871,12.871,0,0,1-4.189,2.021A17.416,17.416,0,0,1,501.158,367.23Z" fill="#ffb71c"/>
    <path id="패스_1515" data-name="패스 1515" d="M538.4,367.388a10.478,10.478,0,0,1-5.143-1.191,10.318,10.318,0,0,1-3.561-3.234,14.6,14.6,0,0,1-2.077-4.639,21.4,21.4,0,0,1-.674-5.4,24.838,24.838,0,0,1,.842-6.4,21.116,21.116,0,0,1,2.438-5.739,13.606,13.606,0,0,1,3.874-4.133,8.951,8.951,0,0,1,5.177-1.56,9.45,9.45,0,0,1,5.795,1.852,6.013,6.013,0,0,1,2.606,4.774,3.2,3.2,0,0,1-.686,2.066,4.523,4.523,0,0,1-1.718,1.314,4.992,4.992,0,0,1-2.043.461,3.361,3.361,0,0,1-1.64-.4,2.261,2.261,0,0,1-1.056-1.257l-.135-.652a15.122,15.122,0,0,0-.3-1.516,5.364,5.364,0,0,0-.629-1.538,1.292,1.292,0,0,0-1.156-.674q-.968,0-1.562,1.482a8.995,8.995,0,0,0-.6,3.369,10.007,10.007,0,0,0,.405,2.853,5.148,5.148,0,0,0,1.268,2.234,3.206,3.206,0,0,0,2.258.91,5.766,5.766,0,0,0,3.369-.966,4.161,4.161,0,0,1,2.269-.831,3.119,3.119,0,0,1,2.414,1.168,8.087,8.087,0,0,1,1.584,3.043,14.746,14.746,0,0,1,.584,4.078,9.659,9.659,0,0,1-1.023,4.525,10,10,0,0,1-2.728,3.3,12.268,12.268,0,0,1-3.83,2.021A13.99,13.99,0,0,1,538.4,367.388Z" fill="#ffb71c"/>
    <path id="패스_1516" data-name="패스 1516" d="M574.516,367.32a6.4,6.4,0,0,1-3.246-.887,7.047,7.047,0,0,1-2.5-2.449,6.654,6.654,0,0,1-.966-3.582,9.128,9.128,0,0,1,1.235-4.424q.473-.831.944-1.887a12.793,12.793,0,0,0,1.078-5.121,2.124,2.124,0,0,0-.6-1.55,3.707,3.707,0,0,0-1.516-.91,6.212,6.212,0,0,0-1.954-.3,7.113,7.113,0,0,0-2.021.292,4.167,4.167,0,0,0-1.629.864,1.814,1.814,0,0,0-.64,1.4,11,11,0,0,0,.37,2.863,16.228,16.228,0,0,0,.9,2.538,20.484,20.484,0,0,0,1.022,1.988,9.857,9.857,0,0,1,1.483,4.807,6.131,6.131,0,0,1-.888,3.312,6.41,6.41,0,0,1-2.314,2.236,6.156,6.156,0,0,1-3.087.808,9.688,9.688,0,0,1-4.594-.977,6.658,6.658,0,0,1-2.729-2.538,6.536,6.536,0,0,1-.9-3.313q0-2,1.954-7.03.852-2.291,1.527-4.515a14.879,14.879,0,0,0,.674-4.335,8.542,8.542,0,0,0-1.28-4.627,4.122,4.122,0,0,1-.719-2.021,2.007,2.007,0,0,1,.73-1.607,4.635,4.635,0,0,1,1.886-.909,10.131,10.131,0,0,1,4.874.011,5.045,5.045,0,0,1,1.932.91,1.881,1.881,0,0,1,.753,1.527,3.24,3.24,0,0,1-.674,1.752A2.5,2.5,0,0,0,563.1,341a1.465,1.465,0,0,0,.562,1.168,3.686,3.686,0,0,0,1.437.707,6.981,6.981,0,0,0,1.82.236,5.919,5.919,0,0,0,2.448-.494,1.577,1.577,0,0,0,1.1-1.46,2.673,2.673,0,0,0-.629-1.505,3.229,3.229,0,0,1-.764-1.841,1.821,1.821,0,0,1,.741-1.472,4.905,4.905,0,0,1,1.9-.887,9.764,9.764,0,0,1,2.392-.292,9.978,9.978,0,0,1,2.471.3,4.855,4.855,0,0,1,1.942.933,2.058,2.058,0,0,1,.753,1.662,4.028,4.028,0,0,1-.629,1.931,8.652,8.652,0,0,0-1.078,4.156,14.182,14.182,0,0,0,.8,4.57q.8,2.348,1.809,4.751,2.266,5.3,2.268,7.345a6.257,6.257,0,0,1-.853,3.167,6.332,6.332,0,0,1-2.617,2.414A9.479,9.479,0,0,1,574.516,367.32Z" fill="#ffb71c"/>
    <path id="패스_1517" data-name="패스 1517" d="M596.3,367.23a19.565,19.565,0,0,1-4.459-.505,15.243,15.243,0,0,1-3.874-1.438,8.351,8.351,0,0,1-2.718-2.268,4.815,4.815,0,0,1-1.011-2.976,14.088,14.088,0,0,1,.483-3.639q.483-1.819,1.1-3.638t1.09-3.606a13.777,13.777,0,0,0,.472-3.537,8.648,8.648,0,0,0-1.258-4.582,5.429,5.429,0,0,1-.921-2.628q0-2.067,2.785-2.808a26.491,26.491,0,0,1,6.177-.539q2.043,0,4.11.045,1.954.068,3.639.068a1.748,1.748,0,0,1,1.223.437,2.646,2.646,0,0,1,.718,1.1,3.984,3.984,0,0,1,.237,1.359,3.139,3.139,0,0,1-.405,1.628,1.337,1.337,0,0,1-1.234.686,9.626,9.626,0,0,1-1.551-.225,24.624,24.624,0,0,0-4.2-.494,4.254,4.254,0,0,0-1.842.337,2.376,2.376,0,0,0-1.011.831,1.8,1.8,0,0,0-.314.966,1.483,1.483,0,0,0,.472,1.078,1.7,1.7,0,0,0,1.258.471,6.477,6.477,0,0,0,1.6-.191q.753-.19,1.381-.415a4.211,4.211,0,0,1,1.437-.337,1.373,1.373,0,0,1,1.237.809,3.468,3.468,0,0,1,.449,1.707,2.388,2.388,0,0,1-.326,1.258,1.089,1.089,0,0,1-1,.539,6.142,6.142,0,0,1-.977-.1c-.4-.067-.869-.131-1.416-.19a18.056,18.056,0,0,0-1.941-.09,1.569,1.569,0,0,0-1.3.561,1.874,1.874,0,0,0-.449,1.191,2.073,2.073,0,0,0,.337,1.089,2.6,2.6,0,0,0,1.033.921,3.7,3.7,0,0,0,1.751.371h1.191a11.457,11.457,0,0,0,4.268-.629,7.8,7.8,0,0,1,3.256-.854,2.941,2.941,0,0,1,1.853.617,4.012,4.012,0,0,1,1.235,2.1,14.777,14.777,0,0,1,.439,4.043,11.358,11.358,0,0,1-1.123,5.256,10.029,10.029,0,0,1-2.988,3.549,12.857,12.857,0,0,1-4.19,2.021A17.4,17.4,0,0,1,596.3,367.23Z" fill="#ffb71c"/>
    <path id="패스_1518" data-name="패스 1518" d="M623.009,367.23a19.55,19.55,0,0,1-4.458-.505,15.248,15.248,0,0,1-3.875-1.438,8.361,8.361,0,0,1-2.718-2.268,4.815,4.815,0,0,1-1.011-2.976,14.13,14.13,0,0,1,.483-3.639q.483-1.819,1.1-3.638t1.089-3.606a13.777,13.777,0,0,0,.472-3.537,8.639,8.639,0,0,0-1.258-4.582,5.429,5.429,0,0,1-.921-2.628q0-2.067,2.785-2.808a26.491,26.491,0,0,1,6.177-.539q2.043,0,4.11.045,1.955.068,3.639.068a1.752,1.752,0,0,1,1.224.437,2.647,2.647,0,0,1,.718,1.1,3.984,3.984,0,0,1,.237,1.359,3.139,3.139,0,0,1-.4,1.628,1.337,1.337,0,0,1-1.235.686,9.619,9.619,0,0,1-1.55-.225,24.633,24.633,0,0,0-4.2-.494,4.254,4.254,0,0,0-1.842.337,2.385,2.385,0,0,0-1.01.831,1.793,1.793,0,0,0-.315.966,1.483,1.483,0,0,0,.472,1.078,1.7,1.7,0,0,0,1.258.471,6.479,6.479,0,0,0,1.606-.191q.752-.19,1.381-.415a4.206,4.206,0,0,1,1.437-.337,1.371,1.371,0,0,1,1.236.809,3.458,3.458,0,0,1,.449,1.707,2.388,2.388,0,0,1-.325,1.258,1.09,1.09,0,0,1-1,.539,6.13,6.13,0,0,1-.977-.1q-.6-.1-1.416-.19a18.076,18.076,0,0,0-1.942-.09,1.57,1.57,0,0,0-1.3.561,1.874,1.874,0,0,0-.449,1.191,2.073,2.073,0,0,0,.337,1.089,2.608,2.608,0,0,0,1.033.921,3.7,3.7,0,0,0,1.752.371h1.19a11.453,11.453,0,0,0,4.268-.629,7.8,7.8,0,0,1,3.257-.854,2.944,2.944,0,0,1,1.853.617,4.006,4.006,0,0,1,1.235,2.1,14.785,14.785,0,0,1,.438,4.043,11.347,11.347,0,0,1-1.123,5.256,10.027,10.027,0,0,1-2.987,3.549,12.867,12.867,0,0,1-4.19,2.021A17.4,17.4,0,0,1,623.009,367.23Z" fill="#ffb71c"/>
    <path id="패스_1519" data-name="패스 1519" d="M650.32,367.657a17.783,17.783,0,0,1-4.694-.618,12.386,12.386,0,0,1-4.054-1.909,9.468,9.468,0,0,1-2.842-3.279,10,10,0,0,1-1.055-4.75,10.39,10.39,0,0,1,.55-3.414,6.89,6.89,0,0,1,1.505-2.583,2.915,2.915,0,0,1,2.145-.989,3.54,3.54,0,0,1,2.066.786,8.2,8.2,0,0,0,4.74,1.775,3.311,3.311,0,0,0,1.741-.4,1.148,1.148,0,0,0,.662-.965q0-.652-1.09-1.382a10.417,10.417,0,0,0-3.6-1.224,15.9,15.9,0,0,1-3.4-1,8.794,8.794,0,0,1-3.065-2.066,4.964,4.964,0,0,1-1.348-3.4,4.87,4.87,0,0,1,1.044-3.1,8.127,8.127,0,0,1,2.785-2.2,15.489,15.489,0,0,1,3.909-1.315,22.234,22.234,0,0,1,4.414-.437,20.585,20.585,0,0,1,5.558.718,9.946,9.946,0,0,1,4.133,2.157,4.826,4.826,0,0,1,1.606,3.593,3.011,3.011,0,0,1-.561,1.853,3.632,3.632,0,0,1-1.415,1.146,4.147,4.147,0,0,1-1.752.393,3.272,3.272,0,0,1-1.673-.449,2.427,2.427,0,0,1-1.09-1.348,4.509,4.509,0,0,0-1.7-2.4,4.142,4.142,0,0,0-2.258-.7,4.469,4.469,0,0,0-2.459.7,1.915,1.915,0,0,0-1.09,1.527,1.478,1.478,0,0,0,.8,1.168,6.738,6.738,0,0,0,2.685.809,19.563,19.563,0,0,1,7.446,2.369,11.219,11.219,0,0,1,4.244,4.279,11.392,11.392,0,0,1,1.36,5.458,9.346,9.346,0,0,1-1.247,4.863,11,11,0,0,1-3.3,3.5,15.6,15.6,0,0,1-4.582,2.123A18.6,18.6,0,0,1,650.32,367.657Z" fill="#ffb71c"/>
    <path id="패스_1520" data-name="패스 1520" d="M678.464,367.23a19.557,19.557,0,0,1-4.458-.505,15.278,15.278,0,0,1-3.875-1.438,8.36,8.36,0,0,1-2.718-2.268,4.815,4.815,0,0,1-1.011-2.976,14.13,14.13,0,0,1,.483-3.639q.483-1.819,1.1-3.638t1.089-3.606a13.777,13.777,0,0,0,.472-3.537,8.639,8.639,0,0,0-1.258-4.582,5.429,5.429,0,0,1-.921-2.628q0-2.067,2.785-2.808a26.491,26.491,0,0,1,6.177-.539q2.043,0,4.11.045,1.954.068,3.639.068a1.752,1.752,0,0,1,1.224.437,2.646,2.646,0,0,1,.718,1.1,3.984,3.984,0,0,1,.237,1.359,3.149,3.149,0,0,1-.4,1.628,1.34,1.34,0,0,1-1.236.686,9.618,9.618,0,0,1-1.55-.225,24.633,24.633,0,0,0-4.2-.494,4.254,4.254,0,0,0-1.842.337,2.385,2.385,0,0,0-1.01.831,1.793,1.793,0,0,0-.315.966,1.483,1.483,0,0,0,.472,1.078,1.7,1.7,0,0,0,1.258.471,6.48,6.48,0,0,0,1.606-.191q.752-.19,1.381-.415a4.206,4.206,0,0,1,1.437-.337,1.371,1.371,0,0,1,1.236.809,3.458,3.458,0,0,1,.449,1.707,2.388,2.388,0,0,1-.325,1.258,1.09,1.09,0,0,1-1,.539,6.131,6.131,0,0,1-.977-.1q-.6-.1-1.416-.19a18.076,18.076,0,0,0-1.942-.09,1.572,1.572,0,0,0-1.3.561,1.874,1.874,0,0,0-.449,1.191,2.073,2.073,0,0,0,.337,1.089,2.608,2.608,0,0,0,1.033.921,3.7,3.7,0,0,0,1.752.371h1.19a11.454,11.454,0,0,0,4.268-.629,7.8,7.8,0,0,1,3.257-.854,2.944,2.944,0,0,1,1.853.617,4.006,4.006,0,0,1,1.235,2.1,14.782,14.782,0,0,1,.438,4.043,11.346,11.346,0,0,1-1.123,5.256,10.026,10.026,0,0,1-2.987,3.549,12.866,12.866,0,0,1-4.19,2.021A17.4,17.4,0,0,1,678.464,367.23Z" fill="#ffb71c"/>
  </g>
</svg>
