<svg xmlns="http://www.w3.org/2000/svg" width="221.288" height="35.254" viewBox="0 0 221.288 35.254">
  <g id="그룹_832" data-name="그룹 832" transform="translate(-403.825 -501.753)">
    <path id="패스_1545" data-name="패스 1545" d="M416.935,536.714a21.277,21.277,0,0,1-4.846-.549,16.631,16.631,0,0,1-4.212-1.562,9.111,9.111,0,0,1-2.954-2.466,5.239,5.239,0,0,1-1.1-3.236,15.362,15.362,0,0,1,.525-3.955q.523-1.977,1.2-3.955t1.184-3.918a15,15,0,0,0,.513-3.845,9.392,9.392,0,0,0-1.368-4.981,5.9,5.9,0,0,1-1-2.856q0-2.245,3.027-3.052a28.749,28.749,0,0,1,6.714-.586q2.221,0,4.467.049,2.125.074,3.955.073a1.9,1.9,0,0,1,1.331.477,2.883,2.883,0,0,1,.781,1.2,4.37,4.37,0,0,1,.256,1.476,3.422,3.422,0,0,1-.439,1.771,1.455,1.455,0,0,1-1.343.744,10.269,10.269,0,0,1-1.684-.244,26.854,26.854,0,0,0-4.565-.537,4.629,4.629,0,0,0-2,.366,2.592,2.592,0,0,0-1.1.9,1.955,1.955,0,0,0-.342,1.05,1.612,1.612,0,0,0,.513,1.172,1.846,1.846,0,0,0,1.367.513,7.1,7.1,0,0,0,1.746-.207q.817-.209,1.5-.452a4.563,4.563,0,0,1,1.563-.367,1.488,1.488,0,0,1,1.342.879,3.772,3.772,0,0,1,.488,1.856,2.6,2.6,0,0,1-.353,1.367,1.184,1.184,0,0,1-1.087.586,6.51,6.51,0,0,1-1.062-.11q-.646-.109-1.538-.208a20.014,20.014,0,0,0-2.112-.1,1.709,1.709,0,0,0-1.416.61,2.043,2.043,0,0,0-.488,1.294,2.26,2.26,0,0,0,.366,1.185,2.837,2.837,0,0,0,1.123,1,4.033,4.033,0,0,0,1.9.4h1.293a12.44,12.44,0,0,0,4.639-.684,8.491,8.491,0,0,1,3.54-.927,3.2,3.2,0,0,1,2.014.672,4.351,4.351,0,0,1,1.343,2.282,16.086,16.086,0,0,1,.476,4.394,12.344,12.344,0,0,1-1.221,5.713,10.889,10.889,0,0,1-3.247,3.858,13.98,13.98,0,0,1-4.553,2.2A18.919,18.919,0,0,1,416.935,536.714Z" fill="#ffb71c"/>
    <path id="패스_1546" data-name="패스 1546" d="M445.3,536.836a9.854,9.854,0,0,1-6.275-2.111,13.792,13.792,0,0,1-4.186-5.824,22.646,22.646,0,0,1-1.5-8.545,23.368,23.368,0,0,1,.989-6.725,21.332,21.332,0,0,1,2.819-5.982,14.715,14.715,0,0,1,4.419-4.272,10.791,10.791,0,0,1,5.786-1.6,10.956,10.956,0,0,1,6.678,2.039,6.594,6.594,0,0,1,2.893,5.261,3.262,3.262,0,0,1-.781,2.186,5.1,5.1,0,0,1-1.954,1.4,5.985,5.985,0,0,1-2.319.488,4.029,4.029,0,0,1-1.892-.439,2.427,2.427,0,0,1-1.184-1.367q-.048-.2-.122-.66-.121-.732-.366-1.671a5.83,5.83,0,0,0-.72-1.685,1.5,1.5,0,0,0-1.331-.745,1.626,1.626,0,0,0-1.355.9,7.173,7.173,0,0,0-.879,2.368,15.274,15.274,0,0,0-.3,3.125,19.155,19.155,0,0,0,.586,5.116,5.63,5.63,0,0,0,1.453,2.672,2.879,2.879,0,0,0,1.94.782,2.962,2.962,0,0,0,2.064-.818,2.387,2.387,0,0,0,.89-1.77q0-.416-.83-.415a5.049,5.049,0,0,0-.976.146,5.443,5.443,0,0,1-1.2.171,1.214,1.214,0,0,1-1.134-.708,3.249,3.249,0,0,1-.379-1.562,3.463,3.463,0,0,1,.4-1.672,1.421,1.421,0,0,1,1.233-.794,7.237,7.237,0,0,1,1.318.171,13.429,13.429,0,0,0,2.734.268,7.237,7.237,0,0,0,1.112-.085,6.619,6.619,0,0,1,.988-.086q3.271,0,4.858,4.151a24.957,24.957,0,0,1,1.319,8.74,24.479,24.479,0,0,1-1.27,8.789q-.171.318-.988.525a7.268,7.268,0,0,1-1.8.208,6.291,6.291,0,0,1-2.075-.33q-.953-.328-.952-1.111.024-.634.048-.928t.025-.927a3.706,3.706,0,0,0-.122-1.111q-.121-.354-.293-.354-.366,0-.952,1.318a5.368,5.368,0,0,1-2.539,2.6A8.559,8.559,0,0,1,445.3,536.836Z" fill="#ffb71c"/>
    <path id="패스_1547" data-name="패스 1547" d="M474.112,536.836a9.853,9.853,0,0,1-6.274-2.111,13.793,13.793,0,0,1-4.187-5.824,22.645,22.645,0,0,1-1.5-8.545,23.334,23.334,0,0,1,.99-6.725,21.3,21.3,0,0,1,2.819-5.982,14.7,14.7,0,0,1,4.419-4.272,10.789,10.789,0,0,1,5.786-1.6,10.958,10.958,0,0,1,6.678,2.039,6.6,6.6,0,0,1,2.892,5.261,3.257,3.257,0,0,1-.781,2.186,5.094,5.094,0,0,1-1.953,1.4,5.988,5.988,0,0,1-2.319.488,4.026,4.026,0,0,1-1.892-.439,2.427,2.427,0,0,1-1.184-1.367q-.049-.2-.123-.66-.121-.732-.366-1.671a5.827,5.827,0,0,0-.719-1.685,1.5,1.5,0,0,0-1.332-.745,1.626,1.626,0,0,0-1.354.9,7.128,7.128,0,0,0-.879,2.368,15.275,15.275,0,0,0-.306,3.125,19.2,19.2,0,0,0,.586,5.116,5.639,5.639,0,0,0,1.453,2.672,2.882,2.882,0,0,0,1.941.782,2.96,2.96,0,0,0,2.063-.818,2.389,2.389,0,0,0,.891-1.77q0-.416-.83-.415a5.067,5.067,0,0,0-.977.146,5.428,5.428,0,0,1-1.2.171,1.214,1.214,0,0,1-1.135-.708,3.248,3.248,0,0,1-.379-1.562,3.452,3.452,0,0,1,.4-1.672,1.418,1.418,0,0,1,1.232-.794,7.226,7.226,0,0,1,1.318.171,13.446,13.446,0,0,0,2.735.268,7.214,7.214,0,0,0,1.111-.085,6.619,6.619,0,0,1,.988-.086q3.271,0,4.859,4.151a24.959,24.959,0,0,1,1.318,8.74,24.5,24.5,0,0,1-1.269,8.789q-.172.318-.989.525a7.256,7.256,0,0,1-1.795.208,6.3,6.3,0,0,1-2.075-.33q-.951-.328-.952-1.111c.017-.423.032-.732.049-.928s.024-.5.024-.927a3.707,3.707,0,0,0-.122-1.111c-.081-.236-.178-.354-.293-.354q-.366,0-.952,1.318a5.364,5.364,0,0,1-2.539,2.6A8.553,8.553,0,0,1,474.112,536.836Z" fill="#ffb71c"/>
    <path id="패스_1548" data-name="패스 1548" d="M528.971,536.812a6.714,6.714,0,0,1-3.345-.879A6.942,6.942,0,0,1,523.1,533.5a6.667,6.667,0,0,1-.965-3.6,10.709,10.709,0,0,1,1.611-5.224,21.047,21.047,0,0,0,1.99-5.09,23.83,23.83,0,0,0,.867-6.263q0-1.269-.513-1.391-.269,0-.744.659a7.013,7.013,0,0,0-.855,1.684,6.073,6.073,0,0,0-.379,2.124,5.259,5.259,0,0,0,.367,1.905,3.1,3.1,0,0,1,.268,1.2,2.059,2.059,0,0,1-.586,1.5,3.686,3.686,0,0,1-1.514.9,6.364,6.364,0,0,1-3.893,0,3.68,3.68,0,0,1-1.526-.9,2.059,2.059,0,0,1-.586-1.5,3.077,3.077,0,0,1,.268-1.2,5.082,5.082,0,0,0,.366-1.88,6.087,6.087,0,0,0-.39-2.16,7.05,7.05,0,0,0-.879-1.7q-.488-.658-.733-.659-.463,0-.463,1.66v.855a18.707,18.707,0,0,0,.891,5.725,21.341,21.341,0,0,0,1.941,4.529,10.709,10.709,0,0,1,1.611,5.224,6.675,6.675,0,0,1-.964,3.6,6.989,6.989,0,0,1-2.515,2.429,6.7,6.7,0,0,1-3.357.879,10.52,10.52,0,0,1-4.992-1.062,7.239,7.239,0,0,1-2.967-2.759,7.109,7.109,0,0,1-.977-3.6,8.058,8.058,0,0,1,.22-1.856,58.381,58.381,0,0,1,1.9-5.859q.953-2.466,1.673-4.87a16.27,16.27,0,0,0,.72-4.676,10.1,10.1,0,0,0-.329-2.575,9.671,9.671,0,0,0-1.074-2.5,4.372,4.372,0,0,1-.745-2.149,2.176,2.176,0,0,1,.794-1.745,5.032,5.032,0,0,1,2.038-.989,10.565,10.565,0,0,1,2.612-.317,9.516,9.516,0,0,1,2.893.488,5.386,5.386,0,0,1,2.576,1.782l.488.635q1.219,1.636,1.977,2.466a2.063,2.063,0,0,0,1.417.83,2.374,2.374,0,0,0,1.586-.964q.879-.965,2.393-2.967a5.372,5.372,0,0,1,2.588-1.782,9.558,9.558,0,0,1,2.881-.488,10.565,10.565,0,0,1,2.612.317,5.043,5.043,0,0,1,2.039.989,2.181,2.181,0,0,1,.793,1.745,4.38,4.38,0,0,1-.744,2.149,9.57,9.57,0,0,0-1.074,2.514,10.163,10.163,0,0,0-.33,2.564,16.271,16.271,0,0,0,.72,4.676q.72,2.4,1.672,4.87a58.382,58.382,0,0,1,1.905,5.859,7.752,7.752,0,0,1,.219,1.831,7.131,7.131,0,0,1-3.93,6.385A10.511,10.511,0,0,1,528.971,536.812Z" fill="#ffb71c"/>
    <path id="패스_1549" data-name="패스 1549" d="M565.323,536.812a10.139,10.139,0,0,1-2.978-.464,9.283,9.283,0,0,1-2.783-1.392,7.189,7.189,0,0,1-2.051-2.319,6.522,6.522,0,0,1-.782-3.247,11.915,11.915,0,0,1,1.465-5.2,9.792,9.792,0,0,0,1.2-4.126,4.052,4.052,0,0,0-.476-2.062,3.2,3.2,0,0,0-1.233-1.233,3.254,3.254,0,0,0-1.587-.415,3.036,3.036,0,0,0-2.649,1.55,3.735,3.735,0,0,0-.452,1.916,9.374,9.374,0,0,0,1.343,4.37,11.952,11.952,0,0,1,1.587,5.347,6.233,6.233,0,0,1-.806,3.223,7.168,7.168,0,0,1-2.1,2.27,9.435,9.435,0,0,1-2.832,1.343,10.833,10.833,0,0,1-2.979.44,8.7,8.7,0,0,1-5.407-1.672,5.13,5.13,0,0,1-2.21-4.261,9.3,9.3,0,0,1,.525-2.99,24.761,24.761,0,0,1,1.355-3.2q.829-1.647,1.758-3.333,1.024-1.806,1.928-3.625a27.6,27.6,0,0,0,1.5-3.626,11.209,11.209,0,0,0,.6-3.54,7.951,7.951,0,0,0-.318-2.221,4.682,4.682,0,0,1-.2-1.27,3.667,3.667,0,0,1,1.367-2.917,8.9,8.9,0,0,1,3.516-1.733,17.962,17.962,0,0,1,9.009,0,8.906,8.906,0,0,1,3.515,1.733,3.668,3.668,0,0,1,1.368,2.917,4.648,4.648,0,0,1-.2,1.27,7.707,7.707,0,0,0-.317,2.2,10.823,10.823,0,0,0,.623,3.54,27.158,27.158,0,0,0,1.562,3.626q.939,1.82,1.965,3.625.978,1.71,1.831,3.345a24.554,24.554,0,0,1,1.405,3.2,9.049,9.049,0,0,1,.548,3,5.131,5.131,0,0,1-2.209,4.261A8.7,8.7,0,0,1,565.323,536.812ZM556.314,513.5a2.438,2.438,0,0,0,1.307-.353,1.236,1.236,0,0,0,.573-1.136,2.759,2.759,0,0,0-.219-.977q-.879-1.928-1.831-1.928-1.051,0-1.954,2.294a1.719,1.719,0,0,0-.1.538,1.275,1.275,0,0,0,.708,1.147A2.936,2.936,0,0,0,556.314,513.5Z" fill="#ffb71c"/>
    <path id="패스_1550" data-name="패스 1550" d="M583.854,537.007a11.317,11.317,0,0,1-4.151-.781,7.98,7.98,0,0,1-3.283-2.307,5.7,5.7,0,0,1-1.282-3.8,13.888,13.888,0,0,1,.769-4.321,30.337,30.337,0,0,1,1.965-4.492,10.7,10.7,0,0,0,1.416-4.761q0-4.417-7.056-4.419a3.05,3.05,0,0,1-2.013-.72,4.744,4.744,0,0,1-1.343-1.855,6.106,6.106,0,0,1-.477-2.381,5.714,5.714,0,0,1,.6-2.539,4.788,4.788,0,0,1,1.892-2,6.5,6.5,0,0,1,3.393-.781,4.552,4.552,0,0,1,2.454.659,7.466,7.466,0,0,1,1.892,1.7,14.009,14.009,0,0,1,1.477,2.271q.646,1.233,1.208,2.428.586,1.27,1.123,2.246.415.758.733.757c.227,0,.484-.263.769-.793s.606-1.151.964-1.868q.612-1.2,1.331-2.477a16.3,16.3,0,0,1,1.636-2.393,8.363,8.363,0,0,1,2.063-1.819,4.827,4.827,0,0,1,2.588-.708,6.5,6.5,0,0,1,3.393.781,4.81,4.81,0,0,1,1.893,2,5.711,5.711,0,0,1,.6,2.539,6.1,6.1,0,0,1-.475,2.381,4.821,4.821,0,0,1-1.331,1.855,3.04,3.04,0,0,1-2.027.72,10.014,10.014,0,0,0-4.028.684,4.69,4.69,0,0,0-2.246,1.9,5.494,5.494,0,0,0-.708,2.807,6.777,6.777,0,0,0,.659,2.832q.659,1.441,1.514,2.93.9,1.588,1.635,3.223a8.043,8.043,0,0,1,.733,3.32,6.582,6.582,0,0,1-1.208,4.1,7.069,7.069,0,0,1-3.113,2.332A10.778,10.778,0,0,1,583.854,537.007Z" fill="#ffb71c"/>
    <path id="패스_1551" data-name="패스 1551" d="M611.222,536.812a13.616,13.616,0,0,1-5.09-.989,13.257,13.257,0,0,1-4.468-2.967,14.321,14.321,0,0,1-3.174-4.956,18.746,18.746,0,0,1-1.184-6.958,27.088,27.088,0,0,1,1.172-8.4,17.94,17.94,0,0,1,3.137-5.957,13.18,13.18,0,0,1,4.431-3.552,11.609,11.609,0,0,1,5.078-1.184,11.744,11.744,0,0,1,5.164,1.209,13.591,13.591,0,0,1,4.492,3.576,17.756,17.756,0,0,1,3.161,5.908,26.173,26.173,0,0,1,1.172,8.227,19.413,19.413,0,0,1-1.2,7.154,14.321,14.321,0,0,1-3.2,5.005,12.94,12.94,0,0,1-4.48,2.929A13.886,13.886,0,0,1,611.222,536.812Zm.122-17.481a2.228,2.228,0,0,0,1.513-.635,4.658,4.658,0,0,0,1.172-1.88,8.851,8.851,0,0,0,.464-3.076,17.557,17.557,0,0,0-.475-4.443,7.16,7.16,0,0,0-1.221-2.686,2.069,2.069,0,0,0-1.551-.9,1.938,1.938,0,0,0-1.452.83,6.354,6.354,0,0,0-1.123,2.5,17.368,17.368,0,0,0-.428,4.211,9.1,9.1,0,0,0,.9,4.565A2.587,2.587,0,0,0,611.344,519.331Z" fill="#ffb71c"/>
  </g>
</svg>
