<svg xmlns="http://www.w3.org/2000/svg" width="248.706" height="35.45" viewBox="0 0 248.706 35.45">
  <g id="그룹_827" data-name="그룹 827" transform="translate(-63.977 -335.57)">
    <path id="패스_1501" data-name="패스 1501" d="M73.547,370.653a10.859,10.859,0,0,1-5.42-1.208,7.707,7.707,0,0,1-3.137-3.162,9.029,9.029,0,0,1-1.013-4.223,13.04,13.04,0,0,1,.488-3.443q.489-1.781,1.148-3.638.683-1.951,1.22-3.942a15.171,15.171,0,0,0,.538-3.968A9.391,9.391,0,0,0,66,342.089a5.1,5.1,0,0,1-.854-2.49q0-2.367,3.906-3.3a35.075,35.075,0,0,1,7.91-.708q2.3,0,4.175.073,1.269.049,2.051.049a1.874,1.874,0,0,1,1.306.476,3,3,0,0,1,.794,1.208,4.329,4.329,0,0,1,.268,1.49,3.385,3.385,0,0,1-.439,1.733,1.41,1.41,0,0,1-1.294.757,2.047,2.047,0,0,1-.611-.1,12.256,12.256,0,0,0-2.771-.561q-1.428-.121-3.527-.122a2.97,2.97,0,0,0-1.6.39,2.618,2.618,0,0,0-.927.941,2.176,2.176,0,0,0-.306,1.061,1.524,1.524,0,0,0,.477,1.16,1.892,1.892,0,0,0,1.355.452,6.982,6.982,0,0,0,1.66-.2q.806-.195,1.513-.439a5.426,5.426,0,0,1,1.758-.391,1.412,1.412,0,0,1,1.27.892,3.942,3.942,0,0,1,.464,1.843,2.857,2.857,0,0,1-.318,1.342,1.054,1.054,0,0,1-1,.611,7.323,7.323,0,0,1-1.318-.147,9.919,9.919,0,0,0-2.442-.268,7.13,7.13,0,0,0-2.136.232.928.928,0,0,0-.671.964,4.8,4.8,0,0,0,.854,2.222,9.568,9.568,0,0,0,1.465,1.965q.879.916,1.88,1.819,1.221,1.1,2.368,2.356a11.225,11.225,0,0,1,1.892,2.857,8.865,8.865,0,0,1,.745,3.771,5.01,5.01,0,0,1-1.489,3.748,9.158,9.158,0,0,1-3.858,2.16A17.35,17.35,0,0,1,73.547,370.653Z" fill="#ffb71c"/>
    <path id="패스_1502" data-name="패스 1502" d="M95.178,370.653a10.583,10.583,0,0,1-5.066-1.086,7.452,7.452,0,0,1-3.015-2.82,7.213,7.213,0,0,1-1-3.662,7.61,7.61,0,0,1,.2-1.709,53.136,53.136,0,0,1,1.782-5.786q.854-2.393,1.526-4.761a16.891,16.891,0,0,0,.671-4.614,10.785,10.785,0,0,0-.342-2.7,9.064,9.064,0,0,0-1.147-2.6,4.323,4.323,0,0,1-.806-2.222,2.164,2.164,0,0,1,.781-1.72A4.8,4.8,0,0,1,90.771,336a10.815,10.815,0,0,1,2.6-.306,9.713,9.713,0,0,1,3.955.806,21.258,21.258,0,0,1,5.883-.928,13.143,13.143,0,0,1,5.982,1.258A9.956,9.956,0,0,1,113,339.989a6.792,6.792,0,0,1,1.319,3.907,5.393,5.393,0,0,1-.7,2.649,5.955,5.955,0,0,1-2.161,2.16,28.386,28.386,0,0,0-2.453,1.649q-.8.623-.794,1.037,0,.318.464.586a7.416,7.416,0,0,0,1.367.561,11.867,11.867,0,0,1,5.811,5.176,14.549,14.549,0,0,1,2.393,7.666,4.49,4.49,0,0,1-1,3.04,5.621,5.621,0,0,1-2.6,1.672,13.159,13.159,0,0,1-9.338-.781,3.918,3.918,0,0,1-2-3.418l.025-3.785a28.9,28.9,0,0,0-.318-4.419,6.676,6.676,0,0,0-1.623-3.356,3.213,3.213,0,0,0-2.063-1.233.855.855,0,0,0-.647.268,1.207,1.207,0,0,0-.257.855q0,1.391,1.758,4.3a10.282,10.282,0,0,1,1.709,5.371,6.568,6.568,0,0,1-.94,3.54,6.75,6.75,0,0,1-2.466,2.368A6.654,6.654,0,0,1,95.178,370.653Zm3.687-25.293a8.967,8.967,0,0,0,1.782-.219,8.079,8.079,0,0,0,3.308-1.392,2.314,2.314,0,0,0,1.013-1.66,1.6,1.6,0,0,0-.781-1.33,3.636,3.636,0,0,0-2.124-.55,7.293,7.293,0,0,0-1.27.122,6,6,0,0,0-2.929,1.514,3.071,3.071,0,0,0-1.123,2.1,1.248,1.248,0,0,0,.5,1.014A2.6,2.6,0,0,0,98.865,345.36Z" fill="#ffb71c"/>
    <path id="패스_1503" data-name="패스 1503" d="M130.945,370.849a11.3,11.3,0,0,1-4.151-.782,7.978,7.978,0,0,1-3.283-2.306,5.7,5.7,0,0,1-1.282-3.8,13.884,13.884,0,0,1,.769-4.321,30.286,30.286,0,0,1,1.965-4.493,10.691,10.691,0,0,0,1.416-4.76q0-4.419-7.055-4.419a3.056,3.056,0,0,1-2.014-.72,4.751,4.751,0,0,1-1.343-1.855,6.087,6.087,0,0,1-.476-2.381,5.7,5.7,0,0,1,.6-2.539,4.8,4.8,0,0,1,1.892-2,6.5,6.5,0,0,1,3.394-.782,4.551,4.551,0,0,1,2.453.66,7.431,7.431,0,0,1,1.892,1.7,14.1,14.1,0,0,1,1.477,2.27q.646,1.234,1.209,2.429.585,1.271,1.123,2.246.414.758.732.757.342,0,.769-.793t.965-1.868q.609-1.2,1.33-2.478a16.338,16.338,0,0,1,1.636-2.392,8.367,8.367,0,0,1,2.063-1.82,4.836,4.836,0,0,1,2.588-.708,6.5,6.5,0,0,1,3.393.782,4.788,4.788,0,0,1,1.892,2,5.7,5.7,0,0,1,.6,2.539,6.1,6.1,0,0,1-.476,2.381,4.828,4.828,0,0,1-1.331,1.855,3.044,3.044,0,0,1-2.026.72,10.039,10.039,0,0,0-4.029.683,4.692,4.692,0,0,0-2.246,1.9,5.494,5.494,0,0,0-.708,2.807,6.776,6.776,0,0,0,.659,2.832q.66,1.441,1.514,2.93.9,1.589,1.636,3.223a8.054,8.054,0,0,1,.732,3.32,6.583,6.583,0,0,1-1.208,4.1A7.062,7.062,0,0,1,134.9,370.1,10.757,10.757,0,0,1,130.945,370.849Z" fill="#ffb71c"/>
    <path id="패스_1504" data-name="패스 1504" d="M170.911,371.02a20.479,20.479,0,0,1-6.372-.977,11.175,11.175,0,0,1-4.859-2.979,7.638,7.638,0,0,1-1.953-5.419,11.4,11.4,0,0,1,.635-3.663q.635-1.879,1.465-3.833.9-2.05,1.611-4.174a13.364,13.364,0,0,0,.708-4.248,9.05,9.05,0,0,0-1.074-4.346,3.963,3.963,0,0,1-.489-1.734,2.658,2.658,0,0,1,1.27-2.27,9.044,9.044,0,0,1,3.32-1.306,21.4,21.4,0,0,1,4.37-.427,25.659,25.659,0,0,1,5.408.549,12.308,12.308,0,0,1,4.138,1.587,3.127,3.127,0,0,1,1.636,2.527q0,2.051-3.3,3.833c-.39.212-.688.382-.891.512s-.3.253-.3.367q0,.366,1.465.878a15.228,15.228,0,0,1,7.153,5.2,14.341,14.341,0,0,1,2.71,8.593,8.292,8.292,0,0,1-1.465,4.847,12.281,12.281,0,0,1-3.882,3.552,19.912,19.912,0,0,1-5.371,2.185A24.2,24.2,0,0,1,170.911,371.02Zm-.757-26.636a2.319,2.319,0,0,0,.976-.269,11.542,11.542,0,0,0,2.832-1.891,2.377,2.377,0,0,0,.855-1.453q0-.953-1.685-1.026a6.129,6.129,0,0,0-1.733.293,3.165,3.165,0,0,0-1.721,1.294,3.247,3.247,0,0,0-.574,1.733,1.639,1.639,0,0,0,.256.941A.892.892,0,0,0,170.154,344.384Zm4.761,8.252a3.977,3.977,0,0,0,1.818-.3.888.888,0,0,0,.55-.769,2.149,2.149,0,0,0-.977-1.49,9.236,9.236,0,0,0-2.417-1.391,7.471,7.471,0,0,0-2.832-.586,2.015,2.015,0,0,0-1.416.415,1.327,1.327,0,0,0-.439,1,2.572,2.572,0,0,0,.756,1.684Q171.228,352.637,174.915,352.636Z" fill="#ffb71c"/>
    <path id="패스_1505" data-name="패스 1505" d="M214.783,370.653a10.106,10.106,0,0,1-2.979-.464,9.257,9.257,0,0,1-2.783-1.391,7.2,7.2,0,0,1-2.051-2.319,6.523,6.523,0,0,1-.781-3.248,11.9,11.9,0,0,1,1.465-5.2,9.811,9.811,0,0,0,1.2-4.126,4.052,4.052,0,0,0-.476-2.062,3.211,3.211,0,0,0-1.233-1.234,3.265,3.265,0,0,0-1.587-.415,3.043,3.043,0,0,0-2.649,1.551,3.732,3.732,0,0,0-.451,1.916,9.383,9.383,0,0,0,1.342,4.37,11.949,11.949,0,0,1,1.587,5.347,6.236,6.236,0,0,1-.8,3.223,7.172,7.172,0,0,1-2.1,2.27,9.434,9.434,0,0,1-2.832,1.343,10.824,10.824,0,0,1-2.979.439,8.69,8.69,0,0,1-5.407-1.672,5.129,5.129,0,0,1-2.21-4.26,9.313,9.313,0,0,1,.525-2.991,24.817,24.817,0,0,1,1.355-3.2q.83-1.647,1.758-3.333,1.026-1.806,1.929-3.625a27.853,27.853,0,0,0,1.5-3.626,11.213,11.213,0,0,0,.6-3.54,7.985,7.985,0,0,0-.317-2.221,4.65,4.65,0,0,1-.2-1.27A3.663,3.663,0,0,1,197.571,338a8.892,8.892,0,0,1,3.515-1.733,17.931,17.931,0,0,1,9.009,0A8.9,8.9,0,0,1,213.611,338a3.666,3.666,0,0,1,1.367,2.917,4.651,4.651,0,0,1-.195,1.27,7.7,7.7,0,0,0-.318,2.2,10.824,10.824,0,0,0,.623,3.54,27.156,27.156,0,0,0,1.562,3.626q.94,1.82,1.966,3.625.977,1.709,1.831,3.345a24.618,24.618,0,0,1,1.4,3.2,9.05,9.05,0,0,1,.549,3,5.129,5.129,0,0,1-2.21,4.26A8.692,8.692,0,0,1,214.783,370.653Zm-9.009-23.315a2.429,2.429,0,0,0,1.306-.354,1.234,1.234,0,0,0,.574-1.135,2.741,2.741,0,0,0-.22-.977q-.879-1.928-1.831-1.929-1.05,0-1.953,2.3a1.693,1.693,0,0,0-.1.537,1.277,1.277,0,0,0,.708,1.148A2.942,2.942,0,0,0,205.774,347.338Z" fill="#ffb71c"/>
    <path id="패스_1506" data-name="패스 1506" d="M235.413,370.727a11.394,11.394,0,0,1-5.591-1.294,11.206,11.206,0,0,1-3.87-3.516,15.851,15.851,0,0,1-2.258-5.041,23.276,23.276,0,0,1-.733-5.872,26.977,26.977,0,0,1,.916-6.958,22.912,22.912,0,0,1,2.649-6.237,14.785,14.785,0,0,1,4.211-4.493,9.735,9.735,0,0,1,5.628-1.7,10.274,10.274,0,0,1,6.3,2.015,6.533,6.533,0,0,1,2.832,5.187,3.477,3.477,0,0,1-.745,2.246,4.92,4.92,0,0,1-1.868,1.429,5.419,5.419,0,0,1-2.221.5,3.663,3.663,0,0,1-1.783-.439,2.456,2.456,0,0,1-1.147-1.368l-.147-.708a16.492,16.492,0,0,0-.329-1.647,5.83,5.83,0,0,0-.684-1.673,1.406,1.406,0,0,0-1.257-.732q-1.05,0-1.7,1.611a9.768,9.768,0,0,0-.647,3.662,10.9,10.9,0,0,0,.44,3.1,5.6,5.6,0,0,0,1.379,2.429,3.488,3.488,0,0,0,2.454.989,6.267,6.267,0,0,0,3.662-1.05,4.518,4.518,0,0,1,2.466-.9A3.387,3.387,0,0,1,246,351.537a8.783,8.783,0,0,1,1.721,3.309,15.983,15.983,0,0,1,.635,4.43,10.518,10.518,0,0,1-1.111,4.92,10.876,10.876,0,0,1-2.966,3.589,13.321,13.321,0,0,1-4.163,2.2A15.2,15.2,0,0,1,235.413,370.727Z" fill="#ffb71c"/>
    <path id="패스_1507" data-name="패스 1507" d="M263.953,370.653a13.624,13.624,0,0,1-5.091-.988A13.263,13.263,0,0,1,254.4,366.7a14.322,14.322,0,0,1-3.174-4.956,18.746,18.746,0,0,1-1.184-6.958,27.116,27.116,0,0,1,1.171-8.4,17.943,17.943,0,0,1,3.138-5.957,13.181,13.181,0,0,1,4.431-3.552,11.607,11.607,0,0,1,5.078-1.185,11.758,11.758,0,0,1,5.164,1.209,13.594,13.594,0,0,1,4.492,3.577,17.746,17.746,0,0,1,3.161,5.908,26.174,26.174,0,0,1,1.172,8.227,19.435,19.435,0,0,1-1.2,7.154,14.323,14.323,0,0,1-3.2,5,12.942,12.942,0,0,1-4.48,2.93A13.889,13.889,0,0,1,263.953,370.653Zm.122-17.48a2.23,2.23,0,0,0,1.513-.635,4.658,4.658,0,0,0,1.172-1.88,8.875,8.875,0,0,0,.464-3.076,17.552,17.552,0,0,0-.476-4.443,7.145,7.145,0,0,0-1.221-2.686,2.065,2.065,0,0,0-1.55-.9,1.939,1.939,0,0,0-1.453.83,6.383,6.383,0,0,0-1.123,2.5,17.37,17.37,0,0,0-.427,4.211,9.107,9.107,0,0,0,.9,4.565A2.586,2.586,0,0,0,264.075,353.173Z" fill="#ffb71c"/>
    <path id="패스_1508" data-name="패스 1508" d="M304.089,370.653a7.02,7.02,0,0,1-3.54-.964,7.638,7.638,0,0,1-2.734-2.661,7.246,7.246,0,0,1-1.05-3.894,10.527,10.527,0,0,1,1.343-4.81,7.654,7.654,0,0,0,.952-3.54,7.255,7.255,0,0,0-.72-3.2,10.051,10.051,0,0,0-1.819-2.624,9.2,9.2,0,0,0-2.332-1.782,4.882,4.882,0,0,0-2.233-.648,2.051,2.051,0,0,0-1.514.586,2.615,2.615,0,0,0-.586,1.9q0,3.15,3.76,9.5a10.42,10.42,0,0,1,1.611,5.224,6.744,6.744,0,0,1-.964,3.613,6.866,6.866,0,0,1-5.872,3.3,10.527,10.527,0,0,1-4.993-1.061,7.243,7.243,0,0,1-2.966-2.759,7.108,7.108,0,0,1-.976-3.6q0-2.1,2.1-7.617.953-2.49,1.685-4.907a16.282,16.282,0,0,0,.732-4.736,10.135,10.135,0,0,0-.329-2.575,9.5,9.5,0,0,0-1.075-2.491,4.341,4.341,0,0,1-.744-2.161,2.177,2.177,0,0,1,.793-1.745,5.043,5.043,0,0,1,2.039-.989,10.559,10.559,0,0,1,2.612-.318,11.09,11.09,0,0,1,2.527.282,6.171,6.171,0,0,1,2.356,1.159A17.341,17.341,0,0,1,295.2,340.7q1.024,1.466,2.27,2.93,1.758,1.929,2.393,1.929.439,0,.439-.66a7.769,7.769,0,0,0-.464-2.428,7.951,7.951,0,0,0-.83-1.893,3.521,3.521,0,0,1-.83-2,1.975,1.975,0,0,1,.806-1.6,5.333,5.333,0,0,1,2.051-.965,10.56,10.56,0,0,1,2.612-.318,10.72,10.72,0,0,1,2.673.33,5.183,5.183,0,0,1,2.1,1.026,2.274,2.274,0,0,1,.818,1.818,4.357,4.357,0,0,1-.659,2.075,9.289,9.289,0,0,0-1.2,4.541,15.4,15.4,0,0,0,.867,4.969q.867,2.552,1.965,5.163,2.464,5.713,2.466,7.959a6.849,6.849,0,0,1-.928,3.455,6.776,6.776,0,0,1-2.844,2.624A10.347,10.347,0,0,1,304.089,370.653Z" fill="#ffb71c"/>
  </g>
</svg>
