<svg xmlns="http://www.w3.org/2000/svg" width="230.298" height="35.425" viewBox="0 0 230.298 35.425">
  <g id="그룹_830" data-name="그룹 830" transform="translate(-421.824 -411.758)">
    <path id="패스_1528" data-name="패스 1528" d="M434.935,446.719a21.281,21.281,0,0,1-4.847-.55,16.586,16.586,0,0,1-4.211-1.563,9.072,9.072,0,0,1-2.954-2.465,5.229,5.229,0,0,1-1.1-3.235,15.362,15.362,0,0,1,.525-3.955q.523-1.977,1.2-3.955t1.184-3.919a15,15,0,0,0,.513-3.845,9.394,9.394,0,0,0-1.367-4.98,5.9,5.9,0,0,1-1-2.856q0-2.247,3.027-3.052a28.749,28.749,0,0,1,6.714-.586q2.222,0,4.468.049,2.124.072,3.955.073a1.9,1.9,0,0,1,1.33.475,2.889,2.889,0,0,1,.781,1.2,4.369,4.369,0,0,1,.257,1.477,3.418,3.418,0,0,1-.439,1.77,1.455,1.455,0,0,1-1.343.745,10.289,10.289,0,0,1-1.685-.244,26.652,26.652,0,0,0-4.565-.537,4.632,4.632,0,0,0-2,.366,2.591,2.591,0,0,0-1.1.9,1.953,1.953,0,0,0-.341,1.05,1.617,1.617,0,0,0,.512,1.172,1.847,1.847,0,0,0,1.368.513,7.09,7.09,0,0,0,1.745-.208q.817-.207,1.5-.452a4.577,4.577,0,0,1,1.562-.366,1.491,1.491,0,0,1,1.343.879,3.77,3.77,0,0,1,.488,1.856,2.594,2.594,0,0,1-.354,1.367,1.184,1.184,0,0,1-1.086.586,6.536,6.536,0,0,1-1.063-.111c-.431-.073-.944-.141-1.538-.207a19.75,19.75,0,0,0-2.111-.1,1.7,1.7,0,0,0-1.416.61,2.036,2.036,0,0,0-.488,1.294,2.257,2.257,0,0,0,.366,1.184,2.829,2.829,0,0,0,1.123,1,4.026,4.026,0,0,0,1.9.4h1.294a12.439,12.439,0,0,0,4.639-.684,8.492,8.492,0,0,1,3.54-.927,3.2,3.2,0,0,1,2.013.67,4.356,4.356,0,0,1,1.343,2.284,16.081,16.081,0,0,1,.477,4.394,12.35,12.35,0,0,1-1.221,5.713,10.9,10.9,0,0,1-3.247,3.857,13.976,13.976,0,0,1-4.554,2.2A18.991,18.991,0,0,1,434.935,446.719Z" fill="#ffb71c"/>
    <path id="패스_1529" data-name="패스 1529" d="M463.3,446.841a9.855,9.855,0,0,1-6.275-2.112,13.781,13.781,0,0,1-4.187-5.823,22.645,22.645,0,0,1-1.5-8.545,23.378,23.378,0,0,1,.988-6.726,21.332,21.332,0,0,1,2.82-5.982,14.714,14.714,0,0,1,4.419-4.272,10.786,10.786,0,0,1,5.786-1.6,10.961,10.961,0,0,1,6.677,2.038,6.6,6.6,0,0,1,2.894,5.262,3.26,3.26,0,0,1-.781,2.185,5.107,5.107,0,0,1-1.954,1.4,6,6,0,0,1-2.319.488,4.025,4.025,0,0,1-1.892-.439,2.426,2.426,0,0,1-1.184-1.367c-.033-.13-.073-.35-.122-.66q-.123-.732-.366-1.672a5.854,5.854,0,0,0-.721-1.685,1.5,1.5,0,0,0-1.33-.744,1.625,1.625,0,0,0-1.356.9,7.173,7.173,0,0,0-.879,2.368,15.346,15.346,0,0,0-.3,3.125,19.059,19.059,0,0,0,.586,5.115,5.642,5.642,0,0,0,1.452,2.673,2.887,2.887,0,0,0,1.941.782,2.955,2.955,0,0,0,2.063-.819,2.389,2.389,0,0,0,.891-1.769q0-.416-.83-.415a5.049,5.049,0,0,0-.976.146,5.511,5.511,0,0,1-1.2.171,1.217,1.217,0,0,1-1.135-.708,3.265,3.265,0,0,1-.378-1.562,3.466,3.466,0,0,1,.4-1.673,1.419,1.419,0,0,1,1.234-.793,7.168,7.168,0,0,1,1.318.171,13.5,13.5,0,0,0,2.734.268,7.1,7.1,0,0,0,1.111-.086,6.616,6.616,0,0,1,.989-.085q3.271,0,4.858,4.151a24.953,24.953,0,0,1,1.319,8.74,24.505,24.505,0,0,1-1.27,8.789q-.171.318-.989.524a7.258,7.258,0,0,1-1.794.208,6.292,6.292,0,0,1-2.075-.33q-.953-.328-.952-1.11c.015-.423.032-.732.048-.928s.025-.505.025-.927a3.71,3.71,0,0,0-.122-1.112q-.123-.352-.293-.353-.366,0-.952,1.318a5.371,5.371,0,0,1-2.539,2.6A8.565,8.565,0,0,1,463.3,446.841Z" fill="#ffb71c"/>
    <path id="패스_1530" data-name="패스 1530" d="M492.112,446.841a9.854,9.854,0,0,1-6.274-2.112,13.783,13.783,0,0,1-4.188-5.823,22.645,22.645,0,0,1-1.5-8.545,23.379,23.379,0,0,1,.989-6.726,21.3,21.3,0,0,1,2.82-5.982,14.7,14.7,0,0,1,4.419-4.272,10.783,10.783,0,0,1,5.786-1.6,10.963,10.963,0,0,1,6.677,2.038,6.6,6.6,0,0,1,2.893,5.262,3.255,3.255,0,0,1-.781,2.185,5.1,5.1,0,0,1-1.953,1.4,6.006,6.006,0,0,1-2.319.488,4.03,4.03,0,0,1-1.893-.439,2.429,2.429,0,0,1-1.183-1.367c-.034-.13-.074-.35-.123-.66q-.123-.732-.366-1.672a5.852,5.852,0,0,0-.72-1.685,1.5,1.5,0,0,0-1.331-.744,1.625,1.625,0,0,0-1.355.9,7.128,7.128,0,0,0-.879,2.368,15.347,15.347,0,0,0-.3,3.125,19.1,19.1,0,0,0,.586,5.115,5.651,5.651,0,0,0,1.452,2.673,2.889,2.889,0,0,0,1.942.782,2.953,2.953,0,0,0,2.062-.819,2.39,2.39,0,0,0,.892-1.769q0-.416-.83-.415a5.067,5.067,0,0,0-.977.146,5.5,5.5,0,0,1-1.2.171,1.217,1.217,0,0,1-1.136-.708,3.265,3.265,0,0,1-.378-1.562,3.455,3.455,0,0,1,.4-1.673,1.417,1.417,0,0,1,1.233-.793,7.158,7.158,0,0,1,1.318.171,13.513,13.513,0,0,0,2.735.268,7.082,7.082,0,0,0,1.11-.086,6.617,6.617,0,0,1,.989-.085q3.271,0,4.859,4.151a24.955,24.955,0,0,1,1.318,8.74,24.53,24.53,0,0,1-1.269,8.789q-.172.318-.99.524a7.247,7.247,0,0,1-1.794.208,6.3,6.3,0,0,1-2.075-.33q-.951-.328-.952-1.11.024-.635.049-.928c.016-.2.024-.505.024-.927a3.71,3.71,0,0,0-.122-1.112c-.082-.235-.179-.353-.293-.353q-.366,0-.952,1.318a5.366,5.366,0,0,1-2.539,2.6A8.559,8.559,0,0,1,492.112,446.841Z" fill="#ffb71c"/>
    <path id="패스_1531" data-name="패스 1531" d="M535.472,447.183a19.362,19.362,0,0,1-5.1-.672,13.5,13.5,0,0,1-4.407-2.075,10.287,10.287,0,0,1-3.088-3.565,10.853,10.853,0,0,1-1.147-5.163,11.319,11.319,0,0,1,.6-3.711,7.506,7.506,0,0,1,1.636-2.808,3.176,3.176,0,0,1,2.332-1.074,3.849,3.849,0,0,1,2.246.855,8.906,8.906,0,0,0,5.151,1.928,3.6,3.6,0,0,0,1.892-.439,1.248,1.248,0,0,0,.721-1.05q0-.707-1.185-1.5a11.369,11.369,0,0,0-3.918-1.33,17.288,17.288,0,0,1-3.7-1.087,9.543,9.543,0,0,1-3.332-2.246,5.4,5.4,0,0,1-1.465-3.7,5.281,5.281,0,0,1,1.135-3.369,8.839,8.839,0,0,1,3.027-2.393,16.854,16.854,0,0,1,4.248-1.429,24.193,24.193,0,0,1,4.8-.475,22.4,22.4,0,0,1,6.042.781,10.8,10.8,0,0,1,4.492,2.344,5.251,5.251,0,0,1,1.746,3.906,3.276,3.276,0,0,1-.61,2.014,3.943,3.943,0,0,1-1.538,1.245,4.51,4.51,0,0,1-1.9.428,3.564,3.564,0,0,1-1.82-.489,2.628,2.628,0,0,1-1.183-1.464,4.91,4.91,0,0,0-1.844-2.613,4.49,4.49,0,0,0-2.453-.757,4.855,4.855,0,0,0-2.674.757,2.081,2.081,0,0,0-1.184,1.66,1.606,1.606,0,0,0,.867,1.27,7.312,7.312,0,0,0,2.918.879,21.263,21.263,0,0,1,8.092,2.575,12.213,12.213,0,0,1,4.615,4.651A12.387,12.387,0,0,1,550.95,435a10.156,10.156,0,0,1-1.355,5.285,11.959,11.959,0,0,1-3.589,3.809,17,17,0,0,1-4.981,2.307A20.2,20.2,0,0,1,535.472,447.183Z" fill="#ffb71c"/>
    <path id="패스_1532" data-name="패스 1532" d="M566.282,446.816a22.78,22.78,0,0,1-6.836-.964,12.056,12.056,0,0,1-4.895-2.735,5.619,5.619,0,0,1-1.819-4.162,6.012,6.012,0,0,1,.171-1.416,52.606,52.606,0,0,1,1.783-5.81q.854-2.393,1.525-4.75a16.764,16.764,0,0,0,.672-4.6,10.8,10.8,0,0,0-.342-2.7,9.085,9.085,0,0,0-1.147-2.6,4.317,4.317,0,0,1-.806-2.222,2.131,2.131,0,0,1,.781-1.709,5.022,5.022,0,0,1,2.027-.976,10.411,10.411,0,0,1,2.587-.318,10.973,10.973,0,0,1,2.7.33,5.464,5.464,0,0,1,2.136,1,2.093,2.093,0,0,1,.83,1.7,3.549,3.549,0,0,1-.732,1.891,8.022,8.022,0,0,0-1.1,2.564,12.7,12.7,0,0,0-.366,3.064,13.7,13.7,0,0,0,.513,3.76,7.972,7.972,0,0,0,1.465,2.954,2.843,2.843,0,0,0,2.246,1.148q1.806,0,3.784-2.442a4.039,4.039,0,0,1,2.954-1.709,3.175,3.175,0,0,1,2.136.9,6.48,6.48,0,0,1,1.66,2.734,14.008,14.008,0,0,1,.647,4.614q0,6.788-3.955,9.864A13.553,13.553,0,0,1,566.282,446.816Z" fill="#ffb71c"/>
    <path id="패스_1533" data-name="패스 1533" d="M589.6,446.816a10.581,10.581,0,0,1-5.067-1.087,7.44,7.44,0,0,1-3.014-2.819,7.2,7.2,0,0,1-1-3.662,7.6,7.6,0,0,1,.2-1.709,57.044,57.044,0,0,1,1.758-5.786q.879-2.416,1.538-4.774a17.048,17.048,0,0,0,.659-4.6,10.8,10.8,0,0,0-.342-2.7,8.888,8.888,0,0,0-1.16-2.6,4.305,4.305,0,0,1-.817-2.246,2.127,2.127,0,0,1,.781-1.709,4.9,4.9,0,0,1,2.014-.965,10.805,10.805,0,0,1,2.6-.3,10.965,10.965,0,0,1,2.7.33,5.468,5.468,0,0,1,2.137,1,2.07,2.07,0,0,1,.83,1.672,3.478,3.478,0,0,1-.708,1.88,8.2,8.2,0,0,0-1.16,2.954,19.2,19.2,0,0,0-.378,3.931,25.088,25.088,0,0,0,.977,6.885,12.172,12.172,0,0,0,2.856,5.346,6.054,6.054,0,0,1,2.173,4.371,5.283,5.283,0,0,1-1.147,3.3,8.57,8.57,0,0,1-2.894,2.392A7.6,7.6,0,0,1,589.6,446.816Z" fill="#ffb71c"/>
    <path id="패스_1534" data-name="패스 1534" d="M609.886,446.89a11.4,11.4,0,0,1-5.591-1.294,11.2,11.2,0,0,1-3.87-3.516,15.845,15.845,0,0,1-2.258-5.042,23.275,23.275,0,0,1-.732-5.871,26.933,26.933,0,0,1,.915-6.958A22.933,22.933,0,0,1,601,417.971a14.78,14.78,0,0,1,4.211-4.492,9.727,9.727,0,0,1,5.628-1.7,10.274,10.274,0,0,1,6.3,2.014,6.534,6.534,0,0,1,2.832,5.188,3.477,3.477,0,0,1-.745,2.246,4.917,4.917,0,0,1-1.868,1.428,5.421,5.421,0,0,1-2.221.5,3.656,3.656,0,0,1-1.782-.439,2.462,2.462,0,0,1-1.148-1.367l-.146-.708a16.8,16.8,0,0,0-.33-1.649,5.847,5.847,0,0,0-.684-1.672,1.406,1.406,0,0,0-1.257-.732q-1.05,0-1.7,1.611a9.748,9.748,0,0,0-.647,3.662,10.9,10.9,0,0,0,.44,3.1,5.593,5.593,0,0,0,1.379,2.429,3.487,3.487,0,0,0,2.454.989,6.27,6.27,0,0,0,3.662-1.05,4.507,4.507,0,0,1,2.466-.9,3.384,3.384,0,0,1,2.624,1.269,8.785,8.785,0,0,1,1.721,3.308,15.953,15.953,0,0,1,.635,4.431,10.511,10.511,0,0,1-1.111,4.919,10.855,10.855,0,0,1-2.966,3.589,13.344,13.344,0,0,1-4.163,2.2A15.2,15.2,0,0,1,609.886,446.89Z" fill="#ffb71c"/>
    <path id="패스_1535" data-name="패스 1535" d="M637.962,446.719a21.294,21.294,0,0,1-4.847-.55,16.6,16.6,0,0,1-4.211-1.563,9.082,9.082,0,0,1-2.954-2.465,5.234,5.234,0,0,1-1.1-3.235,15.362,15.362,0,0,1,.524-3.955q.525-1.977,1.2-3.955t1.185-3.919a15,15,0,0,0,.513-3.845,9.4,9.4,0,0,0-1.368-4.98,5.9,5.9,0,0,1-1-2.856q0-2.247,3.028-3.052a28.743,28.743,0,0,1,6.714-.586q2.22,0,4.467.049,2.124.072,3.955.073a1.906,1.906,0,0,1,1.331.475,2.909,2.909,0,0,1,.781,1.2,4.369,4.369,0,0,1,.257,1.477,3.418,3.418,0,0,1-.44,1.77,1.455,1.455,0,0,1-1.343.745,10.282,10.282,0,0,1-1.684-.244,26.662,26.662,0,0,0-4.566-.537,4.632,4.632,0,0,0-2,.366,2.588,2.588,0,0,0-1.1.9,1.946,1.946,0,0,0-.342,1.05,1.614,1.614,0,0,0,.513,1.172,1.845,1.845,0,0,0,1.367.513,7.09,7.09,0,0,0,1.745-.208q.818-.207,1.5-.452a4.582,4.582,0,0,1,1.562-.366,1.49,1.49,0,0,1,1.343.879,3.77,3.77,0,0,1,.488,1.856,2.594,2.594,0,0,1-.354,1.367,1.183,1.183,0,0,1-1.086.586,6.526,6.526,0,0,1-1.062-.111c-.432-.073-.945-.141-1.539-.207a19.723,19.723,0,0,0-2.111-.1,1.7,1.7,0,0,0-1.416.61,2.036,2.036,0,0,0-.488,1.294,2.257,2.257,0,0,0,.366,1.184,2.829,2.829,0,0,0,1.123,1,4.029,4.029,0,0,0,1.9.4h1.294a12.439,12.439,0,0,0,4.639-.684,8.492,8.492,0,0,1,3.54-.927,3.2,3.2,0,0,1,2.014.67,4.369,4.369,0,0,1,1.343,2.284,16.126,16.126,0,0,1,.476,4.394,12.337,12.337,0,0,1-1.221,5.713,10.9,10.9,0,0,1-3.247,3.857,13.971,13.971,0,0,1-4.553,2.2A19,19,0,0,1,637.962,446.719Z" fill="#ffb71c"/>
  </g>
</svg>
