<svg xmlns="http://www.w3.org/2000/svg" width="293.252" height="45.711" viewBox="0 0 293.252 45.711">
  <g id="그룹_788" data-name="그룹 788" transform="translate(-496.911 -281.852)">
    <path id="패스_1243" data-name="패스 1243" d="M496.911,282.467H527.98v9.474H508.6V300h17.411v9.475H508.6V327.01h-11.69Z" fill="#161615"/>
    <path id="패스_1244" data-name="패스 1244" d="M532.656,282.467h31.808v9.474H544.346V300H562.8v9.475H544.346v8.059H564.4v9.475H532.656Z" fill="#161615"/>
    <path id="패스_1245" data-name="패스 1245" d="M588.4,291.511c-3.875,0-5.6,1.476-5.66,3.568-.061,2.276,2.031,3.568,6.153,4.43l3.691.861c9.6,2.03,13.843,6.706,13.9,13.535-.061,8.737-6.767,13.658-18.026,13.658-11.505,0-18.949-5.044-19.072-16h11.2c.185,4.122,3.076,6.337,7.69,6.337,4,0,6.153-1.661,6.214-4-.061-2.153-1.845-3.384-6.829-4.491l-4.491-.984c-7.813-1.723-12.612-5.6-12.612-12.49-.062-8.428,7.382-14.088,17.841-14.088,10.706,0,17.412,5.721,17.473,14.4H594.61C594.364,293.233,592.4,291.511,588.4,291.511Z" fill="#161615"/>
    <path id="패스_1246" data-name="패스 1246" d="M609.991,282.467h38.391v9.474H634.97V327.01H623.4V291.941H609.991Z" fill="#161615"/>
    <path id="패스_1247" data-name="패스 1247" d="M664.809,327.01h-11.69V282.467h11.69Z" fill="#161615"/>
    <path id="패스_1248" data-name="패스 1248" d="M691.756,314.213h.369l9.352-31.746H714.7L699.938,327.01H684l-14.827-44.543H682.4Z" fill="#161615"/>
    <path id="패스_1249" data-name="패스 1249" d="M710.367,327.01l14.827-44.543h15.935L755.9,327.01H743.282l-2.645-8.737h-14.95l-2.646,8.737Zm27.563-17.6-4.615-14.95h-.369l-4.552,14.95Z" fill="#161615"/>
    <path id="패스_1250" data-name="패스 1250" d="M760.324,282.467h11.69v35.068h18.149v9.475H760.324Z" fill="#161615"/>
  </g>
</svg>
