<svg xmlns="http://www.w3.org/2000/svg" width="586.38" height="45.773" viewBox="0 0 586.38 45.773">
  <g id="그룹_799" data-name="그룹 799" transform="translate(-876.902 -305.842)">
    <path id="패스_1350" data-name="패스 1350" d="M891.483,306.457l10.582,25.9h.554l10.582-25.9h14.581V351H916.339V324.791h-.369l-10.152,25.9H898.8l-10.09-26.086h-.369V351H876.9V306.457Z" fill="#161615"/>
    <path id="패스_1351" data-name="패스 1351" d="M972.018,306.457v28.608c0,10.09-7.691,16.489-19.134,16.489s-19.072-6.4-19.072-16.489V306.457H945.5V334.02a7.414,7.414,0,0,0,14.827,0V306.457Z" fill="#161615"/>
    <path id="패스_1352" data-name="패스 1352" d="M992.628,306.457l10.582,25.9h.554l10.582-25.9h14.581V351h-11.444V324.791h-.369l-10.151,25.9h-7.014l-10.09-26.086h-.369V351H978.047V306.457Z" fill="#161615"/>
    <path id="패스_1353" data-name="패스 1353" d="M1073.162,306.457v28.608c0,10.09-7.69,16.489-19.134,16.489s-19.072-6.4-19.072-16.489V306.457h11.69V334.02a7.414,7.414,0,0,0,14.827,0V306.457Z" fill="#161615"/>
    <path id="패스_1354" data-name="패스 1354" d="M1086.082,324.3h-7.629V306.457h7.629Z" fill="#161615"/>
    <path id="패스_1355" data-name="패스 1355" d="M1106.385,324.976c-2.215,0-4,.861-3.938,2.337-.061,1.046.739,1.969,3.384,2.461l6.645,1.231c6.829,1.23,10.089,4.122,10.151,9.044-.062,7.075-6.768,11.566-15.935,11.566-10.089,0-15.934-4.491-16.611-11.259h11.566c.37,2.154,2.277,3.384,5.107,3.384,2.338,0,4-.861,4.06-2.338-.061-1.353-1.23-2.091-3.937-2.584l-5.845-1.046c-6.767-1.23-10.151-4.614-10.151-9.782,0-6.89,5.845-10.828,15.258-10.828,9.474,0,15.319,4.184,15.627,11.2h-10.7C1110.814,326.268,1108.846,324.976,1106.385,324.976Z" fill="#161615"/>
    <path id="패스_1356" data-name="패스 1356" d="M1140.961,306.457h11.689v18.211h.616l13.781-18.211h13.72l-15.258,19.872L1181.074,351h-14.027l-10.275-16.919-4.122,5.291V351h-11.689Z" fill="#161615"/>
    <path id="패스_1357" data-name="패스 1357" d="M1222.787,351h-9.782l-16.55-24.056h-.308V351h-11.689V306.457h9.967l16.3,23.933h.369V306.457h11.689Z" fill="#161615"/>
    <path id="패스_1358" data-name="패스 1358" d="M1228.816,306.457h31.808v9.475h-20.118v8.059h18.457v9.475h-18.457v8.059h20.057V351h-31.747Z" fill="#161615"/>
    <path id="패스_1359" data-name="패스 1359" d="M1265.115,351l14.827-44.543h15.935L1310.643,351H1298.03l-2.645-8.736h-14.95L1277.789,351Zm27.563-17.6-4.615-14.95h-.369l-4.552,14.95Z" fill="#161615"/>
    <path id="패스_1360" data-name="패스 1360" d="M1315.072,351V306.457h16.8c13.72,0,22.272,8.367,22.272,22.272S1345.588,351,1331.991,351Zm16.489-9.967c6.89,0,10.766-2.891,10.766-12.3s-3.876-12.3-11.074-12.3h-4.491v24.609Z" fill="#161615"/>
    <path id="패스_1361" data-name="패스 1361" d="M1371.551,351h-11.69V306.457h11.69Z" fill="#161615"/>
    <path id="패스_1362" data-name="패스 1362" d="M1415.909,351h-9.782l-16.55-24.056h-.307V351h-11.69V306.457h9.967l16.3,23.933h.369V306.457h11.689Z" fill="#161615"/>
    <path id="패스_1363" data-name="패스 1363" d="M1443.533,316.055c-6.214,0-9.844,4.675-9.844,12.612,0,8,3.384,12.735,9.783,12.735,5.567,0,8.4-2.615,8.49-6.767h-8.244v-8.367h19.564v6.09c0,12.121-8.3,19.257-19.933,19.257-12.92,0-21.718-8.736-21.718-22.825,0-14.643,9.659-22.948,21.656-22.948,10.459,0,18.519,6.337,19.5,15.258h-11.874C1450.116,317.9,1447.471,316.055,1443.533,316.055Z" fill="#161615"/>
  </g>
</svg>
