<svg xmlns="http://www.w3.org/2000/svg" width="646.703" height="45.774" viewBox="0 0 646.703 45.774">
  <g id="그룹_789" data-name="그룹 789" transform="translate(-112.612 -390.493)">
    <path id="패스_1251" data-name="패스 1251" d="M127.193,391.108l10.582,25.9h.554l10.582-25.9h14.581v44.543H152.048V409.442h-.369l-10.151,25.9h-7.014l-10.09-26.086h-.369v26.393H112.612V391.108Z" fill="#161615"/>
    <path id="패스_1252" data-name="패스 1252" d="M207.727,391.108v28.609c0,10.09-7.69,16.488-19.134,16.488s-19.072-6.4-19.072-16.488V391.108H181.21v27.563a7.414,7.414,0,0,0,14.828,0V391.108Z" fill="#161615"/>
    <path id="패스_1253" data-name="패스 1253" d="M228.337,391.108l10.582,25.9h.554l10.582-25.9h14.581v44.543H253.193V409.442h-.369l-10.152,25.9h-7.013l-10.09-26.086H225.2v26.393H213.756V391.108Z" fill="#161615"/>
    <path id="패스_1254" data-name="패스 1254" d="M308.872,391.108v28.609c0,10.09-7.691,16.488-19.134,16.488s-19.072-6.4-19.072-16.488V391.108h11.689v27.563a7.414,7.414,0,0,0,14.827,0V391.108Z" fill="#161615"/>
    <path id="패스_1255" data-name="패스 1255" d="M314.9,435.651V391.108h16.8c13.72,0,22.271,8.368,22.271,22.272s-8.551,22.271-22.148,22.271Zm16.488-9.966c6.891,0,10.767-2.892,10.767-12.3s-3.876-12.3-11.074-12.3H326.59v24.61Z" fill="#161615"/>
    <path id="패스_1256" data-name="패스 1256" d="M355.291,435.651l14.827-44.543h15.935l14.765,44.543H388.206l-2.645-8.736H370.61l-2.645,8.736Zm27.563-17.6-4.615-14.951h-.369l-4.553,14.951Z" fill="#161615"/>
    <path id="패스_1257" data-name="패스 1257" d="M443.577,435.651H433.8L417.245,411.6h-.308v24.055H405.248V391.108h9.967l16.3,23.933h.369V391.108h11.689Z" fill="#161615"/>
    <path id="패스_1258" data-name="패스 1258" d="M471.2,400.706c-6.214,0-9.844,4.676-9.844,12.612,0,8,3.384,12.736,9.783,12.736,5.567,0,8.4-2.615,8.49-6.768h-8.244v-8.367H490.95v6.091c0,12.12-8.305,19.257-19.933,19.257-12.92,0-21.718-8.737-21.718-22.826,0-14.642,9.659-22.948,21.656-22.948,10.459,0,18.519,6.337,19.5,15.258H478.584C477.784,402.552,475.139,400.706,471.2,400.706Z" fill="#161615"/>
    <path id="패스_1259" data-name="패스 1259" d="M531.8,436.267c-12.182,0-21.6-8.121-21.6-22.887,0-14.827,9.413-22.887,21.6-22.887,12.058,0,21.533,8.06,21.533,22.887S543.86,436.267,531.8,436.267Zm0-35.561c-6.153,0-9.536,4.491-9.536,12.674s3.383,12.674,9.536,12.674c6.091,0,9.474-4.491,9.474-12.674S537.893,400.706,531.8,400.706Z" fill="#161615"/>
    <path id="패스_1260" data-name="패스 1260" d="M559.057,391.108h31.069v9.475h-19.38v8.06h17.411v9.474H570.746v17.534H559.057Z" fill="#161615"/>
    <path id="패스_1261" data-name="패스 1261" d="M594.8,391.108h31.069v9.475h-19.38v8.06H623.9v9.474H606.491v17.534H594.8Z" fill="#161615"/>
    <path id="패스_1262" data-name="패스 1262" d="M630.547,391.108h11.689v35.069h18.15v9.474H630.547Z" fill="#161615"/>
    <path id="패스_1263" data-name="패스 1263" d="M677.12,435.651H665.431V391.108H677.12Z" fill="#161615"/>
    <path id="패스_1264" data-name="패스 1264" d="M721.478,435.651H711.7L695.146,411.6h-.308v24.055h-11.69V391.108h9.967l16.3,23.933h.369V391.108h11.69Z" fill="#161615"/>
    <path id="패스_1265" data-name="패스 1265" d="M727.508,391.108h31.807v9.475H739.2v8.06h18.457v9.474H739.2v8.06h20.057v9.474H727.508Z" fill="#161615"/>
  </g>
</svg>
