<svg xmlns="http://www.w3.org/2000/svg" width="205.673" height="44.543" viewBox="0 0 205.673 44.543">
  <g id="그룹_785" data-name="그룹 785" transform="translate(-51.806 -78.446)">
    <path id="패스_1213" data-name="패스 1213" d="M51.806,78.446H83.614v9.475H63.5V95.98H81.953v9.475H63.5v8.06H83.552v9.474H51.806Z" fill="#161615"/>
    <path id="패스_1214" data-name="패스 1214" d="M110.684,110.192h.369L120.4,78.446h13.227l-14.765,44.543H102.932L88.105,78.446h13.228Z" fill="#161615"/>
    <path id="패스_1215" data-name="패스 1215" d="M138.062,78.446H169.87v9.475H149.751V95.98h18.457v9.475H149.751v8.06h20.057v9.474H138.062Z" fill="#161615"/>
    <path id="패스_1216" data-name="패스 1216" d="M214.351,122.989h-9.782l-16.55-24.055h-.308v24.055H176.022V78.446h9.967l16.3,23.933h.37V78.446h11.689Z" fill="#161615"/>
    <path id="패스_1217" data-name="패스 1217" d="M219.088,78.446h38.391v9.475H244.067v35.068H232.5V87.921H219.088Z" fill="#161615"/>
  </g>
</svg>
