<svg xmlns="http://www.w3.org/2000/svg" width="415.068" height="45.774" viewBox="0 0 415.068 45.774">
  <g id="그룹_790" data-name="그룹 790" transform="translate(-354.503 -473.87)">
    <path id="패스_1266" data-name="패스 1266" d="M366.193,519.028H354.5V474.485h11.69Z" fill="#161615"/>
    <path id="패스_1267" data-name="패스 1267" d="M410.551,519.028h-9.782l-16.55-24.055h-.307v24.055h-11.69V474.485h9.967l16.3,23.933h.369V474.485h11.689Z" fill="#161615"/>
    <path id="패스_1268" data-name="패스 1268" d="M434.36,483.529c-3.876,0-5.6,1.477-5.66,3.569-.061,2.276,2.03,3.568,6.153,4.429l3.691.862c9.6,2.03,13.843,6.706,13.9,13.535-.061,8.736-6.767,13.658-18.026,13.658-11.505,0-18.949-5.045-19.072-16h11.2c.184,4.122,3.076,6.337,7.69,6.337,4,0,6.153-1.661,6.214-4-.061-2.153-1.846-3.384-6.829-4.491l-4.491-.985c-7.813-1.722-12.612-5.6-12.612-12.489-.061-8.429,7.382-14.089,17.841-14.089,10.705,0,17.411,5.722,17.473,14.4H440.574C440.328,485.252,438.359,483.529,434.36,483.529Z" fill="#161615"/>
    <path id="패스_1269" data-name="패스 1269" d="M455.955,474.485h38.391v9.475H480.934v35.068H469.367V483.96H455.955Z" fill="#161615"/>
    <path id="패스_1270" data-name="패스 1270" d="M491.793,519.028l14.827-44.543h15.935l14.765,44.543H524.708l-2.646-8.736h-14.95l-2.645,8.736Zm27.562-17.6-4.614-14.951h-.369l-4.553,14.951Z" fill="#161615"/>
    <path id="패스_1271" data-name="패스 1271" d="M541.75,474.485H560.7c9.967,0,16.488,5.661,16.488,15.074,0,6.152-2.83,10.52-7.628,12.8l9.1,16.673H565.929L558.054,504.2h-4.615v14.827H541.75Zm16.242,20.549c4.43,0,6.952-1.6,6.952-5.475,0-3.938-2.522-5.722-6.952-5.722h-4.553v11.2Z" fill="#161615"/>
    <path id="패스_1272" data-name="패스 1272" d="M604.073,484.083c-6.214,0-9.844,4.676-9.844,12.612,0,8,3.384,12.736,9.783,12.736,5.567,0,8.4-2.615,8.49-6.768h-8.244V494.3h19.564v6.091c0,12.12-8.3,19.257-19.933,19.257-12.92,0-21.718-8.737-21.718-22.826,0-14.642,9.659-22.948,21.656-22.948,10.459,0,18.519,6.337,19.5,15.258H611.456C610.656,485.929,608.011,484.083,604.073,484.083Z" fill="#161615"/>
    <path id="패스_1273" data-name="패스 1273" d="M629.667,474.485h18.949c9.967,0,16.488,5.661,16.488,15.074,0,6.152-2.83,10.52-7.628,12.8l9.1,16.673H653.846L645.971,504.2h-4.615v14.827H629.667Zm16.242,20.549c4.43,0,6.952-1.6,6.952-5.475,0-3.938-2.522-5.722-6.952-5.722h-4.553v11.2Z" fill="#161615"/>
    <path id="패스_1274" data-name="패스 1274" d="M668.734,519.028l14.828-44.543H699.5l14.766,44.543H701.649L699,510.292h-14.95l-2.646,8.736Zm27.563-17.6-4.614-14.951h-.37l-4.552,14.951Z" fill="#161615"/>
    <path id="패스_1275" data-name="패스 1275" d="M733.272,474.485l10.582,25.9h.554l10.582-25.9h14.581v44.543H758.128V492.819h-.369l-10.152,25.9h-7.013L730.5,492.635h-.369v26.393H718.691V474.485Z" fill="#161615"/>
  </g>
</svg>
