<svg xmlns="http://www.w3.org/2000/svg" width="488.988" height="45.773" viewBox="0 0 488.988 45.773">
  <g id="그룹_800" data-name="그룹 800" transform="translate(-926.121 -465.717)">
    <path id="패스_1364" data-name="패스 1364" d="M940.7,466.332l10.582,25.9h.554l10.582-25.9H977v44.543H965.558V484.666h-.37l-10.151,25.9h-7.014l-10.089-26.086h-.37v26.394H926.121V466.332Z" fill="#161615"/>
    <path id="패스_1365" data-name="패스 1365" d="M1021.236,466.332V494.94c0,10.09-7.69,16.489-19.133,16.489s-19.073-6.4-19.073-16.489V466.332h11.69v27.563a7.414,7.414,0,0,0,14.827,0V466.332Z" fill="#161615"/>
    <path id="패스_1366" data-name="패스 1366" d="M1041.847,466.332l10.582,25.9h.553l10.582-25.9h14.582v44.543H1066.7V484.666h-.369l-10.151,25.9h-7.014l-10.09-26.086h-.369v26.394h-11.443V466.332Z" fill="#161615"/>
    <path id="패스_1367" data-name="패스 1367" d="M1122.381,466.332V494.94c0,10.09-7.691,16.489-19.134,16.489s-19.072-6.4-19.072-16.489V466.332h11.689v27.563a7.414,7.414,0,0,0,14.827,0V466.332Z" fill="#161615"/>
    <path id="패스_1368" data-name="패스 1368" d="M1135.3,484.174h-7.629V466.332h7.629Z" fill="#161615"/>
    <path id="패스_1369" data-name="패스 1369" d="M1155.6,484.851c-2.215,0-4,.861-3.938,2.337-.062,1.046.738,1.969,3.384,2.461l6.644,1.231c6.829,1.23,10.09,4.122,10.152,9.044-.062,7.075-6.768,11.566-15.935,11.566-10.09,0-15.934-4.491-16.611-11.259h11.566c.369,2.154,2.277,3.384,5.107,3.384,2.338,0,4-.861,4.06-2.338-.061-1.353-1.23-2.091-3.937-2.584l-5.845-1.046c-6.768-1.23-10.151-4.614-10.151-9.782,0-6.89,5.844-10.828,15.257-10.828,9.475,0,15.32,4.184,15.627,11.2h-10.7C1160.033,486.143,1158.064,484.851,1155.6,484.851Z" fill="#161615"/>
    <path id="패스_1370" data-name="패스 1370" d="M1211.774,475.93c-6.213,0-9.843,4.675-9.843,12.612,0,8,3.383,12.735,9.782,12.735,5.568,0,8.4-2.615,8.49-6.767h-8.244v-8.367h19.564v6.09c0,12.121-8.3,19.257-19.933,19.257-12.92,0-21.718-8.736-21.718-22.825,0-14.643,9.659-22.948,21.656-22.948,10.459,0,18.519,6.337,19.5,15.258h-11.874C1218.357,477.775,1215.712,475.93,1211.774,475.93Z" fill="#161615"/>
    <path id="패스_1371" data-name="패스 1371" d="M1258.655,511.49c-12.181,0-21.594-8.121-21.594-22.886,0-14.828,9.413-22.887,21.594-22.887,12.059,0,21.533,8.059,21.533,22.887S1270.714,511.49,1258.655,511.49Zm0-35.56c-6.152,0-9.536,4.491-9.536,12.674s3.384,12.673,9.536,12.673c6.091,0,9.475-4.491,9.475-12.673S1264.746,475.93,1258.655,475.93Z" fill="#161615"/>
    <path id="패스_1372" data-name="패스 1372" d="M1307.2,511.49c-12.181,0-21.594-8.121-21.594-22.886,0-14.828,9.413-22.887,21.594-22.887,12.059,0,21.533,8.059,21.533,22.887S1319.256,511.49,1307.2,511.49Zm0-35.56c-6.152,0-9.536,4.491-9.536,12.674s3.384,12.673,9.536,12.673c6.091,0,9.475-4.491,9.475-12.673S1313.288,475.93,1307.2,475.93Z" fill="#161615"/>
    <path id="패스_1373" data-name="패스 1373" d="M1334.452,510.875V466.332h16.8c13.72,0,22.272,8.367,22.272,22.272s-8.552,22.271-22.149,22.271Zm16.488-9.967c6.891,0,10.767-2.891,10.767-12.3s-3.876-12.3-11.074-12.3h-4.491v24.609Z" fill="#161615"/>
    <path id="패스_1374" data-name="패스 1374" d="M1397.021,475.376c-3.875,0-5.6,1.477-5.66,3.568-.061,2.277,2.031,3.569,6.153,4.43l3.691.861c9.6,2.031,13.843,6.706,13.9,13.536-.061,8.736-6.767,13.658-18.026,13.658-11.505,0-18.949-5.045-19.072-16h11.2c.185,4.122,3.076,6.337,7.69,6.337,4,0,6.153-1.662,6.214-4-.061-2.154-1.845-3.384-6.829-4.492l-4.491-.984c-7.813-1.723-12.612-5.6-12.612-12.489-.062-8.429,7.383-14.089,17.841-14.089,10.706,0,17.412,5.721,17.473,14.4h-11.259C1402.989,477.1,1401.021,475.376,1397.021,475.376Z" fill="#161615"/>
  </g>
</svg>
