<svg xmlns="http://www.w3.org/2000/svg" width="814.747" height="84.961" viewBox="0 0 814.747 84.961">
  <g id="그룹_791" data-name="그룹 791" transform="translate(-37.214 -237.681)">
    <path id="패스_1276" data-name="패스 1276" d="M98.386,321.821a16.111,16.111,0,0,1-8.027-2.109,16.665,16.665,0,0,1-6.065-5.83,16.02,16.02,0,0,1-2.314-8.643q0-5.741,3.867-12.539a50.561,50.561,0,0,0,4.776-12.217,57.119,57.119,0,0,0,2.08-15.029q0-3.045-1.231-3.34-.645,0-1.787,1.582a16.911,16.911,0,0,0-2.051,4.043,14.6,14.6,0,0,0-.908,5.1,12.649,12.649,0,0,0,.879,4.57,7.411,7.411,0,0,1,.645,2.871,4.936,4.936,0,0,1-1.407,3.6,8.827,8.827,0,0,1-3.633,2.168,15.278,15.278,0,0,1-9.345,0,8.8,8.8,0,0,1-3.662-2.168,4.936,4.936,0,0,1-1.407-3.6,7.392,7.392,0,0,1,.645-2.871,12.188,12.188,0,0,0,.879-4.511,14.607,14.607,0,0,0-.938-5.186,16.8,16.8,0,0,0-2.109-4.072q-1.173-1.582-1.758-1.582-1.114,0-1.113,3.984v2.051a44.934,44.934,0,0,0,2.139,13.74A51.243,51.243,0,0,0,71.2,292.7q3.867,6.8,3.867,12.539a16.02,16.02,0,0,1-2.315,8.643,16.746,16.746,0,0,1-6.035,5.83,16.066,16.066,0,0,1-8.056,2.109,25.249,25.249,0,0,1-11.983-2.549,17.359,17.359,0,0,1-7.119-6.621,17.045,17.045,0,0,1-2.344-8.642,19.246,19.246,0,0,1,.528-4.453,139.934,139.934,0,0,1,4.57-14.063q2.284-5.916,4.014-11.689a39.03,39.03,0,0,0,1.728-11.221,24.26,24.26,0,0,0-.791-6.182,23.16,23.16,0,0,0-2.578-6.005,10.5,10.5,0,0,1-1.787-5.157,5.229,5.229,0,0,1,1.9-4.189,12.1,12.1,0,0,1,4.893-2.373,25.32,25.32,0,0,1,6.269-.762,22.848,22.848,0,0,1,6.944,1.172,12.906,12.906,0,0,1,6.181,4.277l1.172,1.524q2.929,3.927,4.746,5.918t3.4,1.992q1.7,0,3.808-2.315t5.743-7.119a12.891,12.891,0,0,1,6.21-4.277,22.957,22.957,0,0,1,6.915-1.172,25.326,25.326,0,0,1,6.269.762,12.1,12.1,0,0,1,4.893,2.373,5.232,5.232,0,0,1,1.9,4.189,10.51,10.51,0,0,1-1.787,5.157,23,23,0,0,0-2.578,6.035,24.369,24.369,0,0,0-.791,6.152A39,39,0,0,0,110.72,273.8q1.728,5.772,4.014,11.689a140.447,140.447,0,0,1,4.57,14.063,18.514,18.514,0,0,1,.528,4.394,17.117,17.117,0,0,1-9.434,15.322A25.214,25.214,0,0,1,98.386,321.821Z" fill="#ee7514"/>
    <path id="패스_1277" data-name="패스 1277" d="M178.425,321.821a17.276,17.276,0,0,1-9.961-3.222,24,24,0,0,1-3.076-2.461q-.851-.879-1.377-.879a2.715,2.715,0,0,0-1.494.908q-.966.909-3.135,2.549a15.606,15.606,0,0,1-9.375,3.105q-8.613,0-14.209-2.373a17.941,17.941,0,0,1-8.32-6.533,17.036,17.036,0,0,1-2.725-9.551,38.388,38.388,0,0,1,1.553-10.781q1.553-5.331,3.545-10.547,1.875-4.922,3.311-9.785a33.848,33.848,0,0,0,1.435-9.609,24.416,24.416,0,0,0-.791-6.153,22.444,22.444,0,0,0-2.637-6.064,10.43,10.43,0,0,1-1.845-5.186,5.229,5.229,0,0,1,1.9-4.189,12.1,12.1,0,0,1,4.922-2.373,26.416,26.416,0,0,1,12.715.029,13.13,13.13,0,0,1,5.039,2.373,4.914,4.914,0,0,1,1.963,3.984,8.439,8.439,0,0,1-1.758,4.571,15.337,15.337,0,0,0-2.08,5.068,28.364,28.364,0,0,0-.733,6.592,32.223,32.223,0,0,0,1.582,10.547,19.123,19.123,0,0,0,4.043,7.119,7.184,7.184,0,0,0,5.157,2.549,5.694,5.694,0,0,0,3.867-1.641,11.676,11.676,0,0,0,2.959-5.01,27.149,27.149,0,0,0,1.142-8.584,53.927,53.927,0,0,0-.732-9.492,16.608,16.608,0,0,0-3.076-7.148,8.441,8.441,0,0,1-1.992-4.805,4.747,4.747,0,0,1,1.933-3.838,12.838,12.838,0,0,1,4.951-2.314,26.179,26.179,0,0,1,12.657.029,12.431,12.431,0,0,1,5.039,2.461,5.459,5.459,0,0,1,1.963,4.365,10.719,10.719,0,0,1-1.582,4.981,22.067,22.067,0,0,0-2.872,10.9,28.571,28.571,0,0,0,1.172,7.471q1.171,4.25,2.9,8.818t3.545,9.024q2.109,5.1,3.632,9.257a20.408,20.408,0,0,1,1.524,6.387,21.642,21.642,0,0,1-2.256,10.02,16.289,16.289,0,0,1-6.826,6.914A23.842,23.842,0,0,1,178.425,321.821Z" fill="#ee7514"/>
    <path id="패스_1278" data-name="패스 1278" d="M264.441,321.821a16.111,16.111,0,0,1-8.027-2.109,16.664,16.664,0,0,1-6.065-5.83,16.02,16.02,0,0,1-2.314-8.643q0-5.741,3.867-12.539a50.564,50.564,0,0,0,4.775-12.217,57.12,57.12,0,0,0,2.08-15.029q0-3.045-1.23-3.34-.645,0-1.787,1.582a16.911,16.911,0,0,0-2.051,4.043,14.6,14.6,0,0,0-.908,5.1,12.649,12.649,0,0,0,.879,4.57,7.408,7.408,0,0,1,.644,2.871,4.94,4.94,0,0,1-1.406,3.6,8.834,8.834,0,0,1-3.633,2.168,15.281,15.281,0,0,1-9.346,0,8.817,8.817,0,0,1-3.662-2.168,4.94,4.94,0,0,1-1.406-3.6,7.375,7.375,0,0,1,.645-2.871,12.188,12.188,0,0,0,.879-4.511,14.607,14.607,0,0,0-.938-5.186,16.836,16.836,0,0,0-2.109-4.072q-1.173-1.582-1.758-1.582-1.115,0-1.113,3.984v2.051a44.964,44.964,0,0,0,2.138,13.74,51.294,51.294,0,0,0,4.658,10.869q3.868,6.8,3.868,12.539a16.02,16.02,0,0,1-2.315,8.643,16.746,16.746,0,0,1-6.035,5.83,16.07,16.07,0,0,1-8.057,2.109,25.247,25.247,0,0,1-11.982-2.549,17.359,17.359,0,0,1-7.119-6.621,17.045,17.045,0,0,1-2.344-8.642,19.3,19.3,0,0,1,.527-4.453,139.942,139.942,0,0,1,4.571-14.063q2.284-5.916,4.013-11.689a39.032,39.032,0,0,0,1.729-11.221,24.3,24.3,0,0,0-.791-6.182,23.16,23.16,0,0,0-2.578-6.005,10.5,10.5,0,0,1-1.787-5.157,5.229,5.229,0,0,1,1.9-4.189,12.09,12.09,0,0,1,4.893-2.373,25.32,25.32,0,0,1,6.269-.762,22.837,22.837,0,0,1,6.943,1.172,12.909,12.909,0,0,1,6.182,4.277l1.172,1.524q2.93,3.927,4.746,5.918t3.4,1.992q1.7,0,3.809-2.315t5.742-7.119a12.889,12.889,0,0,1,6.211-4.277,22.951,22.951,0,0,1,6.914-1.172,25.334,25.334,0,0,1,6.27.762,12.1,12.1,0,0,1,4.892,2.373,5.232,5.232,0,0,1,1.9,4.189,10.52,10.52,0,0,1-1.787,5.157,23.041,23.041,0,0,0-2.579,6.035,24.414,24.414,0,0,0-.791,6.152,39,39,0,0,0,1.729,11.221q1.728,5.772,4.014,11.689a140.708,140.708,0,0,1,4.57,14.063,18.566,18.566,0,0,1,.527,4.394,17.118,17.118,0,0,1-9.433,15.322A25.214,25.214,0,0,1,264.441,321.821Z" fill="#ee7514"/>
    <path id="패스_1279" data-name="패스 1279" d="M344.48,321.821a17.274,17.274,0,0,1-9.961-3.222,24,24,0,0,1-3.076-2.461q-.85-.879-1.377-.879a2.709,2.709,0,0,0-1.494.908q-.967.909-3.135,2.549a15.608,15.608,0,0,1-9.375,3.105q-8.613,0-14.209-2.373a17.941,17.941,0,0,1-8.32-6.533,17.028,17.028,0,0,1-2.725-9.551,38.353,38.353,0,0,1,1.553-10.781q1.553-5.331,3.545-10.547,1.873-4.922,3.31-9.785a33.814,33.814,0,0,0,1.436-9.609,24.415,24.415,0,0,0-.791-6.153,22.475,22.475,0,0,0-2.637-6.064,10.432,10.432,0,0,1-1.846-5.186,5.229,5.229,0,0,1,1.9-4.189,12.091,12.091,0,0,1,4.922-2.373,26.412,26.412,0,0,1,12.714.029,13.13,13.13,0,0,1,5.039,2.373,4.911,4.911,0,0,1,1.963,3.984,8.444,8.444,0,0,1-1.757,4.571,15.337,15.337,0,0,0-2.081,5.068,28.419,28.419,0,0,0-.732,6.592,32.2,32.2,0,0,0,1.582,10.547,19.109,19.109,0,0,0,4.043,7.119,7.184,7.184,0,0,0,5.156,2.549A5.694,5.694,0,0,0,332,279.868a11.666,11.666,0,0,0,2.958-5.01,27.146,27.146,0,0,0,1.143-8.584,54.023,54.023,0,0,0-.732-9.492,16.609,16.609,0,0,0-3.077-7.148,8.448,8.448,0,0,1-1.992-4.805,4.748,4.748,0,0,1,1.934-3.838,12.838,12.838,0,0,1,4.951-2.314,26.175,26.175,0,0,1,12.656.029,12.425,12.425,0,0,1,5.039,2.461,5.459,5.459,0,0,1,1.963,4.365,10.707,10.707,0,0,1-1.582,4.981,22.076,22.076,0,0,0-2.871,10.9,28.529,28.529,0,0,0,1.172,7.471q1.171,4.25,2.9,8.818t3.545,9.024q2.111,5.1,3.633,9.257a20.437,20.437,0,0,1,1.524,6.387,21.642,21.642,0,0,1-2.256,10.02,16.3,16.3,0,0,1-6.826,6.914A23.845,23.845,0,0,1,344.48,321.821Z" fill="#ee7514"/>
    <path id="패스_1280" data-name="패스 1280" d="M422.819,321.821q-7.91,0-13.007-2.9a18.5,18.5,0,0,1-7.529-7.588,21.676,21.676,0,0,1-2.432-10.137,31.2,31.2,0,0,1,1.172-8.261q1.171-4.276,2.754-8.731,1.639-4.686,2.93-9.463A36.448,36.448,0,0,0,408,265.22a22.55,22.55,0,0,0-3.282-11.953,12.227,12.227,0,0,1-2.05-5.977q0-5.682,9.375-7.91,7.031-1.7,18.983-1.7,5.508,0,10.02.175,3.047.12,4.922.118a4.491,4.491,0,0,1,3.135,1.142,7.182,7.182,0,0,1,1.9,2.9,10.3,10.3,0,0,1,.644,3.574,8.129,8.129,0,0,1-1.054,4.16,3.382,3.382,0,0,1-3.106,1.816,4.955,4.955,0,0,1-1.465-.234,29.435,29.435,0,0,0-6.65-1.348q-3.428-.291-8.467-.293a7.126,7.126,0,0,0-3.838.938,6.3,6.3,0,0,0-2.226,2.256,5.247,5.247,0,0,0-.733,2.549,3.664,3.664,0,0,0,1.143,2.783A4.541,4.541,0,0,0,428.5,259.3a16.824,16.824,0,0,0,3.984-.469q1.934-.468,3.633-1.055a13.016,13.016,0,0,1,4.219-.937,3.384,3.384,0,0,1,3.047,2.138A9.474,9.474,0,0,1,444.5,263.4a6.877,6.877,0,0,1-.762,3.223,2.528,2.528,0,0,1-2.4,1.465,17.618,17.618,0,0,1-3.164-.352,23.87,23.87,0,0,0-5.859-.644,17.108,17.108,0,0,0-5.127.556,2.231,2.231,0,0,0-1.612,2.315q0,1.934,2.051,5.332a22.933,22.933,0,0,0,3.516,4.717q2.109,2.2,4.511,4.365,2.93,2.637,5.684,5.654a27.033,27.033,0,0,1,4.541,6.856,21.277,21.277,0,0,1,1.787,9.052,12.012,12.012,0,0,1-3.574,9,22,22,0,0,1-9.258,5.185A41.678,41.678,0,0,1,422.819,321.821Z" fill="#ee7514"/>
    <path id="패스_1281" data-name="패스 1281" d="M481.12,322a32.694,32.694,0,0,1-13.682-2.637,26.049,26.049,0,0,1-9.462-7.119,29.853,29.853,0,0,1-5.479-10.224,39.807,39.807,0,0,1-1.787-11.895,45.51,45.51,0,0,1,2.227-13.975,42.7,42.7,0,0,1,6.445-12.6,32.6,32.6,0,0,1,10.283-9.053,27.746,27.746,0,0,1,13.8-3.4,22.4,22.4,0,0,1,10.9,2.783,23.826,23.826,0,0,1,8.291,7.383,17.166,17.166,0,0,1,3.194,9.99q0,3.927-5.508,5.273a44.645,44.645,0,0,1-10.43.938l-2.812-.059a23.959,23.959,0,0,0-7.793.938q-2.52.939-2.52,2.343,0,1.467,2.549,2.461a21.557,21.557,0,0,0,7.295,1.055,17.6,17.6,0,0,0,7.969-1.7,12.4,12.4,0,0,1,6.035-1.817,9.1,9.1,0,0,1,6.474,2.579,16.781,16.781,0,0,1,4.19,6.679,27.5,27.5,0,0,1,1.523,8.965,18.071,18.071,0,0,1-2.724,9.873,23.581,23.581,0,0,1-7.266,7.237,35.844,35.844,0,0,1-10.2,4.453A44.057,44.057,0,0,1,481.12,322Zm-.176-50.625a17.523,17.523,0,0,0,5.479-.7,6.554,6.554,0,0,0,2.988-1.787,3.353,3.353,0,0,0,.908-2.139q0-1.991-2.373-3.662a10.407,10.407,0,0,0-6.123-1.67,7.372,7.372,0,0,0-5.215,1.9,5.55,5.55,0,0,0-2.05,4.073,3.587,3.587,0,0,0,1.435,2.754Q477.429,271.372,480.944,271.372Z" fill="#ee7514"/>
    <path id="패스_1282" data-name="패스 1282" d="M547.565,322.642a47.671,47.671,0,0,1-11.25-1.319,31.8,31.8,0,0,1-9.785-4.1,21.6,21.6,0,0,1-6.914-7.032,19.1,19.1,0,0,1-2.578-10.107,26.384,26.384,0,0,1,1.494-8.7,20.415,20.415,0,0,1,4.043-7.119,7.637,7.637,0,0,1,5.772-2.813,7.9,7.9,0,0,1,4.336,1.465q5.918,3.927,11.425,3.926a8.686,8.686,0,0,0,4.219-.879,2.506,2.506,0,0,0,1.582-2.109,4.078,4.078,0,0,0-1.113-2.374,8.935,8.935,0,0,0-3.6-2.4,17.634,17.634,0,0,0-6.591-1.025,32.91,32.91,0,0,1-12.539-2.227q-6.915-2.87-6.915-9.023a10.233,10.233,0,0,1,2.549-6.885,19.69,19.69,0,0,1,6.826-4.922,41.218,41.218,0,0,1,9.581-2.959,58.2,58.2,0,0,1,10.751-1,54.027,54.027,0,0,1,13.008,1.523,25.908,25.908,0,0,1,10.02,4.6,9.412,9.412,0,0,1,3.867,7.647,5.531,5.531,0,0,1-2.871,4.746,11.327,11.327,0,0,1-6.328,1.875,8.544,8.544,0,0,1-6.475-2.608,14.5,14.5,0,0,0-5.566-3.72,17.3,17.3,0,0,0-5.889-1.114,12.477,12.477,0,0,0-5.3,1.026q-2.2,1.026-2.2,2.314a2.616,2.616,0,0,0,.908,1.7,7.253,7.253,0,0,0,2.93,1.612,17.629,17.629,0,0,0,5.42.673,39.8,39.8,0,0,1,14.268,2.286,28.477,28.477,0,0,1,9.755,5.976,24.051,24.051,0,0,1,5.625,8.086,22.974,22.974,0,0,1-1.142,20.244A25.553,25.553,0,0,1,571,316.138a36.479,36.479,0,0,1-11.016,4.892A48.4,48.4,0,0,1,547.565,322.642Z" fill="#ee7514"/>
    <path id="패스_1283" data-name="패스 1283" d="M614.362,322.407a30.319,30.319,0,0,1-12.832-2.724,22.91,22.91,0,0,1-9.521-8,23.159,23.159,0,0,1-3.721-13.008,29.468,29.468,0,0,1,1.231-7.764q1.23-4.422,2.871-9.4,1.172-3.573,2.285-7.266a22.525,22.525,0,0,0,1.347-6.094q0-2.109-1.933-2.109a8.737,8.737,0,0,0-2.871.586,25.085,25.085,0,0,1-7.266,1.172,2.265,2.265,0,0,1-2.109-1.611,8.764,8.764,0,0,1-.7-3.545,9.471,9.471,0,0,1,1-4.395,3.155,3.155,0,0,1,2.929-1.934,15.831,15.831,0,0,1,3.809.762,26.082,26.082,0,0,0,5.039.938q4.1,0,4.1-2.871,0-2.226-2.578-6.329a9.266,9.266,0,0,1-1.583-4.57,4.534,4.534,0,0,1,1.67-3.633,10.43,10.43,0,0,1,4.307-2.05,22.9,22.9,0,0,1,5.449-.645,21.222,21.222,0,0,1,5.039.586,7.821,7.821,0,0,1,3.926,2.2,6.621,6.621,0,0,1,1.524,4.717,25.366,25.366,0,0,1-1.582,7.441,13.444,13.444,0,0,0-.879,3.633c0,.861.507,1.289,1.523,1.289a27.016,27.016,0,0,0,3.984-.41l8.379-1.289a14.359,14.359,0,0,1,1.934-.234,3.363,3.363,0,0,1,3.164,1.787,7.991,7.991,0,0,1,1,3.955,8.365,8.365,0,0,1-.967,4.1,2.951,2.951,0,0,1-2.666,1.758,15.764,15.764,0,0,1-3.867-.937,30.414,30.414,0,0,0-6.914-1.465q-4.746,0-4.746,3.633a11.36,11.36,0,0,0,1,4.043,16.249,16.249,0,0,0,4.131,6.064,8.328,8.328,0,0,0,5.654,2.256,8.863,8.863,0,0,0,4.541-1.23,22.329,22.329,0,0,0,3.487-2.637,21.971,21.971,0,0,1,2.9-2.256,6.167,6.167,0,0,1,3.428-.967q3.984,0,6.181,4.8t2.2,12.539a30.072,30.072,0,0,1-2.989,13.828,28.83,28.83,0,0,1-7.851,9.7,33.7,33.7,0,0,1-10.752,5.713A38.336,38.336,0,0,1,614.362,322.407Z" fill="#ee7514"/>
    <path id="패스_1284" data-name="패스 1284" d="M670.2,321.821a25.85,25.85,0,0,1-11.338-2.138,14.554,14.554,0,0,1-6.386-5.567,14.126,14.126,0,0,1-2.022-7.295,16.488,16.488,0,0,1,.41-3.633q1.524-6.208,3.4-11.542,1.406-4.044,2.4-7.647a25.459,25.459,0,0,0,1-6.768,13.762,13.762,0,0,0-2.168-7.441,8.309,8.309,0,0,1-1.523-4.336,4.694,4.694,0,0,1,1.7-3.662,10.873,10.873,0,0,1,4.424-2.227,21.964,21.964,0,0,1,5.713-.732,22.729,22.729,0,0,1,6.005.791A12.31,12.31,0,0,1,676.589,262a4.88,4.88,0,0,1,1.875,3.867,6.933,6.933,0,0,1-.879,3.164,17.275,17.275,0,0,0-1.523,7.559,35.877,35.877,0,0,0,1.816,10.869,33.926,33.926,0,0,0,4.98,9.99q3.927,5.334,3.926,10.371a11.782,11.782,0,0,1-2.4,7.325,16.135,16.135,0,0,1-6.211,4.921A18.8,18.8,0,0,1,670.2,321.821Zm-5.39-68.379a21.8,21.8,0,0,1-7.295-1.025,9.4,9.4,0,0,1-4.19-2.666,5.443,5.443,0,0,1-1.348-3.516,6.31,6.31,0,0,1,1.524-3.925,10.923,10.923,0,0,1,4.394-3.164,17.333,17.333,0,0,1,6.856-1.231,18.05,18.05,0,0,1,7.06,1.231,11.314,11.314,0,0,1,4.454,3.134,6.136,6.136,0,0,1,1.552,3.9,5.369,5.369,0,0,1-1.377,3.515,9.838,9.838,0,0,1-4.248,2.7A21.744,21.744,0,0,1,664.812,253.442Z" fill="#ee7514"/>
    <path id="패스_1285" data-name="패스 1285" d="M715.262,321.821a29.414,29.414,0,0,1-14.825-3.633q-6.856-4.1-6.856-11.484V295.161q0-5.916-.322-11.631a39.986,39.986,0,0,0-1.992-10.634,20.1,20.1,0,0,0-5.479-8.438q-3.4-3.221-3.4-5.859a5.124,5.124,0,0,1,2.138-4.073,15.2,15.2,0,0,1,5.391-2.666,23.519,23.519,0,0,1,6.533-.937,17.863,17.863,0,0,1,5.01.674,8.735,8.735,0,0,1,3.75,2.08,4.862,4.862,0,0,1,1.435,3.633,11.374,11.374,0,0,1-.234,2.226,14.543,14.543,0,0,0-.41,3.809,43.026,43.026,0,0,0,1.435,10.693,41.849,41.849,0,0,0,3.545,9.492q2.111,3.9,4.162,3.9,2.226,0,5.039-5.625a40.913,40.913,0,0,0,3.1-9.229,44.6,44.6,0,0,0,1.172-9.521,15.91,15.91,0,0,0-.41-3.985,7.836,7.836,0,0,1-.293-1.992,4.75,4.75,0,0,1,1.347-3.515,8.17,8.17,0,0,1,3.545-1.993,16.747,16.747,0,0,1,4.717-.644,22.225,22.225,0,0,1,6.475.967,15.258,15.258,0,0,1,5.332,2.724,5.3,5.3,0,0,1,2.138,4.219q0,2.872-3.457,5.977a20.119,20.119,0,0,0-5.478,8.378,39.068,39.068,0,0,0-1.992,10.518q-.323,5.656-.323,11.514V306.7a11.8,11.8,0,0,1-3.134,8.35,19.521,19.521,0,0,1-7.91,5.068A28.892,28.892,0,0,1,715.262,321.821Z" fill="#ee7514"/>
    <path id="패스_1286" data-name="패스 1286" d="M794.363,321.821a14.94,14.94,0,0,1-7.91-2.168q-.822-.467-1.494-.791a3.3,3.3,0,0,0-1.436-.322,11.879,11.879,0,0,0-4.628,1.641,7.461,7.461,0,0,1-3.223,1.113,22.071,22.071,0,0,0-3.047.2,19.74,19.74,0,0,1-2.754.205,29.293,29.293,0,0,1-13.184-2.666,19.75,19.75,0,0,1-8.056-6.914,16.379,16.379,0,0,1-2.725-8.994,13.309,13.309,0,0,1,1.875-6.914,25.409,25.409,0,0,1,4.981-5.947,57.643,57.643,0,0,1,6.855-5.245q3.749-2.46,7.617-4.8,4.688-2.752,8.555-5.449a20.261,20.261,0,0,0,4.014-3.6,4.657,4.657,0,0,0,1.2-2.607q0-1.758-2.578-1.817a10.578,10.578,0,0,0-5.3,1.9,15.484,15.484,0,0,0-5.3,6.065,4.673,4.673,0,0,1-4.511,2.637,11.742,11.742,0,0,1-6.065-1.846,16.941,16.941,0,0,1-5.156-4.775,10.461,10.461,0,0,1-2.08-6.153,7.5,7.5,0,0,1,2.812-5.683,23.738,23.738,0,0,1,7.383-4.278,51.382,51.382,0,0,1,10.078-2.666,67.4,67.4,0,0,1,10.957-.908,48.369,48.369,0,0,1,11.192,1.2,18.767,18.767,0,0,1,8.027,3.78,8.475,8.475,0,0,1,2.988,6.738,23.4,23.4,0,0,1-1.406,5.508,24.536,24.536,0,0,0-1.7,6.562q0,6.5,6.738,18.164,3.573,6.8,3.574,12.363a16.137,16.137,0,0,1-16.289,16.465Zm-24.316-25.136a5.463,5.463,0,0,0,4.16-2.315,18.832,18.832,0,0,0,3.076-5.215,13.55,13.55,0,0,0,1.143-4.658q0-1.523-.938-1.523-1.639,0-4.072,2.168a26.278,26.278,0,0,0-4.307,4.951,8.936,8.936,0,0,0-1.875,4.6,1.87,1.87,0,0,0,.586,1.465A3.425,3.425,0,0,0,770.047,296.685Z" fill="#ee7514"/>
    <path id="패스_1287" data-name="패스 1287" d="M838.309,321.821a25.782,25.782,0,0,1-12.6-2.783,19.318,19.318,0,0,1-7.588-7.148,17.919,17.919,0,0,1-2.549-9.17,17.274,17.274,0,0,1,.293-3.164,120,120,0,0,1,3.574-13.828q1.64-5.389,2.9-10.665a44.277,44.277,0,0,0,1.26-10.312,27.96,27.96,0,0,0-.967-7.324,22.754,22.754,0,0,0-3.252-6.914q-2.286-3.341-2.285-5.684a4.949,4.949,0,0,1,1.816-3.984,11.4,11.4,0,0,1,4.688-2.227,25.524,25.524,0,0,1,6.093-.7,26.44,26.44,0,0,1,6.592.82,13.8,13.8,0,0,1,5.274,2.491,5.165,5.165,0,0,1,2.08,4.189,8.243,8.243,0,0,1-1.524,4.277,17.344,17.344,0,0,0-2.226,5.977,40.4,40.4,0,0,0-.7,7.793,66.142,66.142,0,0,0,2.11,16.289,45.25,45.25,0,0,0,5.273,13.242q5.391,8.086,5.391,15.117a13.183,13.183,0,0,1-3.9,9.961A13.506,13.506,0,0,1,838.309,321.821Z" fill="#ee7514"/>
  </g>
</svg>
