<svg xmlns="http://www.w3.org/2000/svg" width="317.403" height="102.773" viewBox="0 0 317.403 102.773">
  <g id="그룹_781" data-name="그룹 781" transform="translate(-342.48 -150.974)">
    <path id="패스_1198" data-name="패스 1198" d="M374.121,235.876a49.157,49.157,0,0,1-15.293-2.344,26.842,26.842,0,0,1-11.661-7.148q-4.687-5.039-4.687-13.008A27.385,27.385,0,0,1,344,204.587q1.524-4.511,3.516-9.2,2.167-4.923,3.867-10.02a32.065,32.065,0,0,0,1.7-10.195,21.714,21.714,0,0,0-2.578-10.43,9.523,9.523,0,0,1-1.172-4.16,6.38,6.38,0,0,1,3.047-5.449A21.722,21.722,0,0,1,360.351,152a51.393,51.393,0,0,1,10.488-1.025,61.543,61.543,0,0,1,12.979,1.318,29.5,29.5,0,0,1,9.932,3.809q3.809,2.49,3.925,6.064,0,4.922-7.91,9.2-1.406.764-2.139,1.231c-.489.313-.732.606-.732.879q0,.879,3.516,2.109a36.526,36.526,0,0,1,17.168,12.48q6.327,8.5,6.5,20.625a19.9,19.9,0,0,1-3.516,11.631,29.5,29.5,0,0,1-9.316,8.526,47.887,47.887,0,0,1-12.891,5.244A58.072,58.072,0,0,1,374.121,235.876ZM372.3,171.95a5.6,5.6,0,0,0,2.344-.644,27.837,27.837,0,0,0,6.8-4.541q2.051-2.08,2.051-3.487,0-2.284-4.043-2.461a14.692,14.692,0,0,0-4.161.7,7.587,7.587,0,0,0-4.13,3.105,7.793,7.793,0,0,0-1.377,4.16,3.931,3.931,0,0,0,.615,2.256A2.138,2.138,0,0,0,372.3,171.95Zm11.426,19.805a9.53,9.53,0,0,0,4.365-.733,2.131,2.131,0,0,0,1.319-1.845q0-1.641-2.344-3.574a22.157,22.157,0,0,0-5.8-3.34,17.949,17.949,0,0,0-6.8-1.407,4.84,4.84,0,0,0-3.4,1,3.184,3.184,0,0,0-1.055,2.4,6.178,6.178,0,0,0,1.816,4.043Q374.882,191.755,383.73,191.755Z" fill="#242424"/>
    <path id="패스_1199" data-name="패스 1199" d="M467.168,235a14.947,14.947,0,0,1-7.91-2.168q-.822-.468-1.494-.791a3.3,3.3,0,0,0-1.436-.322,11.881,11.881,0,0,0-4.629,1.64,7.458,7.458,0,0,1-3.222,1.114,22.058,22.058,0,0,0-3.047.205,19.894,19.894,0,0,1-2.754.205,29.29,29.29,0,0,1-13.184-2.666,19.768,19.768,0,0,1-8.057-6.914,16.389,16.389,0,0,1-2.725-8.994,13.306,13.306,0,0,1,1.875-6.914,25.438,25.438,0,0,1,4.981-5.948,57.734,57.734,0,0,1,6.856-5.244q3.748-2.46,7.617-4.8,4.688-2.754,8.555-5.45a20.223,20.223,0,0,0,4.013-3.6,4.665,4.665,0,0,0,1.2-2.608q0-1.758-2.579-1.816a10.568,10.568,0,0,0-5.3,1.9,15.47,15.47,0,0,0-5.3,6.065,4.673,4.673,0,0,1-4.512,2.636,11.74,11.74,0,0,1-6.064-1.845,16.934,16.934,0,0,1-5.156-4.776,10.46,10.46,0,0,1-2.081-6.152,7.5,7.5,0,0,1,2.813-5.684,23.737,23.737,0,0,1,7.383-4.277,51.313,51.313,0,0,1,10.078-2.666,67.289,67.289,0,0,1,10.957-.908,48.354,48.354,0,0,1,11.191,1.2,18.754,18.754,0,0,1,8.028,3.779,8.478,8.478,0,0,1,2.988,6.739,23.452,23.452,0,0,1-1.406,5.507,24.539,24.539,0,0,0-1.7,6.563q0,6.5,6.738,18.164,3.573,6.8,3.574,12.363A16.141,16.141,0,0,1,467.168,235ZM442.852,209.86a5.465,5.465,0,0,0,4.16-2.314,18.847,18.847,0,0,0,3.076-5.215,13.549,13.549,0,0,0,1.142-4.658q0-1.522-.937-1.524-1.641,0-4.072,2.168a26.285,26.285,0,0,0-4.307,4.952,8.936,8.936,0,0,0-1.875,4.6,1.868,1.868,0,0,0,.586,1.465A3.426,3.426,0,0,0,442.852,209.86Z" fill="#242424"/>
    <path id="패스_1200" data-name="패스 1200" d="M523.477,253.747a48.211,48.211,0,0,1-12.627-1.67,35,35,0,0,1-11.192-5.215,26.118,26.118,0,0,1-8-9.111,28.015,28.015,0,0,1-2.988-13.418q0-7.147,2.812-11.455a8.877,8.877,0,0,1,7.5-4.424,23.1,23.1,0,0,1,7.735,1.875,26.276,26.276,0,0,0,4.922,1.231,38.5,38.5,0,0,0,6.445.527,25.307,25.307,0,0,0,5.42-.557,9.165,9.165,0,0,0,4.16-1.963,4.794,4.794,0,0,0,1.611-3.808,2.861,2.861,0,0,0-1.318-2.373,6.791,6.791,0,0,0-4.014-.967q-2.7.058-4.8.234t-4.454.176q-25.136,0-25.136-16.055a15.915,15.915,0,0,1,3.545-10.459,25.588,25.588,0,0,1,9.316-6.943,52.509,52.509,0,0,1,12.715-3.867,78.645,78.645,0,0,1,13.74-1.231q3.222,0,6.914.176,14.472.762,14.473,7.969a47.8,47.8,0,0,1-.938,7.148q-.645,3.927-1.259,8.555a66.294,66.294,0,0,0-.616,8.731,109.072,109.072,0,0,0,.879,13.769,52.363,52.363,0,0,0,2.754,9.316q1.172,3.282,2.139,6.5a20.6,20.6,0,0,1,.967,5.86,16.845,16.845,0,0,1-2.549,9.228,21.551,21.551,0,0,1-6.914,6.739,34.208,34.208,0,0,1-9.844,4.1A46.58,46.58,0,0,1,523.477,253.747Zm-2.7-57.656a27.122,27.122,0,0,0,7.5-.85,10.871,10.871,0,0,0,4.248-2.109,3.507,3.507,0,0,0,1.377-2.49,2.829,2.829,0,0,0-1.142-2.11,9.171,9.171,0,0,0-3.955-1.611,38.767,38.767,0,0,0-7.852-.615q-7.558,0-10.869,1.377t-3.311,2.959q0,1.934,3.9,3.691A24.761,24.761,0,0,0,520.781,196.091Z" fill="#242424"/>
    <path id="패스_1201" data-name="패스 1201" d="M587.227,235.173a32.688,32.688,0,0,1-13.682-2.637,26.057,26.057,0,0,1-9.463-7.119,29.856,29.856,0,0,1-5.478-10.225,39.738,39.738,0,0,1-1.788-11.894,45.5,45.5,0,0,1,2.227-13.975,42.707,42.707,0,0,1,6.445-12.6,32.611,32.611,0,0,1,10.283-9.053,27.747,27.747,0,0,1,13.8-3.4,22.406,22.406,0,0,1,10.9,2.784,23.85,23.85,0,0,1,8.291,7.382,17.166,17.166,0,0,1,3.193,9.991q0,3.926-5.508,5.273a44.64,44.64,0,0,1-10.429.938l-2.813-.059a23.931,23.931,0,0,0-7.793.938q-2.52.938-2.519,2.343,0,1.466,2.548,2.461a21.586,21.586,0,0,0,7.295,1.055,17.611,17.611,0,0,0,7.969-1.7,12.39,12.39,0,0,1,6.035-1.817,9.106,9.106,0,0,1,6.475,2.578,16.783,16.783,0,0,1,4.189,6.68,27.494,27.494,0,0,1,1.524,8.965,18.065,18.065,0,0,1-2.725,9.873,23.563,23.563,0,0,1-7.265,7.236,35.85,35.85,0,0,1-10.2,4.453A44.014,44.014,0,0,1,587.227,235.173Zm-.176-50.625a17.55,17.55,0,0,0,5.478-.7,6.575,6.575,0,0,0,2.989-1.787,3.36,3.36,0,0,0,.908-2.139q0-1.992-2.373-3.662a10.409,10.409,0,0,0-6.123-1.67,7.364,7.364,0,0,0-5.215,1.9,5.546,5.546,0,0,0-2.051,4.072,3.582,3.582,0,0,0,1.436,2.754Q583.536,184.549,587.051,184.548Z" fill="#242424"/>
    <path id="패스_1202" data-name="패스 1202" d="M646.23,235a25.789,25.789,0,0,1-12.6-2.783,19.32,19.32,0,0,1-7.588-7.149A17.915,17.915,0,0,1,623.5,215.9a17.293,17.293,0,0,1,.293-3.165,119.852,119.852,0,0,1,3.574-13.828q1.64-5.39,2.9-10.664a44.275,44.275,0,0,0,1.259-10.312,27.948,27.948,0,0,0-.966-7.324,22.759,22.759,0,0,0-3.252-6.915q-2.286-3.339-2.285-5.683a4.949,4.949,0,0,1,1.816-3.984,11.386,11.386,0,0,1,4.687-2.227,25.537,25.537,0,0,1,6.094-.7,26.441,26.441,0,0,1,6.592.82,13.786,13.786,0,0,1,5.273,2.49,5.165,5.165,0,0,1,2.08,4.19,8.246,8.246,0,0,1-1.523,4.277,17.328,17.328,0,0,0-2.227,5.977,40.471,40.471,0,0,0-.7,7.793,66.1,66.1,0,0,0,2.11,16.289,45.262,45.262,0,0,0,5.273,13.242q5.391,8.086,5.391,15.117a13.184,13.184,0,0,1-3.9,9.961A13.507,13.507,0,0,1,646.23,235Z" fill="#242424"/>
  </g>
</svg>
