<svg xmlns="http://www.w3.org/2000/svg" width="234.082" height="84.024" viewBox="0 0 234.082 84.024">
  <g id="그룹_778" data-name="그룹 778" transform="translate(-35.675 -43.096)">
    <path id="패스_1183" data-name="패스 1183" d="M97.433,127a24.282,24.282,0,0,1-7.148-1.113,22.283,22.283,0,0,1-6.68-3.34,17.3,17.3,0,0,1-4.922-5.566,15.645,15.645,0,0,1-1.875-7.793q0-5.45,3.516-12.481,2.87-5.857,2.871-9.9a9.723,9.723,0,0,0-1.143-4.951A7.7,7.7,0,0,0,79.093,78.9a7.813,7.813,0,0,0-3.808-1,7.3,7.3,0,0,0-6.358,3.721,8.953,8.953,0,0,0-1.084,4.6q0,4.57,3.223,10.488,3.809,7.326,3.809,12.833a14.955,14.955,0,0,1-1.934,7.734,17.237,17.237,0,0,1-5.039,5.449,22.654,22.654,0,0,1-6.8,3.223A25.981,25.981,0,0,1,53.957,127a20.879,20.879,0,0,1-12.979-4.013,12.307,12.307,0,0,1-5.3-10.225,22.346,22.346,0,0,1,1.26-7.178,59.358,59.358,0,0,1,3.252-7.675q1.992-3.956,4.219-8,2.46-4.336,4.629-8.7a66.79,66.79,0,0,0,3.6-8.7,26.934,26.934,0,0,0,1.436-8.5,19.158,19.158,0,0,0-.762-5.332,11.113,11.113,0,0,1-.469-3.047,8.8,8.8,0,0,1,3.282-7,21.381,21.381,0,0,1,8.437-4.16,43.124,43.124,0,0,1,21.621,0,21.4,21.4,0,0,1,8.438,4.16,8.8,8.8,0,0,1,3.281,7,11.113,11.113,0,0,1-.469,3.047,18.514,18.514,0,0,0-.762,5.274,25.96,25.96,0,0,0,1.5,8.5,65.26,65.26,0,0,0,3.75,8.7q2.253,4.365,4.716,8.7,2.343,4.1,4.395,8.027a58.734,58.734,0,0,1,3.369,7.676,21.706,21.706,0,0,1,1.318,7.207,12.309,12.309,0,0,1-5.3,10.225A20.885,20.885,0,0,1,97.433,127ZM75.812,71.045a5.842,5.842,0,0,0,3.135-.849,2.962,2.962,0,0,0,1.377-2.725,6.6,6.6,0,0,0-.528-2.344Q77.687,60.5,75.4,60.5q-2.52,0-4.688,5.507a4.116,4.116,0,0,0-.234,1.289,3.06,3.06,0,0,0,1.7,2.754A7.058,7.058,0,0,0,75.812,71.045Z" fill="#242424"/>
    <path id="패스_1184" data-name="패스 1184" d="M171.085,127.12a14.938,14.938,0,0,1-7.441-1.875A72.211,72.211,0,0,1,148.761,127q-15.7,0-23.086-8.671-6.21-7.325-6.211-18.75A36.74,36.74,0,0,1,129.63,74.122a35.452,35.452,0,0,1,26.045-10.928,19.323,19.323,0,0,0,4.571-.41q1.581-.409,1.582-1.641,0-1.758-3.164-5.566a8.236,8.236,0,0,1-2.11-4.864,5.306,5.306,0,0,1,1.9-4.1A12.855,12.855,0,0,1,163.322,44,20.953,20.953,0,0,1,169.5,43.1a32,32,0,0,1,6.5.645,12.207,12.207,0,0,1,5.1,2.2,5.038,5.038,0,0,1,1.992,4.189,11.015,11.015,0,0,1-1.523,4.981A21.719,21.719,0,0,0,179,65.655q0,6.738,3.75,16.113,1.638,4.1,3.457,8.262,6.327,13.77,6.328,19.16a17.637,17.637,0,0,1-2.227,8.467,17.21,17.21,0,0,1-6.972,6.8Q178.585,127.12,171.085,127.12Zm-22.675-36.5a21.216,21.216,0,0,0,5.39-.879,14.746,14.746,0,0,0,7.471-4.981,10.932,10.932,0,0,0,2.666-6.562,5.107,5.107,0,0,0-1.377-3.633,5.578,5.578,0,0,0-4.248-1.465,14.711,14.711,0,0,0-3.75.586,17.346,17.346,0,0,0-8.437,5.391q-3.224,3.809-3.223,7.09a4.275,4.275,0,0,0,1.289,3.193A5.885,5.885,0,0,0,148.41,90.616Z" fill="#242424"/>
    <path id="패스_1185" data-name="패스 1185" d="M248.312,127.12a14.935,14.935,0,0,1-7.441-1.875A72.211,72.211,0,0,1,225.988,127q-15.7,0-23.086-8.671-6.211-7.325-6.211-18.75a36.74,36.74,0,0,1,10.166-25.459A35.448,35.448,0,0,1,232.9,63.194a19.313,19.313,0,0,0,4.57-.41q1.582-.409,1.582-1.641,0-1.758-3.164-5.566a8.24,8.24,0,0,1-2.109-4.864,5.306,5.306,0,0,1,1.9-4.1A12.858,12.858,0,0,1,240.548,44a20.965,20.965,0,0,1,6.182-.908,32,32,0,0,1,6.5.645,12.218,12.218,0,0,1,5.1,2.2,5.038,5.038,0,0,1,1.992,4.189,11.005,11.005,0,0,1-1.524,4.981,21.731,21.731,0,0,0-2.578,10.547q0,6.738,3.75,16.113,1.64,4.1,3.457,8.262,6.329,13.77,6.328,19.16a17.647,17.647,0,0,1-2.226,8.467,17.219,17.219,0,0,1-6.973,6.8Q255.812,127.12,248.312,127.12Zm-22.676-36.5a21.222,21.222,0,0,0,5.391-.879,14.75,14.75,0,0,0,7.471-4.981,10.932,10.932,0,0,0,2.666-6.562,5.107,5.107,0,0,0-1.377-3.633,5.578,5.578,0,0,0-4.248-1.465,14.711,14.711,0,0,0-3.75.586,17.353,17.353,0,0,0-8.438,5.391q-3.222,3.809-3.223,7.09a4.275,4.275,0,0,0,1.289,3.193A5.887,5.887,0,0,0,225.636,90.616Z" fill="#242424"/>
  </g>
</svg>
