<svg xmlns="http://www.w3.org/2000/svg" width="237.95" height="83.906" viewBox="0 0 237.95 83.906">
  <g id="그룹_779" data-name="그룹 779" transform="translate(-342.07 -43.096)">
    <path id="패스_1186" data-name="패스 1186" d="M403.242,127a16.115,16.115,0,0,1-8.028-2.109,16.67,16.67,0,0,1-6.064-5.83,16.012,16.012,0,0,1-2.315-8.643q0-5.74,3.868-12.539a50.571,50.571,0,0,0,4.775-12.216,57.131,57.131,0,0,0,2.08-15.03q0-3.047-1.23-3.34-.646,0-1.787,1.582a16.912,16.912,0,0,0-2.051,4.043,14.576,14.576,0,0,0-.908,5.1,12.665,12.665,0,0,0,.878,4.57,7.388,7.388,0,0,1,.645,2.871,4.943,4.943,0,0,1-1.406,3.6,8.845,8.845,0,0,1-3.633,2.168,15.282,15.282,0,0,1-9.346,0,8.828,8.828,0,0,1-3.662-2.168,4.943,4.943,0,0,1-1.406-3.6,7.386,7.386,0,0,1,.644-2.871,12.191,12.191,0,0,0,.879-4.511,14.624,14.624,0,0,0-.937-5.186,16.765,16.765,0,0,0-2.11-4.072q-1.173-1.583-1.757-1.582-1.115,0-1.114,3.984v2.051a44.935,44.935,0,0,0,2.139,13.74,51.392,51.392,0,0,0,4.658,10.869q3.867,6.8,3.867,12.539a16.02,16.02,0,0,1-2.314,8.643,16.754,16.754,0,0,1-6.035,5.83A16.07,16.07,0,0,1,363.515,127a25.256,25.256,0,0,1-11.982-2.548,17.372,17.372,0,0,1-7.119-6.621,17.054,17.054,0,0,1-2.344-8.643,19.3,19.3,0,0,1,.527-4.453,140.191,140.191,0,0,1,4.57-14.063q2.286-5.918,4.014-11.689a39.032,39.032,0,0,0,1.729-11.221,24.291,24.291,0,0,0-.791-6.181,23.2,23.2,0,0,0-2.578-6.006,10.506,10.506,0,0,1-1.788-5.157,5.229,5.229,0,0,1,1.9-4.189,12.066,12.066,0,0,1,4.892-2.373,25.328,25.328,0,0,1,6.27-.762,22.806,22.806,0,0,1,6.943,1.172,12.909,12.909,0,0,1,6.182,4.277l1.172,1.524q2.93,3.927,4.746,5.918t3.4,1.992q1.7,0,3.809-2.314t5.742-7.12a12.889,12.889,0,0,1,6.211-4.277,22.925,22.925,0,0,1,6.914-1.172,25.334,25.334,0,0,1,6.27.762,12.066,12.066,0,0,1,4.892,2.373A5.232,5.232,0,0,1,419,50.42a10.5,10.5,0,0,1-1.787,5.157,23.036,23.036,0,0,0-2.578,6.035,24.408,24.408,0,0,0-.791,6.152,39,39,0,0,0,1.729,11.221q1.727,5.772,4.013,11.689a140.709,140.709,0,0,1,4.571,14.063,18.507,18.507,0,0,1,.527,4.394,17.115,17.115,0,0,1-9.434,15.323A25.225,25.225,0,0,1,403.242,127Z" fill="#242424"/>
    <path id="패스_1187" data-name="패스 1187" d="M448.359,127a25.847,25.847,0,0,1-11.338-2.138,14.554,14.554,0,0,1-6.386-5.567A14.124,14.124,0,0,1,428.613,112a16.472,16.472,0,0,1,.41-3.632q1.524-6.212,3.4-11.543,1.406-4.044,2.4-7.647a25.458,25.458,0,0,0,1-6.767,13.76,13.76,0,0,0-2.168-7.442,8.308,8.308,0,0,1-1.523-4.336,4.689,4.689,0,0,1,1.7-3.662,10.854,10.854,0,0,1,4.424-2.226,21.926,21.926,0,0,1,5.713-.733,22.743,22.743,0,0,1,6.006.791,12.348,12.348,0,0,1,4.775,2.373,4.88,4.88,0,0,1,1.875,3.867,6.937,6.937,0,0,1-.879,3.164,17.276,17.276,0,0,0-1.523,7.559,35.872,35.872,0,0,0,1.816,10.869,33.89,33.89,0,0,0,4.981,9.99q3.924,5.334,3.925,10.372a11.777,11.777,0,0,1-2.4,7.324,16.147,16.147,0,0,1-6.211,4.922A18.8,18.8,0,0,1,448.359,127Zm-5.39-68.378a21.818,21.818,0,0,1-7.295-1.026,9.408,9.408,0,0,1-4.19-2.666,5.435,5.435,0,0,1-1.347-3.515,6.309,6.309,0,0,1,1.523-3.926,10.926,10.926,0,0,1,4.395-3.164A17.317,17.317,0,0,1,442.91,43.1a18.056,18.056,0,0,1,7.061,1.231,11.3,11.3,0,0,1,4.453,3.134,6.138,6.138,0,0,1,1.553,3.9,5.382,5.382,0,0,1-1.377,3.516,9.851,9.851,0,0,1-4.248,2.695A21.748,21.748,0,0,1,442.969,58.624Z" fill="#242424"/>
    <path id="패스_1188" data-name="패스 1188" d="M492.012,127a25.793,25.793,0,0,1-12.6-2.783,19.332,19.332,0,0,1-7.588-7.148,17.921,17.921,0,0,1-2.549-9.17,17.28,17.28,0,0,1,.293-3.164,119.8,119.8,0,0,1,3.575-13.828q1.638-5.391,2.9-10.664a44.294,44.294,0,0,0,1.26-10.313,27.955,27.955,0,0,0-.967-7.324,22.754,22.754,0,0,0-3.252-6.914Q470.8,52.353,470.8,50.01a4.951,4.951,0,0,1,1.816-3.984A11.4,11.4,0,0,1,477.3,43.8a25.575,25.575,0,0,1,6.093-.7,26.394,26.394,0,0,1,6.592.821,13.784,13.784,0,0,1,5.274,2.49,5.165,5.165,0,0,1,2.08,4.189,8.251,8.251,0,0,1-1.524,4.278,17.33,17.33,0,0,0-2.226,5.976,40.4,40.4,0,0,0-.7,7.793A66.14,66.14,0,0,0,495,84.932a45.262,45.262,0,0,0,5.273,13.242q5.391,8.086,5.391,15.118a13.185,13.185,0,0,1-3.9,9.96A13.51,13.51,0,0,1,492.012,127Z" fill="#242424"/>
    <path id="패스_1189" data-name="패스 1189" d="M563.906,127a13.084,13.084,0,0,1-8-2.4,14.65,14.65,0,0,1-4.892-6.445,23.8,23.8,0,0,1-1.641-9.024q.057-4.159.176-7.148.176-2.694.176-5.332a12.214,12.214,0,0,0-.967-5.244,7.38,7.38,0,0,0-2.373-2.989,5.024,5.024,0,0,0-2.871-.966,4.02,4.02,0,0,0-2.813,1.142,4.3,4.3,0,0,0-1.23,3.311q0,2.52,2.343,6.269,4.688,7.032,4.688,13.477a14.645,14.645,0,0,1-2.2,8.027,15.451,15.451,0,0,1-5.772,5.391A16,16,0,0,1,530.8,127q-7.266,0-11.69-2.08a13.81,13.81,0,0,1-6.416-5.595,15.647,15.647,0,0,1-1.992-7.852,22.129,22.129,0,0,1,.41-4.1q1.288-6.562,3.34-13.536,1.7-5.916,3.047-11.806a51.3,51.3,0,0,0,1.348-11.455,30.343,30.343,0,0,0-1-7.764,23.25,23.25,0,0,0-3.252-7.119q-2.256-3.341-2.256-5.684a4.951,4.951,0,0,1,1.816-3.984,11.408,11.408,0,0,1,4.717-2.227,26.232,26.232,0,0,1,12.656.147,14.411,14.411,0,0,1,5.274,2.49,5.086,5.086,0,0,1,2.08,4.16,8.421,8.421,0,0,1-1.465,4.219q-2.931,4.806-2.93,13.535v1q0,3.34.762,3.34.585,0,1.377-1t1.9-2.578l1.289-1.875A104.267,104.267,0,0,1,551.543,53.76a7.215,7.215,0,0,1,4.8-2.285,6.73,6.73,0,0,1,4.423,1.7,12.908,12.908,0,0,1,3.252,4.16,10.493,10.493,0,0,1,1.231,4.688,4.794,4.794,0,0,1-1.7,3.809q-3.927,2.52-9.668,6.5l-.7.469q-2.933,1.876-2.93,2.4,0,.586,3.516.586H555a18.829,18.829,0,0,1,11.016,3.4q4.511,3.282,4.98,9.785a34.989,34.989,0,0,0,2.461,10.781,46.269,46.269,0,0,0,3.867,7.793,15.837,15.837,0,0,1,2.7,7.969,8.759,8.759,0,0,1-2.491,6.328,15.545,15.545,0,0,1-6.211,3.867A22.509,22.509,0,0,1,563.906,127Z" fill="#242424"/>
  </g>
</svg>
