<svg xmlns="http://www.w3.org/2000/svg" width="525.234" height="84.258" viewBox="0 0 525.234 84.258">
  <g id="그룹_780" data-name="그룹 780" transform="translate(-341.895 -302.416)">
    <path id="패스_1190" data-name="패스 1190" d="M371.777,386.674a27.351,27.351,0,0,1-13.418-3.106,26.884,26.884,0,0,1-9.287-8.437,38.074,38.074,0,0,1-5.42-12.1,55.821,55.821,0,0,1-1.757-14.092,64.7,64.7,0,0,1,2.2-16.7,55.05,55.05,0,0,1,6.357-14.97,35.5,35.5,0,0,1,10.108-10.782,23.335,23.335,0,0,1,13.505-4.072,24.653,24.653,0,0,1,15.118,4.834,15.677,15.677,0,0,1,6.8,12.451,8.339,8.339,0,0,1-1.788,5.391,11.84,11.84,0,0,1-4.482,3.428,13.034,13.034,0,0,1-5.332,1.2,8.784,8.784,0,0,1-4.277-1.055,5.912,5.912,0,0,1-2.754-3.281l-.352-1.7a39.093,39.093,0,0,0-.791-3.956,14.017,14.017,0,0,0-1.64-4.013,3.377,3.377,0,0,0-3.018-1.758q-2.52,0-4.072,3.867a23.432,23.432,0,0,0-1.553,8.789,26.166,26.166,0,0,0,1.055,7.442,13.448,13.448,0,0,0,3.31,5.83,8.365,8.365,0,0,0,5.889,2.373,15.042,15.042,0,0,0,8.789-2.52,10.842,10.842,0,0,1,5.918-2.168,8.129,8.129,0,0,1,6.3,3.047,21.062,21.062,0,0,1,4.131,7.94,38.357,38.357,0,0,1,1.523,10.634A25.233,25.233,0,0,1,400.166,371a26.086,26.086,0,0,1-7.119,8.613,32.018,32.018,0,0,1-9.99,5.274A36.527,36.527,0,0,1,371.777,386.674Z" fill="#242424"/>
    <path id="패스_1191" data-name="패스 1191" d="M455.039,386.5a14.956,14.956,0,0,1-7.91-2.168q-.822-.468-1.494-.791a3.287,3.287,0,0,0-1.436-.322,11.881,11.881,0,0,0-4.629,1.64,7.458,7.458,0,0,1-3.222,1.114,21.9,21.9,0,0,0-3.047.2,19.894,19.894,0,0,1-2.754.205,29.307,29.307,0,0,1-13.184-2.666,19.765,19.765,0,0,1-8.056-6.914,16.381,16.381,0,0,1-2.725-8.994,13.306,13.306,0,0,1,1.875-6.914,25.432,25.432,0,0,1,4.98-5.948,57.734,57.734,0,0,1,6.856-5.244q3.748-2.46,7.617-4.8,4.688-2.752,8.555-5.449a20.3,20.3,0,0,0,4.014-3.6,4.669,4.669,0,0,0,1.2-2.608q0-1.758-2.578-1.816a10.568,10.568,0,0,0-5.3,1.9,15.462,15.462,0,0,0-5.3,6.065,4.675,4.675,0,0,1-4.512,2.636,11.74,11.74,0,0,1-6.064-1.845,16.946,16.946,0,0,1-5.156-4.776,10.463,10.463,0,0,1-2.08-6.152,7.5,7.5,0,0,1,2.812-5.684,23.737,23.737,0,0,1,7.383-4.277,51.244,51.244,0,0,1,10.078-2.666,67.287,67.287,0,0,1,10.957-.908,48.3,48.3,0,0,1,11.191,1.2,18.754,18.754,0,0,1,8.028,3.779,8.475,8.475,0,0,1,2.988,6.739,23.452,23.452,0,0,1-1.406,5.507,24.531,24.531,0,0,0-1.7,6.563q0,6.5,6.738,18.164,3.573,6.8,3.574,12.363A16.141,16.141,0,0,1,455.039,386.5Zm-24.316-25.137a5.465,5.465,0,0,0,4.16-2.314,18.847,18.847,0,0,0,3.076-5.215,13.554,13.554,0,0,0,1.143-4.658q0-1.524-.938-1.524-1.641,0-4.072,2.168a26.254,26.254,0,0,0-4.307,4.952,8.93,8.93,0,0,0-1.875,4.6,1.87,1.87,0,0,0,.586,1.465A3.426,3.426,0,0,0,430.723,361.361Z" fill="#242424"/>
    <path id="패스_1192" data-name="패스 1192" d="M498.984,386.5a25.8,25.8,0,0,1-12.6-2.783,19.327,19.327,0,0,1-7.588-7.149,17.918,17.918,0,0,1-2.549-9.17,17.288,17.288,0,0,1,.293-3.164,119.794,119.794,0,0,1,3.574-13.828q1.639-5.389,2.9-10.664a44.337,44.337,0,0,0,1.259-10.312,27.943,27.943,0,0,0-.966-7.324,22.759,22.759,0,0,0-3.252-6.915q-2.286-3.339-2.286-5.683a4.952,4.952,0,0,1,1.817-3.985,11.4,11.4,0,0,1,4.687-2.226,25.531,25.531,0,0,1,6.094-.7,26.394,26.394,0,0,1,6.592.82,13.787,13.787,0,0,1,5.273,2.49,5.164,5.164,0,0,1,2.08,4.19,8.246,8.246,0,0,1-1.523,4.277,17.328,17.328,0,0,0-2.227,5.977,40.471,40.471,0,0,0-.7,7.793,66.107,66.107,0,0,0,2.11,16.289,45.262,45.262,0,0,0,5.273,13.242q5.391,8.086,5.391,15.117a13.186,13.186,0,0,1-3.9,9.961A13.511,13.511,0,0,1,498.984,386.5Z" fill="#242424"/>
    <path id="패스_1193" data-name="패스 1193" d="M546.738,386.674a32.683,32.683,0,0,1-13.681-2.637,26.056,26.056,0,0,1-9.463-7.119,29.885,29.885,0,0,1-5.479-10.225,39.773,39.773,0,0,1-1.787-11.894,45.475,45.475,0,0,1,2.227-13.975,42.672,42.672,0,0,1,6.445-12.6,32.563,32.563,0,0,1,10.283-9.053,27.736,27.736,0,0,1,13.8-3.4,22.389,22.389,0,0,1,10.9,2.784,23.812,23.812,0,0,1,8.291,7.382,17.167,17.167,0,0,1,3.194,9.991q0,3.926-5.508,5.273a44.7,44.7,0,0,1-10.43.938l-2.812-.059a23.937,23.937,0,0,0-7.793.937q-2.52.938-2.52,2.344,0,1.466,2.549,2.461a21.608,21.608,0,0,0,7.295,1.055,17.625,17.625,0,0,0,7.969-1.7,12.387,12.387,0,0,1,6.035-1.817,9.106,9.106,0,0,1,6.475,2.578,16.787,16.787,0,0,1,4.189,6.68,27.489,27.489,0,0,1,1.523,8.965,18.073,18.073,0,0,1-2.724,9.873,23.578,23.578,0,0,1-7.266,7.236,35.873,35.873,0,0,1-10.2,4.453A44.064,44.064,0,0,1,546.738,386.674Zm-.176-50.625a17.557,17.557,0,0,0,5.479-.7,6.574,6.574,0,0,0,2.988-1.787,3.355,3.355,0,0,0,.908-2.139q0-1.992-2.373-3.662a10.409,10.409,0,0,0-6.123-1.67,7.363,7.363,0,0,0-5.214,1.9,5.541,5.541,0,0,0-2.051,4.072,3.582,3.582,0,0,0,1.435,2.754Q543.046,336.05,546.562,336.049Z" fill="#242424"/>
    <path id="패스_1194" data-name="패스 1194" d="M636.5,386.5a15.61,15.61,0,0,1-11.719-5.185,17.6,17.6,0,0,1-4.922-12.569q.057-3.691.352-7.851.583-9.258.586-18.164a19.392,19.392,0,0,0-.938-6.622,8.456,8.456,0,0,0-2.373-3.691,4.519,4.519,0,0,0-2.842-1.172q-2.519,0-4.511,2.93a13.406,13.406,0,0,0-1.992,7.676,37.844,37.844,0,0,0,1.757,12.041,29.609,29.609,0,0,0,3.985,8.232q3.809,5.625,3.808,10.371a12.074,12.074,0,0,1-2.314,7.324,15.737,15.737,0,0,1-5.947,4.922,17.406,17.406,0,0,1-7.676,1.758,23.725,23.725,0,0,1-10.84-2.139,14.071,14.071,0,0,1-8.086-12.8,16.739,16.739,0,0,1,.41-3.692q1.111-4.921,2.637-10.254,1.639-5.918,2.959-11.748a48.554,48.554,0,0,0,1.318-10.634,16.6,16.6,0,0,0-1.933-8.321,8.7,8.7,0,0,1-1.465-4.277,4.74,4.74,0,0,1,1.64-3.692,10.548,10.548,0,0,1,4.219-2.2,19.86,19.86,0,0,1,5.449-.732,19.585,19.585,0,0,1,7.53,1.435,7.118,7.118,0,0,1,4.424,4.307,24.2,24.2,0,0,1,15.41-5.625,23.508,23.508,0,0,1,10.166,2.227,18.37,18.37,0,0,1,7.617,6.621,19.26,19.26,0,0,1,2.9,10.839q0,14.474.674,21.094t3.193,9.961a12.867,12.867,0,0,1,2.579,7.09,9.466,9.466,0,0,1-2.549,6.562,17.72,17.72,0,0,1-6.24,4.395A18.351,18.351,0,0,1,636.5,386.5Z" fill="#242424"/>
    <path id="패스_1195" data-name="패스 1195" d="M706.172,386.615a14.939,14.939,0,0,1-7.442-1.875,72.2,72.2,0,0,1-14.882,1.758q-15.7,0-23.086-8.672-6.212-7.324-6.211-18.75a36.744,36.744,0,0,1,10.166-25.459,35.448,35.448,0,0,1,26.045-10.928,19.312,19.312,0,0,0,4.57-.41q1.583-.409,1.582-1.64,0-1.758-3.164-5.567a8.24,8.24,0,0,1-2.109-4.863,5.3,5.3,0,0,1,1.9-4.1,12.85,12.85,0,0,1,4.863-2.607,20.96,20.96,0,0,1,6.182-.908,32.013,32.013,0,0,1,6.5.644,12.2,12.2,0,0,1,5.1,2.2,5.033,5.033,0,0,1,1.993,4.189,11.012,11.012,0,0,1-1.524,4.981,21.716,21.716,0,0,0-2.578,10.546q0,6.74,3.75,16.114,1.64,4.1,3.457,8.261,6.328,13.77,6.328,19.161a17.646,17.646,0,0,1-2.226,8.466,17.219,17.219,0,0,1-6.973,6.8Q713.672,386.616,706.172,386.615Zm-22.676-36.5a21.23,21.23,0,0,0,5.391-.879,14.748,14.748,0,0,0,7.47-4.98,10.931,10.931,0,0,0,2.666-6.563,5.1,5.1,0,0,0-1.377-3.632,5.571,5.571,0,0,0-4.248-1.465,14.679,14.679,0,0,0-3.75.586,17.341,17.341,0,0,0-8.437,5.39q-3.223,3.809-3.223,7.09a4.279,4.279,0,0,0,1.289,3.194A5.892,5.892,0,0,0,683.5,350.111Z" fill="#242424"/>
    <path id="패스_1196" data-name="패스 1196" d="M780.41,386.5a14.958,14.958,0,0,1-7.91-2.168q-.822-.468-1.494-.791a3.286,3.286,0,0,0-1.436-.322,11.881,11.881,0,0,0-4.629,1.64,7.458,7.458,0,0,1-3.222,1.114,21.9,21.9,0,0,0-3.047.2,19.894,19.894,0,0,1-2.754.205,29.307,29.307,0,0,1-13.184-2.666,19.765,19.765,0,0,1-8.056-6.914,16.381,16.381,0,0,1-2.725-8.994,13.306,13.306,0,0,1,1.875-6.914,25.413,25.413,0,0,1,4.981-5.948,57.642,57.642,0,0,1,6.855-5.244q3.749-2.46,7.617-4.8,4.688-2.752,8.555-5.449a20.294,20.294,0,0,0,4.014-3.6,4.67,4.67,0,0,0,1.2-2.608q0-1.758-2.578-1.816a10.568,10.568,0,0,0-5.3,1.9,15.47,15.47,0,0,0-5.3,6.065,4.675,4.675,0,0,1-4.512,2.636,11.74,11.74,0,0,1-6.064-1.845,16.957,16.957,0,0,1-5.156-4.776,10.463,10.463,0,0,1-2.08-6.152,7.5,7.5,0,0,1,2.812-5.684,23.737,23.737,0,0,1,7.383-4.277,51.244,51.244,0,0,1,10.078-2.666,67.287,67.287,0,0,1,10.957-.908,48.315,48.315,0,0,1,11.192,1.2A18.756,18.756,0,0,1,786.5,320.7a8.475,8.475,0,0,1,2.988,6.739,23.452,23.452,0,0,1-1.406,5.507,24.531,24.531,0,0,0-1.7,6.563q0,6.5,6.738,18.164,3.573,6.8,3.574,12.363A16.141,16.141,0,0,1,780.41,386.5Zm-24.316-25.137a5.465,5.465,0,0,0,4.16-2.314,18.847,18.847,0,0,0,3.076-5.215,13.555,13.555,0,0,0,1.143-4.658q0-1.524-.938-1.524-1.641,0-4.072,2.168a26.253,26.253,0,0,0-4.307,4.952,8.93,8.93,0,0,0-1.875,4.6,1.873,1.873,0,0,0,.586,1.465A3.426,3.426,0,0,0,756.094,361.361Z" fill="#242424"/>
    <path id="패스_1197" data-name="패스 1197" d="M819.023,386.5a22.806,22.806,0,0,1-8.408-1.553,15.1,15.1,0,0,1-6.474-4.746,12.512,12.512,0,0,1-2.52-8q0-3.28,2.871-14.238,1.524-5.742,2.725-11.309a49.155,49.155,0,0,0,1.2-10.312q0-5.742-2.285-9.024a8.2,8.2,0,0,1-1.641-4.394,4.874,4.874,0,0,1,1.875-3.867,12.31,12.31,0,0,1,4.776-2.373,22.683,22.683,0,0,1,6.005-.791,21.836,21.836,0,0,1,5.743.732,10.649,10.649,0,0,1,4.394,2.256,4.9,4.9,0,0,1,1.7,3.808,6.322,6.322,0,0,1-.351,1.993,18.1,18.1,0,0,1-.733,1.875,3.6,3.6,0,0,0-.38,1.054l.058.059q.293,0,2.285-2.461,1.64-1.992,2.227-2.578,7.966-6.915,16.875-6.914a18.541,18.541,0,0,1,10.224,3.076q4.776,3.076,7.53,9.814a5.515,5.515,0,0,1,.41,2.11,10.736,10.736,0,0,1-2.959,6.885,26.744,26.744,0,0,1-7.061,5.859,15.234,15.234,0,0,1-7.5,2.373,4.826,4.826,0,0,1-4.98-3.164,11.77,11.77,0,0,0-3.281-5.01,6.312,6.312,0,0,0-3.985-1.553q-3.339,0-6.064,3.37a13.21,13.21,0,0,0-2.725,8.584q0,6.855,5.332,13.71,4.688,5.978,4.688,11.133a10.216,10.216,0,0,1-2.9,7.354,18.908,18.908,0,0,1-7.382,4.629A27.261,27.261,0,0,1,819.023,386.5Z" fill="#242424"/>
  </g>
</svg>
