<svg xmlns="http://www.w3.org/2000/svg" width="369.727" height="169.961" viewBox="0 0 369.727 169.961">
  <g id="그룹_784" data-name="그룹 784" transform="translate(4242 -2561.217)">
    <g id="그룹_783" data-name="그룹 783" transform="translate(-0.001)">
      <path id="패스_1203" data-name="패스 1203" d="M11.194,350.667a27.349,27.349,0,0,1-13.418-3.1,26.877,26.877,0,0,1-9.287-8.438,38.063,38.063,0,0,1-5.42-12.1,55.813,55.813,0,0,1-1.758-14.091,64.708,64.708,0,0,1,2.2-16.7,55.079,55.079,0,0,1,6.358-14.97A35.529,35.529,0,0,1-.027,270.481a23.348,23.348,0,0,1,13.506-4.072A24.658,24.658,0,0,1,28.6,271.243a15.676,15.676,0,0,1,6.8,12.451,8.342,8.342,0,0,1-1.787,5.391,11.829,11.829,0,0,1-4.482,3.428,13.025,13.025,0,0,1-5.332,1.2,8.788,8.788,0,0,1-4.278-1.055,5.909,5.909,0,0,1-2.754-3.281l-.351-1.7a39.64,39.64,0,0,0-.791-3.955,14.014,14.014,0,0,0-1.641-4.014,3.375,3.375,0,0,0-3.018-1.758q-2.52,0-4.072,3.867a23.432,23.432,0,0,0-1.553,8.789,26.161,26.161,0,0,0,1.055,7.442A13.422,13.422,0,0,0,9.7,303.88a8.356,8.356,0,0,0,5.888,2.373,15.031,15.031,0,0,0,8.789-2.52,10.853,10.853,0,0,1,5.918-2.168,8.131,8.131,0,0,1,6.3,3.047,21.084,21.084,0,0,1,4.131,7.94,38.37,38.37,0,0,1,1.524,10.635,25.238,25.238,0,0,1-2.666,11.806,26.057,26.057,0,0,1-7.12,8.613,31.965,31.965,0,0,1-9.99,5.274A36.492,36.492,0,0,1,11.194,350.667Z" transform="translate(-4223.31 2294.808)" fill="#242424"/>
      <path id="패스_1204" data-name="패스 1204" d="M77.053,350.667a32.687,32.687,0,0,1-13.681-2.637,26.048,26.048,0,0,1-9.463-7.119,29.854,29.854,0,0,1-5.479-10.224,39.775,39.775,0,0,1-1.787-11.9,45.506,45.506,0,0,1,2.227-13.975,42.683,42.683,0,0,1,6.445-12.6A32.588,32.588,0,0,1,65.6,283.167a27.747,27.747,0,0,1,13.8-3.4,22.4,22.4,0,0,1,10.9,2.783,23.825,23.825,0,0,1,8.291,7.383,17.164,17.164,0,0,1,3.194,9.99q0,3.927-5.508,5.273a44.643,44.643,0,0,1-10.43.938l-2.812-.059a23.958,23.958,0,0,0-7.793.938q-2.52.939-2.52,2.343,0,1.467,2.549,2.461a21.557,21.557,0,0,0,7.295,1.055,17.6,17.6,0,0,0,7.969-1.7,12.4,12.4,0,0,1,6.035-1.817,9.107,9.107,0,0,1,6.475,2.579,16.79,16.79,0,0,1,4.189,6.679,27.5,27.5,0,0,1,1.523,8.965,18.071,18.071,0,0,1-2.724,9.873,23.567,23.567,0,0,1-7.266,7.236,35.831,35.831,0,0,1-10.195,4.454A44.057,44.057,0,0,1,77.053,350.667Zm-.176-50.625a17.522,17.522,0,0,0,5.479-.7,6.565,6.565,0,0,0,2.988-1.787,3.358,3.358,0,0,0,.908-2.139q0-1.992-2.373-3.662a10.407,10.407,0,0,0-6.123-1.67,7.361,7.361,0,0,0-5.214,1.9,5.546,5.546,0,0,0-2.051,4.073,3.587,3.587,0,0,0,1.435,2.754Q73.362,300.042,76.877,300.042Z" transform="translate(-4223.31 2294.808)" fill="#242424"/>
      <path id="패스_1205" data-name="패스 1205" d="M130.725,350.491a22.761,22.761,0,0,1-8.408-1.553,15.083,15.083,0,0,1-6.475-4.746,12.507,12.507,0,0,1-2.519-8q0-3.279,2.871-14.238,1.522-5.74,2.724-11.309a49.082,49.082,0,0,0,1.2-10.312q0-5.742-2.286-9.023a8.2,8.2,0,0,1-1.64-4.4,4.875,4.875,0,0,1,1.875-3.867,12.306,12.306,0,0,1,4.775-2.373,22.7,22.7,0,0,1,6.006-.791,21.828,21.828,0,0,1,5.742.732,10.665,10.665,0,0,1,4.4,2.256,4.906,4.906,0,0,1,1.7,3.809,6.29,6.29,0,0,1-.352,1.992,18.11,18.11,0,0,1-.732,1.875,3.621,3.621,0,0,0-.381,1.054l.059.059q.293,0,2.285-2.461,1.64-1.99,2.227-2.578,7.968-6.913,16.875-6.914a18.544,18.544,0,0,1,10.224,3.076q4.774,3.076,7.529,9.815a5.493,5.493,0,0,1,.411,2.109,10.732,10.732,0,0,1-2.959,6.885,26.742,26.742,0,0,1-7.061,5.859,15.237,15.237,0,0,1-7.5,2.373,4.826,4.826,0,0,1-4.98-3.164,11.774,11.774,0,0,0-3.282-5.01,6.314,6.314,0,0,0-3.984-1.552q-3.341,0-6.065,3.369a13.219,13.219,0,0,0-2.724,8.584q0,6.855,5.332,13.711,4.686,5.976,4.687,11.132a10.212,10.212,0,0,1-2.9,7.354,18.9,18.9,0,0,1-7.383,4.629A27.228,27.228,0,0,1,130.725,350.491Z" transform="translate(-4223.31 2294.808)" fill="#242424"/>
      <path id="패스_1206" data-name="패스 1206" d="M209.065,350.667a32.691,32.691,0,0,1-13.682-2.637,26.064,26.064,0,0,1-9.463-7.119,29.852,29.852,0,0,1-5.478-10.224,39.775,39.775,0,0,1-1.787-11.9,45.5,45.5,0,0,1,2.226-13.975,42.686,42.686,0,0,1,6.446-12.6,32.589,32.589,0,0,1,10.283-9.053,27.744,27.744,0,0,1,13.8-3.4,22.4,22.4,0,0,1,10.9,2.783,23.834,23.834,0,0,1,8.291,7.383,17.164,17.164,0,0,1,3.194,9.99q0,3.927-5.508,5.273a44.649,44.649,0,0,1-10.43.938l-2.812-.059a23.954,23.954,0,0,0-7.793.938q-2.52.939-2.52,2.343,0,1.467,2.549,2.461a21.557,21.557,0,0,0,7.295,1.055,17.6,17.6,0,0,0,7.969-1.7,12.4,12.4,0,0,1,6.035-1.817,9.1,9.1,0,0,1,6.474,2.579,16.781,16.781,0,0,1,4.19,6.679,27.53,27.53,0,0,1,1.523,8.965,18.071,18.071,0,0,1-2.724,9.873,23.577,23.577,0,0,1-7.266,7.236,35.819,35.819,0,0,1-10.2,4.454A44.068,44.068,0,0,1,209.065,350.667Zm-.176-50.625a17.526,17.526,0,0,0,5.479-.7,6.571,6.571,0,0,0,2.988-1.787,3.358,3.358,0,0,0,.908-2.139q0-1.992-2.373-3.662a10.409,10.409,0,0,0-6.123-1.67,7.366,7.366,0,0,0-5.215,1.9,5.546,5.546,0,0,0-2.051,4.073,3.585,3.585,0,0,0,1.436,2.754Q205.374,300.042,208.889,300.042Z" transform="translate(-4223.31 2294.808)" fill="#242424"/>
      <path id="패스_1207" data-name="패스 1207" d="M293.44,350.491a14.938,14.938,0,0,1-7.91-2.168q-.822-.467-1.494-.791a3.3,3.3,0,0,0-1.436-.322,11.887,11.887,0,0,0-4.629,1.641,7.454,7.454,0,0,1-3.222,1.113,22.055,22.055,0,0,0-3.047.205,19.739,19.739,0,0,1-2.754.2,29.291,29.291,0,0,1-13.184-2.666,19.744,19.744,0,0,1-8.056-6.914,16.379,16.379,0,0,1-2.725-8.994,13.309,13.309,0,0,1,1.875-6.914,25.454,25.454,0,0,1,4.98-5.948,57.843,57.843,0,0,1,6.856-5.244q3.748-2.46,7.617-4.8,4.688-2.753,8.555-5.45a20.193,20.193,0,0,0,4.013-3.6,4.663,4.663,0,0,0,1.2-2.608q0-1.756-2.579-1.816a10.565,10.565,0,0,0-5.3,1.9,15.47,15.47,0,0,0-5.3,6.065,4.674,4.674,0,0,1-4.512,2.637,11.741,11.741,0,0,1-6.064-1.846,16.922,16.922,0,0,1-5.156-4.776,10.46,10.46,0,0,1-2.081-6.152,7.5,7.5,0,0,1,2.813-5.683,23.717,23.717,0,0,1,7.383-4.278,51.312,51.312,0,0,1,10.078-2.666,67.288,67.288,0,0,1,10.957-.908,48.354,48.354,0,0,1,11.191,1.2,18.754,18.754,0,0,1,8.028,3.779,8.478,8.478,0,0,1,2.988,6.739,23.456,23.456,0,0,1-1.406,5.508,24.535,24.535,0,0,0-1.7,6.562q0,6.5,6.738,18.164,3.573,6.8,3.574,12.363a16.141,16.141,0,0,1-16.289,16.465Zm-24.316-25.137a5.462,5.462,0,0,0,4.16-2.314,18.832,18.832,0,0,0,3.076-5.215,13.543,13.543,0,0,0,1.142-4.658q0-1.522-.937-1.523-1.641,0-4.072,2.168a26.278,26.278,0,0,0-4.307,4.951,8.936,8.936,0,0,0-1.875,4.6,1.867,1.867,0,0,0,.586,1.465A3.426,3.426,0,0,0,269.124,325.354Z" transform="translate(-4223.31 2294.808)" fill="#242424"/>
      <path id="패스_1208" data-name="패스 1208" d="M337.385,350.491a25.789,25.789,0,0,1-12.6-2.783,19.311,19.311,0,0,1-7.588-7.148,17.909,17.909,0,0,1-2.549-9.17,17.271,17.271,0,0,1,.293-3.164,119.861,119.861,0,0,1,3.574-13.829q1.639-5.388,2.9-10.664a44.279,44.279,0,0,0,1.26-10.312,27.907,27.907,0,0,0-.967-7.324,22.7,22.7,0,0,0-3.252-6.914q-2.285-3.341-2.285-5.684a4.95,4.95,0,0,1,1.817-3.984,11.4,11.4,0,0,1,4.687-2.227,25.532,25.532,0,0,1,6.094-.7,26.441,26.441,0,0,1,6.592.82,13.8,13.8,0,0,1,5.273,2.491,5.162,5.162,0,0,1,2.08,4.189,8.255,8.255,0,0,1-1.523,4.277,17.336,17.336,0,0,0-2.227,5.977,40.471,40.471,0,0,0-.7,7.793,66.1,66.1,0,0,0,2.11,16.289,45.25,45.25,0,0,0,5.273,13.242q5.391,8.086,5.391,15.117a13.182,13.182,0,0,1-3.9,9.961A13.508,13.508,0,0,1,337.385,350.491Z" transform="translate(-4223.31 2294.808)" fill="#242424"/>
    </g>
    <g id="그룹_782" data-name="그룹 782" transform="translate(-8.94)">
      <path id="패스_1209" data-name="패스 1209" d="M50.833,436.37a49.128,49.128,0,0,1-15.293-2.344,26.824,26.824,0,0,1-11.661-7.148q-4.687-5.037-4.687-13.008a27.394,27.394,0,0,1,1.523-8.789q1.522-4.51,3.516-9.2,2.167-4.921,3.867-10.02a32.093,32.093,0,0,0,1.7-10.2,21.715,21.715,0,0,0-2.578-10.43,9.515,9.515,0,0,1-1.172-4.16,6.381,6.381,0,0,1,3.047-5.449,21.74,21.74,0,0,1,7.969-3.135,51.47,51.47,0,0,1,10.488-1.025,61.551,61.551,0,0,1,12.979,1.318,29.5,29.5,0,0,1,9.931,3.809q3.809,2.492,3.926,6.064,0,4.922-7.91,9.2-1.405.764-2.139,1.231t-.732.879q0,.879,3.516,2.109A36.527,36.527,0,0,1,84.29,388.558q6.327,8.5,6.5,20.625a19.9,19.9,0,0,1-3.515,11.63,29.5,29.5,0,0,1-9.317,8.526,47.789,47.789,0,0,1-12.89,5.244A58.073,58.073,0,0,1,50.833,436.37Zm-1.817-63.926a5.6,5.6,0,0,0,2.344-.644,27.837,27.837,0,0,0,6.8-4.541q2.049-2.079,2.051-3.487,0-2.285-4.043-2.46a14.681,14.681,0,0,0-4.161.7,7.6,7.6,0,0,0-4.13,3.1,7.787,7.787,0,0,0-1.377,4.16,3.927,3.927,0,0,0,.615,2.256A2.134,2.134,0,0,0,49.016,372.444Zm11.426,19.8a9.529,9.529,0,0,0,4.365-.732,2.131,2.131,0,0,0,1.318-1.846q0-1.639-2.343-3.574a22.2,22.2,0,0,0-5.8-3.34,17.944,17.944,0,0,0-6.8-1.406,4.843,4.843,0,0,0-3.4,1,3.188,3.188,0,0,0-1.055,2.4,6.169,6.169,0,0,0,1.816,4.043Q51.593,392.251,60.442,392.249Z" transform="translate(-4200.252 2294.808)" fill="#242424"/>
      <path id="패스_1210" data-name="패스 1210" d="M125.129,435.491a31.681,31.681,0,0,1-11.074-1.992,28.66,28.66,0,0,1-9.7-6.006,29.216,29.216,0,0,1-6.885-10.019A35.18,35.18,0,0,1,94.895,403.5q.176-13.065,4.424-21.68a30.363,30.363,0,0,1,11.133-12.861,27.1,27.1,0,0,1,14.443-4.248,27.762,27.762,0,0,1,11.191,2.373,28.948,28.948,0,0,1,9.786,7.09,34.535,34.535,0,0,1,6.884,11.719,47.432,47.432,0,0,1,2.549,16.259,39.019,39.019,0,0,1-2.607,14.971,29.4,29.4,0,0,1-6.944,10.371,28.155,28.155,0,0,1-9.726,6.035A31.613,31.613,0,0,1,125.129,435.491Zm.235-35.39q2.577,0,4.717-2.813t2.138-8.379q-.117-8.143-2.256-12.246t-4.834-4.1a4.187,4.187,0,0,0-3.1,1.64,12.849,12.849,0,0,0-2.432,4.922,29.531,29.531,0,0,0-.967,8.2q.059,6.447,1.875,9.61T125.364,400.1Z" transform="translate(-4200.252 2294.808)" fill="#242424"/>
      <path id="패스_1211" data-name="패스 1211" d="M222.278,435.315a16.4,16.4,0,0,1-10.518-3.837q-4.776-3.837-5.6-11.456a115.865,115.865,0,0,0-2.051-15.908q-1.231-5.3-2.578-5.3t-2.578,5.3a115.552,115.552,0,0,0-2.051,15.908q-.822,7.62-5.6,11.456a16.406,16.406,0,0,1-10.518,3.837,17.953,17.953,0,0,1-7.412-1.64,15.027,15.027,0,0,1-6.093-4.981,13.752,13.752,0,0,1-2.432-8.32V408.831q0-5.857-.322-11.6a40.114,40.114,0,0,0-1.992-10.664,20.1,20.1,0,0,0-5.479-8.437q-3.4-3.28-3.4-5.859A5.122,5.122,0,0,1,155.8,368.2a15.2,15.2,0,0,1,5.362-2.666,23.4,23.4,0,0,1,6.562-.937,17.874,17.874,0,0,1,5.01.674,8.747,8.747,0,0,1,3.75,2.08,4.865,4.865,0,0,1,1.435,3.632,12.5,12.5,0,0,1-.293,2.52,18.08,18.08,0,0,0-.468,4.453,39.69,39.69,0,0,0,.849,7.881,32.413,32.413,0,0,0,2.549,7.7q2.519,4.982,5.156,4.981,1.875,0,3.34-2.227a18.9,18.9,0,0,0,2.344-5.479,23.9,23.9,0,0,0,.879-6.24q0-4.334-1.7-6.094-3.516-3.748-3.516-6.5a4.877,4.877,0,0,1,2.109-4.014,14.334,14.334,0,0,1,5.45-2.4,30.109,30.109,0,0,1,6.972-.791,29.756,29.756,0,0,1,6.944.791,14.333,14.333,0,0,1,5.42,2.4,4.826,4.826,0,0,1,2.109,3.955q0,2.756-3.574,6.562-1.7,1.758-1.7,6.036a24.086,24.086,0,0,0,.879,6.3,18.9,18.9,0,0,0,2.344,5.479q1.464,2.228,3.34,2.227,2.637,0,5.156-4.981a32.413,32.413,0,0,0,2.549-7.7,39.844,39.844,0,0,0,.85-7.881,18.124,18.124,0,0,0-.469-4.453,12.427,12.427,0,0,1-.293-2.52,4.917,4.917,0,0,1,1.406-3.632,8.517,8.517,0,0,1,3.75-2.08,17.953,17.953,0,0,1,4.981-.674,23.718,23.718,0,0,1,6.591.937,15.2,15.2,0,0,1,5.391,2.666,5.12,5.12,0,0,1,2.139,4.073q0,2.635-3.4,5.859a20.079,20.079,0,0,0-5.478,8.437,40,40,0,0,0-1.992,10.664q-.322,5.745-.323,11.6v11.543a13.765,13.765,0,0,1-2.431,8.32,15.049,15.049,0,0,1-6.094,4.981A17.956,17.956,0,0,1,222.278,435.315Z" transform="translate(-4200.252 2294.808)" fill="#242424"/>
      <path id="패스_1212" data-name="패스 1212" d="M270.325,435.491a25.793,25.793,0,0,1-12.6-2.783,19.318,19.318,0,0,1-7.588-7.148,17.918,17.918,0,0,1-2.549-9.17,17.273,17.273,0,0,1,.293-3.164,119.87,119.87,0,0,1,3.575-13.829q1.638-5.388,2.9-10.664a44.279,44.279,0,0,0,1.26-10.312,27.954,27.954,0,0,0-.967-7.324,22.754,22.754,0,0,0-3.252-6.914q-2.286-3.341-2.285-5.684a4.949,4.949,0,0,1,1.816-3.984,11.4,11.4,0,0,1,4.688-2.227,25.524,25.524,0,0,1,6.093-.7,26.441,26.441,0,0,1,6.592.82,13.8,13.8,0,0,1,5.274,2.491,5.165,5.165,0,0,1,2.08,4.189,8.243,8.243,0,0,1-1.524,4.277,17.344,17.344,0,0,0-2.226,5.977,40.4,40.4,0,0,0-.7,7.793,66.141,66.141,0,0,0,2.109,16.289,45.25,45.25,0,0,0,5.273,13.242q5.391,8.086,5.391,15.117a13.186,13.186,0,0,1-3.9,9.961A13.51,13.51,0,0,1,270.325,435.491Z" transform="translate(-4200.252 2294.808)" fill="#242424"/>
    </g>
  </g>
</svg>
