<svg xmlns="http://www.w3.org/2000/svg" width="36.942" height="47.163" viewBox="0 0 36.942 47.163">
  <path id="패스_78" data-name="패스 78" d="M2711.252-691l-7.859-3.758a1.314,1.314,0,0,0-1.751.618l-1.059,2.214a1.312,1.312,0,0,0,.3,1.531l-.508,1.061-6.07,4.061a6.294,6.294,0,0,0-2.342,2.642l-9.742,20.372c-.185.387-1.583,3.873,5.74,7.75a.906.906,0,0,0,.172.108c.22.107.434.209.635.3l.353.171.29.137a.92.92,0,0,0,.188.063c7.618,3.27,9.455-.008,9.64-.4l9.742-20.372a6.3,6.3,0,0,0,.587-3.482l-.649-7.274.508-1.061a1.312,1.312,0,0,0,1.38-.727l1.059-2.214A1.314,1.314,0,0,0,2711.252-691Z" transform="matrix(0.985, 0.174, -0.174, 0.985, -2754.52, 218.605)" fill="#2f2f2f"/>
</svg>
