<svg xmlns="http://www.w3.org/2000/svg" width="222.754" height="35.108" viewBox="0 0 222.754 35.108">
  <g id="그룹_867" data-name="그룹 867" transform="translate(-252.28 -81.254)">
    <path id="패스_1668" data-name="패스 1668" d="M266.2,116.337a13.642,13.642,0,0,1-5.09-.988,13.282,13.282,0,0,1-4.468-2.967,14.336,14.336,0,0,1-3.174-4.956,18.766,18.766,0,0,1-1.184-6.958,27.115,27.115,0,0,1,1.172-8.4,17.941,17.941,0,0,1,3.137-5.957,13.19,13.19,0,0,1,4.432-3.553,11.606,11.606,0,0,1,5.078-1.184,11.737,11.737,0,0,1,5.163,1.209,13.571,13.571,0,0,1,4.492,3.577,17.729,17.729,0,0,1,3.162,5.908,26.2,26.2,0,0,1,1.172,8.227,19.435,19.435,0,0,1-1.2,7.154,14.324,14.324,0,0,1-3.2,5.005,12.953,12.953,0,0,1-4.48,2.929A13.881,13.881,0,0,1,266.2,116.337Zm.122-17.48a2.233,2.233,0,0,0,1.514-.635A4.669,4.669,0,0,0,269,96.342a8.875,8.875,0,0,0,.464-3.076,17.554,17.554,0,0,0-.476-4.443,7.16,7.16,0,0,0-1.221-2.686,2.067,2.067,0,0,0-1.55-.9,1.939,1.939,0,0,0-1.453.83,6.369,6.369,0,0,0-1.123,2.5,17.378,17.378,0,0,0-.427,4.212,9.107,9.107,0,0,0,.9,4.565A2.586,2.586,0,0,0,266.318,98.857Z" fill="#242424"/>
    <path id="패스_1669" data-name="패스 1669" d="M290.806,116.337a10.592,10.592,0,0,1-5.066-1.086,7.445,7.445,0,0,1-3.015-2.82,7.2,7.2,0,0,1-1-3.662,7.666,7.666,0,0,1,.2-1.709,53.575,53.575,0,0,1,1.782-5.786q.855-2.393,1.526-4.761A16.891,16.891,0,0,0,285.9,91.9a10.845,10.845,0,0,0-.341-2.7,9.061,9.061,0,0,0-1.148-2.6,4.32,4.32,0,0,1-.8-2.222,2.168,2.168,0,0,1,.781-1.721,4.8,4.8,0,0,1,2.014-.977,10.806,10.806,0,0,1,2.6-.305,9.713,9.713,0,0,1,3.955.806,21.264,21.264,0,0,1,5.884-.928,13.142,13.142,0,0,1,5.981,1.257,9.978,9.978,0,0,1,3.809,3.162,6.791,6.791,0,0,1,1.318,3.907,5.4,5.4,0,0,1-.7,2.648,5.965,5.965,0,0,1-2.161,2.161,28.79,28.79,0,0,0-2.454,1.648q-.793.624-.793,1.038c0,.212.154.407.464.586a7.357,7.357,0,0,0,1.367.561,11.869,11.869,0,0,1,5.81,5.176,14.552,14.552,0,0,1,2.393,7.666,4.484,4.484,0,0,1-1,3.039,5.62,5.62,0,0,1-2.6,1.673,13.146,13.146,0,0,1-9.339-.781,3.919,3.919,0,0,1-2-3.418l.024-3.785a29,29,0,0,0-.317-4.418,6.668,6.668,0,0,0-1.624-3.357,3.213,3.213,0,0,0-2.063-1.233.854.854,0,0,0-.646.268,1.2,1.2,0,0,0-.257.855q0,1.391,1.758,4.3a10.291,10.291,0,0,1,1.709,5.371,6.569,6.569,0,0,1-.941,3.54,6.739,6.739,0,0,1-5.773,3.222Zm3.686-25.293a8.966,8.966,0,0,0,1.782-.219,8.084,8.084,0,0,0,3.309-1.392,2.314,2.314,0,0,0,1.013-1.66,1.6,1.6,0,0,0-.782-1.33,3.629,3.629,0,0,0-2.124-.55,7.282,7.282,0,0,0-1.269.122,6,6,0,0,0-2.93,1.514,3.071,3.071,0,0,0-1.123,2.1,1.25,1.25,0,0,0,.5,1.014A2.6,2.6,0,0,0,294.492,91.044Z" fill="#242424"/>
    <path id="패스_1670" data-name="패스 1670" d="M324.6,116.337a10.6,10.6,0,0,1-5.067-1.086,7.455,7.455,0,0,1-3.014-2.82,7.2,7.2,0,0,1-1-3.662,7.607,7.607,0,0,1,.2-1.709,57.2,57.2,0,0,1,1.758-5.786q.879-2.417,1.538-4.773a17.054,17.054,0,0,0,.659-4.6,10.8,10.8,0,0,0-.342-2.7,8.863,8.863,0,0,0-1.16-2.6,4.3,4.3,0,0,1-.817-2.246,2.131,2.131,0,0,1,.781-1.709,4.908,4.908,0,0,1,2.015-.965,10.791,10.791,0,0,1,2.6-.305,10.925,10.925,0,0,1,2.7.331,5.449,5.449,0,0,1,2.136,1,2.07,2.07,0,0,1,.83,1.672,3.475,3.475,0,0,1-.708,1.88,8.212,8.212,0,0,0-1.159,2.954,19.133,19.133,0,0,0-.379,3.931,25.089,25.089,0,0,0,.977,6.885,12.172,12.172,0,0,0,2.856,5.346,6.055,6.055,0,0,1,2.173,4.371,5.279,5.279,0,0,1-1.147,3.3,8.559,8.559,0,0,1-2.894,2.392A7.593,7.593,0,0,1,324.6,116.337Z" fill="#242424"/>
    <path id="패스_1671" data-name="패스 1671" d="M344.346,116.362a9.855,9.855,0,0,1-6.275-2.112,13.765,13.765,0,0,1-4.186-5.823,22.625,22.625,0,0,1-1.5-8.545,23.413,23.413,0,0,1,.988-6.726,21.341,21.341,0,0,1,2.82-5.981A14.706,14.706,0,0,1,340.61,82.9a10.786,10.786,0,0,1,5.786-1.6,10.964,10.964,0,0,1,6.678,2.038,6.6,6.6,0,0,1,2.893,5.262,3.264,3.264,0,0,1-.781,2.186,5.116,5.116,0,0,1-1.954,1.4,5.984,5.984,0,0,1-2.319.488,4.026,4.026,0,0,1-1.892-.439,2.423,2.423,0,0,1-1.184-1.367c-.033-.13-.073-.35-.122-.66q-.123-.732-.366-1.672a5.88,5.88,0,0,0-.72-1.685,1.5,1.5,0,0,0-1.331-.744,1.625,1.625,0,0,0-1.355.9,7.173,7.173,0,0,0-.879,2.368,15.274,15.274,0,0,0-.3,3.125,19.073,19.073,0,0,0,.586,5.116A5.644,5.644,0,0,0,344.8,100.3a2.884,2.884,0,0,0,1.941.782,2.958,2.958,0,0,0,2.063-.818,2.389,2.389,0,0,0,.891-1.77q0-.416-.83-.415a5.048,5.048,0,0,0-.976.146,5.512,5.512,0,0,1-1.2.171,1.214,1.214,0,0,1-1.134-.708,3.251,3.251,0,0,1-.379-1.562,3.47,3.47,0,0,1,.4-1.672,1.422,1.422,0,0,1,1.234-.794,7.258,7.258,0,0,1,1.318.171,13.423,13.423,0,0,0,2.734.268,7.215,7.215,0,0,0,1.111-.085,6.508,6.508,0,0,1,.989-.086q3.271,0,4.858,4.151a24.957,24.957,0,0,1,1.319,8.74,24.5,24.5,0,0,1-1.27,8.789q-.171.318-.988.525a7.322,7.322,0,0,1-1.795.207,6.266,6.266,0,0,1-2.075-.33q-.953-.327-.952-1.11c.015-.423.032-.732.048-.928s.025-.5.025-.927a3.7,3.7,0,0,0-.122-1.111q-.123-.354-.293-.354-.366,0-.952,1.318a5.373,5.373,0,0,1-2.539,2.6A8.578,8.578,0,0,1,344.346,116.362Z" fill="#242424"/>
    <path id="패스_1672" data-name="패스 1672" d="M370.42,116.337a10.592,10.592,0,0,1-5.066-1.086,7.452,7.452,0,0,1-3.015-2.82,7.2,7.2,0,0,1-1-3.662,7.609,7.609,0,0,1,.195-1.709,57.213,57.213,0,0,1,1.758-5.786q.879-2.417,1.538-4.773a17.014,17.014,0,0,0,.659-4.6,10.8,10.8,0,0,0-.342-2.7,8.861,8.861,0,0,0-1.16-2.6,4.3,4.3,0,0,1-.817-2.246,2.131,2.131,0,0,1,.781-1.709,4.914,4.914,0,0,1,2.015-.965,10.792,10.792,0,0,1,2.6-.305,10.919,10.919,0,0,1,2.7.331,5.449,5.449,0,0,1,2.136,1,2.071,2.071,0,0,1,.831,1.672,3.483,3.483,0,0,1-.708,1.88,8.2,8.2,0,0,0-1.16,2.954,19.136,19.136,0,0,0-.379,3.931,25.127,25.127,0,0,0,.977,6.885,12.182,12.182,0,0,0,2.856,5.346,6.052,6.052,0,0,1,2.173,4.371,5.279,5.279,0,0,1-1.147,3.3,8.559,8.559,0,0,1-2.894,2.392A7.593,7.593,0,0,1,370.42,116.337Z" fill="#242424"/>
    <path id="패스_1673" data-name="패스 1673" d="M404.087,116.337a7.02,7.02,0,0,1-3.54-.964,7.649,7.649,0,0,1-2.735-2.661,7.245,7.245,0,0,1-1.049-3.894,10.537,10.537,0,0,1,1.342-4.81,7.656,7.656,0,0,0,.953-3.54,7.256,7.256,0,0,0-.721-3.2,10.009,10.009,0,0,0-1.818-2.624,9.2,9.2,0,0,0-2.332-1.783,4.9,4.9,0,0,0-2.234-.647,2.051,2.051,0,0,0-1.514.586,2.62,2.62,0,0,0-.585,1.9q0,3.148,3.759,9.5a10.421,10.421,0,0,1,1.612,5.224,6.75,6.75,0,0,1-.964,3.614,6.877,6.877,0,0,1-5.872,3.295,10.515,10.515,0,0,1-4.993-1.062,7.222,7.222,0,0,1-2.966-2.758,7.1,7.1,0,0,1-.977-3.6q0-2.1,2.1-7.618.951-2.49,1.684-4.907a16.251,16.251,0,0,0,.733-4.736,10.092,10.092,0,0,0-.33-2.575,9.409,9.409,0,0,0-1.075-2.491,4.341,4.341,0,0,1-.744-2.161,2.179,2.179,0,0,1,.793-1.745,5.036,5.036,0,0,1,2.039-.989,10.567,10.567,0,0,1,2.613-.318,11.074,11.074,0,0,1,2.526.282,6.15,6.15,0,0,1,2.356,1.159,17.311,17.311,0,0,1,3.052,3.564q1.026,1.466,2.271,2.93,1.758,1.929,2.392,1.929.439,0,.44-.659a7.793,7.793,0,0,0-.464-2.429,7.994,7.994,0,0,0-.83-1.893,3.514,3.514,0,0,1-.83-2,1.977,1.977,0,0,1,.805-1.6,5.346,5.346,0,0,1,2.051-.964,10.927,10.927,0,0,1,5.286.013,5.15,5.15,0,0,1,2.1,1.025,2.272,2.272,0,0,1,.817,1.818,4.346,4.346,0,0,1-.659,2.075,9.289,9.289,0,0,0-1.2,4.542,15.411,15.411,0,0,0,.866,4.967q.867,2.551,1.966,5.164,2.465,5.714,2.466,7.959a6.862,6.862,0,0,1-.928,3.455,6.769,6.769,0,0,1-2.844,2.624A10.35,10.35,0,0,1,404.087,116.337Z" fill="#242424"/>
    <path id="패스_1674" data-name="패스 1674" d="M439.927,116.337a10.137,10.137,0,0,1-2.979-.463,9.271,9.271,0,0,1-2.783-1.392,7.2,7.2,0,0,1-2.051-2.319,6.521,6.521,0,0,1-.781-3.247,11.9,11.9,0,0,1,1.465-5.2,9.811,9.811,0,0,0,1.2-4.126,4.062,4.062,0,0,0-.475-2.062,3.227,3.227,0,0,0-1.234-1.234,3.265,3.265,0,0,0-1.587-.415,3.04,3.04,0,0,0-2.648,1.551,3.722,3.722,0,0,0-.452,1.916,9.383,9.383,0,0,0,1.342,4.37,11.949,11.949,0,0,1,1.587,5.347,6.233,6.233,0,0,1-.805,3.223,7.171,7.171,0,0,1-2.1,2.27,9.435,9.435,0,0,1-2.832,1.343,10.823,10.823,0,0,1-2.978.439,8.709,8.709,0,0,1-5.409-1.671,5.134,5.134,0,0,1-2.209-4.261,9.287,9.287,0,0,1,.526-2.991,24.685,24.685,0,0,1,1.354-3.2q.83-1.649,1.758-3.333,1.026-1.806,1.929-3.626a28.068,28.068,0,0,0,1.5-3.625,11.235,11.235,0,0,0,.6-3.54,7.986,7.986,0,0,0-.317-2.221,4.606,4.606,0,0,1-.2-1.27,3.666,3.666,0,0,1,1.367-2.918,8.9,8.9,0,0,1,3.515-1.732,17.931,17.931,0,0,1,9.009,0,8.916,8.916,0,0,1,3.516,1.732,3.669,3.669,0,0,1,1.367,2.918,4.644,4.644,0,0,1-.2,1.27,7.7,7.7,0,0,0-.318,2.2,10.849,10.849,0,0,0,.622,3.54,27.427,27.427,0,0,0,1.563,3.626q.94,1.818,1.966,3.625.975,1.71,1.831,3.345a24.617,24.617,0,0,1,1.4,3.2,9.076,9.076,0,0,1,.549,3,5.131,5.131,0,0,1-2.209,4.261A8.709,8.709,0,0,1,439.927,116.337Zm-9.009-23.315a2.427,2.427,0,0,0,1.306-.355,1.232,1.232,0,0,0,.574-1.134,2.741,2.741,0,0,0-.22-.977q-.879-1.927-1.831-1.929-1.05,0-1.953,2.295a1.721,1.721,0,0,0-.1.537,1.276,1.276,0,0,0,.708,1.148A2.943,2.943,0,0,0,430.918,93.022Z" fill="#242424"/>
    <path id="패스_1675" data-name="패스 1675" d="M462.461,116.337a22.78,22.78,0,0,1-6.836-.964,12.043,12.043,0,0,1-4.895-2.735,5.623,5.623,0,0,1-1.819-4.162,6.018,6.018,0,0,1,.171-1.416,52.657,52.657,0,0,1,1.782-5.81q.855-2.393,1.527-4.749a16.769,16.769,0,0,0,.671-4.6,10.846,10.846,0,0,0-.342-2.7,9.089,9.089,0,0,0-1.148-2.6,4.32,4.32,0,0,1-.8-2.222,2.13,2.13,0,0,1,.781-1.709,5.018,5.018,0,0,1,2.026-.976,10.466,10.466,0,0,1,2.588-.318,10.911,10.911,0,0,1,2.7.331,5.46,5.46,0,0,1,2.137,1,2.093,2.093,0,0,1,.83,1.7,3.554,3.554,0,0,1-.732,1.892,7.963,7.963,0,0,0-1.1,2.563,12.7,12.7,0,0,0-.366,3.064,13.692,13.692,0,0,0,.513,3.76,7.962,7.962,0,0,0,1.464,2.954,2.842,2.842,0,0,0,2.247,1.148q1.806,0,3.784-2.442a4.041,4.041,0,0,1,2.954-1.709,3.178,3.178,0,0,1,2.136.9,6.48,6.48,0,0,1,1.66,2.734,14.035,14.035,0,0,1,.647,4.614q0,6.789-3.955,9.864A13.553,13.553,0,0,1,462.461,116.337Z" fill="#242424"/>
  </g>
</svg>
