<svg xmlns="http://www.w3.org/2000/svg" width="205.151" height="35.889" viewBox="0 0 205.151 35.889">
  <g id="그룹_866" data-name="그룹 866" transform="translate(-23.814 -80.913)">
    <path id="패스_1661" data-name="패스 1661" d="M40.123,116.8a14.107,14.107,0,0,1-4.858-.843,9.423,9.423,0,0,1-3.846-2.526,7.092,7.092,0,0,1-1.77-4.2q-.146-2.391-.146-4.98v-1.978q0-2.417-.147-5.1-.39-6.42-3.759-9.57a4.457,4.457,0,0,1-1.783-3.052,2.488,2.488,0,0,1,.953-1.942,6.533,6.533,0,0,1,2.417-1.256,10.306,10.306,0,0,1,2.978-.44,8.025,8.025,0,0,1,2.332.329,4.117,4.117,0,0,1,1.77,1.026,2.455,2.455,0,0,1,.683,1.8,4.879,4.879,0,0,1-.146,1.123,6.206,6.206,0,0,0-.2,1.611,16.463,16.463,0,0,0,2.051,7.3,36.5,36.5,0,0,0,1.953,3.626q.781,1.206,1.465,1.208.66,0,1.441-1.16a34.3,34.3,0,0,0,1.953-3.479,22.984,22.984,0,0,0,1.55-3.87,12.841,12.841,0,0,0,.574-3.625,6.249,6.249,0,0,0-.2-1.611,4.879,4.879,0,0,1-.146-1.123,2.43,2.43,0,0,1,.659-1.758,3.991,3.991,0,0,1,1.734-1.014,7.8,7.8,0,0,1,2.295-.329,10.229,10.229,0,0,1,3.015.452,6.71,6.71,0,0,1,2.453,1.293,2.558,2.558,0,0,1,.977,1.99,2.976,2.976,0,0,1-.427,1.428A6.774,6.774,0,0,1,54.6,87.749a10.72,10.72,0,0,0-2.955,4.614,26.834,26.834,0,0,0-1.2,6.934q-.245,4.126-.244,9.936a6.243,6.243,0,0,1-.867,3.308,7.4,7.4,0,0,1-2.3,2.369,10.908,10.908,0,0,1-3.234,1.416A14.432,14.432,0,0,1,40.123,116.8Z" fill="#242424"/>
    <path id="패스_1662" data-name="패스 1662" d="M78.233,116.338a10.1,10.1,0,0,1-2.978-.464,9.236,9.236,0,0,1-2.783-1.392,7.179,7.179,0,0,1-2.051-2.319,6.511,6.511,0,0,1-.781-3.247,11.9,11.9,0,0,1,1.464-5.2,9.815,9.815,0,0,0,1.2-4.126,4.056,4.056,0,0,0-.476-2.063,3.209,3.209,0,0,0-1.233-1.233A3.265,3.265,0,0,0,69,95.879a3.043,3.043,0,0,0-2.649,1.551,3.727,3.727,0,0,0-.452,1.916,9.393,9.393,0,0,0,1.343,4.37,11.945,11.945,0,0,1,1.587,5.347,6.23,6.23,0,0,1-.806,3.222,7.183,7.183,0,0,1-2.1,2.271A9.468,9.468,0,0,1,63.1,115.9a10.832,10.832,0,0,1-2.979.44,8.707,8.707,0,0,1-5.408-1.672A5.129,5.129,0,0,1,52.5,110.4a9.313,9.313,0,0,1,.525-2.991,24.548,24.548,0,0,1,1.355-3.2q.829-1.65,1.758-3.333,1.024-1.806,1.928-3.626a27.645,27.645,0,0,0,1.5-3.625,11.215,11.215,0,0,0,.6-3.54,8,8,0,0,0-.317-2.222,4.609,4.609,0,0,1-.2-1.269,3.665,3.665,0,0,1,1.367-2.918,8.9,8.9,0,0,1,3.516-1.733,17.962,17.962,0,0,1,9.009,0,8.91,8.91,0,0,1,3.516,1.733A3.668,3.668,0,0,1,78.429,86.6a4.647,4.647,0,0,1-.2,1.269,7.706,7.706,0,0,0-.317,2.2,10.844,10.844,0,0,0,.622,3.54A27.426,27.426,0,0,0,80.1,97.234q.94,1.818,1.965,3.625.977,1.71,1.831,3.345a24.552,24.552,0,0,1,1.4,3.2,9.076,9.076,0,0,1,.549,3,5.131,5.131,0,0,1-2.209,4.261A8.712,8.712,0,0,1,78.233,116.338ZM69.225,93.022a2.432,2.432,0,0,0,1.305-.354,1.23,1.23,0,0,0,.574-1.135,2.759,2.759,0,0,0-.219-.976q-.879-1.929-1.831-1.929-1.05,0-1.953,2.295a1.688,1.688,0,0,0-.1.537,1.274,1.274,0,0,0,.708,1.147A2.933,2.933,0,0,0,69.225,93.022Z" fill="#242424"/>
    <path id="패스_1663" data-name="패스 1663" d="M111.852,116.338a7.009,7.009,0,0,1-3.54-.965,7.63,7.63,0,0,1-2.735-2.66,7.252,7.252,0,0,1-1.05-3.895,10.535,10.535,0,0,1,1.343-4.809,7.66,7.66,0,0,0,.952-3.54,7.252,7.252,0,0,0-.72-3.2,9.976,9.976,0,0,0-1.819-2.625,9.231,9.231,0,0,0-2.332-1.783,4.9,4.9,0,0,0-2.233-.646A2.047,2.047,0,0,0,98.2,92.8a2.611,2.611,0,0,0-.586,1.9q0,3.15,3.76,9.5a10.423,10.423,0,0,1,1.611,5.225,6.735,6.735,0,0,1-.964,3.613,6.872,6.872,0,0,1-5.872,3.3,10.515,10.515,0,0,1-4.993-1.063,7.239,7.239,0,0,1-2.966-2.757,7.111,7.111,0,0,1-.976-3.6q0-2.1,2.1-7.617.953-2.49,1.685-4.907a16.294,16.294,0,0,0,.732-4.737,10.052,10.052,0,0,0-.33-2.575,9.352,9.352,0,0,0-1.074-2.49,4.341,4.341,0,0,1-.744-2.161,2.179,2.179,0,0,1,.793-1.745,5.018,5.018,0,0,1,2.039-.99,10.559,10.559,0,0,1,2.612-.317,11.14,11.14,0,0,1,2.527.281,6.178,6.178,0,0,1,2.356,1.159,17.348,17.348,0,0,1,3.052,3.565q1.025,1.464,2.27,2.93,1.758,1.929,2.393,1.928c.293,0,.439-.219.439-.659a7.794,7.794,0,0,0-.463-2.429,7.932,7.932,0,0,0-.831-1.892,3.521,3.521,0,0,1-.83-2,1.98,1.98,0,0,1,.806-1.6,5.361,5.361,0,0,1,2.051-.964,10.959,10.959,0,0,1,5.286.013,5.182,5.182,0,0,1,2.1,1.025A2.277,2.277,0,0,1,117,84.551a4.36,4.36,0,0,1-.659,2.075,9.287,9.287,0,0,0-1.2,4.541,15.419,15.419,0,0,0,.867,4.968q.867,2.551,1.965,5.164,2.466,5.712,2.466,7.959a6.861,6.861,0,0,1-.927,3.455,6.781,6.781,0,0,1-2.844,2.624A10.35,10.35,0,0,1,111.852,116.338Z" fill="#242424"/>
    <path id="패스_1664" data-name="패스 1664" d="M131.236,116.338a10.594,10.594,0,0,1-5.066-1.086,7.458,7.458,0,0,1-3.015-2.82,7.206,7.206,0,0,1-1-3.662,7.6,7.6,0,0,1,.2-1.709,57.034,57.034,0,0,1,1.757-5.787q.879-2.417,1.539-4.772a17.061,17.061,0,0,0,.659-4.6,10.851,10.851,0,0,0-.342-2.7,8.871,8.871,0,0,0-1.16-2.6,4.3,4.3,0,0,1-.818-2.247,2.131,2.131,0,0,1,.782-1.709,4.9,4.9,0,0,1,2.014-.964,11.21,11.21,0,0,1,5.3.025,5.488,5.488,0,0,1,2.137,1,2.072,2.072,0,0,1,.83,1.673,3.475,3.475,0,0,1-.708,1.88,8.187,8.187,0,0,0-1.159,2.954,19.136,19.136,0,0,0-.379,3.931,25.124,25.124,0,0,0,.976,6.884,12.193,12.193,0,0,0,2.857,5.347,6.055,6.055,0,0,1,2.173,4.37,5.272,5.272,0,0,1-1.148,3.3,8.56,8.56,0,0,1-2.893,2.393A7.606,7.606,0,0,1,131.236,116.338Z" fill="#242424"/>
    <path id="패스_1665" data-name="패스 1665" d="M153.819,116.338a22.747,22.747,0,0,1-6.836-.965,12.056,12.056,0,0,1-4.894-2.734,5.621,5.621,0,0,1-1.819-4.162,6.011,6.011,0,0,1,.17-1.416,52.685,52.685,0,0,1,1.783-5.811q.854-2.393,1.526-4.748a16.776,16.776,0,0,0,.671-4.6,10.805,10.805,0,0,0-.342-2.7,9.041,9.041,0,0,0-1.147-2.6,4.323,4.323,0,0,1-.806-2.222,2.131,2.131,0,0,1,.781-1.709,5.017,5.017,0,0,1,2.027-.977,10.46,10.46,0,0,1,2.588-.317,10.917,10.917,0,0,1,2.7.33,5.477,5.477,0,0,1,2.136,1,2.1,2.1,0,0,1,.831,1.7,3.563,3.563,0,0,1-.733,1.893,7.977,7.977,0,0,0-1.1,2.562,12.659,12.659,0,0,0-.367,3.065,13.7,13.7,0,0,0,.513,3.76,7.971,7.971,0,0,0,1.465,2.954,2.843,2.843,0,0,0,2.246,1.147q1.806,0,3.784-2.441a4.039,4.039,0,0,1,2.954-1.709,3.181,3.181,0,0,1,2.136.9,6.483,6.483,0,0,1,1.66,2.734,14.008,14.008,0,0,1,.648,4.615q0,6.788-3.956,9.863A13.547,13.547,0,0,1,153.819,116.338Z" fill="#242424"/>
    <path id="패스_1666" data-name="패스 1666" d="M181.578,116.338a22.747,22.747,0,0,1-6.836-.965,12.05,12.05,0,0,1-4.894-2.734,5.621,5.621,0,0,1-1.82-4.162,6.012,6.012,0,0,1,.171-1.416,52.894,52.894,0,0,1,1.782-5.811q.855-2.393,1.527-4.748a16.776,16.776,0,0,0,.671-4.6,10.852,10.852,0,0,0-.342-2.7,9.044,9.044,0,0,0-1.148-2.6,4.32,4.32,0,0,1-.8-2.222,2.131,2.131,0,0,1,.781-1.709,5.013,5.013,0,0,1,2.026-.977,10.466,10.466,0,0,1,2.588-.317,10.925,10.925,0,0,1,2.7.33,5.477,5.477,0,0,1,2.136,1,2.1,2.1,0,0,1,.83,1.7,3.56,3.56,0,0,1-.732,1.893,7.979,7.979,0,0,0-1.1,2.562,12.708,12.708,0,0,0-.366,3.065,13.7,13.7,0,0,0,.513,3.76,7.971,7.971,0,0,0,1.465,2.954,2.841,2.841,0,0,0,2.246,1.147q1.806,0,3.784-2.441a4.038,4.038,0,0,1,2.954-1.709,3.181,3.181,0,0,1,2.136.9,6.483,6.483,0,0,1,1.66,2.734,14.01,14.01,0,0,1,.647,4.615q0,6.788-3.955,9.863A13.547,13.547,0,0,1,181.578,116.338Z" fill="#242424"/>
    <path id="패스_1667" data-name="패스 1667" d="M221.349,116.338a10.106,10.106,0,0,1-2.979-.464,9.248,9.248,0,0,1-2.783-1.392,7.191,7.191,0,0,1-2.051-2.319,6.521,6.521,0,0,1-.781-3.247,11.894,11.894,0,0,1,1.465-5.2,9.811,9.811,0,0,0,1.2-4.126,4.056,4.056,0,0,0-.476-2.063,3.209,3.209,0,0,0-1.233-1.233,3.265,3.265,0,0,0-1.587-.415,3.04,3.04,0,0,0-2.648,1.551,3.717,3.717,0,0,0-.452,1.916,9.39,9.39,0,0,0,1.342,4.37,11.945,11.945,0,0,1,1.587,5.347,6.229,6.229,0,0,1-.805,3.222,7.2,7.2,0,0,1-2.1,2.271,9.456,9.456,0,0,1-2.832,1.342,10.827,10.827,0,0,1-2.979.44,8.709,8.709,0,0,1-5.408-1.672,5.131,5.131,0,0,1-2.209-4.261,9.288,9.288,0,0,1,.526-2.991,24.537,24.537,0,0,1,1.354-3.2q.829-1.65,1.758-3.333,1.024-1.806,1.929-3.626a28.07,28.07,0,0,0,1.5-3.625,11.24,11.24,0,0,0,.6-3.54,8,8,0,0,0-.317-2.222,4.605,4.605,0,0,1-.195-1.269,3.665,3.665,0,0,1,1.367-2.918,8.892,8.892,0,0,1,3.515-1.733,17.962,17.962,0,0,1,9.009,0,8.9,8.9,0,0,1,3.516,1.733,3.668,3.668,0,0,1,1.367,2.918,4.643,4.643,0,0,1-.2,1.269,7.707,7.707,0,0,0-.318,2.2,10.844,10.844,0,0,0,.622,3.54,27.425,27.425,0,0,0,1.563,3.626q.94,1.818,1.966,3.625.975,1.71,1.831,3.345a24.677,24.677,0,0,1,1.4,3.2,9.076,9.076,0,0,1,.549,3,5.131,5.131,0,0,1-2.209,4.261A8.711,8.711,0,0,1,221.349,116.338ZM212.34,93.022a2.435,2.435,0,0,0,1.306-.354,1.232,1.232,0,0,0,.574-1.135,2.763,2.763,0,0,0-.22-.976q-.879-1.929-1.831-1.929-1.05,0-1.953,2.295a1.688,1.688,0,0,0-.1.537,1.275,1.275,0,0,0,.708,1.147A2.933,2.933,0,0,0,212.34,93.022Z" fill="#242424"/>
  </g>
</svg>
