<svg xmlns="http://www.w3.org/2000/svg" width="339.978" height="45.066" viewBox="0 0 339.978 45.066">
  <g id="그룹_817" data-name="그룹 817" transform="translate(1115.32 34.753)">
    <path id="패스_1428" data-name="패스 1428" d="M-1076.991,9.79h-9.813l-16.519-24.025h-.308V9.79h-11.689V-34.753h10l16.273,23.963h.369V-34.753h11.69Z" fill="#040506"/>
    <path id="패스_1429" data-name="패스 1429" d="M-1070.962-34.753h31.808v9.444h-20.118v8.09h18.487v9.444h-18.487V.346h20.025V9.79h-31.715Z" fill="#040506"/>
    <path id="패스_1430" data-name="패스 1430" d="M-1034.971-34.753h13.013l6.275,27.87h.369l7.321-27.87h10.4l7.352,27.993h.369l6.245-27.993h13.043L-983.629,9.79H-994.95l-7.659-25.5h-.339l-7.69,25.5h-11.228Z" fill="#040506"/>
    <path id="패스_1431" data-name="패스 1431" d="M-938.287-34.753l10.675,25.871h.492l10.613-25.871h14.581V9.79H-913.37V-16.419h-.369l-10.12,25.871h-7.014l-10.121-25.994h-.369V9.79h-11.443V-34.753Z" fill="#040506"/>
    <path id="패스_1432" data-name="패스 1432" d="M-895.9-34.753h31.808v9.444h-20.119v8.09h18.488v9.444h-18.488V.346h20.026V9.79H-895.9Z" fill="#040506"/>
    <path id="패스_1433" data-name="패스 1433" d="M-819.608,9.79h-9.813L-845.94-14.235h-.308V9.79h-11.689V-34.753h10l16.272,23.963h.37V-34.753h11.689Z" fill="#040506"/>
    <path id="패스_1434" data-name="패스 1434" d="M-775.342-34.753V-6.145a15.657,15.657,0,0,1-2.384,8.66,15.752,15.752,0,0,1-6.736,5.753,23.382,23.382,0,0,1-10.044,2.045,23.068,23.068,0,0,1-10-2.045A15.808,15.808,0,0,1-811.2,2.515a15.656,15.656,0,0,1-2.384-8.66V-34.753h11.69V-7.16a7.489,7.489,0,0,0,.953,3.768A6.854,6.854,0,0,0-798.29-.761a7.565,7.565,0,0,0,3.784.953,7.754,7.754,0,0,0,3.876-.953,6.642,6.642,0,0,0,2.614-2.631,7.671,7.671,0,0,0,.923-3.768V-34.753Z" fill="#040506"/>
  </g>
</svg>
