<svg xmlns="http://www.w3.org/2000/svg" width="133.783" height="44.543" viewBox="0 0 133.783 44.543">
  <g id="그룹_818" data-name="그룹 818" transform="translate(1116.951 -284.134)">
    <path id="패스_1435" data-name="패스 1435" d="M-1116.951,328.677l14.8-44.543h15.9l14.8,44.543H-1084.1L-1094,296.1h-.37l-9.936,32.577Zm34.884-17.6v8.829h-24.455v-8.829Z" fill="#040506"/>
    <path id="패스_1436" data-name="패스 1436" d="M-1055.366,328.677h-11.689V284.134h11.689Zm-6.89,0V318.71h11.689a13.348,13.348,0,0,0,5.952-1.169,7.673,7.673,0,0,0,3.584-3.876,17.8,17.8,0,0,0,1.231-7.26,17.988,17.988,0,0,0-1.231-7.321,7.467,7.467,0,0,0-3.66-3.845,14.525,14.525,0,0,0-6.153-1.138h-11.6v-9.967h12.151a24.965,24.965,0,0,1,11.889,2.676,18.375,18.375,0,0,1,7.722,7.69,24.836,24.836,0,0,1,2.691,11.9,24.835,24.835,0,0,1-2.691,11.906A18.425,18.425,0,0,1-1038.37,326a24.569,24.569,0,0,1-11.766,2.677Z" fill="#040506"/>
    <path id="패스_1437" data-name="패스 1437" d="M-1010.546,328.677h-11.689V284.134h11.689Zm-6.891,0V318.71h11.69a13.351,13.351,0,0,0,5.952-1.169,7.678,7.678,0,0,0,3.584-3.876,17.8,17.8,0,0,0,1.231-7.26,17.987,17.987,0,0,0-1.231-7.321,7.466,7.466,0,0,0-3.661-3.845,14.517,14.517,0,0,0-6.152-1.138h-11.6v-9.967h12.151a24.967,24.967,0,0,1,11.889,2.676,18.381,18.381,0,0,1,7.722,7.69,24.835,24.835,0,0,1,2.691,11.9,24.834,24.834,0,0,1-2.691,11.906A18.424,18.424,0,0,1-993.55,326a24.569,24.569,0,0,1-11.766,2.677Z" fill="#040506"/>
  </g>
</svg>
