<svg xmlns="http://www.w3.org/2000/svg" width="209.303" height="45.774" viewBox="0 0 209.303 45.774">
  <g id="그룹_820" data-name="그룹 820" transform="translate(1127.598 -391.529)">
    <path id="패스_1445" data-name="패스 1445" d="M-1087.315,426.767a19.086,19.086,0,0,1-7.722,7.86,22.651,22.651,0,0,1-11.028,2.676,22.565,22.565,0,0,1-11.013-2.676,19.085,19.085,0,0,1-7.7-7.875,25.539,25.539,0,0,1-2.815-12.336,25.561,25.561,0,0,1,2.815-12.4,19.036,19.036,0,0,1,7.7-7.83,22.678,22.678,0,0,1,11.013-2.661,22.764,22.764,0,0,1,11.028,2.661,19.016,19.016,0,0,1,7.722,7.83,25.574,25.574,0,0,1,2.814,12.4A25.525,25.525,0,0,1-1087.315,426.767Zm-10.306-19.272a8.894,8.894,0,0,0-3.23-4.292,9.022,9.022,0,0,0-5.214-1.461,8.949,8.949,0,0,0-5.2,1.461,8.937,8.937,0,0,0-3.215,4.292,19.3,19.3,0,0,0-1.091,6.921,19.3,19.3,0,0,0,1.091,6.922,8.929,8.929,0,0,0,3.215,4.291,8.941,8.941,0,0,0,5.2,1.461,9.014,9.014,0,0,0,5.214-1.461,8.886,8.886,0,0,0,3.23-4.291,19.3,19.3,0,0,0,1.092-6.922A19.3,19.3,0,0,0-1097.621,407.495Z" fill="#040506"/>
    <path id="패스_1446" data-name="패스 1446" d="M-1078.749,392.145h18.95a19.551,19.551,0,0,1,8.69,1.815,13.45,13.45,0,0,1,5.752,5.214,15.242,15.242,0,0,1,2.046,8.014,14.652,14.652,0,0,1-2.076,7.951,12.96,12.96,0,0,1-5.891,5,21.842,21.842,0,0,1-8.921,1.692h-11.536v-9.167h9.259a10.907,10.907,0,0,0,3.815-.569,4.711,4.711,0,0,0,2.323-1.784,5.5,5.5,0,0,0,.815-3.122,5.72,5.72,0,0,0-.815-3.185,4.893,4.893,0,0,0-2.354-1.86,10.208,10.208,0,0,0-3.784-.616h-4.583v35.161h-11.69Zm36.915,44.543H-1054.6l-10.828-20.395h12.49Z" fill="#040506"/>
    <path id="패스_1447" data-name="패스 1447" d="M-1026.3,436.688h-11.689V392.145h11.689Zm-6.89,0v-9.967h11.689a13.337,13.337,0,0,0,5.952-1.169,7.681,7.681,0,0,0,3.584-3.876,17.8,17.8,0,0,0,1.231-7.26,17.984,17.984,0,0,0-1.231-7.321,7.467,7.467,0,0,0-3.66-3.845,14.524,14.524,0,0,0-6.153-1.139h-11.6v-9.966h12.151a24.967,24.967,0,0,1,11.889,2.676,18.372,18.372,0,0,1,7.722,7.691,24.826,24.826,0,0,1,2.691,11.9,24.827,24.827,0,0,1-2.691,11.905,18.424,18.424,0,0,1-7.691,7.691,24.58,24.58,0,0,1-11.766,2.676Z" fill="#040506"/>
    <path id="패스_1448" data-name="패스 1448" d="M-993.169,392.145h31.807v9.444H-981.48v8.09h18.488v9.444H-981.48v8.121h20.026v9.444h-31.715Z" fill="#040506"/>
    <path id="패스_1449" data-name="패스 1449" d="M-955.209,392.145h18.949a19.55,19.55,0,0,1,8.69,1.815,13.451,13.451,0,0,1,5.752,5.214,15.242,15.242,0,0,1,2.046,8.014,14.651,14.651,0,0,1-2.076,7.951,12.96,12.96,0,0,1-5.891,5,21.841,21.841,0,0,1-8.921,1.692H-948.2v-9.167h9.259a10.9,10.9,0,0,0,3.815-.569,4.711,4.711,0,0,0,2.323-1.784,5.5,5.5,0,0,0,.815-3.122A5.719,5.719,0,0,0-932.8,404a4.889,4.889,0,0,0-2.354-1.86,10.208,10.208,0,0,0-3.784-.616h-4.583v35.161h-11.689Zm36.914,44.543h-12.767l-10.828-20.395h12.49Z" fill="#040506"/>
  </g>
</svg>
