<svg xmlns="http://www.w3.org/2000/svg" width="57.89" height="47.767" viewBox="0 0 57.89 47.767">
  <g id="그룹_728" data-name="그룹 728" transform="translate(-10615.467 -2075.258)">
    <path id="패스_61" data-name="패스 61" d="M25.155,33.289,18.4,36.52a1.13,1.13,0,0,1-1.506-.532l-.911-1.9a1.128,1.128,0,0,1,.259-1.316l-.437-.913-5.219-3.492a5.414,5.414,0,0,1-2.013-2.272L.194,8.574C.035,8.241-1.166,5.244,5.13,1.91a.774.774,0,0,1,.148-.093c.189-.092.373-.18.546-.261l.3-.147.25-.118a.793.793,0,0,1,.162-.055c6.551-2.812,8.13.007,8.289.34l8.377,17.517a5.416,5.416,0,0,1,.5,2.994l-.558,6.255.437.913a1.128,1.128,0,0,1,1.187.625l.91,1.9A1.13,1.13,0,0,1,25.155,33.289Z" transform="translate(10641.121 2114.385) rotate(-174)" fill="#bb5300"/>
    <path id="패스_980" data-name="패스 980" d="M170.67,66.434a12.747,12.747,0,0,1-3.753-.584A11.729,11.729,0,0,1,163.41,64.1a9.073,9.073,0,0,1-2.584-2.922,8.226,8.226,0,0,1-.985-4.092,15,15,0,0,1,1.846-6.552,12.355,12.355,0,0,0,1.508-5.2,5.1,5.1,0,0,0-.6-2.6,4.049,4.049,0,0,0-1.552-1.554,4.11,4.11,0,0,0-2-.522,3.834,3.834,0,0,0-3.338,1.953,4.707,4.707,0,0,0-.569,2.415,11.828,11.828,0,0,0,1.692,5.506,15.051,15.051,0,0,1,2,6.737,7.853,7.853,0,0,1-1.016,4.061,9.046,9.046,0,0,1-2.645,2.86A11.871,11.871,0,0,1,151.6,65.88a13.644,13.644,0,0,1-3.753.554,10.958,10.958,0,0,1-6.813-2.107,6.46,6.46,0,0,1-2.784-5.368,11.728,11.728,0,0,1,.661-3.768,31.3,31.3,0,0,1,1.708-4.03q1.044-2.076,2.215-4.2,1.292-2.274,2.429-4.567a34.916,34.916,0,0,0,1.892-4.568,14.127,14.127,0,0,0,.754-4.46,10.063,10.063,0,0,0-.4-2.8,5.814,5.814,0,0,1-.246-1.6,4.618,4.618,0,0,1,1.723-3.676,11.228,11.228,0,0,1,4.43-2.184,22.634,22.634,0,0,1,11.35,0,11.228,11.228,0,0,1,4.43,2.184,4.621,4.621,0,0,1,1.723,3.676,5.852,5.852,0,0,1-.246,1.6,9.7,9.7,0,0,0-.4,2.768,13.64,13.64,0,0,0,.784,4.461,34.225,34.225,0,0,0,1.969,4.568q1.184,2.292,2.477,4.568,1.229,2.154,2.306,4.214a30.762,30.762,0,0,1,1.769,4.03,11.382,11.382,0,0,1,.692,3.784,6.46,6.46,0,0,1-2.784,5.368,10.958,10.958,0,0,1-6.813,2.107M159.319,37.057a3.077,3.077,0,0,0,1.646-.446,1.557,1.557,0,0,0,.722-1.431,3.464,3.464,0,0,0-.276-1.23q-1.107-2.432-2.308-2.43-1.323,0-2.461,2.891a2.158,2.158,0,0,0-.123.677,1.608,1.608,0,0,0,.893,1.446,3.715,3.715,0,0,0,1.907.523" transform="translate(10493.09 2056.591)" fill="#ed6c05"/>
  </g>
</svg>
