<svg xmlns="http://www.w3.org/2000/svg" width="66.259" height="64.287" viewBox="0 0 66.259 64.287">
  <g id="그룹_729" data-name="그룹 729" transform="translate(-10368.781 -1917.962)">
    <g id="그룹_644" data-name="그룹 644" transform="matrix(0.914, -0.407, 0.407, 0.914, 5387.087, -5543.61)">
      <path id="패스_193" data-name="패스 193" d="M24.369.244,5.673,5.1A7.574,7.574,0,0,0,3.737,18.96l.817.48a2.221,2.221,0,0,1,1.019,1.35L8.315,31.349a4.865,4.865,0,0,0,5.927,3.483L31.35,30.39a4.865,4.865,0,0,0,3.483-5.927L32.09,13.9a2.219,2.219,0,0,1,.235-1.676l.478-.816A7.574,7.574,0,0,0,24.369.244Z" transform="translate(1513.76 8847.999) rotate(14.5)" fill="#bb5300"/>
    </g>
    <path id="패스_979" data-name="패스 979" d="M30.454,53.218a8.687,8.687,0,0,1-4.307-.984,10.128,10.128,0,0,1-2.983-2.523,23.968,23.968,0,0,1-2.184-3.23q-.74-1.293-1.2-2a2.452,2.452,0,0,0-.6-.662,1.266,1.266,0,0,0-.692-.169q-1.632,0-2-.031a9.287,9.287,0,0,0-1.138-.061,13.071,13.071,0,0,1-7.552-2.4,17.11,17.11,0,0,1-5.645-6.844A23.945,23.945,0,0,1,0,23.779,33.324,33.324,0,0,1,1.477,13.32,22.3,22.3,0,0,1,5.43,5.906a16.518,16.518,0,0,1,5.6-4.429A14.772,14.772,0,0,1,17.411,0a15.025,15.025,0,0,1,6.522,1.508,16.812,16.812,0,0,1,5.66,4.476A22.353,22.353,0,0,1,33.561,13.4a32.657,32.657,0,0,1,1.477,10.29,25.683,25.683,0,0,1-.862,7,18.733,18.733,0,0,1-2.338,5.26,17.455,17.455,0,0,1-3.353,3.8q-1.724,1.508-1.722,2.061,0,.4.676.4a13.374,13.374,0,0,0,4.184-.984,7.862,7.862,0,0,0,1.338-.554,1.382,1.382,0,0,1,.723-.216q.953,0,1.477,1.354a8.978,8.978,0,0,1,.523,3.23,13.331,13.331,0,0,1-.554,3.723,8.12,8.12,0,0,1-1.692,3.184,3.81,3.81,0,0,1-2.984,1.276M17.688,21.841a3.369,3.369,0,0,0,2.769-1.83,9.919,9.919,0,0,0,1.2-5.4,20.253,20.253,0,0,0-.615-5.429,8.8,8.8,0,0,0-1.554-3.277A2.6,2.6,0,0,0,17.565,4.8q-1.508,0-2.646,2.415a17.937,17.937,0,0,0-1.138,7.306,12.334,12.334,0,0,0,.585,4.137,5.724,5.724,0,0,0,1.476,2.4,2.784,2.784,0,0,0,1.846.784" transform="translate(10399.356 1929.031)" fill="#fbf8f4"/>
  </g>
</svg>
