<svg xmlns="http://www.w3.org/2000/svg" width="292.544" height="67.736" viewBox="0 0 292.544 67.736">
  <g id="그룹_933" data-name="그룹 933" transform="translate(-110.2 -309.714)">
    <path id="패스_1738" data-name="패스 1738" d="M208.965,339.45a17.2,17.2,0,0,1-5.352-.82,9.4,9.4,0,0,1-4.081-2.5,6.417,6.417,0,0,1-1.641-4.553,9.6,9.6,0,0,1,.533-3.076q.534-1.579,1.231-3.22.759-1.722,1.353-3.507a11.2,11.2,0,0,0,.6-3.568,7.606,7.606,0,0,0-.9-3.65,3.327,3.327,0,0,1-.41-1.456,2.234,2.234,0,0,1,1.066-1.908,7.583,7.583,0,0,1,2.789-1.1,17.921,17.921,0,0,1,3.671-.36,21.638,21.638,0,0,1,4.542.461,10.314,10.314,0,0,1,3.476,1.334,2.622,2.622,0,0,1,1.374,2.122q0,1.723-2.768,3.22c-.328.178-.578.321-.749.431s-.256.212-.256.307q0,.307,1.231.739a12.766,12.766,0,0,1,6.008,4.368,12.044,12.044,0,0,1,2.277,7.219,6.965,6.965,0,0,1-1.231,4.071,10.321,10.321,0,0,1-3.261,2.983,16.706,16.706,0,0,1-4.511,1.835A20.326,20.326,0,0,1,208.965,339.45Zm-.635-22.374a1.966,1.966,0,0,0,.82-.225,9.817,9.817,0,0,0,2.379-1.589,2,2,0,0,0,.718-1.221q0-.8-1.415-.861a5.151,5.151,0,0,0-1.457.246,2.657,2.657,0,0,0-1.445,1.087,2.721,2.721,0,0,0-.482,1.456,1.377,1.377,0,0,0,.215.789A.748.748,0,0,0,208.33,317.076Zm4,6.932a3.346,3.346,0,0,0,1.527-.256.749.749,0,0,0,.462-.647,1.809,1.809,0,0,0-.82-1.251,7.769,7.769,0,0,0-2.031-1.168,6.263,6.263,0,0,0-2.379-.493,1.7,1.7,0,0,0-1.189.349,1.115,1.115,0,0,0-.369.841,2.161,2.161,0,0,0,.636,1.415Q209.231,324.007,212.329,324.008Z" fill="#2f2f2f"/>
    <path id="패스_1739" data-name="패스 1739" d="M245.818,339.143a8.506,8.506,0,0,1-2.5-.39,7.807,7.807,0,0,1-2.338-1.169,6.065,6.065,0,0,1-1.723-1.948,5.488,5.488,0,0,1-.656-2.728,9.992,9.992,0,0,1,1.231-4.368,8.23,8.23,0,0,0,1-3.466,3.4,3.4,0,0,0-.4-1.732,2.684,2.684,0,0,0-1.036-1.036,2.728,2.728,0,0,0-1.333-.349,2.552,2.552,0,0,0-2.225,1.3,3.128,3.128,0,0,0-.38,1.609,7.885,7.885,0,0,0,1.128,3.671,10.028,10.028,0,0,1,1.333,4.491,5.235,5.235,0,0,1-.676,2.707,6.041,6.041,0,0,1-1.764,1.908,7.957,7.957,0,0,1-2.379,1.127,9.057,9.057,0,0,1-2.5.37,7.3,7.3,0,0,1-4.542-1.4,4.307,4.307,0,0,1-1.856-3.579,7.835,7.835,0,0,1,.441-2.513,20.713,20.713,0,0,1,1.138-2.685q.7-1.386,1.476-2.8.862-1.518,1.62-3.046a23.232,23.232,0,0,0,1.262-3.045,9.423,9.423,0,0,0,.5-2.973,6.692,6.692,0,0,0-.267-1.867,3.906,3.906,0,0,1-.164-1.066,3.08,3.08,0,0,1,1.149-2.451,7.46,7.46,0,0,1,2.953-1.455,15.06,15.06,0,0,1,7.567,0,7.46,7.46,0,0,1,2.953,1.455,3.08,3.08,0,0,1,1.149,2.451,3.906,3.906,0,0,1-.164,1.066,6.475,6.475,0,0,0-.267,1.846,9.113,9.113,0,0,0,.523,2.974,22.9,22.9,0,0,0,1.313,3.046q.789,1.525,1.651,3.045.819,1.436,1.538,2.809a20.628,20.628,0,0,1,1.179,2.687,7.611,7.611,0,0,1,.461,2.522,4.307,4.307,0,0,1-1.856,3.579A7.3,7.3,0,0,1,245.818,339.143Zm-7.568-19.585a2.043,2.043,0,0,0,1.1-.3,1.035,1.035,0,0,0,.482-.953,2.314,2.314,0,0,0-.185-.821q-.738-1.62-1.538-1.62-.882,0-1.641,1.928a1.454,1.454,0,0,0-.082.451,1.073,1.073,0,0,0,.6.964A2.475,2.475,0,0,0,238.25,319.558Z" fill="#2f2f2f"/>
    <path id="패스_1740" data-name="패스 1740" d="M265.116,339.45a16.274,16.274,0,0,1-4.286-.563,11.32,11.32,0,0,1-3.7-1.744,8.629,8.629,0,0,1-2.594-2.995,9.119,9.119,0,0,1-.964-4.336,9.494,9.494,0,0,1,.5-3.118,6.3,6.3,0,0,1,1.374-2.358,2.664,2.664,0,0,1,1.959-.9,3.241,3.241,0,0,1,1.887.717,7.483,7.483,0,0,0,4.327,1.62,3.022,3.022,0,0,0,1.589-.369,1.049,1.049,0,0,0,.6-.881q0-.6-.995-1.261a9.459,9.459,0,0,0-3.291-1.118,14.534,14.534,0,0,1-3.107-.913,8.019,8.019,0,0,1-2.8-1.887,4.531,4.531,0,0,1-1.231-3.107,4.438,4.438,0,0,1,.954-2.83,7.408,7.408,0,0,1,2.543-2.009,14.15,14.15,0,0,1,3.568-1.2,20.414,20.414,0,0,1,4.03-.4,18.824,18.824,0,0,1,5.076.656,9.079,9.079,0,0,1,3.773,1.969A4.408,4.408,0,0,1,275.8,315.7a2.759,2.759,0,0,1-.512,1.693A3.319,3.319,0,0,1,274,318.439a3.764,3.764,0,0,1-1.6.36,3,3,0,0,1-1.528-.41,2.212,2.212,0,0,1-.994-1.231,4.126,4.126,0,0,0-1.549-2.194,3.775,3.775,0,0,0-2.061-.636,4.077,4.077,0,0,0-2.245.636,1.746,1.746,0,0,0-1,1.394,1.35,1.35,0,0,0,.728,1.067,6.15,6.15,0,0,0,2.451.738,17.887,17.887,0,0,1,6.8,2.163,10.255,10.255,0,0,1,3.876,3.907,10.4,10.4,0,0,1,1.241,4.984,8.526,8.526,0,0,1-1.139,4.439,10,10,0,0,1-3.014,3.2,14.271,14.271,0,0,1-4.184,1.939A16.992,16.992,0,0,1,265.116,339.45Z" fill="#2f2f2f"/>
    <path id="패스_1741" data-name="패스 1741" d="M287.264,339.143a8.886,8.886,0,0,1-4.255-.913,6.26,6.26,0,0,1-2.533-2.369,6.061,6.061,0,0,1-.841-3.076,6.441,6.441,0,0,1,.164-1.435,48.1,48.1,0,0,1,1.477-4.861q.738-2.03,1.292-4.009a14.322,14.322,0,0,0,.554-3.866,9.055,9.055,0,0,0-.288-2.266,7.453,7.453,0,0,0-.974-2.184,3.616,3.616,0,0,1-.687-1.887,1.788,1.788,0,0,1,.657-1.435,4.125,4.125,0,0,1,1.691-.811,9.412,9.412,0,0,1,4.451.022,4.6,4.6,0,0,1,1.794.84,1.738,1.738,0,0,1,.7,1.4,2.924,2.924,0,0,1-.594,1.579,6.877,6.877,0,0,0-.974,2.481,16.113,16.113,0,0,0-.318,3.3,21.092,21.092,0,0,0,.82,5.783,10.259,10.259,0,0,0,2.4,4.492,5.081,5.081,0,0,1,1.826,3.67,4.434,4.434,0,0,1-.964,2.769,7.206,7.206,0,0,1-2.43,2.01A6.391,6.391,0,0,1,287.264,339.143Z" fill="#2f2f2f"/>
    <path id="패스_1742" data-name="패스 1742" d="M304.306,339.2a9.57,9.57,0,0,1-4.7-1.087,9.41,9.41,0,0,1-3.251-2.953,13.362,13.362,0,0,1-1.9-4.234,19.559,19.559,0,0,1-.615-4.933,22.68,22.68,0,0,1,.769-5.845,19.342,19.342,0,0,1,2.225-5.24,12.455,12.455,0,0,1,3.538-3.773,8.17,8.17,0,0,1,4.727-1.425,8.623,8.623,0,0,1,5.291,1.692,5.481,5.481,0,0,1,2.379,4.358,2.917,2.917,0,0,1-.626,1.886,4.135,4.135,0,0,1-1.568,1.2,4.548,4.548,0,0,1-1.867.421,3.075,3.075,0,0,1-1.5-.37,2.073,2.073,0,0,1-.964-1.148l-.123-.6a13.6,13.6,0,0,0-.277-1.385,4.87,4.87,0,0,0-.574-1.4,1.181,1.181,0,0,0-1.056-.615q-.882,0-1.425,1.353a8.211,8.211,0,0,0-.544,3.077,9.121,9.121,0,0,0,.37,2.6,4.7,4.7,0,0,0,1.158,2.04,2.927,2.927,0,0,0,2.061.831,5.261,5.261,0,0,0,3.076-.882,3.794,3.794,0,0,1,2.072-.758,2.843,2.843,0,0,1,2.2,1.066,7.381,7.381,0,0,1,1.446,2.778,13.389,13.389,0,0,1,.533,3.723,8.834,8.834,0,0,1-.933,4.133,9.1,9.1,0,0,1-2.492,3.013,11.15,11.15,0,0,1-3.5,1.846A12.749,12.749,0,0,1,304.306,339.2Z" fill="#2f2f2f"/>
    <path id="패스_1743" data-name="패스 1743" d="M130.79,377.143a5.836,5.836,0,0,1-2.964-.811,6.432,6.432,0,0,1-2.286-2.234,6.092,6.092,0,0,1-.882-3.272,8.341,8.341,0,0,1,1.128-4.04q.43-.759.861-1.723a11.67,11.67,0,0,0,.984-4.675,1.935,1.935,0,0,0-.543-1.415,3.367,3.367,0,0,0-1.384-.83,5.635,5.635,0,0,0-1.785-.278,6.469,6.469,0,0,0-1.845.267,3.8,3.8,0,0,0-1.487.79A1.651,1.651,0,0,0,120,360.2a10.034,10.034,0,0,0,.339,2.615,14.8,14.8,0,0,0,.82,2.317,18.9,18.9,0,0,0,.933,1.815,8.988,8.988,0,0,1,1.354,4.389,5.6,5.6,0,0,1-.81,3.024,5.85,5.85,0,0,1-2.113,2.041,5.623,5.623,0,0,1-2.819.739,8.824,8.824,0,0,1-4.194-.893,6.072,6.072,0,0,1-2.492-2.316,5.973,5.973,0,0,1-.82-3.026q0-1.825,1.784-6.419.778-2.091,1.394-4.122a13.584,13.584,0,0,0,.616-3.958,7.793,7.793,0,0,0-1.169-4.224,3.77,3.77,0,0,1-.657-1.846,1.83,1.83,0,0,1,.667-1.466,4.229,4.229,0,0,1,1.723-.831,9.221,9.221,0,0,1,4.45.011,4.572,4.572,0,0,1,1.763.83,1.718,1.718,0,0,1,.687,1.394,2.958,2.958,0,0,1-.615,1.6,2.292,2.292,0,0,0-.471,1.23,1.339,1.339,0,0,0,.512,1.067,3.387,3.387,0,0,0,1.313.646,6.384,6.384,0,0,0,1.661.215,5.393,5.393,0,0,0,2.235-.451,1.439,1.439,0,0,0,1-1.333,2.43,2.43,0,0,0-.574-1.374,2.954,2.954,0,0,1-.7-1.682,1.661,1.661,0,0,1,.676-1.343,4.5,4.5,0,0,1,1.733-.81,8.876,8.876,0,0,1,2.184-.267,9.03,9.03,0,0,1,2.256.278,4.415,4.415,0,0,1,1.774.85,1.881,1.881,0,0,1,.687,1.518,3.674,3.674,0,0,1-.574,1.764,7.889,7.889,0,0,0-.984,3.794,12.916,12.916,0,0,0,.728,4.173q.728,2.143,1.651,4.337,2.07,4.84,2.071,6.706a5.706,5.706,0,0,1-.779,2.892,5.766,5.766,0,0,1-2.39,2.2A8.649,8.649,0,0,1,130.79,377.143Z" fill="#2f2f2f"/>
    <path id="패스_1744" data-name="패스 1744" d="M160.957,377.143a8.5,8.5,0,0,1-2.5-.39,7.806,7.806,0,0,1-2.338-1.169,6.065,6.065,0,0,1-1.723-1.948,5.488,5.488,0,0,1-.656-2.728,10,10,0,0,1,1.23-4.368,8.234,8.234,0,0,0,1.005-3.466,3.4,3.4,0,0,0-.4-1.732,2.689,2.689,0,0,0-1.035-1.036,2.731,2.731,0,0,0-1.333-.349,2.556,2.556,0,0,0-2.226,1.3,3.138,3.138,0,0,0-.379,1.609,7.885,7.885,0,0,0,1.128,3.671,10.028,10.028,0,0,1,1.333,4.491,5.235,5.235,0,0,1-.677,2.707,6.038,6.038,0,0,1-1.763,1.908,7.958,7.958,0,0,1-2.379,1.127,9.068,9.068,0,0,1-2.5.37,7.309,7.309,0,0,1-4.543-1.4,4.309,4.309,0,0,1-1.856-3.579,7.835,7.835,0,0,1,.441-2.513,21,21,0,0,1,1.138-2.685q.7-1.386,1.477-2.8.861-1.518,1.62-3.046a23.223,23.223,0,0,0,1.261-3.045,9.424,9.424,0,0,0,.5-2.973,6.692,6.692,0,0,0-.267-1.867,3.906,3.906,0,0,1-.164-1.066,3.08,3.08,0,0,1,1.149-2.451,7.474,7.474,0,0,1,2.953-1.455,15.06,15.06,0,0,1,7.567,0,7.474,7.474,0,0,1,2.953,1.455,3.08,3.08,0,0,1,1.149,2.451,3.906,3.906,0,0,1-.164,1.066,6.475,6.475,0,0,0-.267,1.846,9.087,9.087,0,0,0,.523,2.974,22.968,22.968,0,0,0,1.312,3.046q.791,1.527,1.651,3.045.821,1.436,1.538,2.809a20.5,20.5,0,0,1,1.18,2.687,7.61,7.61,0,0,1,.461,2.522,4.309,4.309,0,0,1-1.856,3.579A7.3,7.3,0,0,1,160.957,377.143Zm-7.568-19.585a2.039,2.039,0,0,0,1.1-.3,1.033,1.033,0,0,0,.482-.953,2.31,2.31,0,0,0-.184-.821q-.738-1.62-1.538-1.62-.882,0-1.641,1.928a1.426,1.426,0,0,0-.082.451,1.071,1.071,0,0,0,.6.964A2.475,2.475,0,0,0,153.389,357.558Z" fill="#2f2f2f"/>
    <path id="패스_1745" data-name="패스 1745" d="M180.254,377.45a16.285,16.285,0,0,1-4.286-.563,11.315,11.315,0,0,1-3.7-1.744,8.642,8.642,0,0,1-2.6-2.995,9.131,9.131,0,0,1-.964-4.336,9.494,9.494,0,0,1,.5-3.118,6.3,6.3,0,0,1,1.374-2.358,2.663,2.663,0,0,1,1.958-.9,3.236,3.236,0,0,1,1.887.717,7.485,7.485,0,0,0,4.327,1.62,3.025,3.025,0,0,0,1.59-.369,1.049,1.049,0,0,0,.6-.881q0-.6-.995-1.261a9.48,9.48,0,0,0-3.291-1.118,14.535,14.535,0,0,1-3.107-.913,8.033,8.033,0,0,1-2.8-1.887,4.534,4.534,0,0,1-1.23-3.107,4.443,4.443,0,0,1,.953-2.83,7.427,7.427,0,0,1,2.543-2.009,14.157,14.157,0,0,1,3.569-1.2,20.406,20.406,0,0,1,4.03-.4,18.811,18.811,0,0,1,5.075.656,9.084,9.084,0,0,1,3.774,1.969,4.408,4.408,0,0,1,1.466,3.281,2.751,2.751,0,0,1-.513,1.693,3.3,3.3,0,0,1-1.292,1.044,3.756,3.756,0,0,1-1.6.36,3,3,0,0,1-1.528-.41,2.217,2.217,0,0,1-1-1.231,4.119,4.119,0,0,0-1.548-2.194,3.775,3.775,0,0,0-2.061-.636,4.08,4.08,0,0,0-2.246.636,1.747,1.747,0,0,0-.994,1.394,1.347,1.347,0,0,0,.728,1.067,6.15,6.15,0,0,0,2.45.738,17.886,17.886,0,0,1,6.8,2.163,10.269,10.269,0,0,1,3.876,3.907,10.4,10.4,0,0,1,1.24,4.984,8.525,8.525,0,0,1-1.138,4.439,10.025,10.025,0,0,1-3.014,3.2,14.271,14.271,0,0,1-4.184,1.939A16.994,16.994,0,0,1,180.254,377.45Z" fill="#2f2f2f"/>
    <path id="패스_1746" data-name="패스 1746" d="M215.343,377.143a5.832,5.832,0,0,1-2.963-.811,6.434,6.434,0,0,1-2.287-2.234,6.092,6.092,0,0,1-.882-3.272,8.341,8.341,0,0,1,1.128-4.04q.431-.759.862-1.723a11.671,11.671,0,0,0,.984-4.675,1.935,1.935,0,0,0-.543-1.415,3.371,3.371,0,0,0-1.385-.83,5.624,5.624,0,0,0-1.784-.278,6.476,6.476,0,0,0-1.846.267,3.794,3.794,0,0,0-1.486.79,1.651,1.651,0,0,0-.585,1.281,10.034,10.034,0,0,0,.339,2.615,14.8,14.8,0,0,0,.82,2.317,18.9,18.9,0,0,0,.933,1.815A9,9,0,0,1,208,371.339a5.6,5.6,0,0,1-.81,3.024,5.855,5.855,0,0,1-2.112,2.041,5.624,5.624,0,0,1-2.82.739,8.829,8.829,0,0,1-4.194-.893,6.075,6.075,0,0,1-2.491-2.316,5.974,5.974,0,0,1-.821-3.026q0-1.825,1.785-6.419.779-2.091,1.394-4.122a13.616,13.616,0,0,0,.615-3.958,7.784,7.784,0,0,0-1.169-4.224,3.777,3.777,0,0,1-.656-1.846,1.827,1.827,0,0,1,.667-1.466,4.224,4.224,0,0,1,1.722-.831,9.225,9.225,0,0,1,4.451.011,4.579,4.579,0,0,1,1.763.83,1.718,1.718,0,0,1,.687,1.394,2.958,2.958,0,0,1-.615,1.6,2.3,2.3,0,0,0-.472,1.23,1.34,1.34,0,0,0,.513,1.067,3.382,3.382,0,0,0,1.312.646,6.392,6.392,0,0,0,1.662.215,5.393,5.393,0,0,0,2.235-.451,1.439,1.439,0,0,0,1-1.333,2.437,2.437,0,0,0-.574-1.374,2.957,2.957,0,0,1-.7-1.682,1.662,1.662,0,0,1,.677-1.343,4.491,4.491,0,0,1,1.733-.81,8.876,8.876,0,0,1,2.184-.267,9.042,9.042,0,0,1,2.256.278,4.415,4.415,0,0,1,1.774.85,1.881,1.881,0,0,1,.687,1.518,3.674,3.674,0,0,1-.574,1.764,7.879,7.879,0,0,0-.985,3.794,12.943,12.943,0,0,0,.728,4.173q.729,2.143,1.651,4.337,2.071,4.84,2.072,6.706a5.7,5.7,0,0,1-.78,2.892,5.763,5.763,0,0,1-2.389,2.2A8.65,8.65,0,0,1,215.343,377.143Z" fill="#2f2f2f"/>
    <path id="패스_1747" data-name="패스 1747" d="M245.674,377.45a17.2,17.2,0,0,1-5.352-.82,9.4,9.4,0,0,1-4.081-2.5,6.417,6.417,0,0,1-1.641-4.553,9.6,9.6,0,0,1,.533-3.076q.534-1.579,1.231-3.22.759-1.722,1.353-3.507a11.2,11.2,0,0,0,.6-3.568,7.606,7.606,0,0,0-.9-3.65A3.327,3.327,0,0,1,237,351.1a2.234,2.234,0,0,1,1.066-1.908,7.6,7.6,0,0,1,2.789-1.1,17.921,17.921,0,0,1,3.671-.36,21.645,21.645,0,0,1,4.542.461,10.335,10.335,0,0,1,3.476,1.334,2.623,2.623,0,0,1,1.374,2.122q0,1.723-2.768,3.22c-.328.178-.578.321-.749.431s-.256.212-.256.307q0,.307,1.23.739a12.764,12.764,0,0,1,6.009,4.368,12.044,12.044,0,0,1,2.277,7.219,6.972,6.972,0,0,1-1.231,4.071,10.321,10.321,0,0,1-3.261,2.983,16.706,16.706,0,0,1-4.511,1.835A20.326,20.326,0,0,1,245.674,377.45Zm-.635-22.374a1.966,1.966,0,0,0,.82-.225,9.788,9.788,0,0,0,2.379-1.589,2,2,0,0,0,.718-1.221q0-.8-1.415-.861a5.151,5.151,0,0,0-1.457.246,2.657,2.657,0,0,0-1.445,1.087,2.721,2.721,0,0,0-.482,1.456,1.377,1.377,0,0,0,.215.789A.748.748,0,0,0,245.039,355.076Zm4,6.932a3.332,3.332,0,0,0,1.527-.256.748.748,0,0,0,.462-.647,1.809,1.809,0,0,0-.82-1.251,7.769,7.769,0,0,0-2.031-1.168,6.263,6.263,0,0,0-2.379-.493,1.694,1.694,0,0,0-1.189.349,1.115,1.115,0,0,0-.369.841,2.161,2.161,0,0,0,.636,1.415Q245.94,362.007,249.038,362.008Z" fill="#2f2f2f"/>
    <path id="패스_1748" data-name="패스 1748" d="M268.7,377.143a8.89,8.89,0,0,1-4.256-.913,6.251,6.251,0,0,1-2.532-2.369,6.052,6.052,0,0,1-.841-3.076,6.384,6.384,0,0,1,.164-1.435,44.7,44.7,0,0,1,1.5-4.861q.717-2.01,1.282-4a14.176,14.176,0,0,0,.564-3.876,9.055,9.055,0,0,0-.288-2.266,7.6,7.6,0,0,0-.963-2.184,3.624,3.624,0,0,1-.677-1.866,1.823,1.823,0,0,1,.656-1.446,4.066,4.066,0,0,1,1.692-.821,9.1,9.1,0,0,1,2.184-.256,8.159,8.159,0,0,1,3.322.677,17.871,17.871,0,0,1,4.943-.779,11.036,11.036,0,0,1,5.024,1.056,8.364,8.364,0,0,1,3.2,2.656,5.7,5.7,0,0,1,1.108,3.281,4.523,4.523,0,0,1-.585,2.225,4.994,4.994,0,0,1-1.815,1.815,24.38,24.38,0,0,0-2.061,1.384q-.666.523-.666.872,0,.267.389.492a6.276,6.276,0,0,0,1.149.472,9.968,9.968,0,0,1,4.881,4.347,12.22,12.22,0,0,1,2.009,6.44,3.77,3.77,0,0,1-.84,2.553,4.714,4.714,0,0,1-2.184,1.4,11.043,11.043,0,0,1-7.845-.656,3.292,3.292,0,0,1-1.681-2.871l.02-3.179a24.4,24.4,0,0,0-.266-3.712,5.6,5.6,0,0,0-1.364-2.819,2.7,2.7,0,0,0-1.733-1.037.723.723,0,0,0-.544.226,1.015,1.015,0,0,0-.215.718,8.282,8.282,0,0,0,1.477,3.609,8.637,8.637,0,0,1,1.435,4.512,5.525,5.525,0,0,1-.789,2.974,5.674,5.674,0,0,1-2.072,1.989A5.6,5.6,0,0,1,268.7,377.143Zm3.1-21.247a7.507,7.507,0,0,0,1.5-.184,6.8,6.8,0,0,0,2.779-1.169,1.942,1.942,0,0,0,.851-1.395,1.342,1.342,0,0,0-.656-1.117,3.05,3.05,0,0,0-1.784-.462,6.139,6.139,0,0,0-1.067.1,5.047,5.047,0,0,0-2.461,1.271,2.586,2.586,0,0,0-.943,1.764,1.052,1.052,0,0,0,.42.852A2.2,2.2,0,0,0,271.8,355.9Z" fill="#2f2f2f"/>
    <path id="패스_1749" data-name="패스 1749" d="M300.471,377.143a11.475,11.475,0,0,1-4.276-.83,11.185,11.185,0,0,1-3.753-2.493,12.052,12.052,0,0,1-2.666-4.163,15.762,15.762,0,0,1-.994-5.844,22.781,22.781,0,0,1,.984-7.055,15.075,15.075,0,0,1,2.635-5,11.091,11.091,0,0,1,3.723-2.984,9.744,9.744,0,0,1,4.265-.995,9.854,9.854,0,0,1,4.338,1.016,11.4,11.4,0,0,1,3.773,3,14.9,14.9,0,0,1,2.656,4.963,22.013,22.013,0,0,1,.984,6.911,16.319,16.319,0,0,1-1.005,6.009,12.032,12.032,0,0,1-2.686,4.2,10.88,10.88,0,0,1-3.763,2.461A11.674,11.674,0,0,1,300.471,377.143Zm.1-14.684a1.878,1.878,0,0,0,1.271-.533,3.917,3.917,0,0,0,.985-1.579,7.476,7.476,0,0,0,.389-2.584,14.71,14.71,0,0,0-.4-3.733,5.986,5.986,0,0,0-1.025-2.256,1.735,1.735,0,0,0-1.3-.758,1.629,1.629,0,0,0-1.221.7,5.355,5.355,0,0,0-.943,2.1,14.633,14.633,0,0,0-.359,3.539,7.65,7.65,0,0,0,.759,3.835A2.174,2.174,0,0,0,300.574,362.459Z" fill="#2f2f2f"/>
    <path id="패스_1750" data-name="패스 1750" d="M338.452,377.143a8.645,8.645,0,0,1-3.353-.7,8.009,8.009,0,0,1-3.025-2.3l-.616-.758a9.151,9.151,0,0,0-.625-.759.65.65,0,0,0-.441-.246.641.641,0,0,0-.42.246q-.237.246-.626.738l-.738.882a8.013,8.013,0,0,1-6.3,2.892q-4.43,0-6.48-2.584a9.369,9.369,0,0,1-1.764-5.968,18.963,18.963,0,0,1,.738-5.189q.411-1.476.728-2.963a14.131,14.131,0,0,0,.318-2.963,8.771,8.771,0,0,0-1.682-5.291,3.392,3.392,0,0,1-.758-1.867,1.735,1.735,0,0,1,.738-1.456,4.992,4.992,0,0,1,1.856-.82,9.717,9.717,0,0,1,2.266-.267,8.1,8.1,0,0,1,2.174.278,4.015,4.015,0,0,1,1.63.83,1.783,1.783,0,0,1,.626,1.394,3.241,3.241,0,0,1-.534,1.6,4.1,4.1,0,0,0-.512,1.549,15.6,15.6,0,0,0-.123,2.1,15.768,15.768,0,0,0,.461,4.092,7.156,7.156,0,0,0,1.179,2.584,1.972,1.972,0,0,0,1.477.892,1.876,1.876,0,0,0,1.21-.564,4.229,4.229,0,0,0,1.066-1.722,8.631,8.631,0,0,0,.431-2.964,15.758,15.758,0,0,0-1.313-6.358l-.246-.574a1.812,1.812,0,0,1-.266-.882,1.519,1.519,0,0,1,.656-1.271,4.584,4.584,0,0,1,1.764-.739,11.257,11.257,0,0,1,2.44-.246,9.256,9.256,0,0,1,3.425.565q1.415.564,1.415,1.691a1.8,1.8,0,0,1-.267.882l-.246.574q-.225.534-.533,1.415a15.06,15.06,0,0,0-.779,4.943,8.633,8.633,0,0,0,.43,2.964,4.241,4.241,0,0,0,1.067,1.722,1.876,1.876,0,0,0,1.21.564,1.971,1.971,0,0,0,1.476-.882,7,7,0,0,0,1.18-2.543,15.4,15.4,0,0,0,.461-4.061,17.707,17.707,0,0,0-.113-2.153,3.941,3.941,0,0,0-.523-1.579,3.249,3.249,0,0,1-.533-1.6,1.785,1.785,0,0,1,.625-1.394,4.017,4.017,0,0,1,1.641-.83,8.135,8.135,0,0,1,2.164-.278,9.723,9.723,0,0,1,2.266.267,4.992,4.992,0,0,1,1.856.82,1.735,1.735,0,0,1,.738,1.456,3.387,3.387,0,0,1-.759,1.867,8.744,8.744,0,0,0-1.681,5.27,14.3,14.3,0,0,0,.317,2.984q.318,1.488.729,2.963a18.67,18.67,0,0,1,.738,5.189,9.369,9.369,0,0,1-1.764,5.968Q342.882,377.142,338.452,377.143Z" fill="#2f2f2f"/>
    <path id="패스_1751" data-name="패스 1751" d="M369.357,377.143a5.89,5.89,0,0,1-2.974-.811,6.406,6.406,0,0,1-2.3-2.234,6.1,6.1,0,0,1-.881-3.272,8.846,8.846,0,0,1,1.128-4.04,6.435,6.435,0,0,0,.8-2.973,6.08,6.08,0,0,0-.606-2.687,8.386,8.386,0,0,0-1.527-2.2,7.76,7.76,0,0,0-1.959-1.5,4.121,4.121,0,0,0-1.876-.543,1.721,1.721,0,0,0-1.272.492,2.2,2.2,0,0,0-.492,1.6q0,2.645,3.158,7.977a8.756,8.756,0,0,1,1.354,4.389,5.661,5.661,0,0,1-.81,3.035,5.777,5.777,0,0,1-4.933,2.769,8.822,8.822,0,0,1-4.193-.893,6.072,6.072,0,0,1-2.492-2.316,5.973,5.973,0,0,1-.82-3.026q0-1.764,1.763-6.4.8-2.093,1.415-4.122a13.686,13.686,0,0,0,.615-3.979,8.519,8.519,0,0,0-.276-2.163,7.968,7.968,0,0,0-.9-2.092,3.644,3.644,0,0,1-.625-1.815,1.83,1.83,0,0,1,.666-1.466,4.229,4.229,0,0,1,1.713-.831,8.834,8.834,0,0,1,2.194-.267,9.316,9.316,0,0,1,2.123.237,5.2,5.2,0,0,1,1.979.973,14.587,14.587,0,0,1,2.563,2.994q.861,1.231,1.907,2.461,1.477,1.621,2.01,1.621.369,0,.369-.554a6.5,6.5,0,0,0-.389-2.04,6.688,6.688,0,0,0-.7-1.59,2.95,2.95,0,0,1-.7-1.682,1.664,1.664,0,0,1,.676-1.343,4.493,4.493,0,0,1,1.723-.81,9.184,9.184,0,0,1,4.441.011,4.324,4.324,0,0,1,1.764.861,1.911,1.911,0,0,1,.686,1.527,3.664,3.664,0,0,1-.553,1.744A7.8,7.8,0,0,0,372.125,356a12.887,12.887,0,0,0,.729,4.173q.726,2.145,1.65,4.338,2.072,4.8,2.072,6.685a5.767,5.767,0,0,1-.779,2.9,5.7,5.7,0,0,1-2.389,2.2A8.709,8.709,0,0,1,369.357,377.143Z" fill="#2f2f2f"/>
    <path id="패스_1752" data-name="패스 1752" d="M389.742,377.45a16.285,16.285,0,0,1-4.286-.563,11.33,11.33,0,0,1-3.7-1.744,8.65,8.65,0,0,1-2.594-2.995,9.131,9.131,0,0,1-.964-4.336,9.468,9.468,0,0,1,.5-3.118,6.283,6.283,0,0,1,1.373-2.358,2.665,2.665,0,0,1,1.959-.9,3.236,3.236,0,0,1,1.887.717,7.485,7.485,0,0,0,4.327,1.62,3.022,3.022,0,0,0,1.589-.369,1.049,1.049,0,0,0,.6-.881q0-.6-.994-1.261a9.487,9.487,0,0,0-3.292-1.118,14.527,14.527,0,0,1-3.106-.913,8.014,8.014,0,0,1-2.8-1.887,4.534,4.534,0,0,1-1.23-3.107,4.432,4.432,0,0,1,.954-2.83,7.389,7.389,0,0,1,2.543-2.009,14.122,14.122,0,0,1,3.568-1.2,20.4,20.4,0,0,1,4.029-.4,18.819,18.819,0,0,1,5.076.656,9.09,9.09,0,0,1,3.774,1.969,4.415,4.415,0,0,1,1.466,3.281,2.751,2.751,0,0,1-.513,1.693,3.3,3.3,0,0,1-1.292,1.044,3.761,3.761,0,0,1-1.6.36,3.006,3.006,0,0,1-1.528-.41,2.216,2.216,0,0,1-.994-1.231,4.12,4.12,0,0,0-1.549-2.194,3.771,3.771,0,0,0-2.06-.636,4.08,4.08,0,0,0-2.246.636,1.746,1.746,0,0,0-.995,1.394,1.349,1.349,0,0,0,.729,1.067,6.144,6.144,0,0,0,2.45.738,17.887,17.887,0,0,1,6.8,2.163,10.265,10.265,0,0,1,3.877,3.907,10.411,10.411,0,0,1,1.24,4.984,8.517,8.517,0,0,1-1.139,4.439,10,10,0,0,1-3.013,3.2,14.3,14.3,0,0,1-4.184,1.939A17,17,0,0,1,389.742,377.45Z" fill="#2f2f2f"/>
  </g>
</svg>
