<svg xmlns="http://www.w3.org/2000/svg" width="219.053" height="42.07" viewBox="0 0 219.053 42.07">
  <g id="그룹_898" data-name="그룹 898" transform="translate(-104.476 -288.427)">
    <path id="패스_1697" data-name="패스 1697" d="M121.175,330.5a16.339,16.339,0,0,1-6.108-1.186,15.924,15.924,0,0,1-5.361-3.56A17.2,17.2,0,0,1,105.9,319.8a22.5,22.5,0,0,1-1.421-8.35,32.545,32.545,0,0,1,1.406-10.078,21.54,21.54,0,0,1,3.765-7.148,15.814,15.814,0,0,1,5.317-4.263,13.932,13.932,0,0,1,6.094-1.421,14.088,14.088,0,0,1,6.2,1.45,16.313,16.313,0,0,1,5.391,4.292,21.3,21.3,0,0,1,3.794,7.09,31.453,31.453,0,0,1,1.406,9.873,23.328,23.328,0,0,1-1.435,8.584,17.182,17.182,0,0,1-3.838,6.006,15.528,15.528,0,0,1-5.376,3.515A16.662,16.662,0,0,1,121.175,330.5Zm.147-20.976a2.683,2.683,0,0,0,1.816-.762,5.588,5.588,0,0,0,1.406-2.256,10.648,10.648,0,0,0,.557-3.691,21.043,21.043,0,0,0-.571-5.333,8.557,8.557,0,0,0-1.465-3.222,2.479,2.479,0,0,0-1.86-1.084,2.327,2.327,0,0,0-1.744,1,7.631,7.631,0,0,0-1.347,3,20.846,20.846,0,0,0-.513,5.054,10.925,10.925,0,0,0,1.084,5.478A3.1,3.1,0,0,0,121.322,309.521Z" fill="#fff"/>
    <path id="패스_1698" data-name="패스 1698" d="M151.644,330.5a13.031,13.031,0,0,1-6.5-1.45,9.264,9.264,0,0,1-3.765-3.794,10.851,10.851,0,0,1-1.215-5.068,15.549,15.549,0,0,1,.586-4.131q.585-2.139,1.377-4.366.819-2.343,1.464-4.731a18.192,18.192,0,0,0,.645-4.761,11.269,11.269,0,0,0-1.641-5.976,6.115,6.115,0,0,1-1.025-2.989q0-2.841,4.687-3.955a42.125,42.125,0,0,1,9.493-.849q2.752,0,5.009.088,1.524.058,2.461.058a2.249,2.249,0,0,1,1.568.572,3.577,3.577,0,0,1,.952,1.45,5.152,5.152,0,0,1,.322,1.787,4.071,4.071,0,0,1-.527,2.08,1.693,1.693,0,0,1-1.553.908,2.486,2.486,0,0,1-.732-.117,14.676,14.676,0,0,0-3.326-.674q-1.713-.147-4.233-.146a3.563,3.563,0,0,0-1.919.468,3.153,3.153,0,0,0-1.113,1.128,2.617,2.617,0,0,0-.366,1.275,1.83,1.83,0,0,0,.571,1.391,2.268,2.268,0,0,0,1.626.542,8.443,8.443,0,0,0,1.992-.234q.968-.234,1.816-.527a6.516,6.516,0,0,1,2.11-.469,1.69,1.69,0,0,1,1.523,1.069,4.735,4.735,0,0,1,.557,2.212,3.448,3.448,0,0,1-.381,1.611,1.265,1.265,0,0,1-1.2.733,8.849,8.849,0,0,1-1.582-.176,11.891,11.891,0,0,0-2.93-.322,8.551,8.551,0,0,0-2.563.278,1.115,1.115,0,0,0-.806,1.157,5.76,5.76,0,0,0,1.025,2.666,11.513,11.513,0,0,0,1.758,2.359q1.055,1.1,2.256,2.182,1.466,1.318,2.842,2.828a13.5,13.5,0,0,1,2.27,3.427,10.632,10.632,0,0,1,.894,4.527,6.007,6.007,0,0,1-1.787,4.5,11.011,11.011,0,0,1-4.629,2.592A20.845,20.845,0,0,1,151.644,330.5Z" fill="#fff"/>
    <path id="패스_1699" data-name="패스 1699" d="M178.539,330.5a13.031,13.031,0,0,1-6.5-1.45,9.252,9.252,0,0,1-3.765-3.794,10.84,10.84,0,0,1-1.216-5.068,15.589,15.589,0,0,1,.586-4.131q.587-2.139,1.377-4.366.819-2.343,1.465-4.731a18.233,18.233,0,0,0,.644-4.761,11.268,11.268,0,0,0-1.64-5.976,6.118,6.118,0,0,1-1.026-2.989q0-2.841,4.688-3.955a42.122,42.122,0,0,1,9.492-.849q2.754,0,5.01.088,1.522.058,2.461.058a2.245,2.245,0,0,1,1.567.572,3.577,3.577,0,0,1,.952,1.45,5.154,5.154,0,0,1,.323,1.787,4.061,4.061,0,0,1-.528,2.08,1.692,1.692,0,0,1-1.552.908,2.492,2.492,0,0,1-.733-.117,14.657,14.657,0,0,0-3.325-.674q-1.715-.147-4.233-.146a3.561,3.561,0,0,0-1.919.468,3.157,3.157,0,0,0-1.114,1.128,2.627,2.627,0,0,0-.366,1.275,1.833,1.833,0,0,0,.571,1.391,2.269,2.269,0,0,0,1.626.542,8.446,8.446,0,0,0,1.993-.234q.966-.234,1.816-.527a6.506,6.506,0,0,1,2.109-.469,1.69,1.69,0,0,1,1.524,1.069,4.745,4.745,0,0,1,.556,2.212A3.447,3.447,0,0,1,189,302.9a1.266,1.266,0,0,1-1.2.733,8.859,8.859,0,0,1-1.582-.176,11.877,11.877,0,0,0-2.929-.322,8.558,8.558,0,0,0-2.564.278,1.115,1.115,0,0,0-.8,1.157,5.76,5.76,0,0,0,1.025,2.666,11.513,11.513,0,0,0,1.758,2.359q1.054,1.1,2.256,2.182,1.464,1.318,2.841,2.828a13.5,13.5,0,0,1,2.271,3.427,10.632,10.632,0,0,1,.893,4.527,6.007,6.007,0,0,1-1.787,4.5,11.005,11.005,0,0,1-4.629,2.592A20.833,20.833,0,0,1,178.539,330.5Z" fill="#fff"/>
    <path id="패스_1700" data-name="패스 1700" d="M209.828,330.5a27.35,27.35,0,0,1-8.2-1.157,14.479,14.479,0,0,1-5.875-3.281,6.748,6.748,0,0,1-2.182-5,7.209,7.209,0,0,1,.205-1.7,63.123,63.123,0,0,1,2.139-6.972q1.024-2.871,1.831-5.7a20.094,20.094,0,0,0,.805-5.522,12.934,12.934,0,0,0-.41-3.237,10.86,10.86,0,0,0-1.377-3.121,5.189,5.189,0,0,1-.967-2.666,2.554,2.554,0,0,1,.938-2.05,6.006,6.006,0,0,1,2.432-1.172,12.517,12.517,0,0,1,3.1-.381,13.212,13.212,0,0,1,3.237.395,6.59,6.59,0,0,1,2.564,1.2,2.512,2.512,0,0,1,1,2.036,4.261,4.261,0,0,1-.879,2.27,9.578,9.578,0,0,0-1.318,3.076,15.235,15.235,0,0,0-.44,3.677,16.45,16.45,0,0,0,.615,4.512,9.6,9.6,0,0,0,1.758,3.545,3.414,3.414,0,0,0,2.7,1.377q2.167,0,4.541-2.93a4.844,4.844,0,0,1,3.544-2.051,3.817,3.817,0,0,1,2.564,1.084,7.784,7.784,0,0,1,1.992,3.282,16.838,16.838,0,0,1,.777,5.537q0,8.143-4.747,11.836Q216.215,330.5,209.828,330.5Z" fill="#fff"/>
    <path id="패스_1701" data-name="패스 1701" d="M237.806,330.5a12.693,12.693,0,0,1-6.079-1.3,8.949,8.949,0,0,1-3.618-3.383,8.655,8.655,0,0,1-1.2-4.395,9.135,9.135,0,0,1,.234-2.051,68.757,68.757,0,0,1,2.109-6.943q1.056-2.9,1.846-5.728a20.412,20.412,0,0,0,.791-5.522,12.98,12.98,0,0,0-.41-3.237,10.644,10.644,0,0,0-1.392-3.121,5.163,5.163,0,0,1-.981-2.695,2.56,2.56,0,0,1,.937-2.051,5.893,5.893,0,0,1,2.417-1.157,12.949,12.949,0,0,1,3.121-.366,13.212,13.212,0,0,1,3.237.395,6.593,6.593,0,0,1,2.563,1.2,2.482,2.482,0,0,1,1,2.006,4.172,4.172,0,0,1-.849,2.256,9.85,9.85,0,0,0-1.392,3.545,23.006,23.006,0,0,0-.454,4.717,30.16,30.16,0,0,0,1.172,8.262,14.625,14.625,0,0,0,3.428,6.416,7.26,7.26,0,0,1,2.607,5.244,6.328,6.328,0,0,1-1.377,3.955,10.289,10.289,0,0,1-3.471,2.871A9.128,9.128,0,0,1,237.806,330.5Z" fill="#fff"/>
    <path id="패스_1702" data-name="패스 1702" d="M278.207,330.5a8.433,8.433,0,0,1-4.249-1.157,9.179,9.179,0,0,1-3.281-3.194,8.7,8.7,0,0,1-1.26-4.672,12.641,12.641,0,0,1,1.612-5.772,9.19,9.19,0,0,0,1.142-4.248,8.705,8.705,0,0,0-.864-3.838,12.025,12.025,0,0,0-2.182-3.149,11.107,11.107,0,0,0-2.8-2.139,5.877,5.877,0,0,0-2.681-.776,2.454,2.454,0,0,0-1.816.7,3.136,3.136,0,0,0-.7,2.285q0,3.78,4.512,11.4a12.5,12.5,0,0,1,1.934,6.269,8.089,8.089,0,0,1-1.157,4.336,8.247,8.247,0,0,1-7.046,3.955,12.638,12.638,0,0,1-5.992-1.274,8.683,8.683,0,0,1-3.559-3.311,8.53,8.53,0,0,1-1.172-4.321q0-2.52,2.52-9.141,1.142-2.988,2.021-5.888a19.544,19.544,0,0,0,.879-5.684,12.124,12.124,0,0,0-.4-3.091,11.3,11.3,0,0,0-1.289-2.988,5.2,5.2,0,0,1-.893-2.593,2.616,2.616,0,0,1,.952-2.1,6.03,6.03,0,0,1,2.446-1.186,12.641,12.641,0,0,1,3.135-.381,13.392,13.392,0,0,1,3.032.337,7.4,7.4,0,0,1,2.827,1.391,20.773,20.773,0,0,1,3.662,4.278q1.232,1.758,2.725,3.515,2.109,2.314,2.871,2.315.528,0,.528-.791a9.349,9.349,0,0,0-.557-2.915,9.547,9.547,0,0,0-1-2.271,4.223,4.223,0,0,1-1-2.4,2.373,2.373,0,0,1,.966-1.919,6.416,6.416,0,0,1,2.461-1.157,12.646,12.646,0,0,1,3.135-.381,12.862,12.862,0,0,1,3.208.395,6.215,6.215,0,0,1,2.52,1.231,2.731,2.731,0,0,1,.981,2.183,5.223,5.223,0,0,1-.791,2.49,11.148,11.148,0,0,0-1.435,5.449,18.462,18.462,0,0,0,1.04,5.962q1.039,3.062,2.358,6.2,2.959,6.856,2.959,9.551a8.222,8.222,0,0,1-1.113,4.145,8.131,8.131,0,0,1-3.413,3.15A12.425,12.425,0,0,1,278.207,330.5Z" fill="#fff"/>
    <path id="패스_1703" data-name="패스 1703" d="M306.537,330.38a25.553,25.553,0,0,1-5.816-.659,19.983,19.983,0,0,1-5.054-1.875,10.909,10.909,0,0,1-3.544-2.959,6.281,6.281,0,0,1-1.319-3.882,18.429,18.429,0,0,1,.63-4.746q.63-2.373,1.436-4.746t1.421-4.7a18.02,18.02,0,0,0,.615-4.615,11.269,11.269,0,0,0-1.641-5.976,7.084,7.084,0,0,1-1.2-3.428q0-2.7,3.633-3.662a34.5,34.5,0,0,1,8.056-.7q2.666,0,5.362.058,2.549.089,4.746.088a2.29,2.29,0,0,1,1.6.572,3.471,3.471,0,0,1,.937,1.435,5.255,5.255,0,0,1,.308,1.773,4.1,4.1,0,0,1-.528,2.124,1.744,1.744,0,0,1-1.611.893,12.442,12.442,0,0,1-2.022-.293,32.145,32.145,0,0,0-5.478-.644,5.554,5.554,0,0,0-2.4.439,3.119,3.119,0,0,0-1.319,1.084,2.341,2.341,0,0,0-.41,1.26,1.936,1.936,0,0,0,.615,1.406,2.218,2.218,0,0,0,1.641.615,8.5,8.5,0,0,0,2.1-.249q.981-.248,1.8-.542a5.5,5.5,0,0,1,1.875-.439,1.787,1.787,0,0,1,1.612,1.055,4.523,4.523,0,0,1,.586,2.226,3.115,3.115,0,0,1-.425,1.641,1.42,1.42,0,0,1-1.3.7,7.9,7.9,0,0,1-1.274-.132q-.777-.132-1.846-.249a23.7,23.7,0,0,0-2.534-.117,2.046,2.046,0,0,0-1.7.732,2.445,2.445,0,0,0-.586,1.553,2.708,2.708,0,0,0,.439,1.421,3.4,3.4,0,0,0,1.348,1.2,4.831,4.831,0,0,0,2.285.483h1.553a14.927,14.927,0,0,0,5.566-.82,10.189,10.189,0,0,1,4.248-1.113,3.834,3.834,0,0,1,2.417.8,5.241,5.241,0,0,1,1.612,2.74,19.371,19.371,0,0,1,.571,5.273,14.805,14.805,0,0,1-1.465,6.856,13.082,13.082,0,0,1-3.9,4.629,16.784,16.784,0,0,1-5.463,2.636A22.738,22.738,0,0,1,306.537,330.38Z" fill="#fff"/>
  </g>
</svg>
