<svg xmlns="http://www.w3.org/2000/svg" width="207.158" height="42.07" viewBox="0 0 207.158 42.07">
  <g id="그룹_897" data-name="그룹 897" transform="translate(-104.476 -232.93)">
    <path id="패스_1691" data-name="패스 1691" d="M121.175,275a16.34,16.34,0,0,1-6.108-1.187,15.921,15.921,0,0,1-5.361-3.559,17.2,17.2,0,0,1-3.809-5.947,22.5,22.5,0,0,1-1.421-8.35,32.545,32.545,0,0,1,1.406-10.078,21.555,21.555,0,0,1,3.765-7.149,15.823,15.823,0,0,1,5.317-4.262,13.932,13.932,0,0,1,6.094-1.421,14.088,14.088,0,0,1,6.2,1.45,16.313,16.313,0,0,1,5.391,4.292,21.3,21.3,0,0,1,3.794,7.09,31.454,31.454,0,0,1,1.406,9.873,23.324,23.324,0,0,1-1.435,8.584,17.182,17.182,0,0,1-3.838,6.006,15.528,15.528,0,0,1-5.376,3.515A16.662,16.662,0,0,1,121.175,275Zm.147-20.977a2.681,2.681,0,0,0,1.816-.761,5.588,5.588,0,0,0,1.406-2.256,10.65,10.65,0,0,0,.557-3.692,21.04,21.04,0,0,0-.571-5.332,8.557,8.557,0,0,0-1.465-3.222,2.479,2.479,0,0,0-1.86-1.084,2.327,2.327,0,0,0-1.744,1,7.631,7.631,0,0,0-1.347,3,20.845,20.845,0,0,0-.513,5.054,10.925,10.925,0,0,0,1.084,5.478A3.1,3.1,0,0,0,121.322,254.023Z" fill="#070808"/>
    <path id="패스_1692" data-name="패스 1692" d="M169.339,275a8.423,8.423,0,0,1-4.248-1.157,9.171,9.171,0,0,1-3.281-3.194,8.694,8.694,0,0,1-1.26-4.672,12.632,12.632,0,0,1,1.612-5.772,9.2,9.2,0,0,0,1.142-4.248,8.7,8.7,0,0,0-.864-3.838,12,12,0,0,0-2.183-3.149,11.09,11.09,0,0,0-2.8-2.139,5.87,5.87,0,0,0-2.68-.776,2.457,2.457,0,0,0-1.817.7,3.141,3.141,0,0,0-.7,2.285q0,3.78,4.512,11.4a12.506,12.506,0,0,1,1.934,6.27,8.081,8.081,0,0,1-1.158,4.336A8.243,8.243,0,0,1,150.5,275a12.637,12.637,0,0,1-5.991-1.274,8.676,8.676,0,0,1-3.559-3.311,8.52,8.52,0,0,1-1.172-4.321q0-2.52,2.519-9.141,1.143-2.988,2.022-5.889a19.527,19.527,0,0,0,.879-5.683,12.125,12.125,0,0,0-.4-3.091,11.3,11.3,0,0,0-1.289-2.988,5.2,5.2,0,0,1-.893-2.593,2.616,2.616,0,0,1,.952-2.1,6.03,6.03,0,0,1,2.446-1.186,12.641,12.641,0,0,1,3.135-.381,13.4,13.4,0,0,1,3.032.337,7.4,7.4,0,0,1,2.827,1.391,20.778,20.778,0,0,1,3.662,4.278q1.231,1.758,2.725,3.515,2.109,2.314,2.871,2.315.528,0,.527-.791a9.339,9.339,0,0,0-.556-2.915,9.547,9.547,0,0,0-1-2.271,4.223,4.223,0,0,1-1-2.4,2.373,2.373,0,0,1,.966-1.919,6.416,6.416,0,0,1,2.461-1.157,12.641,12.641,0,0,1,3.135-.381,12.862,12.862,0,0,1,3.208.4,6.221,6.221,0,0,1,2.52,1.231,2.729,2.729,0,0,1,.981,2.182,5.234,5.234,0,0,1-.791,2.491,11.146,11.146,0,0,0-1.436,5.449,18.489,18.489,0,0,0,1.04,5.962q1.039,3.062,2.359,6.2,2.96,6.855,2.959,9.551a8.222,8.222,0,0,1-1.113,4.145,8.122,8.122,0,0,1-3.414,3.15A12.419,12.419,0,0,1,169.339,275Z" fill="#070808"/>
    <path id="패스_1693" data-name="패스 1693" d="M197.933,275a27.323,27.323,0,0,1-8.2-1.157,14.475,14.475,0,0,1-5.874-3.281,6.749,6.749,0,0,1-2.183-5,7.261,7.261,0,0,1,.205-1.7,63.337,63.337,0,0,1,2.139-6.972q1.026-2.872,1.831-5.7a20.1,20.1,0,0,0,.806-5.522,12.975,12.975,0,0,0-.41-3.237,10.888,10.888,0,0,0-1.377-3.121,5.18,5.18,0,0,1-.967-2.666,2.556,2.556,0,0,1,.937-2.05,6.012,6.012,0,0,1,2.432-1.172,12.519,12.519,0,0,1,3.106-.381,13.212,13.212,0,0,1,3.237.4,6.578,6.578,0,0,1,2.563,1.2,2.509,2.509,0,0,1,1,2.036,4.261,4.261,0,0,1-.879,2.27,9.6,9.6,0,0,0-1.318,3.076,15.228,15.228,0,0,0-.439,3.677,16.45,16.45,0,0,0,.615,4.512,9.56,9.56,0,0,0,1.758,3.545,3.41,3.41,0,0,0,2.695,1.377q2.168,0,4.541-2.93a4.848,4.848,0,0,1,3.545-2.051,3.813,3.813,0,0,1,2.563,1.084,7.8,7.8,0,0,1,1.993,3.281,16.851,16.851,0,0,1,.776,5.538q0,8.145-4.746,11.836Q204.32,275,197.933,275Z" fill="#070808"/>
    <path id="패스_1694" data-name="패스 1694" d="M225.912,275a12.705,12.705,0,0,1-6.079-1.3,8.932,8.932,0,0,1-3.619-3.383,8.654,8.654,0,0,1-1.2-4.395,9.137,9.137,0,0,1,.235-2.051,68.578,68.578,0,0,1,2.109-6.943q1.055-2.9,1.846-5.728a20.451,20.451,0,0,0,.791-5.522,12.929,12.929,0,0,0-.411-3.237,10.64,10.64,0,0,0-1.391-3.121,5.157,5.157,0,0,1-.982-2.695,2.558,2.558,0,0,1,.938-2.051,5.893,5.893,0,0,1,2.417-1.157,12.948,12.948,0,0,1,3.12-.366,13.212,13.212,0,0,1,3.237.4,6.576,6.576,0,0,1,2.564,1.2,2.485,2.485,0,0,1,1,2.006,4.169,4.169,0,0,1-.85,2.256,9.85,9.85,0,0,0-1.391,3.545,22.935,22.935,0,0,0-.454,4.717,30.159,30.159,0,0,0,1.171,8.262,14.636,14.636,0,0,0,3.428,6.416,7.258,7.258,0,0,1,2.608,5.244,6.326,6.326,0,0,1-1.377,3.955,10.291,10.291,0,0,1-3.472,2.871A9.121,9.121,0,0,1,225.912,275Z" fill="#070808"/>
    <path id="패스_1695" data-name="패스 1695" d="M266.312,275a8.423,8.423,0,0,1-4.248-1.157,9.163,9.163,0,0,1-3.281-3.194,8.694,8.694,0,0,1-1.26-4.672,12.642,12.642,0,0,1,1.611-5.772,9.192,9.192,0,0,0,1.143-4.248,8.718,8.718,0,0,0-.864-3.838,12.028,12.028,0,0,0-2.183-3.149,11.09,11.09,0,0,0-2.8-2.139,5.874,5.874,0,0,0-2.681-.776,2.457,2.457,0,0,0-1.816.7,3.137,3.137,0,0,0-.7,2.285q0,3.78,4.512,11.4a12.5,12.5,0,0,1,1.933,6.27,8.081,8.081,0,0,1-1.157,4.336A8.243,8.243,0,0,1,247.474,275a12.637,12.637,0,0,1-5.991-1.274,8.685,8.685,0,0,1-3.56-3.311,8.53,8.53,0,0,1-1.172-4.321q0-2.52,2.52-9.141,1.143-2.988,2.021-5.889a19.527,19.527,0,0,0,.879-5.683,12.124,12.124,0,0,0-.4-3.091,11.337,11.337,0,0,0-1.289-2.988,5.2,5.2,0,0,1-.894-2.593,2.619,2.619,0,0,1,.952-2.1,6.04,6.04,0,0,1,2.447-1.186,12.633,12.633,0,0,1,3.134-.381,13.4,13.4,0,0,1,3.033.337,7.417,7.417,0,0,1,2.827,1.391,20.778,20.778,0,0,1,3.662,4.278q1.23,1.758,2.725,3.515,2.109,2.314,2.871,2.315.527,0,.527-.791a9.315,9.315,0,0,0-.557-2.915,9.547,9.547,0,0,0-1-2.271,4.223,4.223,0,0,1-1-2.4,2.372,2.372,0,0,1,.967-1.919,6.41,6.41,0,0,1,2.461-1.157,12.635,12.635,0,0,1,3.135-.381,12.868,12.868,0,0,1,3.208.4,6.217,6.217,0,0,1,2.519,1.231,2.726,2.726,0,0,1,.982,2.182,5.234,5.234,0,0,1-.791,2.491,11.146,11.146,0,0,0-1.436,5.449,18.489,18.489,0,0,0,1.04,5.962q1.039,3.062,2.359,6.2,2.958,6.855,2.959,9.551a8.223,8.223,0,0,1-1.114,4.145,8.119,8.119,0,0,1-3.413,3.15A12.425,12.425,0,0,1,266.312,275Z" fill="#070808"/>
    <path id="패스_1696" data-name="패스 1696" d="M294.642,274.883a25.544,25.544,0,0,1-5.815-.659,19.968,19.968,0,0,1-5.054-1.875,10.911,10.911,0,0,1-3.545-2.959,6.28,6.28,0,0,1-1.318-3.882,18.384,18.384,0,0,1,.63-4.746q.629-2.373,1.435-4.746t1.421-4.7a18.007,18.007,0,0,0,.615-4.614,11.277,11.277,0,0,0-1.64-5.976,7.077,7.077,0,0,1-1.2-3.428q0-2.7,3.633-3.662a34.518,34.518,0,0,1,8.057-.7q2.665,0,5.361.058,2.549.088,4.746.088a2.29,2.29,0,0,1,1.6.571,3.471,3.471,0,0,1,.937,1.436,5.225,5.225,0,0,1,.308,1.772,4.106,4.106,0,0,1-.527,2.124,1.745,1.745,0,0,1-1.612.894,12.436,12.436,0,0,1-2.021-.293,32.153,32.153,0,0,0-5.479-.644,5.554,5.554,0,0,0-2.4.439,3.115,3.115,0,0,0-1.318,1.084,2.341,2.341,0,0,0-.41,1.26,1.936,1.936,0,0,0,.615,1.406,2.215,2.215,0,0,0,1.64.615,8.5,8.5,0,0,0,2.1-.249q.981-.247,1.8-.542a5.5,5.5,0,0,1,1.875-.439,1.786,1.786,0,0,1,1.611,1.054,4.519,4.519,0,0,1,.586,2.227,3.112,3.112,0,0,1-.425,1.641,1.418,1.418,0,0,1-1.3.7A7.9,7.9,0,0,1,298.26,248q-.775-.132-1.845-.249a23.717,23.717,0,0,0-2.535-.117,2.049,2.049,0,0,0-1.7.732,2.445,2.445,0,0,0-.586,1.553,2.709,2.709,0,0,0,.44,1.421,3.394,3.394,0,0,0,1.347,1.2,4.831,4.831,0,0,0,2.285.483h1.553a14.933,14.933,0,0,0,5.567-.82,10.189,10.189,0,0,1,4.248-1.113,3.836,3.836,0,0,1,2.417.805,5.24,5.24,0,0,1,1.611,2.74,19.331,19.331,0,0,1,.571,5.273,14.8,14.8,0,0,1-1.465,6.856,13.069,13.069,0,0,1-3.9,4.628,16.77,16.77,0,0,1-5.464,2.637A22.726,22.726,0,0,1,294.642,274.883Z" fill="#070808"/>
  </g>
</svg>
