<svg xmlns="http://www.w3.org/2000/svg" xmlns:xlink="http://www.w3.org/1999/xlink" width="1920" height="1000" viewBox="0 0 1920 1000">
  <defs>
    <filter id="사각형_595">
      <feOffset dy="3" input="SourceAlpha"/>
      <feGaussianBlur stdDeviation="3" result="blur"/>
      <feFlood flood-opacity="0.161" result="color"/>
      <feComposite operator="out" in="SourceGraphic" in2="blur"/>
      <feComposite operator="in" in="color"/>
      <feComposite operator="in" in2="SourceGraphic"/>
    </filter>
  </defs>
  <g id="그룹_836" data-name="그룹 836" transform="translate(-6932 -3930)">
    <g data-type="innerShadowGroup">
      <rect id="사각형_595-2" data-name="사각형 595" width="1920" height="1000" transform="translate(6932 3930)" fill="#fbf8f4"/>
      <g transform="matrix(1, 0, 0, 1, 6932, 3930)" filter="url(#사각형_595)">
        <rect id="사각형_595-3" data-name="사각형 595" width="1920" height="1000" fill="#fff"/>
      </g>
    </g>
    <g id="그룹_835" data-name="그룹 835">
      <path id="패스_1552" data-name="패스 1552" d="M2468.692,4361.82,2299.715,4405.7a68.458,68.458,0,0,0-17.495,125.282l7.383,4.338a20.072,20.072,0,0,1,9.209,12.2l24.783,95.435a43.969,43.969,0,0,0,53.564,31.481l154.628-40.155a43.967,43.967,0,0,0,31.48-53.564l-24.782-95.437a20.05,20.05,0,0,1,2.124-15.143l4.324-7.379a68.456,68.456,0,0,0-76.241-100.938Z" transform="translate(4832.361 -75.233)" fill="#ffc631" opacity="0.3"/>
      <path id="패스_1553" data-name="패스 1553" d="M2344.436,4361.82l168.977,43.881a68.458,68.458,0,0,1,17.495,125.282l-7.383,4.338a20.071,20.071,0,0,0-9.209,12.2l-24.784,95.435a43.969,43.969,0,0,1-53.564,31.481l-154.628-40.155a43.967,43.967,0,0,1-31.48-53.564l24.782-95.437a20.05,20.05,0,0,0-2.124-15.143l-4.323-7.379a68.456,68.456,0,0,1,76.241-100.938Z" transform="translate(6138.512 -75.233)" fill="#ffc631" opacity="0.3"/>
    </g>
  </g>
</svg>
