<svg xmlns="http://www.w3.org/2000/svg" width="180.414" height="179.731" viewBox="0 0 180.414 179.731">
  <path id="패스_83" data-name="패스 83" d="M1033.4,346.063a27.98,27.98,0,0,1,1.369,14.293,72.337,72.337,0,0,0-13.311,5.285c-2.547,1.173-1.178,5.285,2.152,3.72,8.419-4.112,16.644-7.047,31.13-7.243,17.621,0,29.172,6.853,32.107,19.381,3.133,12.725-4.893,21.144-21.534,25.062-11.355,2.544-25.455,3.131-38.962,3.131-25.256,0-37.005-8.615-40.918-23.887a117.091,117.091,0,0,1,0-54.622c3.913-15.272,13.7-22.908,30.345-24.279a245.952,245.952,0,0,1,43.271-.39c16.445.979,25.452,7.44,25.452,19.382,0,12.335-8.029,20.167-25.452,20.167ZM986.8,451.59c0-24.08,23.5-37.784,79.1-37.784,55.406,0,79.1,13.7,79.1,37.784,0,24.473-19.581,31.916-79.1,31.916C1006.182,483.505,986.8,476.063,986.8,451.59Zm64.806.982a30.362,30.362,0,0,0,28.389,0c1.372-.782,2.74-2.743,1.958-4.7-.586-1.566-2.744-2.934-4.307-1.956a25.358,25.358,0,0,1-23.689-.2,3.6,3.6,0,0,0-4.7,1.762C1048.275,449.438,1049.251,451.2,1051.6,452.571Zm90.259-64.415a57.052,57.052,0,0,1-.785,5.678c-1.762,13.117-11.355,18.992-25.063,18.992-15.855,0-26.232-6.853-24.081-21.342a264.355,264.355,0,0,0,.2-64.606c-2.348-16.055,8.029-23.1,23.884-23.1,13.708,0,23.3,6.071,25.063,19.185.392,2.547.586,4.9.979,7.442l6.265-.589c9.007-.979,14.292,7.832,14.292,29.565,0,21.144-5.286,30.345-14.292,29.368Z" transform="translate(-982.199 -303.774)" fill="#ed6c05"/>
</svg>
