<svg xmlns="http://www.w3.org/2000/svg" width="74.207" height="17.92" viewBox="0 0 74.207 17.92">
  <g id="그룹_803" data-name="그룹 803" transform="translate(-74.549 -160.324)">
    <path id="패스_1389" data-name="패스 1389" d="M74.549,178l5.872-17.676h6.311L92.6,178H87.586l-3.93-12.927h-.147L79.566,178Zm13.843-6.982v3.5h-9.7v-3.5Z" fill="#040506"/>
    <path id="패스_1390" data-name="패스 1390" d="M94.349,160.324h4.6v6.726h.086a4.159,4.159,0,0,1,.781-1.263,3.619,3.619,0,0,1,1.245-.885,4.116,4.116,0,0,1,1.685-.33,4.906,4.906,0,0,1,2.606.727,5.078,5.078,0,0,1,1.91,2.252,8.909,8.909,0,0,1,.72,3.808,9.053,9.053,0,0,1-.7,3.754,5.17,5.17,0,0,1-1.887,2.3,4.831,4.831,0,0,1-2.661.757,4.3,4.3,0,0,1-1.653-.305,3.689,3.689,0,0,1-1.252-.83,3.782,3.782,0,0,1-.793-1.2H98.9V178H94.349Zm4.779,12.769a2.493,2.493,0,0,0,.751,1.129,1.8,1.8,0,0,0,1.172.4,1.821,1.821,0,0,0,1.184-.4,2.413,2.413,0,0,0,.738-1.129,6.112,6.112,0,0,0,0-3.467,2.3,2.3,0,0,0-.738-1.111,1.877,1.877,0,0,0-1.184-.378,1.856,1.856,0,0,0-1.172.378,2.375,2.375,0,0,0-.751,1.111,5.866,5.866,0,0,0,0,3.467Z" fill="#040506"/>
    <path id="패스_1391" data-name="패스 1391" d="M112.7,177.39a5.785,5.785,0,0,1-2.356-2.4,8.256,8.256,0,0,1,0-7.166,5.806,5.806,0,0,1,2.356-2.392,8.218,8.218,0,0,1,7.3,0,5.787,5.787,0,0,1,2.368,2.392,8.256,8.256,0,0,1,0,7.166,5.766,5.766,0,0,1-2.368,2.4,8.227,8.227,0,0,1-7.3,0Zm4.81-2.985a2.652,2.652,0,0,0,.708-1.209,6.235,6.235,0,0,0,.244-1.837,6.135,6.135,0,0,0-.244-1.818,2.613,2.613,0,0,0-.708-1.2,1.614,1.614,0,0,0-1.111-.415,1.752,1.752,0,0,0-1.172.415,2.534,2.534,0,0,0-.738,1.184,5.94,5.94,0,0,0-.251,1.831,6.046,6.046,0,0,0,.251,1.85,2.571,2.571,0,0,0,.738,1.2,1.732,1.732,0,0,0,1.172.421A1.6,1.6,0,0,0,117.506,174.4Z" fill="#040506"/>
    <path id="패스_1392" data-name="패스 1392" d="M133.729,164.743h4.614V178h-4.382v-2.5h-.147a3.775,3.775,0,0,1-1.513,1.965,4.533,4.533,0,0,1-2.551.708,4.579,4.579,0,0,1-2.411-.629,4.245,4.245,0,0,1-1.618-1.764,5.652,5.652,0,0,1-.574-2.588v-8.447h4.615v7.5a2.75,2.75,0,0,0,.225,1.16,1.658,1.658,0,0,0,.666.75,1.976,1.976,0,0,0,1.037.263,2.163,2.163,0,0,0,1.087-.263,1.71,1.71,0,0,0,.708-.768,2.668,2.668,0,0,0,.244-1.166Z" fill="#040506"/>
    <path id="패스_1393" data-name="패스 1393" d="M148.573,168.088h-8.606v-3.345h8.606Zm-2.295-6.519v12.183a1.058,1.058,0,0,0,.1.5.624.624,0,0,0,.312.287,1.454,1.454,0,0,0,.537.1,12.994,12.994,0,0,0,1.526-.061v3.442a12.335,12.335,0,0,1-2.185.171,7.5,7.5,0,0,1-2.716-.427,3.316,3.316,0,0,1-1.654-1.312,3.961,3.961,0,0,1-.537-2.24V161.569Z" fill="#040506"/>
  </g>
</svg>
