<svg xmlns="http://www.w3.org/2000/svg" width="66.174" height="17.92" viewBox="0 0 66.174 17.92">
  <g id="그룹_804" data-name="그룹 804" transform="translate(-192.53 -160.324)">
    <path id="패스_1394" data-name="패스 1394" d="M198.292,160.324l4.235,10.266h.2l4.211-10.266h5.786V178h-4.541V167.6h-.146l-4.016,10.266h-2.784l-4.016-10.315h-.146V178H192.53V160.324Z" fill="#040506"/>
    <path id="패스_1395" data-name="패스 1395" d="M217.853,177.426a5.654,5.654,0,0,1-2.362-2.356,7.6,7.6,0,0,1-.83-3.662,7.509,7.509,0,0,1,.83-3.6,5.822,5.822,0,0,1,2.344-2.392,7.132,7.132,0,0,1,3.528-.843,7.059,7.059,0,0,1,3.454.812,5.564,5.564,0,0,1,2.283,2.344,7.675,7.675,0,0,1,.806,3.619v1.111H216.15V169.87h7.5a1.953,1.953,0,0,0-.293-1.062,2.011,2.011,0,0,0-.788-.72,2.362,2.362,0,0,0-1.1-.256,2.454,2.454,0,0,0-1.135.262,2,2,0,0,0-.8.732,2.143,2.143,0,0,0-.318,1.069v2.734a2.582,2.582,0,0,0,.287,1.226,1.986,1.986,0,0,0,.824.837,2.562,2.562,0,0,0,1.245.293,2.733,2.733,0,0,0,.928-.153,2.278,2.278,0,0,0,.726-.409,1.467,1.467,0,0,0,.434-.634h4.248a4.834,4.834,0,0,1-1.057,2.361,5.355,5.355,0,0,1-2.215,1.551,8.551,8.551,0,0,1-3.149.543A7.574,7.574,0,0,1,217.853,177.426Z" fill="#040506"/>
    <path id="패스_1396" data-name="패스 1396" d="M234.5,178h-4.615V164.743h4.383v2.49h.122a3.807,3.807,0,0,1,1.52-1.947,4.513,4.513,0,0,1,2.545-.714,4.63,4.63,0,0,1,2.435.629,4.26,4.26,0,0,1,1.617,1.752,5.576,5.576,0,0,1,.574,2.575V178h-4.614v-7.52a2.692,2.692,0,0,0-.226-1.153,1.669,1.669,0,0,0-.665-.745,2.062,2.062,0,0,0-1.074-.262,2.084,2.084,0,0,0-1.056.262,1.735,1.735,0,0,0-.7.751,2.593,2.593,0,0,0-.244,1.172Z" fill="#040506"/>
    <path id="패스_1397" data-name="패스 1397" d="M254.09,164.743H258.7V178h-4.382v-2.5h-.147a3.781,3.781,0,0,1-1.513,1.965,4.943,4.943,0,0,1-4.962.079,4.232,4.232,0,0,1-1.618-1.764,5.652,5.652,0,0,1-.574-2.588v-8.447h4.615v7.5a2.75,2.75,0,0,0,.225,1.16,1.658,1.658,0,0,0,.666.75,1.973,1.973,0,0,0,1.037.263,2.163,2.163,0,0,0,1.087-.263,1.71,1.71,0,0,0,.708-.768,2.668,2.668,0,0,0,.244-1.166Z" fill="#040506"/>
  </g>
</svg>
