<svg xmlns="http://www.w3.org/2000/svg" width="67.615" height="17.92" viewBox="0 0 67.615 17.92">
  <g id="그룹_805" data-name="그룹 805" transform="translate(-343.863 -160.324)">
    <path id="패스_1398" data-name="패스 1398" d="M343.863,160.324h12.622v3.748H348.5v3.21h7.336v3.748H348.5v3.222h7.947V178H343.863Z" fill="#040506"/>
    <path id="패스_1399" data-name="패스 1399" d="M367.7,178h-5.335L357.9,164.743h4.859l2.209,8.862h.147l2.221-8.862H372.2Z" fill="#040506"/>
    <path id="패스_1400" data-name="패스 1400" d="M375.876,177.426a5.654,5.654,0,0,1-2.362-2.356,7.6,7.6,0,0,1-.83-3.662,7.509,7.509,0,0,1,.83-3.6,5.822,5.822,0,0,1,2.344-2.392,7.778,7.778,0,0,1,6.982-.031,5.564,5.564,0,0,1,2.283,2.344,7.674,7.674,0,0,1,.806,3.619v1.111H374.173V169.87h7.495a1.944,1.944,0,0,0-.293-1.062,2,2,0,0,0-.787-.72,2.362,2.362,0,0,0-1.105-.256,2.454,2.454,0,0,0-1.135.262,2.01,2.01,0,0,0-.806.732,2.152,2.152,0,0,0-.317,1.069v2.734a2.582,2.582,0,0,0,.287,1.226,1.986,1.986,0,0,0,.824.837,2.562,2.562,0,0,0,1.245.293,2.733,2.733,0,0,0,.928-.153,2.289,2.289,0,0,0,.726-.409,1.456,1.456,0,0,0,.433-.634h4.249a4.834,4.834,0,0,1-1.057,2.361,5.361,5.361,0,0,1-2.215,1.551,8.551,8.551,0,0,1-3.149.543A7.571,7.571,0,0,1,375.876,177.426Z" fill="#040506"/>
    <path id="패스_1401" data-name="패스 1401" d="M392.521,178h-4.615V164.743h4.383v2.49h.122a3.807,3.807,0,0,1,1.52-1.947,4.513,4.513,0,0,1,2.545-.714,4.63,4.63,0,0,1,2.435.629,4.26,4.26,0,0,1,1.617,1.752,5.576,5.576,0,0,1,.574,2.575V178h-4.614v-7.52a2.692,2.692,0,0,0-.226-1.153,1.669,1.669,0,0,0-.665-.745,2.3,2.3,0,0,0-2.13,0,1.735,1.735,0,0,0-.7.751,2.593,2.593,0,0,0-.244,1.172Z" fill="#040506"/>
    <path id="패스_1402" data-name="패스 1402" d="M411.3,168.088h-8.606v-3.345H411.3Zm-2.3-6.519v12.183a1.057,1.057,0,0,0,.1.5.618.618,0,0,0,.311.287,1.453,1.453,0,0,0,.537.1,12.994,12.994,0,0,0,1.526-.061v3.442a12.335,12.335,0,0,1-2.185.171,7.5,7.5,0,0,1-2.716-.427,3.32,3.32,0,0,1-1.654-1.312,3.961,3.961,0,0,1-.537-2.24V161.569Z" fill="#040506"/>
  </g>
</svg>
