<svg xmlns="http://www.w3.org/2000/svg" width="68.836" height="17.92" viewBox="0 0 68.836 17.92">
  <g id="그룹_806" data-name="그룹 806" transform="translate(-474.529 -160.324)">
    <path id="패스_1403" data-name="패스 1403" d="M474.529,160.324h7.581a9.2,9.2,0,0,1,3.351.543,4.478,4.478,0,0,1,2.088,1.532,3.966,3.966,0,0,1,.7,2.356,3.7,3.7,0,0,1-.427,1.765,3.877,3.877,0,0,1-1.19,1.342,4.615,4.615,0,0,1-1.776.751v.171a4.47,4.47,0,0,1,2.069.586,3.9,3.9,0,0,1,1.47,1.477,4.269,4.269,0,0,1,.538,2.16,4.538,4.538,0,0,1-.75,2.57,5.042,5.042,0,0,1-2.149,1.776,7.756,7.756,0,0,1-3.29.647h-8.216Zm7.881,6.97a1.829,1.829,0,0,0,.787-.616,1.759,1.759,0,0,0,.006-1.9,1.7,1.7,0,0,0-.758-.592,2.875,2.875,0,0,0-1.116-.2h-2.161v3.528h2.088A2.869,2.869,0,0,0,482.41,167.294Zm.5,6.763a1.709,1.709,0,0,0,.83-.635,1.786,1.786,0,0,0,.275-1.013,2,2,0,0,0-.286-1.08,1.771,1.771,0,0,0-.831-.69,3.316,3.316,0,0,0-1.3-.232h-2.43v3.87h2.356A3.782,3.782,0,0,0,482.91,174.057Z" fill="#040506"/>
    <path id="패스_1404" data-name="패스 1404" d="M493.438,177.39a5.785,5.785,0,0,1-2.356-2.4,8.265,8.265,0,0,1,0-7.166,5.806,5.806,0,0,1,2.356-2.392,8.219,8.219,0,0,1,7.3,0,5.787,5.787,0,0,1,2.368,2.392,8.256,8.256,0,0,1,0,7.166,5.766,5.766,0,0,1-2.368,2.4,8.227,8.227,0,0,1-7.3,0Zm4.81-2.985a2.652,2.652,0,0,0,.708-1.209,6.2,6.2,0,0,0,.244-1.837,6.1,6.1,0,0,0-.244-1.818,2.613,2.613,0,0,0-.708-1.2,1.614,1.614,0,0,0-1.111-.415,1.756,1.756,0,0,0-1.172.415,2.551,2.551,0,0,0-.738,1.184,5.972,5.972,0,0,0-.25,1.831,6.079,6.079,0,0,0,.25,1.85,2.587,2.587,0,0,0,.738,1.2,1.735,1.735,0,0,0,1.172.421A1.6,1.6,0,0,0,498.248,174.4Z" fill="#040506"/>
    <path id="패스_1405" data-name="패스 1405" d="M511.993,172.617l-1.025.1a1.586,1.586,0,0,0-.989.452,1.265,1.265,0,0,0-.366.916,1.1,1.1,0,0,0,.183.634,1.133,1.133,0,0,0,.518.409,1.929,1.929,0,0,0,.751.141,2.507,2.507,0,0,0,1.1-.245,1.977,1.977,0,0,0,.812-.689,1.8,1.8,0,0,0,.3-1.032l-.048-4.37a1.121,1.121,0,0,0-.178-.641,1.068,1.068,0,0,0-.531-.4,2.213,2.213,0,0,0-.793-.135,1.96,1.96,0,0,0-1.166.318,1.315,1.315,0,0,0-.532.94h-4.259a4.466,4.466,0,0,1,.8-2.246,4.794,4.794,0,0,1,2.027-1.606,7.791,7.791,0,0,1,3.2-.592,8.4,8.4,0,0,1,3.192.562,4.938,4.938,0,0,1,2.124,1.55,3.638,3.638,0,0,1,.751,2.258V178h-4.334v-1.855h-.1a4.055,4.055,0,0,1-.947,1.153,3.725,3.725,0,0,1-1.269.683,5.385,5.385,0,0,1-1.63.227,5.467,5.467,0,0,1-2.258-.434,3.418,3.418,0,0,1-1.519-1.306,3.874,3.874,0,0,1-.556-2.13,3.608,3.608,0,0,1,1.337-3.082,6.368,6.368,0,0,1,3.558-1.13q.451-.048,2.2-.1l1.074-.049.023,2.576Q512.762,172.58,511.993,172.617Z" fill="#040506"/>
    <path id="패스_1406" data-name="패스 1406" d="M520.184,164.743h4.468v2.49h.147a3.649,3.649,0,0,1,1.135-2.007,2.881,2.881,0,0,1,1.892-.654,4.924,4.924,0,0,1,1.2.159V168.7a3.176,3.176,0,0,0-.81-.177,8.551,8.551,0,0,0-.922-.055,2.605,2.605,0,0,0-1.282.311,2.263,2.263,0,0,0-.886.892,2.7,2.7,0,0,0-.322,1.336V178h-4.615Z" fill="#040506"/>
    <path id="패스_1407" data-name="패스 1407" d="M532.336,177.414a5.117,5.117,0,0,1-1.886-2.3,9.1,9.1,0,0,1-.7-3.754,8.894,8.894,0,0,1,.721-3.808,5.108,5.108,0,0,1,1.9-2.252,4.819,4.819,0,0,1,2.582-.727,4.225,4.225,0,0,1,1.715.33,3.489,3.489,0,0,1,1.238.885,4.312,4.312,0,0,1,.77,1.263h.073v-6.726h4.614V178H538.8v-2.161h-.122a3.909,3.909,0,0,1-.782,1.2,3.539,3.539,0,0,1-1.25.83,4.4,4.4,0,0,1-1.667.305A4.821,4.821,0,0,1,532.336,177.414Zm5.506-3.192a2.505,2.505,0,0,0,.762-1.141,5.682,5.682,0,0,0,0-3.455,2.39,2.39,0,0,0-.762-1.111,1.9,1.9,0,0,0-1.191-.378,1.858,1.858,0,0,0-1.172.378,2.352,2.352,0,0,0-.745,1.111,6.02,6.02,0,0,0,0,3.467,2.469,2.469,0,0,0,.745,1.129,1.8,1.8,0,0,0,1.172.4A1.848,1.848,0,0,0,537.842,174.222Z" fill="#040506"/>
  </g>
</svg>
