<svg xmlns="http://www.w3.org/2000/svg" xmlns:xlink="http://www.w3.org/1999/xlink" width="18" height="18" viewBox="0 0 18 18">
  <defs>
    <clipPath id="clip-path">
      <rect id="사각형_10" data-name="사각형 10" width="18" height="18" transform="translate(1531 60)" fill="#040506"/>
    </clipPath>
  </defs>
  <g id="마스크_그룹_8" data-name="마스크 그룹 8" transform="translate(-1531 -60)" clip-path="url(#clip-path)">
    <g id="언어_1_" data-name="언어 (1)" transform="translate(1528.124 58.051)">
      <g id="그룹_79" data-name="그룹 79" transform="translate(3.897 2.723)">
        <path id="패스_90" data-name="패스 90" d="M6.907,9.95A15.39,15.39,0,0,1,8.494,3.015a.043.043,0,0,0-.05-.062,7.969,7.969,0,0,0-5.7,6.99.042.042,0,0,0,.042.047H6.867a.042.042,0,0,0,.04-.041Z" transform="translate(-2.743 -2.627)" fill="#040506"/>
        <path id="패스_91" data-name="패스 91" d="M6.549,8.739a.043.043,0,0,0-.042.042c.123,4.552,1.546,7.33,2.58,7.33s2.457-2.769,2.58-7.33a.043.043,0,0,0-.042-.042Z" transform="translate(-1.16 -0.193)" fill="#040506"/>
        <path id="패스_92" data-name="패스 92" d="M11.482,9.993h4.082a.045.045,0,0,0,.045-.047,7.971,7.971,0,0,0-5.7-7,.04.04,0,0,0-.047.061,15.487,15.487,0,0,1,1.584,6.942.042.042,0,0,0,.04.041Z" transform="translate(0.246 -2.629)" fill="#040506"/>
        <path id="패스_93" data-name="패스 93" d="M9.086,2.723c-1.034,0-2.457,2.766-2.58,7.33a.045.045,0,0,0,.042.045h5.075a.045.045,0,0,0,.042-.045c-.123-4.564-1.546-7.33-2.58-7.33Z" transform="translate(-1.16 -2.723)" fill="#040506"/>
        <path id="패스_94" data-name="패스 94" d="M6.867,8.739H2.786a.042.042,0,0,0-.042.045,7.966,7.966,0,0,0,5.7,7,.042.042,0,1,0,.05-.068A15.466,15.466,0,0,1,6.907,8.769a.04.04,0,0,0-.04-.03Z" transform="translate(-2.743 -0.193)" fill="#040506"/>
        <path id="패스_95" data-name="패스 95" d="M11.442,8.779a15.486,15.486,0,0,1-1.584,6.942.04.04,0,0,0,.047.061,7.974,7.974,0,0,0,5.7-7,.045.045,0,0,0-.042-.045H11.482a.04.04,0,0,0-.04.041Z" transform="translate(0.246 -0.193)" fill="#040506"/>
      </g>
      <text id="Created_by_Rizalwale" data-name="Created by Rizalwale" transform="translate(0 26.218)" fill="#040506" font-size="1" font-family="SegoeUI-Bold, Segoe UI" font-weight="700"><tspan x="0" y="0">Created by Rizalwale</tspan></text>
      <text id="from_Noun_Project" data-name="from Noun Project" transform="translate(0 27.4)" fill="#040506" font-size="1" font-family="SegoeUI-Bold, Segoe UI" font-weight="700"><tspan x="0" y="0">from Noun Project</tspan></text>
    </g>
  </g>
</svg>
