<svg xmlns="http://www.w3.org/2000/svg" width="23.42" height="19.24" viewBox="0 0 23.42 19.24">
  <path id="패스_910" data-name="패스 910" d="M53.385,46.356a4.024,4.024,0,0,0,1.153-2.882A3.963,3.963,0,0,0,48.2,40.3a5.4,5.4,0,0,0-5.116-3.6A5.474,5.474,0,0,0,37.6,42.177,5.532,5.532,0,0,0,39.765,46.5,9.2,9.2,0,0,0,34,55a.937.937,0,1,0,1.874,0,7.35,7.35,0,0,1,14.7,0,.937.937,0,1,0,1.874,0,9.289,9.289,0,0,0-3.387-7.134,5.018,5.018,0,0,1,1.8-.36,4.675,4.675,0,0,1,4.684,4.684.937.937,0,1,0,1.874,0A7.484,7.484,0,0,0,53.385,46.356Zm-10.233-.5a3.675,3.675,0,1,1,3.675-3.675,1.069,1.069,0,0,1-.072.5.433.433,0,0,1-.072.288A3.625,3.625,0,0,1,43.152,45.852Zm7.422-.144a2.168,2.168,0,0,1-2.162-2.162V43.33a.433.433,0,0,1,.072-.288,2.155,2.155,0,0,1,4.252.5A2.122,2.122,0,0,1,50.574,45.708Z" transform="translate(-34 -36.7)" fill="#ed6c05"/>
</svg>
