<svg xmlns="http://www.w3.org/2000/svg" width="23.416" height="18.134" viewBox="0 0 23.416 18.134">
  <path id="패스_909" data-name="패스 909" d="M34.355,32.425a1.682,1.682,0,0,0-1.367-.7H30.16l-1.485-3.967a2.531,2.531,0,0,0-2.36-1.637H19.26a2.532,2.532,0,0,0-2.361,1.64L15.42,31.721H12.936a1.691,1.691,0,0,0-1.587,2.226l3.172,9.175a1.68,1.68,0,0,0,1.586,1.129H29.819a1.681,1.681,0,0,0,1.587-1.13l3.171-9.174a1.681,1.681,0,0,0-.22-1.522Zm-1.361.975-1.3,3.749H28.945l.968-3.75h3.08Zm-9.2,9.177V38.822h2.989l-.969,3.756H23.8Zm-3.692,0-.969-3.755h2.989v3.755h-2.02Zm-1.4-5.426L17.737,33.4l4.389,0V37.15Zm5.092,0V33.4l4.388,0-.968,3.751Zm-5.332-8.81a.851.851,0,0,1,.794-.552h7.055a.852.852,0,0,1,.795.551l1.266,3.381H17.2l1.261-3.381Zm-2.457,5.054.969,3.756H14.229l-1.3-3.757Zm.091,9.181-1.294-3.754h2.6l.969,3.754H16.1Zm13.718,0H27.544l.969-3.757H31.12c-.006.005-1.291,3.759-1.3,3.757Z" transform="translate(-11.252 -26.117)" fill="#ed6c05"/>
</svg>
