<svg xmlns="http://www.w3.org/2000/svg" width="23.42" height="15.865" viewBox="0 0 23.42 15.865">
  <g id="그룹_686" data-name="그룹 686" transform="translate(-16.5 -21.5)">
    <path id="패스_799" data-name="패스 799" d="M38.883,21.5a1.257,1.257,0,0,1,.19.032,1.14,1.14,0,0,1,.565.344,1.112,1.112,0,0,1-.3,1.718,1.153,1.153,0,0,1-.361.125,1.1,1.1,0,0,1-.192.016H17.633a1.089,1.089,0,0,1-.191-.016,1.142,1.142,0,0,1-.593-.295,1.111,1.111,0,0,1,0-1.617,1.168,1.168,0,0,1,.231-.169,1.151,1.151,0,0,1,.362-.125,1.089,1.089,0,0,1,.191-.016H38.787Z" transform="translate(0)" fill="#ed6c05"/>
    <path id="패스_800" data-name="패스 800" d="M38.883,30.5a1.257,1.257,0,0,1,.19.032,1.14,1.14,0,0,1,.565.344,1.116,1.116,0,0,1-.3,1.718,1.153,1.153,0,0,1-.361.125,1.1,1.1,0,0,1-.192.016H17.633a1.089,1.089,0,0,1-.191-.016,1.151,1.151,0,0,1-.362-.125,1.114,1.114,0,0,1-.571-1.12,1.123,1.123,0,0,1,.34-.666,1.142,1.142,0,0,1,.593-.295,1.089,1.089,0,0,1,.191-.016H38.787Z" transform="translate(0 -2.187)" fill="#ed6c05"/>
    <path id="패스_801" data-name="패스 801" d="M38.883,39.5a1.257,1.257,0,0,1,.19.032,1.14,1.14,0,0,1,.565.344,1.116,1.116,0,0,1-.3,1.718,1.153,1.153,0,0,1-.361.125,1.1,1.1,0,0,1-.192.016H17.633a1.09,1.09,0,0,1-.191-.016,1.142,1.142,0,0,1-.593-.295,1.116,1.116,0,0,1-.267-1.226,1.129,1.129,0,0,1,.5-.561,1.151,1.151,0,0,1,.362-.125,1.089,1.089,0,0,1,.191-.016H38.787Z" transform="translate(0 -4.374)" fill="#ed6c05"/>
  </g>
</svg>
