<svg xmlns="http://www.w3.org/2000/svg" width="177.696" height="58.222" viewBox="0 0 177.696 58.222">
  <g id="그룹_802" data-name="그룹 802" transform="translate(-5 111.222)">
    <g id="그룹_721" data-name="그룹 721" transform="translate(5 -105.582)">
      <path id="패스_947" data-name="패스 947" d="M44.35,29.44h0c-.166-7.407-4.042-19.452-6.8-19.452-2.283,0-6.484,2.062-9.015,6.106a25.313,25.313,0,0,0-11.566,0c-2.528-4.044-6.732-6.106-9.015-6.106-2.753,0-6.629,12.045-6.8,19.452A18.6,18.6,0,0,0,0,35.908C0,47.219,9.679,49.334,22.317,49.334s23.2-2.115,23.2-13.426A18.614,18.614,0,0,0,44.35,29.44" transform="translate(0 -5.288)" fill="#040506"/>
      <path id="패스_948" data-name="패스 948" d="M29.553,3.858a4.436,4.436,0,0,0-1.487,6.221l.228.371.1.169.32.521c.788,1.281.754,1.659-.518,2.441L25.54,15.218l1.421,2.31,2.662-1.637c2.537-1.559,2.962-3.606,1.39-6.161l-.32-.521-.1-.17-.228-.371a1.754,1.754,0,0,1,.613-2.5,1.356,1.356,0,0,0-1.421-2.31" transform="translate(-6.574 -3.66)" fill="#040506"/>
      <path id="패스_949" data-name="패스 949" d="M22.108,37.839c0,5.048-2.863,9.139-6.394,9.139S9.32,42.886,9.32,37.839,12.182,28.7,15.714,28.7s6.394,4.091,6.394,9.139" transform="translate(-2.399 -10.105)" fill="#fff"/>
      <path id="패스_950" data-name="패스 950" d="M21.929,38.441c0,4.087-2.318,7.4-5.177,7.4s-5.178-3.313-5.178-7.4,2.318-7.4,5.178-7.4,5.177,3.313,5.177,7.4" transform="translate(-2.979 -10.707)" fill="#040506"/>
      <path id="패스_951" data-name="패스 951" d="M47.539,37.839c0,5.048-2.863,9.139-6.394,9.139s-6.394-4.091-6.394-9.139S37.613,28.7,41.145,28.7s6.394,4.091,6.394,9.139" transform="translate(-8.945 -10.105)" fill="#fff"/>
      <path id="패스_952" data-name="패스 952" d="M46.127,38.441c0,4.087-2.318,7.4-5.177,7.4s-5.178-3.313-5.178-7.4,2.318-7.4,5.178-7.4,5.177,3.313,5.177,7.4" transform="translate(-9.207 -10.707)" fill="#040506"/>
      <path id="패스_953" data-name="패스 953" d="M21.388,39.447H19.6a.7.7,0,0,0-.5,1.2l.062.062a.206.206,0,0,1,.06.145v1.011a.451.451,0,0,0,.45.451h1.638a.451.451,0,0,0,.45-.451V40.852a.206.206,0,0,1,.06-.145l.062-.062a.7.7,0,0,0,.206-.5.7.7,0,0,0-.7-.7" transform="translate(-4.864 -12.871)" fill="#fff"/>
      <path id="패스_954" data-name="패스 954" d="M40.544,39.447h-1.79a.7.7,0,0,0-.5,1.2l.062.062a.206.206,0,0,1,.06.145v1.011a.451.451,0,0,0,.45.451h1.638a.451.451,0,0,0,.45-.451V40.852a.206.206,0,0,1,.06-.145l.062-.062a.7.7,0,0,0,.206-.5.7.7,0,0,0-.7-.7" transform="translate(-9.794 -12.871)" fill="#fff"/>
    </g>
    <g id="그룹_722" data-name="그룹 722" transform="translate(44.12 -39.515)">
      <path id="패스_958" data-name="패스 958" d="M84.264,32.351a4.112,4.112,0,0,1-3.9-4.455c0-2.122,1.485-4.328,3.9-4.073a188.5,188.5,0,0,0,30.165,0c2.46-.212,3.945,1.951,3.945,4.073a4.124,4.124,0,0,1-3.988,4.455c-2.545.212-5.261.339-8.018.424a10.668,10.668,0,0,1,.17,2.164c0,4.794-1.612,4.921-7.17,4.921s-7.213-.126-7.213-4.921a10.187,10.187,0,0,1,.17-2.122c-2.8-.085-5.558-.254-8.061-.466M82.143,17.926A38.314,38.314,0,0,1,82.016,7.15C82.44,4.6,83.5,3.713,85.707,3.289a75.838,75.838,0,0,1,27.322,0c2.249.424,3.267,1.315,3.649,3.861a35.4,35.4,0,0,1-.127,10.776c-.467,2.545-1.273,3.563-3.521,3.861a101.63,101.63,0,0,1-27.322,0c-2.206-.3-3.055-1.315-3.563-3.861m20.322-5.007a.865.865,0,0,0,.424-1.1.645.645,0,0,0-.891-.382,5.342,5.342,0,0,1-5.176-.042.737.737,0,0,0-.976.339c-.254.467-.042.849.552,1.188a6.527,6.527,0,0,0,6.067,0" transform="translate(-61.549 -72.577)" fill="#ea5b18"/>
      <path id="패스_959" data-name="패스 959" d="M154.364,32.351a4.112,4.112,0,0,1-3.9-4.455c0-2.122,1.485-4.328,3.9-4.073a188.5,188.5,0,0,0,30.165,0c2.46-.212,3.945,1.951,3.945,4.073a4.124,4.124,0,0,1-3.988,4.455c-2.545.212-5.261.339-8.018.424a10.666,10.666,0,0,1,.17,2.164c0,4.794-1.612,4.921-7.17,4.921s-7.213-.126-7.213-4.921a10.227,10.227,0,0,1,.17-2.122c-2.8-.085-5.558-.254-8.061-.466m-2.122-14.425a38.291,38.291,0,0,1-.127-10.776c.424-2.546,1.485-3.437,3.691-3.861a75.835,75.835,0,0,1,27.322,0c2.249.424,3.267,1.315,3.649,3.861a35.4,35.4,0,0,1-.127,10.776c-.467,2.545-1.273,3.563-3.521,3.861a101.626,101.626,0,0,1-27.322,0c-2.206-.3-3.055-1.315-3.564-3.861m20.322-5.007a.865.865,0,0,0,.424-1.1.645.645,0,0,0-.891-.382,5.342,5.342,0,0,1-5.176-.042.737.737,0,0,0-.976.339c-.254.467-.042.849.552,1.188a6.527,6.527,0,0,0,6.067,0" transform="translate(-91.346 -72.577)" fill="#ea5b18"/>
      <path id="패스_960" data-name="패스 960" d="M231.764,9.164a6.06,6.06,0,0,1,.3,3.1,15.7,15.7,0,0,0-2.885,1.146c-.552.254-.255,1.145.467.806a14.236,14.236,0,0,1,6.745-1.57c3.819,0,6.321,1.485,6.958,4.2.678,2.757-1.061,4.582-4.667,5.431a40.792,40.792,0,0,1-8.442.678c-5.473,0-8.019-1.867-8.867-5.176a25.375,25.375,0,0,1,0-11.837c.849-3.309,2.97-4.963,6.576-5.261a53.237,53.237,0,0,1,9.376-.085c3.563.212,5.515,1.612,5.515,4.2,0,2.673-1.739,4.37-5.515,4.37Zm-10.1,22.867c0-5.218,5.09-8.188,17.139-8.188,12.006,0,17.141,2.97,17.141,8.188,0,5.3-4.243,6.916-17.141,6.916-12.94,0-17.139-1.613-17.139-6.916m14.042.212a6.577,6.577,0,0,0,6.152,0,.865.865,0,0,0,.424-1.018c-.127-.339-.594-.636-.933-.424a5.494,5.494,0,0,1-5.134-.043.779.779,0,0,0-1.018.382c-.212.425,0,.807.509,1.1m19.559-13.958a12.083,12.083,0,0,1-.17,1.23c-.382,2.842-2.46,4.115-5.43,4.115-3.436,0-5.685-1.485-5.218-4.625a57.3,57.3,0,0,0,.043-14C243.982,1.528,246.231,0,249.667,0c2.97,0,5.049,1.315,5.43,4.158.086.552.128,1.061.212,1.612l1.358-.127c1.951-.212,3.1,1.7,3.1,6.406,0,4.582-1.145,6.576-3.1,6.365Z" transform="translate(-121.189 -71.707)" fill="#ea5b18"/>
    </g>
    <g id="그룹_801" data-name="그룹 801" transform="translate(-1248.074 -378.813)">
      <path id="패스_1375" data-name="패스 1375" d="M1319.507,317.963h.523V317.1h.513v-.991h.489v-.933h.513v-1.1h.661v-.535h1.594v.546h.546v9.134h-.546v.557h-1.435v-.557h-.558v-3.542h-.387v.649h-.342v.695h-.386v.717h-.444v.763h-.49v.523h-1.093V322.5h-.479v-.763h-.444v-.717h-.387v-.695H1317v-.649h-.387v3.542h-.546v.557h-1.447v-.557h-.547V314.08h.547v-.546h1.594v.535h.661v1.1h.512v.933h.49v.991h.513v.865h.524v.741h.593Z" transform="translate(0 -0.019)" fill="#161615"/>
      <path id="패스_1376" data-name="패스 1376" d="M1334.084,321.915h-.649v.7h-.626v.6h-.582v.557h-4.418v-.557h-.58v-.6h-.627v-.7h-.649V314.1h.592v-.57h1.5v.57h.58v6.627h.6v.615h1.571v-.615h.592V314.1h.581v-.57h1.514v.57h.592Z" transform="translate(-0.6 -0.019)" fill="#161615"/>
      <path id="패스_1377" data-name="패스 1377" d="M1341.011,317.963h.522V317.1h.513v-.991h.49v-.933h.513v-1.1h.66v-.535h1.6v.546h.546v9.134h-.546v.557h-1.436v-.557h-.557v-3.542h-.387v.649h-.342v.695h-.386v.717h-.444v.763h-.49v.523h-1.093V322.5h-.479v-.763h-.444v-.717h-.387v-.695h-.352v-.649h-.387v3.542h-.546v.557h-1.447v-.557h-.547V314.08h.547v-.546h1.594v.535h.661v1.1h.512v.933h.49v.991h.513v.865h.524v.741h.592Z" transform="translate(-1.087 -0.019)" fill="#161615"/>
      <path id="패스_1378" data-name="패스 1378" d="M1355.588,321.915h-.649v.7h-.626v.6h-.582v.557h-4.418v-.557h-.58v-.6h-.628v-.7h-.648V314.1h.593v-.57h1.5v.57h.58v6.627h.6v.615h1.571v-.615h.592V314.1h.581v-.57H1355v.57h.592Z" transform="translate(-1.687 -0.019)" fill="#161615"/>
      <path id="패스_1379" data-name="패스 1379" d="M1357.624,313.15h1.173v.422h.421v2.13h-.421v.41h-1.173v-.41h-.41v-2.13h.41Z" transform="translate(-2.18)" fill="#161615"/>
      <path id="패스_1380" data-name="패스 1380" d="M1363.993,320.785h-2.059v-.376h-.524v-.433h-.5V319.5h-.489v-2.436h.489v-.5h.5v-.443h.524v-.387h4.623v.422h.455v1.286h-.455v.444H1363.5v.3h-.386v.352h.386v.285h2.061v.376h.535v.432h.491v.479h.489v2.449h-.489v.5h-.491v.444h-.535v.387h-4.613v-.422h-.455v-1.3h.455v-.444h3.04v-.3h.388v-.353h-.388Z" transform="translate(-2.342 -0.13)" fill="#161615"/>
      <path id="패스_1381" data-name="패스 1381" d="M1375.024,316.359v-.8h.616v-.752h.636v-.74h.65v-.524h1.675v.524h.58v1.537h-.58v.718h-.616v.694h-.6v.66h-.557v.649h-.558v.638h.558v.648h.557v.672h.6v.683h.616v.729h.58v1.526h-.58v.535h-1.675v-.535h-.65V322.5h-.636v-.763h-.616v-.785h-.626v2.3h-.49v.523h-1.685v-.523h-.479v-9.19h.479v-.524h1.685v.524h.49v2.3Z" transform="translate(-2.915 -0.019)" fill="#161615"/>
      <path id="패스_1382" data-name="패스 1382" d="M1380.422,316.252h.455v-.523h1.481v.557h.524v-.557h3.267v.523h.524v.558h.5v.626h.456v6h-.456v.455h-1.641v-.455h-.455v-4.954h-.455v-.49h-1.2v.49h-.466v4.942h-.457v.456h-1.628v-.456h-.455Z" transform="translate(-3.353 -0.13)" fill="#161615"/>
      <path id="패스_1383" data-name="패스 1383" d="M1396.037,317.243v3.109h-.456v.456h-4.133v.444h.546v.466h3.325v.479h.479v1.242h-.479v.443h-4.691v-.467h-.592v-.5h-.558v-.547h-.524v-5.124h.524V316.7h.558v-.49h.592v-.478h3.735v.478h.592v.49h.558v.547Zm-2.436,1.549v-.547h-.479v-.386h-1.2v.386h-.477v.547Z" transform="translate(-3.784 -0.13)" fill="#161615"/>
      <path id="패스_1384" data-name="패스 1384" d="M1404.442,316.81v6.57H1404v.5h-5.307v-.443h-.512v-.49h-.49V322.4h-.444v-2.288h.444v-.547h.49v-.49h.512v-.444h3.291v-.718h-3.711v-.5h-.467v-1.2h.467v-.489h5.147v.5h.5v.58Zm-2.46,3.758h-1.8v.386h-.41v.558h.41v.387h1.8Z" transform="translate(-4.203 -0.13)" fill="#161615"/>
      <path id="패스_1385" data-name="패스 1385" d="M1412.346,323.308v.456h-5.136v-.523h-.524v-.558h-.489v-.627h-.468v-4.1h.468v-.626h.489v-.558h.524v-.524h3.018v-2.4h.489v-.456h1.606v.456h.479v9.462Zm-3.611-1.833h1.561v-2.937h-1.561V319h-.432v2h.432Z" transform="translate(-4.632 -0.012)" fill="#161615"/>
      <path id="패스_1386" data-name="패스 1386" d="M1416.376,313.846h.457v1.617h-.457v.456h-1.719v-.456h-.455v-1.617h.455v-.456h1.719Zm-1.708,9.918v-.456h-.455v-6.285h.455v-.456h1.686v.456h.466v6.285h-.466v.456Z" transform="translate(-5.06 -0.012)" fill="#161615"/>
      <path id="패스_1387" data-name="패스 1387" d="M1417.981,316.252h.456v-.523h1.48v.557h.524v-.557h3.268v.523h.523v.558h.5v.626h.455v6h-.455v.455h-1.641v-.455h-.455v-4.954h-.456v-.49h-1.2v.49h-.466v4.942h-.456v.456h-1.628v-.456h-.456Z" transform="translate(-5.251 -0.13)" fill="#161615"/>
      <path id="패스_1388" data-name="패스 1388" d="M1428.2,322.607v-.444h-.592V321.7h-.558v-.513h-.524v-4.031h.524v-.513h.558v-.467h.592v-.443h4.874v.489h.479v8.188h-.456v.557h-.513v.536h-.524v.443h-4.623V325.5h-.489v-1.276h.489v-.466h3.052v-.468h.547v-.683Zm1.23-4.714v.409h-.41v1.765h.41v.41h1.617v-2.584Z" transform="translate(-5.683 -0.13)" fill="#161615"/>
    </g>
  </g>
</svg>
