<svg xmlns="http://www.w3.org/2000/svg" width="175.422" height="174.491" viewBox="0 0 175.422 174.491">
  <path id="패스_81" data-name="패스 81" d="M859.9,445.659c-11.159-.979-18.013-8.812-18.013-20.557,0-9.788,6.853-19.971,18.013-18.8,41.9,3.916,95.738,3.526,139.2,0,11.354-.979,18.207,9.008,18.207,18.8,0,11.746-6.853,19.578-18.4,20.557-11.748.982-24.277,1.565-37,1.958a49.384,49.384,0,0,1,.783,9.984c0,22.125-7.44,22.712-33.088,22.712s-33.285-.586-33.285-22.712a47.178,47.178,0,0,1,.783-9.788C884.18,447.424,871.452,446.641,859.9,445.659Zm-9.79-66.564c-2.741-14.688-2.545-36.224-.586-49.732,1.955-11.746,6.853-15.859,17.033-17.816,38.177-7.633,87.906-7.633,126.086,0,10.376,1.958,15.073,6.071,16.835,17.816,2.157,13.507,2.351,35.044-.584,49.732-2.154,11.743-5.875,16.445-16.251,17.814-38.766,5.678-87.323,5.678-126.086,0C856.379,395.54,852.463,390.839,850.113,379.1Zm93.783-23.1a3.992,3.992,0,0,0,1.958-5.091,2.975,2.975,0,0,0-4.113-1.762,24.665,24.665,0,0,1-23.887-.2,3.4,3.4,0,0,0-4.5,1.565c-1.175,2.157-.193,3.919,2.547,5.484A30.119,30.119,0,0,0,943.9,355.991Z" transform="translate(-841.891 -305.822)" fill="#ed6c05"/>
</svg>
