<svg xmlns="http://www.w3.org/2000/svg" width="162.614" height="157.366" viewBox="0 0 162.614 157.366">
  <g id="그룹_429" data-name="그룹 429" transform="translate(14089.058 -234.614)">
    <g id="그룹_75" data-name="그룹 75" transform="translate(-14089.058 234.614)">
      <path id="패스_79" data-name="패스 79" d="M1072.817,311.654h0c-.6-26.463-14.444-69.5-24.279-69.5-8.159,0-23.171,7.371-32.21,21.82a90.356,90.356,0,0,0-41.321,0c-9.034-14.449-24.054-21.82-32.21-21.82-9.836,0-23.682,43.035-24.28,69.5a66.515,66.515,0,0,0-4.157,23.11c0,40.413,34.581,47.967,79.737,47.967s82.878-7.554,82.878-47.967A66.518,66.518,0,0,0,1072.817,311.654Z" transform="translate(-914.362 -225.365)" fill="#040506"/>
      <path id="패스_80" data-name="패스 80" d="M954.241,236.537a15.848,15.848,0,0,0-5.311,22.226l.814,1.324.371.608,1.144,1.86c2.815,4.577,2.7,5.927-1.849,8.721l-9.509,5.848,5.079,8.254,9.509-5.848c9.061-5.572,10.581-12.884,4.967-22.014l-1.143-1.863-.375-.6-.814-1.324a6.268,6.268,0,0,1,2.194-8.933,4.845,4.845,0,0,0-5.076-8.254Z" transform="translate(-872.141 -235.828)" fill="#040506"/>
    </g>
    <ellipse id="타원_54" data-name="타원 54" cx="22.845" cy="32.651" rx="22.845" ry="32.651" transform="translate(-14064.332 301.05)" fill="#fff"/>
    <ellipse id="타원_55" data-name="타원 55" cx="18.499" cy="26.44" rx="18.499" ry="26.44" transform="translate(-14058.351 307.261)" fill="#040506"/>
    <ellipse id="타원_56" data-name="타원 56" cx="22.845" cy="32.651" rx="22.845" ry="32.651" transform="translate(-13996.857 301.05)" fill="#fff"/>
    <ellipse id="타원_57" data-name="타원 57" cx="18.499" cy="26.44" rx="18.499" ry="26.44" transform="translate(-13994.148 307.261)" fill="#040506"/>
    <path id="패스_84" data-name="패스 84" d="M942.16,271.615h-6.395a2.51,2.51,0,0,0-2.507,2.507,2.483,2.483,0,0,0,.735,1.772l.22.223a.728.728,0,0,1,.215.517v3.611a1.61,1.61,0,0,0,1.608,1.608h5.853a1.61,1.61,0,0,0,1.607-1.608v-3.611a.737.737,0,0,1,.215-.517l.223-.223a2.507,2.507,0,0,0-1.775-4.279Z" transform="translate(-14972.179 57.951)" fill="#fff"/>
    <path id="패스_85" data-name="패스 85" d="M961.317,271.615h-6.395a2.511,2.511,0,0,0-2.507,2.507,2.483,2.483,0,0,0,.735,1.772l.22.223a.738.738,0,0,1,.215.517v3.611a1.61,1.61,0,0,0,1.608,1.608h5.853a1.61,1.61,0,0,0,1.608-1.608v-3.611a.738.738,0,0,1,.215-.517l.223-.223a2.508,2.508,0,0,0-1.775-4.279Z" transform="translate(-14940.51 57.951)" fill="#fff"/>
  </g>
</svg>
