<svg xmlns="http://www.w3.org/2000/svg" width="20.121" height="20.121" viewBox="0 0 20.121 20.121">
  <path id="패스_796" data-name="패스 796" d="M225.1-1.976l-6.273-5.791a7.578,7.578,0,0,0,1.728-4.83,7.614,7.614,0,0,0-7.614-7.614,7.614,7.614,0,0,0-7.614,7.614,7.614,7.614,0,0,0,7.614,7.614,7.583,7.583,0,0,0,4.272-1.311l6.41,5.917a1.089,1.089,0,0,0,1.537-.062A1.089,1.089,0,0,0,225.1-1.976ZM212.946-7.159a5.437,5.437,0,0,1-5.438-5.438,5.437,5.437,0,0,1,5.438-5.438,5.437,5.437,0,0,1,5.438,5.438A5.437,5.437,0,0,1,212.946-7.159Z" transform="translate(-205.332 20.21)" fill="#ed6c05"/>
</svg>
