<svg xmlns="http://www.w3.org/2000/svg" width="599.653" height="260.994" viewBox="0 0 599.653 260.994">
  <g id="그룹_463" data-name="그룹 463" transform="translate(13042.422 -5322.172)">
    <g id="그룹_456" data-name="그룹 456" transform="translate(-9054.727 4542.629)">
      <g id="그룹_455" data-name="그룹 455" transform="translate(-3655.274 807.137)">
        <path id="패스_959" data-name="패스 959" d="M-3394.875,975.967h0c-.978-43.491-23.735-114.21-39.9-114.21-13.406,0-38.073,12.109-52.928,35.854a148.606,148.606,0,0,0-67.908,0c-14.845-23.745-39.526-35.854-52.93-35.854-16.164,0-38.92,70.721-39.9,114.21a109.261,109.261,0,0,0-6.835,37.975c0,66.412,56.831,78.828,131.034,78.828s136.2-12.417,136.2-78.828A109.277,109.277,0,0,0-3394.875,975.967Z" transform="translate(3655.274 -861.757)" fill="#040506"/>
        <g id="그룹_454" data-name="그룹 454" transform="translate(40.633 81.583)">
          <g id="그룹_452" data-name="그룹 452">
            <ellipse id="타원_124" data-name="타원 124" cx="37.542" cy="53.657" rx="37.542" ry="53.657" fill="#fff"/>
            <ellipse id="타원_125" data-name="타원 125" cx="30.4" cy="43.45" rx="30.4" ry="43.45" transform="translate(9.829 10.207)" fill="#040506"/>
          </g>
          <g id="그룹_453" data-name="그룹 453" transform="translate(110.883)">
            <ellipse id="타원_126" data-name="타원 126" cx="37.542" cy="53.657" rx="37.542" ry="53.657" fill="#fff"/>
            <ellipse id="타원_127" data-name="타원 127" cx="30.4" cy="43.45" rx="30.4" ry="43.45" transform="translate(4.453 10.207)" fill="#040506"/>
          </g>
        </g>
        <path id="패스_960" data-name="패스 960" d="M-3395.162,1244.437h-10.509a4.125,4.125,0,0,0-4.122,4.12,4.1,4.1,0,0,0,1.207,2.914l.364.364a1.209,1.209,0,0,1,.352.85v5.935a2.647,2.647,0,0,0,2.645,2.645h9.616a2.646,2.646,0,0,0,2.644-2.645v-5.935a1.208,1.208,0,0,1,.353-.85l.364-.364a4.094,4.094,0,0,0,1.207-2.914A4.125,4.125,0,0,0-3395.162,1244.437Z" transform="translate(3492.185 -1115.995)" fill="#fff"/>
        <path id="패스_961" data-name="패스 961" d="M-3146.316,1244.437h-10.509a4.125,4.125,0,0,0-4.121,4.12,4.1,4.1,0,0,0,1.207,2.914l.365.364a1.209,1.209,0,0,1,.352.85v5.935a2.647,2.647,0,0,0,2.645,2.645h9.616a2.646,2.646,0,0,0,2.644-2.645v-5.935a1.207,1.207,0,0,1,.353-.85l.363-.364a4.092,4.092,0,0,0,1.207-2.914A4.125,4.125,0,0,0-3146.316,1244.437Z" transform="translate(3326.862 -1115.995)" fill="#fff"/>
      </g>
      <path id="패스_962" data-name="패스 962" d="M-3299.939,780.708c-12.794,7.868-16.654,23.637-8.728,36.526l1.338,2.177.612,1,1.88,3.057c4.626,7.522,4.428,9.741-3.039,14.332l-15.628,9.61,8.342,13.565,15.627-9.61c14.893-9.158,17.389-21.175,8.162-36.179l-1.88-3.057-.612-1-1.338-2.177c-3.274-5.325-1.681-11.43,3.6-14.68a7.933,7.933,0,0,0,2.562-10.923A7.933,7.933,0,0,0-3299.939,780.708Z" transform="translate(-220.416 0)" fill="#040506"/>
    </g>
    <g id="그룹_462" data-name="그룹 462" transform="translate(-8483.632 4443.261)">
      <g id="그룹_460" data-name="그룹 460" transform="translate(-4557.957 925.04)">
        <path id="패스_963" data-name="패스 963" d="M-4275.726,1024.54h0c49.343-153.5-99.086-83.637-99.086-83.637a158.622,158.622,0,0,0-72.486,0h0s-148.43-69.859-99.086,83.638h0a116.626,116.626,0,0,0-7.3,40.536c0,70.889,63.419,74.829,142.625,74.829s142.625-3.94,142.625-74.829a116.649,116.649,0,0,0-7.3-40.536Z" transform="translate(4556.434 -925.04)" fill="#eb8439"/>
        <g id="그룹_458" data-name="그룹 458" transform="translate(46.125 58.818)">
          <ellipse id="타원_128" data-name="타원 128" cx="40.073" cy="57.274" rx="40.073" ry="57.274" fill="#fff"/>
          <ellipse id="타원_129" data-name="타원 129" cx="32.45" cy="46.379" rx="32.45" ry="46.379" transform="translate(10.492 10.895)" fill="#040506"/>
          <path id="패스_964" data-name="패스 964" d="M-4284.842,1232.632h-11.216a4.4,4.4,0,0,0-4.4,4.4,4.369,4.369,0,0,0,1.289,3.11l.389.389a1.289,1.289,0,0,1,.375.908v6.335a2.825,2.825,0,0,0,2.823,2.823h10.264a2.825,2.825,0,0,0,2.823-2.823v-6.335a1.287,1.287,0,0,1,.377-.908l.388-.389a4.37,4.37,0,0,0,1.288-3.11A4.4,4.4,0,0,0-4284.842,1232.632Z" transform="translate(4344.906 -1182.613)" fill="#fff"/>
          <g id="그룹_457" data-name="그룹 457" transform="translate(118.359)">
            <path id="패스_965" data-name="패스 965" d="M40.073,0C62.2,0,80.146,25.643,80.146,57.274S62.2,114.548,40.073,114.548,0,88.906,0,57.274,17.941,0,40.073,0Z" fill="#fff"/>
            <ellipse id="타원_130" data-name="타원 130" cx="32.45" cy="46.379" rx="32.45" ry="46.379" transform="translate(4.754 10.895)" fill="#040506"/>
            <path id="패스_966" data-name="패스 966" d="M-4032.515,1232.632h-11.217a4.4,4.4,0,0,0-4.4,4.4,4.369,4.369,0,0,0,1.288,3.11l.389.389a1.29,1.29,0,0,1,.376.908v6.335a2.825,2.825,0,0,0,2.822,2.823h10.265a2.826,2.826,0,0,0,2.823-2.823v-6.335a1.286,1.286,0,0,1,.376-.908l.388-.389a4.369,4.369,0,0,0,1.288-3.11A4.4,4.4,0,0,0-4032.515,1232.632Z" transform="translate(4063.502 -1182.613)" fill="#fff"/>
          </g>
        </g>
        <g id="그룹_459" data-name="그룹 459" transform="translate(122.49 11.551)">
          <path id="패스_967" data-name="패스 967" d="M-4210.254,973.174c0,11.319,2.4,20.5,5.368,20.5s5.367-9.176,5.367-20.5a62,62,0,0,0-1.372-13.652c-2.968.259-5.707.577-8.2.915A64.3,64.3,0,0,0-4210.254,973.174Z" transform="translate(4210.254 -958.872)" fill="#fff"/>
          <path id="패스_968" data-name="패스 968" d="M-4159.232,957.767a60.515,60.515,0,0,0-1.508,14.221c0,11.319,2.4,20.5,5.368,20.5s5.368-9.176,5.368-20.5a60.436,60.436,0,0,0-1.522-14.282C-4154.177,957.663-4156.749,957.689-4159.232,957.767Z" transform="translate(4178.26 -957.685)" fill="#fff"/>
          <path id="패스_969" data-name="패스 969" d="M-4109.814,959.051a61.472,61.472,0,0,0-1.413,13.819c0,11.319,2.4,20.5,5.368,20.5s5.368-9.176,5.368-20.5a63.9,63.9,0,0,0-1.206-12.934C-4104.438,959.556-4107.149,959.264-4109.814,959.051Z" transform="translate(4146.266 -958.568)" fill="#fff"/>
        </g>
      </g>
      <path id="패스_970" data-name="패스 970" d="M-3868.872,1401.233h-3.372a1.324,1.324,0,0,0-1.322,1.322,1.313,1.313,0,0,0,.387.935l.117.117a.386.386,0,0,1,.113.272v1.9a.849.849,0,0,0,.849.849h3.085a.849.849,0,0,0,.848-.849v-1.9a.387.387,0,0,1,.113-.272l.117-.117a1.314,1.314,0,0,0,.387-.935A1.323,1.323,0,0,0-3868.872,1401.233Z" transform="translate(-442.769 -307.7)" fill="#fff"/>
      <g id="그룹_461" data-name="그룹 461" transform="translate(-4558.79 929.225)">
        <path id="패스_971" data-name="패스 971" d="M-4547.908,1032.183s34.941-97.308,12.476-95.283S-4568.174,975.144-4547.908,1032.183Z" transform="translate(4558.79 -936.869)" fill="#fff"/>
        <path id="패스_972" data-name="패스 972" d="M-3799.644,1032.183s-34.94-97.308-12.475-95.283S-3779.378,975.144-3799.644,1032.183Z" transform="translate(4081.184 -936.869)" fill="#fff"/>
      </g>
    </g>
  </g>
</svg>
