<svg xmlns="http://www.w3.org/2000/svg" xmlns:xlink="http://www.w3.org/1999/xlink" width="1920" height="1150" viewBox="0 0 1920 1150">
  <defs>
    <clipPath id="clip-path">
      <rect id="사각형_516" data-name="사각형 516" width="1920" height="1150" transform="translate(-13111 6634.741)" fill="#fbf8f4"/>
    </clipPath>
  </defs>
  <g id="마스크_그룹_39" data-name="마스크 그룹 39" transform="translate(13111 -6634.741)" clip-path="url(#clip-path)">
    <path id="패스_1064" data-name="패스 1064" d="M0,0H1920V1150H0Z" transform="translate(-13111 6634.741)" fill="rgba(251,248,244,0)" opacity="0"/>
    <g id="그룹_396" data-name="그룹 396" transform="translate(-13904.986 7365.354)">
      <g id="그룹_390" data-name="그룹 390" transform="translate(10.071)">
        <g id="그룹_379" data-name="그룹 379">
          <g id="그룹_378" data-name="그룹 378">
            <path id="패스_952" data-name="패스 952" d="M-1351.665,617.012v737.37H534.307V891.907c-18.347-8.174-41.518-18.276-68.866-29.879-.485-.183-1-.394-1.48-.605-23.278-9.838-49.521-20.728-78.377-32.359-.51-.211-1.05-.422-1.588-.633q-14.39-5.814-29.611-11.841c-.728-.264-1.428-.553-2.155-.844q-21.014-8.307-43.566-16.983c-.485-.184-.97-.369-1.455-.58q-23.52-9.019-48.524-18.354-24.974-9.3-51.324-18.83c-.863-.289-1.7-.605-2.56-.922-29.959-10.787-61.186-21.7-93.437-32.6q-14.428-4.865-29.124-9.733c-250.672-82.884-558.516-161.364-833.089-165.057q-54.033-.712-104.456.447c-52.294,1.187-101.68,3.773-148.209,7.463C-1145.744,571.865-1261.3,593.462-1351.665,617.012Z" transform="translate(1351.665 -552.425)" fill="#6eac51"/>
            <path id="패스_953" data-name="패스 953" d="M-1116.3,553.14c325.519,40.217,635.681,168.935,915.747,337.211,8.811,5.3,18.86,10.865,28.911,8.493,5.038-1.187,9.374-4.247,13.552-7.253Q-80.215,835.736-2.311,779.83c-54.262-20.229-113.562-41.3-176.445-62.08-250.672-82.884-558.516-161.364-833.089-165.057Q-1065.877,551.981-1116.3,553.14Z" transform="translate(1612.661 -552.425)" fill="#c0dfa1" opacity="0.27" style="mix-blend-mode: screen;isolation: isolate"/>
          </g>
          <path id="패스_954" data-name="패스 954" d="M-1351.665,612.712v345.1a811.7,811.7,0,0,0,382.394,40.8c130.349-17.615,255.98-67.748,361.811-144.253C-658.894,801.03-711.943,749.13-769.734,702.532A1167.588,1167.588,0,0,0-1003.513,556.3C-1145.744,567.565-1261.3,589.162-1351.665,612.712Z" transform="translate(1351.665 -548.124)" fill="#c0dfa1" opacity="0.34" style="mix-blend-mode: multiply;isolation: isolate"/>
        </g>
        <g id="그룹_389" data-name="그룹 389" transform="translate(15.391 26.793)">
          <g id="그룹_385" data-name="그룹 385">
            <g id="그룹_380" data-name="그룹 380" transform="translate(416.335 81.597)" opacity="0.59" style="mix-blend-mode: multiply;isolation: isolate">
              <path id="패스_955" data-name="패스 955" d="M-1119.472,605.862c1.839.677,3.87,1.978,3.324,3.5-.42,1.166-2.147,1.7-3.682,1.9-5.462.728-11.028-.578-16.158-2.21-1.13-.359-2.373-.829-2.763-1.731C-1141.508,600.976-1121.729,605.029-1119.472,605.862Z" transform="translate(1155.746 -603.821)" fill="#c0dfa1"/>
              <path id="패스_956" data-name="패스 956" d="M-1104.069,613.486c1.839.677,3.868,1.978,3.322,3.5-.418,1.166-2.145,1.7-3.68,1.9-5.464.727-11.027-.578-16.158-2.208-1.133-.361-2.373-.831-2.763-1.732C-1126.1,608.6-1106.328,612.653-1104.069,613.486Z" transform="translate(1172.827 -595.365)" fill="#c0dfa1"/>
              <path id="패스_957" data-name="패스 957" d="M-1127.406,613.486c1.837.677,3.868,1.978,3.321,3.5-.417,1.166-2.145,1.7-3.68,1.9-5.464.727-11.027-.578-16.158-2.208-1.132-.361-2.373-.831-2.762-1.732C-1149.442,608.6-1129.665,612.653-1127.406,613.486Z" transform="translate(1146.948 -595.365)" fill="#c0e270"/>
            </g>
            <g id="그룹_381" data-name="그룹 381" transform="translate(663.218 89.662)" opacity="0.59" style="mix-blend-mode: multiply;isolation: isolate">
              <path id="패스_958" data-name="패스 958" d="M-1010.477,608.669c1.341.424,2.841,1.287,2.5,2.4-.26.85-1.479,1.289-2.571,1.487-3.887.7-7.919-.044-11.652-1.04-.823-.219-1.727-.515-2.039-1.147C-1026.433,605.909-1012.124,608.148-1010.477,608.669Z" transform="translate(1035.888 -607.646)" fill="#c0dfa1"/>
              <path id="패스_959" data-name="패스 959" d="M-999.177,613.614c1.341.422,2.841,1.286,2.5,2.4-.26.852-1.476,1.291-2.571,1.489-3.887.7-7.919-.044-11.652-1.04-.823-.219-1.727-.514-2.039-1.147C-1015.131,610.854-1000.824,613.093-999.177,613.614Z" transform="translate(1048.418 -602.162)" fill="#c0dfa1"/>
              <path id="패스_960" data-name="패스 960" d="M-1015.892,614.4c1.339.424,2.839,1.288,2.5,2.4-.257.85-1.476,1.291-2.569,1.489-3.889.7-7.919-.044-11.652-1.04-.822-.219-1.729-.517-2.041-1.147C-1031.848,611.638-1017.54,613.877-1015.892,614.4Z" transform="translate(1029.881 -601.293)" fill="#c0e270"/>
            </g>
            <g id="그룹_382" data-name="그룹 382" transform="translate(754.824)" opacity="0.59" style="mix-blend-mode: multiply;isolation: isolate">
              <path id="패스_961" data-name="패스 961" d="M-967.04,566.153c1.341.422,2.841,1.286,2.5,2.4-.26.852-1.479,1.291-2.571,1.489-3.887.7-7.919-.044-11.652-1.04-.822-.219-1.727-.515-2.039-1.147C-983,563.393-968.687,565.632-967.04,566.153Z" transform="translate(992.449 -565.13)" fill="#c0dfa1"/>
              <path id="패스_962" data-name="패스 962" d="M-955.74,571.1c1.341.424,2.841,1.286,2.5,2.4-.259.85-1.476,1.291-2.571,1.489-3.887.7-7.919-.044-11.652-1.04-.823-.219-1.727-.517-2.039-1.147C-971.694,568.338-957.385,570.577-955.74,571.1Z" transform="translate(1004.98 -559.646)" fill="#c0dfa1"/>
              <path id="패스_963" data-name="패스 963" d="M-972.456,571.881c1.339.424,2.838,1.286,2.5,2.4-.257.85-1.476,1.289-2.569,1.487-3.889.706-7.919-.042-11.652-1.04-.823-.219-1.729-.515-2.039-1.147C-988.412,569.122-974.1,571.36-972.456,571.881Z" transform="translate(986.443 -558.777)" fill="#c0dfa1"/>
            </g>
            <g id="그룹_383" data-name="그룹 383" transform="translate(276.233 218.728)" opacity="0.59" style="mix-blend-mode: multiply;isolation: isolate">
              <path id="패스_964" data-name="패스 964" d="M-1185.905,670.887c1.839.677,3.868,1.978,3.324,3.5-.42,1.166-2.147,1.7-3.682,1.9-5.462.728-11.028-.58-16.158-2.21-1.13-.359-2.373-.831-2.763-1.732C-1207.941,666-1188.164,670.054-1185.905,670.887Z" transform="translate(1222.181 -668.846)" fill="#c0dfa1"/>
              <path id="패스_965" data-name="패스 965" d="M-1170.5,678.512c1.837.677,3.868,1.978,3.321,3.5-.417,1.168-2.145,1.7-3.68,1.906-5.464.728-11.027-.578-16.158-2.208-1.133-.361-2.373-.831-2.763-1.734C-1192.538,673.626-1172.761,677.679-1170.5,678.512Z" transform="translate(1239.262 -660.391)" fill="#c0dfa1"/>
              <path id="패스_966" data-name="패스 966" d="M-1193.84,678.512c1.839.677,3.87,1.978,3.323,3.5-.42,1.168-2.145,1.7-3.68,1.906-5.464.728-11.028-.578-16.158-2.208-1.132-.361-2.373-.831-2.765-1.734C-1215.874,673.626-1196.1,677.679-1193.84,678.512Z" transform="translate(1213.383 -660.391)" fill="#c0dfa1"/>
            </g>
            <g id="그룹_384" data-name="그룹 384" transform="translate(228.724 22.075)" opacity="0.59" style="mix-blend-mode: multiply;isolation: isolate">
              <path id="패스_967" data-name="패스 967" d="M-1217.227,576.067c1.354.325,2.9,1.073,2.645,2.193-.194.856-1.365,1.375-2.429,1.647-3.788.966-7.822.508-11.578-.217a3.063,3.063,0,0,1-2.1-.991C-1233.179,574.452-1218.891,575.669-1217.227,576.067Z" transform="translate(1241.378 -575.597)" fill="#c0dfa1"/>
              <path id="패스_968" data-name="패스 968" d="M-1205.712,580.163c1.354.325,2.9,1.073,2.645,2.193-.194.858-1.365,1.377-2.429,1.647-3.788.966-7.822.508-11.578-.215a3.082,3.082,0,0,1-2.1-.991C-1221.664,578.548-1207.376,579.764-1205.712,580.163Z" transform="translate(1254.147 -571.055)" fill="#c0dfa1"/>
              <path id="패스_969" data-name="패스 969" d="M-1222.16,582.1c1.354.325,2.9,1.073,2.645,2.193-.194.856-1.364,1.375-2.429,1.647-3.785.966-7.82.506-11.578-.217a3.055,3.055,0,0,1-2.1-.991C-1238.112,580.484-1223.822,581.7-1222.16,582.1Z" transform="translate(1235.91 -568.908)" fill="#c0dfa1"/>
            </g>
            <path id="패스_970" data-name="패스 970" d="M-1283.984,617.92c1.354.325,2.9,1.071,2.644,2.191-.194.858-1.364,1.377-2.429,1.649-3.788.966-7.822.506-11.578-.217-.829-.16-1.744-.388-2.1-.991C-1299.937,616.3-1285.648,617.519-1283.984,617.92Z" transform="translate(1396.075 -507.113)" fill="#c0dfa1" opacity="0.44" style="mix-blend-mode: multiply;isolation: isolate"/>
            <path id="패스_971" data-name="패스 971" d="M-827.895,611.666c1.354.325,2.9,1.073,2.644,2.193-.194.859-1.364,1.377-2.429,1.647-3.788.966-7.822.508-11.578-.215a3.082,3.082,0,0,1-2.1-.991C-843.847,610.051-829.559,611.267-827.895,611.666Z" transform="translate(1901.832 -514.046)" fill="#c0dfa1" opacity="0.44" style="mix-blend-mode: multiply;isolation: isolate"/>
            <path id="패스_972" data-name="패스 972" d="M-1330.615,594.785c1.354.325,2.9,1.073,2.644,2.193-.194.856-1.365,1.375-2.429,1.647-3.788.966-7.822.506-11.578-.217-.829-.16-1.744-.388-2.1-.991C-1346.567,593.17-1332.279,594.387-1330.615,594.785Z" transform="translate(1344.367 -532.766)" fill="#c0dfa1" opacity="0.44" style="mix-blend-mode: multiply;isolation: isolate"/>
            <path id="패스_973" data-name="패스 973" d="M-1271.847,652.307c1.354.325,2.9,1.073,2.643,2.193-.192.856-1.365,1.375-2.427,1.647-3.788.966-7.822.506-11.58-.217a3.063,3.063,0,0,1-2.1-.991C-1287.8,650.692-1273.51,651.908-1271.847,652.307Z" transform="translate(1409.534 -468.98)" fill="#c0dfa1" opacity="0.44" style="mix-blend-mode: multiply;isolation: isolate"/>
          </g>
          <g id="그룹_386" data-name="그룹 386" transform="translate(266.792 113.59)">
            <path id="패스_974" data-name="패스 974" d="M-1177.733,628.505a4.239,4.239,0,0,1,1.786,1.312,1.64,1.64,0,0,1-.046,2.043,2.539,2.539,0,0,1-1.578.54,57.288,57.288,0,0,1-7.982.234,9.444,9.444,0,0,1,.983,4.941,2.438,2.438,0,0,1-.462,1.423,2.425,2.425,0,0,1-1.938.643c-3.418-.074-6.2-2.577-8.64-4.926a8.024,8.024,0,0,1-3.573,4.321,5.571,5.571,0,0,1-5.523-.057,4,4,0,0,1-1.533-4.973,12.522,12.522,0,0,1-10.2-.725,2.9,2.9,0,0,1-1.208-1.029c-.8-1.419.806-2.974,2.263-3.741a32.7,32.7,0,0,1,5.289-2.221,2.8,2.8,0,0,1-1.4-3.762,5.234,5.234,0,0,1,3.551-2.619,9.41,9.41,0,0,1,8.771,2.259c.614-2.68,4.224-3.84,6.82-2.794,3.051,1.225,3.631,4.14,5.841,6.107C-1184.279,627.47-1180.437,627.24-1177.733,628.505Z" transform="translate(1217.859 -618.992)" fill="#fff"/>
            <path id="패스_975" data-name="패스 975" d="M-1200.04,623.436c.656.2,1.417.59,1.428,1.263s-.77,1.095-1.434,1.32a19.522,19.522,0,0,1-9.258,1.111,3.546,3.546,0,0,1-1.341-.432,1.391,1.391,0,0,1-.7-1.145,1.964,1.964,0,0,1,.321-.9c1.084-1.911,2.373-1.961,4.412-2.054A19.3,19.3,0,0,1-1200.04,623.436Z" transform="translate(1225.083 -615.015)" fill="#e7a328"/>
          </g>
          <g id="그룹_387" data-name="그룹 387" transform="translate(572.02 164.964)">
            <path id="패스_976" data-name="패스 976" d="M-1033,652.865a4.291,4.291,0,0,1,1.786,1.312,1.642,1.642,0,0,1-.046,2.043,2.539,2.539,0,0,1-1.578.54,57.027,57.027,0,0,1-7.984.234,9.429,9.429,0,0,1,.985,4.941,2.432,2.432,0,0,1-.462,1.423,2.436,2.436,0,0,1-1.938.645c-3.418-.076-6.206-2.577-8.64-4.926a8.037,8.037,0,0,1-3.575,4.321,5.568,5.568,0,0,1-5.521-.057,4,4,0,0,1-1.533-4.975,12.518,12.518,0,0,1-10.2-.725,2.911,2.911,0,0,1-1.208-1.029c-.8-1.419.808-2.971,2.265-3.741a32.665,32.665,0,0,1,5.287-2.221,2.8,2.8,0,0,1-1.4-3.76,5.232,5.232,0,0,1,3.554-2.621,9.4,9.4,0,0,1,8.769,2.259c.616-2.68,4.226-3.838,6.822-2.794,3.052,1.227,3.632,4.14,5.84,6.109C-1039.545,651.829-1035.7,651.6-1033,652.865Z" transform="translate(1073.125 -643.352)" fill="#fff"/>
            <path id="패스_977" data-name="패스 977" d="M-1055.305,647.8c.656.2,1.415.591,1.428,1.263.01.69-.77,1.095-1.434,1.32a19.5,19.5,0,0,1-9.258,1.111,3.51,3.51,0,0,1-1.341-.432,1.4,1.4,0,0,1-.7-1.143,1.981,1.981,0,0,1,.323-.9c1.084-1.911,2.373-1.961,4.41-2.054A19.357,19.357,0,0,1-1055.305,647.8Z" transform="translate(1080.349 -639.375)" fill="#e7a328"/>
          </g>
          <g id="그룹_388" data-name="그룹 388" transform="translate(697.117 42.519)">
            <path id="패스_978" data-name="패스 978" d="M-973.681,594.8a4.266,4.266,0,0,1,1.789,1.312,1.643,1.643,0,0,1-.046,2.044,2.55,2.55,0,0,1-1.58.54,56.991,56.991,0,0,1-7.982.234,9.467,9.467,0,0,1,.985,4.941,2.447,2.447,0,0,1-.462,1.423,2.44,2.44,0,0,1-1.94.645c-3.418-.076-6.2-2.577-8.64-4.926a8.03,8.03,0,0,1-3.573,4.321,5.571,5.571,0,0,1-5.523-.057,4.006,4.006,0,0,1-1.531-4.975,12.518,12.518,0,0,1-10.2-.725,2.9,2.9,0,0,1-1.208-1.029c-.8-1.419.806-2.974,2.263-3.741a32.686,32.686,0,0,1,5.289-2.221,2.8,2.8,0,0,1-1.4-3.76,5.231,5.231,0,0,1,3.553-2.621,9.407,9.407,0,0,1,8.769,2.259c.614-2.68,4.224-3.838,6.822-2.794,3.05,1.227,3.629,4.14,5.84,6.109C-980.227,593.768-976.385,593.538-973.681,594.8Z" transform="translate(1013.807 -585.291)" fill="#fff"/>
            <path id="패스_979" data-name="패스 979" d="M-995.988,589.734c.656.2,1.417.591,1.428,1.263s-.768,1.094-1.434,1.32a19.493,19.493,0,0,1-9.258,1.111,3.52,3.52,0,0,1-1.341-.432,1.387,1.387,0,0,1-.7-1.143,1.98,1.98,0,0,1,.32-.9c1.084-1.911,2.373-1.961,4.412-2.054A19.4,19.4,0,0,1-995.988,589.734Z" transform="translate(1021.031 -581.314)" fill="#e7a328"/>
          </g>
          <path id="패스_980" data-name="패스 980" d="M-1154.567,648.446c0,2.044,3.851,3.7,8.6,3.7s8.6-1.658,8.6-3.7-3.851-3.705-8.6-3.705S-1154.567,646.4-1154.567,648.446Z" transform="translate(1554.835 -476.849)" fill="#fff"/>
          <path id="패스_981" data-name="패스 981" d="M-1154.567,587.41c0,2.046,3.851,3.7,8.6,3.7s8.6-1.658,8.6-3.7-3.851-3.7-8.6-3.7S-1154.567,585.367-1154.567,587.41Z" transform="translate(1554.835 -544.529)" fill="#fff"/>
          <path id="패스_982" data-name="패스 982" d="M-1273.027,638.441c0,2.043,3.851,3.7,8.6,3.7s8.6-1.66,8.6-3.7-3.851-3.7-8.6-3.7S-1273.027,636.4-1273.027,638.441Z" transform="translate(1423.475 -487.941)" fill="#fff"/>
          <path id="패스_983" data-name="패스 983" d="M-802.45,618.273c0,2.046,3.851,3.7,8.6,3.7s8.6-1.657,8.6-3.7-3.849-3.7-8.6-3.7S-802.45,616.23-802.45,618.273Z" transform="translate(1945.297 -510.305)" fill="#fff"/>
          <path id="패스_984" data-name="패스 984" d="M-802.45,618.273c0,2.046,3.851,3.7,8.6,3.7s8.6-1.657,8.6-3.7-3.849-3.7-8.6-3.7S-802.45,616.23-802.45,618.273Z" transform="translate(1788.297 -547.305)" fill="#fff"/>
          <path id="패스_985" data-name="패스 985" d="M-802.45,618.273c0,2.046,3.851,3.7,8.6,3.7s8.6-1.657,8.6-3.7-3.849-3.7-8.6-3.7S-802.45,616.23-802.45,618.273Z" transform="translate(1788.297 -297.305)" fill="#fff"/>
        </g>
      </g>
      <g id="그룹_392" data-name="그룹 392" transform="translate(594.348 351.965)" opacity="0.59" style="mix-blend-mode: multiply;isolation: isolate">
        <path id="패스_986" data-name="패스 986" d="M-1037.5,721.72c2.164.8,4.553,2.328,3.91,4.121-.491,1.375-2.524,2-4.332,2.242-6.428.856-12.976-.679-19.014-2.6-1.331-.424-2.792-.979-3.252-2.037C-1063.432,715.971-1040.16,720.741-1037.5,721.72Z" transform="translate(1080.19 -719.32)" fill="#94af3f"/>
        <path id="패스_987" data-name="패스 987" d="M-1019.378,730.693c2.164.8,4.553,2.328,3.91,4.121-.493,1.375-2.524,2-4.332,2.242-6.428.856-12.976-.681-19.014-2.6-1.331-.424-2.792-.979-3.252-2.037C-1045.309,724.944-1022.035,729.714-1019.378,730.693Z" transform="translate(1100.289 -709.37)" fill="#94af3f"/>
        <g id="그룹_391" data-name="그룹 391" transform="translate(0 18.923)">
          <path id="패스_988" data-name="패스 988" d="M-1046.84,730.693c2.164.8,4.553,2.328,3.91,4.121-.494,1.375-2.524,2-4.332,2.242-6.428.856-12.976-.681-19.014-2.6-1.331-.424-2.792-.979-3.252-2.037C-1072.769,724.944-1049.5,729.714-1046.84,730.693Z" transform="translate(1069.836 -728.293)" fill="#94af3f"/>
        </g>
      </g>
      <g id="그룹_393" data-name="그룹 393" transform="translate(429.485 513.333)" opacity="0.59" style="mix-blend-mode: multiply;isolation: isolate">
        <path id="패스_989" data-name="패스 989" d="M-1115.678,798.238c2.164.8,4.553,2.328,3.91,4.121-.491,1.375-2.524,2-4.332,2.242-6.428.856-12.976-.681-19.014-2.6-1.331-.424-2.792-.979-3.252-2.037C-1141.607,792.489-1118.335,797.259-1115.678,798.238Z" transform="translate(1158.365 -795.838)" fill="#94af3f"/>
        <path id="패스_990" data-name="패스 990" d="M-1097.553,807.211c2.164.8,4.553,2.326,3.91,4.121-.491,1.373-2.524,2-4.332,2.242-6.428.856-12.976-.681-19.014-2.6-1.331-.422-2.792-.976-3.252-2.037C-1123.482,801.463-1100.21,806.231-1097.553,807.211Z" transform="translate(1178.464 -785.888)" fill="#94af3f"/>
        <path id="패스_991" data-name="패스 991" d="M-1125.015,807.211c2.164.8,4.553,2.326,3.91,4.121-.491,1.373-2.524,2-4.332,2.242-6.428.856-12.976-.681-19.014-2.6-1.331-.422-2.792-.976-3.252-2.037C-1150.944,801.463-1127.672,806.231-1125.015,807.211Z" transform="translate(1148.011 -785.888)" fill="#94af3f"/>
      </g>
      <g id="그룹_394" data-name="그룹 394" transform="translate(373.578 281.922)" opacity="0.59" style="mix-blend-mode: multiply;isolation: isolate">
        <path id="패스_992" data-name="패스 992" d="M-1152.537,686.659c1.594.384,3.41,1.263,3.113,2.581-.228,1.008-1.6,1.62-2.857,1.938-4.456,1.137-9.205.6-13.626-.255a3.612,3.612,0,0,1-2.468-1.166C-1171.308,684.759-1154.494,686.191-1152.537,686.659Z" transform="translate(1180.957 -686.107)" fill="#94af3f"/>
        <path id="패스_993" data-name="패스 993" d="M-1138.987,691.479c1.594.384,3.41,1.263,3.113,2.581-.228,1.01-1.6,1.62-2.857,1.94-4.458,1.137-9.205.595-13.625-.255a3.611,3.611,0,0,1-2.468-1.166C-1157.758,689.579-1140.944,691.011-1138.987,691.479Z" transform="translate(1195.982 -680.762)" fill="#94af3f"/>
        <path id="패스_994" data-name="패스 994" d="M-1158.339,693.757c1.594.382,3.41,1.263,3.113,2.581-.23,1.008-1.607,1.62-2.86,1.938-4.456,1.137-9.2.6-13.625-.255a3.612,3.612,0,0,1-2.468-1.166C-1177.11,691.857-1160.3,693.289-1158.339,693.757Z" transform="translate(1174.521 -678.236)" fill="#94af3f"/>
      </g>
      <path id="패스_995" data-name="패스 995" d="M-694.391,728.55c1.594.384,3.408,1.263,3.111,2.581-.228,1.01-1.6,1.62-2.858,1.938-4.456,1.137-9.2.6-13.626-.253a3.612,3.612,0,0,1-2.467-1.166C-713.162,726.65-696.348,728.082-694.391,728.55Z" transform="translate(2062.57 -357.732)" fill="#94af3f" opacity="0.44" style="mix-blend-mode: multiply;isolation: isolate"/>
      <g id="그룹_395" data-name="그룹 395" transform="translate(418.374 389.612)">
        <path id="패스_996" data-name="패스 996" d="M-1106.06,748.367a5.019,5.019,0,0,1,2.1,1.544,1.934,1.934,0,0,1-.055,2.4,3,3,0,0,1-1.858.635,66.835,66.835,0,0,1-9.393.276,11.089,11.089,0,0,1,1.158,5.814,2.852,2.852,0,0,1-.544,1.674,2.87,2.87,0,0,1-2.282.759c-4.022-.089-7.3-3.033-10.167-5.8a9.444,9.444,0,0,1-4.2,5.085,6.555,6.555,0,0,1-6.5-.068,4.711,4.711,0,0,1-1.8-5.852,14.751,14.751,0,0,1-12-.852,3.428,3.428,0,0,1-1.421-1.213c-.941-1.67.949-3.5,2.664-4.4a38.26,38.26,0,0,1,6.223-2.611c-1.71-.563-2.373-2.811-1.645-4.427a6.164,6.164,0,0,1,4.18-3.085,11.073,11.073,0,0,1,10.321,2.659c.721-3.155,4.97-4.519,8.026-3.29,3.591,1.445,4.272,4.871,6.873,7.189C-1113.764,747.148-1109.242,746.878-1106.06,748.367Z" transform="translate(1153.28 -737.171)" fill="#fff"/>
        <path id="패스_997" data-name="패스 997" d="M-1132.31,742.4c.77.238,1.666.694,1.679,1.487.012.81-.9,1.288-1.687,1.554a22.967,22.967,0,0,1-10.895,1.307,4.166,4.166,0,0,1-1.578-.508,1.634,1.634,0,0,1-.823-1.348,2.318,2.318,0,0,1,.378-1.059c1.276-2.25,2.792-2.309,5.192-2.419A22.79,22.79,0,0,1-1132.31,742.4Z" transform="translate(1161.781 -732.491)" fill="#e7a328"/>
      </g>
      <path id="패스_998" data-name="패스 998" d="M-1078.8,771.831c0,2.406,4.53,4.357,10.118,4.357s10.119-1.951,10.119-4.357-4.53-4.359-10.119-4.359S-1078.8,769.423-1078.8,771.831Z" transform="translate(1654.243 -313.959)" fill="#fff"/>
      <path id="패스_999" data-name="패스 999" d="M-763.969,836.905c0,2.406,4.53,4.359,10.118,4.359s10.119-1.953,10.119-4.359-4.53-4.357-10.119-4.357S-763.969,834.5-763.969,836.905Z" transform="translate(2003.36 -241.797)" fill="#fff"/>
      <path id="패스_1000" data-name="패스 1000" d="M-1078.8,700.008c0,2.406,4.53,4.359,10.118,4.359s10.119-1.953,10.119-4.359-4.53-4.357-10.119-4.357S-1078.8,697.6-1078.8,700.008Z" transform="translate(1654.243 -393.601)" fill="#fff"/>
      <path id="패스_1001" data-name="패스 1001" d="M-748.959,760.059c0,2.406,4.532,4.357,10.119,4.357s10.119-1.951,10.119-4.357-4.53-4.359-10.119-4.359S-748.959,757.651-748.959,760.059Z" transform="translate(2020.004 -327.013)" fill="#fff"/>
      <path id="패스_1002" data-name="패스 1002" d="M-803.673,670.616c0,2.406,4.53,4.357,10.118,4.357s10.118-1.951,10.118-4.357-4.53-4.359-10.118-4.359S-803.673,668.21-803.673,670.616Z" transform="translate(1959.332 -426.196)" fill="#fff"/>
      <path id="패스_1003" data-name="패스 1003" d="M-803.673,670.616c0,2.406,4.53,4.357,10.118,4.357s10.118-1.951,10.118-4.357-4.53-4.359-10.118-4.359S-803.673,668.21-803.673,670.616Z" transform="translate(2140.332 -413.196)" fill="#fff"/>
    </g>
    <g id="그룹_421" data-name="그룹 421" transform="translate(-12323.548 7491.72)">
      <g id="그룹_416" data-name="그룹 416" transform="translate(0 6)">
        <g id="그룹_398" data-name="그룹 398">
          <g id="그룹_397" data-name="그룹 397">
            <path id="패스_1004" data-name="패스 1004" d="M1535.413,905.794v504.99H243.793V1094.058c12.567-5.6,28.434-12.516,47.163-20.463.331-.126.681-.272,1.014-.415,15.941-6.738,33.913-14.2,53.676-22.16.35-.146.719-.289,1.088-.434q9.854-3.983,20.279-8.109c.5-.181.979-.38,1.476-.578q14.393-5.691,29.837-11.631c.331-.126.664-.253,1-.4q16.108-6.175,33.232-12.569,17.1-6.368,35.151-12.9c.59-.2,1.162-.416,1.753-.633,20.518-7.385,41.9-14.864,63.99-22.323q9.882-3.331,19.946-6.664c171.675-56.763,382.5-110.513,570.545-113.041q37-.487,71.538.308c35.813.812,69.636,2.581,101.5,5.11C1394.386,874.874,1473.525,889.665,1535.413,905.794Z" transform="translate(-243.793 -861.56)" fill="#6eac51"/>
            <path id="패스_1005" data-name="패스 1005" d="M1096.223,862.052c-222.934,27.542-435.35,115.7-627.157,230.939-6.034,3.632-12.915,7.442-19.8,5.816-3.45-.812-6.419-2.908-9.281-4.967q-53.334-38.251-106.687-76.54c37.161-13.853,77.774-28.282,120.84-42.515,171.675-56.763,382.5-110.513,570.545-113.041Q1061.69,861.256,1096.223,862.052Z" transform="translate(-144.539 -861.56)" fill="#c0dfa1" opacity="0.27" style="mix-blend-mode: screen;isolation: isolate"/>
          </g>
          <path id="패스_1006" data-name="패스 1006" d="M1124.251,902.849v236.34a551.193,551.193,0,0,1-509.674-70.851c35.225-36.52,71.557-72.063,111.135-103.975A799.631,799.631,0,0,1,885.817,864.216C983.225,871.928,1062.363,886.72,1124.251,902.849Z" transform="translate(167.369 -858.614)" fill="#c0dfa1" opacity="0.34" style="mix-blend-mode: multiply;isolation: isolate"/>
        </g>
        <g id="그룹_415" data-name="그룹 415" transform="translate(486.615 18.35)">
          <g id="그룹_406" data-name="그룹 406" transform="translate(57.141)">
            <g id="그룹_399" data-name="그룹 399" transform="translate(402.767 55.882)" opacity="0.59" style="mix-blend-mode: multiply;isolation: isolate">
              <path id="패스_1007" data-name="패스 1007" d="M705.5,898.157c-1.259.464-2.649,1.354-2.273,2.4.285.8,1.468,1.166,2.52,1.305,3.741.5,7.552-.4,11.065-1.512.776-.247,1.626-.569,1.892-1.187C720.592,894.81,707.049,897.587,705.5,898.157Z" transform="translate(-680.919 -896.759)" fill="#c0dfa1"/>
              <path id="패스_1008" data-name="패스 1008" d="M694.954,903.378c-1.259.464-2.649,1.354-2.276,2.4.287.8,1.47,1.166,2.52,1.305,3.741.5,7.552-.4,11.067-1.512.774-.247,1.624-.569,1.892-1.187C710.045,900.034,696.5,902.809,694.954,903.378Z" transform="translate(-692.617 -890.968)" fill="#c0dfa1"/>
              <path id="패스_1009" data-name="패스 1009" d="M710.937,903.378c-1.261.464-2.651,1.354-2.275,2.4.287.8,1.468,1.166,2.52,1.305,3.741.5,7.552-.4,11.065-1.512.776-.247,1.626-.569,1.892-1.187C726.026,900.034,712.483,902.809,710.937,903.378Z" transform="translate(-674.894 -890.968)" fill="#c0e270"/>
            </g>
            <g id="그룹_400" data-name="그룹 400" transform="translate(-652.233 112.306)" opacity="0.59" style="mix-blend-mode: multiply;isolation: isolate">
              <path id="패스_1010" data-name="패스 1010" d="M705.5,898.157c-1.259.464-2.649,1.354-2.273,2.4.285.8,1.468,1.166,2.52,1.305,3.741.5,7.552-.4,11.065-1.512.776-.247,1.626-.569,1.892-1.187C720.592,894.81,707.049,897.587,705.5,898.157Z" transform="translate(-680.919 -896.759)" fill="#c0dfa1"/>
              <path id="패스_1011" data-name="패스 1011" d="M694.954,903.378c-1.259.464-2.649,1.354-2.276,2.4.287.8,1.47,1.166,2.52,1.305,3.741.5,7.552-.4,11.067-1.512.774-.247,1.624-.569,1.892-1.187C710.045,900.034,696.5,902.809,694.954,903.378Z" transform="translate(-692.617 -890.968)" fill="#c0dfa1"/>
              <path id="패스_1012" data-name="패스 1012" d="M710.937,903.378c-1.261.464-2.651,1.354-2.275,2.4.287.8,1.468,1.166,2.52,1.305,3.741.5,7.552-.4,11.065-1.512.776-.247,1.626-.569,1.892-1.187C726.026,900.034,712.483,902.809,710.937,903.378Z" transform="translate(-674.894 -890.968)" fill="#c0e270"/>
            </g>
            <g id="그룹_401" data-name="그룹 401" transform="translate(-1233.233 108.977)" opacity="0.59" style="mix-blend-mode: multiply;isolation: isolate">
              <path id="패스_1013" data-name="패스 1013" d="M705.5,898.157c-1.259.464-2.649,1.354-2.273,2.4.285.8,1.468,1.166,2.52,1.305,3.741.5,7.552-.4,11.065-1.512.776-.247,1.626-.569,1.892-1.187C720.592,894.81,707.049,897.587,705.5,898.157Z" transform="translate(-680.919 -896.759)" fill="#c0dfa1"/>
              <path id="패스_1014" data-name="패스 1014" d="M694.954,903.378c-1.259.464-2.649,1.354-2.276,2.4.287.8,1.47,1.166,2.52,1.305,3.741.5,7.552-.4,11.067-1.512.774-.247,1.624-.569,1.892-1.187C710.045,900.034,696.5,902.809,694.954,903.378Z" transform="translate(-692.617 -890.968)" fill="#c0dfa1"/>
              <path id="패스_1015" data-name="패스 1015" d="M710.937,903.378c-1.261.464-2.651,1.354-2.275,2.4.287.8,1.468,1.166,2.52,1.305,3.741.5,7.552-.4,11.065-1.512.776-.247,1.626-.569,1.892-1.187C726.026,900.034,712.483,902.809,710.937,903.378Z" transform="translate(-674.894 -890.968)" fill="#c0e270"/>
            </g>
            <g id="그룹_402" data-name="그룹 402" transform="translate(247.644 61.407)" opacity="0.59" style="mix-blend-mode: multiply;isolation: isolate">
              <path id="패스_1016" data-name="패스 1016" d="M628.545,900.079c-.917.289-1.944.882-1.713,1.641.177.584,1.01.884,1.759,1.021a18.556,18.556,0,0,0,7.98-.713c.563-.15,1.183-.352,1.4-.786C639.473,898.19,629.673,899.723,628.545,900.079Z" transform="translate(-610.478 -899.379)" fill="#c0dfa1"/>
              <path id="패스_1017" data-name="패스 1017" d="M620.806,903.465c-.917.291-1.944.882-1.713,1.643.177.582,1.01.884,1.759,1.019a18.488,18.488,0,0,0,7.98-.713c.563-.15,1.183-.352,1.4-.785C631.734,901.576,621.934,903.109,620.806,903.465Z" transform="translate(-619.06 -895.624)" fill="#c0dfa1"/>
              <path id="패스_1018" data-name="패스 1018" d="M632.256,904c-.919.289-1.946.882-1.714,1.641.177.584,1.012.884,1.761,1.021a18.516,18.516,0,0,0,7.978-.713c.565-.15,1.185-.352,1.4-.787C643.182,902.113,633.384,903.646,632.256,904Z" transform="translate(-606.366 -895.029)" fill="#c0e270"/>
            </g>
            <g id="그룹_403" data-name="그룹 403" transform="translate(184.907)" opacity="0.59" style="mix-blend-mode: multiply;isolation: isolate">
              <path id="패스_1019" data-name="패스 1019" d="M598.8,870.961c-.917.291-1.945.881-1.713,1.643.177.582,1.01.884,1.759,1.019a18.491,18.491,0,0,0,7.98-.713c.563-.15,1.183-.352,1.4-.784C609.725,869.072,599.925,870.6,598.8,870.961Z" transform="translate(-580.729 -870.261)" fill="#c0dfa1"/>
              <path id="패스_1020" data-name="패스 1020" d="M591.059,874.348c-.917.289-1.944.882-1.714,1.641.177.582,1.012.884,1.761,1.021a18.559,18.559,0,0,0,7.98-.713c.563-.15,1.183-.354,1.4-.787C601.987,872.459,592.187,873.992,591.059,874.348Z" transform="translate(-589.312 -866.505)" fill="#c0dfa1"/>
              <path id="패스_1021" data-name="패스 1021" d="M602.508,874.884c-.919.291-1.946.882-1.714,1.643.177.582,1.012.884,1.759,1.019a18.521,18.521,0,0,0,7.98-.711c.565-.152,1.185-.354,1.4-.787C613.434,872.994,603.634,874.53,602.508,874.884Z" transform="translate(-576.616 -865.91)" fill="#c0dfa1"/>
            </g>
            <g id="그룹_404" data-name="그룹 404" transform="translate(498.716 149.797)" opacity="0.59" style="mix-blend-mode: multiply;isolation: isolate">
              <path id="패스_1022" data-name="패스 1022" d="M751,942.69c-1.261.464-2.651,1.354-2.275,2.4.287.8,1.468,1.164,2.52,1.305,3.741.5,7.552-.4,11.065-1.514.776-.245,1.626-.567,1.894-1.185C766.092,939.343,752.546,942.119,751,942.69Z" transform="translate(-726.416 -941.292)" fill="#c0dfa1"/>
              <path id="패스_1023" data-name="패스 1023" d="M740.451,947.912c-1.259.464-2.649,1.354-2.275,2.4.287.8,1.47,1.164,2.52,1.305,3.741.5,7.554-.4,11.068-1.514.774-.245,1.624-.567,1.892-1.185C755.542,944.565,742,947.342,740.451,947.912Z" transform="translate(-738.114 -935.501)" fill="#c0dfa1"/>
              <path id="패스_1024" data-name="패스 1024" d="M756.434,947.912c-1.259.464-2.651,1.354-2.276,2.4.287.8,1.468,1.164,2.52,1.305,3.741.5,7.552-.4,11.065-1.514.776-.245,1.626-.567,1.894-1.185C771.526,944.565,757.98,947.342,756.434,947.912Z" transform="translate(-720.39 -935.501)" fill="#c0dfa1"/>
            </g>
            <g id="그룹_405" data-name="그룹 405" transform="translate(545.679 15.118)" opacity="0.59" style="mix-blend-mode: multiply;isolation: isolate">
              <path id="패스_1025" data-name="패스 1025" d="M770.1,877.751c-.926.224-1.984.736-1.809,1.5.133.586.934.943,1.662,1.128a18.352,18.352,0,0,0,7.929-.15c.567-.108,1.2-.266,1.436-.677C781.024,876.646,771.236,877.479,770.1,877.751Z" transform="translate(-751.638 -877.43)" fill="#c0dfa1"/>
              <path id="패스_1026" data-name="패스 1026" d="M762.211,880.558c-.928.221-1.984.734-1.809,1.5.131.586.934.943,1.662,1.128a18.324,18.324,0,0,0,7.929-.148c.567-.11,1.2-.266,1.436-.679C773.138,879.45,763.352,880.283,762.211,880.558Z" transform="translate(-760.383 -874.319)" fill="#c0dfa1"/>
              <path id="패스_1027" data-name="패스 1027" d="M773.476,881.882c-.928.224-1.984.736-1.811,1.5.133.586.934.941,1.664,1.128a18.357,18.357,0,0,0,7.93-.15c.567-.11,1.194-.266,1.436-.679C784.4,880.777,774.615,881.61,773.476,881.882Z" transform="translate(-747.893 -872.849)" fill="#c0dfa1"/>
            </g>
            <path id="패스_1028" data-name="패스 1028" d="M815.816,906.415c-.926.221-1.982.734-1.809,1.5.133.586.934.943,1.662,1.128a18.331,18.331,0,0,0,7.932-.148,2.11,2.11,0,0,0,1.436-.679C826.742,905.307,816.957,906.14,815.816,906.415Z" transform="translate(-155.261 -830.528)" fill="#c0dfa1" opacity="0.44" style="mix-blend-mode: multiply;isolation: isolate"/>
            <path id="패스_1029" data-name="패스 1029" d="M503.462,902.133c-.928.221-1.984.734-1.812,1.5.133.586.934.943,1.664,1.128a18.322,18.322,0,0,0,7.929-.148,2.11,2.11,0,0,0,1.436-.679C514.386,901.025,504.6,901.858,503.462,902.133Z" transform="translate(-501.632 -835.276)" fill="#c0dfa1" opacity="0.44" style="mix-blend-mode: multiply;isolation: isolate"/>
            <path id="패스_1030" data-name="패스 1030" d="M847.753,890.57c-.928.224-1.985.736-1.812,1.5.133.586.934.943,1.664,1.128a18.358,18.358,0,0,0,7.929-.15,2.1,2.1,0,0,0,1.436-.677C858.677,889.465,848.892,890.3,847.753,890.57Z" transform="translate(-119.849 -848.096)" fill="#c0dfa1" opacity="0.44" style="mix-blend-mode: multiply;isolation: isolate"/>
            <path id="패스_1031" data-name="패스 1031" d="M807.5,929.966c-.926.221-1.982.734-1.81,1.5.133.586.934.943,1.664,1.128a18.327,18.327,0,0,0,7.93-.148,2.111,2.111,0,0,0,1.436-.679C818.43,928.858,808.645,929.691,807.5,929.966Z" transform="translate(-164.478 -804.412)" fill="#c0dfa1" opacity="0.44" style="mix-blend-mode: multiply;isolation: isolate"/>
          </g>
          <g id="그룹_407" data-name="그룹 407" transform="translate(582.817 77.794)">
            <path id="패스_1032" data-name="패스 1032" d="M752.349,913.665a2.9,2.9,0,0,0-1.223.9,1.123,1.123,0,0,0,.032,1.4,1.734,1.734,0,0,0,1.082.369,39.118,39.118,0,0,0,5.466.162,6.462,6.462,0,0,0-.675,3.383,1.678,1.678,0,0,0,.316.974,1.659,1.659,0,0,0,1.329.441c2.341-.051,4.249-1.763,5.918-3.372a5.492,5.492,0,0,0,2.446,2.959,3.818,3.818,0,0,0,3.783-.04,2.74,2.74,0,0,0,1.048-3.406,8.584,8.584,0,0,0,6.987-.5,2,2,0,0,0,.827-.706c.546-.972-.552-2.035-1.55-2.562a22.627,22.627,0,0,0-3.621-1.521,1.92,1.92,0,0,0,.957-2.575,3.588,3.588,0,0,0-2.434-1.795,6.44,6.44,0,0,0-6.006,1.548c-.422-1.837-2.893-2.63-4.671-1.915-2.09.839-2.486,2.834-4,4.184S754.2,912.8,752.349,913.665Z" transform="translate(-750.898 -907.149)" fill="#fff"/>
            <path id="패스_1033" data-name="패스 1033" d="M757,910.193c-.449.137-.97.4-.976.865s.525.751.981.9a13.392,13.392,0,0,0,6.341.759,2.4,2.4,0,0,0,.92-.3.95.95,0,0,0,.477-.782,1.333,1.333,0,0,0-.219-.618c-.742-1.31-1.624-1.343-3.022-1.407A13.211,13.211,0,0,0,757,910.193Z" transform="translate(-745.217 -904.426)" fill="#e7a328"/>
          </g>
          <g id="그룹_408" data-name="그룹 408" transform="translate(-779.183 36.225)">
            <path id="패스_1034" data-name="패스 1034" d="M752.349,913.665a2.9,2.9,0,0,0-1.223.9,1.123,1.123,0,0,0,.032,1.4,1.734,1.734,0,0,0,1.082.369,39.118,39.118,0,0,0,5.466.162,6.462,6.462,0,0,0-.675,3.383,1.678,1.678,0,0,0,.316.974,1.659,1.659,0,0,0,1.329.441c2.341-.051,4.249-1.763,5.918-3.372a5.492,5.492,0,0,0,2.446,2.959,3.818,3.818,0,0,0,3.783-.04,2.74,2.74,0,0,0,1.048-3.406,8.584,8.584,0,0,0,6.987-.5,2,2,0,0,0,.827-.706c.546-.972-.552-2.035-1.55-2.562a22.627,22.627,0,0,0-3.621-1.521,1.92,1.92,0,0,0,.957-2.575,3.588,3.588,0,0,0-2.434-1.795,6.44,6.44,0,0,0-6.006,1.548c-.422-1.837-2.893-2.63-4.671-1.915-2.09.839-2.486,2.834-4,4.184S754.2,912.8,752.349,913.665Z" transform="translate(-750.898 -907.149)" fill="#fff"/>
            <path id="패스_1035" data-name="패스 1035" d="M757,910.193c-.449.137-.97.4-.976.865s.525.751.981.9a13.392,13.392,0,0,0,6.341.759,2.4,2.4,0,0,0,.92-.3.95.95,0,0,0,.477-.782,1.333,1.333,0,0,0-.219-.618c-.742-1.31-1.624-1.343-3.022-1.407A13.211,13.211,0,0,0,757,910.193Z" transform="translate(-745.217 -904.426)" fill="#e7a328"/>
          </g>
          <g id="그룹_409" data-name="그룹 409" transform="translate(-640.183 64.303)">
            <path id="패스_1036" data-name="패스 1036" d="M752.349,913.665a2.9,2.9,0,0,0-1.223.9,1.123,1.123,0,0,0,.032,1.4,1.734,1.734,0,0,0,1.082.369,39.118,39.118,0,0,0,5.466.162,6.462,6.462,0,0,0-.675,3.383,1.678,1.678,0,0,0,.316.974,1.659,1.659,0,0,0,1.329.441c2.341-.051,4.249-1.763,5.918-3.372a5.492,5.492,0,0,0,2.446,2.959,3.818,3.818,0,0,0,3.783-.04,2.74,2.74,0,0,0,1.048-3.406,8.584,8.584,0,0,0,6.987-.5,2,2,0,0,0,.827-.706c.546-.972-.552-2.035-1.55-2.562a22.627,22.627,0,0,0-3.621-1.521,1.92,1.92,0,0,0,.957-2.575,3.588,3.588,0,0,0-2.434-1.795,6.44,6.44,0,0,0-6.006,1.548c-.422-1.837-2.893-2.63-4.671-1.915-2.09.839-2.486,2.834-4,4.184S754.2,912.8,752.349,913.665Z" transform="translate(-750.898 -907.149)" fill="#fff"/>
            <path id="패스_1037" data-name="패스 1037" d="M757,910.193c-.449.137-.97.4-.976.865s.525.751.981.9a13.392,13.392,0,0,0,6.341.759,2.4,2.4,0,0,0,.92-.3.95.95,0,0,0,.477-.782,1.333,1.333,0,0,0-.219-.618c-.742-1.31-1.624-1.343-3.022-1.407A13.211,13.211,0,0,0,757,910.193Z" transform="translate(-745.217 -904.426)" fill="#e7a328"/>
          </g>
          <g id="그룹_410" data-name="그룹 410" transform="translate(-681.183 151.843)">
            <path id="패스_1038" data-name="패스 1038" d="M752.349,913.665a2.9,2.9,0,0,0-1.223.9,1.123,1.123,0,0,0,.032,1.4,1.734,1.734,0,0,0,1.082.369,39.118,39.118,0,0,0,5.466.162,6.462,6.462,0,0,0-.675,3.383,1.678,1.678,0,0,0,.316.974,1.659,1.659,0,0,0,1.329.441c2.341-.051,4.249-1.763,5.918-3.372a5.492,5.492,0,0,0,2.446,2.959,3.818,3.818,0,0,0,3.783-.04,2.74,2.74,0,0,0,1.048-3.406,8.584,8.584,0,0,0,6.987-.5,2,2,0,0,0,.827-.706c.546-.972-.552-2.035-1.55-2.562a22.627,22.627,0,0,0-3.621-1.521,1.92,1.92,0,0,0,.957-2.575,3.588,3.588,0,0,0-2.434-1.795,6.44,6.44,0,0,0-6.006,1.548c-.422-1.837-2.893-2.63-4.671-1.915-2.09.839-2.486,2.834-4,4.184S754.2,912.8,752.349,913.665Z" transform="translate(-750.898 -907.149)" fill="#fff"/>
            <path id="패스_1039" data-name="패스 1039" d="M757,910.193c-.449.137-.97.4-.976.865s.525.751.981.9a13.392,13.392,0,0,0,6.341.759,2.4,2.4,0,0,0,.92-.3.95.95,0,0,0,.477-.782,1.333,1.333,0,0,0-.219-.618c-.742-1.31-1.624-1.343-3.022-1.407A13.211,13.211,0,0,0,757,910.193Z" transform="translate(-745.217 -904.426)" fill="#e7a328"/>
          </g>
          <g id="그룹_411" data-name="그룹 411" transform="translate(373.779 112.977)">
            <path id="패스_1040" data-name="패스 1040" d="M653.227,930.348a2.915,2.915,0,0,0-1.223.9,1.123,1.123,0,0,0,.032,1.4,1.733,1.733,0,0,0,1.082.369,39.111,39.111,0,0,0,5.466.162,6.461,6.461,0,0,0-.673,3.383,1.349,1.349,0,0,0,1.643,1.417c2.341-.053,4.249-1.765,5.918-3.374a5.5,5.5,0,0,0,2.446,2.959,3.818,3.818,0,0,0,3.783-.038,2.743,2.743,0,0,0,1.048-3.408,8.574,8.574,0,0,0,6.987-.5,2,2,0,0,0,.827-.707c.548-.97-.553-2.035-1.55-2.56a22.179,22.179,0,0,0-3.621-1.521,1.923,1.923,0,0,0,.957-2.577,3.589,3.589,0,0,0-2.434-1.795,6.44,6.44,0,0,0-6.006,1.548c-.42-1.837-2.893-2.63-4.671-1.915-2.09.839-2.486,2.834-4,4.184S655.081,929.481,653.227,930.348Z" transform="translate(-651.776 -923.832)" fill="#fff"/>
            <path id="패스_1041" data-name="패스 1041" d="M657.875,926.876c-.447.139-.968.4-.976.865s.525.751.983.9a13.354,13.354,0,0,0,6.339.761,2.433,2.433,0,0,0,.92-.3.956.956,0,0,0,.479-.782,1.378,1.378,0,0,0-.221-.618c-.742-1.31-1.624-1.343-3.02-1.407A13.221,13.221,0,0,0,657.875,926.876Z" transform="translate(-646.095 -921.109)" fill="#e7a328"/>
          </g>
          <g id="그룹_412" data-name="그룹 412" transform="translate(288.106 29.12)">
            <path id="패스_1042" data-name="패스 1042" d="M612.6,890.583a2.938,2.938,0,0,0-1.225.9,1.127,1.127,0,0,0,.034,1.4,1.727,1.727,0,0,0,1.08.369,39.131,39.131,0,0,0,5.468.16,6.454,6.454,0,0,0-.675,3.385,1.649,1.649,0,0,0,.316.974,1.671,1.671,0,0,0,1.329.441c2.341-.051,4.249-1.765,5.915-3.372a5.5,5.5,0,0,0,2.448,2.959,3.814,3.814,0,0,0,3.781-.04,2.743,2.743,0,0,0,1.05-3.406,8.578,8.578,0,0,0,6.985-.5,2,2,0,0,0,.829-.707c.546-.972-.553-2.035-1.55-2.562a22.4,22.4,0,0,0-3.623-1.52,1.918,1.918,0,0,0,.957-2.575,3.581,3.581,0,0,0-2.434-1.8,6.447,6.447,0,0,0-6,1.548c-.422-1.835-2.893-2.63-4.673-1.913-2.088.839-2.486,2.834-4,4.182S614.455,889.717,612.6,890.583Z" transform="translate(-611.151 -884.069)" fill="#fff"/>
            <path id="패스_1043" data-name="패스 1043" d="M617.253,887.111c-.449.139-.97.4-.979.867s.527.749.983.9a13.362,13.362,0,0,0,6.342.761,2.38,2.38,0,0,0,.917-.3.957.957,0,0,0,.479-.784,1.358,1.358,0,0,0-.219-.616c-.742-1.31-1.626-1.343-3.022-1.407A13.268,13.268,0,0,0,617.253,887.111Z" transform="translate(-605.471 -881.345)" fill="#e7a328"/>
          </g>
          <g id="그룹_413" data-name="그룹 413" transform="translate(-1186.894 -83.88)">
            <path id="패스_1044" data-name="패스 1044" d="M612.6,890.583a2.938,2.938,0,0,0-1.225.9,1.127,1.127,0,0,0,.034,1.4,1.727,1.727,0,0,0,1.08.369,39.131,39.131,0,0,0,5.468.16,6.454,6.454,0,0,0-.675,3.385,1.649,1.649,0,0,0,.316.974,1.671,1.671,0,0,0,1.329.441c2.341-.051,4.249-1.765,5.915-3.372a5.5,5.5,0,0,0,2.448,2.959,3.814,3.814,0,0,0,3.781-.04,2.743,2.743,0,0,0,1.05-3.406,8.578,8.578,0,0,0,6.985-.5,2,2,0,0,0,.829-.707c.546-.972-.553-2.035-1.55-2.562a22.4,22.4,0,0,0-3.623-1.52,1.918,1.918,0,0,0,.957-2.575,3.581,3.581,0,0,0-2.434-1.8,6.447,6.447,0,0,0-6,1.548c-.422-1.835-2.893-2.63-4.673-1.913-2.088.839-2.486,2.834-4,4.182S614.455,889.717,612.6,890.583Z" transform="translate(-611.151 -884.069)" fill="#fff"/>
            <path id="패스_1045" data-name="패스 1045" d="M617.253,887.111c-.449.139-.97.4-.979.867s.527.749.983.9a13.362,13.362,0,0,0,6.342.761,2.38,2.38,0,0,0,.917-.3.957.957,0,0,0,.479-.784,1.358,1.358,0,0,0-.219-.616c-.742-1.31-1.626-1.343-3.022-1.407A13.268,13.268,0,0,0,617.253,887.111Z" transform="translate(-605.471 -881.345)" fill="#e7a328"/>
          </g>
          <g id="그룹_414" data-name="그룹 414" transform="translate(-1271.894 71.407)">
            <path id="패스_1046" data-name="패스 1046" d="M612.6,890.583a2.938,2.938,0,0,0-1.225.9,1.127,1.127,0,0,0,.034,1.4,1.727,1.727,0,0,0,1.08.369,39.131,39.131,0,0,0,5.468.16,6.454,6.454,0,0,0-.675,3.385,1.649,1.649,0,0,0,.316.974,1.671,1.671,0,0,0,1.329.441c2.341-.051,4.249-1.765,5.915-3.372a5.5,5.5,0,0,0,2.448,2.959,3.814,3.814,0,0,0,3.781-.04,2.743,2.743,0,0,0,1.05-3.406,8.578,8.578,0,0,0,6.985-.5,2,2,0,0,0,.829-.707c.546-.972-.553-2.035-1.55-2.562a22.4,22.4,0,0,0-3.623-1.52,1.918,1.918,0,0,0,.957-2.575,3.581,3.581,0,0,0-2.434-1.8,6.447,6.447,0,0,0-6,1.548c-.422-1.835-2.893-2.63-4.673-1.913-2.088.839-2.486,2.834-4,4.182S614.455,889.717,612.6,890.583Z" transform="translate(-611.151 -884.069)" fill="#fff"/>
            <path id="패스_1047" data-name="패스 1047" d="M617.253,887.111c-.449.139-.97.4-.979.867s.527.749.983.9a13.362,13.362,0,0,0,6.342.761,2.38,2.38,0,0,0,.917-.3.957.957,0,0,0,.479-.784,1.358,1.358,0,0,0-.219-.616c-.742-1.31-1.626-1.343-3.022-1.407A13.268,13.268,0,0,0,617.253,887.111Z" transform="translate(-605.471 -881.345)" fill="#e7a328"/>
          </g>
          <path id="패스_1048" data-name="패스 1048" d="M727.464,927.319c0,1.4-2.636,2.537-5.888,2.537s-5.89-1.135-5.89-2.537,2.638-2.535,5.89-2.535S727.464,925.919,727.464,927.319Z" transform="translate(-207.127 -809.8)" fill="#fff"/>
          <path id="패스_1049" data-name="패스 1049" d="M727.464,885.521c0,1.4-2.636,2.535-5.888,2.535s-5.89-1.135-5.89-2.535,2.638-2.537,5.89-2.537S727.464,884.121,727.464,885.521Z" transform="translate(-207.127 -856.152)" fill="#fff"/>
          <ellipse id="타원_124" data-name="타원 124" cx="5.889" cy="2.536" rx="5.889" ry="2.536" transform="translate(679.649 100.535)" fill="#fff"/>
          <path id="패스_1050" data-name="패스 1050" d="M486.313,906.658c0,1.4-2.636,2.535-5.888,2.535s-5.888-1.135-5.888-2.535,2.636-2.537,5.888-2.537S486.313,905.256,486.313,906.658Z" transform="translate(-474.537 -832.714)" fill="#fff"/>
        </g>
      </g>
      <g id="그룹_417" data-name="그룹 417" transform="translate(756.207 241.2)">
        <path id="패스_1051" data-name="패스 1051" d="M634.709,983.6a3.42,3.42,0,0,1,1.44,1.059,1.317,1.317,0,0,1-.038,1.645,2.026,2.026,0,0,1-1.271.435,45.818,45.818,0,0,1-6.432.19,7.622,7.622,0,0,1,.793,3.982,1.586,1.586,0,0,1-1.936,1.666c-2.754-.059-5-2.075-6.962-3.969a6.469,6.469,0,0,1-2.881,3.482,4.489,4.489,0,0,1-4.45-.047,3.225,3.225,0,0,1-1.236-4.007,10.093,10.093,0,0,1-8.221-.584,2.353,2.353,0,0,1-.972-.831c-.645-1.143.65-2.4,1.824-3.016a26.311,26.311,0,0,1,4.26-1.789,2.259,2.259,0,0,1-1.126-3.031,4.212,4.212,0,0,1,2.864-2.113,7.581,7.581,0,0,1,7.067,1.822c.5-2.161,3.4-3.1,5.5-2.254,2.459.989,2.925,3.336,4.707,4.924S632.531,982.578,634.709,983.6Z" transform="translate(-602.372 -975.933)" fill="#fff"/>
        <path id="패스_1052" data-name="패스 1052" d="M616.734,979.512c.527.165,1.141.477,1.149,1.019s-.62.884-1.156,1.065a15.731,15.731,0,0,1-7.461.894,2.8,2.8,0,0,1-1.082-.348,1.118,1.118,0,0,1-.561-.921,1.585,1.585,0,0,1,.257-.726c.875-1.542,1.913-1.582,3.556-1.656A15.575,15.575,0,0,1,616.734,979.512Z" transform="translate(-596.55 -972.727)" fill="#e7a328"/>
      </g>
      <g id="그룹_418" data-name="그룹 418" transform="translate(-610.793 30.2)">
        <path id="패스_1053" data-name="패스 1053" d="M634.709,983.6a3.42,3.42,0,0,1,1.44,1.059,1.317,1.317,0,0,1-.038,1.645,2.026,2.026,0,0,1-1.271.435,45.818,45.818,0,0,1-6.432.19,7.622,7.622,0,0,1,.793,3.982,1.586,1.586,0,0,1-1.936,1.666c-2.754-.059-5-2.075-6.962-3.969a6.469,6.469,0,0,1-2.881,3.482,4.489,4.489,0,0,1-4.45-.047,3.225,3.225,0,0,1-1.236-4.007,10.093,10.093,0,0,1-8.221-.584,2.353,2.353,0,0,1-.972-.831c-.645-1.143.65-2.4,1.824-3.016a26.311,26.311,0,0,1,4.26-1.789,2.259,2.259,0,0,1-1.126-3.031,4.212,4.212,0,0,1,2.864-2.113,7.581,7.581,0,0,1,7.067,1.822c.5-2.161,3.4-3.1,5.5-2.254,2.459.989,2.925,3.336,4.707,4.924S632.531,982.578,634.709,983.6Z" transform="translate(-602.372 -975.933)" fill="#fff"/>
        <path id="패스_1054" data-name="패스 1054" d="M616.734,979.512c.527.165,1.141.477,1.149,1.019s-.62.884-1.156,1.065a15.731,15.731,0,0,1-7.461.894,2.8,2.8,0,0,1-1.082-.348,1.118,1.118,0,0,1-.561-.921,1.585,1.585,0,0,1,.257-.726c.875-1.542,1.913-1.582,3.556-1.656A15.575,15.575,0,0,1,616.734,979.512Z" transform="translate(-596.55 -972.727)" fill="#e7a328"/>
      </g>
      <g id="그룹_419" data-name="그룹 419" transform="translate(-510.793 146.648)">
        <path id="패스_1055" data-name="패스 1055" d="M634.709,983.6a3.42,3.42,0,0,1,1.44,1.059,1.317,1.317,0,0,1-.038,1.645,2.026,2.026,0,0,1-1.271.435,45.818,45.818,0,0,1-6.432.19,7.622,7.622,0,0,1,.793,3.982,1.586,1.586,0,0,1-1.936,1.666c-2.754-.059-5-2.075-6.962-3.969a6.469,6.469,0,0,1-2.881,3.482,4.489,4.489,0,0,1-4.45-.047,3.225,3.225,0,0,1-1.236-4.007,10.093,10.093,0,0,1-8.221-.584,2.353,2.353,0,0,1-.972-.831c-.645-1.143.65-2.4,1.824-3.016a26.311,26.311,0,0,1,4.26-1.789,2.259,2.259,0,0,1-1.126-3.031,4.212,4.212,0,0,1,2.864-2.113,7.581,7.581,0,0,1,7.067,1.822c.5-2.161,3.4-3.1,5.5-2.254,2.459.989,2.925,3.336,4.707,4.924S632.531,982.578,634.709,983.6Z" transform="translate(-602.372 -975.933)" fill="#fff"/>
        <path id="패스_1056" data-name="패스 1056" d="M616.734,979.512c.527.165,1.141.477,1.149,1.019s-.62.884-1.156,1.065a15.731,15.731,0,0,1-7.461.894,2.8,2.8,0,0,1-1.082-.348,1.118,1.118,0,0,1-.561-.921,1.585,1.585,0,0,1,.257-.726c.875-1.542,1.913-1.582,3.556-1.656A15.575,15.575,0,0,1,616.734,979.512Z" transform="translate(-596.55 -972.727)" fill="#e7a328"/>
      </g>
      <g id="그룹_420" data-name="그룹 420" transform="translate(682.553 146.647)">
        <path id="패스_1057" data-name="패스 1057" d="M599.785,938.765a3.428,3.428,0,0,1,1.44,1.057,1.326,1.326,0,0,1-.038,1.647,2.059,2.059,0,0,1-1.272.434,46.163,46.163,0,0,1-6.434.19,7.594,7.594,0,0,1,.793,3.979,1.586,1.586,0,0,1-1.934,1.668c-2.754-.061-5-2.077-6.964-3.971a6.475,6.475,0,0,1-2.879,3.482,4.488,4.488,0,0,1-4.452-.044,3.227,3.227,0,0,1-1.234-4.009,10.093,10.093,0,0,1-8.22-.584,2.344,2.344,0,0,1-.974-.831c-.643-1.143.65-2.4,1.824-3.014a26.243,26.243,0,0,1,4.262-1.791,2.257,2.257,0,0,1-1.126-3.031,4.221,4.221,0,0,1,2.862-2.113,7.579,7.579,0,0,1,7.067,1.822c.5-2.161,3.406-3.094,5.5-2.252,2.459.989,2.927,3.336,4.707,4.922C594.508,937.929,597.6,937.744,599.785,938.765Z" transform="translate(-567.447 -931.097)" fill="#fff"/>
        <path id="패스_1058" data-name="패스 1058" d="M581.808,934.678c.527.162,1.141.474,1.149,1.016s-.618.884-1.154,1.065a15.737,15.737,0,0,1-7.463.9,2.863,2.863,0,0,1-1.08-.348,1.123,1.123,0,0,1-.563-.922,1.6,1.6,0,0,1,.259-.728c.873-1.54,1.911-1.58,3.553-1.656A15.628,15.628,0,0,1,581.808,934.678Z" transform="translate(-561.625 -927.892)" fill="#e7a328"/>
      </g>
      <path id="패스_1059" data-name="패스 1059" d="M558.226,967.66c0,1.647,3.1,2.984,6.93,2.984s6.93-1.337,6.93-2.984-3.1-2.984-6.93-2.984S558.226,966.011,558.226,967.66Z" transform="translate(104.881 -747.215)" fill="#fff"/>
      <path id="패스_1060" data-name="패스 1060" d="M595.695,1014.172c0,1.647,3.1,2.984,6.93,2.984s6.93-1.337,6.93-2.984-3.1-2.986-6.93-2.986S595.695,1012.523,595.695,1014.172Z" transform="translate(146.43 -695.64)" fill="#fff"/>
      <path id="패스_1061" data-name="패스 1061" d="M679.722,964.735c0,1.647,3.1,2.984,6.93,2.984s6.93-1.337,6.93-2.984-3.1-2.984-6.93-2.984S679.722,963.086,679.722,964.735Z" transform="translate(239.608 -750.458)" fill="#fff"/>
      <path id="패스_1062" data-name="패스 1062" d="M678.871,1043.523c0,1.647,3.1,2.984,6.93,2.984s6.93-1.337,6.93-2.984-3.1-2.984-6.93-2.984S678.871,1041.874,678.871,1043.523Z" transform="translate(238.664 -663.09)" fill="#fff"/>
      <path id="패스_1063" data-name="패스 1063" d="M697.375,1003.067c0,1.649,3.1,2.984,6.93,2.984s6.93-1.335,6.93-2.984-3.1-2.984-6.93-2.984S697.375,1001.418,697.375,1003.067Z" transform="translate(259.183 -707.952)" fill="#fff"/>
      <ellipse id="타원_125" data-name="타원 125" cx="6.93" cy="2.985" rx="6.93" ry="2.985" transform="translate(509.562 254.871)" fill="#fff"/>
    </g>
    <g id="그룹_422" data-name="그룹 422" transform="translate(-13061.545 7571.962) rotate(-17)">
      <path id="패스_165" data-name="패스 165" d="M118.1,55.71c1.24-8.266-.751-22.4-3.811-22.931-2.538-.44-7.605,1.044-11.2,5.053a28.552,28.552,0,0,0-12.858-2.225c-2.032-4.983-6.308-8.084-8.846-8.523-3.06-.53-9.687,12.114-11.3,20.316a20.978,20.978,0,0,0-2.539,6.966c-1.193,6.892,1.617,10.8,6.707,13.324-3.112,3.324-6.9,6.617-11.576,10.822-10.26,9.244-16.6,23.377-13.855,36.408a16.309,16.309,0,0,0,.853,2.783,27.792,27.792,0,0,1-9.355-1.561c-3.595-1.4-6.258-4.247-7.872-8.47a29.421,29.421,0,0,1-1.692-13.055A26.477,26.477,0,0,1,43.439,74.531C55.05,66.969,55.719,58.62,55.05,54.325a16.752,16.752,0,0,0-4.225-8.7,18.432,18.432,0,0,0-8.016-5.2,16.194,16.194,0,0,0-7.544-.677,14.545,14.545,0,0,0-7.242,3.424,3.822,3.822,0,0,0-.158,5.711,4.646,4.646,0,0,0,6.193.145A5.9,5.9,0,0,1,40,47.985a9.7,9.7,0,0,1,6.56,7.453c.656,4.3-2.217,8.772-8.082,12.572A37.421,37.421,0,0,0,27.157,79.3a32.161,32.161,0,0,0-5.012,14.749c-1.01,11.035,2.427,24.623,14.773,29.475a39.032,39.032,0,0,0,13.894,2.226c1.588,0,3.267,0,5.1-.169,5.668,4.1,12.976,5.166,16.1,4.767,1.063-.133,3.057-.194,5.576-.424.486,2.529,2.624,2.989,7.767,2.989,4.409,0,5.668-1.754,6.009-2.916.21,1,1.509,2.42,7.111,2.117,8.778-.375,6.167-4.428,4.251-7.078-.774-1.077-.3-5.166.525-9.68a27.681,27.681,0,0,0,2.493-7.852c.341-2.093.59-4.162.774-6.183a98.447,98.447,0,0,0-1.51-27.737c6.887-.172,11.789-2.647,13.141-10.459a20.986,20.986,0,0,0-.049-7.414Z" fill="#040506"/>
      <g id="그룹_120" data-name="그룹 120">
        <g id="그룹_118" data-name="그룹 118">
          <ellipse id="타원_78" data-name="타원 78" cx="10.31" cy="7.214" rx="10.31" ry="7.214" transform="translate(74.045 62.648) rotate(-80.179)" fill="#fff"/>
          <ellipse id="타원_79" data-name="타원 79" cx="8.349" cy="5.841" rx="8.349" ry="5.841" transform="translate(76.241 61.038) rotate(-80.179)" fill="#040506"/>
        </g>
        <g id="그룹_119" data-name="그룹 119">
          <ellipse id="타원_80" data-name="타원 80" cx="10.31" cy="7.214" rx="10.31" ry="7.214" transform="translate(95.039 66.282) rotate(-80.179)" fill="#fff"/>
          <ellipse id="타원_81" data-name="타원 81" cx="8.349" cy="5.841" rx="8.349" ry="5.841" transform="translate(96.217 64.496) rotate(-80.179)" fill="#040506"/>
        </g>
      </g>
      <path id="패스_166" data-name="패스 166" d="M86.68,53.046,84.691,52.7a.792.792,0,0,0-.783,1.236l.058.081a.231.231,0,0,1,.038.173l-.194,1.124a.508.508,0,0,0,.414.587l1.82.315a.509.509,0,0,0,.588-.414l.194-1.124a.233.233,0,0,1,.1-.149L87,54.474a.792.792,0,0,0-.322-1.428Z" fill="#fff"/>
      <path id="패스_167" data-name="패스 167" d="M102.517,55.788l-1.99-.345a.792.792,0,0,0-.782,1.237l.057.081a.233.233,0,0,1,.039.172l-.195,1.124a.508.508,0,0,0,.414.587l1.821.315a.508.508,0,0,0,.587-.414l.195-1.123a.23.23,0,0,1,.094-.15l.081-.057a.792.792,0,0,0-.321-1.427Z" fill="#fff"/>
    </g>
  </g>
</svg>
