<svg xmlns="http://www.w3.org/2000/svg" xmlns:xlink="http://www.w3.org/1999/xlink" width="350" height="600" viewBox="0 0 350 600">
  <defs>
    <clipPath id="clip-path">
      <path id="사각형_463" data-name="사각형 463" d="M55,0H295a55,55,0,0,1,55,55V600a0,0,0,0,1,0,0H0a0,0,0,0,1,0,0V55A55,55,0,0,1,55,0Z" transform="translate(-14649 2539.308)" fill="#f58b2f"/>
    </clipPath>
  </defs>
  <g id="마스크_그룹_32" data-name="마스크 그룹 32" transform="translate(14649 -2539.308)" clip-path="url(#clip-path)">
    <path id="패스_798" data-name="패스 798" d="M0,0H350V600H0Z" transform="translate(-14649 2539.308)" fill="#f58b2f"/>
    <path id="패스_799" data-name="패스 799" d="M2210.622-224.878,2149.3-208.954a24.873,24.873,0,0,0-17.807,30.29,24.682,24.682,0,0,0,11.458,15.174l2.679,1.574a7.283,7.283,0,0,1,3.342,4.428l8.994,34.633a15.958,15.958,0,0,0,19.439,11.425L2233.52-126a15.957,15.957,0,0,0,11.425-19.439l-8.995-34.633a7.279,7.279,0,0,1,.772-5.5l1.569-2.677a24.683,24.683,0,0,0,2.626-18.831A24.87,24.87,0,0,0,2210.622-224.878Z" transform="translate(-16530.924 3313.079) rotate(-16)" fill="#e57c21"/>
  </g>
</svg>
