<svg xmlns="http://www.w3.org/2000/svg" xmlns:xlink="http://www.w3.org/1999/xlink" width="350" height="600" viewBox="0 0 350 600">
  <defs>
    <clipPath id="clip-path">
      <path id="사각형_462" data-name="사각형 462" d="M55,0H295a55,55,0,0,1,55,55V600a0,0,0,0,1,0,0H0a0,0,0,0,1,0,0V55A55,55,0,0,1,55,0Z" transform="translate(-14923 2530.308)" fill="#ffbc82"/>
    </clipPath>
  </defs>
  <g id="마스크_그룹_31" data-name="마스크 그룹 31" transform="translate(14923 -2530.308)" clip-path="url(#clip-path)">
    <path id="패스_796" data-name="패스 796" d="M0,0H350V600H0Z" transform="translate(-14923 2530.308)" fill="#62942f"/>
    <path id="패스_797" data-name="패스 797" d="M2210.622-224.878,2149.3-208.954a24.873,24.873,0,0,0-17.807,30.29,24.682,24.682,0,0,0,11.458,15.174l2.679,1.574a7.283,7.283,0,0,1,3.342,4.428l8.994,34.633a15.958,15.958,0,0,0,19.439,11.425L2233.52-126a15.957,15.957,0,0,0,11.425-19.439l-8.995-34.633a7.279,7.279,0,0,1,.772-5.5l1.569-2.677a24.683,24.683,0,0,0,2.626-18.831A24.87,24.87,0,0,0,2210.622-224.878Z" transform="translate(-16804.424 3304.079) rotate(-16)" fill="#567d2f"/>
  </g>
</svg>
