<svg xmlns="http://www.w3.org/2000/svg" width="288.401" height="116.68" viewBox="0 0 288.401 116.68">
  <g id="그룹_795" data-name="그룹 795" transform="translate(-341.507 -232.906)">
    <path id="패스_1315" data-name="패스 1315" d="M358.147,289.078a21.649,21.649,0,0,1-8.3-1.562,13.933,13.933,0,0,1-6.075-4.629,12.5,12.5,0,0,1-2.265-7.637,21.021,21.021,0,0,1,.781-5.527q.781-2.871,1.836-5.84,1.094-3.125,1.973-6.309a23.755,23.755,0,0,0,.879-6.347,14.962,14.962,0,0,0-2.188-7.93,9.642,9.642,0,0,1-1.6-4.609q0-2.618,3.457-4.18a21.032,21.032,0,0,1,8.652-1.563,35.284,35.284,0,0,1,8.066,1,32.711,32.711,0,0,1,8.262,3.2,27.242,27.242,0,0,1,12.461,14.492,33.278,33.278,0,0,1,1.953,11.933,23,23,0,0,1-2.539,10.977,25.129,25.129,0,0,1-6.641,8.008,29.472,29.472,0,0,1-9.023,4.883A30.536,30.536,0,0,1,358.147,289.078Zm3.438-31.914a3.881,3.881,0,0,0,2.93-1.23,7.764,7.764,0,0,0,1.757-3.164,13.724,13.724,0,0,0,.586-4,14.106,14.106,0,0,0-.664-4.336,8.419,8.419,0,0,0-1.972-3.4,4.4,4.4,0,0,0-3.262-1.328,2.308,2.308,0,0,0-1.465.508,3.381,3.381,0,0,0-1,1.836,15.669,15.669,0,0,0-.352,3.789q0,7.851,1.68,10.234A2.116,2.116,0,0,0,361.585,257.164Z" fill="#161615"/>
    <path id="패스_1316" data-name="패스 1316" d="M411.937,289a21.781,21.781,0,0,1-8.145-1.582,21.246,21.246,0,0,1-7.148-4.746,22.942,22.942,0,0,1-5.079-7.93,30.023,30.023,0,0,1-1.894-11.133,43.374,43.374,0,0,1,1.875-13.437,28.715,28.715,0,0,1,5.019-9.531,21.092,21.092,0,0,1,7.09-5.684,18.566,18.566,0,0,1,8.125-1.894A18.8,18.8,0,0,1,420.042,235a21.742,21.742,0,0,1,7.187,5.723,28.375,28.375,0,0,1,5.059,9.453,41.919,41.919,0,0,1,1.875,13.164,31.091,31.091,0,0,1-1.914,11.445,22.9,22.9,0,0,1-5.117,8.008,20.737,20.737,0,0,1-7.168,4.688A22.235,22.235,0,0,1,411.937,289Zm.195-27.969a3.578,3.578,0,0,0,2.422-1.015,7.462,7.462,0,0,0,1.875-3.008,14.214,14.214,0,0,0,.742-4.922,28.043,28.043,0,0,0-.762-7.109,11.427,11.427,0,0,0-1.953-4.3,3.3,3.3,0,0,0-2.48-1.446,3.105,3.105,0,0,0-2.325,1.329,10.182,10.182,0,0,0-1.8,4,27.816,27.816,0,0,0-.683,6.739q0,4.884,1.445,7.3T412.132,261.031Z" transform="translate(0.288)" fill="#161615"/>
    <path id="패스_1317" data-name="패스 1317" d="M472.835,289a11.521,11.521,0,0,1-6.641-2.148,15.98,15.98,0,0,1-2.05-1.641q-.567-.586-.918-.586a1.805,1.805,0,0,0-1,.605q-.644.607-2.089,1.7a10.405,10.405,0,0,1-6.25,2.07,24.415,24.415,0,0,1-9.473-1.582,11.968,11.968,0,0,1-5.547-4.355,11.358,11.358,0,0,1-1.816-6.368,25.551,25.551,0,0,1,1.035-7.187q1.034-3.553,2.363-7.031,1.25-3.282,2.207-6.524a22.546,22.546,0,0,0,.957-6.406,16.293,16.293,0,0,0-.527-4.1,15.01,15.01,0,0,0-1.758-4.043,6.952,6.952,0,0,1-1.23-3.457,3.486,3.486,0,0,1,1.269-2.793,8.065,8.065,0,0,1,3.281-1.582,17.634,17.634,0,0,1,8.477.02,8.756,8.756,0,0,1,3.359,1.582,3.275,3.275,0,0,1,1.309,2.656,5.631,5.631,0,0,1-1.172,3.047,10.208,10.208,0,0,0-1.387,3.379,18.907,18.907,0,0,0-.488,4.394,21.476,21.476,0,0,0,1.055,7.032,12.74,12.74,0,0,0,2.7,4.746,4.787,4.787,0,0,0,3.438,1.7,3.8,3.8,0,0,0,2.578-1.094,7.786,7.786,0,0,0,1.972-3.34,18.1,18.1,0,0,0,.762-5.722,35.974,35.974,0,0,0-.488-6.328,11.079,11.079,0,0,0-2.051-4.766,5.626,5.626,0,0,1-1.328-3.2,3.166,3.166,0,0,1,1.289-2.559,8.553,8.553,0,0,1,3.3-1.543,17.471,17.471,0,0,1,8.437.02,8.286,8.286,0,0,1,3.36,1.64,3.641,3.641,0,0,1,1.308,2.911,7.129,7.129,0,0,1-1.055,3.32,14.718,14.718,0,0,0-1.914,7.266,19,19,0,0,0,.782,4.98q.78,2.833,1.933,5.879t2.364,6.016q1.405,3.4,2.421,6.171a13.612,13.612,0,0,1,1.016,4.258,14.427,14.427,0,0,1-1.5,6.68,10.854,10.854,0,0,1-4.551,4.609A15.892,15.892,0,0,1,472.835,289Z" transform="translate(0.583)" fill="#161615"/>
    <path id="패스_1318" data-name="패스 1318" d="M510.765,289.586a32.787,32.787,0,0,1-10.2-1.563,17.876,17.876,0,0,1-7.773-4.765,12.221,12.221,0,0,1-3.125-8.672,18.239,18.239,0,0,1,1.016-5.859q1.014-3.008,2.343-6.133,1.445-3.282,2.578-6.68a21.389,21.389,0,0,0,1.133-6.8,14.475,14.475,0,0,0-1.719-6.953,6.342,6.342,0,0,1-.781-2.773,4.252,4.252,0,0,1,2.031-3.633,14.467,14.467,0,0,1,5.313-2.09,34.287,34.287,0,0,1,6.992-.684,41.022,41.022,0,0,1,8.652.879,19.682,19.682,0,0,1,6.622,2.539,5.007,5.007,0,0,1,2.617,4.043q0,3.282-5.274,6.133-.937.509-1.425.82c-.327.209-.489.4-.489.586q0,.587,2.344,1.407a24.348,24.348,0,0,1,11.445,8.32,22.944,22.944,0,0,1,4.336,13.75,13.273,13.273,0,0,1-2.343,7.754,19.675,19.675,0,0,1-6.211,5.683,31.888,31.888,0,0,1-8.594,3.5A38.771,38.771,0,0,1,510.765,289.586Zm-1.211-42.617a3.726,3.726,0,0,0,1.562-.43,18.531,18.531,0,0,0,4.531-3.027,3.8,3.8,0,0,0,1.368-2.324q0-1.524-2.7-1.641a9.775,9.775,0,0,0-2.773.469,5.058,5.058,0,0,0-2.754,2.07,5.2,5.2,0,0,0-.918,2.773,2.621,2.621,0,0,0,.41,1.5A1.424,1.424,0,0,0,509.554,246.969Zm7.617,13.2a6.355,6.355,0,0,0,2.91-.488,1.423,1.423,0,0,0,.879-1.231,3.442,3.442,0,0,0-1.563-2.383,14.816,14.816,0,0,0-3.867-2.226,11.972,11.972,0,0,0-4.531-.938,3.231,3.231,0,0,0-2.266.664,2.129,2.129,0,0,0-.7,1.6,4.115,4.115,0,0,0,1.211,2.7Q511.272,260.172,517.171,260.172Z" transform="translate(0.897)" fill="#161615"/>
    <path id="패스_1319" data-name="패스 1319" d="M561.741,289a36.435,36.435,0,0,1-10.937-1.543,19.262,19.262,0,0,1-7.832-4.375,8.992,8.992,0,0,1-2.91-6.66,9.6,9.6,0,0,1,.273-2.266,84.3,84.3,0,0,1,2.852-9.3q1.367-3.826,2.441-7.6A26.8,26.8,0,0,0,546.7,249.9a17.266,17.266,0,0,0-.547-4.316,14.468,14.468,0,0,0-1.836-4.16,6.918,6.918,0,0,1-1.289-3.555,3.408,3.408,0,0,1,1.25-2.734,8.027,8.027,0,0,1,3.242-1.563,16.728,16.728,0,0,1,4.141-.507,17.551,17.551,0,0,1,4.316.527,8.782,8.782,0,0,1,3.418,1.6,3.352,3.352,0,0,1,1.329,2.715,5.689,5.689,0,0,1-1.172,3.028,12.761,12.761,0,0,0-1.758,4.1,20.285,20.285,0,0,0-.586,4.9,21.918,21.918,0,0,0,.82,6.015,12.753,12.753,0,0,0,2.344,4.727,4.551,4.551,0,0,0,3.594,1.836q2.891,0,6.054-3.907,2.345-2.733,4.727-2.734a5.086,5.086,0,0,1,3.418,1.445,10.383,10.383,0,0,1,2.656,4.375,22.442,22.442,0,0,1,1.035,7.383q0,10.86-6.328,15.781Q570.258,289,561.741,289Z" transform="translate(1.173)" fill="#161615"/>
    <path id="패스_1320" data-name="패스 1320" d="M605.8,288.844a34.021,34.021,0,0,1-7.754-.879,26.556,26.556,0,0,1-6.738-2.5,14.537,14.537,0,0,1-4.727-3.945,8.374,8.374,0,0,1-1.758-5.176,24.523,24.523,0,0,1,.84-6.328q.84-3.165,1.914-6.328t1.9-6.27a24.05,24.05,0,0,0,.82-6.152,15.035,15.035,0,0,0-2.188-7.969,9.439,9.439,0,0,1-1.6-4.57q0-3.594,4.844-4.883a46.019,46.019,0,0,1,10.742-.938q3.553,0,7.148.078,3.4.119,6.328.118a3.046,3.046,0,0,1,2.129.761,4.631,4.631,0,0,1,1.25,1.914,6.993,6.993,0,0,1,.41,2.364,5.471,5.471,0,0,1-.7,2.832,2.325,2.325,0,0,1-2.148,1.191,16.451,16.451,0,0,1-2.7-.391,42.9,42.9,0,0,0-7.3-.859,7.4,7.4,0,0,0-3.2.586,4.149,4.149,0,0,0-1.758,1.445,3.125,3.125,0,0,0-.547,1.68,2.58,2.58,0,0,0,.82,1.875,2.956,2.956,0,0,0,2.188.82,11.3,11.3,0,0,0,2.793-.332q1.308-.33,2.4-.722a7.323,7.323,0,0,1,2.5-.586,2.385,2.385,0,0,1,2.149,1.406,6.034,6.034,0,0,1,.781,2.969,4.15,4.15,0,0,1-.567,2.187,1.892,1.892,0,0,1-1.738.938,10.565,10.565,0,0,1-1.7-.176q-1.036-.176-2.461-.332a31.6,31.6,0,0,0-3.379-.156,2.733,2.733,0,0,0-2.266.976,3.265,3.265,0,0,0-.781,2.071,3.614,3.614,0,0,0,.586,1.894,4.525,4.525,0,0,0,1.8,1.6,6.445,6.445,0,0,0,3.047.644h2.07a19.894,19.894,0,0,0,7.422-1.094,13.587,13.587,0,0,1,5.664-1.484,5.116,5.116,0,0,1,3.223,1.074,6.983,6.983,0,0,1,2.148,3.653,25.766,25.766,0,0,1,.762,7.031,19.738,19.738,0,0,1-1.953,9.14,17.435,17.435,0,0,1-5.2,6.172,22.381,22.381,0,0,1-7.286,3.516A30.3,30.3,0,0,1,605.8,288.844Z" transform="translate(1.448)" fill="#161615"/>
    <path id="패스_1321" data-name="패스 1321" d="M440.667,349a11.126,11.126,0,0,1-5.645-1.543,12.258,12.258,0,0,1-4.355-4.258,11.591,11.591,0,0,1-1.68-6.23,15.887,15.887,0,0,1,2.149-7.7q.821-1.443,1.64-3.281a22.225,22.225,0,0,0,1.875-8.906,3.686,3.686,0,0,0-1.035-2.7,6.437,6.437,0,0,0-2.637-1.582,10.788,10.788,0,0,0-3.4-.528,12.365,12.365,0,0,0-3.516.508,7.273,7.273,0,0,0-2.832,1.5,3.152,3.152,0,0,0-1.113,2.441,19.128,19.128,0,0,0,.645,4.981,28.21,28.21,0,0,0,1.562,4.414,35.966,35.966,0,0,0,1.777,3.457,17.132,17.132,0,0,1,2.579,8.359,10.685,10.685,0,0,1-1.543,5.762,11.178,11.178,0,0,1-4.024,3.887A10.715,10.715,0,0,1,415.745,349a16.835,16.835,0,0,1-7.988-1.7,11.575,11.575,0,0,1-4.746-4.414,11.37,11.37,0,0,1-1.563-5.762q0-3.475,3.4-12.227,1.484-3.984,2.656-7.851a25.936,25.936,0,0,0,1.172-7.539,14.84,14.84,0,0,0-2.227-8.047,7.175,7.175,0,0,1-1.25-3.516,3.487,3.487,0,0,1,1.27-2.793,8.053,8.053,0,0,1,3.281-1.582,17.634,17.634,0,0,1,8.477.02,8.756,8.756,0,0,1,3.359,1.582,3.275,3.275,0,0,1,1.309,2.656,5.631,5.631,0,0,1-1.172,3.047,4.357,4.357,0,0,0-.9,2.344,2.549,2.549,0,0,0,.977,2.031,6.409,6.409,0,0,0,2.5,1.23,12.09,12.09,0,0,0,3.164.411,10.284,10.284,0,0,0,4.258-.86,2.74,2.74,0,0,0,1.914-2.539,4.641,4.641,0,0,0-1.094-2.617,5.626,5.626,0,0,1-1.328-3.2,3.166,3.166,0,0,1,1.289-2.559,8.554,8.554,0,0,1,3.3-1.543,16.951,16.951,0,0,1,4.16-.507,17.328,17.328,0,0,1,4.3.527,8.436,8.436,0,0,1,3.379,1.621,3.582,3.582,0,0,1,1.308,2.891,7,7,0,0,1-1.094,3.359,15.031,15.031,0,0,0-1.875,7.227,24.626,24.626,0,0,0,1.387,7.949q1.386,4.082,3.145,8.261,3.945,9.221,3.945,12.774a10.868,10.868,0,0,1-1.484,5.508,11.008,11.008,0,0,1-4.551,4.2A16.493,16.493,0,0,1,440.667,349Z" transform="translate(0.371 0.586)" fill="#161615"/>
    <path id="패스_1322" data-name="패스 1322" d="M498.128,349a16.2,16.2,0,0,1-4.766-.742,14.851,14.851,0,0,1-4.453-2.227,11.513,11.513,0,0,1-3.281-3.711,10.428,10.428,0,0,1-1.25-5.2,19.035,19.035,0,0,1,2.344-8.32,15.705,15.705,0,0,0,1.914-6.6,6.484,6.484,0,0,0-.762-3.3,5.132,5.132,0,0,0-1.973-1.972,5.2,5.2,0,0,0-2.539-.664,4.866,4.866,0,0,0-4.238,2.48,5.971,5.971,0,0,0-.723,3.067,15.014,15.014,0,0,0,2.149,6.992,19.121,19.121,0,0,1,2.539,8.554,9.975,9.975,0,0,1-1.289,5.157,11.481,11.481,0,0,1-3.36,3.632,15.1,15.1,0,0,1-4.531,2.149,17.3,17.3,0,0,1-4.765.7,13.919,13.919,0,0,1-8.653-2.676,8.2,8.2,0,0,1-3.535-6.816,14.868,14.868,0,0,1,.84-4.785,39.545,39.545,0,0,1,2.168-5.118q1.328-2.636,2.812-5.332,1.641-2.889,3.086-5.8a44.631,44.631,0,0,0,2.4-5.8,17.987,17.987,0,0,0,.957-5.664,12.775,12.775,0,0,0-.508-3.555,7.394,7.394,0,0,1-.313-2.031,5.864,5.864,0,0,1,2.188-4.668,14.265,14.265,0,0,1,5.625-2.774,28.779,28.779,0,0,1,14.414,0,14.278,14.278,0,0,1,5.625,2.774,5.866,5.866,0,0,1,2.187,4.668,7.428,7.428,0,0,1-.312,2.031,12.336,12.336,0,0,0-.508,3.516,17.323,17.323,0,0,0,1,5.664,43.43,43.43,0,0,0,2.5,5.8q1.5,2.91,3.145,5.8,1.562,2.736,2.929,5.352a39.054,39.054,0,0,1,2.247,5.117,14.5,14.5,0,0,1,.878,4.8,8.2,8.2,0,0,1-3.535,6.816A13.92,13.92,0,0,1,498.128,349Zm-14.414-37.3a3.9,3.9,0,0,0,2.09-.566,1.975,1.975,0,0,0,.918-1.816,4.412,4.412,0,0,0-.352-1.563q-1.405-3.086-2.93-3.086-1.68,0-3.125,3.672a2.744,2.744,0,0,0-.156.859,2.04,2.04,0,0,0,1.133,1.836A4.7,4.7,0,0,0,483.714,311.7Z" transform="translate(0.716 0.586)" fill="#161615"/>
    <path id="패스_1323" data-name="패스 1323" d="M553.284,349a10.744,10.744,0,0,1-5.351-1.406,11.113,11.113,0,0,1-4.043-3.887,10.667,10.667,0,0,1-1.543-5.762,17.129,17.129,0,0,1,2.578-8.359,33.685,33.685,0,0,0,3.183-8.145,38.079,38.079,0,0,0,1.387-10.019q0-2.031-.82-2.227-.43,0-1.192,1.055a11.334,11.334,0,0,0-1.367,2.7,9.733,9.733,0,0,0-.605,3.4,8.432,8.432,0,0,0,.586,3.047,4.93,4.93,0,0,1,.429,1.914,3.292,3.292,0,0,1-.937,2.4,5.889,5.889,0,0,1-2.422,1.445,10.166,10.166,0,0,1-6.23,0,5.876,5.876,0,0,1-2.442-1.445,3.292,3.292,0,0,1-.937-2.4,4.913,4.913,0,0,1,.429-1.914,8.128,8.128,0,0,0,.586-3.008,9.75,9.75,0,0,0-.625-3.457,11.225,11.225,0,0,0-1.406-2.715q-.781-1.055-1.172-1.055-.742,0-.742,2.657v1.367a29.969,29.969,0,0,0,1.426,9.16,34.2,34.2,0,0,0,3.1,7.246,17.129,17.129,0,0,1,2.578,8.359,10.676,10.676,0,0,1-1.543,5.762,11.175,11.175,0,0,1-4.023,3.887A10.715,10.715,0,0,1,526.8,349a16.834,16.834,0,0,1-7.988-1.7,11.572,11.572,0,0,1-4.747-4.414,11.369,11.369,0,0,1-1.562-5.762,12.87,12.87,0,0,1,.351-2.969,93.374,93.374,0,0,1,3.047-9.375q1.524-3.945,2.676-7.793a26.014,26.014,0,0,0,1.152-7.48,16.171,16.171,0,0,0-.527-4.121,15.42,15.42,0,0,0-1.719-4,7,7,0,0,1-1.191-3.438,3.487,3.487,0,0,1,1.27-2.793,8.053,8.053,0,0,1,3.261-1.582,16.883,16.883,0,0,1,4.18-.507,15.2,15.2,0,0,1,4.629.781,8.6,8.6,0,0,1,4.121,2.851l.781,1.016q1.953,2.617,3.164,3.945a3.294,3.294,0,0,0,2.266,1.328,3.789,3.789,0,0,0,2.539-1.543q1.406-1.542,3.828-4.746a8.583,8.583,0,0,1,4.141-2.851,15.262,15.262,0,0,1,4.609-.781,16.889,16.889,0,0,1,4.18.507,8.059,8.059,0,0,1,3.261,1.582,3.49,3.49,0,0,1,1.27,2.793,7.006,7.006,0,0,1-1.191,3.438,15.326,15.326,0,0,0-1.719,4.023,16.25,16.25,0,0,0-.528,4.1,25.978,25.978,0,0,0,1.153,7.48q1.15,3.849,2.676,7.793a93.616,93.616,0,0,1,3.046,9.375,12.33,12.33,0,0,1,.352,2.93,11.41,11.41,0,0,1-6.289,10.215A16.812,16.812,0,0,1,553.284,349Z" transform="translate(1.068 0.586)" fill="#161615"/>
  </g>
</svg>
