<svg xmlns="http://www.w3.org/2000/svg" width="286.953" height="116.68" viewBox="0 0 286.953 116.68">
  <g id="그룹_794" data-name="그룹 794" transform="translate(-11.507 -232.906)">
    <path id="패스_1303" data-name="패스 1303" d="M28.148,289.078a21.654,21.654,0,0,1-8.3-1.562,13.93,13.93,0,0,1-6.074-4.629,12.5,12.5,0,0,1-2.266-7.637,20.982,20.982,0,0,1,.782-5.527q.78-2.871,1.836-5.84,1.092-3.125,1.972-6.309a23.756,23.756,0,0,0,.879-6.347,14.961,14.961,0,0,0-2.187-7.93,9.634,9.634,0,0,1-1.6-4.609q0-2.618,3.457-4.18a21.039,21.039,0,0,1,8.652-1.563,35.293,35.293,0,0,1,8.067,1,32.711,32.711,0,0,1,8.262,3.2,27.246,27.246,0,0,1,12.46,14.492,33.277,33.277,0,0,1,1.954,11.933A23,23,0,0,1,53.5,274.547a25.155,25.155,0,0,1-6.641,8.008,29.465,29.465,0,0,1-9.024,4.883A30.53,30.53,0,0,1,28.148,289.078Zm3.437-31.914a3.879,3.879,0,0,0,2.93-1.23,7.777,7.777,0,0,0,1.758-3.164,13.724,13.724,0,0,0,.586-4,14.136,14.136,0,0,0-.664-4.336,8.432,8.432,0,0,0-1.973-3.4A4.4,4.4,0,0,0,30.96,239.7a2.3,2.3,0,0,0-1.464.508,3.381,3.381,0,0,0-1,1.836,15.617,15.617,0,0,0-.352,3.789q0,7.851,1.68,10.234A2.115,2.115,0,0,0,31.585,257.164Z" fill="#161615"/>
    <path id="패스_1304" data-name="패스 1304" d="M81.937,289a21.785,21.785,0,0,1-8.145-1.582,21.256,21.256,0,0,1-7.148-4.746,22.941,22.941,0,0,1-5.078-7.93,30,30,0,0,1-1.9-11.133,43.374,43.374,0,0,1,1.875-13.437,28.7,28.7,0,0,1,5.02-9.531,21.092,21.092,0,0,1,7.09-5.684,18.566,18.566,0,0,1,8.125-1.894A18.788,18.788,0,0,1,90.042,235a21.745,21.745,0,0,1,7.188,5.723,28.393,28.393,0,0,1,5.059,9.453,41.919,41.919,0,0,1,1.875,13.164,31.091,31.091,0,0,1-1.914,11.445,22.911,22.911,0,0,1-5.118,8.008,20.719,20.719,0,0,1-7.168,4.688A22.231,22.231,0,0,1,81.937,289Zm.2-27.969a3.576,3.576,0,0,0,2.422-1.015,7.462,7.462,0,0,0,1.875-3.008,14.214,14.214,0,0,0,.742-4.922,28.093,28.093,0,0,0-.761-7.109,11.443,11.443,0,0,0-1.953-4.3,3.307,3.307,0,0,0-2.481-1.446,3.1,3.1,0,0,0-2.324,1.329,10.168,10.168,0,0,0-1.8,4,27.81,27.81,0,0,0-.684,6.739q0,4.884,1.446,7.3T82.132,261.031Z" fill="#161615"/>
    <path id="패스_1305" data-name="패스 1305" d="M142.835,289a11.52,11.52,0,0,1-6.64-2.148,16.009,16.009,0,0,1-2.051-1.641q-.567-.586-.918-.586a1.807,1.807,0,0,0-1,.605q-.645.607-2.09,1.7a10.4,10.4,0,0,1-6.25,2.07,24.418,24.418,0,0,1-9.473-1.582,11.965,11.965,0,0,1-5.546-4.355,11.358,11.358,0,0,1-1.817-6.368,25.586,25.586,0,0,1,1.035-7.187q1.035-3.553,2.364-7.031,1.25-3.282,2.207-6.524a22.581,22.581,0,0,0,.957-6.406,16.249,16.249,0,0,0-.528-4.1,14.976,14.976,0,0,0-1.757-4.043,6.945,6.945,0,0,1-1.231-3.457,3.487,3.487,0,0,1,1.27-2.793,8.052,8.052,0,0,1,3.281-1.582,17.63,17.63,0,0,1,8.476.02,8.754,8.754,0,0,1,3.36,1.582,3.274,3.274,0,0,1,1.308,2.656,5.629,5.629,0,0,1-1.171,3.047,10.208,10.208,0,0,0-1.387,3.379,18.907,18.907,0,0,0-.488,4.394,21.476,21.476,0,0,0,1.054,7.032,12.741,12.741,0,0,0,2.7,4.746,4.785,4.785,0,0,0,3.437,1.7,3.793,3.793,0,0,0,2.578-1.094,7.777,7.777,0,0,0,1.973-3.34,18.1,18.1,0,0,0,.762-5.722,35.968,35.968,0,0,0-.489-6.328,11.079,11.079,0,0,0-2.051-4.766,5.633,5.633,0,0,1-1.328-3.2,3.166,3.166,0,0,1,1.289-2.559,8.56,8.56,0,0,1,3.3-1.543,17.475,17.475,0,0,1,8.438.02,8.281,8.281,0,0,1,3.359,1.64,3.642,3.642,0,0,1,1.309,2.911,7.141,7.141,0,0,1-1.055,3.32,14.718,14.718,0,0,0-1.914,7.266,19.04,19.04,0,0,0,.781,4.98q.781,2.833,1.934,5.879t2.363,6.016q1.407,3.4,2.422,6.171a13.613,13.613,0,0,1,1.016,4.258,14.427,14.427,0,0,1-1.5,6.68,10.86,10.86,0,0,1-4.551,4.609A15.9,15.9,0,0,1,142.835,289Z" fill="#161615"/>
    <path id="패스_1306" data-name="패스 1306" d="M180.765,289.586a32.781,32.781,0,0,1-10.195-1.563,17.885,17.885,0,0,1-7.774-4.765,12.221,12.221,0,0,1-3.125-8.672,18.239,18.239,0,0,1,1.016-5.859q1.016-3.008,2.344-6.133,1.444-3.282,2.578-6.68a21.389,21.389,0,0,0,1.133-6.8,14.487,14.487,0,0,0-1.719-6.953,6.328,6.328,0,0,1-.781-2.773,4.25,4.25,0,0,1,2.031-3.633,14.462,14.462,0,0,1,5.312-2.09,34.3,34.3,0,0,1,6.993-.684,41.029,41.029,0,0,1,8.652.879,19.667,19.667,0,0,1,6.621,2.539,5,5,0,0,1,2.617,4.043q0,3.282-5.273,6.133-.937.509-1.426.82c-.326.209-.488.4-.488.586q0,.587,2.344,1.407a24.353,24.353,0,0,1,11.445,8.32,22.951,22.951,0,0,1,4.336,13.75,13.267,13.267,0,0,1-2.344,7.754,19.664,19.664,0,0,1-6.211,5.683,31.86,31.86,0,0,1-8.594,3.5A38.758,38.758,0,0,1,180.765,289.586Zm-1.211-42.617a3.73,3.73,0,0,0,1.563-.43,18.552,18.552,0,0,0,4.531-3.027,3.8,3.8,0,0,0,1.367-2.324q0-1.524-2.695-1.641a9.775,9.775,0,0,0-2.774.469,5.065,5.065,0,0,0-2.754,2.07,5.2,5.2,0,0,0-.917,2.773,2.613,2.613,0,0,0,.41,1.5A1.422,1.422,0,0,0,179.554,246.969Zm7.617,13.2a6.357,6.357,0,0,0,2.911-.488,1.423,1.423,0,0,0,.878-1.231,3.44,3.44,0,0,0-1.562-2.383,14.816,14.816,0,0,0-3.867-2.226,11.972,11.972,0,0,0-4.531-.938,3.231,3.231,0,0,0-2.266.664,2.125,2.125,0,0,0-.7,1.6,4.11,4.11,0,0,0,1.211,2.7Q181.271,260.172,187.171,260.172Z" fill="#161615"/>
    <path id="패스_1307" data-name="패스 1307" d="M231.742,289a36.442,36.442,0,0,1-10.938-1.543,19.276,19.276,0,0,1-7.832-4.375,9,9,0,0,1-2.91-6.66,9.649,9.649,0,0,1,.273-2.266,84.524,84.524,0,0,1,2.852-9.3q1.367-3.826,2.441-7.6A26.806,26.806,0,0,0,216.7,249.9a17.312,17.312,0,0,0-.547-4.316,14.5,14.5,0,0,0-1.836-4.16,6.908,6.908,0,0,1-1.289-3.555,3.409,3.409,0,0,1,1.25-2.734,8.028,8.028,0,0,1,3.242-1.563,16.722,16.722,0,0,1,4.141-.507,17.557,17.557,0,0,1,4.316.527,8.789,8.789,0,0,1,3.418,1.6,3.351,3.351,0,0,1,1.328,2.715,5.689,5.689,0,0,1-1.172,3.028,12.784,12.784,0,0,0-1.758,4.1,20.335,20.335,0,0,0-.586,4.9,21.92,21.92,0,0,0,.821,6.015,12.753,12.753,0,0,0,2.344,4.727,4.548,4.548,0,0,0,3.593,1.836q2.891,0,6.055-3.907,2.343-2.733,4.727-2.734a5.083,5.083,0,0,1,3.417,1.445,10.385,10.385,0,0,1,2.657,4.375,22.469,22.469,0,0,1,1.035,7.383q0,10.86-6.328,15.781Q240.257,289,231.742,289Z" fill="#161615"/>
    <path id="패스_1308" data-name="패스 1308" d="M275.8,288.844a34.034,34.034,0,0,1-7.754-.879,26.585,26.585,0,0,1-6.738-2.5,14.548,14.548,0,0,1-4.727-3.945,8.379,8.379,0,0,1-1.757-5.176,24.563,24.563,0,0,1,.839-6.328q.84-3.165,1.915-6.328t1.894-6.27a24,24,0,0,0,.82-6.152,15.034,15.034,0,0,0-2.187-7.969,9.442,9.442,0,0,1-1.6-4.57q0-3.594,4.844-4.883a46.025,46.025,0,0,1,10.742-.938q3.554,0,7.149.078,3.4.119,6.328.118a3.049,3.049,0,0,1,2.129.761,4.651,4.651,0,0,1,1.25,1.914,7.018,7.018,0,0,1,.41,2.364,5.471,5.471,0,0,1-.7,2.832,2.327,2.327,0,0,1-2.149,1.191,16.465,16.465,0,0,1-2.695-.391,42.886,42.886,0,0,0-7.305-.859,7.4,7.4,0,0,0-3.2.586,4.162,4.162,0,0,0-1.758,1.445,3.124,3.124,0,0,0-.546,1.68,2.581,2.581,0,0,0,.82,1.875,2.954,2.954,0,0,0,2.187.82,11.294,11.294,0,0,0,2.793-.332q1.308-.33,2.4-.722a7.313,7.313,0,0,1,2.5-.586,2.382,2.382,0,0,1,2.148,1.406,6.023,6.023,0,0,1,.781,2.969,4.149,4.149,0,0,1-.566,2.187,1.892,1.892,0,0,1-1.738.938,10.576,10.576,0,0,1-1.7-.176q-1.035-.176-2.461-.332a31.591,31.591,0,0,0-3.378-.156,2.731,2.731,0,0,0-2.266.976,3.26,3.26,0,0,0-.781,2.071,3.606,3.606,0,0,0,.586,1.894,4.518,4.518,0,0,0,1.8,1.6,6.441,6.441,0,0,0,3.046.644h2.071a19.9,19.9,0,0,0,7.422-1.094,13.588,13.588,0,0,1,5.664-1.484,5.115,5.115,0,0,1,3.222,1.074,6.983,6.983,0,0,1,2.149,3.653,25.772,25.772,0,0,1,.761,7.031,19.738,19.738,0,0,1-1.953,9.14,17.425,17.425,0,0,1-5.195,6.172,22.376,22.376,0,0,1-7.285,3.516A30.309,30.309,0,0,1,275.8,288.844Z" fill="#161615"/>
    <path id="패스_1309" data-name="패스 1309" d="M31.546,349.117a18.23,18.23,0,0,1-8.945-2.07,17.919,17.919,0,0,1-6.191-5.625,25.39,25.39,0,0,1-3.614-8.067,37.218,37.218,0,0,1-1.171-9.394,43.164,43.164,0,0,1,1.464-11.133,36.7,36.7,0,0,1,4.239-9.98,23.666,23.666,0,0,1,6.738-7.188,15.563,15.563,0,0,1,9-2.715,16.44,16.44,0,0,1,10.078,3.223,10.449,10.449,0,0,1,4.531,8.3,5.564,5.564,0,0,1-1.191,3.594,7.89,7.89,0,0,1-2.988,2.285,8.683,8.683,0,0,1-3.555.8,5.857,5.857,0,0,1-2.852-.7,3.939,3.939,0,0,1-1.836-2.187l-.234-1.133a26.456,26.456,0,0,0-.527-2.637,9.349,9.349,0,0,0-1.094-2.675,2.25,2.25,0,0,0-2.012-1.172q-1.68,0-2.715,2.578a15.622,15.622,0,0,0-1.035,5.859,17.46,17.46,0,0,0,.7,4.961,8.957,8.957,0,0,0,2.207,3.887,5.576,5.576,0,0,0,3.926,1.582,10.026,10.026,0,0,0,5.859-1.68,7.233,7.233,0,0,1,3.946-1.445,5.422,5.422,0,0,1,4.2,2.031,14.043,14.043,0,0,1,2.754,5.293,25.619,25.619,0,0,1,1.016,7.09,16.814,16.814,0,0,1-1.778,7.871,17.376,17.376,0,0,1-4.746,5.742,21.324,21.324,0,0,1-6.66,3.516A24.32,24.32,0,0,1,31.546,349.117Z" fill="#161615"/>
    <path id="패스_1310" data-name="패스 1310" d="M94.359,349a11.126,11.126,0,0,1-5.645-1.543,12.258,12.258,0,0,1-4.355-4.258,11.591,11.591,0,0,1-1.68-6.23,15.887,15.887,0,0,1,2.149-7.7q.82-1.443,1.64-3.281a22.225,22.225,0,0,0,1.875-8.906,3.686,3.686,0,0,0-1.035-2.7,6.437,6.437,0,0,0-2.637-1.582,10.788,10.788,0,0,0-3.4-.528,12.365,12.365,0,0,0-3.516.508,7.266,7.266,0,0,0-2.832,1.5,3.152,3.152,0,0,0-1.113,2.441,19.129,19.129,0,0,0,.645,4.981,28.212,28.212,0,0,0,1.562,4.414,35.968,35.968,0,0,0,1.777,3.457,17.132,17.132,0,0,1,2.579,8.359,10.685,10.685,0,0,1-1.543,5.762,11.185,11.185,0,0,1-4.024,3.887A10.715,10.715,0,0,1,69.437,349a16.834,16.834,0,0,1-7.988-1.7,11.575,11.575,0,0,1-4.746-4.414,11.37,11.37,0,0,1-1.563-5.762q0-3.475,3.4-12.227,1.483-3.984,2.656-7.851a25.936,25.936,0,0,0,1.172-7.539,14.84,14.84,0,0,0-2.227-8.047,7.175,7.175,0,0,1-1.25-3.516,3.487,3.487,0,0,1,1.27-2.793,8.052,8.052,0,0,1,3.281-1.582,17.63,17.63,0,0,1,8.476.02,8.754,8.754,0,0,1,3.36,1.582,3.274,3.274,0,0,1,1.308,2.656,5.629,5.629,0,0,1-1.171,3.047,4.357,4.357,0,0,0-.9,2.344,2.549,2.549,0,0,0,.977,2.031,6.408,6.408,0,0,0,2.5,1.23,12.09,12.09,0,0,0,3.164.411,10.284,10.284,0,0,0,4.258-.86,2.74,2.74,0,0,0,1.914-2.539,4.648,4.648,0,0,0-1.094-2.617,5.626,5.626,0,0,1-1.328-3.2,3.163,3.163,0,0,1,1.289-2.559,8.553,8.553,0,0,1,3.3-1.543,16.945,16.945,0,0,1,4.16-.507,17.328,17.328,0,0,1,4.3.527,8.442,8.442,0,0,1,3.379,1.621,3.582,3.582,0,0,1,1.308,2.891,7,7,0,0,1-1.094,3.359,15.031,15.031,0,0,0-1.875,7.227,24.626,24.626,0,0,0,1.387,7.949q1.386,4.082,3.145,8.261,3.945,9.221,3.945,12.774a10.868,10.868,0,0,1-1.484,5.508,11.008,11.008,0,0,1-4.551,4.2A16.493,16.493,0,0,1,94.359,349Z" fill="#161615"/>
    <path id="패스_1311" data-name="패스 1311" d="M132.25,348.844a34.021,34.021,0,0,1-7.754-.879,26.578,26.578,0,0,1-6.739-2.5,14.544,14.544,0,0,1-4.726-3.945,8.374,8.374,0,0,1-1.758-5.176,24.522,24.522,0,0,1,.84-6.328q.838-3.165,1.914-6.328t1.894-6.27a24.006,24.006,0,0,0,.821-6.152,15.035,15.035,0,0,0-2.188-7.969,9.439,9.439,0,0,1-1.6-4.57q0-3.594,4.843-4.883a46.029,46.029,0,0,1,10.743-.938q3.554,0,7.148.078,3.4.118,6.328.118a3.048,3.048,0,0,1,2.129.761,4.631,4.631,0,0,1,1.25,1.914,7.017,7.017,0,0,1,.41,2.364,5.471,5.471,0,0,1-.7,2.832,2.326,2.326,0,0,1-2.148,1.191,16.474,16.474,0,0,1-2.7-.391,42.874,42.874,0,0,0-7.3-.859,7.4,7.4,0,0,0-3.2.586,4.15,4.15,0,0,0-1.758,1.445,3.117,3.117,0,0,0-.547,1.68,2.581,2.581,0,0,0,.82,1.875,2.956,2.956,0,0,0,2.188.82,11.3,11.3,0,0,0,2.793-.332q1.308-.33,2.4-.722a7.324,7.324,0,0,1,2.5-.586,2.382,2.382,0,0,1,2.148,1.406,6.024,6.024,0,0,1,.782,2.969,4.15,4.15,0,0,1-.567,2.187,1.892,1.892,0,0,1-1.738.938,10.565,10.565,0,0,1-1.7-.176q-1.037-.176-2.461-.332a31.6,31.6,0,0,0-3.379-.156,2.733,2.733,0,0,0-2.266.976,3.265,3.265,0,0,0-.781,2.071,3.606,3.606,0,0,0,.586,1.894,4.525,4.525,0,0,0,1.8,1.6,6.442,6.442,0,0,0,3.047.644h2.07a19.893,19.893,0,0,0,7.422-1.094,13.588,13.588,0,0,1,5.664-1.484A5.116,5.116,0,0,1,152,318.2a6.989,6.989,0,0,1,2.148,3.653,25.766,25.766,0,0,1,.762,7.031,19.751,19.751,0,0,1-1.953,9.14,17.438,17.438,0,0,1-5.2,6.172,22.376,22.376,0,0,1-7.285,3.516A30.3,30.3,0,0,1,132.25,348.844Z" fill="#161615"/>
    <path id="패스_1312" data-name="패스 1312" d="M178.7,348.844a34.034,34.034,0,0,1-7.754-.879,26.557,26.557,0,0,1-6.738-2.5,14.538,14.538,0,0,1-4.727-3.945,8.374,8.374,0,0,1-1.758-5.176,24.565,24.565,0,0,1,.84-6.328q.84-3.165,1.914-6.328t1.9-6.27a24,24,0,0,0,.82-6.152A15.034,15.034,0,0,0,161,303.3a9.432,9.432,0,0,1-1.6-4.57q0-3.594,4.844-4.883a46.025,46.025,0,0,1,10.742-.938q3.554,0,7.148.078,3.4.118,6.328.118a3.046,3.046,0,0,1,2.129.761,4.631,4.631,0,0,1,1.25,1.914,6.993,6.993,0,0,1,.411,2.364,5.472,5.472,0,0,1-.7,2.832,2.325,2.325,0,0,1-2.148,1.191,16.452,16.452,0,0,1-2.695-.391,42.894,42.894,0,0,0-7.305-.859,7.4,7.4,0,0,0-3.2.586,4.149,4.149,0,0,0-1.758,1.445,3.125,3.125,0,0,0-.547,1.68,2.584,2.584,0,0,0,.82,1.875,2.956,2.956,0,0,0,2.188.82,11.3,11.3,0,0,0,2.793-.332q1.308-.33,2.4-.722a7.324,7.324,0,0,1,2.5-.586,2.385,2.385,0,0,1,2.149,1.406,6.034,6.034,0,0,1,.781,2.969,4.159,4.159,0,0,1-.566,2.187,1.892,1.892,0,0,1-1.739.938,10.565,10.565,0,0,1-1.7-.176q-1.035-.176-2.461-.332a31.6,31.6,0,0,0-3.379-.156,2.73,2.73,0,0,0-2.265.976,3.261,3.261,0,0,0-.782,2.071,3.614,3.614,0,0,0,.586,1.894,4.532,4.532,0,0,0,1.8,1.6,6.445,6.445,0,0,0,3.047.644h2.07a19.893,19.893,0,0,0,7.422-1.094,13.591,13.591,0,0,1,5.664-1.484,5.116,5.116,0,0,1,3.223,1.074,6.976,6.976,0,0,1,2.148,3.653,25.767,25.767,0,0,1,.762,7.031,19.738,19.738,0,0,1-1.953,9.14A17.435,17.435,0,0,1,194.2,344.2a22.371,22.371,0,0,1-7.286,3.516A30.3,30.3,0,0,1,178.7,348.844Z" fill="#161615"/>
    <path id="패스_1313" data-name="패스 1313" d="M226.2,349.586a30.938,30.938,0,0,1-8.164-1.074,21.565,21.565,0,0,1-7.051-3.321,16.451,16.451,0,0,1-4.941-5.7,17.375,17.375,0,0,1-1.836-8.261,18.057,18.057,0,0,1,.957-5.938,11.95,11.95,0,0,1,2.617-4.492,5.073,5.073,0,0,1,3.73-1.719,6.165,6.165,0,0,1,3.594,1.367,14.25,14.25,0,0,0,8.242,3.086,5.759,5.759,0,0,0,3.028-.7,2,2,0,0,0,1.152-1.68q0-1.131-1.895-2.4a18.132,18.132,0,0,0-6.269-2.129,27.7,27.7,0,0,1-5.918-1.738,15.293,15.293,0,0,1-5.332-3.594,8.635,8.635,0,0,1-2.344-5.918,8.456,8.456,0,0,1,1.817-5.39,14.116,14.116,0,0,1,4.843-3.829,26.93,26.93,0,0,1,6.8-2.285,38.638,38.638,0,0,1,7.676-.761,35.825,35.825,0,0,1,9.668,1.25,17.3,17.3,0,0,1,7.187,3.75,8.4,8.4,0,0,1,2.793,6.25,5.24,5.24,0,0,1-.976,3.222,6.324,6.324,0,0,1-2.461,1.992,7.212,7.212,0,0,1-3.047.684,5.7,5.7,0,0,1-2.91-.781,4.215,4.215,0,0,1-1.895-2.344,7.851,7.851,0,0,0-2.949-4.18,7.206,7.206,0,0,0-3.926-1.211,7.781,7.781,0,0,0-4.277,1.211q-1.9,1.212-1.895,2.657a2.567,2.567,0,0,0,1.387,2.031,11.711,11.711,0,0,0,4.668,1.406,34.044,34.044,0,0,1,12.949,4.121A19.53,19.53,0,0,1,248.6,320.6a19.812,19.812,0,0,1,2.363,9.492,16.247,16.247,0,0,1-2.168,8.457,19.126,19.126,0,0,1-5.742,6.094,27.231,27.231,0,0,1-7.968,3.691A32.354,32.354,0,0,1,226.2,349.586Z" fill="#161615"/>
    <path id="패스_1314" data-name="패스 1314" d="M275.14,348.844a34.034,34.034,0,0,1-7.754-.879,26.571,26.571,0,0,1-6.738-2.5,14.538,14.538,0,0,1-4.727-3.945,8.379,8.379,0,0,1-1.757-5.176,24.563,24.563,0,0,1,.839-6.328q.84-3.165,1.914-6.328t1.9-6.27a24,24,0,0,0,.82-6.152,15.034,15.034,0,0,0-2.187-7.969,9.432,9.432,0,0,1-1.6-4.57q0-3.594,4.844-4.883a46.025,46.025,0,0,1,10.742-.938q3.554,0,7.149.078,3.4.118,6.328.118a3.049,3.049,0,0,1,2.129.761,4.651,4.651,0,0,1,1.25,1.914,7.017,7.017,0,0,1,.41,2.364,5.481,5.481,0,0,1-.7,2.832,2.327,2.327,0,0,1-2.149,1.191,16.467,16.467,0,0,1-2.695-.391,42.883,42.883,0,0,0-7.305-.859,7.4,7.4,0,0,0-3.2.586,4.162,4.162,0,0,0-1.758,1.445,3.125,3.125,0,0,0-.547,1.68,2.582,2.582,0,0,0,.821,1.875,2.954,2.954,0,0,0,2.187.82,11.3,11.3,0,0,0,2.793-.332q1.308-.33,2.4-.722a7.314,7.314,0,0,1,2.5-.586,2.382,2.382,0,0,1,2.148,1.406,6.023,6.023,0,0,1,.781,2.969,4.149,4.149,0,0,1-.566,2.187,1.892,1.892,0,0,1-1.738.938,10.576,10.576,0,0,1-1.7-.176q-1.035-.176-2.461-.332a31.591,31.591,0,0,0-3.378-.156,2.731,2.731,0,0,0-2.266.976,3.26,3.26,0,0,0-.781,2.071,3.606,3.606,0,0,0,.586,1.894,4.522,4.522,0,0,0,1.8,1.6,6.448,6.448,0,0,0,3.047.644h2.071A19.9,19.9,0,0,0,286,318.609a13.588,13.588,0,0,1,5.664-1.484,5.115,5.115,0,0,1,3.222,1.074,6.983,6.983,0,0,1,2.149,3.653,25.812,25.812,0,0,1,.761,7.031,19.738,19.738,0,0,1-1.953,9.14,17.425,17.425,0,0,1-5.195,6.172,22.376,22.376,0,0,1-7.285,3.516A30.314,30.314,0,0,1,275.14,348.844Z" fill="#161615"/>
  </g>
</svg>
