<svg xmlns="http://www.w3.org/2000/svg" width="218.633" height="116.68" viewBox="0 0 218.633 116.68">
  <g id="그룹_798" data-name="그룹 798" transform="translate(-651.297 -42.32)">
    <path id="패스_1343" data-name="패스 1343" d="M731.512,99a16.2,16.2,0,0,1-4.766-.742,14.838,14.838,0,0,1-4.453-2.227,11.5,11.5,0,0,1-3.281-3.711,10.427,10.427,0,0,1-1.25-5.195,19.046,19.046,0,0,1,2.343-8.32,15.7,15.7,0,0,0,1.915-6.6,6.484,6.484,0,0,0-.762-3.3,5.132,5.132,0,0,0-1.973-1.972,5.2,5.2,0,0,0-2.539-.664,4.866,4.866,0,0,0-4.238,2.48,5.961,5.961,0,0,0-.723,3.067,15.013,15.013,0,0,0,2.149,6.992,19.122,19.122,0,0,1,2.539,8.554,9.975,9.975,0,0,1-1.289,5.157,11.482,11.482,0,0,1-3.36,3.632,15.109,15.109,0,0,1-4.531,2.149,17.316,17.316,0,0,1-4.766.7,13.916,13.916,0,0,1-8.652-2.676,8.2,8.2,0,0,1-3.535-6.816,14.869,14.869,0,0,1,.84-4.785,39.536,39.536,0,0,1,2.168-5.118q1.326-2.636,2.812-5.332,1.641-2.889,3.086-5.8a44.483,44.483,0,0,0,2.4-5.8,17.958,17.958,0,0,0,.957-5.664,12.776,12.776,0,0,0-.507-3.555,7.392,7.392,0,0,1-.313-2.031,5.864,5.864,0,0,1,2.188-4.668A14.265,14.265,0,0,1,709.6,43.98a28.779,28.779,0,0,1,14.414,0,14.279,14.279,0,0,1,5.625,2.774,5.866,5.866,0,0,1,2.187,4.668,7.43,7.43,0,0,1-.312,2.031A12.334,12.334,0,0,0,731,56.969a17.323,17.323,0,0,0,1,5.664,43.431,43.431,0,0,0,2.5,5.8q1.5,2.91,3.145,5.8,1.561,2.736,2.929,5.352A39.176,39.176,0,0,1,742.82,84.7a14.471,14.471,0,0,1,.879,4.805,8.2,8.2,0,0,1-3.535,6.816A13.92,13.92,0,0,1,731.512,99ZM717.1,61.695a3.892,3.892,0,0,0,2.089-.566,1.973,1.973,0,0,0,.918-1.816,4.409,4.409,0,0,0-.351-1.563q-1.407-3.085-2.93-3.086-1.68,0-3.125,3.672a2.743,2.743,0,0,0-.156.859,2.039,2.039,0,0,0,1.133,1.836A4.7,4.7,0,0,0,717.1,61.695Z" fill="#161615"/>
    <path id="패스_1344" data-name="패스 1344" d="M763.582,99.742a22.6,22.6,0,0,1-7.773-1.347,15.088,15.088,0,0,1-6.153-4.043,11.338,11.338,0,0,1-2.832-6.719q-.234-3.828-.234-7.969V76.5q0-3.867-.235-8.164-.625-10.273-6.015-15.313-2.852-2.616-2.852-4.882a3.975,3.975,0,0,1,1.524-3.106,10.463,10.463,0,0,1,3.867-2.012,16.518,16.518,0,0,1,4.766-.7,12.772,12.772,0,0,1,3.73.528,6.545,6.545,0,0,1,2.832,1.64,3.925,3.925,0,0,1,1.094,2.871,7.7,7.7,0,0,1-.235,1.8,9.971,9.971,0,0,0-.312,2.578q0,5.2,3.281,11.68a57.744,57.744,0,0,0,3.125,5.8q1.25,1.934,2.344,1.933,1.054,0,2.3-1.855a54.788,54.788,0,0,0,3.125-5.566,36.862,36.862,0,0,0,2.48-6.192,20.562,20.562,0,0,0,.918-5.8,10.013,10.013,0,0,0-.312-2.578,7.7,7.7,0,0,1-.235-1.8,3.885,3.885,0,0,1,1.055-2.812,6.345,6.345,0,0,1,2.773-1.621,12.437,12.437,0,0,1,3.672-.528,16.433,16.433,0,0,1,4.824.723,10.749,10.749,0,0,1,3.926,2.07,4.089,4.089,0,0,1,1.563,3.184,4.762,4.762,0,0,1-.684,2.285,10.852,10.852,0,0,1-2.168,2.6,17.133,17.133,0,0,0-4.726,7.383A42.815,42.815,0,0,0,780.1,71.734q-.39,6.6-.39,15.9a10,10,0,0,1-1.387,5.293,11.855,11.855,0,0,1-3.672,3.789,17.37,17.37,0,0,1-5.176,2.265A23.041,23.041,0,0,1,763.582,99.742Z" fill="#161615"/>
    <path id="패스_1345" data-name="패스 1345" d="M808.582,99a21.784,21.784,0,0,1-8.145-1.582,21.256,21.256,0,0,1-7.148-4.746,22.941,22.941,0,0,1-5.078-7.93,30,30,0,0,1-1.9-11.133,43.374,43.374,0,0,1,1.875-13.437,28.7,28.7,0,0,1,5.02-9.531,21.092,21.092,0,0,1,7.09-5.684,18.566,18.566,0,0,1,8.125-1.894A18.788,18.788,0,0,1,816.687,45a21.745,21.745,0,0,1,7.188,5.723,28.393,28.393,0,0,1,5.059,9.453,41.919,41.919,0,0,1,1.875,13.164A31.092,31.092,0,0,1,828.9,84.781a22.911,22.911,0,0,1-5.118,8.008,20.719,20.719,0,0,1-7.168,4.688A22.232,22.232,0,0,1,808.582,99Zm.2-27.969a3.576,3.576,0,0,0,2.422-1.015,7.462,7.462,0,0,0,1.875-3.008,14.214,14.214,0,0,0,.742-4.922,28.092,28.092,0,0,0-.761-7.109,11.427,11.427,0,0,0-1.953-4.3,3.307,3.307,0,0,0-2.481-1.446,3.1,3.1,0,0,0-2.324,1.329,10.168,10.168,0,0,0-1.8,4,27.81,27.81,0,0,0-.684,6.739q0,4.884,1.446,7.3T808.777,71.031Z" fill="#161615"/>
    <path id="패스_1346" data-name="패스 1346" d="M692.078,159a10.744,10.744,0,0,1-5.351-1.406,11.112,11.112,0,0,1-4.043-3.887,10.667,10.667,0,0,1-1.543-5.762,17.129,17.129,0,0,1,2.578-8.359,33.685,33.685,0,0,0,3.183-8.145,38.079,38.079,0,0,0,1.387-10.019q0-2.031-.82-2.227-.43,0-1.192,1.055a11.3,11.3,0,0,0-1.367,2.695,9.734,9.734,0,0,0-.6,3.4,8.432,8.432,0,0,0,.586,3.047,4.93,4.93,0,0,1,.429,1.914,3.292,3.292,0,0,1-.937,2.4,5.889,5.889,0,0,1-2.422,1.445,10.169,10.169,0,0,1-6.231,0,5.879,5.879,0,0,1-2.441-1.445,3.292,3.292,0,0,1-.937-2.4,4.912,4.912,0,0,1,.429-1.914,8.128,8.128,0,0,0,.586-3.008,9.75,9.75,0,0,0-.625-3.457,11.225,11.225,0,0,0-1.406-2.715q-.783-1.054-1.172-1.055-.742,0-.742,2.657v1.367a29.937,29.937,0,0,0,1.426,9.16,34.2,34.2,0,0,0,3.1,7.246,17.129,17.129,0,0,1,2.578,8.359,10.676,10.676,0,0,1-1.543,5.762,11.175,11.175,0,0,1-4.023,3.887A10.715,10.715,0,0,1,665.594,159a16.841,16.841,0,0,1-7.989-1.7,11.575,11.575,0,0,1-4.746-4.414,11.369,11.369,0,0,1-1.562-5.762,12.87,12.87,0,0,1,.351-2.969,93.374,93.374,0,0,1,3.047-9.375q1.524-3.945,2.676-7.793a26.012,26.012,0,0,0,1.152-7.48,16.168,16.168,0,0,0-.527-4.121,15.418,15.418,0,0,0-1.719-4,7,7,0,0,1-1.191-3.438,3.489,3.489,0,0,1,1.269-2.793,8.064,8.064,0,0,1,3.262-1.582,16.884,16.884,0,0,1,4.18-.507,15.2,15.2,0,0,1,4.629.781,8.6,8.6,0,0,1,4.121,2.851l.781,1.016q1.953,2.618,3.164,3.945a3.294,3.294,0,0,0,2.266,1.328,3.789,3.789,0,0,0,2.539-1.543q1.406-1.542,3.828-4.746a8.583,8.583,0,0,1,4.141-2.851,15.261,15.261,0,0,1,4.609-.781,16.89,16.89,0,0,1,4.18.507,8.06,8.06,0,0,1,3.261,1.582,3.49,3.49,0,0,1,1.27,2.793,7.016,7.016,0,0,1-1.191,3.438,15.324,15.324,0,0,0-1.719,4.023,16.247,16.247,0,0,0-.528,4.1,25.978,25.978,0,0,0,1.153,7.48q1.15,3.849,2.676,7.793a93.867,93.867,0,0,1,3.046,9.375,12.33,12.33,0,0,1,.352,2.93,11.415,11.415,0,0,1-6.289,10.215A16.811,16.811,0,0,1,692.078,159Z" fill="#161615"/>
    <path id="패스_1347" data-name="패스 1347" d="M745.437,159a11.52,11.52,0,0,1-6.64-2.148,16.013,16.013,0,0,1-2.051-1.641q-.567-.586-.918-.586a1.807,1.807,0,0,0-1,.6q-.645.607-2.09,1.7a10.4,10.4,0,0,1-6.25,2.07,24.409,24.409,0,0,1-9.472-1.582,11.963,11.963,0,0,1-5.547-4.355,11.358,11.358,0,0,1-1.817-6.368,25.586,25.586,0,0,1,1.035-7.187q1.035-3.553,2.364-7.031,1.25-3.282,2.207-6.524a22.583,22.583,0,0,0,.957-6.406,16.247,16.247,0,0,0-.528-4.1,14.974,14.974,0,0,0-1.757-4.043,6.945,6.945,0,0,1-1.231-3.457,3.487,3.487,0,0,1,1.27-2.793,8.052,8.052,0,0,1,3.281-1.582,17.63,17.63,0,0,1,8.476.02,8.754,8.754,0,0,1,3.36,1.582,3.274,3.274,0,0,1,1.308,2.656,5.629,5.629,0,0,1-1.171,3.047,10.208,10.208,0,0,0-1.387,3.379,18.9,18.9,0,0,0-.488,4.394,21.476,21.476,0,0,0,1.054,7.032,12.741,12.741,0,0,0,2.7,4.746,4.785,4.785,0,0,0,3.437,1.7,3.793,3.793,0,0,0,2.578-1.094,7.777,7.777,0,0,0,1.973-3.34,18.1,18.1,0,0,0,.762-5.722,35.966,35.966,0,0,0-.489-6.328,11.067,11.067,0,0,0-2.051-4.766,5.633,5.633,0,0,1-1.328-3.2,3.166,3.166,0,0,1,1.289-2.559,8.56,8.56,0,0,1,3.3-1.543,17.475,17.475,0,0,1,8.438.02,8.281,8.281,0,0,1,3.359,1.64,3.642,3.642,0,0,1,1.309,2.911,7.141,7.141,0,0,1-1.055,3.32,14.718,14.718,0,0,0-1.914,7.266,19.04,19.04,0,0,0,.781,4.98q.781,2.833,1.934,5.879t2.363,6.016q1.407,3.4,2.422,6.171a13.613,13.613,0,0,1,1.016,4.258,14.427,14.427,0,0,1-1.5,6.68,10.86,10.86,0,0,1-4.551,4.609A15.9,15.9,0,0,1,745.437,159Z" fill="#161615"/>
    <path id="패스_1348" data-name="패스 1348" d="M802.781,159a10.744,10.744,0,0,1-5.351-1.406,11.112,11.112,0,0,1-4.043-3.887,10.667,10.667,0,0,1-1.543-5.762,17.129,17.129,0,0,1,2.578-8.359,33.685,33.685,0,0,0,3.183-8.145,38.079,38.079,0,0,0,1.387-10.019q0-2.031-.82-2.227-.43,0-1.192,1.055a11.337,11.337,0,0,0-1.367,2.695,9.734,9.734,0,0,0-.6,3.4,8.432,8.432,0,0,0,.586,3.047,4.93,4.93,0,0,1,.429,1.914,3.292,3.292,0,0,1-.937,2.4,5.889,5.889,0,0,1-2.422,1.445,10.166,10.166,0,0,1-6.23,0,5.876,5.876,0,0,1-2.442-1.445,3.292,3.292,0,0,1-.937-2.4,4.912,4.912,0,0,1,.429-1.914,8.128,8.128,0,0,0,.586-3.008,9.75,9.75,0,0,0-.625-3.457,11.191,11.191,0,0,0-1.406-2.715q-.781-1.054-1.172-1.055-.742,0-.742,2.657v1.367a29.967,29.967,0,0,0,1.426,9.16,34.2,34.2,0,0,0,3.1,7.246,17.129,17.129,0,0,1,2.578,8.359,10.676,10.676,0,0,1-1.543,5.762,11.175,11.175,0,0,1-4.023,3.887A10.715,10.715,0,0,1,776.3,159a16.834,16.834,0,0,1-7.988-1.7,11.584,11.584,0,0,1-4.747-4.414A11.379,11.379,0,0,1,762,147.125a12.818,12.818,0,0,1,.352-2.969,93.366,93.366,0,0,1,3.046-9.375q1.524-3.945,2.676-7.793a26.014,26.014,0,0,0,1.153-7.48,16.169,16.169,0,0,0-.528-4.121,15.418,15.418,0,0,0-1.719-4,7.006,7.006,0,0,1-1.191-3.438,3.487,3.487,0,0,1,1.27-2.793,8.053,8.053,0,0,1,3.261-1.582,16.884,16.884,0,0,1,4.18-.507,15.2,15.2,0,0,1,4.629.781,8.6,8.6,0,0,1,4.121,2.851l.781,1.016q1.953,2.618,3.164,3.945a3.294,3.294,0,0,0,2.266,1.328A3.789,3.789,0,0,0,792,111.441q1.406-1.542,3.828-4.746a8.583,8.583,0,0,1,4.141-2.851,15.266,15.266,0,0,1,4.609-.781,16.89,16.89,0,0,1,4.18.507,8.071,8.071,0,0,1,3.262,1.582,3.492,3.492,0,0,1,1.269,2.793,7.006,7.006,0,0,1-1.191,3.438,15.324,15.324,0,0,0-1.719,4.023,16.246,16.246,0,0,0-.527,4.1,25.976,25.976,0,0,0,1.152,7.48q1.15,3.849,2.676,7.793a93.876,93.876,0,0,1,3.047,9.375,12.379,12.379,0,0,1,.351,2.93,11.41,11.41,0,0,1-6.289,10.215A16.811,16.811,0,0,1,802.781,159Z" fill="#161615"/>
    <path id="패스_1349" data-name="패스 1349" d="M856.141,159a11.521,11.521,0,0,1-6.641-2.148,16.013,16.013,0,0,1-2.051-1.641c-.378-.391-.683-.586-.918-.586a1.807,1.807,0,0,0-1,.6q-.645.607-2.09,1.7A10.4,10.4,0,0,1,837.2,159a24.409,24.409,0,0,1-9.472-1.582,11.963,11.963,0,0,1-5.547-4.355,11.358,11.358,0,0,1-1.817-6.368,25.55,25.55,0,0,1,1.036-7.187q1.033-3.553,2.363-7.031,1.25-3.282,2.207-6.524a22.546,22.546,0,0,0,.957-6.406,16.3,16.3,0,0,0-.527-4.1,15.012,15.012,0,0,0-1.758-4.043,6.945,6.945,0,0,1-1.231-3.457,3.487,3.487,0,0,1,1.27-2.793,8.052,8.052,0,0,1,3.281-1.582,17.635,17.635,0,0,1,8.477.02,8.757,8.757,0,0,1,3.359,1.582,3.275,3.275,0,0,1,1.309,2.656,5.631,5.631,0,0,1-1.172,3.047,10.208,10.208,0,0,0-1.387,3.379,18.9,18.9,0,0,0-.488,4.394,21.476,21.476,0,0,0,1.054,7.032,12.741,12.741,0,0,0,2.7,4.746,4.785,4.785,0,0,0,3.437,1.7,3.793,3.793,0,0,0,2.578-1.094,7.777,7.777,0,0,0,1.973-3.34,18.1,18.1,0,0,0,.762-5.722,35.867,35.867,0,0,0-.489-6.328,11.078,11.078,0,0,0-2.05-4.766,5.629,5.629,0,0,1-1.329-3.2,3.164,3.164,0,0,1,1.29-2.559,8.556,8.556,0,0,1,3.3-1.543,17.475,17.475,0,0,1,8.438.02,8.281,8.281,0,0,1,3.359,1.64,3.642,3.642,0,0,1,1.309,2.911,7.141,7.141,0,0,1-1.055,3.32,14.718,14.718,0,0,0-1.914,7.266,19.04,19.04,0,0,0,.781,4.98q.781,2.833,1.934,5.879t2.363,6.016q1.407,3.4,2.422,6.171a13.613,13.613,0,0,1,1.016,4.258,14.427,14.427,0,0,1-1.5,6.68,10.86,10.86,0,0,1-4.551,4.609A15.892,15.892,0,0,1,856.141,159Z" fill="#161615"/>
  </g>
</svg>
