<svg xmlns="http://www.w3.org/2000/svg" width="247.847" height="116.68" viewBox="0 0 247.847 116.68">
  <g id="그룹_792" data-name="그룹 792" transform="translate(-21.879 -42.867)">
    <path id="패스_1288" data-name="패스 1288" d="M97.68,99a17.377,17.377,0,0,1-8.672-1.934,12.329,12.329,0,0,1-5.02-5.058,14.455,14.455,0,0,1-1.621-6.758,20.816,20.816,0,0,1,.781-5.508q.781-2.85,1.836-5.82,1.093-3.125,1.954-6.309a24.3,24.3,0,0,0,.859-6.347A15.035,15.035,0,0,0,85.609,53.3a8.145,8.145,0,0,1-1.367-3.984q0-3.789,6.25-5.274a56.132,56.132,0,0,1,12.656-1.133q3.672,0,6.68.117,2.031.08,3.281.079a2.994,2.994,0,0,1,2.09.761,4.788,4.788,0,0,1,1.27,1.934,6.884,6.884,0,0,1,.429,2.383,5.416,5.416,0,0,1-.7,2.773,2.254,2.254,0,0,1-2.07,1.211,3.319,3.319,0,0,1-.977-.156,19.587,19.587,0,0,0-4.433-.9q-2.286-.2-5.645-.195a4.747,4.747,0,0,0-2.558.625,4.205,4.205,0,0,0-1.485,1.5,3.489,3.489,0,0,0-.488,1.7A2.444,2.444,0,0,0,99.3,56.6a3.026,3.026,0,0,0,2.168.722,11.2,11.2,0,0,0,2.656-.312q1.289-.312,2.422-.7a8.673,8.673,0,0,1,2.812-.625,2.255,2.255,0,0,1,2.032,1.425,6.326,6.326,0,0,1,.742,2.95,4.589,4.589,0,0,1-.508,2.148,1.689,1.689,0,0,1-1.6.977,11.709,11.709,0,0,1-2.109-.235,15.882,15.882,0,0,0-3.906-.429,11.391,11.391,0,0,0-3.418.371,1.486,1.486,0,0,0-1.074,1.543,7.682,7.682,0,0,0,1.367,3.554,15.3,15.3,0,0,0,2.344,3.145q1.406,1.464,3.007,2.91,1.953,1.758,3.789,3.77a18.035,18.035,0,0,1,3.028,4.57,14.185,14.185,0,0,1,1.191,6.035,8.009,8.009,0,0,1-2.383,6,14.667,14.667,0,0,1-6.172,3.457A27.782,27.782,0,0,1,97.68,99Z" transform="translate(-0.023)" fill="#161615"/>
    <path id="패스_1289" data-name="패스 1289" d="M132.289,99a16.935,16.935,0,0,1-8.105-1.738,11.914,11.914,0,0,1-4.825-4.512,11.535,11.535,0,0,1-1.6-5.859,12.2,12.2,0,0,1,.312-2.735,85.438,85.438,0,0,1,2.852-9.258q1.367-3.827,2.441-7.617a27,27,0,0,0,1.074-7.383,17.311,17.311,0,0,0-.546-4.316,14.523,14.523,0,0,0-1.836-4.16,6.908,6.908,0,0,1-1.289-3.555,3.468,3.468,0,0,1,1.25-2.754,7.7,7.7,0,0,1,3.222-1.562,17.28,17.28,0,0,1,4.16-.488,15.532,15.532,0,0,1,6.329,1.289,33.972,33.972,0,0,1,9.414-1.485,21.027,21.027,0,0,1,9.57,2.012,15.949,15.949,0,0,1,6.094,5.059,10.862,10.862,0,0,1,2.109,6.25,8.629,8.629,0,0,1-1.113,4.238,9.535,9.535,0,0,1-3.457,3.457,45.39,45.39,0,0,0-3.926,2.637q-1.271,1-1.27,1.66,0,.508.743.937a11.841,11.841,0,0,0,2.187.9q5.469,2.07,9.3,8.281A23.278,23.278,0,0,1,169.2,90.563a7.183,7.183,0,0,1-1.6,4.863,8.994,8.994,0,0,1-4.161,2.676,17.641,17.641,0,0,1-5.41.82q-6.329,0-9.531-2.07a6.268,6.268,0,0,1-3.2-5.469l.039-6.055a46.364,46.364,0,0,0-.508-7.07,10.681,10.681,0,0,0-2.6-5.371q-1.895-1.973-3.3-1.973a1.371,1.371,0,0,0-1.035.43,1.927,1.927,0,0,0-.411,1.367q0,2.226,2.813,6.875a16.458,16.458,0,0,1,2.734,8.594,10.52,10.52,0,0,1-1.5,5.664,10.786,10.786,0,0,1-3.945,3.789A10.652,10.652,0,0,1,132.289,99Zm5.9-40.469a14.319,14.319,0,0,0,2.852-.351,12.933,12.933,0,0,0,5.293-2.227,3.7,3.7,0,0,0,1.621-2.656,2.559,2.559,0,0,0-1.25-2.129,5.816,5.816,0,0,0-3.4-.879,11.628,11.628,0,0,0-2.032.195,9.615,9.615,0,0,0-4.687,2.422,4.919,4.919,0,0,0-1.8,3.36,2,2,0,0,0,.8,1.621A4.157,4.157,0,0,0,138.187,58.531Z" transform="translate(-0.04)" fill="#161615"/>
    <path id="패스_1290" data-name="패스 1290" d="M189.516,99.313a18.116,18.116,0,0,1-6.641-1.25,12.79,12.79,0,0,1-5.254-3.692A9.121,9.121,0,0,1,175.57,88.3a22.241,22.241,0,0,1,1.231-6.914,48.5,48.5,0,0,1,3.144-7.188,17.117,17.117,0,0,0,2.266-7.617q0-7.07-11.289-7.07a4.886,4.886,0,0,1-3.223-1.153,7.6,7.6,0,0,1-2.148-2.968,9.75,9.75,0,0,1-.762-3.809,9.123,9.123,0,0,1,.957-4.062,7.684,7.684,0,0,1,3.027-3.2,10.4,10.4,0,0,1,5.43-1.25,7.292,7.292,0,0,1,3.926,1.054,11.922,11.922,0,0,1,3.027,2.715,22.735,22.735,0,0,1,2.364,3.633q1.033,1.972,1.933,3.887.938,2.031,1.8,3.593.663,1.212,1.172,1.211.546,0,1.23-1.269T191.2,54.9q.976-1.912,2.129-3.964a26.178,26.178,0,0,1,2.617-3.829,13.413,13.413,0,0,1,3.3-2.91,7.726,7.726,0,0,1,4.141-1.132,10.4,10.4,0,0,1,5.429,1.25,7.68,7.68,0,0,1,3.028,3.2,9.123,9.123,0,0,1,.957,4.062,9.75,9.75,0,0,1-.762,3.809,7.691,7.691,0,0,1-2.129,2.968,4.867,4.867,0,0,1-3.242,1.153,16.035,16.035,0,0,0-6.445,1.094,7.5,7.5,0,0,0-3.594,3.046,8.786,8.786,0,0,0-1.133,4.493,10.835,10.835,0,0,0,1.055,4.531q1.055,2.306,2.422,4.687,1.445,2.541,2.617,5.157a12.888,12.888,0,0,1,1.172,5.312,10.536,10.536,0,0,1-1.934,6.563,11.3,11.3,0,0,1-4.98,3.73A17.216,17.216,0,0,1,189.516,99.313Z" transform="translate(-0.059)" fill="#161615"/>
    <path id="패스_1291" data-name="패스 1291" d="M42.973,159.586a32.787,32.787,0,0,1-10.2-1.563A17.876,17.876,0,0,1,25,153.258a12.221,12.221,0,0,1-3.125-8.672,18.239,18.239,0,0,1,1.016-5.859q1.014-3.008,2.343-6.133,1.444-3.282,2.578-6.68a21.389,21.389,0,0,0,1.133-6.8,14.475,14.475,0,0,0-1.719-6.953,6.342,6.342,0,0,1-.781-2.773,4.252,4.252,0,0,1,2.031-3.633,14.467,14.467,0,0,1,5.313-2.09,34.287,34.287,0,0,1,6.992-.684,41.039,41.039,0,0,1,8.653.879,19.683,19.683,0,0,1,6.621,2.539,5.007,5.007,0,0,1,2.617,4.043q0,3.282-5.274,6.133-.937.508-1.425.82c-.327.209-.489.4-.489.586q0,.586,2.344,1.407a24.348,24.348,0,0,1,11.445,8.32,22.944,22.944,0,0,1,4.336,13.75,13.273,13.273,0,0,1-2.343,7.754,19.674,19.674,0,0,1-6.211,5.683,31.887,31.887,0,0,1-8.594,3.5A38.77,38.77,0,0,1,42.973,159.586Zm-1.211-42.617a3.726,3.726,0,0,0,1.562-.43,18.532,18.532,0,0,0,4.531-3.027,3.8,3.8,0,0,0,1.368-2.324q0-1.524-2.7-1.641a9.775,9.775,0,0,0-2.773.469A5.058,5.058,0,0,0,41,112.086a5.2,5.2,0,0,0-.918,2.773,2.621,2.621,0,0,0,.41,1.5A1.424,1.424,0,0,0,41.762,116.969Zm7.617,13.2a6.356,6.356,0,0,0,2.91-.488,1.423,1.423,0,0,0,.879-1.231A3.442,3.442,0,0,0,51.6,126.07a14.816,14.816,0,0,0-3.867-2.226,11.972,11.972,0,0,0-4.531-.938,3.231,3.231,0,0,0-2.266.664,2.129,2.129,0,0,0-.7,1.6,4.115,4.115,0,0,0,1.211,2.695Q43.48,130.173,49.379,130.172Z" transform="translate(0 -0.039)" fill="#161615"/>
    <path id="패스_1292" data-name="패스 1292" d="M113.168,159a16.2,16.2,0,0,1-4.766-.742,14.851,14.851,0,0,1-4.453-2.227,11.512,11.512,0,0,1-3.281-3.711,10.428,10.428,0,0,1-1.25-5.2,19.035,19.035,0,0,1,2.344-8.32,15.706,15.706,0,0,0,1.914-6.6,6.484,6.484,0,0,0-.762-3.3,5.132,5.132,0,0,0-1.973-1.972,5.2,5.2,0,0,0-2.539-.664,4.869,4.869,0,0,0-4.238,2.48,5.971,5.971,0,0,0-.723,3.067A15.014,15.014,0,0,0,95.59,138.8a19.121,19.121,0,0,1,2.539,8.554,9.975,9.975,0,0,1-1.289,5.157,11.481,11.481,0,0,1-3.36,3.632,15.1,15.1,0,0,1-4.531,2.149,17.3,17.3,0,0,1-4.765.7,13.919,13.919,0,0,1-8.653-2.676A8.2,8.2,0,0,1,72,149.508a14.868,14.868,0,0,1,.84-4.785A39.681,39.681,0,0,1,75,139.6q1.328-2.635,2.812-5.332,1.641-2.889,3.086-5.8a44.633,44.633,0,0,0,2.4-5.8,17.987,17.987,0,0,0,.957-5.664,12.776,12.776,0,0,0-.508-3.555,7.393,7.393,0,0,1-.313-2.031,5.864,5.864,0,0,1,2.188-4.668,14.265,14.265,0,0,1,5.625-2.774,28.779,28.779,0,0,1,14.414,0,14.278,14.278,0,0,1,5.625,2.774,5.866,5.866,0,0,1,2.187,4.668,7.428,7.428,0,0,1-.312,2.031,12.336,12.336,0,0,0-.508,3.516,17.323,17.323,0,0,0,1,5.664,43.43,43.43,0,0,0,2.5,5.8q1.5,2.91,3.145,5.8,1.562,2.736,2.929,5.352a39.053,39.053,0,0,1,2.247,5.117,14.5,14.5,0,0,1,.878,4.8,8.2,8.2,0,0,1-3.535,6.816A13.92,13.92,0,0,1,113.168,159ZM98.754,121.695a3.9,3.9,0,0,0,2.09-.566,1.975,1.975,0,0,0,.918-1.816,4.39,4.39,0,0,0-.352-1.563q-1.406-3.085-2.93-3.086-1.68,0-3.125,3.672a2.744,2.744,0,0,0-.156.859,2.04,2.04,0,0,0,1.133,1.836A4.7,4.7,0,0,0,98.754,121.695Z" transform="translate(-0.021 -0.039)" fill="#161615"/>
    <path id="패스_1293" data-name="패스 1293" d="M146.176,159.117a18.232,18.232,0,0,1-8.946-2.07,17.919,17.919,0,0,1-6.191-5.625,25.366,25.366,0,0,1-3.613-8.067,37.218,37.218,0,0,1-1.172-9.394,43.122,43.122,0,0,1,1.465-11.133,36.668,36.668,0,0,1,4.238-9.98,23.69,23.69,0,0,1,6.738-7.188,15.568,15.568,0,0,1,9-2.715,16.438,16.438,0,0,1,10.078,3.223,10.45,10.45,0,0,1,4.532,8.3,5.565,5.565,0,0,1-1.192,3.594,7.891,7.891,0,0,1-2.988,2.285,8.679,8.679,0,0,1-3.555.8,5.85,5.85,0,0,1-2.851-.7,3.931,3.931,0,0,1-1.836-2.187l-.235-1.133a26.173,26.173,0,0,0-.527-2.637,9.321,9.321,0,0,0-1.094-2.675,2.248,2.248,0,0,0-2.011-1.172q-1.682,0-2.715,2.578a15.6,15.6,0,0,0-1.035,5.859,17.424,17.424,0,0,0,.7,4.961,8.947,8.947,0,0,0,2.207,3.887,5.573,5.573,0,0,0,3.925,1.582,10.029,10.029,0,0,0,5.86-1.68,7.228,7.228,0,0,1,3.945-1.445,5.421,5.421,0,0,1,4.2,2.031,14.042,14.042,0,0,1,2.754,5.293,25.544,25.544,0,0,1,1.016,7.09,16.826,16.826,0,0,1-1.777,7.871,17.391,17.391,0,0,1-4.747,5.742,21.324,21.324,0,0,1-6.66,3.516A24.314,24.314,0,0,1,146.176,159.117Z" transform="translate(-0.042 -0.039)" fill="#161615"/>
    <path id="패스_1294" data-name="패스 1294" d="M191.84,159a21.784,21.784,0,0,1-8.145-1.582,21.256,21.256,0,0,1-7.148-4.746,22.926,22.926,0,0,1-5.078-7.93,30,30,0,0,1-1.895-11.133,43.374,43.374,0,0,1,1.875-13.437,28.7,28.7,0,0,1,5.02-9.531,21.082,21.082,0,0,1,7.09-5.684,18.559,18.559,0,0,1,8.125-1.894A18.794,18.794,0,0,1,199.945,105a21.745,21.745,0,0,1,7.188,5.723,28.392,28.392,0,0,1,5.058,9.453,41.919,41.919,0,0,1,1.875,13.164,31.07,31.07,0,0,1-1.914,11.445,22.9,22.9,0,0,1-5.117,8.008,20.729,20.729,0,0,1-7.168,4.688A22.232,22.232,0,0,1,191.84,159Zm.2-27.969a3.576,3.576,0,0,0,2.422-1.015,7.462,7.462,0,0,0,1.875-3.008,14.214,14.214,0,0,0,.742-4.922,28.042,28.042,0,0,0-.762-7.109,11.412,11.412,0,0,0-1.953-4.3,3.3,3.3,0,0,0-2.48-1.446,3.1,3.1,0,0,0-2.324,1.329,10.154,10.154,0,0,0-1.8,4,27.81,27.81,0,0,0-.684,6.739q0,4.884,1.446,7.3T192.035,131.031Z" transform="translate(-0.06 -0.039)" fill="#161615"/>
    <path id="패스_1295" data-name="패스 1295" d="M256.059,159a11.227,11.227,0,0,1-5.664-1.543,12.209,12.209,0,0,1-4.375-4.258,11.582,11.582,0,0,1-1.68-6.23,16.861,16.861,0,0,1,2.148-7.7,12.251,12.251,0,0,0,1.524-5.664,11.607,11.607,0,0,0-1.153-5.117,16.011,16.011,0,0,0-2.91-4.2,14.8,14.8,0,0,0-3.73-2.852,7.842,7.842,0,0,0-3.574-1.035,3.276,3.276,0,0,0-2.422.938,4.183,4.183,0,0,0-.938,3.047q0,5.039,6.016,15.195a16.666,16.666,0,0,1,2.578,8.359,10.787,10.787,0,0,1-1.543,5.782,10.995,10.995,0,0,1-9.4,5.273,16.834,16.834,0,0,1-7.988-1.7,11.575,11.575,0,0,1-4.746-4.414,11.369,11.369,0,0,1-1.562-5.762q0-3.358,3.359-12.187,1.524-3.985,2.7-7.852a26.058,26.058,0,0,0,1.172-7.578,16.215,16.215,0,0,0-.527-4.121,15.168,15.168,0,0,0-1.719-3.985,6.926,6.926,0,0,1-1.191-3.457,3.486,3.486,0,0,1,1.269-2.793,8.064,8.064,0,0,1,3.262-1.582,16.884,16.884,0,0,1,4.18-.507,17.833,17.833,0,0,1,4.042.449,9.9,9.9,0,0,1,3.77,1.855,27.712,27.712,0,0,1,4.883,5.7q1.641,2.345,3.633,4.688,2.813,3.085,3.828,3.086.7,0,.7-1.055a12.449,12.449,0,0,0-.742-3.887,12.778,12.778,0,0,0-1.328-3.027,5.629,5.629,0,0,1-1.329-3.2,3.164,3.164,0,0,1,1.29-2.559,8.557,8.557,0,0,1,3.281-1.543,16.876,16.876,0,0,1,4.179-.507,17.089,17.089,0,0,1,4.278.527,8.281,8.281,0,0,1,3.359,1.64,3.642,3.642,0,0,1,1.309,2.911,6.973,6.973,0,0,1-1.055,3.32,14.863,14.863,0,0,0-1.914,7.266,24.626,24.626,0,0,0,1.387,7.949q1.386,4.082,3.144,8.262,3.945,9.14,3.946,12.734a10.97,10.97,0,0,1-1.485,5.527,10.824,10.824,0,0,1-4.551,4.2A16.549,16.549,0,0,1,256.059,159Z" transform="translate(-0.083 -0.039)" fill="#161615"/>
  </g>
</svg>
