<svg xmlns="http://www.w3.org/2000/svg" width="208.633" height="116.68" viewBox="0 0 208.633 116.68">
  <g id="그룹_796" data-name="그룹 796" transform="translate(-6.648 -422.906)">
    <path id="패스_1324" data-name="패스 1324" d="M63.347,478.844a34.034,34.034,0,0,1-7.754-.879,26.571,26.571,0,0,1-6.738-2.5,14.538,14.538,0,0,1-4.727-3.945,8.379,8.379,0,0,1-1.757-5.176,24.564,24.564,0,0,1,.839-6.328q.84-3.165,1.915-6.328t1.894-6.27a24,24,0,0,0,.82-6.152,15.034,15.034,0,0,0-2.187-7.969,9.432,9.432,0,0,1-1.6-4.57q0-3.594,4.844-4.883a46.025,46.025,0,0,1,10.742-.938q3.553,0,7.149.078,3.4.118,6.328.118a3.049,3.049,0,0,1,2.129.761,4.651,4.651,0,0,1,1.25,1.914,7.017,7.017,0,0,1,.41,2.364,5.481,5.481,0,0,1-.7,2.832,2.327,2.327,0,0,1-2.149,1.191,16.467,16.467,0,0,1-2.695-.391,42.883,42.883,0,0,0-7.305-.859,7.4,7.4,0,0,0-3.2.586,4.162,4.162,0,0,0-1.758,1.445,3.125,3.125,0,0,0-.547,1.68,2.582,2.582,0,0,0,.821,1.875,2.954,2.954,0,0,0,2.187.82,11.3,11.3,0,0,0,2.793-.332q1.308-.33,2.4-.722a7.314,7.314,0,0,1,2.5-.586,2.382,2.382,0,0,1,2.148,1.406,6.023,6.023,0,0,1,.781,2.969,4.149,4.149,0,0,1-.566,2.187,1.892,1.892,0,0,1-1.738.938,10.575,10.575,0,0,1-1.7-.176q-1.035-.176-2.461-.332a31.591,31.591,0,0,0-3.378-.156,2.731,2.731,0,0,0-2.266.976,3.26,3.26,0,0,0-.781,2.071,3.605,3.605,0,0,0,.586,1.894,4.522,4.522,0,0,0,1.8,1.6,6.448,6.448,0,0,0,3.047.644h2.071a19.9,19.9,0,0,0,7.422-1.094,13.587,13.587,0,0,1,5.664-1.484,5.115,5.115,0,0,1,3.222,1.074,6.984,6.984,0,0,1,2.149,3.653A25.772,25.772,0,0,1,86,458.883a19.738,19.738,0,0,1-1.953,9.14,17.425,17.425,0,0,1-5.195,6.172,22.376,22.376,0,0,1-7.285,3.516A30.309,30.309,0,0,1,63.347,478.844Z" fill="#161615"/>
    <path id="패스_1325" data-name="패스 1325" d="M108.738,479.039A15.765,15.765,0,0,1,98.7,475.66a22.03,22.03,0,0,1-6.7-9.316,36.231,36.231,0,0,1-2.4-13.672,37.414,37.414,0,0,1,1.582-10.762,34.09,34.09,0,0,1,4.512-9.57,23.522,23.522,0,0,1,7.07-6.836,17.262,17.262,0,0,1,9.258-2.559,17.536,17.536,0,0,1,10.684,3.262,10.554,10.554,0,0,1,4.629,8.418,5.21,5.21,0,0,1-1.25,3.5,8.156,8.156,0,0,1-3.125,2.246,9.576,9.576,0,0,1-3.711.781,6.443,6.443,0,0,1-3.028-.7,3.882,3.882,0,0,1-1.894-2.187c-.053-.208-.117-.56-.2-1.055q-.195-1.172-.586-2.676a9.307,9.307,0,0,0-1.152-2.7,2.4,2.4,0,0,0-2.129-1.191,2.6,2.6,0,0,0-2.168,1.445,11.418,11.418,0,0,0-1.406,3.789,24.457,24.457,0,0,0-.488,5,30.586,30.586,0,0,0,.937,8.184,9.032,9.032,0,0,0,2.324,4.277,4.617,4.617,0,0,0,3.106,1.25,4.733,4.733,0,0,0,3.3-1.309,3.823,3.823,0,0,0,1.425-2.832q0-.663-1.328-.664a7.975,7.975,0,0,0-1.562.235,8.82,8.82,0,0,1-1.914.273,1.947,1.947,0,0,1-1.817-1.133,5.213,5.213,0,0,1-.6-2.5,5.544,5.544,0,0,1,.644-2.676,2.274,2.274,0,0,1,1.973-1.269,11.719,11.719,0,0,1,2.109.273,21.45,21.45,0,0,0,4.375.43,11.451,11.451,0,0,0,1.778-.137,10.531,10.531,0,0,1,1.582-.136q5.233,0,7.773,6.64a39.922,39.922,0,0,1,2.11,13.985q0,8.945-2.032,14.062-.273.508-1.582.84a11.638,11.638,0,0,1-2.871.332,10.1,10.1,0,0,1-3.32-.527q-1.524-.528-1.523-1.778c.025-.676.051-1.172.078-1.484s.039-.807.039-1.484a5.906,5.906,0,0,0-.2-1.778c-.13-.377-.287-.566-.468-.566q-.587,0-1.524,2.109a8.569,8.569,0,0,1-4.062,4.16A13.693,13.693,0,0,1,108.738,479.039Z" fill="#161615"/>
    <path id="패스_1326" data-name="패스 1326" d="M154.832,479.039a15.768,15.768,0,0,1-10.04-3.379,22.047,22.047,0,0,1-6.7-9.316,36.251,36.251,0,0,1-2.4-13.672,37.379,37.379,0,0,1,1.582-10.762,34.09,34.09,0,0,1,4.512-9.57,23.522,23.522,0,0,1,7.07-6.836,17.262,17.262,0,0,1,9.258-2.559,17.533,17.533,0,0,1,10.683,3.262,10.554,10.554,0,0,1,4.629,8.418,5.21,5.21,0,0,1-1.25,3.5,8.156,8.156,0,0,1-3.125,2.246,9.572,9.572,0,0,1-3.711.781,6.439,6.439,0,0,1-3.027-.7,3.888,3.888,0,0,1-1.895-2.187q-.078-.312-.2-1.055-.2-1.172-.586-2.676a9.335,9.335,0,0,0-1.152-2.7,2.4,2.4,0,0,0-2.129-1.191,2.6,2.6,0,0,0-2.168,1.445,11.418,11.418,0,0,0-1.406,3.789,24.455,24.455,0,0,0-.489,5,30.58,30.58,0,0,0,.938,8.184,9.032,9.032,0,0,0,2.324,4.277,4.615,4.615,0,0,0,3.106,1.25,4.73,4.73,0,0,0,3.3-1.309,3.821,3.821,0,0,0,1.426-2.832q0-.663-1.328-.664a7.975,7.975,0,0,0-1.562.235,8.828,8.828,0,0,1-1.914.273,1.946,1.946,0,0,1-1.817-1.133,5.213,5.213,0,0,1-.6-2.5,5.544,5.544,0,0,1,.644-2.676,2.274,2.274,0,0,1,1.973-1.269,11.719,11.719,0,0,1,2.109.273,21.45,21.45,0,0,0,4.375.43,11.451,11.451,0,0,0,1.778-.137,10.531,10.531,0,0,1,1.582-.136q5.233,0,7.773,6.64a39.947,39.947,0,0,1,2.109,13.985q0,8.945-2.031,14.062-.273.508-1.582.84a11.638,11.638,0,0,1-2.871.332,10.1,10.1,0,0,1-3.32-.527q-1.524-.528-1.524-1.778c.026-.676.052-1.172.078-1.484s.039-.807.039-1.484a5.913,5.913,0,0,0-.2-1.778q-.2-.566-.469-.566-.585,0-1.523,2.109a8.566,8.566,0,0,1-4.063,4.16A13.686,13.686,0,0,1,154.832,479.039Z" fill="#161615"/>
    <path id="패스_1327" data-name="패스 1327" d="M28.64,539.586a30.944,30.944,0,0,1-8.164-1.074,21.573,21.573,0,0,1-7.051-3.321,16.461,16.461,0,0,1-4.941-5.7,17.375,17.375,0,0,1-1.836-8.261,18.058,18.058,0,0,1,.957-5.938,11.977,11.977,0,0,1,2.617-4.492,5.077,5.077,0,0,1,3.731-1.719,6.164,6.164,0,0,1,3.593,1.367,14.255,14.255,0,0,0,8.243,3.086,5.755,5.755,0,0,0,3.027-.7,2,2,0,0,0,1.152-1.68q0-1.131-1.894-2.4a18.147,18.147,0,0,0-6.27-2.129,27.722,27.722,0,0,1-5.918-1.738,15.3,15.3,0,0,1-5.332-3.594,8.64,8.64,0,0,1-2.344-5.918,8.456,8.456,0,0,1,1.817-5.39,14.12,14.12,0,0,1,4.844-3.829,26.923,26.923,0,0,1,6.8-2.285,38.645,38.645,0,0,1,7.676-.761,35.82,35.82,0,0,1,9.668,1.25A17.306,17.306,0,0,1,46.2,488.1a8.4,8.4,0,0,1,2.793,6.25,5.234,5.234,0,0,1-.977,3.222,6.317,6.317,0,0,1-2.461,1.992,7.212,7.212,0,0,1-3.047.684,5.7,5.7,0,0,1-2.91-.781,4.214,4.214,0,0,1-1.894-2.344,7.852,7.852,0,0,0-2.95-4.18,7.2,7.2,0,0,0-3.925-1.211,7.784,7.784,0,0,0-4.278,1.211q-1.894,1.212-1.894,2.657a2.568,2.568,0,0,0,1.386,2.031,11.711,11.711,0,0,0,4.668,1.406,34.049,34.049,0,0,1,12.95,4.121,19.534,19.534,0,0,1,7.382,7.442,19.8,19.8,0,0,1,2.364,9.492,16.256,16.256,0,0,1-2.168,8.457,19.149,19.149,0,0,1-5.742,6.094,27.227,27.227,0,0,1-7.969,3.691A32.354,32.354,0,0,1,28.64,539.586Z" fill="#161615"/>
    <path id="패스_1328" data-name="패스 1328" d="M77.937,539A36.433,36.433,0,0,1,67,537.457a19.272,19.272,0,0,1-7.833-4.375,9,9,0,0,1-2.91-6.66,9.6,9.6,0,0,1,.274-2.266,84.514,84.514,0,0,1,2.851-9.3q1.366-3.827,2.442-7.6A26.8,26.8,0,0,0,62.9,499.9a17.312,17.312,0,0,0-.547-4.316,14.468,14.468,0,0,0-1.836-4.16,6.917,6.917,0,0,1-1.289-3.555,3.409,3.409,0,0,1,1.25-2.734,8.028,8.028,0,0,1,3.242-1.563,16.722,16.722,0,0,1,4.141-.507,17.551,17.551,0,0,1,4.316.527,8.782,8.782,0,0,1,3.418,1.6,3.351,3.351,0,0,1,1.328,2.715,5.687,5.687,0,0,1-1.171,3.028,12.74,12.74,0,0,0-1.758,4.1,20.285,20.285,0,0,0-.586,4.9,21.921,21.921,0,0,0,.82,6.015,12.754,12.754,0,0,0,2.344,4.727,4.549,4.549,0,0,0,3.594,1.836q2.889,0,6.054-3.907,2.344-2.733,4.727-2.734a5.086,5.086,0,0,1,3.418,1.445,10.383,10.383,0,0,1,2.656,4.375,22.469,22.469,0,0,1,1.035,7.383q0,10.86-6.328,15.781Q86.452,539,77.937,539Z" fill="#161615"/>
    <path id="패스_1329" data-name="패스 1329" d="M115.242,539a16.942,16.942,0,0,1-8.106-1.738,11.911,11.911,0,0,1-4.824-4.512,11.537,11.537,0,0,1-1.6-5.859,12.2,12.2,0,0,1,.313-2.735,91.533,91.533,0,0,1,2.812-9.258q1.407-3.867,2.461-7.636a27.226,27.226,0,0,0,1.055-7.364,17.312,17.312,0,0,0-.547-4.316,14.211,14.211,0,0,0-1.855-4.16,6.88,6.88,0,0,1-1.309-3.594,3.409,3.409,0,0,1,1.25-2.734,7.836,7.836,0,0,1,3.223-1.543,17.274,17.274,0,0,1,4.16-.488,17.551,17.551,0,0,1,4.316.527,8.782,8.782,0,0,1,3.418,1.6,3.314,3.314,0,0,1,1.328,2.676,5.563,5.563,0,0,1-1.132,3.008,13.124,13.124,0,0,0-1.856,4.727,30.659,30.659,0,0,0-.605,6.289,40.18,40.18,0,0,0,1.562,11.015,19.5,19.5,0,0,0,4.571,8.555q3.476,3.321,3.476,6.992a8.437,8.437,0,0,1-1.836,5.274,13.705,13.705,0,0,1-4.629,3.828A12.163,12.163,0,0,1,115.242,539Z" fill="#161615"/>
    <path id="패스_1330" data-name="패스 1330" d="M147.7,539.117a18.232,18.232,0,0,1-8.946-2.07,17.919,17.919,0,0,1-6.191-5.625,25.366,25.366,0,0,1-3.613-8.067,37.173,37.173,0,0,1-1.172-9.394,43.122,43.122,0,0,1,1.465-11.133,36.668,36.668,0,0,1,4.238-9.98,23.69,23.69,0,0,1,6.738-7.188,15.568,15.568,0,0,1,9-2.715,16.438,16.438,0,0,1,10.078,3.223,10.447,10.447,0,0,1,4.531,8.3,5.564,5.564,0,0,1-1.191,3.594,7.89,7.89,0,0,1-2.988,2.285,8.679,8.679,0,0,1-3.555.8,5.85,5.85,0,0,1-2.851-.7,3.931,3.931,0,0,1-1.836-2.187l-.235-1.133a26.173,26.173,0,0,0-.527-2.637,9.321,9.321,0,0,0-1.094-2.675,2.248,2.248,0,0,0-2.012-1.172q-1.68,0-2.714,2.578a15.6,15.6,0,0,0-1.036,5.859,17.425,17.425,0,0,0,.7,4.961,8.947,8.947,0,0,0,2.207,3.887,5.572,5.572,0,0,0,3.925,1.582,10.031,10.031,0,0,0,5.86-1.68,7.228,7.228,0,0,1,3.945-1.445,5.421,5.421,0,0,1,4.2,2.031,14.043,14.043,0,0,1,2.754,5.293,25.582,25.582,0,0,1,1.016,7.09,16.814,16.814,0,0,1-1.778,7.871,17.376,17.376,0,0,1-4.746,5.742,21.323,21.323,0,0,1-6.66,3.516A24.319,24.319,0,0,1,147.7,539.117Z" fill="#161615"/>
    <path id="패스_1331" data-name="패스 1331" d="M192.625,538.844a34.021,34.021,0,0,1-7.754-.879,26.578,26.578,0,0,1-6.739-2.5,14.545,14.545,0,0,1-4.726-3.945,8.374,8.374,0,0,1-1.758-5.176,24.521,24.521,0,0,1,.84-6.328q.838-3.165,1.914-6.328t1.894-6.27a24.006,24.006,0,0,0,.821-6.152,15.035,15.035,0,0,0-2.188-7.969,9.439,9.439,0,0,1-1.6-4.57q0-3.594,4.843-4.883a46.029,46.029,0,0,1,10.743-.938q3.554,0,7.148.078,3.4.118,6.328.118a3.048,3.048,0,0,1,2.129.761,4.631,4.631,0,0,1,1.25,1.914,7.017,7.017,0,0,1,.41,2.364,5.471,5.471,0,0,1-.7,2.832,2.326,2.326,0,0,1-2.148,1.191,16.474,16.474,0,0,1-2.7-.391,42.874,42.874,0,0,0-7.3-.859,7.4,7.4,0,0,0-3.2.586,4.149,4.149,0,0,0-1.758,1.445,3.117,3.117,0,0,0-.547,1.68,2.581,2.581,0,0,0,.82,1.875,2.956,2.956,0,0,0,2.188.82,11.3,11.3,0,0,0,2.793-.332q1.308-.33,2.4-.722a7.324,7.324,0,0,1,2.5-.586,2.382,2.382,0,0,1,2.148,1.406,6.024,6.024,0,0,1,.782,2.969,4.15,4.15,0,0,1-.567,2.187,1.892,1.892,0,0,1-1.738.938,10.565,10.565,0,0,1-1.7-.176q-1.037-.176-2.461-.332a31.6,31.6,0,0,0-3.379-.156,2.733,2.733,0,0,0-2.266.976,3.265,3.265,0,0,0-.781,2.071,3.606,3.606,0,0,0,.586,1.894,4.525,4.525,0,0,0,1.8,1.6,6.442,6.442,0,0,0,3.047.644h2.07a19.893,19.893,0,0,0,7.422-1.094,13.588,13.588,0,0,1,5.664-1.484,5.116,5.116,0,0,1,3.223,1.074,6.989,6.989,0,0,1,2.148,3.653,25.766,25.766,0,0,1,.762,7.031,19.751,19.751,0,0,1-1.953,9.14,17.438,17.438,0,0,1-5.2,6.172,22.376,22.376,0,0,1-7.285,3.516A30.3,30.3,0,0,1,192.625,538.844Z" fill="#161615"/>
  </g>
</svg>
