<svg xmlns="http://www.w3.org/2000/svg" width="195.066" height="116.68" viewBox="0 0 195.066 116.68">
  <g id="그룹_793" data-name="그룹 793" transform="translate(-323.406 -42.906)">
    <path id="패스_1296" data-name="패스 1296" d="M373.347,98.844a34.034,34.034,0,0,1-7.754-.879,26.57,26.57,0,0,1-6.738-2.5,14.538,14.538,0,0,1-4.727-3.945,8.379,8.379,0,0,1-1.757-5.176,24.563,24.563,0,0,1,.839-6.328q.84-3.165,1.915-6.328t1.894-6.27a24,24,0,0,0,.82-6.152,15.034,15.034,0,0,0-2.187-7.969,9.432,9.432,0,0,1-1.6-4.57q0-3.594,4.844-4.883a46.025,46.025,0,0,1,10.742-.938q3.554,0,7.149.078,3.4.118,6.328.118a3.05,3.05,0,0,1,2.129.761,4.651,4.651,0,0,1,1.25,1.914,7.017,7.017,0,0,1,.41,2.364,5.481,5.481,0,0,1-.7,2.832,2.327,2.327,0,0,1-2.149,1.191,16.465,16.465,0,0,1-2.695-.391,42.885,42.885,0,0,0-7.305-.859,7.4,7.4,0,0,0-3.2.586,4.162,4.162,0,0,0-1.758,1.445,3.125,3.125,0,0,0-.547,1.68,2.582,2.582,0,0,0,.821,1.875,2.954,2.954,0,0,0,2.187.82,11.294,11.294,0,0,0,2.793-.332q1.308-.33,2.4-.722a7.313,7.313,0,0,1,2.5-.586,2.382,2.382,0,0,1,2.148,1.406,6.023,6.023,0,0,1,.781,2.969,4.149,4.149,0,0,1-.566,2.187,1.892,1.892,0,0,1-1.738.938,10.577,10.577,0,0,1-1.7-.176q-1.035-.176-2.461-.332a31.592,31.592,0,0,0-3.378-.156,2.731,2.731,0,0,0-2.266.976,3.26,3.26,0,0,0-.781,2.071,3.605,3.605,0,0,0,.586,1.894,4.522,4.522,0,0,0,1.8,1.6,6.448,6.448,0,0,0,3.047.644h2.071a19.9,19.9,0,0,0,7.422-1.094,13.588,13.588,0,0,1,5.664-1.484,5.115,5.115,0,0,1,3.222,1.074,6.984,6.984,0,0,1,2.149,3.653A25.772,25.772,0,0,1,396,78.883a19.738,19.738,0,0,1-1.953,9.14,17.425,17.425,0,0,1-5.195,6.172,22.375,22.375,0,0,1-7.285,3.516A30.309,30.309,0,0,1,373.347,98.844Z" fill="#161615"/>
    <path id="패스_1297" data-name="패스 1297" d="M418.738,99.039A15.765,15.765,0,0,1,408.7,95.66a22.03,22.03,0,0,1-6.7-9.316,36.232,36.232,0,0,1-2.4-13.672,37.414,37.414,0,0,1,1.582-10.762,34.091,34.091,0,0,1,4.512-9.57,23.522,23.522,0,0,1,7.07-6.836,17.263,17.263,0,0,1,9.259-2.559A17.533,17.533,0,0,1,432.7,46.207a10.554,10.554,0,0,1,4.629,8.418,5.21,5.21,0,0,1-1.25,3.5,8.156,8.156,0,0,1-3.125,2.246,9.573,9.573,0,0,1-3.711.781,6.439,6.439,0,0,1-3.027-.7,3.88,3.88,0,0,1-1.895-2.187c-.053-.208-.117-.56-.2-1.055q-.2-1.171-.586-2.676a9.361,9.361,0,0,0-1.152-2.695,2.4,2.4,0,0,0-2.13-1.191,2.6,2.6,0,0,0-2.168,1.445,11.418,11.418,0,0,0-1.406,3.789,24.455,24.455,0,0,0-.488,5,30.586,30.586,0,0,0,.937,8.184,9.032,9.032,0,0,0,2.324,4.277,4.617,4.617,0,0,0,3.106,1.25,4.733,4.733,0,0,0,3.3-1.309,3.824,3.824,0,0,0,1.426-2.832q0-.663-1.328-.664a7.982,7.982,0,0,0-1.563.235,8.82,8.82,0,0,1-1.914.273,1.947,1.947,0,0,1-1.817-1.133,5.213,5.213,0,0,1-.6-2.5,5.544,5.544,0,0,1,.644-2.676,2.274,2.274,0,0,1,1.974-1.269,11.718,11.718,0,0,1,2.109.273,21.449,21.449,0,0,0,4.375.43,11.436,11.436,0,0,0,1.777-.137,10.541,10.541,0,0,1,1.582-.136q5.235,0,7.774,6.64a39.947,39.947,0,0,1,2.109,13.985q0,8.944-2.031,14.062-.274.508-1.582.84a11.639,11.639,0,0,1-2.871.332,10.108,10.108,0,0,1-3.321-.527q-1.523-.528-1.523-1.778c.025-.676.052-1.172.078-1.484s.039-.807.039-1.484a5.913,5.913,0,0,0-.2-1.778q-.2-.565-.469-.566-.585,0-1.523,2.109a8.571,8.571,0,0,1-4.063,4.16A13.69,13.69,0,0,1,418.738,99.039Z" transform="translate(0.229)" fill="#161615"/>
    <path id="패스_1298" data-name="패스 1298" d="M464.832,99.039a15.765,15.765,0,0,1-10.039-3.379,22.039,22.039,0,0,1-6.7-9.316,36.232,36.232,0,0,1-2.4-13.672,37.413,37.413,0,0,1,1.582-10.762,34.09,34.09,0,0,1,4.512-9.57,23.533,23.533,0,0,1,7.07-6.836,17.262,17.262,0,0,1,9.258-2.559A17.536,17.536,0,0,1,478.8,46.207a10.554,10.554,0,0,1,4.629,8.418,5.21,5.21,0,0,1-1.25,3.5,8.155,8.155,0,0,1-3.125,2.246,9.576,9.576,0,0,1-3.711.781,6.446,6.446,0,0,1-3.028-.7,3.882,3.882,0,0,1-1.894-2.187c-.053-.208-.117-.56-.2-1.055q-.2-1.171-.586-2.676a9.336,9.336,0,0,0-1.153-2.695,2.394,2.394,0,0,0-2.129-1.191,2.6,2.6,0,0,0-2.168,1.445,11.418,11.418,0,0,0-1.406,3.789,24.455,24.455,0,0,0-.488,5,30.585,30.585,0,0,0,.937,8.184,9.033,9.033,0,0,0,2.325,4.277,4.613,4.613,0,0,0,3.105,1.25,4.733,4.733,0,0,0,3.3-1.309,3.824,3.824,0,0,0,1.426-2.832c0-.442-.444-.664-1.328-.664a7.982,7.982,0,0,0-1.563.235,8.82,8.82,0,0,1-1.914.273,1.944,1.944,0,0,1-1.816-1.133,5.2,5.2,0,0,1-.606-2.5,5.533,5.533,0,0,1,.645-2.676,2.272,2.272,0,0,1,1.972-1.269,11.727,11.727,0,0,1,2.11.273,21.449,21.449,0,0,0,4.375.43,11.446,11.446,0,0,0,1.777-.137,10.53,10.53,0,0,1,1.582-.136q5.233,0,7.774,6.64A39.947,39.947,0,0,1,488.5,83.766q0,8.944-2.031,14.062-.274.508-1.582.84A11.639,11.639,0,0,1,482.02,99a10.1,10.1,0,0,1-3.321-.527q-1.523-.528-1.523-1.778c.025-.676.052-1.172.078-1.484s.039-.807.039-1.484a5.913,5.913,0,0,0-.2-1.778q-.2-.565-.469-.566-.586,0-1.524,2.109a8.565,8.565,0,0,1-4.062,4.16A13.693,13.693,0,0,1,464.832,99.039Z" transform="translate(0.368)" fill="#161615"/>
    <path id="패스_1299" data-name="패스 1299" d="M364.187,159a10.748,10.748,0,0,1-5.352-1.406,11.12,11.12,0,0,1-4.043-3.887,10.676,10.676,0,0,1-1.542-5.762,17.129,17.129,0,0,1,2.578-8.359,33.729,33.729,0,0,0,3.183-8.145,38.079,38.079,0,0,0,1.387-10.019q0-2.031-.82-2.227-.431,0-1.192,1.055a11.259,11.259,0,0,0-1.367,2.695,9.734,9.734,0,0,0-.605,3.4,8.432,8.432,0,0,0,.586,3.047,4.93,4.93,0,0,1,.429,1.914,3.292,3.292,0,0,1-.937,2.4,5.889,5.889,0,0,1-2.422,1.445,10.169,10.169,0,0,1-6.231,0,5.872,5.872,0,0,1-2.441-1.445,3.293,3.293,0,0,1-.938-2.4,4.914,4.914,0,0,1,.43-1.914,8.128,8.128,0,0,0,.586-3.008,9.751,9.751,0,0,0-.625-3.457,11.227,11.227,0,0,0-1.406-2.715q-.783-1.054-1.172-1.055-.742,0-.742,2.657v1.367a29.938,29.938,0,0,0,1.426,9.16,34.2,34.2,0,0,0,3.105,7.246,17.129,17.129,0,0,1,2.578,8.359,10.685,10.685,0,0,1-1.543,5.762,11.175,11.175,0,0,1-4.023,3.887A10.72,10.72,0,0,1,337.7,159a16.839,16.839,0,0,1-7.989-1.7,11.575,11.575,0,0,1-4.746-4.414,11.369,11.369,0,0,1-1.562-5.762,12.872,12.872,0,0,1,.351-2.969,93.374,93.374,0,0,1,3.047-9.375q1.524-3.945,2.676-7.793a26.013,26.013,0,0,0,1.152-7.48,16.171,16.171,0,0,0-.527-4.121,15.454,15.454,0,0,0-1.719-4,7,7,0,0,1-1.191-3.438,3.489,3.489,0,0,1,1.269-2.793,8.064,8.064,0,0,1,3.262-1.582,16.883,16.883,0,0,1,4.18-.507,15.2,15.2,0,0,1,4.629.781,8.6,8.6,0,0,1,4.121,2.851l.781,1.016q1.953,2.618,3.164,3.945a3.294,3.294,0,0,0,2.266,1.328,3.79,3.79,0,0,0,2.539-1.543q1.405-1.542,3.828-4.746a8.583,8.583,0,0,1,4.141-2.851,15.261,15.261,0,0,1,4.609-.781,16.9,16.9,0,0,1,4.18.507,8.059,8.059,0,0,1,3.261,1.582,3.49,3.49,0,0,1,1.27,2.793,7.009,7.009,0,0,1-1.192,3.438,15.323,15.323,0,0,0-1.718,4.023,16.25,16.25,0,0,0-.528,4.1,25.979,25.979,0,0,0,1.153,7.48q1.15,3.849,2.675,7.793a93.625,93.625,0,0,1,3.047,9.375,12.328,12.328,0,0,1,.352,2.93A11.415,11.415,0,0,1,372.2,157.3,16.814,16.814,0,0,1,364.187,159Z" transform="translate(0 0.273)" fill="#161615"/>
    <path id="패스_1300" data-name="패스 1300" d="M422.352,159a16.209,16.209,0,0,1-4.767-.742,14.851,14.851,0,0,1-4.453-2.227,11.512,11.512,0,0,1-3.281-3.711,10.428,10.428,0,0,1-1.25-5.2,19.035,19.035,0,0,1,2.344-8.32,15.706,15.706,0,0,0,1.914-6.6,6.484,6.484,0,0,0-.762-3.3,5.137,5.137,0,0,0-1.972-1.972,5.211,5.211,0,0,0-2.54-.664,4.869,4.869,0,0,0-4.238,2.48,5.971,5.971,0,0,0-.722,3.067,15.011,15.011,0,0,0,2.148,6.992,19.122,19.122,0,0,1,2.539,8.554,9.975,9.975,0,0,1-1.289,5.157,11.478,11.478,0,0,1-3.359,3.632,15.115,15.115,0,0,1-4.532,2.149,17.3,17.3,0,0,1-4.765.7,13.921,13.921,0,0,1-8.653-2.676,8.2,8.2,0,0,1-3.535-6.816,14.868,14.868,0,0,1,.84-4.785,39.677,39.677,0,0,1,2.168-5.118q1.327-2.635,2.813-5.332,1.639-2.889,3.085-5.8a44.632,44.632,0,0,0,2.4-5.8,17.987,17.987,0,0,0,.957-5.664,12.777,12.777,0,0,0-.508-3.555,7.389,7.389,0,0,1-.312-2.031,5.863,5.863,0,0,1,2.187-4.668,14.265,14.265,0,0,1,5.625-2.774,28.779,28.779,0,0,1,14.414,0,14.279,14.279,0,0,1,5.625,2.774,5.867,5.867,0,0,1,2.188,4.668,7.428,7.428,0,0,1-.312,2.031,12.337,12.337,0,0,0-.509,3.516,17.325,17.325,0,0,0,1,5.664,43.431,43.431,0,0,0,2.5,5.8q1.5,2.91,3.144,5.8,1.561,2.736,2.93,5.352a39.175,39.175,0,0,1,2.246,5.117,14.471,14.471,0,0,1,.879,4.8A8.205,8.205,0,0,1,431,156.324,13.922,13.922,0,0,1,422.352,159Zm-14.415-37.305a3.9,3.9,0,0,0,2.09-.566,1.975,1.975,0,0,0,.918-1.816,4.39,4.39,0,0,0-.352-1.563q-1.405-3.085-2.929-3.086-1.682,0-3.125,3.672a2.718,2.718,0,0,0-.157.859,2.04,2.04,0,0,0,1.133,1.836A4.7,4.7,0,0,0,407.937,121.695Z" transform="translate(0.187 0.273)" fill="#161615"/>
    <path id="패스_1301" data-name="패스 1301" d="M452,159.313a18.116,18.116,0,0,1-6.641-1.25,12.8,12.8,0,0,1-5.254-3.692,9.12,9.12,0,0,1-2.05-6.074,22.21,22.21,0,0,1,1.23-6.914,48.411,48.411,0,0,1,3.145-7.188,17.127,17.127,0,0,0,2.265-7.617q0-7.07-11.289-7.07a4.884,4.884,0,0,1-3.222-1.153,7.6,7.6,0,0,1-2.149-2.968,9.75,9.75,0,0,1-.762-3.809,9.136,9.136,0,0,1,.957-4.062,7.68,7.68,0,0,1,3.028-3.2,10.4,10.4,0,0,1,5.429-1.25,7.29,7.29,0,0,1,3.926,1.054,11.942,11.942,0,0,1,3.028,2.715A22.8,22.8,0,0,1,446,110.465q1.033,1.973,1.933,3.887.938,2.031,1.8,3.593.664,1.212,1.172,1.211.547,0,1.231-1.269t1.543-2.989q.975-1.913,2.129-3.964a26.023,26.023,0,0,1,2.617-3.829,13.377,13.377,0,0,1,3.3-2.91,7.72,7.72,0,0,1,4.14-1.132,10.408,10.408,0,0,1,5.43,1.25,7.671,7.671,0,0,1,3.027,3.2,9.123,9.123,0,0,1,.957,4.062,9.767,9.767,0,0,1-.761,3.809,7.691,7.691,0,0,1-2.129,2.968,4.87,4.87,0,0,1-3.243,1.153A16.038,16.038,0,0,0,462.7,120.6a7.5,7.5,0,0,0-3.594,3.046,8.8,8.8,0,0,0-1.132,4.493,10.834,10.834,0,0,0,1.054,4.531q1.055,2.306,2.422,4.687,1.444,2.541,2.617,5.157a12.872,12.872,0,0,1,1.172,5.312,10.535,10.535,0,0,1-1.933,6.563,11.3,11.3,0,0,1-4.981,3.73A17.213,17.213,0,0,1,452,159.313Z" transform="translate(0.323 0.273)" fill="#161615"/>
    <path id="패스_1302" data-name="패스 1302" d="M495.789,159a21.776,21.776,0,0,1-8.144-1.582,21.25,21.25,0,0,1-7.149-4.746,22.94,22.94,0,0,1-5.078-7.93,30,30,0,0,1-1.895-11.133,43.374,43.374,0,0,1,1.875-13.437,28.7,28.7,0,0,1,5.02-9.531,21.092,21.092,0,0,1,7.09-5.684,18.566,18.566,0,0,1,8.125-1.894A18.8,18.8,0,0,1,503.895,105a21.752,21.752,0,0,1,7.187,5.723,28.393,28.393,0,0,1,5.059,9.453,41.919,41.919,0,0,1,1.875,13.164,31.091,31.091,0,0,1-1.914,11.445,22.911,22.911,0,0,1-5.118,8.008,20.72,20.72,0,0,1-7.168,4.688A22.232,22.232,0,0,1,495.789,159Zm.2-27.969a3.576,3.576,0,0,0,2.422-1.015,7.462,7.462,0,0,0,1.875-3.008,14.214,14.214,0,0,0,.742-4.922,28.047,28.047,0,0,0-.761-7.109,11.427,11.427,0,0,0-1.953-4.3,3.306,3.306,0,0,0-2.481-1.446,3.1,3.1,0,0,0-2.324,1.329,10.168,10.168,0,0,0-1.8,4,27.81,27.81,0,0,0-.684,6.739q0,4.884,1.446,7.3T495.984,131.031Z" transform="translate(0.456 0.273)" fill="#161615"/>
  </g>
</svg>
