<svg xmlns="http://www.w3.org/2000/svg" width="286.954" height="116.68" viewBox="0 0 286.954 116.68">
  <g id="그룹_797" data-name="그룹 797" transform="translate(-381.507 -398.906)">
    <path id="패스_1332" data-name="패스 1332" d="M398.148,455.078a21.654,21.654,0,0,1-8.3-1.562,13.93,13.93,0,0,1-6.074-4.629,12.5,12.5,0,0,1-2.266-7.637,20.982,20.982,0,0,1,.782-5.527q.78-2.871,1.836-5.84,1.092-3.125,1.972-6.309a23.755,23.755,0,0,0,.879-6.347,14.961,14.961,0,0,0-2.187-7.93,9.634,9.634,0,0,1-1.6-4.609q0-2.617,3.457-4.18a21.039,21.039,0,0,1,8.652-1.563,35.293,35.293,0,0,1,8.067,1,32.713,32.713,0,0,1,8.262,3.2,27.253,27.253,0,0,1,12.461,14.492,33.278,33.278,0,0,1,1.953,11.933,23,23,0,0,1-2.539,10.977,25.155,25.155,0,0,1-6.641,8.008,29.465,29.465,0,0,1-9.024,4.883A30.53,30.53,0,0,1,398.148,455.078Zm3.437-31.914a3.879,3.879,0,0,0,2.93-1.23,7.777,7.777,0,0,0,1.758-3.164,13.724,13.724,0,0,0,.586-4,14.137,14.137,0,0,0-.664-4.336,8.431,8.431,0,0,0-1.973-3.4,4.4,4.4,0,0,0-3.262-1.328,2.3,2.3,0,0,0-1.464.508,3.381,3.381,0,0,0-1,1.836,15.618,15.618,0,0,0-.352,3.789q0,7.851,1.68,10.234A2.115,2.115,0,0,0,401.585,423.164Z" fill="#161615"/>
    <path id="패스_1333" data-name="패스 1333" d="M451.937,455a21.78,21.78,0,0,1-8.144-1.582,21.246,21.246,0,0,1-7.148-4.746,22.928,22.928,0,0,1-5.079-7.93,30.023,30.023,0,0,1-1.894-11.133,43.374,43.374,0,0,1,1.875-13.437,28.715,28.715,0,0,1,5.019-9.531,21.092,21.092,0,0,1,7.09-5.684,18.566,18.566,0,0,1,8.125-1.894A18.8,18.8,0,0,1,460.043,401a21.742,21.742,0,0,1,7.187,5.723,28.375,28.375,0,0,1,5.059,9.453,41.919,41.919,0,0,1,1.875,13.164,31.091,31.091,0,0,1-1.914,11.445,22.9,22.9,0,0,1-5.117,8.008,20.737,20.737,0,0,1-7.168,4.688A22.236,22.236,0,0,1,451.937,455Zm.2-27.969a3.578,3.578,0,0,0,2.422-1.015,7.462,7.462,0,0,0,1.875-3.008,14.214,14.214,0,0,0,.742-4.922,28.043,28.043,0,0,0-.762-7.109,11.427,11.427,0,0,0-1.953-4.3,3.3,3.3,0,0,0-2.48-1.446,3.105,3.105,0,0,0-2.325,1.329,10.182,10.182,0,0,0-1.8,4,27.814,27.814,0,0,0-.683,6.739q0,4.884,1.445,7.3T452.133,427.031Z" fill="#161615"/>
    <path id="패스_1334" data-name="패스 1334" d="M512.836,455a11.521,11.521,0,0,1-6.641-2.148,15.908,15.908,0,0,1-2.05-1.641q-.567-.586-.918-.586a1.805,1.805,0,0,0-1,.605q-.644.607-2.089,1.7a10.405,10.405,0,0,1-6.25,2.07,24.411,24.411,0,0,1-9.473-1.582,11.968,11.968,0,0,1-5.547-4.355,11.358,11.358,0,0,1-1.816-6.368,25.549,25.549,0,0,1,1.035-7.187q1.033-3.553,2.363-7.031,1.25-3.282,2.207-6.524a22.546,22.546,0,0,0,.957-6.406,16.293,16.293,0,0,0-.527-4.1,15.01,15.01,0,0,0-1.758-4.043,6.952,6.952,0,0,1-1.23-3.457,3.486,3.486,0,0,1,1.269-2.793,8.065,8.065,0,0,1,3.281-1.582,17.634,17.634,0,0,1,8.477.02,8.757,8.757,0,0,1,3.359,1.582,3.275,3.275,0,0,1,1.309,2.656,5.631,5.631,0,0,1-1.172,3.047,10.208,10.208,0,0,0-1.387,3.379,18.906,18.906,0,0,0-.488,4.394,21.475,21.475,0,0,0,1.055,7.032,12.74,12.74,0,0,0,2.7,4.746,4.787,4.787,0,0,0,3.437,1.7,3.8,3.8,0,0,0,2.579-1.094,7.786,7.786,0,0,0,1.972-3.34,18.1,18.1,0,0,0,.762-5.722,35.975,35.975,0,0,0-.488-6.328,11.079,11.079,0,0,0-2.051-4.766,5.626,5.626,0,0,1-1.328-3.2,3.163,3.163,0,0,1,1.289-2.559,8.554,8.554,0,0,1,3.3-1.543,17.47,17.47,0,0,1,8.437.02,8.292,8.292,0,0,1,3.36,1.64,3.641,3.641,0,0,1,1.308,2.911,7.13,7.13,0,0,1-1.055,3.32,14.718,14.718,0,0,0-1.914,7.266,19,19,0,0,0,.782,4.98q.78,2.834,1.933,5.879t2.363,6.016q1.407,3.4,2.422,6.171a13.612,13.612,0,0,1,1.016,4.258,14.427,14.427,0,0,1-1.5,6.68,10.854,10.854,0,0,1-4.551,4.609A15.892,15.892,0,0,1,512.836,455Z" fill="#161615"/>
    <path id="패스_1335" data-name="패스 1335" d="M550.766,455.586a32.787,32.787,0,0,1-10.2-1.563,17.876,17.876,0,0,1-7.773-4.765,12.221,12.221,0,0,1-3.125-8.672,18.264,18.264,0,0,1,1.015-5.859q1.016-3.008,2.344-6.133,1.445-3.282,2.578-6.68a21.389,21.389,0,0,0,1.133-6.8,14.475,14.475,0,0,0-1.719-6.953,6.342,6.342,0,0,1-.781-2.773,4.252,4.252,0,0,1,2.031-3.633,14.467,14.467,0,0,1,5.313-2.09,34.288,34.288,0,0,1,6.992-.684,41.023,41.023,0,0,1,8.652.879,19.681,19.681,0,0,1,6.622,2.539,5.007,5.007,0,0,1,2.617,4.043q0,3.282-5.274,6.133-.937.508-1.425.82c-.327.209-.489.4-.489.586q0,.586,2.344,1.407a24.348,24.348,0,0,1,11.445,8.32,22.944,22.944,0,0,1,4.336,13.75,13.267,13.267,0,0,1-2.344,7.754,19.66,19.66,0,0,1-6.21,5.683,31.886,31.886,0,0,1-8.594,3.5A38.77,38.77,0,0,1,550.766,455.586Zm-1.211-42.617a3.726,3.726,0,0,0,1.562-.43,18.532,18.532,0,0,0,4.531-3.027,3.8,3.8,0,0,0,1.368-2.324q0-1.524-2.7-1.641a9.775,9.775,0,0,0-2.773.469,5.058,5.058,0,0,0-2.754,2.07,5.2,5.2,0,0,0-.918,2.773,2.621,2.621,0,0,0,.41,1.5A1.424,1.424,0,0,0,549.555,412.969Zm7.617,13.2a6.355,6.355,0,0,0,2.91-.488,1.422,1.422,0,0,0,.879-1.231,3.442,3.442,0,0,0-1.563-2.383,14.816,14.816,0,0,0-3.867-2.226,11.972,11.972,0,0,0-4.531-.938,3.231,3.231,0,0,0-2.266.664,2.129,2.129,0,0,0-.7,1.6,4.115,4.115,0,0,0,1.211,2.7Q551.273,426.172,557.172,426.172Z" fill="#161615"/>
    <path id="패스_1336" data-name="패스 1336" d="M601.742,455a36.436,36.436,0,0,1-10.937-1.543,19.262,19.262,0,0,1-7.832-4.375,8.993,8.993,0,0,1-2.911-6.66,9.6,9.6,0,0,1,.274-2.266,84.52,84.52,0,0,1,2.851-9.3q1.368-3.826,2.442-7.6A26.805,26.805,0,0,0,586.7,415.9a17.266,17.266,0,0,0-.547-4.316,14.468,14.468,0,0,0-1.836-4.16,6.917,6.917,0,0,1-1.289-3.555,3.409,3.409,0,0,1,1.25-2.734,8.028,8.028,0,0,1,3.242-1.563,16.728,16.728,0,0,1,4.141-.507,17.551,17.551,0,0,1,4.316.527,8.783,8.783,0,0,1,3.418,1.6,3.352,3.352,0,0,1,1.329,2.715,5.689,5.689,0,0,1-1.172,3.028,12.741,12.741,0,0,0-1.758,4.1,20.285,20.285,0,0,0-.586,4.9,21.921,21.921,0,0,0,.82,6.015,12.754,12.754,0,0,0,2.344,4.727,4.551,4.551,0,0,0,3.594,1.836q2.891,0,6.054-3.907,2.344-2.733,4.727-2.734a5.086,5.086,0,0,1,3.418,1.445,10.384,10.384,0,0,1,2.656,4.375,22.442,22.442,0,0,1,1.035,7.383q0,10.86-6.328,15.781Q610.258,455,601.742,455Z" fill="#161615"/>
    <path id="패스_1337" data-name="패스 1337" d="M645.8,454.844a34.021,34.021,0,0,1-7.754-.879,26.578,26.578,0,0,1-6.739-2.5,14.544,14.544,0,0,1-4.726-3.945,8.374,8.374,0,0,1-1.758-5.176,24.52,24.52,0,0,1,.84-6.328q.84-3.165,1.914-6.328t1.9-6.27a24.048,24.048,0,0,0,.82-6.152,15.035,15.035,0,0,0-2.188-7.969,9.44,9.44,0,0,1-1.6-4.57q0-3.594,4.844-4.883a46.02,46.02,0,0,1,10.742-.938q3.554,0,7.148.078,3.4.118,6.328.118a3.046,3.046,0,0,1,2.129.761,4.631,4.631,0,0,1,1.25,1.914,6.991,6.991,0,0,1,.41,2.364,5.471,5.471,0,0,1-.7,2.832,2.326,2.326,0,0,1-2.148,1.191,16.474,16.474,0,0,1-2.7-.391,42.874,42.874,0,0,0-7.3-.859,7.4,7.4,0,0,0-3.2.586,4.15,4.15,0,0,0-1.758,1.445,3.125,3.125,0,0,0-.547,1.68,2.581,2.581,0,0,0,.82,1.875,2.956,2.956,0,0,0,2.188.82,11.3,11.3,0,0,0,2.793-.332q1.308-.33,2.4-.722a7.324,7.324,0,0,1,2.5-.586,2.384,2.384,0,0,1,2.149,1.406,6.034,6.034,0,0,1,.781,2.969,4.15,4.15,0,0,1-.567,2.187,1.892,1.892,0,0,1-1.738.938,10.564,10.564,0,0,1-1.7-.176q-1.037-.176-2.461-.332a31.6,31.6,0,0,0-3.379-.156,2.733,2.733,0,0,0-2.266.976,3.265,3.265,0,0,0-.781,2.071,3.606,3.606,0,0,0,.586,1.894,4.525,4.525,0,0,0,1.8,1.6,6.445,6.445,0,0,0,3.047.644h2.07a19.893,19.893,0,0,0,7.422-1.094,13.588,13.588,0,0,1,5.664-1.484,5.116,5.116,0,0,1,3.223,1.074,6.983,6.983,0,0,1,2.148,3.653,25.766,25.766,0,0,1,.762,7.031,19.738,19.738,0,0,1-1.953,9.14,17.427,17.427,0,0,1-5.2,6.172,22.365,22.365,0,0,1-7.285,3.516A30.3,30.3,0,0,1,645.8,454.844Z" fill="#161615"/>
    <path id="패스_1338" data-name="패스 1338" d="M421.917,515.586a32.785,32.785,0,0,1-10.2-1.563,17.876,17.876,0,0,1-7.773-4.765,12.221,12.221,0,0,1-3.125-8.672,18.264,18.264,0,0,1,1.015-5.859q1.016-3.008,2.344-6.133,1.444-3.282,2.578-6.68a21.389,21.389,0,0,0,1.133-6.8,14.475,14.475,0,0,0-1.719-6.953,6.342,6.342,0,0,1-.781-2.773,4.253,4.253,0,0,1,2.031-3.633,14.467,14.467,0,0,1,5.313-2.09,34.281,34.281,0,0,1,6.992-.684,41.039,41.039,0,0,1,8.653.879A19.666,19.666,0,0,1,435,462.4a5.007,5.007,0,0,1,2.617,4.043q0,3.282-5.273,6.133-.937.508-1.426.82c-.326.209-.488.4-.488.586q0,.586,2.343,1.407a24.351,24.351,0,0,1,11.446,8.32,22.957,22.957,0,0,1,4.336,13.75,13.274,13.274,0,0,1-2.344,7.754A19.675,19.675,0,0,1,440,510.9a31.862,31.862,0,0,1-8.594,3.5A38.762,38.762,0,0,1,421.917,515.586Zm-1.21-42.617a3.738,3.738,0,0,0,1.563-.43,18.551,18.551,0,0,0,4.531-3.027,3.8,3.8,0,0,0,1.367-2.324q0-1.524-2.7-1.641a9.776,9.776,0,0,0-2.774.469,5.058,5.058,0,0,0-2.754,2.07,5.2,5.2,0,0,0-.918,2.773,2.621,2.621,0,0,0,.41,1.5A1.423,1.423,0,0,0,420.707,472.969Zm7.617,13.2a6.353,6.353,0,0,0,2.91-.488,1.423,1.423,0,0,0,.879-1.231,3.44,3.44,0,0,0-1.562-2.383,14.816,14.816,0,0,0-3.867-2.226,11.977,11.977,0,0,0-4.532-.938,3.231,3.231,0,0,0-2.266.664,2.125,2.125,0,0,0-.7,1.6,4.11,4.11,0,0,0,1.211,2.7Q422.425,486.172,428.324,486.172Z" fill="#161615"/>
    <path id="패스_1339" data-name="패스 1339" d="M492.113,515a16.2,16.2,0,0,1-4.765-.742,14.828,14.828,0,0,1-4.453-2.227,11.5,11.5,0,0,1-3.282-3.711,10.428,10.428,0,0,1-1.25-5.2,19.048,19.048,0,0,1,2.344-8.32,15.706,15.706,0,0,0,1.914-6.6,6.484,6.484,0,0,0-.762-3.3,5.13,5.13,0,0,0-1.972-1.972,5.21,5.21,0,0,0-2.539-.664,4.869,4.869,0,0,0-4.239,2.48,5.971,5.971,0,0,0-.722,3.067,15.023,15.023,0,0,0,2.148,6.992,19.109,19.109,0,0,1,2.539,8.554,9.965,9.965,0,0,1-1.289,5.157,11.467,11.467,0,0,1-3.359,3.632,15.121,15.121,0,0,1-4.531,2.149,17.315,17.315,0,0,1-4.766.7,13.916,13.916,0,0,1-8.652-2.676,8.2,8.2,0,0,1-3.536-6.816,14.9,14.9,0,0,1,.84-4.785,39.677,39.677,0,0,1,2.168-5.118q1.328-2.636,2.813-5.332,1.64-2.889,3.086-5.8a44.622,44.622,0,0,0,2.4-5.8,17.958,17.958,0,0,0,.957-5.664,12.777,12.777,0,0,0-.508-3.555,7.389,7.389,0,0,1-.312-2.031,5.863,5.863,0,0,1,2.187-4.668,14.265,14.265,0,0,1,5.625-2.774,28.779,28.779,0,0,1,14.414,0,14.278,14.278,0,0,1,5.625,2.774,5.867,5.867,0,0,1,2.188,4.668,7.431,7.431,0,0,1-.313,2.031,12.335,12.335,0,0,0-.508,3.516,17.3,17.3,0,0,0,1,5.664,43.43,43.43,0,0,0,2.5,5.8q1.5,2.91,3.144,5.8,1.561,2.736,2.93,5.352a39.174,39.174,0,0,1,2.246,5.117,14.471,14.471,0,0,1,.879,4.8,8.2,8.2,0,0,1-3.535,6.816A13.925,13.925,0,0,1,492.113,515ZM477.7,477.7a3.9,3.9,0,0,0,2.09-.566,1.975,1.975,0,0,0,.918-1.816,4.39,4.39,0,0,0-.352-1.563q-1.406-3.086-2.929-3.086-1.68,0-3.125,3.672a2.716,2.716,0,0,0-.156.859,2.039,2.039,0,0,0,1.132,1.836A4.7,4.7,0,0,0,477.7,477.7Z" fill="#161615"/>
    <path id="패스_1340" data-name="패스 1340" d="M525.121,515.117a18.228,18.228,0,0,1-8.945-2.07,17.922,17.922,0,0,1-6.192-5.625,25.366,25.366,0,0,1-3.613-8.067,37.218,37.218,0,0,1-1.172-9.394,43.123,43.123,0,0,1,1.465-11.133,36.73,36.73,0,0,1,4.238-9.98,23.681,23.681,0,0,1,6.739-7.188,15.563,15.563,0,0,1,9-2.715,16.44,16.44,0,0,1,10.078,3.223,10.452,10.452,0,0,1,4.531,8.3,5.564,5.564,0,0,1-1.192,3.594,7.883,7.883,0,0,1-2.988,2.285,8.678,8.678,0,0,1-3.554.8,5.854,5.854,0,0,1-2.852-.7,3.935,3.935,0,0,1-1.836-2.187l-.234-1.133a26.5,26.5,0,0,0-.528-2.637,9.347,9.347,0,0,0-1.093-2.675,2.251,2.251,0,0,0-2.012-1.172q-1.68,0-2.715,2.578a15.622,15.622,0,0,0-1.035,5.859,17.423,17.423,0,0,0,.7,4.961,8.957,8.957,0,0,0,2.207,3.887,5.576,5.576,0,0,0,3.926,1.582,10.026,10.026,0,0,0,5.859-1.68,7.231,7.231,0,0,1,3.945-1.445,5.423,5.423,0,0,1,4.2,2.031,14.071,14.071,0,0,1,2.754,5.293,25.583,25.583,0,0,1,1.015,7.09,16.825,16.825,0,0,1-1.777,7.871,17.4,17.4,0,0,1-4.746,5.742,21.336,21.336,0,0,1-6.66,3.516A24.321,24.321,0,0,1,525.121,515.117Z" fill="#161615"/>
    <path id="패스_1341" data-name="패스 1341" d="M570.785,515a21.776,21.776,0,0,1-8.144-1.582,21.251,21.251,0,0,1-7.149-4.746,22.941,22.941,0,0,1-5.078-7.93,30,30,0,0,1-1.894-11.133,43.374,43.374,0,0,1,1.875-13.437,28.7,28.7,0,0,1,5.019-9.531,21.092,21.092,0,0,1,7.09-5.684,18.565,18.565,0,0,1,8.125-1.894A18.8,18.8,0,0,1,578.891,461a21.742,21.742,0,0,1,7.187,5.723,28.393,28.393,0,0,1,5.059,9.453,41.919,41.919,0,0,1,1.875,13.164,31.092,31.092,0,0,1-1.914,11.445,22.912,22.912,0,0,1-5.118,8.008,20.719,20.719,0,0,1-7.168,4.688A22.231,22.231,0,0,1,570.785,515Zm.2-27.969a3.576,3.576,0,0,0,2.422-1.015,7.462,7.462,0,0,0,1.875-3.008,14.212,14.212,0,0,0,.743-4.922,28.043,28.043,0,0,0-.762-7.109,11.427,11.427,0,0,0-1.953-4.3,3.3,3.3,0,0,0-2.481-1.446,3.1,3.1,0,0,0-2.324,1.329,10.168,10.168,0,0,0-1.8,4,27.816,27.816,0,0,0-.683,6.739q0,4.884,1.445,7.3T570.98,487.031Z" fill="#161615"/>
    <path id="패스_1342" data-name="패스 1342" d="M635,515a11.229,11.229,0,0,1-5.664-1.543,12.208,12.208,0,0,1-4.375-4.258,11.591,11.591,0,0,1-1.68-6.23,16.85,16.85,0,0,1,2.149-7.7,12.262,12.262,0,0,0,1.523-5.664,11.619,11.619,0,0,0-1.152-5.117,16.059,16.059,0,0,0-2.91-4.2,14.782,14.782,0,0,0-3.731-2.852,7.839,7.839,0,0,0-3.574-1.035,3.277,3.277,0,0,0-2.422.938,4.183,4.183,0,0,0-.938,3.047q0,5.039,6.016,15.2a16.666,16.666,0,0,1,2.578,8.359,10.778,10.778,0,0,1-1.543,5.782A10.995,10.995,0,0,1,609.887,515a16.841,16.841,0,0,1-7.989-1.7,11.576,11.576,0,0,1-4.746-4.414,11.369,11.369,0,0,1-1.562-5.762q0-3.359,3.359-12.187,1.524-3.985,2.7-7.852a26.056,26.056,0,0,0,1.171-7.578,16.171,16.171,0,0,0-.527-4.121,15.168,15.168,0,0,0-1.719-3.985,6.926,6.926,0,0,1-1.191-3.457,3.489,3.489,0,0,1,1.269-2.793,8.064,8.064,0,0,1,3.262-1.582,16.883,16.883,0,0,1,4.18-.507,17.843,17.843,0,0,1,4.043.449,9.9,9.9,0,0,1,3.769,1.855,27.711,27.711,0,0,1,4.883,5.7q1.641,2.344,3.633,4.688,2.813,3.086,3.828,3.086.7,0,.7-1.055a12.449,12.449,0,0,0-.742-3.887,12.737,12.737,0,0,0-1.328-3.027,5.626,5.626,0,0,1-1.328-3.2,3.163,3.163,0,0,1,1.289-2.559,8.556,8.556,0,0,1,3.281-1.543,16.883,16.883,0,0,1,4.18-.507,17.088,17.088,0,0,1,4.277.527,8.281,8.281,0,0,1,3.359,1.64,3.639,3.639,0,0,1,1.309,2.911,6.962,6.962,0,0,1-1.055,3.32,14.863,14.863,0,0,0-1.914,7.266,24.626,24.626,0,0,0,1.387,7.949q1.386,4.082,3.145,8.262,3.943,9.14,3.945,12.734a10.969,10.969,0,0,1-1.484,5.527,10.83,10.83,0,0,1-4.551,4.2A16.554,16.554,0,0,1,635,515Z" fill="#161615"/>
  </g>
</svg>
