<svg xmlns="http://www.w3.org/2000/svg" xmlns:xlink="http://www.w3.org/1999/xlink" width="1920" height="630" viewBox="0 0 1920 630">
  <defs>
    <clipPath id="clip-path">
      <path id="사각형_461" data-name="사각형 461" d="M200,0H1720a200,200,0,0,1,200,200V630a0,0,0,0,1,0,0H0a0,0,0,0,1,0,0V200A200,200,0,0,1,200,0Z" transform="translate(0 7682.599)" fill="#ffe297"/>
    </clipPath>
  </defs>
  <g id="마스크_그룹_26" data-name="마스크 그룹 26" transform="translate(0 -7682.599)" clip-path="url(#clip-path)">
    <path id="사각형_18" data-name="사각형 18" d="M200,0H1720a200,200,0,0,1,200,200V630a0,0,0,0,1,0,0H0a0,0,0,0,1,0,0V200A200,200,0,0,1,200,0Z" transform="translate(0 7682.599)" fill="#ffe297"/>
    <g id="그룹_270" data-name="그룹 270">
      <path id="패스_41" data-name="패스 41" d="M1006.067-568.791l-16.959,4.4a6.88,6.88,0,0,0-4.925,8.378,6.821,6.821,0,0,0,3.169,4.2l.741.436a2.014,2.014,0,0,1,.924,1.224l2.487,9.579a4.414,4.414,0,0,0,5.376,3.159l15.52-4.03a4.412,4.412,0,0,0,3.159-5.376l-2.487-9.579a2.009,2.009,0,0,1,.213-1.519l.434-.741a6.823,6.823,0,0,0,.727-5.208A6.88,6.88,0,0,0,1006.067-568.791Z" transform="translate(-888.961 8298.408)" fill="#ee7514"/>
      <path id="패스_42" data-name="패스 42" d="M1211.049-556.589a31.826,31.826,0,0,0-14.8-8.254c-5.332-1.426-11.319-2.388-16.028.275-4.063,2.3-6.348,7.314-4.295,11.517,1.542,3.165,5.023,5.2,8.423,6.713a91.185,91.185,0,0,0,17.909,5.915c3.117.649,6.712.657,9.07-1.358,4.609-3.936,3.852-10.464-.284-14.809Zm-19.919-3.678c-.84,1.314-4.952,5.258-6.814,2.921a2.194,2.194,0,0,1,.243-2.7c1.164-1.682,3.724-3.178,5.287-2.92a1.711,1.711,0,0,1,1.285,2.7Zm8.535,2.766c-.841,1.314-4.947,5.26-6.81,2.922a2.194,2.194,0,0,1,.243-2.7c1.164-1.681,3.719-3.179,5.287-2.919a1.709,1.709,0,0,1,1.28,2.7Zm8.2,3.481c-.841,1.314-4.952,5.259-6.81,2.923a2.194,2.194,0,0,1,.243-2.7c1.164-1.682,3.719-3.179,5.287-2.92a1.709,1.709,0,0,1,1.28,2.7Z" transform="translate(-887.164 8298.408)" fill="#ee7514"/>
      <path id="패스_46" data-name="패스 46" d="M1298.553-568.791l-16.96,4.4a6.879,6.879,0,0,0-4.924,8.378,6.821,6.821,0,0,0,3.169,4.2l.74.436a2.011,2.011,0,0,1,.925,1.224l2.487,9.579a4.414,4.414,0,0,0,5.376,3.159l15.52-4.03a4.413,4.413,0,0,0,3.159-5.376l-2.487-9.579a2.009,2.009,0,0,1,.213-1.519l.434-.741a6.827,6.827,0,0,0,.726-5.208A6.878,6.878,0,0,0,1298.553-568.791Z" transform="translate(-880.447 8298.408)" fill="#ee7514"/>
      <path id="패스_47" data-name="패스 47" d="M1591.039-568.791l-16.96,4.4a6.879,6.879,0,0,0-4.924,8.378,6.822,6.822,0,0,0,3.168,4.2l.741.436a2.015,2.015,0,0,1,.925,1.224l2.487,9.579a4.413,4.413,0,0,0,5.376,3.159l15.519-4.03a4.413,4.413,0,0,0,3.16-5.376l-2.488-9.579a2.014,2.014,0,0,1,.214-1.519l.434-.741a6.827,6.827,0,0,0,.726-5.208A6.879,6.879,0,0,0,1591.039-568.791Z" transform="translate(-871.934 8298.408)" fill="#ee7514"/>
      <path id="패스_48" data-name="패스 48" d="M1503.534-556.589a31.817,31.817,0,0,0-14.8-8.254c-5.331-1.426-11.318-2.388-16.027.275-4.063,2.3-6.348,7.314-4.3,11.517,1.542,3.165,5.022,5.2,8.423,6.713a91.2,91.2,0,0,0,17.908,5.915c3.118.649,6.713.657,9.071-1.358,4.609-3.936,3.852-10.464-.284-14.809Zm-19.918-3.678c-.84,1.314-4.952,5.258-6.814,2.921a2.194,2.194,0,0,1,.243-2.7c1.164-1.682,3.723-3.178,5.287-2.92a1.711,1.711,0,0,1,1.284,2.7Zm8.535,2.766c-.841,1.314-4.948,5.26-6.81,2.922a2.194,2.194,0,0,1,.243-2.7c1.164-1.681,3.718-3.179,5.287-2.919a1.708,1.708,0,0,1,1.279,2.7Zm8.2,3.481c-.841,1.314-4.952,5.259-6.81,2.923a2.192,2.192,0,0,1,.243-2.7c1.164-1.682,3.718-3.179,5.287-2.92a1.708,1.708,0,0,1,1.279,2.7Z" transform="translate(-878.648 8298.408)" fill="#ee7514"/>
      <path id="패스_47-2" data-name="패스 47" d="M1591.039-568.791l-16.96,4.4a6.879,6.879,0,0,0-4.924,8.378,6.822,6.822,0,0,0,3.168,4.2l.741.436a2.015,2.015,0,0,1,.925,1.224l2.487,9.579a4.413,4.413,0,0,0,5.376,3.159l15.519-4.03a4.413,4.413,0,0,0,3.16-5.376l-2.488-9.579a2.014,2.014,0,0,1,.214-1.519l.434-.741a6.827,6.827,0,0,0,.726-5.208A6.879,6.879,0,0,0,1591.039-568.791Z" transform="translate(-570.934 8298.408)" fill="#ee7514"/>
      <path id="패스_48-2" data-name="패스 48" d="M1503.534-556.589a31.817,31.817,0,0,0-14.8-8.254c-5.331-1.426-11.318-2.388-16.027.275-4.063,2.3-6.348,7.314-4.3,11.517,1.542,3.165,5.022,5.2,8.423,6.713a91.2,91.2,0,0,0,17.908,5.915c3.118.649,6.713.657,9.071-1.358,4.609-3.936,3.852-10.464-.284-14.809Zm-19.918-3.678c-.84,1.314-4.952,5.258-6.814,2.921a2.194,2.194,0,0,1,.243-2.7c1.164-1.682,3.723-3.178,5.287-2.92a1.711,1.711,0,0,1,1.284,2.7Zm8.535,2.766c-.841,1.314-4.948,5.26-6.81,2.922a2.194,2.194,0,0,1,.243-2.7c1.164-1.681,3.718-3.179,5.287-2.919a1.708,1.708,0,0,1,1.279,2.7Zm8.2,3.481c-.841,1.314-4.952,5.259-6.81,2.923a2.192,2.192,0,0,1,.243-2.7c1.164-1.682,3.718-3.179,5.287-2.92a1.708,1.708,0,0,1,1.279,2.7Z" transform="translate(-577.65 8298.408)" fill="#ee7514"/>
      <path id="패스_47-3" data-name="패스 47" d="M1591.039-568.791l-16.96,4.4a6.879,6.879,0,0,0-4.924,8.378,6.822,6.822,0,0,0,3.168,4.2l.741.436a2.015,2.015,0,0,1,.925,1.224l2.487,9.579a4.413,4.413,0,0,0,5.376,3.159l15.519-4.03a4.413,4.413,0,0,0,3.16-5.376l-2.488-9.579a2.014,2.014,0,0,1,.214-1.519l.434-.741a6.827,6.827,0,0,0,.726-5.208A6.879,6.879,0,0,0,1591.039-568.791Z" transform="translate(-269.934 8298.408)" fill="#ee7514"/>
      <path id="패스_48-3" data-name="패스 48" d="M1503.534-556.589a31.817,31.817,0,0,0-14.8-8.254c-5.331-1.426-11.318-2.388-16.027.275-4.063,2.3-6.348,7.314-4.3,11.517,1.542,3.165,5.022,5.2,8.423,6.713a91.2,91.2,0,0,0,17.908,5.915c3.118.649,6.713.657,9.071-1.358,4.609-3.936,3.852-10.464-.284-14.809Zm-19.918-3.678c-.84,1.314-4.952,5.258-6.814,2.921a2.194,2.194,0,0,1,.243-2.7c1.164-1.682,3.723-3.178,5.287-2.92a1.711,1.711,0,0,1,1.284,2.7Zm8.535,2.766c-.841,1.314-4.948,5.26-6.81,2.922a2.194,2.194,0,0,1,.243-2.7c1.164-1.681,3.718-3.179,5.287-2.919a1.708,1.708,0,0,1,1.279,2.7Zm8.2,3.481c-.841,1.314-4.952,5.259-6.81,2.923a2.192,2.192,0,0,1,.243-2.7c1.164-1.682,3.718-3.179,5.287-2.92a1.708,1.708,0,0,1,1.279,2.7Z" transform="translate(-276.65 8298.408)" fill="#ee7514"/>
      <path id="패스_47-4" data-name="패스 47" d="M1591.039-568.791l-16.96,4.4a6.879,6.879,0,0,0-4.924,8.378,6.822,6.822,0,0,0,3.168,4.2l.741.436a2.015,2.015,0,0,1,.925,1.224l2.487,9.579a4.413,4.413,0,0,0,5.376,3.159l15.519-4.03a4.413,4.413,0,0,0,3.16-5.376l-2.488-9.579a2.014,2.014,0,0,1,.214-1.519l.434-.741a6.827,6.827,0,0,0,.726-5.208A6.879,6.879,0,0,0,1591.039-568.791Z" transform="translate(31.066 8298.408)" fill="#ee7514"/>
      <path id="패스_48-4" data-name="패스 48" d="M1503.534-556.589a31.817,31.817,0,0,0-14.8-8.254c-5.331-1.426-11.318-2.388-16.027.275-4.063,2.3-6.348,7.314-4.3,11.517,1.542,3.165,5.022,5.2,8.423,6.713a91.2,91.2,0,0,0,17.908,5.915c3.118.649,6.713.657,9.071-1.358,4.609-3.936,3.852-10.464-.284-14.809Zm-19.918-3.678c-.84,1.314-4.952,5.258-6.814,2.921a2.194,2.194,0,0,1,.243-2.7c1.164-1.682,3.723-3.178,5.287-2.92a1.711,1.711,0,0,1,1.284,2.7Zm8.535,2.766c-.841,1.314-4.948,5.26-6.81,2.922a2.194,2.194,0,0,1,.243-2.7c1.164-1.681,3.718-3.179,5.287-2.919a1.708,1.708,0,0,1,1.279,2.7Zm8.2,3.481c-.841,1.314-4.952,5.259-6.81,2.923a2.192,2.192,0,0,1,.243-2.7c1.164-1.682,3.718-3.179,5.287-2.92a1.708,1.708,0,0,1,1.279,2.7Z" transform="translate(24.35 8298.408)" fill="#ee7514"/>
      <path id="패스_48-5" data-name="패스 48" d="M1503.534-556.589a31.817,31.817,0,0,0-14.8-8.254c-5.331-1.426-11.318-2.388-16.027.275-4.063,2.3-6.348,7.314-4.3,11.517,1.542,3.165,5.022,5.2,8.423,6.713a91.2,91.2,0,0,0,17.908,5.915c3.118.649,6.713.657,9.071-1.358,4.609-3.936,3.852-10.464-.284-14.809Zm-19.918-3.678c-.84,1.314-4.952,5.258-6.814,2.921a2.194,2.194,0,0,1,.243-2.7c1.164-1.682,3.723-3.178,5.287-2.92a1.711,1.711,0,0,1,1.284,2.7Zm8.535,2.766c-.841,1.314-4.948,5.26-6.81,2.922a2.194,2.194,0,0,1,.243-2.7c1.164-1.681,3.718-3.179,5.287-2.919a1.708,1.708,0,0,1,1.279,2.7Zm8.2,3.481c-.841,1.314-4.952,5.259-6.81,2.923a2.192,2.192,0,0,1,.243-2.7c1.164-1.682,3.718-3.179,5.287-2.92a1.708,1.708,0,0,1,1.279,2.7Z" transform="translate(325.352 8303.408)" fill="#ee7514"/>
      <path id="패스_790" data-name="패스 790" d="M2839.865,4347.938l-6.7-3.2a1.121,1.121,0,0,0-1.493.527l-.9,1.887a1.118,1.118,0,0,0,.257,1.3l-.433.905-5.174,3.461a5.368,5.368,0,0,0-2,2.252l-8.3,17.366c-.158.33-1.349,3.3,4.893,6.605a.75.75,0,0,0,.146.093c.187.091.37.178.541.259l.3.146.248.117a.789.789,0,0,0,.16.054c6.494,2.788,8.059-.006,8.217-.337l8.3-17.365a5.368,5.368,0,0,0,.5-2.968l-.553-6.2.433-.9a1.118,1.118,0,0,0,1.177-.62l.9-1.887A1.12,1.12,0,0,0,2839.865,4347.938Z" transform="translate(-2619.926 3382.116)" fill="#ee7514"/>
      <path id="패스_791" data-name="패스 791" d="M2839.865,4347.938l-6.7-3.2a1.121,1.121,0,0,0-1.493.527l-.9,1.887a1.118,1.118,0,0,0,.257,1.3l-.433.905-5.174,3.461a5.368,5.368,0,0,0-2,2.252l-8.3,17.366c-.158.33-1.349,3.3,4.893,6.605a.75.75,0,0,0,.146.093c.187.091.37.178.541.259l.3.146.248.117a.789.789,0,0,0,.16.054c6.494,2.788,8.059-.006,8.217-.337l8.3-17.365a5.368,5.368,0,0,0,.5-2.968l-.553-6.2.433-.9a1.118,1.118,0,0,0,1.177-.62l.9-1.887A1.12,1.12,0,0,0,2839.865,4347.938Z" transform="translate(-2318.93 3382.116)" fill="#ee7514"/>
      <path id="패스_792" data-name="패스 792" d="M2839.865,4347.938l-6.7-3.2a1.121,1.121,0,0,0-1.493.527l-.9,1.887a1.118,1.118,0,0,0,.257,1.3l-.433.905-5.174,3.461a5.368,5.368,0,0,0-2,2.252l-8.3,17.366c-.158.33-1.349,3.3,4.893,6.605a.75.75,0,0,0,.146.093c.187.091.37.178.541.259l.3.146.248.117a.789.789,0,0,0,.16.054c6.494,2.788,8.059-.006,8.217-.337l8.3-17.365a5.368,5.368,0,0,0,.5-2.968l-.553-6.2.433-.9a1.118,1.118,0,0,0,1.177-.62l.9-1.887A1.12,1.12,0,0,0,2839.865,4347.938Z" transform="translate(-2017.928 3382.116)" fill="#ee7514"/>
      <path id="패스_793" data-name="패스 793" d="M2839.865,4347.938l-6.7-3.2a1.121,1.121,0,0,0-1.493.527l-.9,1.887a1.118,1.118,0,0,0,.257,1.3l-.433.905-5.174,3.461a5.368,5.368,0,0,0-2,2.252l-8.3,17.366c-.158.33-1.349,3.3,4.893,6.605a.75.75,0,0,0,.146.093c.187.091.37.178.541.259l.3.146.248.117a.789.789,0,0,0,.16.054c6.494,2.788,8.059-.006,8.217-.337l8.3-17.365a5.368,5.368,0,0,0,.5-2.968l-.553-6.2.433-.9a1.118,1.118,0,0,0,1.177-.62l.9-1.887A1.12,1.12,0,0,0,2839.865,4347.938Z" transform="translate(-1716.928 3382.116)" fill="#ee7514"/>
      <path id="패스_794" data-name="패스 794" d="M2839.865,4347.938l-6.7-3.2a1.121,1.121,0,0,0-1.493.527l-.9,1.887a1.118,1.118,0,0,0,.257,1.3l-.433.905-5.174,3.461a5.368,5.368,0,0,0-2,2.252l-8.3,17.366c-.158.33-1.349,3.3,4.893,6.605a.75.75,0,0,0,.146.093c.187.091.37.178.541.259l.3.146.248.117a.789.789,0,0,0,.16.054c6.494,2.788,8.059-.006,8.217-.337l8.3-17.365a5.368,5.368,0,0,0,.5-2.968l-.553-6.2.433-.9a1.118,1.118,0,0,0,1.177-.62l.9-1.887A1.12,1.12,0,0,0,2839.865,4347.938Z" transform="translate(-1416.928 3382.116)" fill="#ee7514"/>
      <path id="패스_795" data-name="패스 795" d="M2839.865,4347.938l-6.7-3.2a1.121,1.121,0,0,0-1.493.527l-.9,1.887a1.118,1.118,0,0,0,.257,1.3l-.433.905-5.174,3.461a5.368,5.368,0,0,0-2,2.252l-8.3,17.366c-.158.33-1.349,3.3,4.893,6.605a.75.75,0,0,0,.146.093c.187.091.37.178.541.259l.3.146.248.117a.789.789,0,0,0,.16.054c6.494,2.788,8.059-.006,8.217-.337l8.3-17.365a5.368,5.368,0,0,0,.5-2.968l-.553-6.2.433-.9a1.118,1.118,0,0,0,1.177-.62l.9-1.887A1.12,1.12,0,0,0,2839.865,4347.938Z" transform="translate(-1115.928 3382.116)" fill="#ee7514"/>
    </g>
  </g>
</svg>
