<svg xmlns="http://www.w3.org/2000/svg" width="152.307" height="89.13" viewBox="0 0 152.307 89.13">
  <g id="그룹_526" data-name="그룹 526" transform="translate(-873.953 -226.982)">
    <g id="그룹_131" data-name="그룹 131" transform="translate(873.953 266.529)">
      <path id="패스_181" data-name="패스 181" d="M878.917,321.655c-3.075-.27-4.964-2.429-4.964-5.665,0-2.7,1.889-5.5,4.964-5.18a239.716,239.716,0,0,0,38.361,0c3.129-.27,5.017,2.482,5.017,5.18,0,3.236-1.889,5.4-5.071,5.665-3.238.27-6.691.431-10.2.539a13.568,13.568,0,0,1,.216,2.752c0,6.1-2.049,6.258-9.118,6.258s-9.173-.161-9.173-6.258a12.952,12.952,0,0,1,.216-2.7C885.606,322.14,882.1,321.925,878.917,321.655Zm-2.7-18.344a48.751,48.751,0,0,1-.162-13.7c.54-3.238,1.889-4.371,4.694-4.91a96.444,96.444,0,0,1,34.746,0c2.86.54,4.154,1.673,4.64,4.91a44.971,44.971,0,0,1-.162,13.7c-.593,3.237-1.619,4.532-4.478,4.91a129.248,129.248,0,0,1-34.746,0C877.945,307.842,876.866,306.548,876.219,303.311Zm25.844-6.367a1.1,1.1,0,0,0,.54-1.4.82.82,0,0,0-1.133-.486,6.8,6.8,0,0,1-6.583-.053.936.936,0,0,0-1.241.431c-.324.594-.054,1.08.7,1.511A8.3,8.3,0,0,0,902.063,296.944Z" transform="translate(-873.953 -281.621)" fill="#ea5b18"/>
      <path id="패스_182" data-name="패스 182" d="M949.016,321.655c-3.075-.27-4.964-2.429-4.964-5.665,0-2.7,1.889-5.5,4.964-5.18a239.715,239.715,0,0,0,38.361,0c3.129-.27,5.017,2.482,5.017,5.18,0,3.236-1.889,5.4-5.072,5.665-3.237.27-6.69.431-10.2.539a13.563,13.563,0,0,1,.216,2.752c0,6.1-2.05,6.258-9.118,6.258s-9.172-.161-9.172-6.258a13,13,0,0,1,.216-2.7C955.705,322.14,952.2,321.925,949.016,321.655Zm-2.7-18.344a48.7,48.7,0,0,1-.162-13.7c.539-3.238,1.889-4.371,4.693-4.91a96.444,96.444,0,0,1,34.746,0c2.86.54,4.154,1.673,4.64,4.91a45.017,45.017,0,0,1-.162,13.7c-.594,3.237-1.619,4.532-4.478,4.91a129.248,129.248,0,0,1-34.746,0C948.045,307.842,946.965,306.548,946.318,303.311Zm25.844-6.367a1.1,1.1,0,0,0,.54-1.4.82.82,0,0,0-1.133-.486,6.8,6.8,0,0,1-6.583-.053.937.937,0,0,0-1.241.431c-.323.594-.053,1.08.7,1.511A8.3,8.3,0,0,0,972.162,296.944Z" transform="translate(-892.798 -281.621)" fill="#ea5b18"/>
      <path id="패스_183" data-name="패스 183" d="M1028.37,292.724a7.7,7.7,0,0,1,.378,3.939,19.928,19.928,0,0,0-3.668,1.456c-.7.324-.325,1.456.593,1.026a18.1,18.1,0,0,1,8.578-2c4.856,0,8.04,1.889,8.849,5.342.864,3.507-1.349,5.826-5.934,6.906a51.885,51.885,0,0,1-10.737.864c-6.96,0-10.2-2.374-11.277-6.583a32.27,32.27,0,0,1,0-15.053c1.079-4.209,3.776-6.313,8.363-6.691a67.842,67.842,0,0,1,11.924-.107c4.532.27,7.014,2.051,7.014,5.342,0,3.4-2.212,5.557-7.014,5.557Zm-12.841,29.081c0-6.636,6.474-10.413,21.8-10.413,15.268,0,21.8,3.777,21.8,10.413,0,6.744-5.4,8.794-21.8,8.794C1020.871,330.6,1015.529,328.549,1015.529,321.805Zm17.859.27a8.368,8.368,0,0,0,7.823,0,1.1,1.1,0,0,0,.539-1.3c-.161-.431-.755-.809-1.187-.539a6.985,6.985,0,0,1-6.528-.054.992.992,0,0,0-1.3.486C1032.471,321.212,1032.74,321.7,1033.387,322.075Zm24.873-17.75a15.309,15.309,0,0,1-.216,1.564c-.485,3.615-3.129,5.234-6.906,5.234-4.369,0-7.23-1.889-6.636-5.882a72.847,72.847,0,0,0,.054-17.8c-.648-4.424,2.213-6.367,6.582-6.367,3.777,0,6.42,1.673,6.906,5.287.109.7.162,1.35.271,2.051l1.726-.162c2.481-.27,3.939,2.158,3.939,8.147,0,5.827-1.457,8.362-3.939,8.093Z" transform="translate(-911.673 -281.07)" fill="#ea5b18"/>
    </g>
    <g id="그룹_138" data-name="그룹 138" transform="translate(927.001 226.983)">
      <g id="그룹_136" data-name="그룹 136" transform="translate(0.128)">
        <path id="패스_184" data-name="패스 184" d="M989.641,242.211h0c7.552-23.492-15.164-12.8-15.164-12.8a24.279,24.279,0,0,0-11.094,0h0s-22.717-10.692-15.164,12.8h0a17.838,17.838,0,0,0-1.116,6.2c0,10.85,9.705,11.452,21.827,11.452s21.828-.6,21.828-11.452a17.856,17.856,0,0,0-1.117-6.2Z" transform="translate(-946.681 -226.983)" fill="#eb8439"/>
        <g id="그룹_134" data-name="그룹 134" transform="translate(7.059 9.002)">
          <g id="그룹_132" data-name="그룹 132">
            <ellipse id="타원_84" data-name="타원 84" cx="6.133" cy="8.766" rx="6.133" ry="8.766" fill="#fbf7f1"/>
            <ellipse id="타원_85" data-name="타원 85" cx="4.966" cy="7.098" rx="4.966" ry="7.098" transform="translate(1.606 1.667)" fill="#040506"/>
            <path id="패스_185" data-name="패스 185" d="M968.029,249.764h-1.717a.674.674,0,0,0-.477,1.149l.06.059a.2.2,0,0,1,.057.139v.97a.433.433,0,0,0,.432.432h1.571a.432.432,0,0,0,.432-.432v-.97a.2.2,0,0,1,.058-.139l.059-.059a.674.674,0,0,0-.476-1.149Z" transform="translate(-958.836 -242.109)" fill="#fbf7f1"/>
          </g>
          <g id="그룹_133" data-name="그룹 133" transform="translate(18.114)">
            <ellipse id="타원_86" data-name="타원 86" cx="6.133" cy="8.766" rx="6.133" ry="8.766" fill="#fbf7f1"/>
            <ellipse id="타원_87" data-name="타원 87" cx="4.966" cy="7.098" rx="4.966" ry="7.098" transform="translate(0.728 1.667)" fill="#040506"/>
            <path id="패스_186" data-name="패스 186" d="M986.717,249.764H985a.674.674,0,0,0-.477,1.149l.06.059a.2.2,0,0,1,.058.139v.97a.432.432,0,0,0,.431.432h1.571a.432.432,0,0,0,.432-.432v-.97a.2.2,0,0,1,.058-.139l.059-.059a.674.674,0,0,0-.476-1.149Z" transform="translate(-981.975 -242.109)" fill="#fbf7f1"/>
          </g>
        </g>
        <g id="그룹_135" data-name="그룹 135" transform="translate(18.747 1.768)">
          <path id="패스_187" data-name="패스 187" d="M972.32,231.626c0,1.732.368,3.137.821,3.137s.822-1.4.822-3.137a9.491,9.491,0,0,0-.211-2.09c-.454.04-.873.088-1.254.14A9.811,9.811,0,0,0,972.32,231.626Z" transform="translate(-972.32 -229.437)" fill="#fbf7f1"/>
          <path id="패스_188" data-name="패스 188" d="M976.217,229.413a9.273,9.273,0,0,0-.23,2.177c0,1.732.368,3.137.821,3.137s.822-1.4.822-3.137a9.232,9.232,0,0,0-.233-2.185C976.991,229.4,976.6,229.4,976.217,229.413Z" transform="translate(-973.306 -229.401)" fill="#fbf7f1"/>
          <path id="패스_189" data-name="패스 189" d="M979.87,229.5a9.415,9.415,0,0,0-.216,2.115c0,1.732.368,3.137.821,3.137s.822-1.4.822-3.137a9.806,9.806,0,0,0-.184-1.979C980.693,229.579,980.278,229.534,979.87,229.5Z" transform="translate(-974.292 -229.428)" fill="#fbf7f1"/>
        </g>
      </g>
      <path id="패스_190" data-name="패스 190" d="M997.974,262.251h-.516a.2.2,0,0,0-.2.2.2.2,0,0,0,.059.143l.018.018a.06.06,0,0,1,.018.042v.291a.13.13,0,0,0,.129.13h.472a.13.13,0,0,0,.13-.13v-.291a.057.057,0,0,1,.018-.042l.018-.018a.2.2,0,0,0,.059-.143A.2.2,0,0,0,997.974,262.251Z" transform="translate(-960.149 -236.464)" fill="#fbf7f1"/>
      <g id="그룹_137" data-name="그룹 137" transform="translate(0 0.64)">
        <path id="패스_191" data-name="패스 191" d="M948.172,242.446s5.347-14.893,1.909-14.583S945.07,233.716,948.172,242.446Z" transform="translate(-946.506 -227.858)" fill="#fbf7f1"/>
        <path id="패스_192" data-name="패스 192" d="M1004.311,242.446s-5.348-14.893-1.91-14.583S1007.413,233.716,1004.311,242.446Z" transform="translate(-961.223 -227.858)" fill="#fbf7f1"/>
      </g>
    </g>
  </g>
</svg>
