<svg xmlns="http://www.w3.org/2000/svg" width="788.303" height="362.709" viewBox="0 0 788.303 362.709">
  <g id="그룹_527" data-name="그룹 527" transform="translate(13896.596 -8122.373)">
    <g id="그룹_521" data-name="그룹 521" transform="translate(-9337.806 7261.407)">
      <g id="그룹_115" data-name="그룹 115" transform="translate(-4557.68 925.04)">
        <path id="패스_152" data-name="패스 152" d="M-4182.589,1057.553v0c65.715-204.424-131.962-111.386-131.962-111.386a211.252,211.252,0,0,0-96.537,0h0s-197.677-93.038-131.962,111.388h0a155.319,155.319,0,0,0-9.715,53.985c0,94.409,84.46,99.656,189.946,99.656s189.947-5.248,189.947-99.656a155.343,155.343,0,0,0-9.717-53.985Z" transform="translate(4556.434 -925.04)" fill="#eb8439"/>
        <g id="그룹_113" data-name="그룹 113" transform="translate(61.429 78.333)">
          <g id="그룹_111" data-name="그룹 111">
            <ellipse id="타원_74" data-name="타원 74" cx="53.369" cy="76.277" rx="53.369" ry="76.277" fill="#fbf7f1"/>
            <ellipse id="타원_75" data-name="타원 75" cx="43.217" cy="61.767" rx="43.217" ry="61.767" transform="translate(13.973 14.51)" fill="#040506"/>
            <path id="패스_153" data-name="패스 153" d="M-4279.66,1232.632H-4294.6a5.866,5.866,0,0,0-5.86,5.858,5.819,5.819,0,0,0,1.716,4.142l.518.518a1.718,1.718,0,0,1,.5,1.209v8.438a3.763,3.763,0,0,0,3.76,3.759h13.669a3.763,3.763,0,0,0,3.759-3.759v-8.438a1.715,1.715,0,0,1,.5-1.209l.518-.518a5.821,5.821,0,0,0,1.714-4.142A5.865,5.865,0,0,0-4279.66,1232.632Z" transform="translate(4359.653 -1166.018)" fill="#fbf7f1"/>
          </g>
          <g id="그룹_112" data-name="그룹 112" transform="translate(157.629)">
            <ellipse id="타원_76" data-name="타원 76" cx="53.369" cy="76.277" rx="53.369" ry="76.277" fill="#fbf7f1"/>
            <ellipse id="타원_77" data-name="타원 77" cx="43.217" cy="61.767" rx="43.217" ry="61.767" transform="translate(6.331 14.51)" fill="#040506"/>
            <path id="패스_154" data-name="패스 154" d="M-4027.333,1232.632h-14.939a5.865,5.865,0,0,0-5.858,5.858,5.819,5.819,0,0,0,1.715,4.142l.518.518a1.719,1.719,0,0,1,.5,1.209v8.438a3.763,3.763,0,0,0,3.759,3.759h13.671a3.763,3.763,0,0,0,3.759-3.759v-8.438a1.712,1.712,0,0,1,.5-1.209l.517-.518a5.818,5.818,0,0,0,1.715-4.142A5.864,5.864,0,0,0-4027.333,1232.632Z" transform="translate(4068.601 -1166.018)" fill="#fbf7f1"/>
          </g>
        </g>
        <g id="그룹_114" data-name="그룹 114" transform="translate(163.131 15.384)">
          <path id="패스_155" data-name="패스 155" d="M-4210.253,977.7c0,15.075,3.2,27.3,7.148,27.3s7.148-12.221,7.148-27.3a82.587,82.587,0,0,0-1.827-18.182c-3.953.345-7.6.769-10.916,1.218A85.594,85.594,0,0,0-4210.253,977.7Z" transform="translate(4210.253 -958.656)" fill="#fbf7f1"/>
          <path id="패스_156" data-name="패스 156" d="M-4158.731,957.793a80.576,80.576,0,0,0-2.009,18.939c0,15.075,3.2,27.3,7.15,27.3s7.149-12.221,7.149-27.3a80.5,80.5,0,0,0-2.027-19.021C-4152,957.656-4155.424,957.69-4158.731,957.793Z" transform="translate(4184.073 -957.685)" fill="#fbf7f1"/>
          <path id="패스_157" data-name="패스 157" d="M-4109.344,959.051a81.854,81.854,0,0,0-1.882,18.4c0,15.075,3.2,27.3,7.149,27.3s7.15-12.221,7.15-27.3a85.084,85.084,0,0,0-1.606-17.225C-4102.186,959.723-4105.8,959.334-4109.344,959.051Z" transform="translate(4157.892 -958.407)" fill="#fbf7f1"/>
        </g>
      </g>
      <path id="패스_158" data-name="패스 158" d="M-3867.315,1401.233h-4.49a1.763,1.763,0,0,0-1.76,1.761,1.748,1.748,0,0,0,.515,1.245l.156.156a.515.515,0,0,1,.151.363v2.536a1.131,1.131,0,0,0,1.131,1.13h4.109a1.131,1.131,0,0,0,1.129-1.13v-2.536a.515.515,0,0,1,.151-.363l.156-.156a1.749,1.749,0,0,0,.515-1.245A1.763,1.763,0,0,0-3867.315,1401.233Z" transform="translate(-362.325 -251.795)" fill="#fbf7f1"/>
      <g id="그룹_116" data-name="그룹 116" transform="translate(-4558.79 930.614)">
        <path id="패스_159" data-name="패스 159" d="M-4544.3,1063.808s46.534-129.594,16.616-126.9S-4571.288,987.843-4544.3,1063.808Z" transform="translate(4558.79 -936.869)" fill="#fbf7f1"/>
        <path id="패스_160" data-name="패스 160" d="M-3793,1063.808s-46.533-129.594-16.614-126.9S-3766.015,987.843-3793,1063.808Z" transform="translate(4167.958 -936.869)" fill="#fbf7f1"/>
      </g>
    </g>
    <g id="그룹_522" data-name="그룹 522" transform="translate(-9827.826 7342.83)">
      <g id="그룹_109" data-name="그룹 109" transform="translate(-3655.274 818.245)">
        <path id="패스_148" data-name="패스 148" d="M-3290.052,1021.942h0c-1.372-61-33.29-160.185-55.962-160.185-18.8,0-53.4,16.983-74.234,50.287a208.429,208.429,0,0,0-95.244,0c-20.821-33.3-55.437-50.287-74.237-50.287-22.67,0-54.587,99.19-55.959,160.185a153.235,153.235,0,0,0-9.586,53.262c0,93.146,79.708,110.56,183.782,110.56s191.025-17.415,191.025-110.56A153.257,153.257,0,0,0-3290.052,1021.942Z" transform="translate(3655.274 -861.757)" fill="#040506"/>
        <g id="그룹_108" data-name="그룹 108" transform="translate(56.99 114.424)">
          <g id="그룹_106" data-name="그룹 106">
            <ellipse id="타원_70" data-name="타원 70" cx="52.654" cy="75.256" rx="52.654" ry="75.256" fill="#fff"/>
            <ellipse id="타원_71" data-name="타원 71" cx="42.638" cy="60.941" rx="42.638" ry="60.941" transform="translate(13.786 14.316)" fill="#040506"/>
          </g>
          <g id="그룹_107" data-name="그룹 107" transform="translate(155.519)">
            <ellipse id="타원_72" data-name="타원 72" cx="52.654" cy="75.256" rx="52.654" ry="75.256" fill="#fff"/>
            <ellipse id="타원_73" data-name="타원 73" cx="42.638" cy="60.941" rx="42.638" ry="60.941" transform="translate(6.246 14.316)" fill="#040506"/>
          </g>
        </g>
        <path id="패스_149" data-name="패스 149" d="M-3389.272,1244.437h-14.739a5.786,5.786,0,0,0-5.781,5.779,5.743,5.743,0,0,0,1.693,4.087l.511.511a1.7,1.7,0,0,1,.494,1.192v8.324a3.712,3.712,0,0,0,3.709,3.709h13.488a3.711,3.711,0,0,0,3.708-3.709v-8.324a1.694,1.694,0,0,1,.5-1.192l.51-.511a5.744,5.744,0,0,0,1.692-4.087A5.785,5.785,0,0,0-3389.272,1244.437Z" transform="translate(3525.352 -1064.29)" fill="#fff"/>
        <path id="패스_150" data-name="패스 150" d="M-3140.426,1244.437h-14.739a5.786,5.786,0,0,0-5.781,5.779,5.743,5.743,0,0,0,1.692,4.087l.512.511a1.7,1.7,0,0,1,.493,1.192v8.324a3.712,3.712,0,0,0,3.709,3.709h13.487a3.712,3.712,0,0,0,3.709-3.709v-8.324a1.694,1.694,0,0,1,.5-1.192l.51-.511a5.739,5.739,0,0,0,1.693-4.087A5.785,5.785,0,0,0-3140.426,1244.437Z" transform="translate(3393.651 -1064.29)" fill="#fff"/>
      </g>
      <path id="패스_151" data-name="패스 151" d="M-3290.454,781.177c-17.945,11.035-23.358,33.152-12.241,51.23l1.877,3.053.859,1.4,2.636,4.288c6.488,10.55,6.21,13.662-4.262,20.1l-21.919,13.479,11.7,19.026,21.918-13.478c20.887-12.845,24.388-29.7,11.448-50.742l-2.637-4.288-.858-1.4-1.877-3.053c-4.593-7.468-2.358-16.031,5.055-20.59a11.126,11.126,0,0,0,3.593-15.32A11.126,11.126,0,0,0-3290.454,781.177Z" transform="translate(-175.59)" fill="#040506"/>
    </g>
  </g>
</svg>
