<svg xmlns="http://www.w3.org/2000/svg" width="34.037" height="32.939" viewBox="0 0 34.037 32.939">
  <g id="그룹_428" data-name="그룹 428" transform="translate(-882.138 -235.828)">
    <g id="그룹_75" data-name="그룹 75" transform="translate(882.138 235.828)">
      <path id="패스_79" data-name="패스 79" d="M947.529,256.7h0c-.125-5.539-3.023-14.547-5.082-14.547-1.708,0-4.85,1.543-6.742,4.567a18.913,18.913,0,0,0-8.649,0c-1.891-3.024-5.035-4.567-6.742-4.567-2.059,0-4.957,9.008-5.082,14.547a13.923,13.923,0,0,0-.87,4.837c0,8.459,7.238,10.04,16.69,10.04S948.4,270,948.4,261.54A13.923,13.923,0,0,0,947.529,256.7Z" transform="translate(-914.362 -238.641)" fill="#040506"/>
      <path id="패스_80" data-name="패스 80" d="M942.9,235.976a3.317,3.317,0,0,0-1.112,4.652l.17.277.078.127.239.389c.589.958.564,1.241-.387,1.825l-1.99,1.224,1.063,1.728,1.99-1.224c1.9-1.166,2.215-2.7,1.04-4.608l-.239-.39-.078-.127-.17-.277a1.312,1.312,0,0,1,.459-1.87,1.014,1.014,0,0,0-1.062-1.728Z" transform="translate(-925.718 -235.828)" fill="#040506"/>
    </g>
    <ellipse id="타원_54" data-name="타원 54" cx="4.782" cy="6.834" rx="4.782" ry="6.834" transform="translate(887.313 249.734)" fill="#fff"/>
    <ellipse id="타원_55" data-name="타원 55" cx="3.872" cy="5.534" rx="3.872" ry="5.534" transform="translate(888.565 251.034)" fill="#040506"/>
    <ellipse id="타원_56" data-name="타원 56" cx="4.782" cy="6.834" rx="4.782" ry="6.834" transform="translate(901.436 249.734)" fill="#fff"/>
    <ellipse id="타원_57" data-name="타원 57" cx="3.872" cy="5.534" rx="3.872" ry="5.534" transform="translate(902.004 251.034)" fill="#040506"/>
    <path id="패스_84" data-name="패스 84" d="M935.122,271.615h-1.338a.525.525,0,0,0-.525.525.52.52,0,0,0,.154.371l.046.047a.152.152,0,0,1,.045.108v.756a.337.337,0,0,0,.337.337h1.225a.337.337,0,0,0,.337-.337v-.756a.154.154,0,0,1,.045-.108l.047-.047a.525.525,0,0,0-.372-.9Z" transform="translate(-40.627 -15.913)" fill="#fff"/>
    <path id="패스_85" data-name="패스 85" d="M954.278,271.615H952.94a.525.525,0,0,0-.525.525.52.52,0,0,0,.154.371l.046.047a.155.155,0,0,1,.045.108v.756a.337.337,0,0,0,.337.337h1.225a.337.337,0,0,0,.337-.337v-.756a.155.155,0,0,1,.045-.108l.047-.047a.525.525,0,0,0-.372-.9Z" transform="translate(-49.144 -15.913)" fill="#fff"/>
  </g>
</svg>
