<svg xmlns="http://www.w3.org/2000/svg" width="500.468" height="500" viewBox="0 0 500.468 500">
  <g id="그룹_768" data-name="그룹 768" transform="translate(2792.25 -3165.346)">
    <rect id="사각형_590" data-name="사각형 590" width="500" height="500" rx="15" transform="translate(-2791.782 3165.346)" fill="#fff"/>
    <line id="선_24" data-name="선 24" x2="500" transform="translate(-2792.25 3195.5)" fill="none" stroke="#040506" stroke-width="1" opacity="0.3"/>
    <g id="그룹_730" data-name="그룹 730" transform="translate(-1292.596 869.766)" opacity="0.5">
      <path id="패스_138" data-name="패스 138" d="M5566.19,4359.758l-11.159,2.9a4.521,4.521,0,0,0-1.155,8.273l.487.286a1.324,1.324,0,0,1,.608.805l1.637,6.3a2.9,2.9,0,0,0,3.538,2.079l10.211-2.651a2.9,2.9,0,0,0,2.078-3.537l-1.637-6.3a1.334,1.334,0,0,1,.141-1l.286-.487a4.521,4.521,0,0,0-5.035-6.666Z" transform="translate(-6907.965 -1599.039)" fill="#ea5b18"/>
      <path id="패스_141" data-name="패스 141" d="M5566.19,4359.758l-11.159,2.9a4.521,4.521,0,0,0-1.155,8.273l.487.286a1.324,1.324,0,0,1,.608.805l1.637,6.3a2.9,2.9,0,0,0,3.538,2.079l10.211-2.651a2.9,2.9,0,0,0,2.078-3.537l-1.637-6.3a1.334,1.334,0,0,1,.141-1l.286-.487a4.521,4.521,0,0,0-5.035-6.666Z" transform="translate(-6715.517 -1599.039)" fill="#ea5b18"/>
      <path id="패스_137" data-name="패스 137" d="M5003.328,4381.568a20.941,20.941,0,0,0-9.734-5.43c-3.508-.938-7.447-1.571-10.547.18-2.672,1.512-4.176,4.813-2.825,7.579,1.015,2.082,3.3,3.42,5.542,4.417a59.985,59.985,0,0,0,11.782,3.893c2.053.427,4.418.432,5.97-.894,3.032-2.591,2.534-6.886-.187-9.745Zm-13.105-2.419c-.553.864-3.258,3.461-4.482,1.922a1.44,1.44,0,0,1,.159-1.777c.766-1.106,2.449-2.091,3.479-1.921a1.125,1.125,0,0,1,.845,1.776Zm5.616,1.82c-.554.864-3.256,3.461-4.481,1.923a1.446,1.446,0,0,1,.159-1.777c.768-1.106,2.447-2.092,3.479-1.921a1.125,1.125,0,0,1,.843,1.775Zm5.4,2.291c-.554.864-3.259,3.459-4.481,1.922a1.445,1.445,0,0,1,.16-1.777c.767-1.106,2.446-2.091,3.479-1.921a1.125,1.125,0,0,1,.843,1.776Z" transform="translate(-6402.679 -1612.821)" fill="#ea5b18"/>
      <path id="패스_140" data-name="패스 140" d="M5003.328,4381.568a20.941,20.941,0,0,0-9.734-5.43c-3.508-.938-7.447-1.571-10.547.18-2.672,1.512-4.176,4.813-2.825,7.579,1.015,2.082,3.3,3.42,5.542,4.417a59.985,59.985,0,0,0,11.782,3.893c2.053.427,4.418.432,5.97-.894,3.032-2.591,2.534-6.886-.187-9.745Zm-13.105-2.419c-.553.864-3.258,3.461-4.482,1.922a1.44,1.44,0,0,1,.159-1.777c.766-1.106,2.449-2.091,3.479-1.921a1.125,1.125,0,0,1,.845,1.776Zm5.616,1.82c-.554.864-3.256,3.461-4.481,1.923a1.446,1.446,0,0,1,.159-1.777c.768-1.106,2.447-2.092,3.479-1.921a1.125,1.125,0,0,1,.843,1.775Zm5.4,2.291c-.554.864-3.259,3.459-4.481,1.922a1.445,1.445,0,0,1,.16-1.777c.767-1.106,2.446-2.091,3.479-1.921a1.125,1.125,0,0,1,.843,1.776Z" transform="translate(-6210.23 -1612.821)" fill="#ea5b18"/>
      <path id="패스_146" data-name="패스 146" d="M5003.328,4381.568a20.941,20.941,0,0,0-9.734-5.43c-3.508-.938-7.447-1.571-10.547.18-2.672,1.512-4.176,4.813-2.825,7.579,1.015,2.082,3.3,3.42,5.542,4.417a59.985,59.985,0,0,0,11.782,3.893c2.053.427,4.418.432,5.97-.894,3.032-2.591,2.534-6.886-.187-9.745Zm-13.105-2.419c-.553.864-3.258,3.461-4.482,1.922a1.44,1.44,0,0,1,.159-1.777c.766-1.106,2.449-2.091,3.479-1.921a1.125,1.125,0,0,1,.845,1.776Zm5.616,1.82c-.554.864-3.256,3.461-4.481,1.923a1.446,1.446,0,0,1,.159-1.777c.768-1.106,2.447-2.092,3.479-1.921a1.125,1.125,0,0,1,.843,1.775Zm5.4,2.291c-.554.864-3.259,3.459-4.481,1.922a1.445,1.445,0,0,1,.16-1.777c.767-1.106,2.446-2.091,3.479-1.921a1.125,1.125,0,0,1,.843,1.776Z" transform="translate(-6017.781 -1612.821)" fill="#ea5b18"/>
      <path id="패스_136" data-name="패스 136" d="M4483.27,4346.849l-4.5-2.15a.753.753,0,0,0-1,.354l-.605,1.267a.75.75,0,0,0,.172.877l-.291.607-3.473,2.323a3.611,3.611,0,0,0-1.34,1.513l-5.575,11.656c-.105.223-.9,2.217,3.286,4.436a.473.473,0,0,0,.1.062c.125.063.248.12.363.175l.2.1.165.078a.479.479,0,0,0,.109.036c4.358,1.872,5.41,0,5.516-.226l5.575-11.657a3.608,3.608,0,0,0,.335-1.992l-.371-4.163.291-.607a.751.751,0,0,0,.79-.415l.605-1.268A.752.752,0,0,0,4483.27,4346.849Z" transform="translate(-5949.29 -1585.797)" fill="#ea5b18"/>
      <path id="패스_139" data-name="패스 139" d="M4483.27,4346.849l-4.5-2.15a.753.753,0,0,0-1,.354l-.605,1.267a.75.75,0,0,0,.172.877l-.291.607-3.473,2.323a3.611,3.611,0,0,0-1.34,1.513l-5.575,11.656c-.105.223-.9,2.217,3.286,4.436a.473.473,0,0,0,.1.062c.125.063.248.12.363.175l.2.1.165.078a.479.479,0,0,0,.109.036c4.358,1.872,5.41,0,5.516-.226l5.575-11.657a3.608,3.608,0,0,0,.335-1.992l-.371-4.163.291-.607a.751.751,0,0,0,.79-.415l.605-1.268A.752.752,0,0,0,4483.27,4346.849Z" transform="translate(-5756.84 -1585.797)" fill="#ea5b18"/>
      <path id="패스_147" data-name="패스 147" d="M4483.27,4346.849l-4.5-2.15a.753.753,0,0,0-1,.354l-.605,1.267a.75.75,0,0,0,.172.877l-.291.607-3.473,2.323a3.611,3.611,0,0,0-1.34,1.513l-5.575,11.656c-.105.223-.9,2.217,3.286,4.436a.473.473,0,0,0,.1.062c.125.063.248.12.363.175l.2.1.165.078a.479.479,0,0,0,.109.036c4.358,1.872,5.41,0,5.516-.226l5.575-11.657a3.608,3.608,0,0,0,.335-1.992l-.371-4.163.291-.607a.751.751,0,0,0,.79-.415l.605-1.268A.752.752,0,0,0,4483.27,4346.849Z" transform="translate(-5564.392 -1585.797)" fill="#ea5b18"/>
    </g>
  </g>
</svg>
