<svg xmlns="http://www.w3.org/2000/svg" width="219" height="287" viewBox="0 0 219 287">
  <g id="그룹_770" data-name="그룹 770" transform="translate(1232 -2411)">
    <rect id="사각형_591" data-name="사각형 591" width="219" height="287" rx="10" transform="translate(-1232 2411)" fill="#ffeddf"/>
    <g id="talk1" transform="translate(-1166.669 2569.218)" opacity="0.7">
      <g id="그룹_731" data-name="그룹 731" transform="translate(6.25 16.4)">
        <path id="패스_1130" data-name="패스 1130" d="M109.568,53.807c.045-29.814-44.995-45.271-74.9-33.391-4.165,1.62-1.885,7.8,2.319,6.36C62.277,16.6,102.83,28.847,102.791,53.808c-.017,25.14-40.976,37.313-66.3,26.795a8.142,8.142,0,0,0-5.451-.006L17.006,85.8l3.369-9.052a7.8,7.8,0,0,0-1.321-7.731C8.7,56.963,12.226,41.844,25.719,32.556c3.6-2.607-.214-8.047-3.894-5.542C11.78,34.074,6.25,43.589,6.25,53.809a30.092,30.092,0,0,0,7.647,19.6,1.039,1.039,0,0,1,.13.988L9.772,85.823c-1.761,4.323,2.968,9,7.252,7.2L33.35,86.963c30.057,11.84,76.157-2.483,76.219-33.154Z" transform="translate(-6.25 -16.4)" fill="#ea5b18"/>
        <path id="패스_1131" data-name="패스 1131" d="M111.919,84.1a.971.971,0,0,1,.13-.965c11.309-13.047,9.836-30.785-3.138-42.488a3.386,3.386,0,1,0-4.6,4.966c10.31,9.362,11.563,22.742,2.585,33.133a7.7,7.7,0,0,0-1.309,7.731l3.346,9.035-14-5.175a7.8,7.8,0,0,0-5.5.017,62,62,0,0,1-21.383,3.741,58.681,58.681,0,0,1-27.579-6.507,3.509,3.509,0,0,0-1.62-.4,3.382,3.382,0,0,0-1.473,6.422,65.5,65.5,0,0,0,30.677,7.257c8.64.237,16.715-1.953,24.515-4.187l16.371,6.055a5.61,5.61,0,0,0,7.229-7.212L111.93,84.095Z" transform="translate(6.743 -6.021)" fill="#ea5b18"/>
      </g>
    </g>
  </g>
</svg>
