<svg xmlns="http://www.w3.org/2000/svg" width="219" height="287" viewBox="0 0 219 287">
  <g id="그룹_771" data-name="그룹 771" transform="translate(998 -2411)">
    <rect id="사각형_591" data-name="사각형 591" width="219" height="287" rx="10" transform="translate(-998 2411)" fill="#fbd2b2"/>
    <g id="noun-family-6951226" transform="translate(-937.498 2580.517)" opacity="0.7">
      <g id="그룹_762" data-name="그룹 762" transform="translate(2.5 23.77)">
        <path id="패스_1173" data-name="패스 1173" d="M87,91.39H32.9a3.019,3.019,0,0,1-3.019-3.019V74.8A29.993,29.993,0,0,1,52.818,45.585l1.43,5.868A23.971,23.971,0,0,0,35.921,74.8v10.55H83.978V74.8A24.044,24.044,0,0,0,65.656,51.453l1.43-5.868A30.089,30.089,0,0,1,90.021,74.807V88.376A3.018,3.018,0,0,1,87,91.389Z" transform="translate(11.047 -12.978)" fill="#ea5b18"/>
        <path id="패스_1174" data-name="패스 1174" d="M56.589,63.595A19.912,19.912,0,1,1,76.5,43.679,19.932,19.932,0,0,1,56.589,63.595Zm0-33.783A13.87,13.87,0,1,0,70.462,43.678,13.889,13.889,0,0,0,56.589,29.812Z" transform="translate(14.409 -23.77)" fill="#ea5b18"/>
        <path id="패스_1175" data-name="패스 1175" d="M69.46,62.877l-4.969-3.439A27.127,27.127,0,0,1,80.327,48.531L81.769,54.4a21.071,21.071,0,0,0-12.308,8.478Z" transform="translate(28.168 -11.521)" fill="#ea5b18"/>
        <path id="패스_1176" data-name="패스 1176" d="M103.849,89.933H63.293V83.89h40.556a4.535,4.535,0,0,0,4.531-4.531V74.84A21.074,21.074,0,0,0,92.335,54.4l1.442-5.868a27.111,27.111,0,0,1,20.646,26.308v4.519a10.583,10.583,0,0,1-10.574,10.574Z" transform="translate(27.575 -11.521)" fill="#ea5b18"/>
        <path id="패스_1177" data-name="패스 1177" d="M85.354,65.215A18.041,18.041,0,1,1,103.4,47.174,18.06,18.06,0,0,1,85.354,65.215Zm0-30.034a12,12,0,1,0,12,12A12.013,12.013,0,0,0,85.354,35.181Z" transform="translate(29.563 -21.117)" fill="#ea5b18"/>
        <path id="패스_1178" data-name="패스 1178" d="M36.256,62.877a21.094,21.094,0,0,0-12.3-8.478L25.4,48.531A27.1,27.1,0,0,1,41.23,59.438Z" transform="translate(8.113 -11.521)" fill="#ea5b18"/>
        <path id="패스_1179" data-name="패스 1179" d="M53.629,89.933H13.074A10.583,10.583,0,0,1,2.5,79.359V74.84A27.126,27.126,0,0,1,23.145,48.53L24.587,54.4A21.074,21.074,0,0,0,8.543,74.84v4.519a4.535,4.535,0,0,0,4.531,4.531H53.629Z" transform="translate(-2.5 -11.521)" fill="#ea5b18"/>
        <path id="패스_1180" data-name="패스 1180" d="M26.588,65.215A18.041,18.041,0,1,1,44.629,47.174,18.06,18.06,0,0,1,26.588,65.215Zm0-30.034a12,12,0,1,0,12,12A12.013,12.013,0,0,0,26.588,35.181Z" transform="translate(0.492 -21.117)" fill="#ea5b18"/>
      </g>
    </g>
  </g>
</svg>
