<svg id="그룹_543" data-name="그룹 543" xmlns="http://www.w3.org/2000/svg" width="98.395" height="19.373" viewBox="0 0 98.395 19.373">
  <g id="그룹_541" data-name="그룹 541" transform="translate(1.903 0)">
    <path id="패스_1104" data-name="패스 1104" d="M-1977.626,4499.517h.817v-.816h2.537v.816h.816v14.317h-.816v.817h-2.537v-.817h-.817v-5.429h-4.01v5.429h-.923v.817h-2.413v-.817h-.814v-14.317h.814v-.816h2.413v.816h.923v5.109h4.01Z" transform="translate(1985.786 -4498.49)" fill="#ffc168"/>
    <path id="패스_1105" data-name="패스 1105" d="M-1967.509,4502.767v4.843h-.71v.71h-6.44v.694h.853v.726h5.18v.746h.744v1.935h-.744v.69h-7.311v-.727h-.921v-.782h-.87v-.852h-.816v-7.983h.816v-.851h.87v-.764h.921v-.745h5.821v.745h.921v.764h.87v.851Zm-3.8,2.413v-.852h-.746v-.6h-1.863v.6h-.744v.852Z" transform="translate(1992.325 -4496.949)" fill="#ffc168"/>
    <path id="패스_1106" data-name="패스 1106" d="M-1971.263,4514.752v-.71h-.71V4499.3h.71v-.71h2.714v.71h.709v14.742h-.709v.71Z" transform="translate(1998.258 -4498.589)" fill="#ffc168"/>
    <path id="패스_1107" data-name="패스 1107" d="M-1968.31,4501.115v-.708h8v.817h.816v.868h.781v.977h.71v5.517h-.71v.958h-.781v.871h-.816v.816h-4.7v3.99h-.746v.709h-2.5v-.709h-.763v-14.106Zm5.625,2.787h-2.432v3.832h2.432v-.727h.674v-2.377h-.674Z" transform="translate(2000.927 -4496.949)" fill="#ffc168"/>
    <path id="패스_1108" data-name="패스 1108" d="M-1952.825,4507.042v-5.927h.71v-.708h2.413v.708h.71v12.812h-.71v.871h-.8v.833h-.816v.69h-7.2v-.69h-.763v-1.989h.763v-.727h4.754v-.727h.852v-1.064h-4.417v-.693h-.923v-.727h-.87v-.8h-.816v-7.822h.729v-.676h2.466v.676h.708v5.959h.64v.764h1.933v-.764Z" transform="translate(2009.124 -4496.949)" fill="#ffc168"/>
    <path id="패스_1109" data-name="패스 1109" d="M-1953.452,4503.069h.725v-.977h.782v-.868h.816v-.817h6.333v.817h.816v.868h.78v.977h.746v7.38h-.746v.976h-.78v.869h-.816v.816h-6.333v-.816h-.816v-.869h-.782v-.976h-.725Zm7.113,1.632h-.87v-.729h-1.507v.729h-.853v4.116h.853v.727h1.507v-.727h.87Z" transform="translate(2014.983 -4496.949)" fill="#ffc168"/>
    <path id="패스_1110" data-name="패스 1110" d="M-1939.015,4501.108v-.71h2.59v.71h.71V4512.3h-.746v.816h-2.447v-.816h-.853v.816h-4.559v-.816h-.923v-.959h-.9v-1.027h-.8v-9.208h.712v-.71h2.571v.71h.71v7.4h.816v.9h1.6v-.9h.817v-7.4Z" transform="translate(2020.856 -4496.957)" fill="#ffc168"/>
    <path id="패스_1111" data-name="패스 1111" d="M-1932.38,4499.163h.639v.567h.674v.69h.71v5.591h-.746v.637h-.708v.6h-.693v.568h-.87v1.189h-.639v.639h-2.556v-.639h-.637v-3.283h.693v-.655h1.9v-.6h.6v-2.057h-.6v-.479h-1.561v.479h-.514v.922h-.64v.641h-2.343v-.641h-.637v-2.911h.708v-.69h.676v-.567h.637v-.462h5.909Zm-1.6,12.4h.657v2.66h-.657v.638h-2.592v-.638h-.637v-2.66h.637v-.64h2.592Z" transform="translate(2026.849 -4498.49)" fill="#ffc168"/>
  </g>
  <g id="그룹_542" data-name="그룹 542" transform="translate(0 0)">
    <path id="패스_1112" data-name="패스 1112" d="M-1978.624,4499.517h.816v-.816h2.537v.816h.816v14.317h-.816v.817h-2.537v-.817h-.816v-5.429h-4.01v5.429h-.923v.817h-2.413v-.817h-.816v-14.317h.816v-.816h2.413v.816h.923v5.109h4.01Z" transform="translate(1986.786 -4498.49)" fill="#ea5b18"/>
    <path id="패스_1113" data-name="패스 1113" d="M-1968.508,4502.767v4.843h-.709v.71h-6.442v.694h.853v.726h5.18v.746h.746v1.935h-.746v.69h-7.309v-.727h-.921v-.782h-.872v-.852h-.815v-7.983h.815v-.851h.872v-.764h.921v-.745h5.819v.745h.923v.764h.87v.851Zm-3.8,2.413v-.852h-.744v-.6h-1.863v.6h-.746v.852Z" transform="translate(1993.326 -4496.949)" fill="#ea5b18"/>
    <path id="패스_1114" data-name="패스 1114" d="M-1972.262,4514.752v-.71h-.71V4499.3h.71v-.71h2.714v.71h.71v14.742h-.71v.71Z" transform="translate(1999.26 -4498.589)" fill="#ea5b18"/>
    <path id="패스_1115" data-name="패스 1115" d="M-1969.308,4501.115v-.708h8v.817h.816v.868h.78v.977h.709v5.517h-.709v.958h-.78v.871h-.816v.816h-4.7v3.99h-.744v.709h-2.5v-.709h-.763v-14.106Zm5.624,2.787h-2.43v3.832h2.43v-.727h.676v-2.377h-.676Z" transform="translate(2001.927 -4496.949)" fill="#ea5b18"/>
    <path id="패스_1116" data-name="패스 1116" d="M-1953.826,4507.042v-5.927h.71v-.708h2.413v.708h.71v12.812h-.71v.871h-.8v.833h-.817v.69h-7.2v-.69h-.761v-1.989h.761v-.727h4.755v-.727h.853v-1.064h-4.419v-.693h-.921v-.727h-.87v-.8h-.816v-7.822h.727v-.676h2.467v.676h.71v5.959h.64v.764h1.933v-.764Z" transform="translate(2010.125 -4496.949)" fill="#ea5b18"/>
    <path id="패스_1117" data-name="패스 1117" d="M-1954.452,4503.069h.727v-.977h.782v-.868h.815v-.817h6.333v.817h.818v.868h.78v.977h.744v7.38h-.744v.976h-.78v.869h-.818v.816h-6.333v-.816h-.815v-.869h-.782v-.976h-.727Zm7.113,1.632h-.868v-.729h-1.509v.729h-.851v4.116h.851v.727h1.509v-.727h.868Z" transform="translate(2015.982 -4496.949)" fill="#ea5b18"/>
    <path id="패스_1118" data-name="패스 1118" d="M-1940.016,4501.108v-.71h2.59v.71h.71V4512.3h-.744v.816h-2.449v-.816h-.85v.816h-4.56v-.816h-.923v-.959h-.906v-1.027h-.8v-9.208h.71v-.71h2.573v.71h.709v7.4h.814v.9h1.6v-.9h.814v-7.4Z" transform="translate(2021.857 -4496.957)" fill="#ea5b18"/>
    <path id="패스_1119" data-name="패스 1119" d="M-1933.378,4499.163h.637v.567h.674v.69h.71v5.591h-.744v.637h-.71v.6h-.693v.568h-.87v1.189h-.637v.639h-2.556v-.639h-.638v-3.283h.691v-.655h1.9v-.6h.6v-2.057h-.6v-.479h-1.56v.479h-.516v.922h-.639v.641h-2.341v-.641h-.64v-2.911h.71v-.69h.674v-.567h.639v-.462h5.909Zm-1.6,12.4h.659v2.66h-.659v.638h-2.59v-.638h-.638v-2.66h.638v-.64h2.59Z" transform="translate(2027.849 -4498.49)" fill="#ea5b18"/>
  </g>
</svg>
