<svg xmlns="http://www.w3.org/2000/svg" width="62.391" height="47.415" viewBox="0 0 62.391 47.415">
  <path id="패스_1125" data-name="패스 1125" d="M580.412,726.866c-1.331.952-2.567,1.837-3.724,2.669a115.974,115.974,0,0,0-39.847,0c-1.157-.832-2.392-1.717-3.724-2.669-8.363-5.977-7.8,12.932-7.307,20.067a100.219,100.219,0,0,0,.821,16.47c.819,5.209,2.307,7.217,6.176,7.887a156.779,156.779,0,0,0,47.916,0c3.942-.669,5.357-2.678,6.175-7.887a100.238,100.238,0,0,0,.821-16.47C588.209,739.8,588.775,720.889,580.412,726.866Zm-18.215,23a11.446,11.446,0,0,1-10.641,0c-1.042-.52-1.414-1.265-.967-2.009a1.327,1.327,0,0,1,1.711-.669,9.783,9.783,0,0,0,9.078.074,1.182,1.182,0,0,1,1.562.669A1.516,1.516,0,0,1,562.2,749.862Z" transform="translate(-525.57 -725.716)" fill="#ea5b18"/>
</svg>
