<svg xmlns="http://www.w3.org/2000/svg" width="64.451" height="68.49" viewBox="0 0 64.451 68.49">
  <g id="그룹_768" data-name="그룹 768" transform="translate(1084.558 -2314)">
    <path id="패스_1123" data-name="패스 1123" d="M616.9,755.234c-1.088.544-.622,1.943.777,1.554,10.724-3.575,24.247-4.74,29.842-4.74,6.994,0,11.812,2.876,12.589,10.646.466,5.44-1.477,10.725-8.471,11.89-12.279,1.943-29.454,1.71-38.391.7-10.026-1.089-14.766-3.808-16.243-9.87-1.709-6.683-1.709-20.439,0-27.044,1.477-6.14,5.441-9.17,12.046-9.714,5.75-.543,33.417-.622,39.323-.156,6.373.389,10.026,3.031,10.026,8.393,0,5.673-3.265,8.782-10.026,8.782H621.565a20.075,20.075,0,0,1,.544,7.693C619.934,754.224,618.457,754.456,616.9,755.234Z" transform="translate(-1680.283 1606.441)" fill="#ea5b18"/>
    <g id="그룹_728" data-name="그룹 728" transform="translate(-1046.068 2314)">
      <path id="패스_103" data-name="패스 103" d="M157.611,42.722a17.886,17.886,0,0,1-1.4-2.209,3.592,3.592,0,0,0,1.142-.869,5.052,5.052,0,0,0,.948-1.511h0c1.319-1.518,3.139-5.082,2.586-5.585-.459-.417-2.077-.333-3.323.017a6.871,6.871,0,0,0-2.323-2.113c.231-1.274.161-2.893-.3-3.31-.553-.5-3.929,1.646-5.315,3.1a5.054,5.054,0,0,0-1.415,1.086c-1.374,1.51-1.144,2.986-.091,4.483a4.02,4.02,0,0,1-.251.491A20.4,20.4,0,0,0,145.117,45a9.384,9.384,0,0,0,.279,3.581,3.2,3.2,0,0,0-1.2-.716,1.092,1.092,0,0,0-1.225.451,1.07,1.07,0,0,0,.151,1.084,3.045,3.045,0,0,0,.877.73c.829.523,1.675,1.018,2.491,1.564,1.68,1.117,3.3,2.472,5.284,2.876a6.085,6.085,0,0,0,4.693-1.005A2.127,2.127,0,0,1,155.4,55.69a4.2,4.2,0,0,1-2.451.466,8.6,8.6,0,0,1-3.105-.783c-.622-.283-1.207-.645-1.851-.879-.4-.141-1.883-.522-2.069.093a1.354,1.354,0,0,0,.265,1.178,3.25,3.25,0,0,0,1.4.91,14.4,14.4,0,0,0,4.467,1.23,6.758,6.758,0,0,0,4.426-1.09,4.439,4.439,0,0,0,1.916-4,1.169,1.169,0,0,1-.007-.411h0a1.092,1.092,0,0,1,.2-.361,7.107,7.107,0,0,0,.243-7.664C158.466,43.8,158.025,43.27,157.611,42.722Z" transform="translate(-142.884 -27.068)" fill="#040506"/>
      <g id="그룹_91" data-name="그룹 91" transform="translate(5.574 3.113)">
        <g id="그룹_89" data-name="그룹 89">
          <ellipse id="타원_58" data-name="타원 58" cx="2.481" cy="1.736" rx="2.481" ry="1.736" transform="matrix(0.673, -0.74, 0.74, 0.673, 0, 3.67)" fill="#fff"/>
          <ellipse id="타원_59" data-name="타원 59" cx="2.009" cy="1.405" rx="2.009" ry="1.405" transform="matrix(0.673, -0.74, 0.74, 0.673, 0.654, 3.627)" fill="#040506"/>
        </g>
        <g id="그룹_90" data-name="그룹 90" transform="translate(3.793 3.449)">
          <ellipse id="타원_60" data-name="타원 60" cx="2.481" cy="1.736" rx="2.481" ry="1.736" transform="matrix(0.673, -0.74, 0.74, 0.673, 0, 3.67)" fill="#fff"/>
          <ellipse id="타원_61" data-name="타원 61" cx="2.009" cy="1.405" rx="2.009" ry="1.405" transform="matrix(0.673, -0.74, 0.74, 0.673, 0.47, 3.46)" fill="#040506"/>
        </g>
      </g>
      <path id="패스_104" data-name="패스 104" d="M176.939,51.272l-.36-.327a.19.19,0,0,0-.318.15v.024a.056.056,0,0,1-.014.04l-.185.2a.122.122,0,0,0,.008.173l.329.3a.122.122,0,0,0,.173-.008l.185-.2a.056.056,0,0,1,.038-.018h.024a.19.19,0,0,0,.119-.331Z" transform="translate(-167.535 -44.788)" fill="#fff"/>
      <path id="패스_105" data-name="패스 105" d="M188,61.352l-.359-.327a.191.191,0,0,0-.319.15V61.2a.055.055,0,0,1-.014.04l-.185.2a.122.122,0,0,0,.008.173l.329.3a.122.122,0,0,0,.173-.008l.185-.2a.057.057,0,0,1,.038-.018h.024a.191.191,0,0,0,.119-.331Z" transform="translate(-175.763 -52.285)" fill="#fff"/>
    </g>
  </g>
</svg>
