<svg xmlns="http://www.w3.org/2000/svg" width="62.391" height="47.416" viewBox="0 0 62.391 47.416">
  <path id="패스_1124" data-name="패스 1124" d="M510.273,726.866c-1.329.949-2.561,1.833-3.716,2.663a115.974,115.974,0,0,0-39.847.012c-1.159-.833-2.4-1.721-3.732-2.675-8.555-6.115-7.766,13.813-7.274,20.536a98.556,98.556,0,0,0,.829,16c.818,5.209,2.306,7.217,6.175,7.887a156.779,156.779,0,0,0,47.916,0c3.943-.669,5.357-2.678,6.176-7.887a101.84,101.84,0,0,0,.81-16.928C518.089,739.029,518.465,721.011,510.273,726.866Zm-18.175,23a11.443,11.443,0,0,1-10.64,0c-1.042-.52-1.415-1.265-.968-2.009a1.328,1.328,0,0,1,1.712-.67,9.781,9.781,0,0,0,9.077.074,1.183,1.183,0,0,1,1.563.669A1.517,1.517,0,0,1,492.1,749.862Z" transform="translate(-455.431 -725.716)" fill="#ea5b18"/>
</svg>
