<svg xmlns="http://www.w3.org/2000/svg" width="245.624" height="308.024" viewBox="0 0 245.624 308.024">
  <path id="패스_1182" data-name="패스 1182" d="M188.1,248.91l-50.534,24.171a8.464,8.464,0,0,1-11.262-3.976l-6.8-14.235a8.435,8.435,0,0,1,1.934-9.85l-3.267-6.82L79.14,212.088a40.514,40.514,0,0,1-15.051-16.993L1.455,64.116c-1.2-2.493-10.173-24.9,36.909-49.832a5.423,5.423,0,0,1,1.1-.695c1.411-.695,2.794-1.347,4.083-1.956.738-.365,1.5-.738,2.271-1.1.616-.294,1.247-.587,1.863-.874A5.186,5.186,0,0,1,48.9,9.248c48.98-21.033,60.786.043,61.982,2.536l62.642,130.986a40.475,40.475,0,0,1,3.761,22.387l-4.169,46.773,3.267,6.82a8.46,8.46,0,0,1,8.883,4.671l6.8,14.242A8.44,8.44,0,0,1,188.1,248.91Z" transform="matrix(-0.978, -0.208, 0.208, -0.978, 188.676, 308.024)" fill="#ee7514"/>
</svg>
