<svg xmlns="http://www.w3.org/2000/svg" width="245.624" height="308.024" viewBox="0 0 245.624 308.024">
  <path id="패스_1181" data-name="패스 1181" d="M188.1,25,137.563.824A8.464,8.464,0,0,0,126.3,4.8l-6.8,14.235a8.435,8.435,0,0,0,1.934,9.85l-3.267,6.82L79.141,61.818A40.515,40.515,0,0,0,64.089,78.811L1.455,209.789c-1.2,2.493-10.173,24.9,36.909,49.832a5.428,5.428,0,0,0,1.1.7c1.411.695,2.794,1.347,4.083,1.956.738.365,1.5.738,2.271,1.1.616.294,1.247.587,1.862.874a5.2,5.2,0,0,0,1.218.409c48.98,21.033,60.786-.043,61.982-2.536l62.642-130.986a40.472,40.472,0,0,0,3.761-22.387l-4.169-46.773,3.267-6.82a8.461,8.461,0,0,0,8.883-4.671l6.8-14.242A8.44,8.44,0,0,0,188.1,25Z" transform="matrix(0.978, -0.208, 0.208, 0.978, 0, 40.104)" fill="#ee7514"/>
</svg>
