<svg id="그룹_540" data-name="그룹 540" xmlns="http://www.w3.org/2000/svg" width="75.463" height="73.03" viewBox="0 0 75.463 73.03">
  <g id="그룹_539" data-name="그룹 539" transform="translate(0 7.793)">
    <path id="패스_1100" data-name="패스 1100" d="M-1914.676,4525.843h0c-.277-12.281-6.7-32.252-11.268-32.252-3.786,0-10.752,3.419-14.947,10.125a41.966,41.966,0,0,0-19.176,0c-4.192-6.706-11.161-10.125-14.947-10.125-4.564,0-10.991,19.971-11.268,32.252a30.859,30.859,0,0,0-1.929,10.724c0,18.754,16.049,22.261,37,22.261s38.46-3.507,38.46-22.261A30.859,30.859,0,0,0-1914.676,4525.843Z" transform="translate(1988.211 -4493.591)" fill="#040506"/>
    <g id="그룹_538" data-name="그룹 538" transform="translate(11.474 23.039)">
      <g id="그룹_536" data-name="그룹 536">
        <ellipse id="타원_148" data-name="타원 148" cx="10.602" cy="15.152" rx="10.602" ry="15.152" fill="#fff"/>
        <ellipse id="타원_149" data-name="타원 149" cx="8.585" cy="12.27" rx="8.585" ry="12.27" transform="translate(2.776 2.882)" fill="#040506"/>
      </g>
      <g id="그룹_537" data-name="그룹 537" transform="translate(31.313)">
        <ellipse id="타원_150" data-name="타원 150" cx="10.602" cy="15.152" rx="10.602" ry="15.152" fill="#fff"/>
        <ellipse id="타원_151" data-name="타원 151" cx="8.585" cy="12.27" rx="8.585" ry="12.27" transform="translate(1.258 2.882)" fill="#040506"/>
      </g>
    </g>
    <path id="패스_1101" data-name="패스 1101" d="M-1967.878,4518.848h-2.967a1.166,1.166,0,0,0-1.165,1.164,1.156,1.156,0,0,0,.341.822l.1.1a.344.344,0,0,1,.1.242v1.676a.748.748,0,0,0,.747.747H-1968a.748.748,0,0,0,.747-.747v-1.676a.343.343,0,0,1,.1-.242l.1-.1a1.156,1.156,0,0,0,.341-.822A1.164,1.164,0,0,0-1967.878,4518.848Z" transform="translate(1995.276 -4482.575)" fill="#fff"/>
    <path id="패스_1102" data-name="패스 1102" d="M-1951.454,4518.848h-2.969a1.164,1.164,0,0,0-1.163,1.164,1.157,1.157,0,0,0,.341.822l.1.1a.344.344,0,0,1,.1.242v1.676a.748.748,0,0,0,.747.747h2.716a.748.748,0,0,0,.747-.747v-1.676a.348.348,0,0,1,.1-.242l.1-.1a1.157,1.157,0,0,0,.34-.822A1.164,1.164,0,0,0-1951.454,4518.848Z" transform="translate(2002.439 -4482.575)" fill="#fff"/>
  </g>
  <path id="패스_1103" data-name="패스 1103" d="M-1959.66,4488.494a7.356,7.356,0,0,0-2.466,10.314l.379.614.172.282.531.863c1.305,2.124,1.249,2.751-.859,4.049l-4.413,2.712,2.356,3.831,4.412-2.713c4.207-2.587,4.912-5.98,2.305-10.217l-.53-.863-.174-.281-.378-.614a2.908,2.908,0,0,1,1.018-4.145,2.242,2.242,0,0,0,.724-3.085A2.239,2.239,0,0,0-1959.66,4488.494Z" transform="translate(1997.76 -4488.165)" fill="#040506"/>
</svg>
