<svg xmlns="http://www.w3.org/2000/svg" xmlns:xlink="http://www.w3.org/1999/xlink" width="42" height="41" viewBox="0 0 42 41">
  <defs>
    <clipPath id="clip-path">
      <circle id="타원_232" data-name="타원 232" cx="20.5" cy="20.5" r="20.5" transform="translate(499 3364)" fill="#faf2ea"/>
    </clipPath>
  </defs>
  <g id="그룹_774" data-name="그룹 774" transform="translate(986 -2431)">
    <g id="마스크_그룹_39" data-name="마스크 그룹 39" transform="translate(-1485 -933)" clip-path="url(#clip-path)">
      <path id="패스_1168" data-name="패스 1168" d="M20.5,0A20.5,20.5,0,1,1,0,20.5,20.5,20.5,0,0,1,20.5,0Z" transform="translate(499 3364)" fill="#fff"/>
      <g id="그룹_755" data-name="그룹 755" transform="translate(505.452 3371.973)">
        <path id="패스_1154" data-name="패스 1154" d="M-3894.277,4651.118a3.937,3.937,0,0,0-3.335-1.974,5.1,5.1,0,0,0-4.284,2.213,6.263,6.263,0,0,0-.842,4.106c.017.272.039.545.062.818a8.568,8.568,0,0,1,0,2.287,2.431,2.431,0,0,1-1.7,1.76,2.72,2.72,0,0,1-1.12.092,40.692,40.692,0,0,0,.45-5.922,26.21,26.21,0,0,0-.2-3.411c0-.065-.008-.134-.017-.206-.079-.6-.135-.983-.175-1.223h0c-.084-.557-.142-.855-.142-.855h0a37.809,37.809,0,0,0-1.482-6.6l-.348.131c-.044-.116-.069-.177-.069-.177-8.27-2.412-16.458-4.692-20.344,0,0,0-.045.1-.123.3l-.779-.249a37.794,37.794,0,0,0-1.15,6.662h0s-.042.3-.1.861h0c-.028.242-.065.625-.114,1.23h0a23.651,23.651,0,0,0-.148,2.639h0c-.275,4.464,1.268,18.282,6.7,18.282,1.676,0,2.191-4.207,2.344-6.334a22.511,22.511,0,0,0,4.964.5,17.985,17.985,0,0,0,2.144-.167c.182,2.2.727,6,2.319,6,2.9,0,4.7-3.953,5.692-8.312a6.628,6.628,0,0,0,.955.072,5.666,5.666,0,0,0,1.708-.258,5.6,5.6,0,0,0,3.885-4.2,11.261,11.261,0,0,0,.05-3.176c-.021-.249-.042-.5-.057-.744a3.393,3.393,0,0,1,.3-2.118,1.907,1.907,0,0,1,1.524-.8.722.722,0,0,1,.669.391.635.635,0,0,1-.032.674,1.6,1.6,0,0,0,.015,2.269,1.6,1.6,0,0,0,2.268-.016A3.815,3.815,0,0,0-3894.277,4651.118Z" transform="translate(3932.067 -4623.062)" fill="#eb8439"/>
        <circle id="타원_227" data-name="타원 227" cx="8.511" cy="8.511" r="8.511" transform="translate(2.443 31.344) rotate(-45)" fill="#fff"/>
        <path id="패스_1155" data-name="패스 1155" d="M-3624.216,5134.117a1.045,1.045,0,0,0-.556,1.443,1.119,1.119,0,0,0,.842.457,9.54,9.54,0,0,0,1.968.059,1.7,1.7,0,0,0,1.066-.358.948.948,0,0,0-.01-1.284,2.26,2.26,0,0,0-1.563-.6,3.322,3.322,0,0,0-1.747.281Zm2.086.351a.179.179,0,0,1,.222-.219.706.706,0,0,1,.414.476.228.228,0,0,1-.073.273c-.266.163-.529-.371-.564-.53Zm-.936-.033a.178.178,0,0,1,.222-.219.7.7,0,0,1,.415.475.229.229,0,0,1-.073.274c-.266.163-.528-.371-.564-.53Zm-.929.048a.178.178,0,0,1,.222-.219.7.7,0,0,1,.415.475.229.229,0,0,1-.073.274c-.266.163-.528-.371-.564-.53Z" transform="translate(3637.25 -5100.369)" fill="#eb8439"/>
        <g id="그룹_754" data-name="그룹 754" transform="translate(0 0)">
          <g id="그룹_752" data-name="그룹 752" transform="translate(0.081)">
            <path id="패스_1156" data-name="패스 1156" d="M-3952.621,4175.435h0c4.819-14.989-9.676-8.167-9.676-8.167a15.489,15.489,0,0,0-7.079,0h0s-14.495-6.822-9.676,8.168h0a11.378,11.378,0,0,0-.712,3.958c0,6.922,6.193,7.307,13.928,7.307s13.928-.385,13.928-7.307a11.384,11.384,0,0,0-.712-3.958Z" transform="translate(3980.034 -4165.718)" fill="#eb8439"/>
            <g id="그룹_750" data-name="그룹 750" transform="translate(4.504 5.744)">
              <g id="그룹_748" data-name="그룹 748">
                <ellipse id="타원_228" data-name="타원 228" cx="3.913" cy="5.593" rx="3.913" ry="5.593" fill="#fbf7f1"/>
                <ellipse id="타원_229" data-name="타원 229" cx="3.169" cy="4.529" rx="3.169" ry="4.529" transform="translate(1.025 1.064)" fill="#040506"/>
                <path id="패스_1157" data-name="패스 1157" d="M-3722.533,4473.31h-1.1a.43.43,0,0,0-.43.429.426.426,0,0,0,.126.3l.038.038a.126.126,0,0,1,.037.089v.619a.276.276,0,0,0,.276.276h1a.276.276,0,0,0,.276-.276v-.619a.126.126,0,0,1,.037-.089l.038-.038a.425.425,0,0,0,.126-.3A.43.43,0,0,0-3722.533,4473.31Z" transform="translate(3728.399 -4468.425)" fill="#fbf7f1"/>
              </g>
              <g id="그룹_749" data-name="그룹 749" transform="translate(11.558)">
                <ellipse id="타원_230" data-name="타원 230" cx="3.913" cy="5.593" rx="3.913" ry="5.593" fill="#fbf7f1"/>
                <ellipse id="타원_231" data-name="타원 231" cx="3.169" cy="4.529" rx="3.169" ry="4.529" transform="translate(0.464 1.064)" fill="#040506"/>
                <path id="패스_1158" data-name="패스 1158" d="M-3470.206,4473.31h-1.1a.43.43,0,0,0-.43.429.426.426,0,0,0,.126.3l.038.038a.126.126,0,0,1,.037.089v.619a.276.276,0,0,0,.276.276h1a.276.276,0,0,0,.276-.276v-.619a.126.126,0,0,1,.037-.089l.038-.038a.425.425,0,0,0,.126-.3A.43.43,0,0,0-3470.206,4473.31Z" transform="translate(3473.232 -4468.425)" fill="#fbf7f1"/>
              </g>
            </g>
            <g id="그룹_751" data-name="그룹 751" transform="translate(11.962 1.128)">
              <path id="패스_1159" data-name="패스 1159" d="M-3633.854,4201.532c0,1.105.235,2,.524,2s.524-.9.524-2a6.054,6.054,0,0,0-.134-1.333c-.29.025-.557.057-.8.089A6.286,6.286,0,0,0-3633.854,4201.532Z" transform="translate(3633.854 -4200.136)" fill="#fbf7f1"/>
              <path id="패스_1160" data-name="패스 1160" d="M-3584.193,4198.37a5.911,5.911,0,0,0-.147,1.389c0,1.105.235,2,.524,2s.524-.9.524-2a5.9,5.9,0,0,0-.148-1.395C-3583.7,4198.36-3583.95,4198.363-3584.193,4198.37Z" transform="translate(3586.051 -4198.362)" fill="#fbf7f1"/>
              <path id="패스_1161" data-name="패스 1161" d="M-3534.689,4199.729a6.015,6.015,0,0,0-.138,1.349c0,1.105.235,2,.524,2s.524-.9.524-2a6.238,6.238,0,0,0-.118-1.263C-3534.164,4199.778-3534.428,4199.75-3534.689,4199.729Z" transform="translate(3538.248 -4199.682)" fill="#fbf7f1"/>
            </g>
          </g>
          <path id="패스_1162" data-name="패스 1162" d="M-3296.708,4641.91h-.329a.129.129,0,0,0-.129.129.128.128,0,0,0,.038.091l.011.011a.04.04,0,0,1,.011.027v.186a.083.083,0,0,0,.083.083h.3a.083.083,0,0,0,.083-.083v-.186a.039.039,0,0,1,.011-.027l.011-.011a.128.128,0,0,0,.038-.091A.129.129,0,0,0-3296.708,4641.91Z" transform="translate(3320.843 -4625.456)" fill="#fbf7f1"/>
          <g id="그룹_753" data-name="그룹 753" transform="translate(0 0.409)">
            <path id="패스_1163" data-name="패스 1163" d="M-3981.327,4186.854s3.412-9.5,1.219-9.305S-3983.306,4181.284-3981.327,4186.854Z" transform="translate(3982.39 -4177.546)" fill="#fbf7f1"/>
            <path id="패스_1164" data-name="패스 1164" d="M-3241.3,4186.854s-3.412-9.5-1.218-9.305S-3239.318,4181.284-3241.3,4186.854Z" transform="translate(3268.791 -4177.546)" fill="#fbf7f1"/>
          </g>
        </g>
        <path id="패스_1165" data-name="패스 1165" d="M-3667.558,4644.256l-2.06-.985a.345.345,0,0,0-.459.162l-.277.581a.344.344,0,0,0,.079.4l-.133.278-1.591,1.064a1.65,1.65,0,0,0-.614.692l-2.553,5.339c-.049.1-.415,1.015,1.5,2.031a.227.227,0,0,0,.045.029l.167.08.093.045.076.036a.239.239,0,0,0,.05.017c2,.856,2.478,0,2.526-.1l2.553-5.339a1.65,1.65,0,0,0,.154-.913l-.17-1.906.133-.278a.344.344,0,0,0,.362-.19l.278-.58A.345.345,0,0,0-3667.558,4644.256Z" transform="translate(3685.839 -4626.737)" fill="#e85300"/>
        <path id="패스_1166" data-name="패스 1166" d="M-3919.5,4736.771c4.665,1.243,8.891-.482,9.181,2.523.015,3.517-9.126,4.543-11.448,4.747l-.035.082c.273-.665,2.2-7.377,2.2-7.377Z" transform="translate(3923.895 -4717.015)" fill="#eb8439"/>
        <path id="패스_1167" data-name="패스 1167" d="M-3531.312,4734.319c.3-2.946,4.361-1.324,8.924-2.41.207.732,1.726,6.106,2.093,7.175C-3523.118,4738.792-3531.342,4737.656-3531.312,4734.319Z" transform="translate(3546.898 -4712.345)" fill="#eb8439"/>
      </g>
    </g>
    <circle id="타원_233" data-name="타원 233" cx="5" cy="5" r="5" transform="translate(-954 2460)" fill="#1fe800"/>
  </g>
</svg>
