<svg xmlns="http://www.w3.org/2000/svg" xmlns:xlink="http://www.w3.org/1999/xlink" width="42" height="41" viewBox="0 0 42 41">
  <defs>
    <clipPath id="clip-path">
      <circle id="타원_217" data-name="타원 217" cx="20.5" cy="20.5" r="20.5" transform="translate(499 2940)" fill="#ee994d"/>
    </clipPath>
  </defs>
  <g id="그룹_773" data-name="그룹 773" transform="translate(1220 -2431)">
    <g id="마스크_그룹_37" data-name="마스크 그룹 37" transform="translate(-1719 -509)" clip-path="url(#clip-path)">
      <path id="패스_1139" data-name="패스 1139" d="M20.5,0A20.5,20.5,0,1,1,0,20.5,20.5,20.5,0,0,1,20.5,0Z" transform="translate(499 2940)" fill="#fff"/>
      <g id="그룹_737" data-name="그룹 737" transform="translate(505.651 2945.342)">
        <path id="패스_1132" data-name="패스 1132" d="M-7120.951,3567.886a3.978,3.978,0,0,0-3.368-1.994,5.151,5.151,0,0,0-4.327,2.235,6.329,6.329,0,0,0-.85,4.147c.017.275.04.55.063.826a8.625,8.625,0,0,1,0,2.309,2.453,2.453,0,0,1-1.712,1.777,2.745,2.745,0,0,1-1.132.093,41.094,41.094,0,0,0,.455-5.981,26.461,26.461,0,0,0-.206-3.445c0-.066-.008-.135-.018-.208-.08-.609-.137-.993-.177-1.235h0c-.085-.563-.143-.864-.143-.864h0a38.188,38.188,0,0,0-1.5-6.661l-.352.132c-.044-.117-.069-.179-.069-.179-8.352-2.436-16.621-4.739-20.545,0,0,0-.045.106-.124.3l-.787-.251a38.2,38.2,0,0,0-1.162,6.728h0s-.043.3-.1.87h0c-.028.244-.066.631-.115,1.243v0a23.766,23.766,0,0,0-.15,2.665h0c-.277,4.508,1.281,18.462,6.763,18.462,1.692,0,2.212-4.248,2.368-6.4a22.753,22.753,0,0,0,5.013.506,18.283,18.283,0,0,0,2.166-.169c.184,2.226.733,6.059,2.341,6.059,2.932,0,4.742-3.991,5.748-8.395a6.655,6.655,0,0,0,.965.072,5.73,5.73,0,0,0,1.725-.26,5.655,5.655,0,0,0,3.923-4.242,11.373,11.373,0,0,0,.05-3.207c-.021-.251-.042-.5-.058-.752a3.428,3.428,0,0,1,.3-2.139,1.927,1.927,0,0,1,1.539-.809.728.728,0,0,1,.675.395.641.641,0,0,1-.032.681,1.619,1.619,0,0,0,.016,2.291,1.619,1.619,0,0,0,2.291-.015A3.853,3.853,0,0,0-7120.951,3567.886Z" transform="translate(7158.571 -3537.015)" fill="#040506"/>
        <circle id="타원_212" data-name="타원 212" cx="8.595" cy="8.595" r="8.595" transform="translate(1.736 33.915) rotate(-45)" fill="#fff"/>
        <g id="그룹_736" data-name="그룹 736" transform="translate(0 0)">
          <path id="패스_1133" data-name="패스 1133" d="M-7166.719,3021.515h0c-.1-4.522-2.467-11.874-4.148-11.874-1.394,0-3.958,1.259-5.5,3.728a15.449,15.449,0,0,0-7.06,0c-1.543-2.469-4.109-3.728-5.5-3.728-1.681,0-4.046,7.353-4.148,11.874a11.351,11.351,0,0,0-.71,3.948c0,6.9,5.909,8.2,13.623,8.2s14.161-1.291,14.161-8.2A11.363,11.363,0,0,0-7166.719,3021.515Z" transform="translate(7193.792 -3009.641)" fill="#040506"/>
          <g id="그룹_735" data-name="그룹 735" transform="translate(4.225 8.482)">
            <g id="그룹_733" data-name="그룹 733">
              <ellipse id="타원_213" data-name="타원 213" cx="3.903" cy="5.579" rx="3.903" ry="5.579" fill="#fff"/>
              <ellipse id="타원_214" data-name="타원 214" cx="3.161" cy="4.517" rx="3.161" ry="4.517" transform="translate(1.022 1.061)" fill="#040506"/>
            </g>
            <g id="그룹_734" data-name="그룹 734" transform="translate(11.528)">
              <ellipse id="타원_215" data-name="타원 215" cx="3.903" cy="5.579" rx="3.903" ry="5.579" fill="#fff"/>
              <ellipse id="타원_216" data-name="타원 216" cx="3.161" cy="4.517" rx="3.161" ry="4.517" transform="translate(0.463 1.061)" fill="#040506"/>
            </g>
          </g>
          <path id="패스_1134" data-name="패스 1134" d="M-6946.789,3392.321h-1.092a.429.429,0,0,0-.429.428.425.425,0,0,0,.125.3l.038.038a.127.127,0,0,1,.036.088v.617a.275.275,0,0,0,.275.275h1a.275.275,0,0,0,.275-.275v-.617a.125.125,0,0,1,.037-.088l.038-.038a.426.426,0,0,0,.125-.3A.429.429,0,0,0-6946.789,3392.321Z" transform="translate(6956.876 -3378.967)" fill="#fff"/>
          <path id="패스_1135" data-name="패스 1135" d="M-6697.942,3392.321h-1.092a.429.429,0,0,0-.429.428.425.425,0,0,0,.125.3l.038.038a.127.127,0,0,1,.037.088v.617a.275.275,0,0,0,.275.275h1a.275.275,0,0,0,.275-.275v-.617a.127.127,0,0,1,.037-.088l.038-.038a.426.426,0,0,0,.125-.3A.429.429,0,0,0-6697.942,3392.321Z" transform="translate(6716.713 -3378.967)" fill="#fff"/>
        </g>
        <path id="패스_1136" data-name="패스 1136" d="M-6945.039,3570.46l-5.746,1.492a2.331,2.331,0,0,0-1.668,2.838,2.312,2.312,0,0,0,1.074,1.422l.251.148a.681.681,0,0,1,.313.415l.843,3.246a1.5,1.5,0,0,0,1.822,1.07l5.258-1.365a1.5,1.5,0,0,0,1.07-1.822l-.843-3.245a.682.682,0,0,1,.072-.515l.147-.251a2.314,2.314,0,0,0,.246-1.765A2.331,2.331,0,0,0-6945.039,3570.46Z" transform="translate(6960.947 -3550.818)" fill="#e85300"/>
        <path id="패스_1137" data-name="패스 1137" d="M-7146.507,3653.424c4.711,1.255,8.979-.488,9.271,2.548.015,3.551-9.217,4.588-11.562,4.794l-.035.083c.275-.671,2.223-7.451,2.223-7.451Z" transform="translate(7150.401 -3630.933)" fill="#040506"/>
        <path id="패스_1138" data-name="패스 1138" d="M-6758.342,3651c.3-2.976,4.4-1.337,9.012-2.434.208.739,1.743,6.167,2.114,7.245C-6750.067,3655.513-6758.373,3654.366-6758.342,3651Z" transform="translate(6773.537 -3626.267)" fill="#040506"/>
      </g>
    </g>
    <circle id="타원_218" data-name="타원 218" cx="5" cy="5" r="5" transform="translate(-1188 2460)" fill="#1fe800"/>
  </g>
</svg>
