<svg xmlns="http://www.w3.org/2000/svg" width="41.898" height="41.898" viewBox="0 0 41.898 41.898">
  <g id="그룹_546" data-name="그룹 546" transform="translate(-20 -20)">
    <path id="패스_1122" data-name="패스 1122" d="M40.949,20A20.949,20.949,0,1,1,20,40.949,20.954,20.954,0,0,1,40.949,20Zm0,26.044-5.874,5.874c-3.275,3.327-8.369-1.767-5.042-5.094l5.874-5.874-5.874-5.874c-3.327-3.275,1.767-8.369,5.042-5.042l5.874,5.874,5.874-5.874c3.327-3.327,8.421,1.767,5.094,5.042l-5.874,5.874,5.874,5.874c3.327,3.327-1.767,8.421-5.094,5.094Z" fill="#ea5b18" fill-rule="evenodd"/>
  </g>
</svg>
