<svg xmlns="http://www.w3.org/2000/svg" width="245.654" height="35.425" viewBox="0 0 245.654 35.425">
  <g id="그룹_852" data-name="그룹 852" transform="translate(-331.497 -151.274)">
    <path id="패스_1581" data-name="패스 1581" d="M344.68,186.7a20.479,20.479,0,0,1-6.372-.976,11.18,11.18,0,0,1-4.858-2.979,7.635,7.635,0,0,1-1.953-5.42,11.42,11.42,0,0,1,.634-3.662q.634-1.88,1.465-3.833.9-2.05,1.612-4.175a13.392,13.392,0,0,0,.708-4.248,9.049,9.049,0,0,0-1.075-4.345,3.974,3.974,0,0,1-.488-1.734,2.656,2.656,0,0,1,1.27-2.27,9.062,9.062,0,0,1,3.32-1.307,21.459,21.459,0,0,1,4.37-.427,25.6,25.6,0,0,1,5.408.55,12.3,12.3,0,0,1,4.138,1.586,3.128,3.128,0,0,1,1.636,2.527q0,2.052-3.3,3.833-.586.318-.891.513T350,160.7q0,.366,1.465.879a15.217,15.217,0,0,1,7.154,5.2,14.353,14.353,0,0,1,2.71,8.594,8.3,8.3,0,0,1-1.465,4.846,12.306,12.306,0,0,1-3.882,3.553,19.978,19.978,0,0,1-5.371,2.185A24.211,24.211,0,0,1,344.68,186.7Zm-.757-26.636a2.334,2.334,0,0,0,.977-.268,11.61,11.61,0,0,0,2.832-1.892,2.377,2.377,0,0,0,.854-1.453q0-.952-1.684-1.025a6.1,6.1,0,0,0-1.734.293,3.169,3.169,0,0,0-1.721,1.294,3.24,3.24,0,0,0-.573,1.733,1.636,1.636,0,0,0,.256.94A.889.889,0,0,0,343.923,160.063Zm4.761,8.252a3.968,3.968,0,0,0,1.819-.305.887.887,0,0,0,.549-.769,2.147,2.147,0,0,0-.976-1.489,9.281,9.281,0,0,0-2.417-1.392,7.5,7.5,0,0,0-2.832-.586,2.018,2.018,0,0,0-1.416.415,1.329,1.329,0,0,0-.44,1,2.569,2.569,0,0,0,.757,1.685Q345,168.315,348.684,168.315Z" fill="#242424"/>
    <path id="패스_1582" data-name="패스 1582" d="M388.552,186.333a10.1,10.1,0,0,1-2.978-.464,9.292,9.292,0,0,1-2.783-1.391,7.193,7.193,0,0,1-2.051-2.32,6.522,6.522,0,0,1-.782-3.247,11.907,11.907,0,0,1,1.465-5.2,9.8,9.8,0,0,0,1.2-4.126,4.056,4.056,0,0,0-.476-2.063,3.216,3.216,0,0,0-1.233-1.233,3.265,3.265,0,0,0-1.587-.415,3.042,3.042,0,0,0-2.649,1.55,3.736,3.736,0,0,0-.452,1.917,9.381,9.381,0,0,0,1.343,4.37,11.946,11.946,0,0,1,1.587,5.347,6.23,6.23,0,0,1-.806,3.222,7.182,7.182,0,0,1-2.1,2.271,9.458,9.458,0,0,1-2.832,1.343,10.829,10.829,0,0,1-2.979.439,8.7,8.7,0,0,1-5.408-1.672,5.129,5.129,0,0,1-2.209-4.261,9.3,9.3,0,0,1,.525-2.99,24.626,24.626,0,0,1,1.355-3.2q.829-1.647,1.758-3.332,1.024-1.806,1.928-3.626a27.787,27.787,0,0,0,1.5-3.625,11.241,11.241,0,0,0,.6-3.54,7.957,7.957,0,0,0-.318-2.222,4.643,4.643,0,0,1-.2-1.269,3.669,3.669,0,0,1,1.367-2.918,8.9,8.9,0,0,1,3.516-1.733,17.961,17.961,0,0,1,9.009,0,8.9,8.9,0,0,1,3.515,1.733,3.667,3.667,0,0,1,1.368,2.918,4.647,4.647,0,0,1-.2,1.269,7.706,7.706,0,0,0-.317,2.2,10.832,10.832,0,0,0,.622,3.541,27.152,27.152,0,0,0,1.563,3.625q.939,1.819,1.965,3.625.977,1.71,1.831,3.345a24.4,24.4,0,0,1,1.4,3.2,9.05,9.05,0,0,1,.549,3,5.129,5.129,0,0,1-2.209,4.261A8.7,8.7,0,0,1,388.552,186.333Zm-9.009-23.315a2.439,2.439,0,0,0,1.307-.354,1.235,1.235,0,0,0,.573-1.136,2.754,2.754,0,0,0-.219-.976q-.879-1.929-1.831-1.929-1.051,0-1.954,2.295a1.708,1.708,0,0,0-.1.537,1.278,1.278,0,0,0,.708,1.148A2.946,2.946,0,0,0,379.543,163.018Z" fill="#242424"/>
    <path id="패스_1583" data-name="패스 1583" d="M408.206,186.382a13.512,13.512,0,0,1-5.188-.977,8.713,8.713,0,0,1-3.8-2.893,7.809,7.809,0,0,1-1.416-4.773,13.164,13.164,0,0,1,.488-3.454q.489-1.8,1.148-3.65.682-1.953,1.233-3.943a14.857,14.857,0,0,0,.549-3.967,9.351,9.351,0,0,0-1.367-4.956,6.028,6.028,0,0,1-1-2.881q0-1.637,2.161-2.613a13.154,13.154,0,0,1,5.407-.976,22.055,22.055,0,0,1,5.042.622,20.448,20.448,0,0,1,5.163,2,17.043,17.043,0,0,1,7.789,9.058,20.813,20.813,0,0,1,1.221,7.458,14.383,14.383,0,0,1-1.587,6.861,15.73,15.73,0,0,1-4.151,5,18.408,18.408,0,0,1-5.64,3.051A19.062,19.062,0,0,1,408.206,186.382Zm2.148-19.946a2.427,2.427,0,0,0,1.831-.769,4.857,4.857,0,0,0,1.1-1.978,8.587,8.587,0,0,0,.366-2.5,8.836,8.836,0,0,0-.415-2.71A5.254,5.254,0,0,0,412,156.353a2.744,2.744,0,0,0-2.039-.831,1.437,1.437,0,0,0-.915.318,2.116,2.116,0,0,0-.623,1.147,9.818,9.818,0,0,0-.219,2.368q0,4.908,1.049,6.4A1.325,1.325,0,0,0,410.354,166.436Z" fill="#242424"/>
    <path id="패스_1584" data-name="패스 1584" d="M441.824,186.333a13.628,13.628,0,0,1-5.091-.989,13.275,13.275,0,0,1-4.467-2.966,14.331,14.331,0,0,1-3.174-4.956,18.77,18.77,0,0,1-1.184-6.958,27.126,27.126,0,0,1,1.172-8.4,17.942,17.942,0,0,1,3.137-5.957,13.193,13.193,0,0,1,4.431-3.552,11.61,11.61,0,0,1,5.079-1.184,11.74,11.74,0,0,1,5.163,1.209,13.58,13.58,0,0,1,4.492,3.576,17.757,17.757,0,0,1,3.162,5.908,26.214,26.214,0,0,1,1.172,8.228,19.45,19.45,0,0,1-1.2,7.153,14.32,14.32,0,0,1-3.2,5.005,12.942,12.942,0,0,1-4.48,2.93A13.885,13.885,0,0,1,441.824,186.333Zm.122-17.48a2.239,2.239,0,0,0,1.514-.635,4.669,4.669,0,0,0,1.172-1.88,8.9,8.9,0,0,0,.464-3.076,17.51,17.51,0,0,0-.477-4.444,7.117,7.117,0,0,0-1.221-2.685,2.062,2.062,0,0,0-1.549-.9,1.936,1.936,0,0,0-1.453.831,6.37,6.37,0,0,0-1.124,2.5,17.381,17.381,0,0,0-.426,4.211,9.1,9.1,0,0,0,.9,4.566A2.587,2.587,0,0,0,441.946,168.853Z" fill="#242424"/>
    <path id="패스_1585" data-name="패스 1585" d="M479.886,186.333a7.2,7.2,0,0,1-4.151-1.343,9.973,9.973,0,0,1-1.282-1.025q-.354-.366-.573-.366a1.124,1.124,0,0,0-.623.378q-.4.378-1.306,1.062a6.5,6.5,0,0,1-3.906,1.294,15.27,15.27,0,0,1-5.921-.989,7.473,7.473,0,0,1-3.467-2.722,7.1,7.1,0,0,1-1.135-3.979,15.974,15.974,0,0,1,.647-4.493q.648-2.221,1.477-4.394.781-2.05,1.379-4.077a14.088,14.088,0,0,0,.6-4,10.162,10.162,0,0,0-.33-2.564,9.366,9.366,0,0,0-1.1-2.527,4.346,4.346,0,0,1-.768-2.16,2.177,2.177,0,0,1,.793-1.746,5.045,5.045,0,0,1,2.051-.989,11,11,0,0,1,5.3.013,5.466,5.466,0,0,1,2.1.988,2.049,2.049,0,0,1,.818,1.661,3.52,3.52,0,0,1-.732,1.9,6.375,6.375,0,0,0-.867,2.112,11.854,11.854,0,0,0-.3,2.746,13.435,13.435,0,0,0,.659,4.395,7.969,7.969,0,0,0,1.685,2.966,2.99,2.99,0,0,0,2.148,1.062,2.373,2.373,0,0,0,1.612-.683,4.878,4.878,0,0,0,1.232-2.088,11.325,11.325,0,0,0,.477-3.577,22.494,22.494,0,0,0-.306-3.955,6.919,6.919,0,0,0-1.281-2.978,3.516,3.516,0,0,1-.83-2,1.976,1.976,0,0,1,.8-1.6,5.349,5.349,0,0,1,2.063-.965,10.906,10.906,0,0,1,5.273.013,5.162,5.162,0,0,1,2.1,1.025,2.274,2.274,0,0,1,.818,1.819,4.466,4.466,0,0,1-.659,2.075,9.194,9.194,0,0,0-1.2,4.541,11.88,11.88,0,0,0,.488,3.113q.487,1.77,1.208,3.674t1.477,3.76q.879,2.124,1.514,3.857a8.508,8.508,0,0,1,.635,2.662,9,9,0,0,1-.941,4.174,6.783,6.783,0,0,1-2.843,2.881A9.935,9.935,0,0,1,479.886,186.333Z" fill="#242424"/>
    <path id="패스_1586" data-name="패스 1586" d="M503.592,186.7a20.479,20.479,0,0,1-6.372-.976,11.184,11.184,0,0,1-4.859-2.979,7.639,7.639,0,0,1-1.953-5.42,11.4,11.4,0,0,1,.635-3.662q.635-1.88,1.465-3.833.9-2.05,1.611-4.175a13.363,13.363,0,0,0,.708-4.248,9.049,9.049,0,0,0-1.074-4.345,3.961,3.961,0,0,1-.488-1.734,2.655,2.655,0,0,1,1.269-2.27,9.062,9.062,0,0,1,3.32-1.307,21.469,21.469,0,0,1,4.371-.427,25.589,25.589,0,0,1,5.407.55,12.3,12.3,0,0,1,4.139,1.586,3.13,3.13,0,0,1,1.635,2.527q0,2.052-3.3,3.833c-.39.212-.688.383-.891.513s-.3.252-.3.366q0,.366,1.465.879a15.214,15.214,0,0,1,7.153,5.2,14.347,14.347,0,0,1,2.71,8.594,8.289,8.289,0,0,1-1.465,4.846,12.29,12.29,0,0,1-3.881,3.553,20,20,0,0,1-5.372,2.185A24.2,24.2,0,0,1,503.592,186.7Zm-.757-26.636a2.338,2.338,0,0,0,.977-.268,11.63,11.63,0,0,0,2.832-1.892,2.377,2.377,0,0,0,.854-1.453q0-.952-1.685-1.025a6.094,6.094,0,0,0-1.733.293,3.167,3.167,0,0,0-1.722,1.294,3.248,3.248,0,0,0-.573,1.733,1.636,1.636,0,0,0,.256.94A.891.891,0,0,0,502.835,160.063Zm4.761,8.252a3.966,3.966,0,0,0,1.818-.305.888.888,0,0,0,.55-.769,2.149,2.149,0,0,0-.977-1.489,9.265,9.265,0,0,0-2.417-1.392,7.494,7.494,0,0,0-2.832-.586,2.02,2.02,0,0,0-1.416.415,1.328,1.328,0,0,0-.439,1,2.569,2.569,0,0,0,.757,1.685Q503.907,168.315,507.6,168.315Z" fill="#242424"/>
    <path id="패스_1587" data-name="패스 1587" d="M535.452,186.333a22.78,22.78,0,0,1-6.836-.964,12.062,12.062,0,0,1-4.9-2.735,5.619,5.619,0,0,1-1.819-4.162,6.012,6.012,0,0,1,.171-1.416,52.825,52.825,0,0,1,1.782-5.811q.855-2.393,1.526-4.748a16.777,16.777,0,0,0,.672-4.6,10.84,10.84,0,0,0-.342-2.7,9.049,9.049,0,0,0-1.148-2.6,4.323,4.323,0,0,1-.8-2.222,2.13,2.13,0,0,1,.781-1.709,5.025,5.025,0,0,1,2.026-.977,10.472,10.472,0,0,1,2.588-.317,10.979,10.979,0,0,1,2.7.33,5.464,5.464,0,0,1,2.136,1,2.092,2.092,0,0,1,.83,1.7,3.557,3.557,0,0,1-.732,1.893,7.982,7.982,0,0,0-1.1,2.563,12.693,12.693,0,0,0-.366,3.064,13.7,13.7,0,0,0,.513,3.76,7.978,7.978,0,0,0,1.465,2.954,2.84,2.84,0,0,0,2.246,1.147q1.806,0,3.784-2.441a4.038,4.038,0,0,1,2.954-1.709,3.178,3.178,0,0,1,2.136.9,6.491,6.491,0,0,1,1.66,2.735,14,14,0,0,1,.647,4.614q0,6.787-3.955,9.863A13.547,13.547,0,0,1,535.452,186.333Z" fill="#242424"/>
    <path id="패스_1588" data-name="패스 1588" d="M562.991,186.235a21.279,21.279,0,0,1-4.846-.549,16.608,16.608,0,0,1-4.211-1.562,9.1,9.1,0,0,1-2.955-2.466,5.238,5.238,0,0,1-1.1-3.235,15.393,15.393,0,0,1,.524-3.955q.525-1.979,1.2-3.955t1.184-3.919a15,15,0,0,0,.513-3.845,9.394,9.394,0,0,0-1.367-4.98,5.9,5.9,0,0,1-1-2.857q0-2.246,3.027-3.052a28.8,28.8,0,0,1,6.714-.586q2.22,0,4.468.049,2.124.073,3.955.073a1.9,1.9,0,0,1,1.33.477,2.9,2.9,0,0,1,.781,1.2,4.373,4.373,0,0,1,.257,1.477,3.421,3.421,0,0,1-.44,1.77,1.454,1.454,0,0,1-1.342.745,10.327,10.327,0,0,1-1.685-.245,26.752,26.752,0,0,0-4.565-.537,4.616,4.616,0,0,0-2,.367,2.591,2.591,0,0,0-1.1.9,1.952,1.952,0,0,0-.342,1.05,1.614,1.614,0,0,0,.513,1.172,1.85,1.85,0,0,0,1.367.512,7.09,7.09,0,0,0,1.745-.207q.818-.207,1.5-.452a4.587,4.587,0,0,1,1.563-.366,1.492,1.492,0,0,1,1.343.879,3.769,3.769,0,0,1,.488,1.855,2.581,2.581,0,0,1-.355,1.367,1.18,1.18,0,0,1-1.086.586,6.51,6.51,0,0,1-1.062-.11q-.648-.11-1.538-.207a19.73,19.73,0,0,0-2.112-.1,1.707,1.707,0,0,0-1.416.611,2.036,2.036,0,0,0-.488,1.294,2.259,2.259,0,0,0,.366,1.184,2.837,2.837,0,0,0,1.123,1,4.031,4.031,0,0,0,1.905.4h1.294a12.437,12.437,0,0,0,4.638-.683,8.5,8.5,0,0,1,3.54-.928,3.194,3.194,0,0,1,2.014.672,4.358,4.358,0,0,1,1.343,2.282,16.129,16.129,0,0,1,.476,4.395,12.35,12.35,0,0,1-1.22,5.713,10.916,10.916,0,0,1-3.247,3.857,13.984,13.984,0,0,1-4.554,2.2A18.925,18.925,0,0,1,562.991,186.235Z" fill="#242424"/>
  </g>
</svg>
