<svg xmlns="http://www.w3.org/2000/svg" width="154.15" height="35.888" viewBox="0 0 154.15 35.888">
  <g id="그룹_853" data-name="그룹 853" transform="translate(-33.497 -220.242)">
    <path id="패스_1589" data-name="패스 1589" d="M46.68,256.033a20.479,20.479,0,0,1-6.372-.977,11.179,11.179,0,0,1-4.858-2.978,7.636,7.636,0,0,1-1.953-5.42A11.416,11.416,0,0,1,34.131,243q.635-1.88,1.465-3.833.9-2.052,1.612-4.175a13.392,13.392,0,0,0,.708-4.248,9.051,9.051,0,0,0-1.075-4.346,3.97,3.97,0,0,1-.488-1.733,2.658,2.658,0,0,1,1.27-2.271,9.045,9.045,0,0,1,3.32-1.306,21.388,21.388,0,0,1,4.37-.427,25.666,25.666,0,0,1,5.408.549,12.3,12.3,0,0,1,4.138,1.587,3.127,3.127,0,0,1,1.636,2.527q0,2.05-3.3,3.833-.587.318-.891.513t-.306.366q0,.366,1.465.879a15.217,15.217,0,0,1,7.154,5.2,14.349,14.349,0,0,1,2.71,8.594,8.3,8.3,0,0,1-1.465,4.846,12.3,12.3,0,0,1-3.882,3.552,19.944,19.944,0,0,1-5.371,2.185A24.212,24.212,0,0,1,46.68,256.033ZM45.923,229.4a2.323,2.323,0,0,0,.977-.269,11.581,11.581,0,0,0,2.832-1.892,2.375,2.375,0,0,0,.854-1.452q0-.952-1.684-1.026a6.135,6.135,0,0,0-1.734.293,3.168,3.168,0,0,0-1.721,1.294,3.243,3.243,0,0,0-.573,1.734,1.638,1.638,0,0,0,.256.94A.891.891,0,0,0,45.923,229.4Zm4.761,8.252a3.982,3.982,0,0,0,1.819-.305.888.888,0,0,0,.549-.769,2.148,2.148,0,0,0-.976-1.49,9.252,9.252,0,0,0-2.417-1.391,7.479,7.479,0,0,0-2.832-.586,2.018,2.018,0,0,0-1.416.415,1.328,1.328,0,0,0-.44,1,2.567,2.567,0,0,0,.757,1.684Q47,237.65,50.684,237.649Z" fill="#242424"/>
    <path id="패스_1590" data-name="패스 1590" d="M90.552,255.667a10.138,10.138,0,0,1-2.978-.464,9.272,9.272,0,0,1-2.783-1.392,7.189,7.189,0,0,1-2.051-2.319,6.522,6.522,0,0,1-.782-3.247,11.915,11.915,0,0,1,1.465-5.2,9.8,9.8,0,0,0,1.2-4.126,4.058,4.058,0,0,0-.476-2.063,3.213,3.213,0,0,0-1.233-1.232,3.254,3.254,0,0,0-1.587-.415,3.037,3.037,0,0,0-2.649,1.55,3.735,3.735,0,0,0-.452,1.916,9.374,9.374,0,0,0,1.343,4.37,11.945,11.945,0,0,1,1.587,5.347,6.233,6.233,0,0,1-.806,3.223,7.19,7.19,0,0,1-2.1,2.27,9.435,9.435,0,0,1-2.832,1.343,10.832,10.832,0,0,1-2.979.44,8.7,8.7,0,0,1-5.408-1.673,5.128,5.128,0,0,1-2.209-4.26,9.313,9.313,0,0,1,.525-2.991,24.677,24.677,0,0,1,1.355-3.2q.83-1.648,1.758-3.333,1.024-1.806,1.928-3.625a27.8,27.8,0,0,0,1.5-3.626,11.241,11.241,0,0,0,.6-3.54,7.95,7.95,0,0,0-.318-2.221,4.65,4.65,0,0,1-.195-1.27,3.666,3.666,0,0,1,1.367-2.917,8.9,8.9,0,0,1,3.516-1.734,17.991,17.991,0,0,1,9.009,0,8.906,8.906,0,0,1,3.515,1.734,3.664,3.664,0,0,1,1.368,2.917,4.654,4.654,0,0,1-.2,1.27,7.7,7.7,0,0,0-.317,2.2,10.822,10.822,0,0,0,.622,3.54,27.164,27.164,0,0,0,1.563,3.626q.939,1.818,1.965,3.625.977,1.71,1.831,3.345a24.347,24.347,0,0,1,1.4,3.2,9.05,9.05,0,0,1,.549,3,5.128,5.128,0,0,1-2.209,4.26A8.7,8.7,0,0,1,90.552,255.667Zm-9.009-23.316A2.439,2.439,0,0,0,82.85,232a1.234,1.234,0,0,0,.573-1.135,2.759,2.759,0,0,0-.219-.977q-.879-1.927-1.831-1.928-1.052,0-1.954,2.294a1.719,1.719,0,0,0-.1.538,1.275,1.275,0,0,0,.708,1.147A2.936,2.936,0,0,0,81.543,232.351Z" fill="#242424"/>
    <path id="패스_1591" data-name="패스 1591" d="M125.586,255.667a10.138,10.138,0,0,1-2.978-.464,9.283,9.283,0,0,1-2.783-1.392,7.189,7.189,0,0,1-2.051-2.319,6.521,6.521,0,0,1-.781-3.247,11.9,11.9,0,0,1,1.465-5.2,9.807,9.807,0,0,0,1.2-4.126,4.058,4.058,0,0,0-.476-2.063,3.213,3.213,0,0,0-1.233-1.232,3.254,3.254,0,0,0-1.587-.415,3.04,3.04,0,0,0-2.649,1.55,3.735,3.735,0,0,0-.452,1.916,9.386,9.386,0,0,0,1.343,4.37,11.945,11.945,0,0,1,1.587,5.347,6.233,6.233,0,0,1-.806,3.223,7.19,7.19,0,0,1-2.1,2.27,9.435,9.435,0,0,1-2.832,1.343,10.832,10.832,0,0,1-2.979.44,8.7,8.7,0,0,1-5.408-1.673,5.128,5.128,0,0,1-2.209-4.26,9.313,9.313,0,0,1,.525-2.991,24.816,24.816,0,0,1,1.355-3.2q.83-1.648,1.758-3.333,1.025-1.806,1.928-3.625a27.8,27.8,0,0,0,1.5-3.626,11.241,11.241,0,0,0,.6-3.54,7.986,7.986,0,0,0-.317-2.221,4.615,4.615,0,0,1-.2-1.27,3.664,3.664,0,0,1,1.368-2.917,8.906,8.906,0,0,1,3.515-1.734,17.991,17.991,0,0,1,9.009,0,8.918,8.918,0,0,1,3.516,1.734,3.666,3.666,0,0,1,1.367,2.917,4.653,4.653,0,0,1-.2,1.27,7.731,7.731,0,0,0-.317,2.2,10.824,10.824,0,0,0,.623,3.54,27.155,27.155,0,0,0,1.562,3.626q.94,1.818,1.965,3.625.977,1.71,1.831,3.345a24.347,24.347,0,0,1,1.4,3.2,9.027,9.027,0,0,1,.55,3,5.129,5.129,0,0,1-2.21,4.26A8.7,8.7,0,0,1,125.586,255.667Zm-9.008-23.316a2.438,2.438,0,0,0,1.306-.354,1.234,1.234,0,0,0,.574-1.135,2.763,2.763,0,0,0-.22-.977q-.879-1.927-1.831-1.928-1.05,0-1.953,2.294a1.694,1.694,0,0,0-.1.538,1.275,1.275,0,0,0,.708,1.147A2.942,2.942,0,0,0,116.578,232.351Z" fill="#242424"/>
    <path id="패스_1592" data-name="패스 1592" d="M145.63,256.13a14.106,14.106,0,0,1-4.858-.842,9.421,9.421,0,0,1-3.845-2.527,7.077,7.077,0,0,1-1.77-4.2q-.147-2.393-.147-4.98V241.6q0-2.417-.146-5.1-.392-6.42-3.76-9.57a4.453,4.453,0,0,1-1.782-3.052,2.485,2.485,0,0,1,.952-1.941,6.556,6.556,0,0,1,2.417-1.257,10.305,10.305,0,0,1,2.978-.439,8.02,8.02,0,0,1,2.332.329,4.1,4.1,0,0,1,1.77,1.026,2.451,2.451,0,0,1,.684,1.794,4.823,4.823,0,0,1-.147,1.123,6.255,6.255,0,0,0-.195,1.611,16.447,16.447,0,0,0,2.051,7.3,36.063,36.063,0,0,0,1.953,3.626q.78,1.208,1.465,1.208.658,0,1.44-1.159a34.416,34.416,0,0,0,1.953-3.479,22.966,22.966,0,0,0,1.55-3.87,12.812,12.812,0,0,0,.574-3.626,6.256,6.256,0,0,0-.195-1.611,4.823,4.823,0,0,1-.147-1.123,2.427,2.427,0,0,1,.66-1.758,3.976,3.976,0,0,1,1.733-1.013,7.774,7.774,0,0,1,2.3-.329,10.26,10.26,0,0,1,3.015.451,6.725,6.725,0,0,1,2.454,1.294,2.557,2.557,0,0,1,.976,1.99,2.971,2.971,0,0,1-.427,1.428,6.789,6.789,0,0,1-1.355,1.624,10.706,10.706,0,0,0-2.954,4.614,26.74,26.74,0,0,0-1.2,6.933q-.246,4.127-.245,9.937a6.257,6.257,0,0,1-.866,3.308,7.409,7.409,0,0,1-2.295,2.368,10.863,10.863,0,0,1-3.235,1.416A14.389,14.389,0,0,1,145.63,256.13Z" fill="#242424"/>
    <path id="패스_1593" data-name="패스 1593" d="M173.755,255.667a13.624,13.624,0,0,1-5.09-.989,13.267,13.267,0,0,1-4.468-2.967,14.346,14.346,0,0,1-3.174-4.956,18.766,18.766,0,0,1-1.184-6.958,27.119,27.119,0,0,1,1.172-8.4,17.941,17.941,0,0,1,3.137-5.957,13.172,13.172,0,0,1,4.432-3.552,11.606,11.606,0,0,1,5.078-1.184,11.735,11.735,0,0,1,5.163,1.208,13.584,13.584,0,0,1,4.492,3.577,17.73,17.73,0,0,1,3.162,5.908,26.2,26.2,0,0,1,1.172,8.227,19.435,19.435,0,0,1-1.2,7.154,14.324,14.324,0,0,1-3.2,5.005,12.939,12.939,0,0,1-4.48,2.929A13.882,13.882,0,0,1,173.755,255.667Zm.122-17.481a2.231,2.231,0,0,0,1.514-.635,4.668,4.668,0,0,0,1.172-1.88,8.875,8.875,0,0,0,.464-3.076,17.548,17.548,0,0,0-.476-4.443,7.16,7.16,0,0,0-1.221-2.686,2.064,2.064,0,0,0-1.55-.9,1.939,1.939,0,0,0-1.453.83,6.368,6.368,0,0,0-1.123,2.5,17.376,17.376,0,0,0-.427,4.211,9.1,9.1,0,0,0,.9,4.565A2.586,2.586,0,0,0,173.877,238.186Z" fill="#242424"/>
  </g>
</svg>
