<svg xmlns="http://www.w3.org/2000/svg" width="151.343" height="35.425" viewBox="0 0 151.343 35.425">
  <g id="그룹_854" data-name="그룹 854" transform="translate(-331.497 -220.608)">
    <path id="패스_1594" data-name="패스 1594" d="M344.68,256.033a20.479,20.479,0,0,1-6.372-.977,11.179,11.179,0,0,1-4.858-2.978,7.636,7.636,0,0,1-1.953-5.42,11.416,11.416,0,0,1,.634-3.662q.634-1.88,1.465-3.833.9-2.052,1.612-4.175a13.392,13.392,0,0,0,.708-4.248,9.051,9.051,0,0,0-1.075-4.346,3.97,3.97,0,0,1-.488-1.733,2.658,2.658,0,0,1,1.27-2.271,9.045,9.045,0,0,1,3.32-1.306,21.388,21.388,0,0,1,4.37-.427,25.666,25.666,0,0,1,5.408.549,12.3,12.3,0,0,1,4.138,1.587,3.127,3.127,0,0,1,1.636,2.527q0,2.05-3.3,3.833-.586.318-.891.513t-.306.366q0,.366,1.465.879a15.217,15.217,0,0,1,7.154,5.2,14.349,14.349,0,0,1,2.71,8.594,8.3,8.3,0,0,1-1.465,4.846,12.3,12.3,0,0,1-3.882,3.552,19.944,19.944,0,0,1-5.371,2.185A24.212,24.212,0,0,1,344.68,256.033Zm-.757-26.636a2.323,2.323,0,0,0,.977-.269,11.581,11.581,0,0,0,2.832-1.892,2.375,2.375,0,0,0,.854-1.452q0-.952-1.684-1.026a6.135,6.135,0,0,0-1.734.293,3.168,3.168,0,0,0-1.721,1.294,3.243,3.243,0,0,0-.573,1.734,1.638,1.638,0,0,0,.256.94A.891.891,0,0,0,343.923,229.4Zm4.761,8.252a3.982,3.982,0,0,0,1.819-.305.888.888,0,0,0,.549-.769,2.148,2.148,0,0,0-.976-1.49,9.251,9.251,0,0,0-2.417-1.391,7.479,7.479,0,0,0-2.832-.586,2.018,2.018,0,0,0-1.416.415,1.328,1.328,0,0,0-.44,1,2.567,2.567,0,0,0,.757,1.684Q345,237.65,348.684,237.649Z" fill="#242424"/>
    <path id="패스_1595" data-name="패스 1595" d="M388.552,255.667a10.138,10.138,0,0,1-2.978-.464,9.272,9.272,0,0,1-2.783-1.392,7.19,7.19,0,0,1-2.051-2.319,6.522,6.522,0,0,1-.782-3.247,11.915,11.915,0,0,1,1.465-5.2,9.8,9.8,0,0,0,1.2-4.126,4.058,4.058,0,0,0-.476-2.063,3.213,3.213,0,0,0-1.233-1.232,3.254,3.254,0,0,0-1.587-.415,3.037,3.037,0,0,0-2.649,1.55,3.735,3.735,0,0,0-.452,1.916,9.374,9.374,0,0,0,1.343,4.37,11.945,11.945,0,0,1,1.587,5.347,6.233,6.233,0,0,1-.806,3.223,7.19,7.19,0,0,1-2.1,2.27,9.434,9.434,0,0,1-2.832,1.343,10.832,10.832,0,0,1-2.979.44,8.7,8.7,0,0,1-5.408-1.673,5.128,5.128,0,0,1-2.209-4.26,9.313,9.313,0,0,1,.525-2.991,24.674,24.674,0,0,1,1.355-3.2q.829-1.648,1.758-3.333,1.024-1.806,1.928-3.625a27.8,27.8,0,0,0,1.5-3.626,11.241,11.241,0,0,0,.6-3.54,7.95,7.95,0,0,0-.318-2.221,4.65,4.65,0,0,1-.2-1.27,3.666,3.666,0,0,1,1.367-2.917,8.9,8.9,0,0,1,3.516-1.734,17.991,17.991,0,0,1,9.009,0,8.906,8.906,0,0,1,3.515,1.734,3.664,3.664,0,0,1,1.368,2.917,4.653,4.653,0,0,1-.2,1.27,7.7,7.7,0,0,0-.317,2.2,10.822,10.822,0,0,0,.622,3.54,27.163,27.163,0,0,0,1.563,3.626q.939,1.818,1.965,3.625.977,1.71,1.831,3.345a24.345,24.345,0,0,1,1.4,3.2,9.05,9.05,0,0,1,.549,3,5.128,5.128,0,0,1-2.209,4.26A8.7,8.7,0,0,1,388.552,255.667Zm-9.009-23.316A2.439,2.439,0,0,0,380.85,232a1.234,1.234,0,0,0,.573-1.135,2.759,2.759,0,0,0-.219-.977q-.879-1.927-1.831-1.928-1.051,0-1.954,2.294a1.719,1.719,0,0,0-.1.538,1.275,1.275,0,0,0,.708,1.147A2.936,2.936,0,0,0,379.543,232.351Z" fill="#242424"/>
    <path id="패스_1596" data-name="패스 1596" d="M410.867,255.569a21.279,21.279,0,0,1-4.846-.549,16.633,16.633,0,0,1-4.212-1.563,9.075,9.075,0,0,1-2.954-2.466,5.235,5.235,0,0,1-1.1-3.235,15.362,15.362,0,0,1,.525-3.955q.525-1.977,1.2-3.955t1.184-3.918a15.044,15.044,0,0,0,.512-3.845,9.4,9.4,0,0,0-1.367-4.981,5.906,5.906,0,0,1-1-2.856q0-2.246,3.027-3.052a28.754,28.754,0,0,1,6.714-.586q2.222,0,4.468.049,2.124.073,3.955.073a1.908,1.908,0,0,1,1.331.476,2.9,2.9,0,0,1,.781,1.2,4.377,4.377,0,0,1,.256,1.477,3.418,3.418,0,0,1-.439,1.77,1.454,1.454,0,0,1-1.343.745,10.282,10.282,0,0,1-1.684-.244,26.753,26.753,0,0,0-4.566-.537,4.635,4.635,0,0,0-2,.366,2.582,2.582,0,0,0-1.1.9,1.955,1.955,0,0,0-.342,1.05,1.615,1.615,0,0,0,.512,1.172,1.849,1.849,0,0,0,1.368.513,7.042,7.042,0,0,0,1.745-.208q.817-.207,1.5-.451a4.559,4.559,0,0,1,1.562-.367,1.49,1.49,0,0,1,1.343.879,3.772,3.772,0,0,1,.488,1.856,2.592,2.592,0,0,1-.354,1.367,1.183,1.183,0,0,1-1.086.586,6.622,6.622,0,0,1-1.062-.11q-.648-.11-1.538-.208a19.769,19.769,0,0,0-2.112-.1,1.7,1.7,0,0,0-1.416.61,2.038,2.038,0,0,0-.488,1.294,2.254,2.254,0,0,0,.366,1.184,2.822,2.822,0,0,0,1.123,1,4.017,4.017,0,0,0,1.9.4h1.294a12.44,12.44,0,0,0,4.639-.684,8.492,8.492,0,0,1,3.54-.927,3.2,3.2,0,0,1,2.014.671,4.365,4.365,0,0,1,1.343,2.283,16.126,16.126,0,0,1,.476,4.394,12.348,12.348,0,0,1-1.22,5.713,10.911,10.911,0,0,1-3.248,3.858,13.989,13.989,0,0,1-4.553,2.2A18.965,18.965,0,0,1,410.867,255.569Z" fill="#242424"/>
    <path id="패스_1597" data-name="패스 1597" d="M439.236,255.691a9.854,9.854,0,0,1-6.274-2.112,13.783,13.783,0,0,1-4.188-5.823,22.646,22.646,0,0,1-1.5-8.545,23.379,23.379,0,0,1,.989-6.726,21.285,21.285,0,0,1,2.82-5.981,14.719,14.719,0,0,1,4.419-4.273,10.792,10.792,0,0,1,5.786-1.6,10.957,10.957,0,0,1,6.677,2.039,6.593,6.593,0,0,1,2.893,5.261,3.253,3.253,0,0,1-.781,2.185,5.093,5.093,0,0,1-1.953,1.4,5.988,5.988,0,0,1-2.319.488,4.032,4.032,0,0,1-1.893-.439,2.429,2.429,0,0,1-1.183-1.367c-.034-.13-.074-.35-.123-.66q-.123-.732-.366-1.672a5.836,5.836,0,0,0-.72-1.684,1.5,1.5,0,0,0-1.331-.745,1.625,1.625,0,0,0-1.355.9,7.129,7.129,0,0,0-.879,2.368,15.345,15.345,0,0,0-.305,3.125,19.1,19.1,0,0,0,.586,5.115,5.646,5.646,0,0,0,1.452,2.673,2.889,2.889,0,0,0,1.942.782,2.956,2.956,0,0,0,2.062-.818,2.39,2.39,0,0,0,.892-1.77q0-.416-.83-.415a5.065,5.065,0,0,0-.977.146,5.435,5.435,0,0,1-1.2.171,1.218,1.218,0,0,1-1.136-.708,3.265,3.265,0,0,1-.378-1.562,3.455,3.455,0,0,1,.4-1.673,1.419,1.419,0,0,1,1.233-.793,7.267,7.267,0,0,1,1.319.171,13.423,13.423,0,0,0,2.734.268,7.2,7.2,0,0,0,1.11-.085,6.509,6.509,0,0,1,.989-.086q3.271,0,4.859,4.151a24.955,24.955,0,0,1,1.318,8.74,24.526,24.526,0,0,1-1.269,8.789q-.172.318-.99.525a7.244,7.244,0,0,1-1.793.208,6.3,6.3,0,0,1-2.076-.33q-.951-.33-.952-1.111.024-.635.049-.928t.024-.927a3.7,3.7,0,0,0-.122-1.111c-.082-.236-.179-.354-.293-.354q-.366,0-.952,1.318a5.358,5.358,0,0,1-2.539,2.6A8.559,8.559,0,0,1,439.236,255.691Z" fill="#242424"/>
    <path id="패스_1598" data-name="패스 1598" d="M468.045,255.691a9.852,9.852,0,0,1-6.274-2.112,13.775,13.775,0,0,1-4.188-5.823,22.645,22.645,0,0,1-1.5-8.545,23.378,23.378,0,0,1,.988-6.726,21.288,21.288,0,0,1,2.821-5.981,14.708,14.708,0,0,1,4.419-4.273,10.789,10.789,0,0,1,5.786-1.6,10.954,10.954,0,0,1,6.676,2.039,6.594,6.594,0,0,1,2.894,5.261,3.258,3.258,0,0,1-.781,2.185,5.1,5.1,0,0,1-1.953,1.4,5.993,5.993,0,0,1-2.32.488,4.025,4.025,0,0,1-1.892-.439,2.43,2.43,0,0,1-1.184-1.367c-.033-.13-.073-.35-.122-.66q-.123-.732-.366-1.672a5.809,5.809,0,0,0-.721-1.684,1.5,1.5,0,0,0-1.33-.745,1.624,1.624,0,0,0-1.355.9,7.129,7.129,0,0,0-.879,2.368,15.345,15.345,0,0,0-.3,3.125,19.1,19.1,0,0,0,.586,5.115,5.638,5.638,0,0,0,1.452,2.673,2.887,2.887,0,0,0,1.941.782,2.958,2.958,0,0,0,2.063-.818,2.39,2.39,0,0,0,.892-1.77c0-.277-.278-.415-.83-.415a5.055,5.055,0,0,0-.977.146,5.443,5.443,0,0,1-1.2.171,1.218,1.218,0,0,1-1.136-.708,3.265,3.265,0,0,1-.378-1.562,3.466,3.466,0,0,1,.4-1.673,1.421,1.421,0,0,1,1.234-.793,7.259,7.259,0,0,1,1.318.171,13.43,13.43,0,0,0,2.734.268,7.214,7.214,0,0,0,1.111-.085,6.5,6.5,0,0,1,.989-.086q3.271,0,4.858,4.151a24.953,24.953,0,0,1,1.319,8.74,24.5,24.5,0,0,1-1.27,8.789q-.171.318-.989.525a7.258,7.258,0,0,1-1.794.208,6.3,6.3,0,0,1-2.075-.33q-.953-.33-.952-1.111c.015-.423.032-.732.049-.928s.024-.5.024-.927a3.7,3.7,0,0,0-.122-1.111q-.123-.354-.293-.354-.366,0-.952,1.318a5.358,5.358,0,0,1-2.539,2.6A8.559,8.559,0,0,1,468.045,255.691Z" fill="#242424"/>
  </g>
</svg>
