<svg xmlns="http://www.w3.org/2000/svg" width="259.326" height="35.45" viewBox="0 0 259.326 35.45">
  <g id="그룹_851" data-name="그룹 851" transform="translate(-33.497 -151.25)">
    <path id="패스_1573" data-name="패스 1573" d="M46.68,186.7a20.48,20.48,0,0,1-6.372-.977,11.179,11.179,0,0,1-4.858-2.978,7.636,7.636,0,0,1-1.953-5.42,11.416,11.416,0,0,1,.634-3.662q.635-1.879,1.465-3.833.9-2.052,1.612-4.175a13.392,13.392,0,0,0,.708-4.248,9.05,9.05,0,0,0-1.075-4.346,3.97,3.97,0,0,1-.488-1.733,2.658,2.658,0,0,1,1.27-2.271,9.044,9.044,0,0,1,3.32-1.306,21.388,21.388,0,0,1,4.37-.427,25.666,25.666,0,0,1,5.408.549,12.3,12.3,0,0,1,4.138,1.587,3.127,3.127,0,0,1,1.636,2.527q0,2.051-3.3,3.833-.587.318-.891.513T52,160.7q0,.366,1.465.879a15.217,15.217,0,0,1,7.154,5.2,14.349,14.349,0,0,1,2.71,8.594,8.3,8.3,0,0,1-1.465,4.846,12.3,12.3,0,0,1-3.882,3.552,19.945,19.945,0,0,1-5.371,2.185A24.212,24.212,0,0,1,46.68,186.7Zm-.757-26.636a2.323,2.323,0,0,0,.977-.269,11.581,11.581,0,0,0,2.832-1.892,2.375,2.375,0,0,0,.854-1.452q0-.953-1.684-1.026a6.135,6.135,0,0,0-1.734.293,3.168,3.168,0,0,0-1.721,1.294,3.243,3.243,0,0,0-.573,1.734,1.638,1.638,0,0,0,.256.94A.891.891,0,0,0,45.923,160.064Zm4.761,8.252a3.982,3.982,0,0,0,1.819-.3.888.888,0,0,0,.549-.769,2.148,2.148,0,0,0-.976-1.49,9.252,9.252,0,0,0-2.417-1.391,7.479,7.479,0,0,0-2.832-.586,2.018,2.018,0,0,0-1.416.415,1.328,1.328,0,0,0-.44,1,2.567,2.567,0,0,0,.757,1.684Q47,168.316,50.684,168.316Z" fill="#242424"/>
    <path id="패스_1574" data-name="패스 1574" d="M90.552,186.333a10.135,10.135,0,0,1-2.978-.463,9.271,9.271,0,0,1-2.783-1.392,7.189,7.189,0,0,1-2.051-2.319,6.522,6.522,0,0,1-.782-3.247,11.915,11.915,0,0,1,1.465-5.2,9.8,9.8,0,0,0,1.2-4.126,4.058,4.058,0,0,0-.476-2.063,3.213,3.213,0,0,0-1.233-1.232,3.254,3.254,0,0,0-1.587-.415,3.036,3.036,0,0,0-2.649,1.55,3.734,3.734,0,0,0-.452,1.916,9.374,9.374,0,0,0,1.343,4.37,11.945,11.945,0,0,1,1.587,5.347,6.234,6.234,0,0,1-.806,3.223,7.19,7.19,0,0,1-2.1,2.27,9.434,9.434,0,0,1-2.832,1.343,10.83,10.83,0,0,1-2.979.439,8.7,8.7,0,0,1-5.408-1.672,5.128,5.128,0,0,1-2.209-4.26,9.313,9.313,0,0,1,.525-2.991,24.676,24.676,0,0,1,1.355-3.2q.83-1.648,1.758-3.333,1.024-1.806,1.928-3.625a27.8,27.8,0,0,0,1.5-3.626,11.241,11.241,0,0,0,.6-3.54,7.95,7.95,0,0,0-.318-2.221,4.65,4.65,0,0,1-.195-1.27,3.666,3.666,0,0,1,1.367-2.917,8.9,8.9,0,0,1,3.516-1.734,17.992,17.992,0,0,1,9.009,0,8.906,8.906,0,0,1,3.515,1.734,3.664,3.664,0,0,1,1.368,2.917,4.654,4.654,0,0,1-.2,1.27,7.7,7.7,0,0,0-.317,2.2,10.822,10.822,0,0,0,.622,3.54,27.1,27.1,0,0,0,1.563,3.625q.939,1.819,1.965,3.626.977,1.71,1.831,3.345a24.349,24.349,0,0,1,1.4,3.2,9.05,9.05,0,0,1,.549,3,5.128,5.128,0,0,1-2.209,4.26A8.7,8.7,0,0,1,90.552,186.333Zm-9.009-23.315a2.439,2.439,0,0,0,1.307-.354,1.234,1.234,0,0,0,.573-1.135,2.759,2.759,0,0,0-.219-.977q-.879-1.928-1.831-1.928-1.052,0-1.954,2.294a1.719,1.719,0,0,0-.1.538,1.275,1.275,0,0,0,.708,1.147A2.936,2.936,0,0,0,81.543,163.018Z" fill="#242424"/>
    <path id="패스_1575" data-name="패스 1575" d="M113.526,186.7a19.322,19.322,0,0,1-5.1-.672,13.473,13.473,0,0,1-4.406-2.075,10.287,10.287,0,0,1-3.089-3.564,10.873,10.873,0,0,1-1.147-5.164,11.3,11.3,0,0,1,.6-3.711,7.475,7.475,0,0,1,1.636-2.807,3.172,3.172,0,0,1,2.331-1.075,3.849,3.849,0,0,1,2.246.855,8.911,8.911,0,0,0,5.152,1.929,3.6,3.6,0,0,0,1.892-.44,1.249,1.249,0,0,0,.72-1.05q0-.706-1.184-1.5a11.352,11.352,0,0,0-3.919-1.331,17.348,17.348,0,0,1-3.7-1.086,9.575,9.575,0,0,1-3.333-2.246,5.4,5.4,0,0,1-1.465-3.7,5.282,5.282,0,0,1,1.136-3.369,8.821,8.821,0,0,1,3.027-2.393,16.827,16.827,0,0,1,4.248-1.428,24.177,24.177,0,0,1,4.8-.476,22.414,22.414,0,0,1,6.043.781,10.8,10.8,0,0,1,4.492,2.344,5.251,5.251,0,0,1,1.746,3.906,3.27,3.27,0,0,1-.611,2.014,3.954,3.954,0,0,1-1.538,1.246,4.5,4.5,0,0,1-1.9.427,3.563,3.563,0,0,1-1.819-.489,2.625,2.625,0,0,1-1.184-1.464,4.913,4.913,0,0,0-1.843-2.613,4.5,4.5,0,0,0-2.454-.757,4.86,4.86,0,0,0-2.673.757,2.079,2.079,0,0,0-1.184,1.66,1.6,1.6,0,0,0,.866,1.27,7.318,7.318,0,0,0,2.918.879,21.251,21.251,0,0,1,8.093,2.576,12.208,12.208,0,0,1,4.614,4.65A12.378,12.378,0,0,1,129,174.517a10.153,10.153,0,0,1-1.355,5.286,11.952,11.952,0,0,1-3.588,3.808,16.984,16.984,0,0,1-4.981,2.307A20.206,20.206,0,0,1,113.526,186.7Z" fill="#242424"/>
    <path id="패스_1576" data-name="패스 1576" d="M155.3,186.333a6.95,6.95,0,0,1-3.527-.964,7.664,7.664,0,0,1-2.723-2.661A7.246,7.246,0,0,1,148,178.814a9.933,9.933,0,0,1,1.342-4.81q.513-.9,1.026-2.05a13.9,13.9,0,0,0,1.172-5.567,2.3,2.3,0,0,0-.647-1.684,4.031,4.031,0,0,0-1.648-.989,6.747,6.747,0,0,0-2.124-.33,7.7,7.7,0,0,0-2.2.318,4.547,4.547,0,0,0-1.77.94,1.967,1.967,0,0,0-.695,1.525,11.981,11.981,0,0,0,.4,3.113,17.657,17.657,0,0,0,.977,2.759,22.415,22.415,0,0,0,1.111,2.161,10.709,10.709,0,0,1,1.611,5.224,6.68,6.68,0,0,1-.964,3.6,6.983,6.983,0,0,1-2.515,2.43,6.694,6.694,0,0,1-3.357.878,10.527,10.527,0,0,1-4.993-1.062,7.241,7.241,0,0,1-2.966-2.758,7.107,7.107,0,0,1-.976-3.6q0-2.174,2.124-7.642.927-2.49,1.66-4.907a16.218,16.218,0,0,0,.732-4.712,9.28,9.28,0,0,0-1.391-5.029,4.491,4.491,0,0,1-.782-2.2,2.177,2.177,0,0,1,.794-1.745,5.026,5.026,0,0,1,2.051-.989,11.021,11.021,0,0,1,5.3.012,5.467,5.467,0,0,1,2.1.989,2.046,2.046,0,0,1,.818,1.66,3.514,3.514,0,0,1-.732,1.9,2.725,2.725,0,0,0-.562,1.465,1.594,1.594,0,0,0,.61,1.27,4.016,4.016,0,0,0,1.563.769,7.57,7.57,0,0,0,1.977.256,6.43,6.43,0,0,0,2.662-.537,1.713,1.713,0,0,0,1.2-1.587,2.9,2.9,0,0,0-.684-1.636,3.521,3.521,0,0,1-.83-2,1.979,1.979,0,0,1,.806-1.6,5.34,5.34,0,0,1,2.063-.964,10.6,10.6,0,0,1,2.6-.317,10.815,10.815,0,0,1,2.685.329,5.282,5.282,0,0,1,2.112,1.013,2.24,2.24,0,0,1,.818,1.807,4.383,4.383,0,0,1-.683,2.1,9.382,9.382,0,0,0-1.172,4.516,15.385,15.385,0,0,0,.866,4.968q.867,2.553,1.966,5.164,2.464,5.761,2.466,7.983a6.794,6.794,0,0,1-.928,3.443,6.878,6.878,0,0,1-2.844,2.624A10.307,10.307,0,0,1,155.3,186.333Z" fill="#242424"/>
    <path id="패스_1577" data-name="패스 1577" d="M174.756,186.333a10.583,10.583,0,0,1-5.066-1.086,7.452,7.452,0,0,1-3.015-2.82,7.213,7.213,0,0,1-1-3.662,7.61,7.61,0,0,1,.2-1.709,53.36,53.36,0,0,1,1.782-5.786q.854-2.393,1.526-4.761a16.891,16.891,0,0,0,.671-4.614,10.8,10.8,0,0,0-.342-2.7,9.07,9.07,0,0,0-1.147-2.6,4.323,4.323,0,0,1-.806-2.222,2.168,2.168,0,0,1,.781-1.721,4.809,4.809,0,0,1,2.015-.976,10.8,10.8,0,0,1,2.6-.3,9.713,9.713,0,0,1,3.955.8,21.264,21.264,0,0,1,5.884-.928,13.142,13.142,0,0,1,5.981,1.258,9.967,9.967,0,0,1,3.809,3.161,6.789,6.789,0,0,1,1.318,3.907,5.393,5.393,0,0,1-.7,2.649,5.967,5.967,0,0,1-2.16,2.16,28.71,28.71,0,0,0-2.454,1.648q-.794.622-.794,1.038,0,.318.464.586a7.4,7.4,0,0,0,1.368.561,11.869,11.869,0,0,1,5.81,5.176,14.552,14.552,0,0,1,2.393,7.666,4.49,4.49,0,0,1-1,3.04,5.623,5.623,0,0,1-2.6,1.672,13.147,13.147,0,0,1-9.339-.781,3.918,3.918,0,0,1-2-3.418l.025-3.784a28.877,28.877,0,0,0-.318-4.419,6.679,6.679,0,0,0-1.623-3.357,3.213,3.213,0,0,0-2.063-1.233.859.859,0,0,0-.647.268,1.207,1.207,0,0,0-.257.855q0,1.392,1.758,4.3a10.282,10.282,0,0,1,1.709,5.371,6.568,6.568,0,0,1-.94,3.54,6.734,6.734,0,0,1-2.466,2.368A6.654,6.654,0,0,1,174.756,186.333Zm3.687-25.292a8.977,8.977,0,0,0,1.782-.22,8.079,8.079,0,0,0,3.308-1.392,2.314,2.314,0,0,0,1.013-1.66,1.6,1.6,0,0,0-.781-1.331,3.636,3.636,0,0,0-2.124-.549,7.272,7.272,0,0,0-1.269.122,6,6,0,0,0-2.93,1.514,3.073,3.073,0,0,0-1.123,2.1,1.247,1.247,0,0,0,.5,1.013A2.6,2.6,0,0,0,178.443,161.041Z" fill="#242424"/>
    <path id="패스_1578" data-name="패스 1578" d="M212.574,186.333a13.624,13.624,0,0,1-5.091-.988,13.263,13.263,0,0,1-4.467-2.967,14.331,14.331,0,0,1-3.174-4.956,18.746,18.746,0,0,1-1.184-6.958,27.084,27.084,0,0,1,1.172-8.4,17.923,17.923,0,0,1,3.137-5.957,13.168,13.168,0,0,1,4.431-3.552,11.609,11.609,0,0,1,5.078-1.184,11.743,11.743,0,0,1,5.164,1.208,13.594,13.594,0,0,1,4.492,3.577,17.746,17.746,0,0,1,3.161,5.908,26.174,26.174,0,0,1,1.172,8.227,19.435,19.435,0,0,1-1.2,7.154,14.337,14.337,0,0,1-3.2,5,12.939,12.939,0,0,1-4.48,2.929A13.888,13.888,0,0,1,212.574,186.333Zm.122-17.48a2.23,2.23,0,0,0,1.513-.635,4.658,4.658,0,0,0,1.172-1.88,8.874,8.874,0,0,0,.464-3.076,17.5,17.5,0,0,0-.476-4.443,7.129,7.129,0,0,0-1.221-2.686,2.062,2.062,0,0,0-1.55-.9,1.936,1.936,0,0,0-1.452.83,6.368,6.368,0,0,0-1.124,2.5,17.375,17.375,0,0,0-.427,4.211,9.093,9.093,0,0,0,.9,4.565A2.585,2.585,0,0,0,212.7,168.853Z" fill="#242424"/>
    <path id="패스_1579" data-name="패스 1579" d="M242.9,186.333a13.619,13.619,0,0,1-5.09-.988,13.257,13.257,0,0,1-4.468-2.967,14.331,14.331,0,0,1-3.174-4.956,18.766,18.766,0,0,1-1.184-6.958,27.115,27.115,0,0,1,1.172-8.4,17.941,17.941,0,0,1,3.137-5.957,13.168,13.168,0,0,1,4.431-3.552,11.612,11.612,0,0,1,5.078-1.184,11.743,11.743,0,0,1,5.164,1.208,13.594,13.594,0,0,1,4.492,3.577,17.765,17.765,0,0,1,3.162,5.908,26.2,26.2,0,0,1,1.172,8.227,19.413,19.413,0,0,1-1.2,7.154,14.322,14.322,0,0,1-3.2,5,12.939,12.939,0,0,1-4.48,2.929A13.884,13.884,0,0,1,242.9,186.333Zm.122-17.48a2.233,2.233,0,0,0,1.514-.635,4.679,4.679,0,0,0,1.172-1.88,8.876,8.876,0,0,0,.463-3.076,17.5,17.5,0,0,0-.476-4.443,7.145,7.145,0,0,0-1.22-2.686,2.064,2.064,0,0,0-1.551-.9,1.939,1.939,0,0,0-1.452.83,6.354,6.354,0,0,0-1.123,2.5,17.37,17.37,0,0,0-.428,4.211,9.093,9.093,0,0,0,.9,4.565A2.585,2.585,0,0,0,243.018,168.853Z" fill="#242424"/>
    <path id="패스_1580" data-name="패스 1580" d="M283.887,186.333a6.712,6.712,0,0,1-3.345-.878,6.936,6.936,0,0,1-2.526-2.43,6.672,6.672,0,0,1-.965-3.6,10.7,10.7,0,0,1,1.612-5.224,21.1,21.1,0,0,0,1.989-5.091,23.779,23.779,0,0,0,.867-6.262q0-1.269-.513-1.391-.269,0-.744.659a7.015,7.015,0,0,0-.855,1.684,6.1,6.1,0,0,0-.378,2.124,5.278,5.278,0,0,0,.366,1.9,3.079,3.079,0,0,1,.269,1.2,2.059,2.059,0,0,1-.586,1.5,3.689,3.689,0,0,1-1.514.9,6.367,6.367,0,0,1-3.894,0,3.677,3.677,0,0,1-1.526-.9,2.055,2.055,0,0,1-.586-1.5,3.061,3.061,0,0,1,.269-1.2,5.086,5.086,0,0,0,.366-1.88,6.093,6.093,0,0,0-.391-2.161,6.989,6.989,0,0,0-.879-1.7q-.488-.658-.732-.659-.465,0-.464,1.66v.855a18.738,18.738,0,0,0,.891,5.725,21.393,21.393,0,0,0,1.941,4.529,10.709,10.709,0,0,1,1.611,5.224,6.671,6.671,0,0,1-.964,3.6,6.976,6.976,0,0,1-2.515,2.43,6.689,6.689,0,0,1-3.357.878,10.522,10.522,0,0,1-4.992-1.062,7.238,7.238,0,0,1-2.967-2.758,7.108,7.108,0,0,1-.976-3.6,8,8,0,0,1,.22-1.856,58.123,58.123,0,0,1,1.9-5.859q.952-2.466,1.672-4.871a16.262,16.262,0,0,0,.721-4.675,10.11,10.11,0,0,0-.33-2.576,9.665,9.665,0,0,0-1.074-2.5,4.372,4.372,0,0,1-.745-2.149,2.174,2.174,0,0,1,.794-1.745,5.019,5.019,0,0,1,2.038-.989,10.565,10.565,0,0,1,2.612-.317,9.511,9.511,0,0,1,2.893.488,5.376,5.376,0,0,1,2.576,1.782l.488.635q1.221,1.637,1.978,2.466a2.061,2.061,0,0,0,1.416.83,2.372,2.372,0,0,0,1.587-.965q.879-.963,2.393-2.966a5.369,5.369,0,0,1,2.587-1.782,9.568,9.568,0,0,1,2.881-.488,10.579,10.579,0,0,1,2.613.317,5.036,5.036,0,0,1,2.039.989,2.179,2.179,0,0,1,.793,1.745,4.372,4.372,0,0,1-.745,2.149,9.555,9.555,0,0,0-1.074,2.514,10.161,10.161,0,0,0-.33,2.564,16.226,16.226,0,0,0,.721,4.675q.719,2.406,1.672,4.871a58.638,58.638,0,0,1,1.9,5.859,7.7,7.7,0,0,1,.22,1.831,7.134,7.134,0,0,1-3.931,6.384A10.509,10.509,0,0,1,283.887,186.333Z" fill="#242424"/>
  </g>
</svg>
