<svg xmlns="http://www.w3.org/2000/svg" width="331.765" height="45.773" viewBox="0 0 331.765 45.773">
  <g id="그룹_865" data-name="그룹 865" transform="translate(-686.592 -524.089)">
    <path id="패스_1653" data-name="패스 1653" d="M686.592,524.7h19.1a23.18,23.18,0,0,1,8.445,1.369,11.261,11.261,0,0,1,5.26,3.861,9.988,9.988,0,0,1,1.769,5.936,9.273,9.273,0,0,1-1.077,4.445,9.76,9.76,0,0,1-3,3.384,11.623,11.623,0,0,1-4.476,1.892v.431a11.27,11.27,0,0,1,5.214,1.477,9.857,9.857,0,0,1,3.707,3.722,10.781,10.781,0,0,1,1.354,5.444A11.43,11.43,0,0,1,721,563.141a12.72,12.72,0,0,1-5.414,4.475,19.562,19.562,0,0,1-8.291,1.631h-20.7Zm19.856,17.565a4.619,4.619,0,0,0,1.985-1.553,4.024,4.024,0,0,0,.707-2.385,4.067,4.067,0,0,0-.692-2.4,4.283,4.283,0,0,0-1.907-1.493,7.27,7.27,0,0,0-2.815-.507h-5.445v8.89h5.261A7.237,7.237,0,0,0,706.448,542.269Zm1.262,17.043a4.328,4.328,0,0,0,2.092-1.6,4.529,4.529,0,0,0,.691-2.554,5.026,5.026,0,0,0-.722-2.722,4.458,4.458,0,0,0-2.092-1.738,8.326,8.326,0,0,0-3.276-.585h-6.122v9.751h5.937A9.564,9.564,0,0,0,707.71,559.312Z" fill="#161615"/>
    <path id="패스_1654" data-name="패스 1654" d="M725.752,569.247l14.8-44.543h15.9l14.8,44.543H758.6L748.7,536.671h-.369L738.4,569.247Zm34.883-17.6v8.828H736.18v-8.828Z" fill="#161615"/>
    <path id="패스_1655" data-name="패스 1655" d="M801.133,536.608a6.353,6.353,0,0,0-2.492-1.722,9.561,9.561,0,0,0-3.492-.584,9.244,9.244,0,0,0-5.275,1.476,9.357,9.357,0,0,0-3.384,4.323,17.679,17.679,0,0,0-1.184,6.813,18.732,18.732,0,0,0,1.123,6.875,8.67,8.67,0,0,0,8.629,5.86,11.739,11.739,0,0,0,4.706-.845,6.124,6.124,0,0,0,2.891-2.415,6.967,6.967,0,0,0,.953-3.692l2.092.246H795.3v-8.46H814.9V550.6A20.067,20.067,0,0,1,812.36,560.9a16.907,16.907,0,0,1-7.044,6.66,22.343,22.343,0,0,1-10.321,2.306,22.759,22.759,0,0,1-11.35-2.768A19.089,19.089,0,0,1,776,559.157a25.657,25.657,0,0,1-2.722-12.12,25.2,25.2,0,0,1,2.861-12.335,19.556,19.556,0,0,1,7.767-7.906,22.312,22.312,0,0,1,10.966-2.707,22.541,22.541,0,0,1,9.475,1.953,17.832,17.832,0,0,1,6.922,5.43,15.669,15.669,0,0,1,3.137,7.906H802.532A6.453,6.453,0,0,0,801.133,536.608Z" fill="#161615"/>
    <path id="패스_1656" data-name="패스 1656" d="M858.95,524.7v28.609a15.211,15.211,0,0,1-9.121,14.412,23.363,23.363,0,0,1-10.044,2.046,23.048,23.048,0,0,1-10-2.046,15.261,15.261,0,0,1-9.075-14.412V524.7H832.4V552.3a7.478,7.478,0,0,0,.954,3.767A6.845,6.845,0,0,0,836,558.7a7.571,7.571,0,0,0,3.784.953,7.754,7.754,0,0,0,3.876-.953,6.638,6.638,0,0,0,2.615-2.631,7.668,7.668,0,0,0,.922-3.767V524.7Z" fill="#161615"/>
    <path id="패스_1657" data-name="패스 1657" d="M864.918,524.7h31.808v9.443H876.607v8.091h18.488v9.445H876.607V559.8h20.027v9.443H864.918Z" fill="#161615"/>
    <path id="패스_1658" data-name="패스 1658" d="M901.554,524.7h38.422v9.443H926.532v35.1h-11.5v-35.1H901.554Z" fill="#161615"/>
    <path id="패스_1659" data-name="패스 1659" d="M943.39,524.7h38.422v9.443H968.368v35.1h-11.5v-35.1H943.39Z" fill="#161615"/>
    <path id="패스_1660" data-name="패스 1660" d="M986.549,524.7h31.807v9.443H998.238v8.091h18.488v9.445H998.238V559.8h20.027v9.443H986.549Z" fill="#161615"/>
  </g>
</svg>
