<svg xmlns="http://www.w3.org/2000/svg" width="245.654" height="35.425" viewBox="0 0 245.654 35.425">
  <g id="그룹_859" data-name="그룹 859" transform="translate(-331.497 -361.274)">
    <path id="패스_1621" data-name="패스 1621" d="M344.68,396.7a20.479,20.479,0,0,1-6.372-.976,11.18,11.18,0,0,1-4.858-2.979,7.635,7.635,0,0,1-1.953-5.42,11.425,11.425,0,0,1,.634-3.662q.634-1.879,1.465-3.833.9-2.051,1.612-4.175a13.392,13.392,0,0,0,.708-4.248,9.049,9.049,0,0,0-1.075-4.345,3.974,3.974,0,0,1-.488-1.734,2.656,2.656,0,0,1,1.27-2.27,9.045,9.045,0,0,1,3.32-1.306,21.387,21.387,0,0,1,4.37-.428,25.665,25.665,0,0,1,5.408.55,12.3,12.3,0,0,1,4.138,1.587,3.126,3.126,0,0,1,1.636,2.526q0,2.052-3.3,3.833-.586.318-.891.513T350,370.7q0,.366,1.465.879a15.231,15.231,0,0,1,7.154,5.2,14.353,14.353,0,0,1,2.71,8.594,8.3,8.3,0,0,1-1.465,4.847,12.3,12.3,0,0,1-3.882,3.552,19.943,19.943,0,0,1-5.371,2.185A24.211,24.211,0,0,1,344.68,396.7Zm-.757-26.636a2.319,2.319,0,0,0,.977-.268,11.611,11.611,0,0,0,2.832-1.892,2.377,2.377,0,0,0,.854-1.453q0-.953-1.684-1.025a6.1,6.1,0,0,0-1.734.293,3.169,3.169,0,0,0-1.721,1.294,3.24,3.24,0,0,0-.573,1.733,1.639,1.639,0,0,0,.256.941A.891.891,0,0,0,343.923,370.063Zm4.761,8.252a3.984,3.984,0,0,0,1.819-.3.888.888,0,0,0,.549-.77,2.147,2.147,0,0,0-.976-1.489,9.281,9.281,0,0,0-2.417-1.392,7.5,7.5,0,0,0-2.832-.586,2.018,2.018,0,0,0-1.416.415,1.331,1.331,0,0,0-.44,1,2.569,2.569,0,0,0,.757,1.685Q345,378.316,348.684,378.315Z" fill="#f58b2f"/>
    <path id="패스_1622" data-name="패스 1622" d="M388.552,396.333a10.1,10.1,0,0,1-2.978-.464,9.245,9.245,0,0,1-2.783-1.391,7.193,7.193,0,0,1-2.051-2.32,6.522,6.522,0,0,1-.782-3.247,11.907,11.907,0,0,1,1.465-5.2,9.8,9.8,0,0,0,1.2-4.126,4.056,4.056,0,0,0-.476-2.063,3.223,3.223,0,0,0-1.233-1.233,3.265,3.265,0,0,0-1.587-.415,3.04,3.04,0,0,0-2.649,1.551,3.732,3.732,0,0,0-.452,1.916,9.381,9.381,0,0,0,1.343,4.37,11.946,11.946,0,0,1,1.587,5.347,6.23,6.23,0,0,1-.806,3.222,7.182,7.182,0,0,1-2.1,2.271,9.458,9.458,0,0,1-2.832,1.343,10.829,10.829,0,0,1-2.979.439,8.7,8.7,0,0,1-5.408-1.672,5.129,5.129,0,0,1-2.209-4.261,9.3,9.3,0,0,1,.525-2.99,24.674,24.674,0,0,1,1.355-3.2q.829-1.648,1.758-3.333,1.024-1.806,1.928-3.625a27.855,27.855,0,0,0,1.5-3.626,11.241,11.241,0,0,0,.6-3.54,7.962,7.962,0,0,0-.318-2.222,4.643,4.643,0,0,1-.2-1.269,3.666,3.666,0,0,1,1.367-2.917,8.891,8.891,0,0,1,3.516-1.734,17.961,17.961,0,0,1,9.009,0,8.893,8.893,0,0,1,3.515,1.734,3.664,3.664,0,0,1,1.368,2.917,4.647,4.647,0,0,1-.2,1.269,7.706,7.706,0,0,0-.317,2.2,10.828,10.828,0,0,0,.622,3.541,27.1,27.1,0,0,0,1.563,3.625q.939,1.819,1.965,3.625.977,1.71,1.831,3.345a24.4,24.4,0,0,1,1.4,3.2,9.05,9.05,0,0,1,.549,3,5.129,5.129,0,0,1-2.209,4.261A8.7,8.7,0,0,1,388.552,396.333Zm-9.009-23.315a2.439,2.439,0,0,0,1.307-.354,1.234,1.234,0,0,0,.573-1.136,2.759,2.759,0,0,0-.219-.976q-.879-1.928-1.831-1.929-1.051,0-1.954,2.3a1.713,1.713,0,0,0-.1.537,1.278,1.278,0,0,0,.708,1.148A2.936,2.936,0,0,0,379.543,373.018Z" fill="#f58b2f"/>
    <path id="패스_1623" data-name="패스 1623" d="M408.206,396.382a13.512,13.512,0,0,1-5.188-.977,8.71,8.71,0,0,1-3.8-2.892,7.815,7.815,0,0,1-1.416-4.774,13.164,13.164,0,0,1,.488-3.454q.489-1.794,1.148-3.65.682-1.953,1.233-3.943a14.857,14.857,0,0,0,.549-3.967,9.353,9.353,0,0,0-1.367-4.956,6.025,6.025,0,0,1-1-2.881q0-1.635,2.161-2.613a13.154,13.154,0,0,1,5.407-.976,22.059,22.059,0,0,1,5.042.623,20.411,20.411,0,0,1,5.163,2,17.036,17.036,0,0,1,7.789,9.057,20.817,20.817,0,0,1,1.221,7.458,14.383,14.383,0,0,1-1.587,6.861A15.729,15.729,0,0,1,419.9,392.3a18.408,18.408,0,0,1-5.64,3.051A19.061,19.061,0,0,1,408.206,396.382Zm2.148-19.946a2.423,2.423,0,0,0,1.831-.769,4.856,4.856,0,0,0,1.1-1.978,8.577,8.577,0,0,0,.366-2.5,8.841,8.841,0,0,0-.415-2.71A5.254,5.254,0,0,0,412,366.353a2.748,2.748,0,0,0-2.039-.831,1.443,1.443,0,0,0-.915.318,2.12,2.12,0,0,0-.623,1.147,9.818,9.818,0,0,0-.219,2.368q0,4.908,1.049,6.4A1.325,1.325,0,0,0,410.354,376.436Z" fill="#f58b2f"/>
    <path id="패스_1624" data-name="패스 1624" d="M441.824,396.333a13.628,13.628,0,0,1-5.091-.988,13.278,13.278,0,0,1-4.467-2.967,14.331,14.331,0,0,1-3.174-4.956,18.77,18.77,0,0,1-1.184-6.958,27.126,27.126,0,0,1,1.172-8.4,17.942,17.942,0,0,1,3.137-5.957,13.177,13.177,0,0,1,4.431-3.551,11.611,11.611,0,0,1,5.079-1.185,11.74,11.74,0,0,1,5.163,1.209,13.593,13.593,0,0,1,4.492,3.576,17.757,17.757,0,0,1,3.162,5.908,26.214,26.214,0,0,1,1.172,8.228,19.446,19.446,0,0,1-1.2,7.153,14.32,14.32,0,0,1-3.2,5,12.942,12.942,0,0,1-4.48,2.93A13.885,13.885,0,0,1,441.824,396.333Zm.122-17.48a2.234,2.234,0,0,0,1.514-.635,4.668,4.668,0,0,0,1.172-1.88,8.9,8.9,0,0,0,.464-3.076,17.51,17.51,0,0,0-.477-4.444,7.124,7.124,0,0,0-1.221-2.685,2.062,2.062,0,0,0-1.549-.9,1.939,1.939,0,0,0-1.453.831,6.369,6.369,0,0,0-1.124,2.5,17.372,17.372,0,0,0-.426,4.21,9.1,9.1,0,0,0,.9,4.566A2.585,2.585,0,0,0,441.946,378.853Z" fill="#f58b2f"/>
    <path id="패스_1625" data-name="패스 1625" d="M479.886,396.333a7.2,7.2,0,0,1-4.151-1.343,9.971,9.971,0,0,1-1.282-1.025q-.354-.366-.573-.366a1.128,1.128,0,0,0-.623.379c-.269.251-.7.606-1.306,1.061a6.5,6.5,0,0,1-3.906,1.294,15.272,15.272,0,0,1-5.921-.988,7.475,7.475,0,0,1-3.467-2.723,7.093,7.093,0,0,1-1.135-3.979,15.974,15.974,0,0,1,.647-4.493q.648-2.22,1.477-4.394.781-2.051,1.379-4.077a14.087,14.087,0,0,0,.6-4,10.162,10.162,0,0,0-.33-2.564,9.361,9.361,0,0,0-1.1-2.526,4.352,4.352,0,0,1-.768-2.161,2.174,2.174,0,0,1,.793-1.745,5.033,5.033,0,0,1,2.051-.99,11,11,0,0,1,5.3.013,5.481,5.481,0,0,1,2.1.988,2.049,2.049,0,0,1,.818,1.661,3.52,3.52,0,0,1-.732,1.9,6.384,6.384,0,0,0-.867,2.112,11.86,11.86,0,0,0-.3,2.746,13.435,13.435,0,0,0,.659,4.395,7.974,7.974,0,0,0,1.685,2.967,2.989,2.989,0,0,0,2.148,1.061,2.373,2.373,0,0,0,1.612-.683,4.88,4.88,0,0,0,1.232-2.087,11.332,11.332,0,0,0,.477-3.578,22.493,22.493,0,0,0-.306-3.955,6.919,6.919,0,0,0-1.281-2.978,3.514,3.514,0,0,1-.83-2,1.977,1.977,0,0,1,.8-1.6,5.349,5.349,0,0,1,2.063-.965,10.907,10.907,0,0,1,5.273.013,5.176,5.176,0,0,1,2.1,1.026,2.272,2.272,0,0,1,.818,1.818,4.466,4.466,0,0,1-.659,2.075,9.193,9.193,0,0,0-1.2,4.541,11.873,11.873,0,0,0,.488,3.113q.487,1.77,1.208,3.674t1.477,3.76q.879,2.124,1.514,3.857a8.514,8.514,0,0,1,.635,2.662,9,9,0,0,1-.941,4.174,6.778,6.778,0,0,1-2.843,2.881A9.935,9.935,0,0,1,479.886,396.333Z" fill="#f58b2f"/>
    <path id="패스_1626" data-name="패스 1626" d="M503.592,396.7a20.479,20.479,0,0,1-6.372-.976,11.184,11.184,0,0,1-4.859-2.979,7.639,7.639,0,0,1-1.953-5.42,11.4,11.4,0,0,1,.635-3.662q.635-1.879,1.465-3.833.9-2.051,1.611-4.175a13.363,13.363,0,0,0,.708-4.248,9.049,9.049,0,0,0-1.074-4.345,3.961,3.961,0,0,1-.488-1.734,2.655,2.655,0,0,1,1.269-2.27,9.045,9.045,0,0,1,3.32-1.306,21.4,21.4,0,0,1,4.371-.428,25.655,25.655,0,0,1,5.407.55,12.3,12.3,0,0,1,4.139,1.587,3.127,3.127,0,0,1,1.635,2.526q0,2.052-3.3,3.833c-.39.212-.688.383-.891.513s-.3.253-.3.366q0,.366,1.465.879a15.228,15.228,0,0,1,7.153,5.2,14.346,14.346,0,0,1,2.71,8.594,8.294,8.294,0,0,1-1.465,4.847,12.287,12.287,0,0,1-3.881,3.552,19.962,19.962,0,0,1-5.372,2.185A24.2,24.2,0,0,1,503.592,396.7Zm-.757-26.636a2.323,2.323,0,0,0,.977-.268,11.631,11.631,0,0,0,2.832-1.892,2.377,2.377,0,0,0,.854-1.453q0-.953-1.685-1.025a6.094,6.094,0,0,0-1.733.293,3.167,3.167,0,0,0-1.722,1.294,3.248,3.248,0,0,0-.573,1.733,1.639,1.639,0,0,0,.256.941A.892.892,0,0,0,502.835,370.063Zm4.761,8.252a3.982,3.982,0,0,0,1.818-.3.89.89,0,0,0,.55-.77,2.149,2.149,0,0,0-.977-1.489,9.265,9.265,0,0,0-2.417-1.392,7.5,7.5,0,0,0-2.832-.586,2.02,2.02,0,0,0-1.416.415,1.33,1.33,0,0,0-.439,1,2.569,2.569,0,0,0,.757,1.685Q503.907,378.316,507.6,378.315Z" fill="#f58b2f"/>
    <path id="패스_1627" data-name="패스 1627" d="M535.452,396.333a22.779,22.779,0,0,1-6.836-.964,12.061,12.061,0,0,1-4.9-2.734,5.623,5.623,0,0,1-1.819-4.163,6.012,6.012,0,0,1,.171-1.416,52.891,52.891,0,0,1,1.782-5.811q.855-2.393,1.526-4.748a16.766,16.766,0,0,0,.672-4.6,10.84,10.84,0,0,0-.342-2.7,9.062,9.062,0,0,0-1.148-2.6,4.32,4.32,0,0,1-.8-2.222,2.131,2.131,0,0,1,.781-1.709,5.025,5.025,0,0,1,2.026-.977,10.52,10.52,0,0,1,2.588-.317,10.979,10.979,0,0,1,2.7.33,5.492,5.492,0,0,1,2.136,1,2.092,2.092,0,0,1,.83,1.7,3.557,3.557,0,0,1-.732,1.893,7.992,7.992,0,0,0-1.1,2.563,12.693,12.693,0,0,0-.366,3.064,13.693,13.693,0,0,0,.513,3.76,7.971,7.971,0,0,0,1.465,2.954,2.84,2.84,0,0,0,2.246,1.147q1.806,0,3.784-2.441a4.038,4.038,0,0,1,2.954-1.709,3.183,3.183,0,0,1,2.136.9,6.491,6.491,0,0,1,1.66,2.735,14,14,0,0,1,.647,4.614q0,6.788-3.955,9.863A13.547,13.547,0,0,1,535.452,396.333Z" fill="#f58b2f"/>
    <path id="패스_1628" data-name="패스 1628" d="M562.991,396.235a21.278,21.278,0,0,1-4.846-.548,16.61,16.61,0,0,1-4.211-1.563,9.09,9.09,0,0,1-2.955-2.466,5.238,5.238,0,0,1-1.1-3.235,15.393,15.393,0,0,1,.524-3.955q.525-1.979,1.2-3.955t1.184-3.918a15,15,0,0,0,.513-3.846,9.4,9.4,0,0,0-1.367-4.98,5.9,5.9,0,0,1-1-2.857q0-2.245,3.027-3.052a28.8,28.8,0,0,1,6.714-.586q2.22,0,4.468.049,2.124.074,3.955.073a1.906,1.906,0,0,1,1.33.477,2.9,2.9,0,0,1,.781,1.2,4.377,4.377,0,0,1,.257,1.477,3.421,3.421,0,0,1-.44,1.77,1.454,1.454,0,0,1-1.342.745,10.328,10.328,0,0,1-1.685-.245,26.856,26.856,0,0,0-4.565-.537,4.616,4.616,0,0,0-2,.367,2.591,2.591,0,0,0-1.1.9,1.952,1.952,0,0,0-.342,1.05,1.614,1.614,0,0,0,.513,1.172,1.85,1.85,0,0,0,1.367.512,7.042,7.042,0,0,0,1.745-.207q.818-.207,1.5-.452a4.587,4.587,0,0,1,1.563-.366,1.492,1.492,0,0,1,1.343.879,3.771,3.771,0,0,1,.488,1.855,2.578,2.578,0,0,1-.355,1.367,1.18,1.18,0,0,1-1.086.586,6.6,6.6,0,0,1-1.062-.109q-.648-.109-1.538-.208a19.731,19.731,0,0,0-2.112-.1,1.707,1.707,0,0,0-1.416.611,2.036,2.036,0,0,0-.488,1.294,2.257,2.257,0,0,0,.366,1.184,2.829,2.829,0,0,0,1.123,1,4.019,4.019,0,0,0,1.905.4h1.294a12.436,12.436,0,0,0,4.638-.683,8.5,8.5,0,0,1,3.54-.928,3.2,3.2,0,0,1,2.014.672,4.358,4.358,0,0,1,1.343,2.282,16.129,16.129,0,0,1,.476,4.4,12.347,12.347,0,0,1-1.22,5.713,10.907,10.907,0,0,1-3.247,3.857,13.984,13.984,0,0,1-4.554,2.2A18.926,18.926,0,0,1,562.991,396.235Z" fill="#f58b2f"/>
  </g>
</svg>
