<svg xmlns="http://www.w3.org/2000/svg" width="154.15" height="35.889" viewBox="0 0 154.15 35.889">
  <g id="그룹_860" data-name="그룹 860" transform="translate(-33.497 -430.242)">
    <path id="패스_1629" data-name="패스 1629" d="M46.68,466.033a20.509,20.509,0,0,1-6.372-.976,11.19,11.19,0,0,1-4.858-2.979,7.635,7.635,0,0,1-1.953-5.42A11.416,11.416,0,0,1,34.131,453q.635-1.879,1.465-3.833.9-2.051,1.612-4.175a13.392,13.392,0,0,0,.708-4.248,9.047,9.047,0,0,0-1.075-4.345,3.978,3.978,0,0,1-.488-1.734,2.656,2.656,0,0,1,1.27-2.27,9.044,9.044,0,0,1,3.32-1.307,21.457,21.457,0,0,1,4.37-.427,25.666,25.666,0,0,1,5.408.549,12.3,12.3,0,0,1,4.138,1.587,3.127,3.127,0,0,1,1.636,2.527q0,2.052-3.3,3.833-.587.318-.891.513t-.306.366q0,.366,1.465.879a15.217,15.217,0,0,1,7.154,5.2,14.353,14.353,0,0,1,2.71,8.594,8.3,8.3,0,0,1-1.465,4.846,12.305,12.305,0,0,1-3.882,3.553,19.975,19.975,0,0,1-5.371,2.184A24.212,24.212,0,0,1,46.68,466.033ZM45.923,439.4a2.334,2.334,0,0,0,.977-.268,11.607,11.607,0,0,0,2.832-1.893,2.373,2.373,0,0,0,.854-1.452q0-.953-1.684-1.025a6.1,6.1,0,0,0-1.734.293,3.164,3.164,0,0,0-1.721,1.294,3.237,3.237,0,0,0-.573,1.733,1.638,1.638,0,0,0,.256.94A.891.891,0,0,0,45.923,439.4Zm4.761,8.252a3.968,3.968,0,0,0,1.819-.3.887.887,0,0,0,.549-.769,2.145,2.145,0,0,0-.976-1.489,9.281,9.281,0,0,0-2.417-1.392,7.5,7.5,0,0,0-2.832-.586,2.018,2.018,0,0,0-1.416.415,1.329,1.329,0,0,0-.44,1,2.569,2.569,0,0,0,.757,1.685Q47,447.649,50.684,447.649Z" fill="#f58b2f"/>
    <path id="패스_1630" data-name="패스 1630" d="M90.552,465.667a10.1,10.1,0,0,1-2.978-.464,9.292,9.292,0,0,1-2.783-1.391,7.193,7.193,0,0,1-2.051-2.32,6.522,6.522,0,0,1-.782-3.247,11.907,11.907,0,0,1,1.465-5.2,9.8,9.8,0,0,0,1.2-4.126,4.062,4.062,0,0,0-.476-2.064,3.213,3.213,0,0,0-1.233-1.232,3.265,3.265,0,0,0-1.587-.415,3.042,3.042,0,0,0-2.649,1.55,3.736,3.736,0,0,0-.452,1.917,9.381,9.381,0,0,0,1.343,4.37,11.938,11.938,0,0,1,1.587,5.347,6.23,6.23,0,0,1-.806,3.222,7.2,7.2,0,0,1-2.1,2.271,9.459,9.459,0,0,1-2.832,1.343,10.83,10.83,0,0,1-2.979.439,8.7,8.7,0,0,1-5.408-1.673,5.126,5.126,0,0,1-2.209-4.26,9.313,9.313,0,0,1,.525-2.991,24.675,24.675,0,0,1,1.355-3.2q.83-1.648,1.758-3.332,1.024-1.806,1.928-3.626a27.85,27.85,0,0,0,1.5-3.625,11.246,11.246,0,0,0,.6-3.54,7.957,7.957,0,0,0-.318-2.222,4.649,4.649,0,0,1-.195-1.269,3.668,3.668,0,0,1,1.367-2.918,8.9,8.9,0,0,1,3.516-1.734,17.992,17.992,0,0,1,9.009,0,8.906,8.906,0,0,1,3.515,1.734,3.665,3.665,0,0,1,1.368,2.918,4.653,4.653,0,0,1-.2,1.269,7.7,7.7,0,0,0-.317,2.2,10.832,10.832,0,0,0,.622,3.541,27.15,27.15,0,0,0,1.563,3.625q.939,1.818,1.965,3.625.977,1.71,1.831,3.345a24.349,24.349,0,0,1,1.4,3.2,9.05,9.05,0,0,1,.549,3,5.126,5.126,0,0,1-2.209,4.26A8.7,8.7,0,0,1,90.552,465.667Zm-9.009-23.315A2.44,2.44,0,0,0,82.85,442a1.233,1.233,0,0,0,.573-1.135,2.754,2.754,0,0,0-.219-.976q-.879-1.929-1.831-1.929-1.052,0-1.954,2.3a1.708,1.708,0,0,0-.1.537,1.278,1.278,0,0,0,.708,1.148A2.946,2.946,0,0,0,81.543,442.352Z" fill="#f58b2f"/>
    <path id="패스_1631" data-name="패스 1631" d="M125.586,465.667a10.1,10.1,0,0,1-2.978-.464,9.3,9.3,0,0,1-2.783-1.391,7.193,7.193,0,0,1-2.051-2.32,6.521,6.521,0,0,1-.781-3.247,11.894,11.894,0,0,1,1.465-5.2,9.815,9.815,0,0,0,1.2-4.126,4.062,4.062,0,0,0-.476-2.064,3.213,3.213,0,0,0-1.233-1.232,3.265,3.265,0,0,0-1.587-.415,3.045,3.045,0,0,0-2.649,1.55,3.736,3.736,0,0,0-.452,1.917,9.393,9.393,0,0,0,1.343,4.37,11.938,11.938,0,0,1,1.587,5.347,6.23,6.23,0,0,1-.806,3.222,7.2,7.2,0,0,1-2.1,2.271,9.459,9.459,0,0,1-2.832,1.343,10.829,10.829,0,0,1-2.979.439,8.7,8.7,0,0,1-5.408-1.673,5.125,5.125,0,0,1-2.209-4.26,9.313,9.313,0,0,1,.525-2.991,24.814,24.814,0,0,1,1.355-3.2q.83-1.648,1.758-3.332,1.025-1.806,1.928-3.626a27.848,27.848,0,0,0,1.5-3.625,11.246,11.246,0,0,0,.6-3.54,7.993,7.993,0,0,0-.317-2.222,4.614,4.614,0,0,1-.2-1.269,3.665,3.665,0,0,1,1.368-2.918,8.906,8.906,0,0,1,3.515-1.734,17.992,17.992,0,0,1,9.009,0,8.917,8.917,0,0,1,3.516,1.734,3.668,3.668,0,0,1,1.367,2.918,4.653,4.653,0,0,1-.2,1.269,7.731,7.731,0,0,0-.317,2.2,10.834,10.834,0,0,0,.623,3.541,27.142,27.142,0,0,0,1.562,3.625q.94,1.818,1.965,3.625.977,1.71,1.831,3.345a24.349,24.349,0,0,1,1.4,3.2,9.027,9.027,0,0,1,.55,3,5.127,5.127,0,0,1-2.21,4.26A8.7,8.7,0,0,1,125.586,465.667Zm-9.008-23.315a2.439,2.439,0,0,0,1.306-.355,1.233,1.233,0,0,0,.574-1.135,2.758,2.758,0,0,0-.22-.976q-.879-1.929-1.831-1.929-1.05,0-1.953,2.3a1.683,1.683,0,0,0-.1.537,1.278,1.278,0,0,0,.708,1.148A2.952,2.952,0,0,0,116.578,442.352Z" fill="#f58b2f"/>
    <path id="패스_1632" data-name="패스 1632" d="M145.63,466.131a14.107,14.107,0,0,1-4.858-.843,9.419,9.419,0,0,1-3.845-2.526,7.079,7.079,0,0,1-1.77-4.2q-.147-2.393-.147-4.981V451.6q0-2.416-.146-5.1-.392-6.42-3.76-9.57a4.457,4.457,0,0,1-1.782-3.052,2.485,2.485,0,0,1,.952-1.942,6.556,6.556,0,0,1,2.417-1.256,10.306,10.306,0,0,1,2.978-.44,8.019,8.019,0,0,1,2.332.329,4.1,4.1,0,0,1,1.77,1.026,2.452,2.452,0,0,1,.684,1.8,4.836,4.836,0,0,1-.147,1.123,6.25,6.25,0,0,0-.195,1.611,16.453,16.453,0,0,0,2.051,7.3,36.139,36.139,0,0,0,1.953,3.625q.78,1.207,1.465,1.209.658,0,1.44-1.16a34.418,34.418,0,0,0,1.953-3.479,22.966,22.966,0,0,0,1.55-3.87,12.81,12.81,0,0,0,.574-3.625,6.251,6.251,0,0,0-.195-1.611,4.836,4.836,0,0,1-.147-1.123,2.427,2.427,0,0,1,.66-1.758,3.968,3.968,0,0,1,1.733-1.014,7.774,7.774,0,0,1,2.3-.329,10.261,10.261,0,0,1,3.015.451,6.74,6.74,0,0,1,2.454,1.294,2.558,2.558,0,0,1,.976,1.99,2.968,2.968,0,0,1-.427,1.428,6.77,6.77,0,0,1-1.355,1.624,10.706,10.706,0,0,0-2.954,4.614,26.741,26.741,0,0,0-1.2,6.934q-.246,4.127-.245,9.937a6.255,6.255,0,0,1-.866,3.307,7.409,7.409,0,0,1-2.295,2.368,10.863,10.863,0,0,1-3.235,1.416A14.389,14.389,0,0,1,145.63,466.131Z" fill="#f58b2f"/>
    <path id="패스_1633" data-name="패스 1633" d="M173.755,465.667a13.624,13.624,0,0,1-5.09-.989,13.279,13.279,0,0,1-4.468-2.966,14.355,14.355,0,0,1-3.174-4.956,18.77,18.77,0,0,1-1.184-6.958,27.125,27.125,0,0,1,1.172-8.4,17.951,17.951,0,0,1,3.137-5.957,13.184,13.184,0,0,1,4.432-3.552,11.606,11.606,0,0,1,5.078-1.184,11.735,11.735,0,0,1,5.163,1.208,13.584,13.584,0,0,1,4.492,3.577,17.73,17.73,0,0,1,3.162,5.908,26.214,26.214,0,0,1,1.172,8.228,19.429,19.429,0,0,1-1.2,7.153,14.306,14.306,0,0,1-3.2,5.005,12.942,12.942,0,0,1-4.48,2.93A13.881,13.881,0,0,1,173.755,465.667Zm.122-17.48a2.235,2.235,0,0,0,1.514-.635,4.669,4.669,0,0,0,1.172-1.88,8.879,8.879,0,0,0,.464-3.076,17.556,17.556,0,0,0-.476-4.444,7.147,7.147,0,0,0-1.221-2.685,2.063,2.063,0,0,0-1.55-.9,1.938,1.938,0,0,0-1.453.831,6.356,6.356,0,0,0-1.123,2.5,17.376,17.376,0,0,0-.427,4.211,9.112,9.112,0,0,0,.9,4.566A2.588,2.588,0,0,0,173.877,448.187Z" fill="#f58b2f"/>
  </g>
</svg>
