<svg xmlns="http://www.w3.org/2000/svg" width="180.371" height="35.449" viewBox="0 0 180.371 35.449">
  <g id="그룹_862" data-name="그룹 862" transform="translate(-33.497 -503.25)">
    <path id="패스_1639" data-name="패스 1639" d="M46.68,538.7a20.479,20.479,0,0,1-6.372-.976,11.181,11.181,0,0,1-4.858-2.979,7.635,7.635,0,0,1-1.953-5.42,11.425,11.425,0,0,1,.634-3.662q.635-1.879,1.465-3.833.9-2.051,1.612-4.175a13.391,13.391,0,0,0,.708-4.248,9.049,9.049,0,0,0-1.075-4.345,3.974,3.974,0,0,1-.488-1.734,2.656,2.656,0,0,1,1.27-2.27,9.045,9.045,0,0,1,3.32-1.306,21.387,21.387,0,0,1,4.37-.428,25.665,25.665,0,0,1,5.408.55,12.3,12.3,0,0,1,4.138,1.587,3.126,3.126,0,0,1,1.636,2.526q0,2.052-3.3,3.833-.587.318-.891.513T52,512.7q0,.366,1.465.879a15.231,15.231,0,0,1,7.154,5.2,14.353,14.353,0,0,1,2.71,8.594,8.3,8.3,0,0,1-1.465,4.847,12.3,12.3,0,0,1-3.882,3.552,19.947,19.947,0,0,1-5.371,2.185A24.212,24.212,0,0,1,46.68,538.7Zm-.757-26.636a2.32,2.32,0,0,0,.977-.268,11.611,11.611,0,0,0,2.832-1.892,2.377,2.377,0,0,0,.854-1.453q0-.953-1.684-1.025a6.1,6.1,0,0,0-1.734.293,3.169,3.169,0,0,0-1.721,1.294,3.24,3.24,0,0,0-.573,1.733,1.639,1.639,0,0,0,.256.941A.891.891,0,0,0,45.923,512.063Zm4.761,8.252a3.984,3.984,0,0,0,1.819-.3.888.888,0,0,0,.549-.77,2.147,2.147,0,0,0-.976-1.489,9.282,9.282,0,0,0-2.417-1.392,7.5,7.5,0,0,0-2.832-.586,2.018,2.018,0,0,0-1.416.415,1.331,1.331,0,0,0-.44,1,2.569,2.569,0,0,0,.757,1.685Q47,520.316,50.684,520.315Z" fill="#f58b2f"/>
    <path id="패스_1640" data-name="패스 1640" d="M90.552,538.333a10.1,10.1,0,0,1-2.978-.464,9.247,9.247,0,0,1-2.783-1.391,7.193,7.193,0,0,1-2.051-2.32,6.522,6.522,0,0,1-.782-3.247,11.907,11.907,0,0,1,1.465-5.2,9.8,9.8,0,0,0,1.2-4.126,4.056,4.056,0,0,0-.476-2.063,3.222,3.222,0,0,0-1.233-1.233,3.265,3.265,0,0,0-1.587-.415,3.04,3.04,0,0,0-2.649,1.551,3.732,3.732,0,0,0-.452,1.916,9.381,9.381,0,0,0,1.343,4.37,11.945,11.945,0,0,1,1.587,5.347,6.23,6.23,0,0,1-.806,3.222,7.183,7.183,0,0,1-2.1,2.271,9.458,9.458,0,0,1-2.832,1.343,10.828,10.828,0,0,1-2.979.439,8.7,8.7,0,0,1-5.408-1.672A5.129,5.129,0,0,1,64.82,532.4a9.3,9.3,0,0,1,.525-2.99,24.679,24.679,0,0,1,1.355-3.2q.83-1.648,1.758-3.333,1.024-1.806,1.928-3.625a27.86,27.86,0,0,0,1.5-3.626,11.241,11.241,0,0,0,.6-3.54,7.962,7.962,0,0,0-.318-2.222,4.643,4.643,0,0,1-.195-1.269,3.666,3.666,0,0,1,1.367-2.917,8.891,8.891,0,0,1,3.516-1.734,17.961,17.961,0,0,1,9.009,0,8.893,8.893,0,0,1,3.515,1.734,3.664,3.664,0,0,1,1.368,2.917,4.647,4.647,0,0,1-.2,1.269,7.706,7.706,0,0,0-.317,2.2,10.828,10.828,0,0,0,.622,3.541,27.094,27.094,0,0,0,1.563,3.625q.939,1.82,1.965,3.625.977,1.71,1.831,3.345a24.41,24.41,0,0,1,1.4,3.2,9.051,9.051,0,0,1,.549,3,5.129,5.129,0,0,1-2.209,4.261A8.7,8.7,0,0,1,90.552,538.333Zm-9.009-23.315a2.439,2.439,0,0,0,1.307-.354,1.234,1.234,0,0,0,.573-1.136,2.759,2.759,0,0,0-.219-.976q-.879-1.928-1.831-1.929-1.052,0-1.954,2.3a1.713,1.713,0,0,0-.1.537,1.278,1.278,0,0,0,.708,1.148A2.936,2.936,0,0,0,81.543,515.018Z" fill="#f58b2f"/>
    <path id="패스_1641" data-name="패스 1641" d="M108.643,538.333a10.58,10.58,0,0,1-5.066-1.086,7.452,7.452,0,0,1-3.015-2.82,7.215,7.215,0,0,1-1-3.662,7.659,7.659,0,0,1,.195-1.709,53.358,53.358,0,0,1,1.783-5.786q.854-2.393,1.525-4.761a16.855,16.855,0,0,0,.672-4.614,10.793,10.793,0,0,0-.342-2.7,9.059,9.059,0,0,0-1.147-2.6,4.314,4.314,0,0,1-.806-2.222,2.168,2.168,0,0,1,.781-1.721,4.811,4.811,0,0,1,2.014-.976,10.812,10.812,0,0,1,2.6-.306,9.718,9.718,0,0,1,3.956.806,21.257,21.257,0,0,1,5.883-.928,13.147,13.147,0,0,1,5.982,1.258,9.955,9.955,0,0,1,3.808,3.161,6.787,6.787,0,0,1,1.319,3.906,5.393,5.393,0,0,1-.7,2.65,5.962,5.962,0,0,1-2.161,2.16,28.251,28.251,0,0,0-2.453,1.648q-.795.622-.794,1.037c0,.212.154.408.464.586a7.411,7.411,0,0,0,1.367.562,11.867,11.867,0,0,1,5.811,5.176,14.545,14.545,0,0,1,2.392,7.666,4.492,4.492,0,0,1-1,3.04,5.6,5.6,0,0,1-2.6,1.671,13.144,13.144,0,0,1-9.338-.781,3.917,3.917,0,0,1-2-3.418l.024-3.784a29.018,29.018,0,0,0-.317-4.419,6.669,6.669,0,0,0-1.624-3.356,3.209,3.209,0,0,0-2.063-1.234.858.858,0,0,0-.647.269,1.211,1.211,0,0,0-.256.854q0,1.392,1.758,4.3a10.288,10.288,0,0,1,1.709,5.371,6.572,6.572,0,0,1-.94,3.54,6.745,6.745,0,0,1-2.466,2.369A6.654,6.654,0,0,1,108.643,538.333Zm3.687-25.293a8.9,8.9,0,0,0,1.782-.22,8.066,8.066,0,0,0,3.308-1.391,2.316,2.316,0,0,0,1.013-1.66,1.6,1.6,0,0,0-.781-1.331,3.636,3.636,0,0,0-2.124-.549,7.293,7.293,0,0,0-1.27.122,6.009,6.009,0,0,0-2.929,1.513,3.075,3.075,0,0,0-1.123,2.1,1.249,1.249,0,0,0,.5,1.014A2.6,2.6,0,0,0,112.33,513.04Z" fill="#f58b2f"/>
    <path id="패스_1642" data-name="패스 1642" d="M142.432,538.333a10.58,10.58,0,0,1-5.066-1.086,7.452,7.452,0,0,1-3.015-2.82,7.215,7.215,0,0,1-1-3.662,7.659,7.659,0,0,1,.195-1.709,57.2,57.2,0,0,1,1.758-5.786q.879-2.418,1.538-4.773a17.009,17.009,0,0,0,.659-4.6,10.838,10.838,0,0,0-.341-2.7,8.888,8.888,0,0,0-1.16-2.6,4.3,4.3,0,0,1-.818-2.246,2.13,2.13,0,0,1,.781-1.709,4.882,4.882,0,0,1,2.015-.964,10.8,10.8,0,0,1,2.6-.306,10.97,10.97,0,0,1,2.7.33,5.5,5.5,0,0,1,2.137,1,2.069,2.069,0,0,1,.83,1.672,3.483,3.483,0,0,1-.708,1.88,8.213,8.213,0,0,0-1.16,2.954,19.207,19.207,0,0,0-.378,3.931,25.119,25.119,0,0,0,.976,6.884,12.187,12.187,0,0,0,2.857,5.347,6.054,6.054,0,0,1,2.172,4.37,5.271,5.271,0,0,1-1.147,3.3,8.559,8.559,0,0,1-2.893,2.393A7.609,7.609,0,0,1,142.432,538.333Z" fill="#f58b2f"/>
    <path id="패스_1643" data-name="패스 1643" d="M176.954,538.333a6.711,6.711,0,0,1-3.345-.879,6.943,6.943,0,0,1-2.527-2.429,6.674,6.674,0,0,1-.964-3.6,10.712,10.712,0,0,1,1.611-5.225,21.032,21.032,0,0,0,1.99-5.09,23.824,23.824,0,0,0,.866-6.262q0-1.269-.512-1.392-.269,0-.745.659a7.06,7.06,0,0,0-.854,1.685,6.066,6.066,0,0,0-.379,2.124,5.273,5.273,0,0,0,.366,1.9,3.082,3.082,0,0,1,.269,1.2,2.056,2.056,0,0,1-.586,1.5,3.682,3.682,0,0,1-1.514.9,6.388,6.388,0,0,1-3.894,0,3.677,3.677,0,0,1-1.526-.9,2.059,2.059,0,0,1-.585-1.5,3.08,3.08,0,0,1,.268-1.2,5.083,5.083,0,0,0,.366-1.88,6.091,6.091,0,0,0-.39-2.16,7.04,7.04,0,0,0-.879-1.7q-.489-.66-.733-.659-.464,0-.464,1.66v.854a18.715,18.715,0,0,0,.892,5.726,21.333,21.333,0,0,0,1.94,4.528,10.7,10.7,0,0,1,1.612,5.225,6.674,6.674,0,0,1-.965,3.6,6.978,6.978,0,0,1-2.514,2.429,6.7,6.7,0,0,1-3.357.879,10.524,10.524,0,0,1-4.993-1.062,7.241,7.241,0,0,1-2.966-2.758,7.109,7.109,0,0,1-.977-3.6,8.056,8.056,0,0,1,.22-1.855,58.4,58.4,0,0,1,1.9-5.86q.952-2.465,1.673-4.87a16.265,16.265,0,0,0,.72-4.676,10.1,10.1,0,0,0-.33-2.575,9.636,9.636,0,0,0-1.074-2.5,4.382,4.382,0,0,1-.745-2.148,2.177,2.177,0,0,1,.794-1.745,5.025,5.025,0,0,1,2.039-.99,10.607,10.607,0,0,1,2.612-.317,9.521,9.521,0,0,1,2.893.488,5.388,5.388,0,0,1,2.576,1.783l.488.634q1.22,1.637,1.977,2.466a2.059,2.059,0,0,0,1.416.83,2.37,2.37,0,0,0,1.587-.964q.879-.963,2.393-2.966a5.374,5.374,0,0,1,2.588-1.783,9.558,9.558,0,0,1,2.881-.488,10.613,10.613,0,0,1,2.612.317,5.038,5.038,0,0,1,2.039.99,2.18,2.18,0,0,1,.793,1.745,4.382,4.382,0,0,1-.745,2.148,9.627,9.627,0,0,0-1.074,2.515,10.153,10.153,0,0,0-.329,2.563,16.231,16.231,0,0,0,.72,4.676q.72,2.406,1.672,4.87a58.4,58.4,0,0,1,1.9,5.86,7.7,7.7,0,0,1,.22,1.831,7.129,7.129,0,0,1-3.931,6.384A10.5,10.5,0,0,1,176.954,538.333Z" fill="#f58b2f"/>
    <path id="패스_1644" data-name="패스 1644" d="M196.436,538.235a9.12,9.12,0,0,1-4.651-1.086,7.262,7.262,0,0,1-2.807-2.807,7.458,7.458,0,0,1-.94-3.626,8.516,8.516,0,0,1,.1-1.294,57.922,57.922,0,0,1,1.465-5.908q.66-2.245,1.172-4.444a18.76,18.76,0,0,0,.513-4.272,11.3,11.3,0,0,0-.415-3.064,9.3,9.3,0,0,0-1.38-2.844,4.327,4.327,0,0,1-.964-2.344,2.254,2.254,0,0,1,.867-1.831,5.425,5.425,0,0,1,2.27-1.026,13.99,13.99,0,0,1,3.064-.317,7.272,7.272,0,0,1,3.3.732,21.021,21.021,0,0,1,5.566-.854,11.7,11.7,0,0,1,5.64,1.245,8.734,8.734,0,0,1,3.467,3.235,8.218,8.218,0,0,1,1.172,4.236,8.687,8.687,0,0,1-1.209,4.346,10.22,10.22,0,0,1-3.7,3.637,15.932,15.932,0,0,1-6.3,2,8.719,8.719,0,0,0-2.43.526q-.817.354-.817.963,0,1.124,2.905,3.516a5.919,5.919,0,0,1,2.392,4.517,5.5,5.5,0,0,1-1.123,3.284,8.336,8.336,0,0,1-2.99,2.514A8.937,8.937,0,0,1,196.436,538.235Zm2.759-25.1a5.765,5.765,0,0,0,1.44-.22,10.792,10.792,0,0,0,3.675-1.647,2.446,2.446,0,0,0,1.135-1.722,1.386,1.386,0,0,0-.757-1.184,3.829,3.829,0,0,0-2.051-.476,7.713,7.713,0,0,0-1.294.122,5.218,5.218,0,0,0-2.844,1.526,3.307,3.307,0,0,0-1.038,2.16,1.375,1.375,0,0,0,.428,1.026A1.807,1.807,0,0,0,199.2,513.138Z" fill="#f58b2f"/>
  </g>
</svg>
