<svg xmlns="http://www.w3.org/2000/svg" width="151.343" height="35.426" viewBox="0 0 151.343 35.426">
  <g id="그룹_861" data-name="그룹 861" transform="translate(-331.497 -430.607)">
    <path id="패스_1634" data-name="패스 1634" d="M344.68,466.033a20.508,20.508,0,0,1-6.372-.976,11.2,11.2,0,0,1-4.858-2.979,7.638,7.638,0,0,1-1.953-5.42,11.416,11.416,0,0,1,.634-3.662q.634-1.881,1.465-3.834.9-2.05,1.612-4.174a13.392,13.392,0,0,0,.708-4.248,9.047,9.047,0,0,0-1.075-4.345,3.978,3.978,0,0,1-.488-1.735,2.655,2.655,0,0,1,1.27-2.269,9.044,9.044,0,0,1,3.32-1.307,21.387,21.387,0,0,1,4.37-.428,25.665,25.665,0,0,1,5.408.55,12.3,12.3,0,0,1,4.138,1.587,3.126,3.126,0,0,1,1.636,2.527q0,2.052-3.3,3.832c-.391.213-.688.383-.891.514s-.306.252-.306.365q0,.366,1.465.879a15.226,15.226,0,0,1,7.154,5.2,14.351,14.351,0,0,1,2.71,8.594,8.3,8.3,0,0,1-1.465,4.846,12.317,12.317,0,0,1-3.882,3.553,19.976,19.976,0,0,1-5.371,2.184A24.212,24.212,0,0,1,344.68,466.033Zm-.757-26.637a2.331,2.331,0,0,0,.977-.267,11.607,11.607,0,0,0,2.832-1.893,2.377,2.377,0,0,0,.854-1.453q0-.952-1.684-1.025a6.1,6.1,0,0,0-1.734.293,3.17,3.17,0,0,0-1.721,1.3,3.234,3.234,0,0,0-.573,1.732,1.639,1.639,0,0,0,.256.941A.891.891,0,0,0,343.923,439.4Zm4.761,8.252a3.984,3.984,0,0,0,1.819-.3.887.887,0,0,0,.549-.77,2.145,2.145,0,0,0-.976-1.488,9.283,9.283,0,0,0-2.417-1.393,7.5,7.5,0,0,0-2.832-.586,2.013,2.013,0,0,0-1.416.416,1.327,1.327,0,0,0-.44,1,2.571,2.571,0,0,0,.757,1.686Q345,447.649,348.684,447.648Z" fill="#f58b2f"/>
    <path id="패스_1635" data-name="패스 1635" d="M388.552,465.666a10.136,10.136,0,0,1-2.978-.463,9.271,9.271,0,0,1-2.783-1.392,7.179,7.179,0,0,1-2.051-2.319,6.523,6.523,0,0,1-.782-3.248,11.9,11.9,0,0,1,1.465-5.2,9.807,9.807,0,0,0,1.2-4.127,4.056,4.056,0,0,0-.476-2.063,3.213,3.213,0,0,0-1.233-1.232,3.255,3.255,0,0,0-1.587-.416,3.04,3.04,0,0,0-2.649,1.551,3.735,3.735,0,0,0-.452,1.916,9.388,9.388,0,0,0,1.343,4.371,11.938,11.938,0,0,1,1.587,5.346,6.225,6.225,0,0,1-.806,3.222,7.2,7.2,0,0,1-2.1,2.272,9.48,9.48,0,0,1-2.832,1.342,10.829,10.829,0,0,1-2.979.439,8.7,8.7,0,0,1-5.408-1.672,5.128,5.128,0,0,1-2.209-4.26,9.308,9.308,0,0,1,.525-2.991,24.672,24.672,0,0,1,1.355-3.2q.829-1.648,1.758-3.332,1.024-1.808,1.928-3.626a27.8,27.8,0,0,0,1.5-3.626,11.235,11.235,0,0,0,.6-3.539,7.964,7.964,0,0,0-.318-2.223,4.643,4.643,0,0,1-.2-1.269,3.666,3.666,0,0,1,1.367-2.917,8.9,8.9,0,0,1,3.516-1.734,17.961,17.961,0,0,1,9.009,0,8.906,8.906,0,0,1,3.515,1.734,3.664,3.664,0,0,1,1.368,2.917,4.647,4.647,0,0,1-.2,1.269,7.706,7.706,0,0,0-.317,2.2,10.838,10.838,0,0,0,.622,3.542,27.206,27.206,0,0,0,1.563,3.625q.939,1.818,1.965,3.625.977,1.71,1.831,3.345a24.335,24.335,0,0,1,1.4,3.2,9.056,9.056,0,0,1,.549,3,5.128,5.128,0,0,1-2.209,4.26A8.7,8.7,0,0,1,388.552,465.666Zm-9.009-23.314A2.44,2.44,0,0,0,380.85,442a1.233,1.233,0,0,0,.573-1.136,2.763,2.763,0,0,0-.219-.976q-.879-1.928-1.831-1.928-1.051,0-1.954,2.3a1.708,1.708,0,0,0-.1.537,1.275,1.275,0,0,0,.708,1.147A2.937,2.937,0,0,0,379.543,442.352Z" fill="#f58b2f"/>
    <path id="패스_1636" data-name="패스 1636" d="M410.867,465.568a21.279,21.279,0,0,1-4.846-.548,16.632,16.632,0,0,1-4.212-1.563,9.087,9.087,0,0,1-2.954-2.466,5.235,5.235,0,0,1-1.1-3.235,15.356,15.356,0,0,1,.525-3.955q.525-1.979,1.2-3.955t1.184-3.918a15.046,15.046,0,0,0,.512-3.846,9.4,9.4,0,0,0-1.367-4.98,5.906,5.906,0,0,1-1-2.856q0-2.247,3.027-3.053a28.81,28.81,0,0,1,6.714-.586q2.222,0,4.468.049,2.124.073,3.955.074a1.908,1.908,0,0,1,1.331.476,2.9,2.9,0,0,1,.781,1.2,4.377,4.377,0,0,1,.256,1.477,3.418,3.418,0,0,1-.439,1.77,1.455,1.455,0,0,1-1.343.746,10.32,10.32,0,0,1-1.684-.245,26.751,26.751,0,0,0-4.566-.537,4.621,4.621,0,0,0-2,.366,2.576,2.576,0,0,0-1.1.9,1.947,1.947,0,0,0-.342,1.049,1.617,1.617,0,0,0,.512,1.172,1.853,1.853,0,0,0,1.368.513,7.042,7.042,0,0,0,1.745-.208q.817-.207,1.5-.452a4.572,4.572,0,0,1,1.562-.365,1.49,1.49,0,0,1,1.343.879,3.768,3.768,0,0,1,.488,1.855,2.59,2.59,0,0,1-.354,1.367,1.181,1.181,0,0,1-1.086.586,6.622,6.622,0,0,1-1.062-.11q-.648-.109-1.538-.208a19.743,19.743,0,0,0-2.112-.1,1.7,1.7,0,0,0-1.416.612,2.033,2.033,0,0,0-.488,1.293,2.257,2.257,0,0,0,.366,1.184,2.815,2.815,0,0,0,1.123,1,4.017,4.017,0,0,0,1.9.4h1.294a12.422,12.422,0,0,0,4.639-.683,8.51,8.51,0,0,1,3.54-.928,3.2,3.2,0,0,1,2.014.672,4.361,4.361,0,0,1,1.343,2.283,16.129,16.129,0,0,1,.476,4.395,12.353,12.353,0,0,1-1.22,5.713,10.917,10.917,0,0,1-3.248,3.857,14.009,14.009,0,0,1-4.553,2.2A18.963,18.963,0,0,1,410.867,465.568Z" fill="#f58b2f"/>
    <path id="패스_1637" data-name="패스 1637" d="M439.236,465.691a9.854,9.854,0,0,1-6.274-2.112,13.777,13.777,0,0,1-4.188-5.823,22.646,22.646,0,0,1-1.5-8.545,23.385,23.385,0,0,1,.989-6.726,21.286,21.286,0,0,1,2.82-5.981,14.719,14.719,0,0,1,4.419-4.273,10.791,10.791,0,0,1,5.786-1.6,10.963,10.963,0,0,1,6.677,2.038,6.591,6.591,0,0,1,2.893,5.261,3.253,3.253,0,0,1-.781,2.185,5.1,5.1,0,0,1-1.953,1.4,5.99,5.99,0,0,1-2.319.489,4.033,4.033,0,0,1-1.893-.44,2.428,2.428,0,0,1-1.183-1.367c-.034-.131-.074-.349-.123-.66q-.123-.732-.366-1.672a5.835,5.835,0,0,0-.72-1.684,1.5,1.5,0,0,0-1.331-.746,1.626,1.626,0,0,0-1.355.9,7.1,7.1,0,0,0-.879,2.367,15.338,15.338,0,0,0-.305,3.125,19.113,19.113,0,0,0,.586,5.115,5.66,5.66,0,0,0,1.452,2.674,2.893,2.893,0,0,0,1.942.781,2.956,2.956,0,0,0,2.062-.818,2.39,2.39,0,0,0,.892-1.77q0-.416-.83-.416a5.008,5.008,0,0,0-.977.147,5.447,5.447,0,0,1-1.2.172,1.218,1.218,0,0,1-1.136-.709,3.263,3.263,0,0,1-.378-1.563,3.454,3.454,0,0,1,.4-1.672,1.419,1.419,0,0,1,1.233-.793,7.338,7.338,0,0,1,1.319.17,13.351,13.351,0,0,0,2.734.27,7.329,7.329,0,0,0,1.11-.086,6.507,6.507,0,0,1,.989-.086q3.271,0,4.859,4.15a24.964,24.964,0,0,1,1.318,8.741,24.522,24.522,0,0,1-1.269,8.789c-.115.212-.445.386-.99.525a7.247,7.247,0,0,1-1.793.207,6.3,6.3,0,0,1-2.076-.329q-.951-.33-.952-1.11.024-.636.049-.928c.016-.2.024-.505.024-.928a3.7,3.7,0,0,0-.122-1.111c-.082-.237-.179-.354-.293-.354q-.366,0-.952,1.319a5.364,5.364,0,0,1-2.539,2.6A8.559,8.559,0,0,1,439.236,465.691Z" fill="#f58b2f"/>
    <path id="패스_1638" data-name="패스 1638" d="M468.045,465.691a9.852,9.852,0,0,1-6.274-2.112,13.769,13.769,0,0,1-4.188-5.823,22.645,22.645,0,0,1-1.5-8.545,23.383,23.383,0,0,1,.988-6.726,21.289,21.289,0,0,1,2.821-5.981,14.708,14.708,0,0,1,4.419-4.273,10.789,10.789,0,0,1,5.786-1.6,10.96,10.96,0,0,1,6.676,2.038,6.592,6.592,0,0,1,2.894,5.261,3.258,3.258,0,0,1-.781,2.185,5.111,5.111,0,0,1-1.953,1.4,6,6,0,0,1-2.32.489,4.026,4.026,0,0,1-1.892-.44,2.43,2.43,0,0,1-1.184-1.367c-.033-.131-.073-.349-.122-.66q-.123-.732-.366-1.672a5.809,5.809,0,0,0-.721-1.684,1.5,1.5,0,0,0-1.33-.746,1.624,1.624,0,0,0-1.355.9,7.1,7.1,0,0,0-.879,2.367,15.338,15.338,0,0,0-.3,3.125,19.111,19.111,0,0,0,.586,5.115,5.652,5.652,0,0,0,1.452,2.674,2.89,2.89,0,0,0,1.941.781,2.958,2.958,0,0,0,2.063-.818,2.39,2.39,0,0,0,.892-1.77c0-.277-.278-.416-.83-.416a5,5,0,0,0-.977.147,5.455,5.455,0,0,1-1.2.172,1.218,1.218,0,0,1-1.136-.709,3.263,3.263,0,0,1-.378-1.563,3.465,3.465,0,0,1,.4-1.672,1.421,1.421,0,0,1,1.234-.793,7.329,7.329,0,0,1,1.318.17,13.358,13.358,0,0,0,2.734.27,7.343,7.343,0,0,0,1.111-.086,6.5,6.5,0,0,1,.989-.086q3.271,0,4.858,4.15a24.963,24.963,0,0,1,1.319,8.741,24.5,24.5,0,0,1-1.27,8.789c-.114.212-.444.386-.989.525a7.261,7.261,0,0,1-1.794.207,6.3,6.3,0,0,1-2.075-.329q-.953-.33-.952-1.11c.015-.424.032-.733.049-.928s.024-.505.024-.928a3.7,3.7,0,0,0-.122-1.111c-.082-.237-.18-.354-.293-.354q-.366,0-.952,1.319a5.364,5.364,0,0,1-2.539,2.6A8.559,8.559,0,0,1,468.045,465.691Z" fill="#f58b2f"/>
  </g>
</svg>
