<svg xmlns="http://www.w3.org/2000/svg" width="244.092" height="35.425" viewBox="0 0 244.092 35.425">
  <g id="그룹_863" data-name="그룹 863" transform="translate(-331.497 -503.274)">
    <path id="패스_1645" data-name="패스 1645" d="M344.68,538.7a20.479,20.479,0,0,1-6.372-.976,11.181,11.181,0,0,1-4.858-2.979,7.635,7.635,0,0,1-1.953-5.42,11.425,11.425,0,0,1,.634-3.662q.634-1.879,1.465-3.833.9-2.051,1.612-4.175a13.392,13.392,0,0,0,.708-4.248,9.049,9.049,0,0,0-1.075-4.345,3.974,3.974,0,0,1-.488-1.734,2.656,2.656,0,0,1,1.27-2.27,9.045,9.045,0,0,1,3.32-1.306,21.387,21.387,0,0,1,4.37-.428,25.665,25.665,0,0,1,5.408.55,12.3,12.3,0,0,1,4.138,1.587,3.126,3.126,0,0,1,1.636,2.526q0,2.052-3.3,3.833-.586.318-.891.513T350,512.7q0,.366,1.465.879a15.231,15.231,0,0,1,7.154,5.2,14.353,14.353,0,0,1,2.71,8.594,8.3,8.3,0,0,1-1.465,4.847,12.3,12.3,0,0,1-3.882,3.552,19.947,19.947,0,0,1-5.371,2.185A24.212,24.212,0,0,1,344.68,538.7Zm-.757-26.636a2.319,2.319,0,0,0,.977-.268,11.611,11.611,0,0,0,2.832-1.892,2.377,2.377,0,0,0,.854-1.453q0-.953-1.684-1.025a6.1,6.1,0,0,0-1.734.293,3.169,3.169,0,0,0-1.721,1.294,3.24,3.24,0,0,0-.573,1.733,1.639,1.639,0,0,0,.256.941A.891.891,0,0,0,343.923,512.063Zm4.761,8.252a3.984,3.984,0,0,0,1.819-.3.888.888,0,0,0,.549-.77,2.147,2.147,0,0,0-.976-1.489,9.281,9.281,0,0,0-2.417-1.392,7.5,7.5,0,0,0-2.832-.586,2.018,2.018,0,0,0-1.416.415,1.331,1.331,0,0,0-.44,1,2.569,2.569,0,0,0,.757,1.685Q345,520.316,348.684,520.315Z" fill="#f58b2f"/>
    <path id="패스_1646" data-name="패스 1646" d="M388.552,538.333a10.1,10.1,0,0,1-2.978-.464,9.247,9.247,0,0,1-2.783-1.391,7.194,7.194,0,0,1-2.051-2.32,6.522,6.522,0,0,1-.782-3.247,11.907,11.907,0,0,1,1.465-5.2,9.8,9.8,0,0,0,1.2-4.126,4.056,4.056,0,0,0-.476-2.063,3.223,3.223,0,0,0-1.233-1.233,3.265,3.265,0,0,0-1.587-.415,3.04,3.04,0,0,0-2.649,1.551,3.732,3.732,0,0,0-.452,1.916,9.381,9.381,0,0,0,1.343,4.37,11.946,11.946,0,0,1,1.587,5.347,6.23,6.23,0,0,1-.806,3.222,7.183,7.183,0,0,1-2.1,2.271,9.457,9.457,0,0,1-2.832,1.343,10.828,10.828,0,0,1-2.979.439,8.7,8.7,0,0,1-5.408-1.672,5.129,5.129,0,0,1-2.209-4.261,9.3,9.3,0,0,1,.525-2.99,24.676,24.676,0,0,1,1.355-3.2q.829-1.648,1.758-3.333,1.024-1.806,1.928-3.625a27.855,27.855,0,0,0,1.5-3.626,11.241,11.241,0,0,0,.6-3.54,7.962,7.962,0,0,0-.318-2.222,4.643,4.643,0,0,1-.2-1.269,3.666,3.666,0,0,1,1.367-2.917,8.891,8.891,0,0,1,3.516-1.734,17.961,17.961,0,0,1,9.009,0,8.893,8.893,0,0,1,3.515,1.734,3.664,3.664,0,0,1,1.368,2.917,4.647,4.647,0,0,1-.2,1.269,7.706,7.706,0,0,0-.317,2.2,10.828,10.828,0,0,0,.622,3.541,27.094,27.094,0,0,0,1.563,3.625q.939,1.82,1.965,3.625.977,1.71,1.831,3.345a24.407,24.407,0,0,1,1.4,3.2,9.051,9.051,0,0,1,.549,3,5.129,5.129,0,0,1-2.209,4.261A8.7,8.7,0,0,1,388.552,538.333Zm-9.009-23.315a2.439,2.439,0,0,0,1.307-.354,1.234,1.234,0,0,0,.573-1.136,2.759,2.759,0,0,0-.219-.976q-.879-1.928-1.831-1.929-1.051,0-1.954,2.3a1.713,1.713,0,0,0-.1.537,1.278,1.278,0,0,0,.708,1.148A2.937,2.937,0,0,0,379.543,515.018Z" fill="#f58b2f"/>
    <path id="패스_1647" data-name="패스 1647" d="M409.182,538.406a11.385,11.385,0,0,1-5.591-1.294,11.2,11.2,0,0,1-3.869-3.515,15.863,15.863,0,0,1-2.259-5.041,23.276,23.276,0,0,1-.732-5.872,26.976,26.976,0,0,1,.915-6.958,22.994,22.994,0,0,1,2.649-6.238A14.8,14.8,0,0,1,404.507,505a9.727,9.727,0,0,1,5.627-1.7,10.278,10.278,0,0,1,6.3,2.014,6.53,6.53,0,0,1,2.832,5.188,3.476,3.476,0,0,1-.744,2.246,4.938,4.938,0,0,1-1.868,1.429,5.421,5.421,0,0,1-2.222.5,3.66,3.66,0,0,1-1.782-.44,2.463,2.463,0,0,1-1.148-1.367l-.146-.708a16.191,16.191,0,0,0-.33-1.647,5.8,5.8,0,0,0-.683-1.673,1.407,1.407,0,0,0-1.258-.733q-1.05,0-1.7,1.612a9.748,9.748,0,0,0-.647,3.662,10.89,10.89,0,0,0,.439,3.1,5.6,5.6,0,0,0,1.38,2.43,3.48,3.48,0,0,0,2.453.988,6.265,6.265,0,0,0,3.662-1.049,4.521,4.521,0,0,1,2.466-.9,3.389,3.389,0,0,1,2.625,1.27,8.778,8.778,0,0,1,1.721,3.308,15.989,15.989,0,0,1,.635,4.431,10.518,10.518,0,0,1-1.111,4.92,10.879,10.879,0,0,1-2.967,3.589,13.315,13.315,0,0,1-4.162,2.2A15.224,15.224,0,0,1,409.182,538.406Z" fill="#f58b2f"/>
    <path id="패스_1648" data-name="패스 1648" d="M448.44,538.333a6.956,6.956,0,0,1-3.528-.964,7.67,7.67,0,0,1-2.722-2.661,7.249,7.249,0,0,1-1.049-3.9A9.933,9.933,0,0,1,442.483,526q.513-.9,1.026-2.051a13.9,13.9,0,0,0,1.172-5.566,2.3,2.3,0,0,0-.648-1.685,4.03,4.03,0,0,0-1.647-.988,6.748,6.748,0,0,0-2.124-.33,7.738,7.738,0,0,0-2.2.317,4.548,4.548,0,0,0-1.77.941,1.967,1.967,0,0,0-.7,1.525,11.944,11.944,0,0,0,.4,3.113,17.655,17.655,0,0,0,.977,2.759,22.268,22.268,0,0,0,1.111,2.16,10.712,10.712,0,0,1,1.611,5.225,6.674,6.674,0,0,1-.965,3.6,6.97,6.97,0,0,1-2.514,2.429,6.7,6.7,0,0,1-3.357.879,10.524,10.524,0,0,1-4.993-1.062,7.241,7.241,0,0,1-2.966-2.758,7.108,7.108,0,0,1-.976-3.6q0-2.172,2.124-7.641.927-2.492,1.66-4.908a16.208,16.208,0,0,0,.732-4.712,9.285,9.285,0,0,0-1.391-5.029,4.478,4.478,0,0,1-.782-2.2,2.177,2.177,0,0,1,.793-1.745,5.04,5.04,0,0,1,2.051-.99,11.009,11.009,0,0,1,5.3.013,5.481,5.481,0,0,1,2.1.988,2.049,2.049,0,0,1,.818,1.661,3.52,3.52,0,0,1-.732,1.9,2.725,2.725,0,0,0-.562,1.465,1.592,1.592,0,0,0,.61,1.269,4.017,4.017,0,0,0,1.563.77,7.57,7.57,0,0,0,1.977.256,6.43,6.43,0,0,0,2.662-.537,1.714,1.714,0,0,0,1.2-1.587,2.907,2.907,0,0,0-.684-1.636,3.521,3.521,0,0,1-.83-2,1.978,1.978,0,0,1,.806-1.6,5.344,5.344,0,0,1,2.062-.965,10.661,10.661,0,0,1,2.6-.317,10.835,10.835,0,0,1,2.686.33,5.284,5.284,0,0,1,2.111,1.013,2.239,2.239,0,0,1,.818,1.806,4.38,4.38,0,0,1-.683,2.1,9.386,9.386,0,0,0-1.172,4.517,15.4,15.4,0,0,0,.866,4.968q.867,2.553,1.966,5.164,2.465,5.762,2.466,7.983a6.791,6.791,0,0,1-.928,3.442,6.876,6.876,0,0,1-2.845,2.625A10.3,10.3,0,0,1,448.44,538.333Z" fill="#f58b2f"/>
    <path id="패스_1649" data-name="패스 1649" d="M472.122,538.235a21.3,21.3,0,0,1-4.847-.548,16.64,16.64,0,0,1-4.211-1.563,9.1,9.1,0,0,1-2.954-2.466,5.238,5.238,0,0,1-1.1-3.235,15.393,15.393,0,0,1,.524-3.955q.525-1.979,1.2-3.955t1.185-3.918a15,15,0,0,0,.513-3.846,9.391,9.391,0,0,0-1.368-4.98,5.906,5.906,0,0,1-1-2.857q0-2.245,3.027-3.052a28.8,28.8,0,0,1,6.714-.586q2.22,0,4.468.049,2.124.074,3.955.073a1.906,1.906,0,0,1,1.33.477,2.9,2.9,0,0,1,.781,1.2,4.378,4.378,0,0,1,.257,1.477,3.421,3.421,0,0,1-.44,1.77,1.454,1.454,0,0,1-1.342.745,10.313,10.313,0,0,1-1.685-.245,26.868,26.868,0,0,0-4.565-.537,4.61,4.61,0,0,0-2,.367,2.585,2.585,0,0,0-1.1.9,1.944,1.944,0,0,0-.342,1.05,1.614,1.614,0,0,0,.513,1.172,1.85,1.85,0,0,0,1.367.512,7.041,7.041,0,0,0,1.745-.207q.818-.207,1.5-.452a4.582,4.582,0,0,1,1.563-.366,1.49,1.49,0,0,1,1.342.879,3.762,3.762,0,0,1,.489,1.855,2.588,2.588,0,0,1-.355,1.367,1.181,1.181,0,0,1-1.086.586,6.6,6.6,0,0,1-1.062-.109q-.648-.109-1.538-.208a19.731,19.731,0,0,0-2.112-.1,1.705,1.705,0,0,0-1.416.611,2.036,2.036,0,0,0-.488,1.294,2.257,2.257,0,0,0,.366,1.184,2.822,2.822,0,0,0,1.123,1,4.019,4.019,0,0,0,1.9.4h1.294a12.441,12.441,0,0,0,4.638-.683,8.5,8.5,0,0,1,3.54-.928,3.2,3.2,0,0,1,2.014.672,4.358,4.358,0,0,1,1.343,2.282,16.13,16.13,0,0,1,.476,4.4,12.348,12.348,0,0,1-1.22,5.713,10.9,10.9,0,0,1-3.248,3.857,13.968,13.968,0,0,1-4.553,2.2A18.925,18.925,0,0,1,472.122,538.235Z" fill="#f58b2f"/>
    <path id="패스_1650" data-name="패스 1650" d="M501.15,538.235a21.28,21.28,0,0,1-4.846-.548,16.613,16.613,0,0,1-4.211-1.563,9.077,9.077,0,0,1-2.954-2.466,5.233,5.233,0,0,1-1.1-3.235,15.393,15.393,0,0,1,.524-3.955q.525-1.979,1.2-3.955t1.184-3.918a15,15,0,0,0,.513-3.846,9.4,9.4,0,0,0-1.367-4.98,5.9,5.9,0,0,1-1-2.857q0-2.245,3.027-3.052a28.8,28.8,0,0,1,6.714-.586q2.222,0,4.468.049,2.124.074,3.955.073a1.906,1.906,0,0,1,1.33.477,2.89,2.89,0,0,1,.781,1.2,4.377,4.377,0,0,1,.257,1.477,3.42,3.42,0,0,1-.439,1.77,1.456,1.456,0,0,1-1.343.745,10.328,10.328,0,0,1-1.685-.245,26.856,26.856,0,0,0-4.565-.537,4.616,4.616,0,0,0-2,.367,2.591,2.591,0,0,0-1.1.9,1.952,1.952,0,0,0-.342,1.05,1.614,1.614,0,0,0,.513,1.172,1.85,1.85,0,0,0,1.367.512,7.03,7.03,0,0,0,1.745-.207q.817-.207,1.5-.452a4.587,4.587,0,0,1,1.563-.366,1.491,1.491,0,0,1,1.343.879,3.771,3.771,0,0,1,.488,1.855,2.578,2.578,0,0,1-.355,1.367,1.179,1.179,0,0,1-1.085.586,6.614,6.614,0,0,1-1.063-.109q-.648-.109-1.538-.208a19.725,19.725,0,0,0-2.111-.1,1.7,1.7,0,0,0-1.416.611,2.031,2.031,0,0,0-.489,1.294,2.25,2.25,0,0,0,.367,1.184,2.822,2.822,0,0,0,1.123,1,4.012,4.012,0,0,0,1.9.4H503.3a12.434,12.434,0,0,0,4.638-.683,8.5,8.5,0,0,1,3.541-.928,3.2,3.2,0,0,1,2.013.672,4.352,4.352,0,0,1,1.343,2.282,16.123,16.123,0,0,1,.477,4.4,12.348,12.348,0,0,1-1.221,5.713,10.907,10.907,0,0,1-3.247,3.857,13.973,13.973,0,0,1-4.554,2.2A18.919,18.919,0,0,1,501.15,538.235Z" fill="#f58b2f"/>
    <path id="패스_1651" data-name="패스 1651" d="M530.838,538.7a19.322,19.322,0,0,1-5.1-.671,13.479,13.479,0,0,1-4.407-2.075,10.284,10.284,0,0,1-3.088-3.564,10.873,10.873,0,0,1-1.147-5.164,11.318,11.318,0,0,1,.6-3.711,7.506,7.506,0,0,1,1.636-2.808,3.174,3.174,0,0,1,2.332-1.074,3.854,3.854,0,0,1,2.246.854,8.909,8.909,0,0,0,5.152,1.929,3.594,3.594,0,0,0,1.891-.439,1.248,1.248,0,0,0,.721-1.05q0-.708-1.185-1.5a11.317,11.317,0,0,0-3.918-1.331,17.413,17.413,0,0,1-3.7-1.086,9.572,9.572,0,0,1-3.332-2.246,5.4,5.4,0,0,1-1.465-3.7,5.286,5.286,0,0,1,1.135-3.37,8.837,8.837,0,0,1,3.027-2.392,16.813,16.813,0,0,1,4.248-1.428,24.2,24.2,0,0,1,4.8-.477,22.366,22.366,0,0,1,6.042.782,10.81,10.81,0,0,1,4.493,2.343,5.259,5.259,0,0,1,1.746,3.907,3.271,3.271,0,0,1-.611,2.014,3.973,3.973,0,0,1-1.538,1.246,4.506,4.506,0,0,1-1.9.426,3.559,3.559,0,0,1-1.819-.488,2.624,2.624,0,0,1-1.184-1.465,4.915,4.915,0,0,0-1.844-2.612,4.5,4.5,0,0,0-2.453-.757,4.863,4.863,0,0,0-2.674.757,2.079,2.079,0,0,0-1.183,1.66,1.6,1.6,0,0,0,.866,1.27,7.336,7.336,0,0,0,2.918.878,21.25,21.25,0,0,1,8.093,2.577,12.2,12.2,0,0,1,4.614,4.65,12.389,12.389,0,0,1,1.477,5.933,10.162,10.162,0,0,1-1.355,5.286,11.966,11.966,0,0,1-3.589,3.808,16.993,16.993,0,0,1-4.98,2.307A20.244,20.244,0,0,1,530.838,538.7Z" fill="#f58b2f"/>
    <path id="패스_1652" data-name="패스 1652" d="M561.429,538.235a21.289,21.289,0,0,1-4.847-.548,16.627,16.627,0,0,1-4.211-1.563,9.088,9.088,0,0,1-2.954-2.466,5.239,5.239,0,0,1-1.1-3.235,15.349,15.349,0,0,1,.525-3.955q.523-1.979,1.2-3.955t1.185-3.918a15.045,15.045,0,0,0,.512-3.846,9.4,9.4,0,0,0-1.367-4.98,5.9,5.9,0,0,1-1-2.857q0-2.245,3.028-3.052a28.789,28.789,0,0,1,6.713-.586q2.222,0,4.468.049,2.124.074,3.955.073a1.9,1.9,0,0,1,1.33.477,2.891,2.891,0,0,1,.782,1.2,4.4,4.4,0,0,1,.256,1.477,3.42,3.42,0,0,1-.439,1.77,1.455,1.455,0,0,1-1.343.745,10.321,10.321,0,0,1-1.684-.245,26.867,26.867,0,0,0-4.566-.537,4.616,4.616,0,0,0-2,.367,2.582,2.582,0,0,0-1.1.9,1.944,1.944,0,0,0-.342,1.05,1.617,1.617,0,0,0,.512,1.172,1.851,1.851,0,0,0,1.368.512,7.042,7.042,0,0,0,1.745-.207q.817-.207,1.5-.452a4.577,4.577,0,0,1,1.562-.366,1.49,1.49,0,0,1,1.343.879,3.771,3.771,0,0,1,.488,1.855,2.587,2.587,0,0,1-.354,1.367,1.182,1.182,0,0,1-1.086.586,6.625,6.625,0,0,1-1.063-.109q-.646-.109-1.538-.208a19.712,19.712,0,0,0-2.111-.1,1.705,1.705,0,0,0-1.416.611,2.036,2.036,0,0,0-.488,1.294,2.257,2.257,0,0,0,.366,1.184,2.822,2.822,0,0,0,1.123,1,4.017,4.017,0,0,0,1.9.4h1.294a12.443,12.443,0,0,0,4.639-.683,8.495,8.495,0,0,1,3.54-.928,3.2,3.2,0,0,1,2.014.672,4.351,4.351,0,0,1,1.342,2.282,16.085,16.085,0,0,1,.477,4.4,12.335,12.335,0,0,1-1.221,5.713,10.886,10.886,0,0,1-3.247,3.857,13.963,13.963,0,0,1-4.554,2.2A18.913,18.913,0,0,1,561.429,538.235Z" fill="#f58b2f"/>
  </g>
</svg>
