<svg xmlns="http://www.w3.org/2000/svg" width="259.326" height="35.449" viewBox="0 0 259.326 35.449">
  <g id="그룹_858" data-name="그룹 858" transform="translate(-33.497 -361.25)">
    <path id="패스_1613" data-name="패스 1613" d="M46.68,396.7a20.479,20.479,0,0,1-6.372-.976,11.18,11.18,0,0,1-4.858-2.979,7.635,7.635,0,0,1-1.953-5.42,11.425,11.425,0,0,1,.634-3.662q.635-1.879,1.465-3.833.9-2.051,1.612-4.175a13.391,13.391,0,0,0,.708-4.248,9.049,9.049,0,0,0-1.075-4.345,3.974,3.974,0,0,1-.488-1.734,2.656,2.656,0,0,1,1.27-2.27,9.045,9.045,0,0,1,3.32-1.306,21.387,21.387,0,0,1,4.37-.428,25.665,25.665,0,0,1,5.408.55,12.3,12.3,0,0,1,4.138,1.587,3.126,3.126,0,0,1,1.636,2.526q0,2.052-3.3,3.833-.587.318-.891.513T52,370.7q0,.366,1.465.879a15.231,15.231,0,0,1,7.154,5.2,14.353,14.353,0,0,1,2.71,8.594,8.3,8.3,0,0,1-1.465,4.847,12.3,12.3,0,0,1-3.882,3.552,19.943,19.943,0,0,1-5.371,2.185A24.211,24.211,0,0,1,46.68,396.7Zm-.757-26.636a2.32,2.32,0,0,0,.977-.268,11.611,11.611,0,0,0,2.832-1.892,2.377,2.377,0,0,0,.854-1.453q0-.953-1.684-1.025a6.1,6.1,0,0,0-1.734.293,3.169,3.169,0,0,0-1.721,1.294,3.24,3.24,0,0,0-.573,1.733,1.639,1.639,0,0,0,.256.941A.891.891,0,0,0,45.923,370.063Zm4.761,8.252a3.984,3.984,0,0,0,1.819-.3.888.888,0,0,0,.549-.77,2.147,2.147,0,0,0-.976-1.489,9.282,9.282,0,0,0-2.417-1.392,7.5,7.5,0,0,0-2.832-.586,2.018,2.018,0,0,0-1.416.415,1.331,1.331,0,0,0-.44,1,2.569,2.569,0,0,0,.757,1.685Q47,378.316,50.684,378.315Z" fill="#f58b2f"/>
    <path id="패스_1614" data-name="패스 1614" d="M90.552,396.333a10.1,10.1,0,0,1-2.978-.464,9.245,9.245,0,0,1-2.783-1.391,7.193,7.193,0,0,1-2.051-2.32,6.522,6.522,0,0,1-.782-3.247,11.907,11.907,0,0,1,1.465-5.2,9.8,9.8,0,0,0,1.2-4.126,4.055,4.055,0,0,0-.476-2.063,3.222,3.222,0,0,0-1.233-1.233,3.265,3.265,0,0,0-1.587-.415,3.04,3.04,0,0,0-2.649,1.551,3.732,3.732,0,0,0-.452,1.916,9.381,9.381,0,0,0,1.343,4.37,11.945,11.945,0,0,1,1.587,5.347,6.23,6.23,0,0,1-.806,3.222,7.183,7.183,0,0,1-2.1,2.271,9.458,9.458,0,0,1-2.832,1.343,10.83,10.83,0,0,1-2.979.439,8.7,8.7,0,0,1-5.408-1.672A5.129,5.129,0,0,1,64.82,390.4a9.3,9.3,0,0,1,.525-2.99,24.677,24.677,0,0,1,1.355-3.2q.83-1.648,1.758-3.333,1.024-1.806,1.928-3.625a27.86,27.86,0,0,0,1.5-3.626,11.241,11.241,0,0,0,.6-3.54,7.962,7.962,0,0,0-.318-2.222,4.643,4.643,0,0,1-.195-1.269,3.666,3.666,0,0,1,1.367-2.917,8.891,8.891,0,0,1,3.516-1.734,17.961,17.961,0,0,1,9.009,0,8.893,8.893,0,0,1,3.515,1.734,3.664,3.664,0,0,1,1.368,2.917,4.647,4.647,0,0,1-.2,1.269,7.706,7.706,0,0,0-.317,2.2,10.828,10.828,0,0,0,.622,3.541,27.1,27.1,0,0,0,1.563,3.625q.939,1.819,1.965,3.625.977,1.71,1.831,3.345a24.406,24.406,0,0,1,1.4,3.2,9.05,9.05,0,0,1,.549,3,5.129,5.129,0,0,1-2.209,4.261A8.7,8.7,0,0,1,90.552,396.333Zm-9.009-23.315a2.439,2.439,0,0,0,1.307-.354,1.234,1.234,0,0,0,.573-1.136,2.759,2.759,0,0,0-.219-.976q-.879-1.928-1.831-1.929-1.052,0-1.954,2.3a1.713,1.713,0,0,0-.1.537,1.278,1.278,0,0,0,.708,1.148A2.936,2.936,0,0,0,81.543,373.018Z" fill="#f58b2f"/>
    <path id="패스_1615" data-name="패스 1615" d="M113.526,396.7a19.321,19.321,0,0,1-5.1-.671,13.474,13.474,0,0,1-4.406-2.075,10.287,10.287,0,0,1-3.089-3.564,10.873,10.873,0,0,1-1.147-5.164,11.292,11.292,0,0,1,.6-3.711,7.48,7.48,0,0,1,1.636-2.808,3.171,3.171,0,0,1,2.331-1.074,3.854,3.854,0,0,1,2.246.854,8.911,8.911,0,0,0,5.152,1.929,3.6,3.6,0,0,0,1.892-.439,1.249,1.249,0,0,0,.72-1.05q0-.708-1.184-1.5a11.331,11.331,0,0,0-3.919-1.331,17.407,17.407,0,0,1-3.7-1.086,9.575,9.575,0,0,1-3.333-2.246,5.4,5.4,0,0,1-1.465-3.7,5.287,5.287,0,0,1,1.136-3.37,8.819,8.819,0,0,1,3.027-2.392,16.787,16.787,0,0,1,4.248-1.428,24.179,24.179,0,0,1,4.8-.477,22.373,22.373,0,0,1,6.043.782,10.813,10.813,0,0,1,4.492,2.343,5.252,5.252,0,0,1,1.746,3.907,3.27,3.27,0,0,1-.611,2.014,3.972,3.972,0,0,1-1.538,1.246,4.5,4.5,0,0,1-1.9.426,3.562,3.562,0,0,1-1.819-.488,2.624,2.624,0,0,1-1.184-1.465,4.914,4.914,0,0,0-1.843-2.612,4.5,4.5,0,0,0-2.454-.757,4.86,4.86,0,0,0-2.673.757,2.079,2.079,0,0,0-1.184,1.66,1.6,1.6,0,0,0,.866,1.27,7.336,7.336,0,0,0,2.918.878,21.251,21.251,0,0,1,8.093,2.577,12.2,12.2,0,0,1,4.614,4.65A12.378,12.378,0,0,1,129,384.517a10.153,10.153,0,0,1-1.355,5.286,11.962,11.962,0,0,1-3.588,3.808,17.009,17.009,0,0,1-4.981,2.307A20.243,20.243,0,0,1,113.526,396.7Z" fill="#f58b2f"/>
    <path id="패스_1616" data-name="패스 1616" d="M155.3,396.333a6.949,6.949,0,0,1-3.527-.964,7.664,7.664,0,0,1-2.723-2.661,7.249,7.249,0,0,1-1.049-3.9A9.933,9.933,0,0,1,149.341,384q.513-.9,1.026-2.051a13.9,13.9,0,0,0,1.172-5.566,2.307,2.307,0,0,0-.647-1.685,4.04,4.04,0,0,0-1.648-.988,6.747,6.747,0,0,0-2.124-.33,7.738,7.738,0,0,0-2.2.317,4.548,4.548,0,0,0-1.77.941,1.967,1.967,0,0,0-.695,1.525,11.987,11.987,0,0,0,.4,3.113,17.658,17.658,0,0,0,.977,2.759,22.272,22.272,0,0,0,1.111,2.16,10.712,10.712,0,0,1,1.611,5.225,6.682,6.682,0,0,1-.964,3.6,6.981,6.981,0,0,1-2.515,2.429,6.7,6.7,0,0,1-3.357.879,10.527,10.527,0,0,1-4.993-1.062,7.241,7.241,0,0,1-2.966-2.758,7.108,7.108,0,0,1-.976-3.6q0-2.172,2.124-7.641.927-2.491,1.66-4.908a16.207,16.207,0,0,0,.732-4.712,9.285,9.285,0,0,0-1.391-5.029,4.488,4.488,0,0,1-.782-2.2,2.177,2.177,0,0,1,.794-1.745,5.027,5.027,0,0,1,2.051-.99,11,11,0,0,1,5.3.013,5.481,5.481,0,0,1,2.1.988,2.049,2.049,0,0,1,.818,1.661,3.52,3.52,0,0,1-.732,1.9,2.725,2.725,0,0,0-.562,1.465,1.592,1.592,0,0,0,.61,1.269,4.017,4.017,0,0,0,1.563.77,7.57,7.57,0,0,0,1.977.256,6.43,6.43,0,0,0,2.662-.537,1.713,1.713,0,0,0,1.2-1.587,2.9,2.9,0,0,0-.684-1.636,3.521,3.521,0,0,1-.83-2,1.978,1.978,0,0,1,.806-1.6,5.341,5.341,0,0,1,2.063-.965,10.653,10.653,0,0,1,2.6-.317,10.815,10.815,0,0,1,2.685.33,5.282,5.282,0,0,1,2.112,1.013,2.239,2.239,0,0,1,.818,1.806,4.38,4.38,0,0,1-.683,2.1,9.386,9.386,0,0,0-1.172,4.517,15.394,15.394,0,0,0,.866,4.968q.867,2.553,1.966,5.164,2.464,5.762,2.466,7.983a6.791,6.791,0,0,1-.928,3.442,6.873,6.873,0,0,1-2.844,2.625A10.307,10.307,0,0,1,155.3,396.333Z" fill="#f58b2f"/>
    <path id="패스_1617" data-name="패스 1617" d="M174.756,396.333a10.583,10.583,0,0,1-5.066-1.086,7.458,7.458,0,0,1-3.015-2.82,7.215,7.215,0,0,1-1-3.662,7.6,7.6,0,0,1,.2-1.709,53.361,53.361,0,0,1,1.782-5.786q.854-2.393,1.526-4.761a16.891,16.891,0,0,0,.671-4.614,10.794,10.794,0,0,0-.342-2.7,9.059,9.059,0,0,0-1.147-2.6,4.323,4.323,0,0,1-.806-2.222,2.168,2.168,0,0,1,.781-1.721,4.809,4.809,0,0,1,2.015-.976,10.8,10.8,0,0,1,2.6-.306,9.713,9.713,0,0,1,3.955.806,21.263,21.263,0,0,1,5.884-.928,13.142,13.142,0,0,1,5.981,1.258,9.958,9.958,0,0,1,3.809,3.161,6.786,6.786,0,0,1,1.318,3.906,5.394,5.394,0,0,1-.7,2.65,5.967,5.967,0,0,1-2.16,2.16,28.476,28.476,0,0,0-2.454,1.648q-.794.623-.794,1.037c0,.212.155.408.464.586a7.391,7.391,0,0,0,1.368.562,11.869,11.869,0,0,1,5.81,5.176,14.546,14.546,0,0,1,2.393,7.666,4.492,4.492,0,0,1-1,3.04,5.614,5.614,0,0,1-2.6,1.671,13.147,13.147,0,0,1-9.339-.781,3.917,3.917,0,0,1-2-3.418l.025-3.784a28.887,28.887,0,0,0-.318-4.419,6.676,6.676,0,0,0-1.623-3.356,3.211,3.211,0,0,0-2.063-1.234.856.856,0,0,0-.647.269,1.206,1.206,0,0,0-.257.854q0,1.392,1.758,4.3a10.288,10.288,0,0,1,1.709,5.371,6.563,6.563,0,0,1-.94,3.54,6.737,6.737,0,0,1-2.466,2.369A6.654,6.654,0,0,1,174.756,396.333Zm3.687-25.293a8.9,8.9,0,0,0,1.782-.22,8.066,8.066,0,0,0,3.308-1.391,2.316,2.316,0,0,0,1.013-1.66,1.6,1.6,0,0,0-.781-1.331,3.636,3.636,0,0,0-2.124-.549,7.273,7.273,0,0,0-1.269.122,6.008,6.008,0,0,0-2.93,1.513,3.075,3.075,0,0,0-1.123,2.1,1.249,1.249,0,0,0,.5,1.014A2.6,2.6,0,0,0,178.443,371.04Z" fill="#f58b2f"/>
    <path id="패스_1618" data-name="패스 1618" d="M212.574,396.333a13.624,13.624,0,0,1-5.091-.988,13.277,13.277,0,0,1-4.467-2.967,14.331,14.331,0,0,1-3.174-4.956,18.749,18.749,0,0,1-1.184-6.958,27.1,27.1,0,0,1,1.172-8.4,17.942,17.942,0,0,1,3.137-5.957,13.177,13.177,0,0,1,4.431-3.551,11.61,11.61,0,0,1,5.078-1.185,11.744,11.744,0,0,1,5.164,1.209,13.6,13.6,0,0,1,4.492,3.576,17.756,17.756,0,0,1,3.161,5.908,26.185,26.185,0,0,1,1.172,8.228,19.426,19.426,0,0,1-1.2,7.153,14.318,14.318,0,0,1-3.2,5,12.942,12.942,0,0,1-4.48,2.93A13.889,13.889,0,0,1,212.574,396.333Zm.122-17.48a2.23,2.23,0,0,0,1.513-.635,4.658,4.658,0,0,0,1.172-1.88,8.878,8.878,0,0,0,.464-3.076,17.516,17.516,0,0,0-.476-4.444,7.124,7.124,0,0,0-1.221-2.685,2.064,2.064,0,0,0-1.55-.9,1.938,1.938,0,0,0-1.452.831,6.354,6.354,0,0,0-1.124,2.5,17.367,17.367,0,0,0-.427,4.21,9.1,9.1,0,0,0,.9,4.566A2.585,2.585,0,0,0,212.7,378.853Z" fill="#f58b2f"/>
    <path id="패스_1619" data-name="패스 1619" d="M242.9,396.333a13.619,13.619,0,0,1-5.09-.988,13.272,13.272,0,0,1-4.468-2.967,14.331,14.331,0,0,1-3.174-4.956,18.77,18.77,0,0,1-1.184-6.958,27.126,27.126,0,0,1,1.172-8.4,17.961,17.961,0,0,1,3.137-5.957,13.177,13.177,0,0,1,4.431-3.551,11.613,11.613,0,0,1,5.078-1.185,11.744,11.744,0,0,1,5.164,1.209,13.6,13.6,0,0,1,4.492,3.576,17.775,17.775,0,0,1,3.162,5.908,26.214,26.214,0,0,1,1.172,8.228,19.4,19.4,0,0,1-1.2,7.153,14.3,14.3,0,0,1-3.2,5,12.942,12.942,0,0,1-4.48,2.93A13.885,13.885,0,0,1,242.9,396.333Zm.122-17.48a2.233,2.233,0,0,0,1.514-.635,4.679,4.679,0,0,0,1.172-1.88,8.88,8.88,0,0,0,.463-3.076,17.515,17.515,0,0,0-.476-4.444,7.14,7.14,0,0,0-1.22-2.685,2.066,2.066,0,0,0-1.551-.9,1.941,1.941,0,0,0-1.452.831,6.34,6.34,0,0,0-1.123,2.5,17.361,17.361,0,0,0-.428,4.21,9.1,9.1,0,0,0,.9,4.566A2.585,2.585,0,0,0,243.018,378.853Z" fill="#f58b2f"/>
    <path id="패스_1620" data-name="패스 1620" d="M283.887,396.333a6.713,6.713,0,0,1-3.345-.879,6.933,6.933,0,0,1-2.526-2.429,6.674,6.674,0,0,1-.965-3.6,10.7,10.7,0,0,1,1.612-5.225,21.076,21.076,0,0,0,1.989-5.09,23.785,23.785,0,0,0,.867-6.262q0-1.269-.513-1.392-.269,0-.744.659a7.023,7.023,0,0,0-.855,1.685,6.088,6.088,0,0,0-.378,2.124,5.273,5.273,0,0,0,.366,1.9,3.082,3.082,0,0,1,.269,1.2,2.06,2.06,0,0,1-.586,1.5,3.688,3.688,0,0,1-1.514.9,6.386,6.386,0,0,1-3.894,0,3.676,3.676,0,0,1-1.526-.9,2.056,2.056,0,0,1-.586-1.5,3.065,3.065,0,0,1,.269-1.2,5.082,5.082,0,0,0,.366-1.88,6.092,6.092,0,0,0-.391-2.16,6.971,6.971,0,0,0-.879-1.7q-.488-.66-.732-.659-.465,0-.464,1.66v.854a18.744,18.744,0,0,0,.891,5.726,21.383,21.383,0,0,0,1.941,4.528,10.712,10.712,0,0,1,1.611,5.225,6.674,6.674,0,0,1-.964,3.6,6.973,6.973,0,0,1-2.515,2.429,6.69,6.69,0,0,1-3.357.879,10.522,10.522,0,0,1-4.992-1.062,7.238,7.238,0,0,1-2.967-2.758,7.108,7.108,0,0,1-.976-3.6,8,8,0,0,1,.22-1.855,58.139,58.139,0,0,1,1.9-5.86q.952-2.465,1.672-4.87a16.268,16.268,0,0,0,.721-4.676,10.1,10.1,0,0,0-.33-2.575,9.671,9.671,0,0,0-1.074-2.5,4.372,4.372,0,0,1-.745-2.148,2.174,2.174,0,0,1,.794-1.745,5.02,5.02,0,0,1,2.038-.99,10.613,10.613,0,0,1,2.612-.317,9.511,9.511,0,0,1,2.893.488,5.378,5.378,0,0,1,2.576,1.783l.488.634q1.221,1.637,1.978,2.466a2.057,2.057,0,0,0,1.416.83,2.37,2.37,0,0,0,1.587-.964q.879-.963,2.393-2.966a5.371,5.371,0,0,1,2.587-1.783,9.568,9.568,0,0,1,2.881-.488,10.627,10.627,0,0,1,2.613.317,5.038,5.038,0,0,1,2.039.99,2.18,2.18,0,0,1,.793,1.745,4.372,4.372,0,0,1-.745,2.148,9.561,9.561,0,0,0-1.074,2.515,10.154,10.154,0,0,0-.33,2.563,16.232,16.232,0,0,0,.721,4.676q.719,2.406,1.672,4.87a58.653,58.653,0,0,1,1.9,5.86,7.7,7.7,0,0,1,.22,1.831,7.134,7.134,0,0,1-3.931,6.384A10.509,10.509,0,0,1,283.887,396.333Z" fill="#f58b2f"/>
  </g>
</svg>
