<svg xmlns="http://www.w3.org/2000/svg" xmlns:xlink="http://www.w3.org/1999/xlink" width="817.463" height="773.15" viewBox="0 0 817.463 773.15">
  <defs>
    <clipPath id="clip-path">
      <rect id="사각형_590" data-name="사각형 590" width="817.463" height="773.15" fill="none"/>
    </clipPath>
  </defs>
  <g id="그룹_718" data-name="그룹 718" transform="translate(0 -0.004)">
    <g id="그룹_717" data-name="그룹 717" transform="translate(0 0.004)" clip-path="url(#clip-path)">
      <path id="패스_947" data-name="패스 947" d="M16.2,661.9a62.01,62.01,0,0,1,52.514-31.09c26.17-.789,52.614,12.854,67.458,34.85,14.539,21.547,14.462,44.672,13.247,64.662-.26,4.281-.616,8.578-.978,12.886-1.088,12.985-2.115,25.247.008,36.007,2.47,12.524,12.955,23.4,26.708,27.713a42.831,42.831,0,0,0,17.644,1.446c-5.181-35.561-7.31-69.244-7.087-93.258-.248-25.5,2.337-51.143,6.271-75.064-35.459-26.722-137.6-109.263-109.955-154.09,28.034-37.306,69.61,17.726,140.029,40.2,1.281-3.458,2.027-5.32,2.027-5.32,130.217-37.982,259.148-73.883,320.341,0,0,0,1.07,2.488,2.849,7.054.514-.165,1.034-.328,1.566-.486,72.883-21.594,115.512-79.465,144.081-41.45,29.065,47.133-85.347,135.959-114.871,157.757a389.681,389.681,0,0,1,4.367,57.355l0,.007c4.325,70.293-19.969,287.866-105.449,287.866-26.385,0-34.5-66.23-36.915-99.732-22.582,5.1-48.494,7.893-78.165,7.889a285.024,285.024,0,0,1-33.761-2.63c-2.867,34.7-11.444,94.472-36.508,94.472-45.718,0-73.931-62.235-89.627-130.888a103.759,103.759,0,0,1-15.041,1.128,89.329,89.329,0,0,1-26.9-4.056c-31.638-9.91-55.076-35.25-61.17-66.137-3.495-17.7-2.056-34.86-.787-50.005.329-3.919.66-7.827.9-11.724.932-15.331.46-25.7-4.7-33.343-5.04-7.471-15.46-13.045-23.994-12.618-6.216.192-8.814,3.223-10.535,6.155-2.061,3.509-1.411,8.677.5,10.618a25.258,25.258,0,0,1-35.963,35.475c-18.22-18.467-21.632-48.6-8.11-71.651" transform="translate(-3.629 -215.8)" fill="#eb8439"/>
      <path id="패스_948" data-name="패스 948" d="M724.758,794.836a134.018,134.018,0,1,1-268.036,0c0-74.016-4.965-134.018,134.018-134.018s134.018,60,134.018,134.018" transform="translate(-208.214 -301.276)" fill="#fff"/>
      <path id="패스_949" data-name="패스 949" d="M1239.786,308.181a26.71,26.71,0,0,1,5.592-.585,28.3,28.3,0,0,1,10.673,2.051c6.154,2.535,10.991,7.389,14.547,13.168a66.279,66.279,0,0,1,7.457,18.7,109.134,109.134,0,0,1,2.734,16.353c.139,1.5.251,3.014.323,4.532a6.322,6.322,0,0,1,.058,1.675,102.668,102.668,0,0,1,33.119-20.317c9.1-3.316,18.89-4.708,27.585-1.738,25.456,8.695,32.208,46.615,15.871,71.317-8.548,12.924-22.21,23.968-35.371,30.561-25.089,12.567-51.119,18.757-69.1,21.768-14.423,2.414-27.588-5.093-32.905-18.758a242.214,242.214,0,0,1-13.691-50.9c-1.685-11.093-2.684-22.29-1.841-33.836.737-10.1,2.753-20.5,7.23-29.957,5.575-11.771,15.725-21.517,27.72-24.034" transform="translate(-549.157 -140.238)" fill="#e85300"/>
      <path id="패스_950" data-name="패스 950" d="M3.974,422.281a18.068,18.068,0,0,1,2.445-2.914,19.123,19.123,0,0,1,6.155-4.022,21.457,21.457,0,0,1,13.268-.437,44.848,44.848,0,0,1,12.42,5.587,73.806,73.806,0,0,1,9.02,6.668q1.162,1,2.288,2.052c.084.08.825.657.816.788a69.462,69.462,0,0,1,6.555-25.459c2.867-5.893,6.973-11.173,12.6-13.818,16.47-7.743,37.587,7.526,41.259,27.224,1.921,10.306.469,22.1-2.833,31.5-6.292,17.912-16.043,33.164-23.373,43.085a19.852,19.852,0,0,1-24.826,6.351,163.859,163.859,0,0,1-30.6-18.316,101.9,101.9,0,0,1-16.808-15.592A57.03,57.03,0,0,1,1.794,447.008c-2.824-8.348-2.471-17.862,2.18-24.727" transform="translate(0 -177.202)" fill="#e85300"/>
      <path id="패스_951" data-name="패스 951" d="M190.1,476.884s-23.115-8.819-26.863-.629,13.3,20.686,27.075,23.046-.212-22.417-.212-22.417" transform="translate(-74.18 -215.543)" fill="#eb8439"/>
      <path id="패스_952" data-name="패스 952" d="M1190.8,474.08s23.022-9.058,26.855-.907-13.083,20.822-26.835,23.325-.02-22.418-.02-22.418" transform="translate(-540.118 -214.175)" fill="#eb8439"/>
      <path id="패스_953" data-name="패스 953" d="M652.215,972.79c-8.834,4.387-13.672,14.048-8.765,22.721,2.511,4.439,8.069,6.448,13.251,7.2a149.882,149.882,0,0,0,31,.929c6.107-.43,12.627-1.613,16.789-5.635,5.535-5.341,4.825-14.379-.161-20.211-5.779-6.762-15.571-8.642-24.61-9.435-9.314-.826-19.259.332-27.5,4.433Zm32.842,5.517a2.814,2.814,0,0,1,3.5-3.45c2.561.481,5.674,4.231,6.527,7.484.473,1.8.25,3.454-1.144,4.309-4.191,2.565-8.326-5.841-8.886-8.344Zm-14.741-.525a2.81,2.81,0,0,1,3.494-3.45c2.57.48,5.675,4.231,6.528,7.484.473,1.8.25,3.454-1.144,4.309C675,988.69,670.876,980.284,670.316,977.782Zm-14.63.768a2.808,2.808,0,0,1,3.494-3.45c2.569.481,5.674,4.231,6.528,7.484.473,1.8.25,3.454-1.144,4.309-4.184,2.565-8.318-5.841-8.878-8.344Z" transform="translate(-292.463 -441.371)" fill="#eb8439"/>
      <path id="패스_954" data-name="패스 954" d="M718,153.005v0C793.875-83.027,565.636,24.395,565.636,24.395a243.91,243.91,0,0,0-111.462,0h0S225.932-83.028,301.808,153.005a179.341,179.341,0,0,0-11.218,62.332C290.59,324.343,388.109,330.4,509.9,330.4s219.314-6.059,219.314-115.065A179.342,179.342,0,0,0,718,153.005Z" transform="translate(-130.553 -0.004)" fill="#eb8439"/>
      <path id="패스_955" data-name="패스 955" d="M539.956,254.306c0,48.64-27.588,88.071-61.62,88.071s-61.62-39.431-61.62-88.071,27.588-88.071,61.62-88.071,61.62,39.431,61.62,88.071" transform="translate(-189.985 -75.79)" fill="#fbf7f1"/>
      <path id="패스_956" data-name="패스 956" d="M546.165,268.344c0,39.387-22.34,71.317-49.9,71.317s-49.9-31.93-49.9-71.317,22.34-71.317,49.9-71.317,49.9,31.93,49.9,71.317" transform="translate(-203.504 -89.829)" fill="#040506"/>
      <path id="패스_957" data-name="패스 957" d="M566.346,307.6H549.1a6.764,6.764,0,0,0-4.784,11.547l.6.6a1.981,1.981,0,0,1,.578,1.4v9.741a4.344,4.344,0,0,0,4.34,4.341h15.784a4.345,4.345,0,0,0,4.341-4.341v-9.741a1.979,1.979,0,0,1,.579-1.4l.6-.6a6.764,6.764,0,0,0-4.784-11.547" transform="translate(-247.255 -140.238)" fill="#fbf7f1"/>
      <path id="패스_958" data-name="패스 958" d="M874.46,254.306c0,48.64-27.588,88.071-61.62,88.071s-61.62-39.431-61.62-88.071,27.588-88.071,61.62-88.071,61.62,39.431,61.62,88.071" transform="translate(-342.489 -75.79)" fill="#fbf7f1"/>
      <path id="패스_959" data-name="패스 959" d="M864.451,268.344c0,39.387-22.34,71.317-49.9,71.317s-49.9-31.93-49.9-71.317,22.34-71.317,49.9-71.317,49.9,31.93,49.9,71.317" transform="translate(-348.613 -89.829)" fill="#040506"/>
      <path id="패스_960" data-name="패스 960" d="M818.672,307.6H801.424a6.764,6.764,0,0,0-4.784,11.547l.6.6a1.981,1.981,0,0,1,.578,1.4v9.741a4.344,4.344,0,0,0,4.34,4.341H817.94a4.345,4.345,0,0,0,4.341-4.341v-9.741a1.979,1.979,0,0,1,.579-1.4l.6-.6a6.764,6.764,0,0,0-4.784-11.547" transform="translate(-362.293 -140.238)" fill="#fbf7f1"/>
      <path id="패스_961" data-name="패스 961" d="M632.537,55.48c0,17.405,3.7,31.515,8.254,31.515s8.254-14.11,8.254-31.515a95.286,95.286,0,0,0-2.111-20.994c-4.564.4-8.775.888-12.6,1.406a98.82,98.82,0,0,0-1.795,19.587" transform="translate(-288.38 -15.725)" fill="#fbf7f1"/>
      <path id="패스_962" data-name="패스 962" d="M684.368,32.774a93.107,93.107,0,0,0-2.318,21.868c0,17.405,3.7,31.515,8.254,31.515s8.254-14.11,8.254-31.515a92.88,92.88,0,0,0-2.341-21.962c-4.075-.065-8.029-.025-11.849.094" transform="translate(-310.953 -14.888)" fill="#fbf7f1"/>
      <path id="패스_963" data-name="패스 963" d="M733.735,34.015a94.592,94.592,0,0,0-2.172,21.249c0,17.405,3.7,31.516,8.254,31.516s8.254-14.11,8.254-31.516a98.255,98.255,0,0,0-1.854-19.888c-4.216-.585-8.385-1.034-12.483-1.361" transform="translate(-333.527 -15.51)" fill="#fbf7f1"/>
      <path id="패스_964" data-name="패스 964" d="M976.443,476.2h-5.185a2.033,2.033,0,0,0-1.438,3.47l.18.18a.6.6,0,0,1,.174.419V483.2a1.306,1.306,0,0,0,1.3,1.3h4.744a1.306,1.306,0,0,0,1.3-1.3v-2.928a.6.6,0,0,1,.174-.419l.18-.18a2.033,2.033,0,0,0-1.438-3.47" transform="translate(-441.879 -217.105)" fill="#fbf7f1"/>
      <path id="패스_965" data-name="패스 965" d="M300.734,158.4S354.462,8.768,319.918,11.881,269.571,70.688,300.734,158.4" transform="translate(-129.479 -5.397)" fill="#fbf7f1"/>
      <path id="패스_966" data-name="패스 966" d="M1053.906,158.4S1000.178,8.768,1034.722,11.881s50.347,58.807,19.185,146.518" transform="translate(-466.459 -5.397)" fill="#fbf7f1"/>
    </g>
  </g>
</svg>
