<svg xmlns="http://www.w3.org/2000/svg" width="607.576" height="773.146" viewBox="0 0 607.576 773.146">
  <g id="그룹_643" data-name="그룹 643" transform="translate(4418.708 -6234.942)">
    <path id="패스_881" data-name="패스 881" d="M-4397.134,6893.725a62.36,62.36,0,0,1,52.81-31.265c26.317-.793,52.909,12.926,67.837,35.046,14.62,21.668,14.543,44.924,13.322,65.026-.261,4.305-.619,8.626-.983,12.96-1.094,13.057-2.127,25.388.009,36.208,2.482,12.6,13.027,23.537,26.857,27.87a43.1,43.1,0,0,0,17.743,1.453c-5.21-35.761-7.352-69.633-7.126-93.782a415.077,415.077,0,0,1,3.229-54.011c.039-1.032.128-2.114.277-3.253,1.249-9.544,2.144-15.571,2.769-19.371h0c1.336-8.824,2.246-13.541,2.246-13.541h0c8.948-63.216,23.466-104.452,23.466-104.452l5.516,2.072c.7-1.836,1.085-2.807,1.085-2.807,130.948-38.2,260.605-74.3,322.141,0,0,0,.714,1.659,1.944,4.753l12.33-3.941s12.439,41.911,18.216,105.494h0s.673,4.755,1.567,13.636h0c.435,3.825,1.027,9.89,1.8,19.485,0,.009,0,.017,0,.026a373.515,373.515,0,0,1,2.349,41.789l0,.007c4.351,70.688-20.081,289.484-106.042,289.484-26.532,0-34.693-66.6-37.123-100.292-22.709,5.131-48.767,7.937-78.6,7.934a286.471,286.471,0,0,1-33.95-2.645c-2.883,34.9-11.508,95-36.713,95-45.975,0-74.346-62.585-90.131-131.625a104.34,104.34,0,0,1-15.125,1.134,89.808,89.808,0,0,1-27.048-4.079c-31.816-9.966-55.386-35.448-61.515-66.509-3.515-17.8-2.067-35.057-.792-50.286.332-3.941.664-7.871.9-11.79.938-15.418.463-25.847-4.725-33.53-5.068-7.513-15.546-13.119-24.128-12.688-6.251.193-8.864,3.24-10.595,6.19-2.072,3.528-1.419,8.725.5,10.677a25.394,25.394,0,0,1-.246,35.916,25.388,25.388,0,0,1-35.919-.243C-4407.3,6947.209-4410.731,6916.9-4397.134,6893.725Z" transform="translate(-6.018 -214.523)" fill="#eb8439"/>
    <circle id="타원_103" data-name="타원 103" cx="134.771" cy="134.771" r="134.771" transform="translate(-4224.628 6731.276) rotate(-45)" fill="#fff"/>
    <path id="패스_883" data-name="패스 883" d="M-4414.713,6657.408a18.169,18.169,0,0,1,2.458-2.931,19.261,19.261,0,0,1,6.19-4.044,21.576,21.576,0,0,1,13.343-.439,45.083,45.083,0,0,1,12.49,5.619,74.155,74.155,0,0,1,9.071,6.706c.779.669,1.548,1.355,2.3,2.063.085.081.829.661.821.792a69.844,69.844,0,0,1,6.59-25.6c2.884-5.927,7.013-11.236,12.671-13.9,16.564-7.786,37.8,7.569,41.491,27.377,1.931,10.364.472,22.227-2.848,31.677-6.329,18.013-16.133,33.35-23.5,43.327a19.963,19.963,0,0,1-24.965,6.386,164.713,164.713,0,0,1-30.768-18.418,102.51,102.51,0,0,1-16.9-15.68,57.349,57.349,0,0,1-10.63-18.072C-4419.745,6673.879-4419.39,6664.312-4414.713,6657.408Z" transform="translate(0.001 -176.01)" fill="#e85300"/>
    <path id="패스_884" data-name="패스 884" d="M-3766.434,7207.754c-8.884,4.413-13.749,14.127-8.815,22.849,2.525,4.464,8.115,6.485,13.326,7.238a150.679,150.679,0,0,0,31.17.935c6.141-.433,12.7-1.623,16.883-5.667,5.566-5.372,4.852-14.46-.161-20.325-5.812-6.8-15.659-8.691-24.749-9.489-9.366-.831-19.367.334-27.656,4.458Zm33.027,5.548a2.829,2.829,0,0,1,3.522-3.469c2.576.483,5.707,4.254,6.564,7.526.476,1.814.251,3.474-1.15,4.333-4.215,2.58-8.373-5.874-8.936-8.39Zm-14.824-.528a2.826,2.826,0,0,1,3.514-3.469c2.584.482,5.706,4.255,6.565,7.526.475,1.813.251,3.473-1.15,4.333-4.215,2.579-8.365-5.875-8.928-8.391Zm-14.712.772a2.824,2.824,0,0,1,3.513-3.469c2.584.484,5.706,4.254,6.564,7.526.476,1.814.251,3.474-1.15,4.333-4.207,2.58-8.365-5.874-8.928-8.391Z" transform="translate(-290.501 -438.408)" fill="#eb8439"/>
    <g id="그룹_629" data-name="그룹 629" transform="translate(-4263.318 6234.942)">
      <g id="그룹_627" data-name="그룹 627" transform="translate(1.289)">
        <path id="패스_885" data-name="패스 885" d="M-3698.282,6388.8h0c76.3-237.357-153.22-129.332-153.22-129.332a245.286,245.286,0,0,0-112.089,0h0s-229.522-108.027-153.22,129.333h0a180.334,180.334,0,0,0-11.281,62.681c0,109.62,98.066,115.711,220.546,115.711S-3687,6561.1-3687,6451.485a180.357,180.357,0,0,0-11.281-62.681Z" transform="translate(4132.352 -6234.942)" fill="#eb8439"/>
        <g id="그룹_625" data-name="그룹 625" transform="translate(71.325 90.953)">
          <g id="그룹_623" data-name="그룹 623">
            <ellipse id="타원_104" data-name="타원 104" cx="61.966" cy="88.566" rx="61.966" ry="88.566" fill="#fbf7f1"/>
            <ellipse id="타원_105" data-name="타원 105" cx="50.179" cy="71.718" rx="50.179" ry="71.718" transform="translate(16.225 16.848)" fill="#040506"/>
            <path id="패스_886" data-name="패스 886" d="M-3852.228,6542.534h-17.345a6.81,6.81,0,0,0-6.8,6.8,6.755,6.755,0,0,0,1.992,4.81l.6.6a2,2,0,0,1,.581,1.4v9.8a4.368,4.368,0,0,0,4.365,4.364h15.872a4.368,4.368,0,0,0,4.365-4.364v-9.8a1.991,1.991,0,0,1,.582-1.4l.6-.6a6.754,6.754,0,0,0,1.992-4.81A6.81,6.81,0,0,0-3852.228,6542.534Z" transform="translate(3945.108 -6465.188)" fill="#fbf7f1"/>
          </g>
          <g id="그룹_624" data-name="그룹 624" transform="translate(183.024)">
            <ellipse id="타원_106" data-name="타원 106" cx="61.966" cy="88.566" rx="61.966" ry="88.566" fill="#fbf7f1"/>
            <ellipse id="타원_107" data-name="타원 107" cx="50.179" cy="71.718" rx="50.179" ry="71.718" transform="translate(7.351 16.848)" fill="#040506"/>
            <path id="패스_887" data-name="패스 887" d="M-3599.9,6542.534h-17.346a6.81,6.81,0,0,0-6.8,6.8,6.753,6.753,0,0,0,1.992,4.81l.6.6a1.994,1.994,0,0,1,.581,1.4v9.8a4.368,4.368,0,0,0,4.365,4.364h15.873a4.368,4.368,0,0,0,4.365-4.364v-9.8a1.992,1.992,0,0,1,.583-1.4l.6-.6a6.754,6.754,0,0,0,1.992-4.81A6.809,6.809,0,0,0-3599.9,6542.534Z" transform="translate(3647.818 -6465.188)" fill="#fbf7f1"/>
          </g>
        </g>
        <g id="그룹_626" data-name="그룹 626" transform="translate(189.412 17.862)">
          <path id="패스_888" data-name="패스 888" d="M-3786.173,6290.536c0,17.5,3.717,31.692,8.3,31.692s8.3-14.189,8.3-31.692a95.821,95.821,0,0,0-2.122-21.112c-4.59.4-8.824.893-12.674,1.415A99.392,99.392,0,0,0-3786.173,6290.536Z" transform="translate(3786.173 -6268.419)" fill="#fbf7f1"/>
          <path id="패스_889" data-name="패스 889" d="M-3734.328,6267.713a93.616,93.616,0,0,0-2.332,21.991c0,17.5,3.716,31.692,8.3,31.692s8.3-14.188,8.3-31.692a93.4,93.4,0,0,0-2.353-22.085C-3726.51,6267.554-3730.487,6267.595-3734.328,6267.713Z" transform="translate(3763.75 -6267.588)" fill="#fbf7f1"/>
          <path id="패스_890" data-name="패스 890" d="M-3684.962,6268.953a95.133,95.133,0,0,0-2.184,21.37c0,17.5,3.716,31.692,8.3,31.692s8.3-14.189,8.3-31.692a98.824,98.824,0,0,0-1.864-20Q-3678.769,6269.44-3684.962,6268.953Z" transform="translate(3741.328 -6268.206)" fill="#fbf7f1"/>
        </g>
      </g>
      <path id="패스_891" data-name="패스 891" d="M-3442.226,6711.135h-5.214a2.047,2.047,0,0,0-2.045,2.045,2.031,2.031,0,0,0,.6,1.445l.181.181a.6.6,0,0,1,.175.422v2.944a1.313,1.313,0,0,0,1.312,1.312h4.77a1.313,1.313,0,0,0,1.312-1.312v-2.944a.6.6,0,0,1,.176-.422l.18-.181a2.031,2.031,0,0,0,.6-1.445A2.047,2.047,0,0,0-3442.226,6711.135Z" transform="translate(3824.404 -6450.587)" fill="#fbf7f1"/>
      <g id="그룹_628" data-name="그룹 628" transform="translate(0 6.472)">
        <path id="패스_892" data-name="패스 892" d="M-4117.881,6394.161s54.03-150.471,19.292-147.341S-4149.219,6305.958-4117.881,6394.161Z" transform="translate(4134.708 -6246.771)" fill="#fbf7f1"/>
        <path id="패스_893" data-name="패스 893" d="M-3364.631,6394.161s-54.031-150.471-19.292-147.341S-3333.293,6305.958-3364.631,6394.161Z" transform="translate(3799.99 -6246.771)" fill="#fbf7f1"/>
      </g>
    </g>
    <path id="패스_894" data-name="패스 894" d="M-3818.908,6696.843a26.854,26.854,0,0,1,5.623-.589,28.465,28.465,0,0,1,10.733,2.063c6.189,2.55,11.053,7.43,14.628,13.242a66.647,66.647,0,0,1,7.5,18.8,109.718,109.718,0,0,1,2.75,16.445c.14,1.513.252,3.031.324,4.558a6.3,6.3,0,0,1,.059,1.684,103.264,103.264,0,0,1,33.306-20.431c9.153-3.334,19-4.734,27.74-1.748,25.6,8.744,32.389,46.878,15.96,71.717-8.6,13-22.335,24.1-35.571,30.733-25.229,12.638-51.406,18.863-69.49,21.891-14.5,2.427-27.743-5.122-33.09-18.864a243.56,243.56,0,0,1-13.768-51.181c-1.695-11.155-2.7-22.416-1.851-34.027.741-10.154,2.768-20.618,7.271-30.125C-3841.178,6709.174-3830.971,6699.373-3818.908,6696.843Z" transform="translate(-255.565 -208.906)" fill="#e85300"/>
    <path id="패스_895" data-name="패스 895" d="M-4032.662,6798.6c73.867,19.674,140.787-7.645,145.376,39.957.235,55.686-144.515,71.938-181.278,75.167-.184.431-.371.863-.556,1.294,4.319-10.523,34.859-116.822,34.859-116.822Q-4033.47,6798.385-4032.662,6798.6Z" transform="translate(-158.311 -255.071)" fill="#eb8439"/>
    <path id="패스_896" data-name="패스 896" d="M-3683.628,6839.3c4.733-46.659,69.056-20.965,141.3-38.164,3.271,11.587,27.332,96.691,33.144,113.606C-3553.892,6910.123-3684.117,6892.135-3683.628,6839.3Z" transform="translate(-332.882 -256.402)" fill="#eb8439"/>
  </g>
</svg>
