<svg xmlns="http://www.w3.org/2000/svg" width="624.791" height="775.212" viewBox="0 0 624.791 775.212">
  <g id="그룹_622" data-name="그룹 622" transform="translate(7319.501 -1278.761)">
    <path id="패스_871" data-name="패스 871" d="M-6613.864,2001.683a59.454,59.454,0,0,0-50.353-29.814c-25.1-.757-50.457,12.327-64.691,33.42-13.944,20.662-13.867,42.838-12.705,62.008.249,4.105.593,8.226.94,12.357,1.041,12.452,2.028,24.211-.007,34.528-2.369,12.011-12.427,22.445-25.615,26.576a41.052,41.052,0,0,1-16.917,1.387c4.967-34.1,7.011-66.4,6.8-89.431a395.8,395.8,0,0,0-3.082-51.5c-.035-.984-.119-2.016-.262-3.1-1.192-9.1-2.044-14.848-2.641-18.472h0c-1.276-8.414-2.143-12.912-2.143-12.912h0c-8.531-60.281-22.373-99.6-22.373-99.6l-5.263,1.975c-.666-1.75-1.034-2.676-1.034-2.676-124.871-36.425-248.515-70.851-307.193,0,0,0-.679,1.581-1.854,4.533l-11.757-3.759s-11.861,39.965-17.372,100.6h0s-.64,4.535-1.492,13h0c-.416,3.648-.98,9.431-1.716,18.58v.026a356.267,356.267,0,0,0-2.241,39.849l0,.006c-4.146,67.408,19.148,276.05,101.12,276.05,25.3,0,33.082-63.512,35.4-95.638,21.655,4.892,46.506,7.569,74.958,7.565a273.508,273.508,0,0,0,32.374-2.522c2.75,33.278,10.973,90.595,35.01,90.595,43.84,0,70.9-59.681,85.946-125.516a99.519,99.519,0,0,0,14.425,1.082,85.7,85.7,0,0,0,25.794-3.89c30.336-9.5,52.813-33.8,58.658-63.422,3.351-16.971,1.971-33.429.754-47.953-.315-3.758-.632-7.506-.858-11.243-.894-14.7-.441-24.647,4.5-31.974,4.833-7.164,14.825-12.51,23.009-12.1,5.962.183,8.452,3.09,10.1,5.9,1.978,3.364,1.354,8.321-.481,10.182a24.216,24.216,0,0,0,.236,34.25,24.209,24.209,0,0,0,34.251-.231C-6604.165,2052.685-6600.892,2023.786-6613.864,2001.683Z" transform="translate(-143.163 -261.333)" fill="#040506"/>
    <circle id="타원_98" data-name="타원 98" cx="128.517" cy="128.517" r="128.517" transform="translate(-7293.542 1785.86) rotate(-45)" fill="#fff"/>
    <path id="패스_872" data-name="패스 872" d="M-6260.413,1651.7a25.652,25.652,0,0,1,5.363-.561,27.14,27.14,0,0,1,10.234,1.966c5.9,2.432,10.541,7.086,13.949,12.629a63.546,63.546,0,0,1,7.151,17.928,104.327,104.327,0,0,1,2.621,15.682c.133,1.442.242,2.891.312,4.345a6.155,6.155,0,0,1,.057,1.607,98.394,98.394,0,0,1,31.757-19.484c8.729-3.18,18.117-4.515,26.454-1.667,24.41,8.337,30.886,44.7,15.22,68.388-8.2,12.394-21.3,22.984-33.92,29.307-24.06,12.052-49.02,17.987-66.263,20.875a28.143,28.143,0,0,1-31.556-17.988,232.386,232.386,0,0,1-13.128-48.807,144.445,144.445,0,0,1-1.767-32.448c.708-9.681,2.641-19.659,6.935-28.726C-6281.649,1663.455-6271.916,1654.109-6260.413,1651.7Z" transform="translate(-555.924 -178.085)" fill="#e85300"/>
    <path id="패스_874" data-name="패스 874" d="M-6846.979,2316.136c-8.47,4.206-13.109,13.47-8.406,21.788,2.409,4.257,7.74,6.184,12.708,6.9a143.647,143.647,0,0,0,29.723.892c5.855-.413,12.109-1.547,16.1-5.4,5.307-5.123,4.627-13.79-.153-19.382-5.543-6.485-14.933-8.288-23.6-9.049-8.931-.792-18.467.319-26.373,4.252Zm31.5,5.29a2.7,2.7,0,0,1,3.358-3.309c2.454.461,5.439,4.058,6.26,7.177.454,1.729.24,3.313-1.1,4.133-4.017,2.461-7.983-5.6-8.52-8Zm-14.136-.5a2.694,2.694,0,0,1,3.351-3.308c2.463.462,5.44,4.056,6.26,7.177.454,1.728.239,3.312-1.1,4.132-4.021,2.46-7.976-5.6-8.512-8Zm-14.033.736a2.7,2.7,0,0,1,3.352-3.309c2.465.462,5.444,4.058,6.26,7.178.454,1.729.24,3.312-1.095,4.132-4.013,2.461-7.979-5.6-8.517-8Z" transform="translate(-286.654 -493.971)" fill="#040506"/>
    <g id="그룹_621" data-name="그룹 621" transform="translate(-7319.501 1278.761)">
      <path id="패스_875" data-name="패스 875" d="M-6789,1456.3h0c-1.522-67.608-36.9-177.541-62.026-177.541-20.839,0-59.183,18.823-82.277,55.736a231,231,0,0,0-105.563,0c-23.077-36.913-61.444-55.736-82.28-55.736-25.124,0-60.5,109.936-62.026,177.541a169.89,169.89,0,0,0-10.622,59.032c0,103.238,88.346,122.539,203.7,122.539s211.72-19.3,211.72-122.539A169.85,169.85,0,0,0-6789,1456.3Z" transform="translate(7193.791 -1278.761)" fill="#040506"/>
      <g id="그룹_620" data-name="그룹 620" transform="translate(63.165 126.822)">
        <g id="그룹_618" data-name="그룹 618">
          <ellipse id="타원_99" data-name="타원 99" cx="58.359" cy="83.41" rx="58.359" ry="83.41" fill="#fff"/>
          <ellipse id="타원_100" data-name="타원 100" cx="47.258" cy="67.543" rx="47.258" ry="67.543" transform="translate(15.28 15.867)" fill="#040506"/>
        </g>
        <g id="그룹_619" data-name="그룹 619" transform="translate(172.369)">
          <ellipse id="타원_101" data-name="타원 101" cx="58.359" cy="83.41" rx="58.359" ry="83.41" fill="#fff"/>
          <ellipse id="타원_102" data-name="타원 102" cx="47.258" cy="67.543" rx="47.258" ry="67.543" transform="translate(6.923 15.867)" fill="#040506"/>
        </g>
      </g>
      <path id="패스_876" data-name="패스 876" d="M-6925.565,1661.441H-6941.9a6.414,6.414,0,0,0-6.407,6.405,6.369,6.369,0,0,0,1.878,4.53l.565.566a1.879,1.879,0,0,1,.548,1.321v9.227a4.113,4.113,0,0,0,4.109,4.11h14.95a4.112,4.112,0,0,0,4.109-4.11v-9.227a1.874,1.874,0,0,1,.55-1.321l.565-.566a6.356,6.356,0,0,0,1.873-4.53A6.41,6.41,0,0,0-6925.565,1661.441Z" transform="translate(7076.391 -1461.776)" fill="#fff"/>
      <path id="패스_877" data-name="패스 877" d="M-6676.724,1661.441h-16.332a6.412,6.412,0,0,0-6.407,6.405,6.355,6.355,0,0,0,1.876,4.53l.564.566a1.869,1.869,0,0,1,.548,1.321v9.227a4.114,4.114,0,0,0,4.112,4.11h14.949a4.114,4.114,0,0,0,4.111-4.11v-9.227a1.874,1.874,0,0,1,.548-1.321l.564-.566a6.371,6.371,0,0,0,1.878-4.53A6.414,6.414,0,0,0-6676.724,1661.441Z" transform="translate(6957.383 -1461.776)" fill="#fff"/>
    </g>
    <path id="패스_878" data-name="패스 878" d="M-6892.178,1813.363a25.6,25.6,0,0,1,5.363-.561,27.128,27.128,0,0,1,10.234,1.966c5.9,2.432,10.541,7.086,13.948,12.627a63.518,63.518,0,0,1,7.152,17.93,104.317,104.317,0,0,1,2.621,15.681q.2,2.165.311,4.346a5.963,5.963,0,0,1,.054,1.607,98.486,98.486,0,0,1,31.76-19.483c8.732-3.181,18.118-4.516,26.454-1.668,24.41,8.338,30.887,44.7,15.222,68.389-8.2,12.394-21.3,22.984-33.921,29.307-24.058,12.052-49.021,17.986-66.264,20.874a28.143,28.143,0,0,1-31.557-17.987,232.224,232.224,0,0,1-13.127-48.806c-1.616-10.638-2.574-21.375-1.765-32.448.707-9.682,2.637-19.66,6.932-28.727C-6913.413,1825.122-6903.679,1815.776-6892.178,1813.363Z" transform="translate(-253.787 -255.402)" fill="#e85300"/>
    <path id="패스_879" data-name="패스 879" d="M-7114.067,1922.9c70.44,18.76,134.253-7.289,138.63,38.1.225,53.1-137.811,68.6-172.865,71.679-.175.41-.355.822-.53,1.233,4.115-10.035,33.24-111.4,33.24-111.4Q-7114.836,1922.7-7114.067,1922.9Z" transform="translate(-147.211 -307.873)" fill="#040506"/>
    <path id="패스_880" data-name="패스 880" d="M-6758.34,1954.074c4.516-44.492,65.852-19.991,134.746-36.392,3.119,11.05,26.064,92.2,31.606,108.333C-6634.627,2021.612-6758.8,2004.458-6758.34,1954.074Z" transform="translate(-333.961 -305.56)" fill="#040506"/>
  </g>
</svg>
