<svg xmlns="http://www.w3.org/2000/svg" width="162.731" height="48.603" viewBox="0 0 162.731 48.603">
  <g id="그룹_724" data-name="그룹 724" transform="translate(-10722.335 -1215.876)">
    <path id="패스_976" data-name="패스 976" d="M229.757,181.3l6.706,8.183H226l-3.383-4a23.425,23.425,0,0,1-7.691,1.23c-12.182,0-21.595-8.121-21.595-22.886,0-14.827,9.413-22.887,21.595-22.887,12.059,0,21.533,8.06,21.533,22.887,0,7.721-2.584,13.6-6.706,17.472m-9.782-11.566,2.4,2.953c1.323-2.122,2.031-5.106,2.031-8.859,0-8.183-3.384-12.674-9.475-12.674-6.152,0-9.536,4.491-9.536,12.674s3.384,12.674,9.536,12.674l.984-.062-5.106-6.706Z" transform="translate(10529 1075)" fill="#040506"/>
    <path id="패스_977" data-name="패스 977" d="M255.044,174.283c0-5.045,3.076-8.059,7.752-11.259a16.938,16.938,0,0,1-3.691-9.9c0-6.767,5.168-12.243,12.919-12.243,7.445,0,12.059,5.045,12.059,11.2,0,4.122-2.153,7.814-5.906,10.459l-2.215,1.6,5.906,6.521a15.2,15.2,0,0,0,1.969-7.567h9.29c0,5.845-1.353,11.228-4.368,15.2l7.014,7.814h-11.69l-2.338-2.523a20.527,20.527,0,0,1-11.382,3.2c-9.536,0-15.319-5.6-15.319-12.489m16.181,3.384a10.13,10.13,0,0,0,4.122-.923l-6.891-7.26a4.912,4.912,0,0,0-2.276,3.938c0,2.645,1.968,4.245,5.045,4.245m-.431-19.626,1.907-1.169c2.031-1.292,2.707-2.769,2.707-4,0-1.477-1.107-2.83-3.384-2.83-2.091.061-3.445,1.292-3.445,3.2,0,1.538.861,3.076,2.215,4.8" transform="translate(10529 1075)" fill="#040506"/>
    <path id="패스_978" data-name="패스 978" d="M310.539,186.1l14.827-44.543H341.3L356.066,186.1H343.454l-2.646-8.737h-14.95l-2.646,8.737ZM338.1,168.5l-4.614-14.95h-.369l-4.553,14.95Z" transform="translate(10529 1075)" fill="#040506"/>
  </g>
</svg>
