<svg xmlns="http://www.w3.org/2000/svg" width="417.343" height="45.774" viewBox="0 0 417.343 45.774">
  <g id="그룹_722" data-name="그룹 722" transform="translate(-10529.001 -1075)">
    <path id="패스_961" data-name="패스 961" d="M22.58,12.613h.368l4.615,14.95H18.026Zm-7.752-12L0,45.159H12.674l2.644-8.737H30.27l2.644,8.737H45.528L30.761.616Z" transform="translate(10529 1075)" fill="#040506"/>
    <path id="패스_962" data-name="패스 962" d="M49.957.616H68.906c9.967,0,16.488,6.275,16.488,15.627,0,9.536-6.706,15.5-16.857,15.5H61.646V45.159H49.957ZM66.2,22.641c4.43,0,6.952-2.461,6.952-6.4,0-3.876-2.522-6.276-6.952-6.276H61.646V22.641Z" transform="translate(10529 1075)" fill="#040506"/>
    <path id="패스_963" data-name="패스 963" d="M90.009.616h18.949c9.967,0,16.488,6.275,16.488,15.627,0,9.536-6.706,15.5-16.857,15.5H101.7V45.159H90.009Zm16.242,22.025c4.43,0,6.952-2.461,6.952-6.4,0-3.876-2.522-6.276-6.952-6.276H101.7V22.641Z" transform="translate(10529 1075)" fill="#040506"/>
    <path id="패스_964" data-name="패스 964" d="M130.061.616h11.689V35.684H159.9v9.475H130.061Z" transform="translate(10529 1075)" fill="#040506"/>
    <rect id="사각형_596" data-name="사각형 596" width="11.689" height="44.543" transform="translate(10693.945 1075.616)" fill="#040506"/>
    <path id="패스_965" data-name="패스 965" d="M204.073,10.213c-6.152,0-9.659,4.737-9.659,12.674,0,8.367,3.568,12.674,9.6,12.674,4.492,0,7.383-2.461,8-6.4l11.874.123c-.616,7.629-7.322,16.489-20.119,16.489-12.243,0-21.41-8.122-21.41-22.887C182.355,8.06,191.768,0,203.765,0,214.84,0,222.9,6.214,223.884,17.165H212.01c-.37-4.183-3.2-6.952-7.937-6.952" transform="translate(10529 1075)" fill="#040506"/>
    <path id="패스_966" data-name="패스 966" d="M226.591,45.159,241.418.616h15.934l14.766,44.543H259.506l-2.646-8.737H241.91l-2.645,8.737Zm27.562-17.6-4.614-14.95h-.369l-4.553,14.95Z" transform="translate(10529 1075)" fill="#040506"/>
    <path id="패스_967" data-name="패스 967" d="M269.626.616h38.391v9.475H294.605V45.159H283.038V10.091H269.626Z" transform="translate(10529 1075)" fill="#040506"/>
    <rect id="사각형_597" data-name="사각형 597" width="11.689" height="44.543" transform="translate(10841.755 1075.616)" fill="#040506"/>
    <path id="패스_968" data-name="패스 968" d="M351.76,45.774c-12.182,0-21.6-8.122-21.6-22.887C330.165,8.06,339.578,0,351.76,0c12.059,0,21.533,8.06,21.533,22.887s-9.474,22.887-21.533,22.887m0-35.561c-6.152,0-9.536,4.491-9.536,12.674s3.384,12.674,9.536,12.674c6.091,0,9.475-4.492,9.475-12.674s-3.384-12.674-9.475-12.674" transform="translate(10529 1075)" fill="#040506"/>
    <path id="패스_969" data-name="패스 969" d="M417.343,45.159h-9.782L391.011,21.1H390.7V45.159H379.014V.616h9.967l16.3,23.933h.37V.616h11.689Z" transform="translate(10529 1075)" fill="#040506"/>
  </g>
</svg>
