<svg xmlns="http://www.w3.org/2000/svg" width="284.331" height="45.712" viewBox="0 0 284.331 45.712">
  <g id="그룹_723" data-name="그룹 723" transform="translate(-10720.601 -1145.469)">
    <path id="패스_970" data-name="패스 970" d="M191.6,71.084H210.55c9.967,0,16.488,5.66,16.488,15.073,0,6.153-2.83,10.521-7.629,12.8l9.106,16.673H215.78L207.9,100.8H203.29v14.827H191.6Zm16.242,20.549c4.43,0,6.952-1.6,6.952-5.476,0-3.937-2.522-5.721-6.952-5.721H203.29v11.2Z" transform="translate(10529 1075)" fill="#040506"/>
    <path id="패스_971" data-name="패스 971" d="M232.329,71.084h31.808v9.475H244.018v8.059h18.457v9.475H244.018v8.059h20.057v9.475H232.329Z" transform="translate(10529 1075)" fill="#040506"/>
    <path id="패스_972" data-name="패스 972" d="M291.207,102.83h.369l9.352-31.746h13.227L299.39,115.627H283.455L268.628,71.084h13.227Z" transform="translate(10529 1075)" fill="#040506"/>
    <rect id="사각형_598" data-name="사각형 598" width="11.689" height="44.543" transform="translate(10847.586 1146.084)" fill="#040506"/>
    <path id="패스_973" data-name="패스 973" d="M336.3,71.084h31.808v9.475H347.993v8.059H366.45v9.475H347.993v8.059H368.05v9.475H336.3Z" transform="translate(10529 1075)" fill="#040506"/>
    <path id="패스_974" data-name="패스 974" d="M372.3,71.084h13.043l6.275,27.87h.369l7.322-27.87H409.64l7.383,27.993h.369l6.275-27.993H436.71l-13.1,44.543H412.347l-7.691-25.471h-.369l-7.69,25.471H385.4Z" transform="translate(10529 1075)" fill="#040506"/>
    <path id="패스_975" data-name="패스 975" d="M457.844,80.128c-3.876,0-5.6,1.477-5.66,3.568-.062,2.277,2.03,3.569,6.152,4.43l3.692.861c9.6,2.031,13.842,6.706,13.9,13.536-.062,8.736-6.768,13.658-18.026,13.658-11.505,0-18.95-5.045-19.073-16h11.2c.184,4.122,3.076,6.337,7.69,6.337,4,0,6.152-1.662,6.214-4-.062-2.154-1.846-3.384-6.829-4.492l-4.491-.984C444.8,95.324,440,91.448,440,84.558c-.061-8.429,7.383-14.089,17.842-14.089,10.705,0,17.411,5.721,17.473,14.4H464.058c-.246-3.014-2.215-4.737-6.214-4.737" transform="translate(10529 1075)" fill="#040506"/>
  </g>
</svg>
