<svg xmlns="http://www.w3.org/2000/svg" width="173.53" height="40.073" viewBox="0 0 173.53 40.073">
  <g id="그룹_445" data-name="그룹 445" transform="translate(12701.827 -3969.03)">
    <path id="패스_955" data-name="패스 955" d="M678.242,500.569c-.91.456-.52,1.627.652,1.3a92.091,92.091,0,0,1,24.989-3.969c5.856,0,9.89,2.408,10.542,8.915.39,4.555-1.237,8.981-7.093,9.956-10.283,1.627-24.665,1.431-32.147.586-8.4-.911-12.365-3.188-13.6-8.264-1.431-5.6-1.431-17.115,0-22.647,1.236-5.141,4.555-7.679,10.087-8.134,4.815-.456,27.982-.521,32.928-.131,5.336.325,8.4,2.538,8.4,7.029,0,4.751-2.734,7.354-8.4,7.354H682.147a16.81,16.81,0,0,1,.456,6.442C680.78,499.723,679.544,499.918,678.242,500.569Z" transform="translate(-13242.776 3491.104)" fill="#2f2f2f"/>
    <path id="패스_956" data-name="패스 956" d="M566.563,476.419c-1.123.8-2.164,1.55-3.14,2.251a98.012,98.012,0,0,0-33.675.01c-.98-.7-2.025-1.455-3.154-2.262-7.231-5.167-6.563,11.673-6.148,17.356a83.492,83.492,0,0,0,.7,13.522c.692,4.4,1.95,6.1,5.219,6.665a132.5,132.5,0,0,0,40.5,0c3.332-.566,4.527-2.263,5.218-6.665a85.971,85.971,0,0,0,.684-14.306C573.168,486.7,573.486,471.472,566.563,476.419ZM551.2,495.854a9.675,9.675,0,0,1-8.992,0c-.88-.441-1.195-1.069-.817-1.7a1.121,1.121,0,0,1,1.446-.566,8.27,8.27,0,0,0,7.672.062,1,1,0,0,1,1.32.566A1.281,1.281,0,0,1,551.2,495.854Z" transform="translate(-13222.041 3493.583)" fill="#2f2f2f"/>
    <g id="그룹_444" data-name="그룹 444" transform="translate(-12641.618 3969.922)">
      <g id="그룹_99" data-name="그룹 99" transform="translate(0.149)">
        <path id="패스_115" data-name="패스 115" d="M996.749,244.73h0c8.8-27.378-17.673-14.917-17.673-14.917a28.3,28.3,0,0,0-12.929,0h0s-26.475-12.461-17.673,14.918h0a20.786,20.786,0,0,0-1.3,7.229c0,12.645,11.311,13.347,25.439,13.347s25.439-.7,25.439-13.347a20.811,20.811,0,0,0-1.3-7.229Z" transform="translate(-946.681 -226.983)" fill="#eb8439"/>
        <g id="그룹_97" data-name="그룹 97" transform="translate(8.227 10.491)">
          <g id="그룹_95" data-name="그룹 95">
            <ellipse id="타원_66" data-name="타원 66" cx="7.148" cy="10.216" rx="7.148" ry="10.216" fill="#fbf7f1"/>
            <ellipse id="타원_67" data-name="타원 67" cx="5.788" cy="8.272" rx="5.788" ry="8.272" transform="translate(1.871 1.943)" fill="#040506"/>
            <path id="패스_116" data-name="패스 116" d="M968.425,249.764h-2a.785.785,0,0,0-.556,1.34l.07.069a.229.229,0,0,1,.067.162v1.13a.5.5,0,0,0,.5.5h1.831a.5.5,0,0,0,.5-.5v-1.13a.227.227,0,0,1,.067-.162l.069-.069a.785.785,0,0,0-.555-1.34Z" transform="translate(-957.711 -240.842)" fill="#fbf7f1"/>
          </g>
          <g id="그룹_96" data-name="그룹 96" transform="translate(21.111)">
            <ellipse id="타원_68" data-name="타원 68" cx="7.148" cy="10.216" rx="7.148" ry="10.216" fill="#fbf7f1"/>
            <ellipse id="타원_69" data-name="타원 69" cx="5.788" cy="8.272" rx="5.788" ry="8.272" transform="translate(0.848 1.943)" fill="#040506"/>
            <path id="패스_117" data-name="패스 117" d="M987.113,249.764h-2a.785.785,0,0,0-.556,1.34l.07.069a.23.23,0,0,1,.067.162v1.13a.5.5,0,0,0,.5.5h1.831a.5.5,0,0,0,.5-.5v-1.13a.227.227,0,0,1,.067-.162l.069-.069a.785.785,0,0,0-.555-1.34Z" transform="translate(-981.585 -240.842)" fill="#fbf7f1"/>
          </g>
        </g>
        <g id="그룹_98" data-name="그룹 98" transform="translate(21.848 2.06)">
          <path id="패스_118" data-name="패스 118" d="M972.32,231.971c0,2.019.429,3.656.957,3.656s.958-1.637.958-3.656a11.06,11.06,0,0,0-.245-2.435c-.529.047-1.017.1-1.461.164A11.435,11.435,0,0,0,972.32,231.971Z" transform="translate(-972.32 -229.421)" fill="#fbf7f1"/>
          <path id="패스_119" data-name="패스 119" d="M976.255,229.415a10.808,10.808,0,0,0-.268,2.537c0,2.019.429,3.656.957,3.656s.958-1.637.958-3.656a10.761,10.761,0,0,0-.272-2.547C977.157,229.4,976.7,229.4,976.255,229.415Z" transform="translate(-972.862 -229.401)" fill="#fbf7f1"/>
          <path id="패스_120" data-name="패스 120" d="M979.905,229.5a10.968,10.968,0,0,0-.251,2.464c0,2.019.429,3.656.957,3.656s.958-1.637.958-3.656a11.421,11.421,0,0,0-.215-2.307C980.865,229.591,980.381,229.54,979.905,229.5Z" transform="translate(-973.405 -229.416)" fill="#fbf7f1"/>
        </g>
      </g>
      <path id="패스_121" data-name="패스 121" d="M998.093,262.251h-.6a.236.236,0,0,0-.235.236.23.23,0,0,0,.069.166l.021.021a.07.07,0,0,1,.02.049v.339a.151.151,0,0,0,.151.152h.55a.152.152,0,0,0,.152-.152v-.339a.066.066,0,0,1,.02-.049l.021-.021a.233.233,0,0,0,.069-.166A.236.236,0,0,0,998.093,262.251Z" transform="translate(-954.011 -232.198)" fill="#fbf7f1"/>
      <g id="그룹_100" data-name="그룹 100" transform="translate(0 0.746)">
        <path id="패스_122" data-name="패스 122" d="M948.447,244.86s6.232-17.357,2.225-17S944.832,234.685,948.447,244.86Z" transform="translate(-946.506 -227.859)" fill="#fbf7f1"/>
        <path id="패스_123" data-name="패스 123" d="M1004.818,244.86s-6.233-17.357-2.226-17S1008.432,234.685,1004.818,244.86Z" transform="translate(-954.601 -227.859)" fill="#fbf7f1"/>
      </g>
    </g>
  </g>
</svg>
