<svg xmlns="http://www.w3.org/2000/svg" width="175.844" height="47.391" viewBox="0 0 175.844 47.391">
  <g id="그룹_446" data-name="그룹 446" transform="translate(12684.911 -3820)">
    <path id="패스_124" data-name="패스 124" d="M678.759,500.749c-.937.46-.536,1.64.671,1.312a96.617,96.617,0,0,1,25.718-4c6.026,0,10.179,2.427,10.849,8.986.4,4.591-1.273,9.052-7.3,10.036-10.583,1.64-25.384,1.443-33.085.59-8.64-.918-12.725-3.213-14-8.33-1.473-5.642-1.473-17.251,0-22.827,1.273-5.182,4.688-7.74,10.381-8.2,4.956-.46,28.8-.525,33.888-.132,5.492.328,8.64,2.558,8.64,7.085,0,4.788-2.814,7.412-8.64,7.412H682.778a16.607,16.607,0,0,1,.469,6.493C681.371,499.9,680.1,500.092,678.759,500.749Z" transform="translate(-13225.12 3349.074)" fill="#ef994e"/>
    <path id="패스_125" data-name="패스 125" d="M567.914,476.427c-1.156.809-2.228,1.562-3.232,2.269a102.959,102.959,0,0,0-34.657.01c-1.008-.71-2.084-1.466-3.246-2.28-7.442-5.208-6.754,11.766-6.327,17.494a82.429,82.429,0,0,0,.721,13.63c.712,4.437,2.007,6.148,5.371,6.718a139.194,139.194,0,0,0,41.675,0c3.429-.57,4.659-2.281,5.371-6.718a84.888,84.888,0,0,0,.7-14.42C574.712,486.788,575.039,471.44,567.914,476.427Zm-15.807,19.589a10.143,10.143,0,0,1-9.255,0c-.906-.444-1.23-1.078-.841-1.711a1.164,1.164,0,0,1,1.488-.57,8.67,8.67,0,0,0,7.9.063,1.034,1.034,0,0,1,1.358.57A1.281,1.281,0,0,1,552.107,496.016Z" transform="translate(-13205.125 3351.553)" fill="#ef994e"/>
    <g id="그룹_102" data-name="그룹 102" transform="translate(-12622.91 3820)">
      <path id="패스_109" data-name="패스 109" d="M994.668,386.692h0c-.181-7.9-4.4-20.739-7.392-20.739-2.483,0-7.054,2.2-9.806,6.511a28.078,28.078,0,0,0-12.581,0c-2.75-4.312-7.323-6.511-9.806-6.511-2.995,0-7.21,12.842-7.392,20.739a19.477,19.477,0,0,0-1.266,6.9c0,12.06,10.529,14.315,24.276,14.315s25.234-2.255,25.234-14.315A19.5,19.5,0,0,0,994.668,386.692Z" transform="translate(-946.425 -360.84)" fill="#040506"/>
      <path id="패스_110" data-name="패스 110" d="M976.329,359.84a4.826,4.826,0,0,0-1.616,6.767l.248.4.113.184.348.566c.857,1.393.821,1.8-.563,2.655l-2.9,1.78,1.545,2.513,2.9-1.78c2.759-1.7,3.222-3.923,1.512-6.7l-.348-.566-.113-.185-.248-.4a1.908,1.908,0,0,1,.668-2.72,1.475,1.475,0,0,0-1.546-2.513Z" transform="translate(-951.334 -359.624)" fill="#040506"/>
      <ellipse id="타원_62" data-name="타원 62" cx="6.955" cy="9.941" rx="6.955" ry="9.941" transform="translate(7.528 19.614)" fill="#fff"/>
      <ellipse id="타원_63" data-name="타원 63" cx="5.632" cy="8.05" rx="5.632" ry="8.05" transform="translate(9.349 21.527)" fill="#040506"/>
      <ellipse id="타원_64" data-name="타원 64" cx="6.955" cy="9.941" rx="6.955" ry="9.941" transform="translate(28.071 19.614)" fill="#fff"/>
      <ellipse id="타원_65" data-name="타원 65" cx="5.632" cy="8.05" rx="5.632" ry="8.05" transform="translate(28.896 21.527)" fill="#040506"/>
      <path id="패스_111" data-name="패스 111" d="M968.032,395.411h-1.947a.764.764,0,0,0-.54,1.3l.068.068a.225.225,0,0,1,.065.158v1.1a.49.49,0,0,0,.49.49h1.782a.491.491,0,0,0,.49-.49v-1.1a.224.224,0,0,1,.065-.158l.067-.068a.756.756,0,0,0,.224-.54A.764.764,0,0,0,968.032,395.411Z" transform="translate(-950.057 -367.051)" fill="#fff"/>
      <path id="패스_112" data-name="패스 112" d="M987.188,395.411h-1.947a.763.763,0,0,0-.54,1.3l.068.068a.225.225,0,0,1,.065.158v1.1a.49.49,0,0,0,.49.49h1.782a.49.49,0,0,0,.49-.49v-1.1a.221.221,0,0,1,.065-.158l.067-.068a.756.756,0,0,0,.224-.54A.764.764,0,0,0,987.188,395.411Z" transform="translate(-953.739 -367.051)" fill="#fff"/>
    </g>
  </g>
</svg>
