<svg xmlns="http://www.w3.org/2000/svg" width="225.236" height="45.773" viewBox="0 0 225.236 45.773">
  <g id="그룹_839" data-name="그룹 839" transform="translate(-1628.123 -340.975)">
    <path id="패스_1568" data-name="패스 1568" d="M1655.978,353.495a6.337,6.337,0,0,0-2.493-1.723,9.555,9.555,0,0,0-3.491-.584,9.242,9.242,0,0,0-5.275,1.476,9.354,9.354,0,0,0-3.384,4.322,17.688,17.688,0,0,0-1.185,6.814,18.739,18.739,0,0,0,1.123,6.875,8.673,8.673,0,0,0,8.629,5.86,11.718,11.718,0,0,0,4.706-.846,6.12,6.12,0,0,0,2.892-2.415,6.961,6.961,0,0,0,.953-3.691l2.092.246h-10.4V361.37h19.6v6.121a20.068,20.068,0,0,1-2.538,10.29,16.894,16.894,0,0,1-7.044,6.66,22.333,22.333,0,0,1-10.321,2.307,22.756,22.756,0,0,1-11.351-2.769,19.091,19.091,0,0,1-7.644-7.936,25.646,25.646,0,0,1-2.722-12.12,25.211,25.211,0,0,1,2.86-12.335,19.551,19.551,0,0,1,7.768-7.906,23.743,23.743,0,0,1,20.44-.754,17.817,17.817,0,0,1,6.922,5.429,15.673,15.673,0,0,1,3.138,7.907h-11.874A6.454,6.454,0,0,0,1655.978,353.495Z" fill="#070808"/>
    <path id="패스_1569" data-name="패스 1569" d="M1715.563,376.212a19.084,19.084,0,0,1-7.722,7.86,24.031,24.031,0,0,1-22.041,0,19.085,19.085,0,0,1-7.705-7.875,28.569,28.569,0,0,1,0-24.732,19.034,19.034,0,0,1,7.705-7.829,24.151,24.151,0,0,1,22.041,0,19.012,19.012,0,0,1,7.722,7.829,28.611,28.611,0,0,1,0,24.747Zm-10.306-19.272a8.9,8.9,0,0,0-3.23-4.292,10.013,10.013,0,0,0-10.413,0,8.934,8.934,0,0,0-3.215,4.292,22.5,22.5,0,0,0,0,13.843,8.378,8.378,0,0,0,8.414,5.752,9.014,9.014,0,0,0,5.214-1.461,8.88,8.88,0,0,0,3.23-4.291,22.481,22.481,0,0,0,0-13.843Z" fill="#070808"/>
    <path id="패스_1570" data-name="패스 1570" d="M1764.136,376.212a19.078,19.078,0,0,1-7.722,7.86,24.031,24.031,0,0,1-22.041,0,19.085,19.085,0,0,1-7.705-7.875,28.578,28.578,0,0,1,0-24.732,19.034,19.034,0,0,1,7.705-7.829,24.151,24.151,0,0,1,22.041,0,19.006,19.006,0,0,1,7.722,7.829,28.611,28.611,0,0,1,0,24.747ZM1753.83,356.94a8.9,8.9,0,0,0-3.229-4.292,10.013,10.013,0,0,0-10.413,0,8.922,8.922,0,0,0-3.215,4.292,22.481,22.481,0,0,0,0,13.843,8.378,8.378,0,0,0,8.414,5.752,9.016,9.016,0,0,0,5.214-1.461,8.879,8.879,0,0,0,3.229-4.291,22.481,22.481,0,0,0,0-13.843Z" fill="#070808"/>
    <path id="패스_1571" data-name="패스 1571" d="M1784.393,386.133H1772.7V341.59h11.69Zm-6.891,0v-9.967h11.689a13.343,13.343,0,0,0,5.953-1.169,7.682,7.682,0,0,0,3.584-3.876,17.8,17.8,0,0,0,1.23-7.26,17.99,17.99,0,0,0-1.23-7.321,7.47,7.47,0,0,0-3.661-3.845,14.536,14.536,0,0,0-6.152-1.138h-11.6V341.59h12.151a24.953,24.953,0,0,1,11.889,2.677,18.369,18.369,0,0,1,7.722,7.69,27.67,27.67,0,0,1,0,23.81,18.424,18.424,0,0,1-7.69,7.69,24.582,24.582,0,0,1-11.767,2.676Z" fill="#070808"/>
    <path id="패스_1572" data-name="패스 1572" d="M1840.686,352.757a4.279,4.279,0,0,0-2.045-1.615,9.1,9.1,0,0,0-3.37-.538,8.978,8.978,0,0,0-3.09.46,4.1,4.1,0,0,0-1.877,1.277,3.206,3.206,0,0,0,.784,4.568,14.589,14.589,0,0,0,4.707,1.784l3.723.739q7.1,1.539,10.443,4.937a12.059,12.059,0,0,1,3.4,8.659,12.325,12.325,0,0,1-2.168,7.368,13.609,13.609,0,0,1-6.183,4.645,25.838,25.838,0,0,1-9.644,1.615,26.5,26.5,0,0,1-10.09-1.754,13.88,13.88,0,0,1-6.583-5.306,16.583,16.583,0,0,1-2.4-8.906h11.2a6.869,6.869,0,0,0,1.077,3.461,5.858,5.858,0,0,0,2.645,2.154,10.13,10.13,0,0,0,4,.722,9.5,9.5,0,0,0,3.352-.522,4.844,4.844,0,0,0,2.108-1.415,3.184,3.184,0,0,0,.723-2.062,2.86,2.86,0,0,0-.677-1.907,5.729,5.729,0,0,0-2.184-1.431,23.171,23.171,0,0,0-3.969-1.153l-4.491-1.015q-6.122-1.291-9.367-4.353a10.654,10.654,0,0,1-3.245-8.136,12.3,12.3,0,0,1,2.276-7.337,14.892,14.892,0,0,1,6.322-4.953,22.87,22.87,0,0,1,9.244-1.768,22.247,22.247,0,0,1,9.213,1.768,13.955,13.955,0,0,1,6.076,5.03,13.43,13.43,0,0,1,2.152,7.568h-11.227A5.436,5.436,0,0,0,1840.686,352.757Z" fill="#070808"/>
  </g>
</svg>
